<?xml version="1.0" standalone="no"?>
<!DOCTYPE svg PUBLIC "-//W3C//DTD SVG 1.1//EN" "http://www.w3.org/Graphics/SVG/1.1/DTD/svg11.dtd" >
<svg xmlns="http://www.w3.org/2000/svg" xmlns:xlink="http://www.w3.org/1999/xlink" version="1.1">
<metadata></metadata>
<defs>
<font id="theinhardtultralight_italic" horiz-adv-x="1208" >
<font-face units-per-em="2048" ascent="1642" descent="-406" />
<missing-glyph horiz-adv-x="409" />
<glyph unicode="&#xfb01;" horiz-adv-x="987" d="M776 1395q-18 14 -61 28.5t-90 14.5q-41 0 -78 -13.5t-66 -42.5t-45 -70.5t-30 -103.5l-52 -233h-229l-8 -43h229l-199 -932h46l198 932h287l8 43h-285l39 192q10 53 19.5 88t25.5 64q23 41 56.5 58.5t79.5 17.5q47 0 84.5 -13.5t60.5 -29.5zM907 975h-45l-207 -975h45z M997 1393h-45l-51 -236h45z" />
<glyph unicode="&#xfb02;" horiz-adv-x="1011" d="M776 1395q-18 14 -61 28.5t-90 14.5q-41 0 -78 -13.5t-66 -42.5t-45 -70.5t-30 -103.5l-52 -233h-229l-8 -43h229l-199 -932h46l198 932h287l8 43h-285l39 192q10 53 19.5 88t25.5 64q23 41 56.5 58.5t79.5 17.5q47 0 84.5 -13.5t60.5 -29.5zM956 1391l-297 -1391h46 l296 1391h-45z" />
<glyph horiz-adv-x="0" />
<glyph horiz-adv-x="682" />
<glyph horiz-adv-x="0" />
<glyph horiz-adv-x="0" />
<glyph unicode="&#xd;" horiz-adv-x="1724" d="M1561 975h-45v-465h-1354l471 465h-66l-485 -488l485 -487h66l-469 467h1397v508z" />
<glyph unicode=" "  horiz-adv-x="409" />
<glyph unicode="&#x09;" horiz-adv-x="409" />
<glyph unicode="&#xa0;" horiz-adv-x="409" />
<glyph unicode="!" horiz-adv-x="403" d="M248 690l149 703h-45l-149 -703l-64 -330h33zM150 233h-46l-49 -233h45z" />
<glyph unicode="&#x22;" horiz-adv-x="550" d="M291 1065l69 328h-45l-69 -328l-39 -229h29zM508 1065l70 328h-46l-69 -328l-39 -229h29z" />
<glyph unicode="#" horiz-adv-x="1413" d="M1368 934h-356l106 459h-45l-106 -459h-377l106 459h-45l-106 -459h-367l-2 -43h359l-93 -408h-350l-4 -41h344l-100 -442h45l100 442h377l-100 -442h45l100 442h379l4 41h-373l92 408h365zM580 891h376l-92 -408h-377z" />
<glyph unicode="$" horiz-adv-x="1193" d="M819 1552h-43l-33 -157q-43 6 -86 6q-227 0 -340.5 -93.5t-113.5 -242.5q0 -78 28.5 -132t72.5 -91t95.5 -60.5t98.5 -40.5l98 -36l-141 -662q-143 29 -233.5 114t-123.5 220l-39 -25q33 -139 131.5 -231t255.5 -121l-40 -195h40l39 191q45 -6 95 -6q129 0 221 28.5 t151.5 80t88 120t28.5 146.5q0 76 -27.5 129t-73.5 91t-104.5 63.5t-118.5 47.5l-102 37l131 615q111 -20 197 -75.5t131 -152.5l37 27q-45 92 -135.5 155.5t-219.5 86.5zM690 672q68 -25 129.5 -49.5t106.5 -60.5t71.5 -85t26.5 -119q0 -158 -120 -241.5t-324 -83.5 q-23 0 -43.5 1t-40.5 3l139 653zM248 1071q0 78 31.5 132t87 89t129 50.5t159.5 15.5q20 0 40 -1t38 -3l-129 -606l-51 18q-66 25 -122 49.5t-97 58t-63.5 80.5t-22.5 117z" />
<glyph unicode="%" horiz-adv-x="1912" d="M537 1413q-92 0 -163 -51t-119 -132t-73.5 -181.5t-25.5 -198.5q0 -147 61.5 -237.5t192.5 -90.5q92 0 161.5 53.5t117.5 136.5t72.5 183t24.5 195q0 80 -20.5 140t-54 101t-78.5 61.5t-96 20.5zM201 860q0 80 20.5 170t62.5 166t103.5 126t142.5 50q53 0 92.5 -22.5 t66 -62.5t38.5 -94t12 -116q0 -90 -23.5 -181t-65.5 -165t-102.5 -121t-133.5 -47q-90 0 -151.5 69.5t-61.5 227.5zM1407 1395l-938 -1395h51l938 1395h-51zM1559 868q-92 0 -163 -51t-119 -132t-73.5 -181.5t-25.5 -198.5q0 -147 61 -237.5t193 -90.5q92 0 161.5 53.5 t117.5 136.5t72.5 183.5t24.5 194.5q0 80 -20.5 140t-54 101t-78.5 61.5t-96 20.5zM1223 315q0 80 20.5 170t62.5 166t103 126t143 50q53 0 92 -22.5t66 -62.5t39 -94t12 -116q0 -90 -23.5 -181t-65.5 -164.5t-102.5 -121t-133.5 -47.5q-90 0 -151.5 69.5t-61.5 227.5z" />
<glyph unicode="&#x26;" horiz-adv-x="1226" d="M1104 0q-47 55 -97.5 116.5t-97.5 127.5q68 94 115 176t86 162l-35 28q-33 -76 -79 -157.5t-111 -176.5q-98 129 -173 249t-134 233q223 96 319 197.5t96 228.5q0 47 -16 90t-50 74.5t-84 50t-116 18.5q-76 0 -134 -24.5t-99 -66.5t-62.5 -98.5t-21.5 -117.5 q0 -88 31.5 -165t78.5 -169q-104 -47 -191 -92t-150.5 -98.5t-98.5 -120t-35 -154.5q0 -76 26.5 -138t75 -106t116 -68t151.5 -24q88 0 158.5 21.5t127 56.5t100.5 76t81 82q70 -94 106.5 -139t59.5 -72h57zM426 18q-158 0 -247 81t-89 220q0 82 38 143.5t100.5 111 t142.5 89t166 78.5q70 -129 150.5 -255t166.5 -246q-33 -39 -76 -78t-96 -71t-117.5 -52.5t-138.5 -20.5zM455 1112q0 57 19.5 106.5t55 85t86 55t109.5 19.5q98 0 161.5 -52t63.5 -146q0 -66 -27.5 -121t-78.5 -102.5t-123 -87.5t-160 -76l-14 26q-27 55 -59.5 128 t-32.5 165z" />
<glyph unicode="'" horiz-adv-x="333" d="M291 1065l69 328h-45l-69 -328l-39 -229h29z" />
<glyph unicode="(" horiz-adv-x="475" d="M211 -336q-45 135 -69.5 282.5t-24.5 289.5q0 164 34.5 320.5t98 304t153 282.5t197.5 256l-43 10q-229 -258 -357 -548t-128 -613q0 -313 98 -596z" />
<glyph unicode=")" horiz-adv-x="473" d="M242 1397q45 -135 69.5 -282.5t24.5 -289.5q0 -164 -35 -320.5t-98.5 -304t-152.5 -283.5t-197 -255l47 -10q231 258 356 547.5t125 613.5q0 160 -25.5 307.5t-74.5 288.5z" />
<glyph unicode="*" horiz-adv-x="901" d="M635 1382l-41 9l-68 -328l-286 170l-23 -37l291 -168l-250 -219l27 -33l247 225l134 -305l39 17l-138 305l332 33l-2 41l-332 -35z" />
<glyph unicode="+" horiz-adv-x="1359" d="M664 1208v-583h-578v-43h578v-582h43v582h579v43h-579v583h-43z" />
<glyph unicode="," horiz-adv-x="325" d="M70 233l-66 -303q-16 -84 -36.5 -126t-53.5 -68l-14 -62q61 37 95 97.5t56 169.5l64 292h-45z" />
<glyph unicode="-" horiz-adv-x="845" d="M127 526h567l11 43h-568z" />
<glyph unicode="." horiz-adv-x="325" d="M115 233h-45l-52 -233h45z" />
<glyph unicode="/" horiz-adv-x="677" d="M707 1393l-734 -1393h52l733 1393h-51z" />
<glyph unicode="0" horiz-adv-x="1265" d="M770 1417q-156 0 -274.5 -82t-198.5 -213t-121 -297t-41 -333q0 -119 25.5 -214.5t77 -163t130 -103.5t185.5 -36q156 0 273.5 84t196.5 217.5t118 298t39 326.5q0 152 -40 251t-100.5 158.5t-133.5 83t-136 23.5zM180 516q0 135 36 285.5t108.5 278.5t181 211t256.5 83 q92 0 161.5 -34.5t116.5 -98t71 -153t24 -197.5q0 -156 -40 -311.5t-114 -280.5t-180.5 -203t-241.5 -78q-78 0 -146.5 25t-120.5 83t-82 153.5t-30 236.5z" />
<glyph unicode="1" horiz-adv-x="651" d="M627 1393h-41q-20 -80 -53 -139.5t-95 -98.5q-47 -29 -100 -44t-137 -15h-43l-8 -41q10 -2 25 -2h26q141 0 223 46t115 99h2l-256 -1198h45z" />
<glyph unicode="2" horiz-adv-x="1128" d="M260 862q-4 25 -7 51.5t-3 49.5q0 88 29.5 163.5t83 131t130 87t171.5 31.5q176 0 276 -93t100 -251q0 -100 -38.5 -187t-100 -163t-139.5 -140.5t-156 -119.5t-161 -111.5t-162.5 -107.5t-149.5 -94t-121 -72l-10 -37h922l8 43h-434q-98 0 -172 -1t-127 -1h-107v2 q25 14 74 44t110.5 68t130 83t134.5 88q100 68 198.5 143.5t175 162.5t123.5 187.5t47 220.5q0 84 -28.5 154t-82.5 119t-131 76.5t-175 27.5q-109 0 -195 -34.5t-145.5 -96t-91 -143.5t-31.5 -176q0 -41 6 -84z" />
<glyph unicode="3" horiz-adv-x="1153" d="M262 1067q23 147 132.5 227t260.5 80q166 0 260.5 -78.5t94.5 -201.5q0 -104 -51.5 -174t-133.5 -109q-57 -27 -128.5 -40t-186.5 -13h-123l-8 -39h18q59 0 122 -2t121 -14.5t112.5 -36t99.5 -66.5q41 -41 67.5 -93t26.5 -130q0 -98 -37 -166t-98 -111t-140 -62.5 t-163 -19.5q-80 0 -149.5 17.5t-124 57.5t-89 102.5t-45.5 152.5l-41 -22q16 -166 130 -258.5t319 -92.5q127 0 218 33t150.5 88.5t87 129t27.5 155.5q0 143 -93 233.5t-234 116.5l2 2q186 16 287.5 117.5t101.5 249.5q0 61 -23.5 118.5t-73 101.5t-123 70.5t-171.5 26.5 t-176 -26.5t-134.5 -71.5t-89.5 -104.5t-41 -124.5z" />
<glyph unicode="4" horiz-adv-x="1105" d="M862 1393l-839 -953l-7 -32h635l-88 -408h45l88 408h320l10 43h-321l202 942h-45zM84 451l541 608q78 88 140 161.5t89 114.5h2q-10 -43 -34.5 -145.5t-61.5 -278.5l-98 -460h-578z" />
<glyph unicode="5" horiz-adv-x="1128" d="M145 625l41 -15q27 61 69 109.5t96.5 83.5t115.5 53t127 18q70 0 136.5 -21.5t117.5 -66.5t82 -114.5t31 -167.5q0 -125 -40 -216t-105.5 -151.5t-148.5 -89.5t-169 -29q-63 0 -125 17.5t-112 52.5t-88 90t-56 129l-41 -26q41 -156 158.5 -231t267.5 -75q94 0 185 33 t162 98.5t114 167t43 236.5q0 106 -34 183t-89.5 127t-128 74t-150.5 24q-74 0 -135 -17.5t-110.5 -46.5t-86 -64.5t-61.5 -74.5h-2l170 635h668l10 43h-711z" />
<glyph unicode="6" horiz-adv-x="1189" d="M1149 1133q-16 51 -46 102t-76 92t-109.5 65.5t-147.5 24.5q-139 0 -256 -72.5t-201 -199.5t-131 -297t-47 -363q0 -127 32 -222t88 -158.5t135 -96.5t173 -33q119 0 211 43t153.5 114t93.5 163t32 188q0 102 -34 180t-92.5 130.5t-135 79t-162.5 26.5 q-78 0 -146.5 -19.5t-124 -51t-98.5 -74.5t-70 -88h-2q20 154 72.5 283.5t127.5 224t169 147.5t201 53q150 0 232.5 -74.5t117.5 -195.5zM184 594q33 61 81 110.5t104.5 83t120 52t124.5 18.5q80 0 151 -23.5t125 -71.5t86 -120t32 -168q0 -86 -29 -169t-85 -146.5 t-137 -102.5t-186 -39q-111 0 -185.5 41t-120.5 107.5t-65.5 151.5t-19.5 171v53.5t4 51.5z" />
<glyph unicode="7" horiz-adv-x="1038" d="M1184 1393h-932l-84 -402h45l74 359h827q-55 -61 -115.5 -132t-120 -148t-116.5 -158t-109 -160q-115 -180 -207 -371t-145 -381h51q53 188 138 367.5t196 357.5q98 158 226 320.5t264 312.5z" />
<glyph unicode="8" horiz-adv-x="1222" d="M512 760q-78 -4 -154.5 -31t-137 -76t-98.5 -123.5t-38 -175.5q0 -186 127 -282.5t346 -96.5q121 0 214 32t157.5 87.5t97.5 131t33 163.5q0 86 -26.5 147.5t-67.5 102.5t-91.5 65.5t-95.5 36.5v2q74 8 138.5 35t112.5 71t76 107.5t28 143.5q0 74 -31 132t-86 100 t-132 63.5t-169 21.5q-104 0 -187.5 -28.5t-141.5 -76.5t-90 -111.5t-32 -135.5q0 -76 22.5 -129t58.5 -89t80 -56.5t87 -28.5v-2zM129 360q0 74 27.5 140.5t84 118t142.5 82t203 30.5q96 0 175 -23.5t135 -67.5t87 -107.5t31 -143.5q0 -88 -34 -156.5t-94.5 -116.5 t-146.5 -73t-190 -25q-199 0 -309.5 93t-110.5 249zM309 1065q0 61 25.5 117.5t77 98.5t127 67.5t176.5 25.5q174 0 273 -74.5t99 -203.5q0 -145 -102 -235.5t-305 -90.5q-96 0 -166 22.5t-115 62.5t-67.5 93.5t-22.5 116.5z" />
<glyph unicode="9" horiz-adv-x="1189" d="M90 260q16 -53 46 -103.5t76 -91t109.5 -65.5t147.5 -25q139 0 256 73t201 200t131 296t47 363q0 125 -32 221.5t-89 160t-135 96t-172 32.5q-121 0 -212 -43t-152.5 -113.5t-93.5 -162.5t-32 -189q0 -102 34 -180t92.5 -130t135 -78.5t162.5 -26.5q78 0 146.5 19t124 51 t97.5 74t71 89h2q-23 -154 -74 -284t-126 -224t-169 -147.5t-201 -53.5q-150 0 -232.5 75t-117.5 196zM1055 799q-33 -61 -81 -110.5t-105.5 -83.5t-120 -52t-123.5 -18q-80 0 -151 23.5t-125 71.5t-86 119.5t-32 168.5q0 86 29 168.5t85 146t137 102.5t186 39 q111 0 185.5 -41t120.5 -107.5t65.5 -151.5t19.5 -171v-53t-4 -51z" />
<glyph unicode=":" horiz-adv-x="364" d="M133 233h-45l-49 -233h45zM291 975h-45l-49 -234h45z" />
<glyph unicode=";" horiz-adv-x="385" d="M303 975h-45l-49 -234h45zM102 233l-65 -303q-16 -84 -36.5 -126t-53.5 -68l-15 -62q61 37 95 97.5t57 169.5l63 292h-45z" />
<glyph unicode="&#x3c;" horiz-adv-x="1744" d="M1563 16l-1418 672l1418 668v49l-1471 -692v-51l1471 -695v49z" />
<glyph unicode="=" horiz-adv-x="1859" d="M229 393h1379v43h-1379v-43zM229 752h1379v43h-1379v-43z" />
<glyph unicode="&#x3e;" horiz-adv-x="1742" d="M225 -33l1471 695v51l-1471 692v-49l1417 -668l-1417 -672v-49z" />
<glyph unicode="?" horiz-adv-x="931" d="M750 735q100 78 155.5 165t55.5 198q0 68 -25 126t-73 101t-116.5 67.5t-154.5 24.5q-96 0 -173 -31.5t-132.5 -87t-85 -129t-29.5 -159.5q0 -43 6 -88l51 -19q-12 51 -12 103q0 76 25.5 142t74 117.5t116 81t153.5 29.5q80 0 142.5 -21.5t103 -60.5t62 -90t21.5 -110 q0 -98 -51 -178t-133 -144l-180 -139q-86 -66 -129 -134.5t-64 -174.5h45l5 18q8 41 20 75t32.5 65.5t52.5 63.5t79 68zM389 233h-47l-51 -233h45z" />
<glyph unicode="@" horiz-adv-x="1708" d="M1169 82q-80 0 -79 82q0 16 4 39.5t10 50.5l72 338q12 59 16 88t4 53q0 53 -23.5 88t-61.5 56.5t-85 29.5t-92 8q-133 0 -223 -60t-109 -179l41 -29q6 45 24.5 86t53.5 72t85 49t120 18q66 0 109.5 -12t69 -33.5t37 -48t11.5 -57.5q0 -23 -4 -48.5t-8 -45.5 q-8 -35 -29.5 -48.5t-81.5 -23.5l-188 -33q-63 -10 -124 -26.5t-107 -44t-74.5 -72.5t-28.5 -115q0 -111 66.5 -165t175.5 -54q61 0 112 15.5t89 42t64.5 59.5t43.5 69h2q-4 -18 -8 -40.5t-4 -38.5q0 -47 26.5 -77t87.5 -30q92 0 172 52.5t138.5 137t92 195.5t33.5 227 q0 150 -53 261.5t-142 186.5t-209 111.5t-251 36.5q-156 0 -309.5 -57t-274 -171t-196.5 -284t-76 -395q0 -135 42 -260t128 -220t218 -151.5t312 -56.5t354.5 68.5t299.5 193.5l-12 41q-63 -61 -139.5 -109.5t-158 -82t-167.5 -51t-170 -17.5q-172 0 -296 53t-206 143.5 t-121 208t-39 244.5q0 211 71.5 373t186.5 269.5t260.5 162.5t292.5 55q121 0 231.5 -34.5t195.5 -103t135 -173t50 -246.5q0 -109 -31.5 -211t-85 -182t-123 -129t-147.5 -49zM1083 367q-33 -147 -124 -215t-201 -68q-92 0 -147.5 45t-55.5 137q0 61 26.5 98t67.5 61 t93.5 35t103.5 21l108 21q25 4 52.5 8t52 9t43 11.5t24.5 16.5z" />
<glyph unicode="A" horiz-adv-x="1179" d="M793 1393h-52l-813 -1393h52l258 446h663l76 -446h45zM762 1348q2 -37 10 -84q4 -41 13.5 -97.5t19.5 -124.5l90 -553h-633l326 558q37 66 68.5 120t54.5 95q27 47 49 86h2z" />
<glyph unicode="B" horiz-adv-x="1372" d="M647 0q63 0 119.5 2t107 10t94.5 25.5t85 46.5q84 59 124 150.5t40 187.5q0 59 -16.5 112.5t-50.5 94.5t-87 66.5t-127 31.5v2q98 6 165.5 38t109.5 82t61.5 115.5t19.5 139.5q0 156 -108 225q-49 33 -117 48.5t-164 15.5h-532l-297 -1393h573zM760 707q104 0 181 -11.5 t138 -62.5q41 -35 64.5 -86t23.5 -121q0 -90 -35.5 -178t-125.5 -144q-61 -39 -131 -50t-152 -11h-592l139 664h490zM279 750l131 600h491q88 0 158.5 -16.5t118.5 -57.5q33 -29 51 -72t18 -102q0 -129 -51 -203t-137 -108q-55 -23 -120 -32t-142 -9h-518z" />
<glyph unicode="C" horiz-adv-x="1320" d="M1161 360q-41 -74 -92 -136t-115.5 -108t-142.5 -72t-168 -26q-113 0 -199 38t-143 110t-87 174t-30 229q0 137 40 279.5t121 259.5t201 191.5t279 74.5q180 0 290 -91t147 -251l41 31q-45 174 -166 264t-306 90q-168 0 -296.5 -74.5t-217 -196.5t-133.5 -277.5 t-45 -317.5q0 -274 130 -425t366 -151q98 0 182 27t154.5 74t126 112.5t98.5 143.5z" />
<glyph unicode="D" horiz-adv-x="1380" d="M471 0q86 0 151.5 4t121 15.5t102.5 31t96 47.5q86 53 151.5 141.5t111.5 196t69.5 226t23.5 233.5q0 164 -60 268.5t-171 157.5q-41 18 -85 32.5t-96 22.5t-113.5 12.5t-137.5 4.5h-264l-297 -1393h397zM408 1350h268q104 0 195.5 -13.5t162.5 -48.5 q100 -47 159.5 -146.5t59.5 -252.5q0 -90 -19.5 -196.5t-59 -209t-101 -192.5t-145.5 -148q-47 -33 -95.5 -52t-103.5 -30.5t-118.5 -14.5t-143.5 -3h-340z" />
<glyph unicode="E" horiz-adv-x="1161" d="M977 43h-848l139 657h733l9 43h-734l130 607h806l11 43h-852l-297 -1393h895z" />
<glyph unicode="F" horiz-adv-x="1054" d="M119 0l149 700h690l9 43h-691l130 607h763l11 43h-809l-297 -1393h45z" />
<glyph unicode="G" horiz-adv-x="1380" d="M643 -25q102 0 183 28t143.5 72t106.5 99t71 111h2q-4 -18 -10 -39q-10 -35 -17 -76l-37 -170h43l146 672h-553l-10 -43h508l-31 -148q-16 -78 -41 -132t-57 -101q-84 -113 -194 -171.5t-243 -58.5q-233 0 -351 147.5t-118 403.5q0 137 40 279.5t121 259.5t201 191.5 t279 74.5q180 0 290 -91t147 -251l41 31q-45 174 -167 264t-302 90q-170 0 -299 -74.5t-217.5 -196.5t-133.5 -277.5t-45 -317.5q0 -274 133 -425t371 -151z" />
<glyph unicode="H" horiz-adv-x="1333" d="M1309 1393h-45l-140 -650h-848l140 650h-45l-297 -1393h45l149 700h848l-149 -700h45z" />
<glyph unicode="I" horiz-adv-x="440" d="M371 1393l-297 -1393h45l297 1393h-45z" />
<glyph unicode="J" horiz-adv-x="972" d="M961 1393l-207 -967q-23 -98 -44.5 -173t-72.5 -147q-47 -63 -122 -100t-189 -37q-160 0 -254.5 83t-94.5 247v25l46 20q0 -10 -1.5 -17.5t-1.5 -17.5q0 -133 77 -215t229 -82q90 0 154.5 28t107.5 81q51 59 75.5 137t45.5 170l206 965h46z" />
<glyph unicode="K" horiz-adv-x="1220" d="M666 850l657 543h-66l-1021 -844l180 844h-45l-297 -1393h45l104 485l406 338l401 -823h51z" />
<glyph unicode="L" horiz-adv-x="1056" d="M416 1393h-45l-297 -1393h846l10 43h-801z" />
<glyph unicode="M" horiz-adv-x="1519" d="M1438 1393l-670 -1133q-43 -72 -69.5 -117t-47.5 -86h-2q-4 39 -11 82t-22 121l-192 1133h-53l-297 -1393h45l207 965q10 45 21 97t21.5 100t17.5 89t9 64q4 -51 18.5 -141.5t30.5 -180.5l172 -993h46l604 1016q59 100 106 180t66 121h2q-6 -23 -17.5 -67t-24 -98 t-24.5 -109.5t-20 -100.5l-201 -942h45l297 1393h-57z" />
<glyph unicode="N" horiz-adv-x="1351" d="M989 0l-516 1153l-74 166h-2q-4 -23 -7 -40t-6 -35.5t-8 -42t-14 -60.5l-243 -1141h-45l297 1393h43l518 -1153q20 -45 41.5 -97.5t30.5 -68.5h2q6 35 13 74.5t23 113.5l242 1131h43l-295 -1393h-43z" />
<glyph unicode="O" horiz-adv-x="1411" d="M836 1417q-170 0 -300 -74.5t-218.5 -196.5t-133.5 -277.5t-45 -317.5q0 -274 130 -425t366 -151q172 0 301 78t216 204t131 285.5t44 323.5q0 131 -35 234.5t-99.5 173t-154 106.5t-202.5 37zM643 18q-113 0 -199 38t-143 110t-87 174t-30 229q0 137 40 279.5t121 259.5 t201 191.5t279 74.5q227 0 342 -142t115 -382q0 -139 -40 -286.5t-120 -268.5t-199.5 -199t-279.5 -78z" />
<glyph unicode="P" horiz-adv-x="1263" d="M788 647q104 0 178 12.5t140 53.5q51 33 87 79t57.5 96t30.5 102t9 97q0 170 -123 242q-80 47 -169 55.5t-205 8.5h-422l-297 -1393h47l135 647h532zM266 690l142 660h423q92 0 172 -10.5t140 -49.5q49 -33 75.5 -82t26.5 -125q0 -51 -12 -102t-34.5 -96t-55.5 -82 t-74 -62q-59 -33 -124.5 -42t-141.5 -9h-537z" />
<glyph unicode="Q" horiz-adv-x="1427" d="M836 1417q-170 0 -300 -74.5t-218.5 -196.5t-133.5 -277.5t-45 -317.5q0 -274 130 -425t366 -151q129 0 232.5 44t185.5 120l149 -176l39 33l-156 176q121 131 181.5 315.5t60.5 378.5q0 131 -35 234.5t-99.5 173t-154 106.5t-202.5 37zM643 18q-113 0 -199 38t-143 110 t-87 174t-30 229q0 137 40 279.5t121 259.5t201 191.5t279 74.5q227 0 342 -142t115 -382q0 -139 -40 -286.5t-120 -268.5t-199.5 -199t-279.5 -78z" />
<glyph unicode="R" horiz-adv-x="1310" d="M1034 0h49l-258 647q86 4 154 15.5t127 50.5q51 33 87 79t57.5 96t30.5 102t9 97q0 168 -121 242q-80 47 -170 55.5t-206 8.5h-422l-297 -1393h47l135 647h522zM266 690l142 660h423q92 0 174 -10.5t138 -49.5q47 -33 74.5 -82t27.5 -125q0 -51 -12 -102t-34.5 -96 t-55.5 -82t-74 -62q-59 -33 -124.5 -42t-141.5 -9h-537z" />
<glyph unicode="S" horiz-adv-x="1206" d="M1147 1159q-53 115 -180 186.5t-305 71.5q-113 0 -198 -25.5t-141.5 -71.5t-85 -109.5t-28.5 -139.5q0 -80 28.5 -135t72.5 -93t96.5 -61.5t99.5 -40.5l192 -69q68 -25 129.5 -51.5t106.5 -61.5t71.5 -85t26.5 -120q0 -160 -120.5 -248t-323.5 -88q-197 0 -320 94.5 t-164 258.5l-38 -29q45 -170 177 -268.5t345 -98.5q129 0 221 31t151.5 83t88 123t28.5 148q0 76 -27.5 129.5t-73.5 92.5t-104.5 65.5t-117.5 48.5l-193 72q-66 25 -122 49.5t-97 58t-64.5 83t-23.5 120.5q0 76 31.5 131.5t86 92t128 54t159.5 17.5q152 0 272 -61.5 t179 -184.5z" />
<glyph unicode="T" horiz-adv-x="1062" d="M184 1350h486l-285 -1350h45l285 1350h491l11 43h-1022z" />
<glyph unicode="U" horiz-adv-x="1392" d="M602 -27q139 0 235.5 30t161.5 91q37 33 65 72t50.5 88t41 112.5t36.5 147.5l190 879h-47q-37 -170 -71 -332q-14 -70 -30.5 -143.5t-32 -146.5t-30 -139.5t-26.5 -121.5q-16 -76 -33.5 -132t-37 -101.5t-45 -80t-58.5 -65.5q-61 -59 -146.5 -87t-208.5 -28 q-92 0 -168.5 20.5t-131 62.5t-85 107.5t-30.5 155.5q0 33 4 71t16 97l185 863h-46q-37 -166 -71 -324q-14 -68 -29.5 -140.5t-31 -143t-30 -136t-24.5 -119.5q-10 -45 -16 -95t-6 -87q0 -94 33.5 -164.5t93 -117t142.5 -70t181 -23.5z" />
<glyph unicode="V" horiz-adv-x="1122" d="M266 1393h-47l184 -1393h50l792 1393h-51l-619 -1088q-47 -80 -79.5 -142.5t-57.5 -109.5q-4 51 -11 109.5t-17 144.5z" />
<glyph unicode="W" horiz-adv-x="1742" d="M1157 0l686 1393h-47l-496 -1002q-20 -41 -42.5 -88t-44 -92t-39 -81t-25.5 -56h-2q0 16 -1 51t-4 80t-6 95t-6 95l-65 998h-45l-488 -1002q-23 -43 -44 -90t-40.5 -90t-36 -79t-26.5 -56h-2q0 23 -2 57.5t-6 77.5t-8.5 89t-8.5 91l-84 1002h-47l117 -1393h45l424 868 q20 43 53 111t66 134.5t58.5 121.5t35.5 76h2q0 -25 3 -79t7 -118.5t8.5 -130t8.5 -113.5l55 -870h47z" />
<glyph unicode="X" horiz-adv-x="1138" d="M995 0l-362 729l610 664h-59l-570 -625l-305 625h-51l324 -660l-684 -733h59l645 694l342 -694h51z" />
<glyph unicode="Y" horiz-adv-x="1093" d="M565 596l674 797h-55l-631 -748l-311 748h-49l329 -791l-129 -602h47z" />
<glyph unicode="Z" horiz-adv-x="1128" d="M965 43h-961l1208 1313l9 37h-965l-10 -43h903l-1210 -1313l-9 -37h1024z" />
<glyph unicode="[" horiz-adv-x="542" d="M297 -281h-260l346 1631h260l10 43h-305l-364 -1717h303z" />
<glyph unicode="\" horiz-adv-x="1159" d="M213 1393l733 -1393h51l-733 1393h-51z" />
<glyph unicode="]" horiz-adv-x="538" d="M-131 -324h303l367 1717h-306l-10 -43h260l-346 -1631h-258z" />
<glyph unicode="^" horiz-adv-x="946" d="M645 1393l-481 -736h53l445 686l149 -686h49l-168 736h-47z" />
<glyph unicode="_" horiz-adv-x="1533" d="M43 -289h1077l10 43h-1077z" />
<glyph unicode="`" horiz-adv-x="819" d="M702 1114l-243 279h-64l252 -279h55z" />
<glyph unicode="a" horiz-adv-x="978" d="M858 25q-10 -2 -20.5 -3.5t-20.5 -1.5q-45 0 -74.5 20.5t-29.5 70.5q0 18 5 50t11 60l84 397q14 70 18.5 106t4.5 64q0 61 -28 102.5t-71 65t-96 32.5t-106 9q-156 0 -259.5 -70.5t-121.5 -209.5l39 -25q6 51 28.5 99.5t63.5 85t100 58t139 21.5q78 0 130.5 -14t83 -38.5 t43 -57.5t12.5 -72q0 -25 -5.5 -58.5t-9.5 -56.5q-8 -43 -34.5 -57t-94.5 -27l-223 -38q-74 -12 -143.5 -32t-124 -53.5t-86 -86t-31.5 -134.5q0 -123 73.5 -189.5t209.5 -66.5q70 0 128 18.5t103 48.5t77 69t50 82h2q-12 -49 -12 -91q0 -61 34.5 -91.5t90.5 -30.5 q27 0 51 6zM711 350q-18 -86 -57.5 -149.5t-89.5 -104.5t-111.5 -60.5t-124.5 -19.5q-111 0 -176.5 54.5t-65.5 165.5q0 72 32 117.5t81 74.5t110.5 44t122.5 26l127 22q29 6 61.5 10.5t61.5 10.5t50.5 14t29.5 20z" />
<glyph unicode="b" horiz-adv-x="1089" d="M610 956q80 0 139.5 -28.5t97.5 -79.5t57.5 -120t19.5 -148q0 -92 -29 -191.5t-85 -181.5t-137 -135.5t-186 -53.5q-156 0 -228.5 99.5t-72.5 263.5q0 90 26 191.5t78 186.5t131.5 141t188.5 56zM342 1395l-297 -1395h47l60 299h2q2 -51 18 -108.5t54 -104.5t100.5 -79 t156.5 -32q115 0 205 53.5t152.5 141.5t95.5 198.5t33 227.5q0 96 -25.5 172t-72 127t-111 77.5t-139.5 26.5q-78 0 -140.5 -24.5t-108.5 -61t-78 -82t-48 -83.5l-2 2l145 645h-47z" />
<glyph unicode="c" horiz-adv-x="1011" d="M932 709q-29 135 -119 212.5t-231 77.5q-125 0 -218.5 -54t-156 -142t-93 -198.5t-30.5 -223.5q0 -92 24.5 -167t70.5 -128t112.5 -82t150.5 -29q152 0 255.5 76t164.5 191l-41 24q-53 -106 -145 -177t-227 -71q-147 0 -233.5 99.5t-86.5 277.5q0 94 27.5 194.5t83 181.5 t138.5 133t193 52q129 0 212 -71.5t106 -198.5z" />
<glyph unicode="d" horiz-adv-x="1091" d="M440 18q-78 0 -136 28t-97 78t-58.5 120.5t-19.5 154.5q0 96 29.5 195.5t86 179.5t137.5 131t183 51q154 0 227.5 -99t73.5 -263q0 -92 -25.5 -193.5t-78.5 -186.5t-133 -140.5t-189 -55.5zM1051 1393l-150 -709h-2q-2 51 -20.5 107.5t-57.5 102.5t-101.5 75.5 t-152.5 29.5q-115 0 -205 -53t-151 -141t-94 -198.5t-33 -227.5q0 -195 96 -299.5t250 -104.5q76 0 137.5 22.5t107.5 58.5t77.5 78t50.5 81l2 -2l-49 -213h45l297 1393h-47z" />
<glyph unicode="e" horiz-adv-x="1030" d="M901 518q12 63 12 127q0 74 -18 138.5t-58 112.5t-101.5 75.5t-147.5 27.5q-117 0 -210 -50t-157.5 -134t-99.5 -193.5t-35 -228.5q0 -104 26.5 -182t76 -130t118 -79t150.5 -27q76 0 138 18.5t112.5 51.5t90.5 78t70 96l-34 29q-23 -41 -56 -81t-78 -74t-104 -54.5 t-135 -20.5q-92 0 -155.5 32t-102.5 85t-55.5 121t-16.5 139q0 29 2 59.5t8 63.5h760zM573 956q80 0 135.5 -25.5t91.5 -68.5t52 -98t16 -117q0 -23 -2 -43t-6 -43h-710q18 70 54 140.5t89 127t123.5 92t156.5 35.5z" />
<glyph unicode="f" horiz-adv-x="638" d="M776 1395q-18 14 -61 28.5t-90 14.5q-41 0 -78 -13.5t-66 -42.5t-45 -70.5t-30 -103.5l-52 -233h-229l-8 -43h229l-199 -932h46l198 932h287l8 43h-285l39 192q10 53 19.5 88t25.5 64q23 41 56.5 58.5t79.5 17.5q47 0 84.5 -13.5t60.5 -29.5z" />
<glyph unicode="g" horiz-adv-x="1089" d="M440 18q-78 0 -136 28t-97 78t-58.5 120.5t-19.5 154.5q0 96 29.5 195.5t86 179.5t137.5 131t183 51q154 0 227.5 -99t73.5 -263q0 -92 -25.5 -193.5t-78.5 -186.5t-133 -140.5t-189 -55.5zM430 -25q76 0 137.5 22.5t107.5 58.5t77.5 78t50.5 81l2 -2l-33 -131 q-27 -109 -56.5 -192t-74.5 -139t-113.5 -84.5t-173.5 -28.5q-166 0 -236.5 72.5t-74.5 193.5l-45 -19q0 -55 18.5 -107t60.5 -93t109.5 -66t165.5 -25q123 0 202 35t129 98.5t80 152.5t52 198l193 897h-45l-62 -291h-2q-2 51 -20.5 107.5t-57.5 102.5t-101.5 75.5 t-152.5 29.5q-115 0 -205 -53t-151 -141t-94 -198.5t-33 -227.5q0 -195 96 -299.5t250 -104.5z" />
<glyph unicode="h" horiz-adv-x="1034" d="M340 1391l-297 -1391h45l121 571q14 66 47 134.5t83 124t119.5 91t157.5 35.5q66 0 111 -17t72.5 -46t39 -68t11.5 -84q0 -49 -9.5 -101t-19.5 -105l-114 -535h47l118 561q10 45 17.5 94.5t7.5 96.5q0 121 -68.5 184t-199.5 63q-78 0 -140.5 -22.5t-109.5 -58t-80 -77.5 t-49 -81l-2 2q8 29 21.5 90t31.5 147l84 392h-45z" />
<glyph unicode="i" horiz-adv-x="380" d="M297 975h-45l-207 -975h45zM387 1393h-45l-51 -236h45z" />
<glyph unicode="j" horiz-adv-x="378" d="M-315 -381q16 -8 49 -16.5t78 -8.5q82 0 129 29t75 88q18 41 34 105.5t32 146.5l215 1012h-45l-227 -1063q-12 -63 -25.5 -110.5t-30.5 -80.5q-23 -45 -59.5 -64t-95.5 -19q-43 0 -72 8t-45 18zM385 1393h-45l-51 -236h45z" />
<glyph unicode="k" horiz-adv-x="931" d="M340 1393l-297 -1393h45l78 369l283 221l272 -590h53l-289 618l453 357h-68l-692 -547l207 965h-45z" />
<glyph unicode="l" horiz-adv-x="411" d="M356 1393l-297 -1393h45l297 1393h-45z" />
<glyph unicode="m" horiz-adv-x="1660" d="M856 571q14 66 45 134.5t81 124t117.5 91t155.5 35.5q66 0 109 -17t68.5 -46t36 -68t10.5 -84q0 -49 -9.5 -101t-19.5 -105l-115 -535h45l119 561q10 45 17.5 94.5t7.5 96.5q0 121 -63.5 184t-192.5 63q-84 0 -148.5 -26.5t-114 -66.5t-82 -88t-49.5 -89l-2 2 q12 133 -54 200.5t-195 67.5q-76 0 -136.5 -22.5t-107.5 -58t-79 -77.5t-48 -81l-2 2l47 213h-45l-207 -975h45l121 571q14 66 45 134.5t81 124t117.5 91t155.5 35.5q66 0 109 -17t68.5 -46t36 -68t10.5 -84q0 -49 -9.5 -101t-19.5 -105l-115 -535h45z" />
<glyph unicode="n" horiz-adv-x="1036" d="M874 561q10 45 17.5 94.5t7.5 96.5q0 121 -68.5 184t-199.5 63q-78 0 -140.5 -22.5t-109.5 -58t-80 -77.5t-49 -81l-2 2l47 213h-45l-207 -975h45l121 571q14 66 47 134.5t83 124t119.5 91t157.5 35.5q66 0 111 -17t72.5 -46t39 -68t11.5 -84q0 -49 -9 -101t-20 -105 l-114 -535h47z" />
<glyph unicode="o" horiz-adv-x="1064" d="M84 381q0 -92 23.5 -167t68.5 -128t112.5 -82t153.5 -29q127 0 221.5 54.5t156 142.5t92 199.5t30.5 224.5q0 184 -95 293.5t-265 109.5q-125 0 -218.5 -54t-156 -142t-93 -198.5t-30.5 -223.5zM571 956q154 0 240 -98t86 -268q0 -98 -27.5 -199.5t-83 -184.5 t-140.5 -135.5t-197 -52.5q-147 0 -233.5 99.5t-86.5 277.5q0 94 27.5 194.5t83 181.5t138 133t193.5 52z" />
<glyph unicode="p" horiz-adv-x="1087" d="M608 956q80 0 139.5 -28.5t97.5 -79.5t57.5 -120t19.5 -148q0 -92 -29 -191.5t-85 -181.5t-137 -135.5t-186 -53.5q-156 0 -228.5 99.5t-72.5 263.5q0 90 26 191.5t78 186.5t131.5 141t188.5 56zM10 -389l142 688h2q2 -51 18 -108.5t53 -104.5t99.5 -79t156.5 -32 q115 0 205 53.5t152.5 141.5t95.5 198.5t33 227.5q0 96 -26 172t-72 127t-110.5 77.5t-140.5 26.5q-78 0 -139 -23.5t-106 -60t-76 -80.5t-47 -83l-2 2l49 221h-45l-289 -1364h47z" />
<glyph unicode="q" horiz-adv-x="1089" d="M440 18q-78 0 -136 28t-97 78t-58.5 120.5t-19.5 154.5q0 96 29.5 195.5t86 179.5t137.5 131t183 51q154 0 227.5 -99t73.5 -263q0 -92 -25.5 -193.5t-78.5 -186.5t-133 -140.5t-189 -55.5zM717 -389l291 1364h-45l-62 -291h-2q-2 51 -20.5 107.5t-57.5 102.5 t-101.5 75.5t-152.5 29.5q-115 0 -205 -53t-151 -141t-94 -198.5t-33 -227.5q0 -195 96 -299.5t250 -104.5q76 0 136.5 22.5t106.5 56.5t77.5 76t50.5 81l2 -2l-131 -598h45z" />
<glyph unicode="r" horiz-adv-x="626" d="M659 991q-31 8 -69 8q-57 0 -108.5 -19t-96.5 -54q-53 -41 -92 -100.5t-55 -120.5h-5q8 31 17 63q6 27 14 57.5t12 53.5l21 96h-45l-207 -975h45l111 530q16 80 51 156t84 136.5t112.5 97t139.5 36.5q29 0 63 -6z" />
<glyph unicode="s" horiz-adv-x="901" d="M33 229q14 -53 41.5 -99t71.5 -81t105.5 -54.5t145.5 -19.5q92 0 158 24t108 61.5t62 88t20 105.5t-21.5 94t-54 65.5t-73.5 45t-80 33.5l-129 49q-47 18 -85 36.5t-65.5 42t-42 55.5t-14.5 75q0 51 22.5 90t60.5 64.5t87 38.5t105 13q104 0 188 -49t125 -147l39 31 q-39 88 -124 148t-226 60q-147 0 -234.5 -70.5t-87.5 -187.5q0 -57 20.5 -95t51.5 -63.5t68.5 -42t72.5 -30.5l131 -51q45 -16 85 -34.5t71 -42.5t48 -55.5t17 -76.5q0 -102 -75.5 -167t-223.5 -65q-139 0 -215.5 61.5t-109.5 174.5z" />
<glyph unicode="t" horiz-adv-x="581" d="M430 72q-16 -14 -58 -33t-100 -19q-59 0 -79.5 24t-20.5 65q0 29 10 75l160 748h256l8 43h-254l82 389l-45 -10l-82 -379h-198l-9 -43h197l-162 -754q-10 -47 -10 -82q0 -53 29.5 -86t103.5 -33q59 0 103.5 15.5t58.5 25.5z" />
<glyph unicode="u" horiz-adv-x="1024" d="M123 414q-10 -45 -17.5 -94.5t-7.5 -96.5q0 -121 65.5 -184.5t196.5 -63.5q76 0 138.5 22.5t108.5 58.5t78 78t48 81l2 -2l-47 -213h45l207 975h-45l-121 -572q-14 -66 -46 -134t-81 -123.5t-117.5 -91.5t-156.5 -36q-66 0 -110 16.5t-70.5 46.5t-37 68.5t-10.5 83.5 q0 49 9.5 101.5t19.5 105.5l115 535h-47z" />
<glyph unicode="v" horiz-adv-x="864" d="M903 975h-51l-397 -664q-41 -70 -79 -135t-57 -100h-2q0 8 -3 34.5t-8 61.5t-10 72t-9 65l-99 666h-47l146 -975h32z" />
<glyph unicode="w" horiz-adv-x="1335" d="M766 975h-41l-303 -625q-14 -31 -33.5 -71.5t-38 -80.5t-35 -76t-24.5 -54h-2q-2 35 -11.5 121.5t-21.5 197.5l-68 588h-47l113 -975h47l313 651q14 31 33 70t35 73.5t29.5 63.5t17.5 39h2q2 -27 4 -82t10 -162l50 -653h45l516 975h-49l-326 -613q-18 -37 -40.5 -79.5 t-43 -83.5t-38 -75t-25.5 -52h-3q0 18 -2 49t-4 68.5t-5 80.5t-5 86z" />
<glyph unicode="x" horiz-adv-x="858" d="M207 975h-49l231 -469l-465 -506h56l428 469l233 -469h51l-254 498l436 477h-55l-399 -440z" />
<glyph unicode="y" horiz-adv-x="868" d="M-160 -383q12 -8 35 -15.5t57 -7.5q51 0 92.5 17.5t74 47.5t59 70t53.5 83l696 1163h-49l-409 -688q-18 -31 -38 -65t-37.5 -62.5t-29.5 -51t-18 -34.5h-2q-4 37 -13.5 94t-23.5 154l-99 653h-47l146 -955l-127 -210q-43 -72 -94.5 -122t-126.5 -50q-55 0 -89 28z" />
<glyph unicode="z" horiz-adv-x="829" d="M653 43h-635q18 18 39 41q16 18 39 43t47 53l670 760l8 35h-657l-8 -43h598q-20 -20 -45 -47q-23 -23 -52.5 -58.5t-70.5 -81.5l-625 -710l-8 -35h692z" />
<glyph unicode="{" horiz-adv-x="569" d="M76 567q59 -20 80.5 -58t21.5 -91q0 -35 -8 -79t-20 -101l-33 -146q-16 -70 -26.5 -126t-10.5 -103q0 -55 18.5 -92t51 -58.5t74.5 -32t89 -12.5l11 41q-102 8 -150.5 45t-48.5 119q0 25 5 64.5t15 80.5l37 166q18 84 28.5 144.5t10.5 105.5q0 53 -22.5 93t-73.5 63v2 q51 14 84 33.5t56.5 55.5t41 95.5t35.5 153.5l37 178q12 63 27.5 113.5t41 84t65.5 51t101 17.5h29.5t32.5 -2l10 43q-16 2 -28.5 2h-26.5q-82 0 -133.5 -22.5t-83 -65.5t-50 -106.5t-36.5 -145.5l-33 -153q-16 -78 -30.5 -131.5t-36 -87t-54.5 -53t-86 -31.5z" />
<glyph unicode="|" horiz-adv-x="530" d="M281 1536h-45v-1972h45v1972z" />
<glyph unicode="}" horiz-adv-x="567" d="M485 553q-59 20 -80.5 58t-21.5 91q0 35 8 79t21 102l24 110q16 70 26.5 126.5t10.5 103.5q0 55 -18.5 92t-51 58.5t-74.5 29.5t-89 10l-11 -41q102 -4 150.5 -41t48.5 -119q0 -25 -5 -64.5t-15 -80.5l-29 -131q-18 -84 -28.5 -144.5t-10.5 -105.5q0 -53 22.5 -93 t73.5 -63v-2q-51 -14 -84 -33.5t-56.5 -55.5t-40.5 -95t-36 -154l-45 -213q-12 -55 -25.5 -104t-38 -86t-64.5 -58.5t-103 -21.5h-32t-34 2l-10 -41q8 -2 18 -2h45q80 0 130.5 23.5t81 67.5t49 107.5t34.5 143.5l41 189q16 78 30.5 131t36 87t54.5 53t86 32z" />
<glyph unicode="~" horiz-adv-x="1169" d="M1028 666q-37 -41 -86 -78t-115 -37q-20 0 -39.5 3t-44 12t-57.5 24.5t-80 38.5q-84 39 -140 59.5t-110 20.5q-43 0 -78.5 -13.5t-64.5 -34t-51.5 -43t-36.5 -43.5l29 -28q49 59 96 90t102 31q53 0 106.5 -21.5t112.5 -48.5q68 -31 130.5 -59.5t125.5 -28.5 q70 0 125.5 35t102.5 92z" />
<glyph unicode="&#xa1;" horiz-adv-x="370" d="M100 285l-149 -703h45l149 703l64 329h-33zM199 741h45l49 234h-45z" />
<glyph unicode="&#xa2;" horiz-adv-x="1017" d="M938 709q-25 121 -100.5 195.5t-192.5 90.5l41 193h-45l-41 -189h-12q-125 0 -218.5 -54t-155.5 -142t-93 -198.5t-31 -223.5q0 -166 77 -272.5t218 -126.5l-45 -213h45l43 206h21q152 0 255 76t164 191l-41 24q-53 -106 -145 -177t-227 -71h-17l197 934 q104 -16 171.5 -85.5t88.5 -180.5zM135 395q0 94 27.5 194.5t83 181.5t138.5 133t194 52h14l-199 -933q-121 20 -189.5 116t-68.5 256z" />
<glyph unicode="&#xa3;" horiz-adv-x="1103" d="M731 678l12 43h-335l16 119q12 96 31.5 192t59.5 172t108.5 123t179.5 47q78 0 131 -23.5t85 -61.5t47 -85t19 -96l43 18q-2 47 -19 98.5t-55 94.5t-98.5 70.5t-148.5 27.5q-127 0 -205 -52t-122 -133t-64.5 -182.5t-34.5 -199.5l-19 -129h-231l-10 -43h235 q-6 -45 -12 -86q-4 -35 -10 -75t-10 -68q-14 -90 -36 -161t-60 -122t-98 -84t-153 -45l-12 -37h916l10 43h-529h-100t-64.5 -1t-44 -2t-40.5 -1v4q63 20 106 57t73 87.5t46 112.5t29 136q4 29 9 69t11 79q8 45 14 94h330z" />
<glyph unicode="&#xa4;" horiz-adv-x="1191" d="M199 602q0 -78 26.5 -143.5t73.5 -118.5l-147 -147l30 -31l146 147q53 -47 119.5 -72.5t142.5 -25.5t142.5 25.5t119.5 72.5l149 -149l31 28l-151 150q47 53 74.5 119.5t27.5 144.5q0 76 -26.5 141.5t-73.5 118.5l147 148l-31 30l-147 -147q-53 47 -119.5 74.5 t-142.5 27.5q-78 0 -144.5 -27.5t-119.5 -74.5l-150 151l-29 -30l150 -152q-47 -53 -72.5 -118.5t-25.5 -141.5zM244 602q0 72 26.5 135.5t73.5 111.5t110.5 75.5t135.5 27.5t135 -27.5t110.5 -75.5t75 -111.5t27.5 -135.5t-27.5 -135.5t-75 -110.5t-110.5 -74.5t-135 -27.5 t-135.5 27.5t-110.5 74.5t-73.5 110.5t-26.5 135.5z" />
<glyph unicode="&#xa5;" horiz-adv-x="1218" d="M147 596h426l-47 -215h-426l-10 -43h428l-72 -338h46l69 338h461l10 43h-461l45 215h463l8 43h-434l637 754h-55l-633 -754l-307 754h-51l311 -754h-397z" />
<glyph unicode="&#xa6;" horiz-adv-x="516" d="M270 1393h-45v-662h45v662zM270 338h-45v-662h45v662z" />
<glyph unicode="&#xa7;" horiz-adv-x="1003" d="M575 324q55 12 110.5 35.5t99.5 61.5t73 91t29 125q0 53 -18.5 92t-49.5 67.5t-71.5 52t-85.5 46.5l-74 37q-94 47 -155.5 100t-61.5 142q0 51 22.5 90t60.5 64.5t87 38.5t104 13q104 0 188.5 -49t124.5 -147l39 30q-39 88 -124 148.5t-226 60.5q-145 0 -233 -68.5 t-88 -185.5q0 -47 15 -82.5t37.5 -63.5t51.5 -47.5t55 -31.5q-72 0 -138 -18.5t-118.5 -55t-83 -89t-30.5 -119.5q0 -57 17.5 -98.5t49 -73t77.5 -57t101 -52.5l48 -23q43 -20 95 -43.5t98 -55.5t78 -72t32 -95q0 -98 -76 -163.5t-219 -65.5q-139 0 -218 61.5t-112 173.5 l-43 -24q29 -106 117 -180t252 -74q90 0 155.5 23.5t107.5 61.5t61.5 87t19.5 102q0 43 -14.5 77t-39 61.5t-57.5 49.5t-70 42zM387 416q-53 25 -95 48t-72 51t-45 64.5t-15 88.5q0 57 28.5 102t78.5 77t118 49t143 19l82 -41q49 -25 91 -48t73 -50.5t49.5 -64.5t18.5 -86 q0 -51 -24.5 -97.5t-66.5 -83t-98.5 -61.5t-122.5 -35z" />
<glyph unicode="&#xa8;" horiz-adv-x="819" d="M416 1346h-45l-43 -199h45zM805 1346h-45l-43 -199h45z" />
<glyph unicode="&#xa9;" horiz-adv-x="1665" d="M1165 973q-41 84 -115.5 134t-185.5 50q-84 0 -151.5 -30.5t-114.5 -88t-73.5 -138.5t-26.5 -179t26.5 -177t73.5 -134.5t114.5 -86t151.5 -30.5q111 0 183.5 43t115.5 121l-35 26q-39 -78 -105.5 -112.5t-158.5 -34.5q-70 0 -128 25.5t-101 74.5t-66.5 122t-23.5 165 q0 188 89 289.5t230 101.5q190 0 264 -170zM1563 717q0 147 -53.5 275t-147.5 222.5t-222 148.5t-278 54t-277.5 -54t-222 -148.5t-147.5 -222.5t-53 -275t53 -275.5t147.5 -222.5t222.5 -148.5t277 -54.5q150 0 278 54.5t222 148.5t147.5 222.5t53.5 275.5zM1516 717 q0 -139 -49.5 -259t-137.5 -208t-206.5 -139.5t-260.5 -51.5q-141 0 -260 51.5t-207 139.5t-137 208t-49 259q0 137 49 258t137 209t207 139t260 51t260 -51t207 -139t137.5 -209t49.5 -258z" />
<glyph unicode="&#xaa;" horiz-adv-x="739" d="M696 836q-12 -4 -28 -5q-33 0 -44.5 11.5t-11.5 34.5q0 20 6 51l54 252q10 41 13 64.5t3 41.5q0 39 -17.5 63.5t-44 40t-60.5 21.5t-66 6q-41 0 -81 -10t-73 -29.5t-54.5 -50.5t-27.5 -72l37 -24q10 63 56 105t137 42q90 0 121.5 -29.5t31.5 -72.5q0 -14 -2 -34.5 t-6 -35.5q-4 -23 -17.5 -30t-41.5 -13l-160 -26q-66 -10 -114 -28.5t-77 -57.5q-35 -41 -34 -109q0 -66 42 -111t128 -45q78 0 130 36t80 85h3q-4 -8 -5.5 -22.5t-1.5 -20.5q0 -70 84 -69q20 0 37 4zM602 1040q-25 -113 -88 -164t-139 -51q-63 0 -99 32t-36 93q0 43 17 70 t45 43t64.5 25.5t73.5 15.5l88 14q25 4 54.5 9.5t40.5 13.5z" />
<glyph unicode="&#xab;" horiz-adv-x="798" d="M115 590l190 -350l14 71l-167 305l280 240l19 70l-326 -281zM408 590l190 -350l14 71l-168 305l281 240l18 70l-325 -281z" />
<glyph unicode="&#xac;" horiz-adv-x="1142" d="M983 930h-811v-43h766v-434h45v477z" />
<glyph unicode="&#xad;" horiz-adv-x="845" d="M127 526h567l11 43h-568z" />
<glyph unicode="&#xae;" horiz-adv-x="1665" d="M627 698h245l281 -395h55l-280 395q61 0 113.5 10.5t91 37t60 68.5t21.5 106q0 72 -35.5 123t-93.5 75q-29 10 -67.5 15.5t-97.5 5.5h-338v-836h45v395zM627 741v355h315q35 0 59.5 -3t47.5 -10q121 -41 120 -163q0 -90 -54 -134.5t-173 -44.5h-315zM1563 717 q0 147 -53.5 275t-147.5 222.5t-222 148.5t-278 54t-277.5 -54t-222 -148.5t-147.5 -222.5t-53 -275t53 -275.5t147.5 -222.5t222.5 -148.5t277 -54.5q150 0 278 54.5t222 148.5t147.5 222.5t53.5 275.5zM1516 717q0 -139 -49.5 -259t-137.5 -208t-206.5 -139.5 t-260.5 -51.5q-141 0 -260 51.5t-207 139.5t-137 208t-49 259q0 137 49 258t137 209t207 139t260 51t260 -51t207 -139t137.5 -209t49.5 -258z" />
<glyph unicode="&#xaf;" horiz-adv-x="864" d="M279 1167h555l10 43h-555z" />
<glyph unicode="&#xb0;" horiz-adv-x="780" d="M219 1133q0 -59 22.5 -111.5t60.5 -91.5t90 -61.5t112 -22.5q59 0 111.5 22.5t90 61.5t60 91t22.5 112q0 59 -22.5 111t-60 90t-90 60.5t-111.5 22.5t-111.5 -22.5t-90.5 -60.5t-60.5 -90t-22.5 -111zM264 1133q0 49 18.5 93t51.5 76.5t77 52t93 19.5t93 -19.5t76 -52 t51 -76.5t19 -93t-19 -94.5t-51 -78t-76 -52t-93 -19.5t-93 19.5t-77 52t-51.5 78t-18.5 94.5z" />
<glyph unicode="&#xb1;" horiz-adv-x="1529" d="M758 696h575v43h-575v475h-45v-475h-580v-43h580v-477h45v477zM1333 43h-1200v-43h1200v43z" />
<glyph unicode="&#xb2;" horiz-adv-x="808" d="M307 1067q-6 20 -7 40.5t-1 39.5q0 96 59.5 161.5t169.5 65.5q94 0 150.5 -53t56.5 -141q0 -57 -22.5 -106.5t-57 -93.5t-79 -82t-89.5 -71q-43 -33 -91 -66.5t-95 -64t-89 -56.5t-73 -42l-6 -45h549l10 43h-479v6q23 12 55.5 31.5t68.5 42t70.5 46t63.5 42.5 q55 39 111.5 84t100.5 97t71.5 111.5t27.5 127.5q0 98 -66.5 163.5t-185.5 65.5q-68 0 -119 -21.5t-86.5 -57.5t-53 -85t-17.5 -104q0 -31 6 -58z" />
<glyph unicode="&#xb3;" horiz-adv-x="768" d="M281 1186q6 92 70.5 140t148.5 48q90 0 142 -48t52 -118q0 -51 -19.5 -87t-53 -59.5t-79.5 -33.5t-100 -10h-104l-10 -37h37q80 0 122.5 -10t77.5 -29q90 -51 90 -156q0 -53 -19.5 -92t-51 -64.5t-74.5 -37.5t-90 -12q-109 0 -164 59t-66 141l-38 -18q6 -45 25.5 -85 t52 -71t79.5 -48t109 -17q135 0 208.5 68.5t73.5 178.5q0 45 -14 79t-37.5 58.5t-52.5 41t-59 24.5l2 4q37 4 73.5 20.5t64.5 44t45 65.5t17 87q0 37 -13 74t-43 64.5t-74 45t-105 17.5q-59 0 -106.5 -17.5t-81 -47t-52 -66.5t-22.5 -76z" />
<glyph unicode="&#xb4;" horiz-adv-x="907" d="M502 1114l252 279h-64l-244 -279h56z" />
<glyph unicode="&#xb5;" horiz-adv-x="1042" d="M6 -391l119 563h2q2 -37 14.5 -73t40 -63.5t73.5 -44t116 -16.5q80 0 142 21.5t109.5 55.5t78 76t49.5 81h2l-45 -209h45l206 975h-45l-125 -586q-16 -74 -51 -141.5t-87 -117.5t-120.5 -81t-152.5 -31q-123 0 -172 57.5t-49 164.5q0 41 7 92t19 110l115 533h-45 l-291 -1366h45z" />
<glyph unicode="&#xb6;" horiz-adv-x="1132" d="M698 -262l344 1612h191l8 43h-549q-90 0 -154.5 -6.5t-112.5 -19.5t-84 -32.5t-67 -46.5q-51 -47 -79.5 -112.5t-28.5 -155.5q0 -74 25.5 -128t69.5 -90t104.5 -53.5t128.5 -17.5h45l-211 -993h45l344 1612h280l-344 -1612h45z" />
<glyph unicode="&#xb7;" horiz-adv-x="348" d="M238 772h-45l-52 -233h45z" />
<glyph unicode="&#xb8;" horiz-adv-x="849" d="M205 -127l22 -33q12 4 33 8.5t41 4.5q53 0 97 -21.5t44 -81.5q0 -66 -43 -90.5t-98 -24.5q-23 0 -44 4.5t-42 8.5l-8 -35q39 -12 92 -12q78 0 131 34.5t53 114.5q0 72 -50 104.5t-116 32.5q-35 0 -65 -8l137 129h-45z" />
<glyph unicode="&#xb9;" horiz-adv-x="499" d="M332 539l184 854h-41q-29 -104 -96.5 -146.5t-171.5 -42.5h-10l-9 -45h21q76 0 136.5 21.5t94.5 68.5l-153 -710h45z" />
<glyph unicode="&#xba;" horiz-adv-x="761" d="M535 1417q-78 0 -138.5 -32.5t-101.5 -87t-62.5 -124t-21.5 -143.5q0 -111 58.5 -179.5t174.5 -68.5q80 0 141.5 35t101.5 92.5t60.5 127t20.5 141.5q0 115 -64.5 177t-168.5 62zM451 821q-92 0 -144.5 57.5t-52.5 155.5q0 61 18.5 123t53 111t85 79.5t115.5 30.5 q96 0 146.5 -55t50.5 -147q0 -59 -17.5 -123t-52.5 -115t-85.5 -84t-116.5 -33z" />
<glyph unicode="&#xbb;" horiz-adv-x="792" d="M680 575l-191 351l-14 -72l168 -305l-281 -240l-18 -69l326 280zM387 575l-190 351l-15 -72l168 -305l-280 -240l-19 -69l326 280z" />
<glyph unicode="&#xbc;" horiz-adv-x="1554" d="M1257 233h156l8 41h-155l123 578h-43l-537 -582l-8 -37h413l-49 -233h41zM864 274q33 33 66 70q29 29 61.5 64.5t61.5 68.5l108 119q27 29 56.5 62.5t56.5 62.5q31 33 59 65q-12 -53 -22 -102q-10 -43 -19.5 -88t-15.5 -74l-53 -248h-359zM1171 1395l-938 -1395h52 l938 1395h-52zM330 539l184 854h-41q-29 -104 -96.5 -146.5t-171.5 -42.5h-10l-9 -45h21q76 0 136 21.5t95 68.5l-153 -710h45z" />
<glyph unicode="&#xbd;" horiz-adv-x="1671" d="M1096 514q-6 20 -7.5 40.5t-1.5 39.5q0 96 59.5 161.5t170.5 65.5q94 0 150.5 -53t56.5 -141q0 -57 -22.5 -106.5t-57.5 -93.5t-79 -82t-89 -71q-43 -33 -91 -66.5t-95.5 -64t-89.5 -56.5t-72 -42l-6 -45h548l11 43h-480v6q23 12 56 31.5t68.5 42t70.5 46.5t64 42 q55 39 111 84t100.5 97t72 111.5t27.5 127.5q0 98 -66.5 163.5t-185.5 65.5q-68 0 -119 -21.5t-87 -57.5t-53.5 -85t-17.5 -104q0 -31 7 -57zM1169 1395l-938 -1395h52l938 1395h-52zM328 539l184 854h-41q-29 -104 -96.5 -146.5t-171.5 -42.5h-10l-9 -45h21q76 0 136 21.5 t95 68.5l-153 -710h45z" />
<glyph unicode="&#xbe;" horiz-adv-x="1777" d="M262 1186q6 92 70.5 140t148.5 48q90 0 142.5 -48t52.5 -118q0 -51 -19.5 -87t-53.5 -59.5t-80 -33.5t-99 -10h-105l-10 -37h37q80 0 123 -10t78 -29q90 -51 90 -156q0 -53 -19.5 -92t-51 -64.5t-74.5 -37.5t-91 -12q-109 0 -164 59t-65 141l-39 -18q6 -45 25.5 -85 t52.5 -71t80 -48t108 -17q135 0 209 68.5t74 178.5q0 45 -14.5 79t-38 58.5t-52 41t-59.5 24.5l2 4q37 4 74 20.5t64.5 44t45 65.5t17.5 87q0 37 -13.5 74t-43 64.5t-73.5 45t-106 17.5q-59 0 -106 -17.5t-81 -47t-52.5 -66.5t-22.5 -76zM1485 233h155l9 41h-156l123 578 h-43l-537 -582l-8 -37h414l-49 -233h41zM1092 274q33 33 65 70q29 29 61.5 64.5t61.5 68.5l109 119q27 29 56.5 62.5t55.5 62.5q31 33 60 65q-12 -53 -23 -102q-10 -43 -19.5 -88t-15.5 -74l-53 -248h-358zM1399 1395l-938 -1395h51l938 1395h-51z" />
<glyph unicode="&#xbf;" horiz-adv-x="917" d="M135 240q-100 -78 -155.5 -165t-55.5 -198q0 -68 24.5 -126t73 -101t117 -67.5t154.5 -24.5q94 0 172 31.5t133 87t85 129t30 159.5q0 41 -6 88l-52 19q12 -53 13 -103q0 -76 -26 -143.5t-74 -117.5t-115.5 -79.5t-153.5 -29.5q-80 0 -142.5 21.5t-103.5 60t-62.5 90 t-21.5 110.5q0 98 51.5 178t133.5 144l180 139q86 66 129 134.5t63 174.5h-45l-4 -18q-10 -41 -21.5 -75t-32 -65.5t-52 -63.5t-78.5 -69zM496 741h47l51 234h-45z" />
<glyph unicode="&#xc0;" horiz-adv-x="1179" d="M793 1393h-52l-813 -1393h52l258 446h663l76 -446h45zM762 1348q2 -37 10 -84q4 -41 13.5 -97.5t19.5 -124.5l90 -553h-633l326 558q37 66 68.5 120t54.5 95q27 47 49 86h2zM831 1542l-243 279h-64l252 -279h55z" />
<glyph unicode="&#xc1;" horiz-adv-x="1179" d="M793 1393h-52l-813 -1393h52l258 446h663l76 -446h45zM762 1348q2 -37 10 -84q4 -41 13.5 -97.5t19.5 -124.5l90 -553h-633l326 558q37 66 68.5 120t54.5 95q27 47 49 86h2zM778 1542l252 279h-63l-244 -279h55z" />
<glyph unicode="&#xc2;" horiz-adv-x="1179" d="M793 1393h-52l-813 -1393h52l258 446h663l76 -446h45zM762 1348q2 -37 10 -84q4 -41 13.5 -97.5t19.5 -124.5l90 -553h-633l326 558q37 66 68.5 120t54.5 95q27 47 49 86h2zM819 1821l-315 -279h59l277 240l172 -240h53l-197 279h-49z" />
<glyph unicode="&#xc3;" horiz-adv-x="1179" d="M793 1393h-52l-813 -1393h52l258 446h663l76 -446h45zM762 1348q2 -37 10 -84q4 -41 13.5 -97.5t19.5 -124.5l90 -553h-633l326 558q37 66 68.5 120t54.5 95q27 47 49 86h2zM1085 1726q-14 -33 -39.5 -63.5t-76.5 -30.5q-31 0 -69 15.5t-75 33.5q-43 23 -80.5 37.5 t-72.5 14.5q-37 0 -65.5 -13.5t-49 -34t-33 -45t-18.5 -47.5l39 -14q12 41 40.5 77t80.5 36q29 0 61.5 -13.5t83.5 -38.5q37 -18 78 -33.5t78 -15.5q66 0 101.5 35t51.5 86z" />
<glyph unicode="&#xc4;" horiz-adv-x="1179" d="M793 1393h-52l-813 -1393h52l258 446h663l76 -446h45zM762 1348q2 -37 10 -84q4 -41 13.5 -97.5t19.5 -124.5l90 -553h-633l326 558q37 66 68.5 120t54.5 95q27 47 49 86h2zM664 1790h-46l-43 -199h46zM1053 1790h-45l-43 -199h45z" />
<glyph unicode="&#xc5;" horiz-adv-x="1179" d="M793 1393h-52l-813 -1393h52l258 446h663l76 -446h45zM762 1348q2 -37 10 -84q4 -41 13.5 -97.5t19.5 -124.5l90 -553h-633l326 558q37 66 68.5 120t54.5 95q27 47 49 86h2zM651 1698q0 -72 49.5 -119t118.5 -47q70 0 119 47t49 119t-49 119t-119 47t-119 -47t-49 -119z M690 1698q0 53 38 91t91 38t90 -38t37 -91t-37 -91t-90 -38t-91 38t-38 91z" />
<glyph unicode="&#xc6;" horiz-adv-x="1744" d="M1561 43h-805l139 657h690l8 43h-690l129 607h764l10 43h-835l-1104 -1393h57l357 453h518l-97 -453h850zM993 1360q-6 -29 -14 -64q-6 -29 -14.5 -65.5t-16.5 -71.5l-141 -663h-494l568 716q35 45 58.5 76t51.5 72h2z" />
<glyph unicode="&#xc7;" horiz-adv-x="1320" d="M1161 360q-41 -74 -92 -136t-115.5 -108t-142.5 -72t-168 -26q-113 0 -199 38t-143 110t-87 174t-30 229q0 137 40 279.5t121 259.5t201 191.5t279 74.5q180 0 290 -91t147 -251l41 31q-45 174 -166 264t-306 90q-168 0 -296.5 -74.5t-217 -196.5t-133.5 -277.5 t-45 -317.5q0 -256 114 -404.5t320 -166.5l-112 -103l24 -37q12 4 33 8.5t41 4.5q53 0 97 -21.5t44 -81.5q0 -66 -43 -89t-98 -23q-23 0 -44 4l-42 8l-8 -37q39 -12 92 -12q78 0 132 35.5t54 115.5q0 68 -51 102.5t-117 34.5q-35 0 -65 -8l100 94h25q98 0 182 27t154.5 74 t126 112.5t98.5 143.5z" />
<glyph unicode="&#xc8;" horiz-adv-x="1161" d="M977 43h-848l139 657h733l9 43h-734l130 607h806l11 43h-852l-297 -1393h895zM899 1542l-244 279h-63l252 -279h55z" />
<glyph unicode="&#xc9;" horiz-adv-x="1161" d="M977 43h-848l139 657h733l9 43h-734l130 607h806l11 43h-852l-297 -1393h895zM786 1542l252 279h-63l-244 -279h55z" />
<glyph unicode="&#xca;" horiz-adv-x="1161" d="M977 43h-848l139 657h733l9 43h-734l130 607h806l11 43h-852l-297 -1393h895zM862 1821l-315 -279h59l277 240l172 -240h53l-197 279h-49z" />
<glyph unicode="&#xcb;" horiz-adv-x="1161" d="M977 43h-848l139 657h733l9 43h-734l130 607h806l11 43h-852l-297 -1393h895zM690 1790h-45l-43 -199h45zM1079 1790h-45l-43 -199h45z" />
<glyph unicode="&#xcc;" horiz-adv-x="440" d="M371 1391l-297 -1391h45l297 1391h-45zM487 1542l-243 279h-64l252 -279h55z" />
<glyph unicode="&#xcd;" horiz-adv-x="440" d="M371 1391l-297 -1391h45l297 1391h-45zM416 1542l252 279h-64l-244 -279h56z" />
<glyph unicode="&#xce;" horiz-adv-x="440" d="M371 1391l-297 -1391h45l297 1391h-45zM455 1821l-316 -279h60l276 240l172 -240h53l-196 279h-49z" />
<glyph unicode="&#xcf;" horiz-adv-x="440" d="M371 1391l-297 -1391h45l297 1391h-45zM303 1790h-45l-43 -199h45zM692 1790h-45l-43 -199h45z" />
<glyph unicode="&#xd0;" horiz-adv-x="1400" d="M16 717h230l-152 -717h398q86 0 151.5 4t120.5 15.5t102 31t97 47.5q86 53 151.5 141.5t111.5 196t69.5 226t23.5 233.5q0 164 -60.5 268.5t-171.5 157.5q-41 18 -85 32.5t-96 22.5t-113.5 12.5t-137.5 4.5h-264l-135 -635h-231zM428 1350h268q104 0 195.5 -13.5 t163.5 -48.5q100 -47 159.5 -146.5t59.5 -252.5q0 -90 -19.5 -196.5t-59.5 -209t-101.5 -192.5t-145.5 -148q-47 -33 -95 -52t-103.5 -30.5t-119 -14.5t-143.5 -3h-340l144 674h479l8 41h-477z" />
<glyph unicode="&#xd1;" horiz-adv-x="1351" d="M1032 0l295 1393h-43l-242 -1131q-16 -74 -23 -113.5t-13 -74.5h-2q-8 16 -30 68.5t-42 97.5l-518 1153h-43l-297 -1393h45l243 1141q8 37 13.5 60.5t8.5 42t6 35.5t7 40h2l74 -166l516 -1153h43zM1149 1726q-14 -33 -40 -63.5t-77 -30.5q-31 0 -68.5 15.5t-74.5 33.5 q-43 23 -81 37.5t-73 14.5q-37 0 -65.5 -13.5t-49 -34t-33 -45t-18.5 -47.5l39 -14q12 41 41 77t80 36q29 0 61.5 -13.5t83.5 -38.5q37 -18 78 -33.5t78 -15.5q66 0 101.5 35t52.5 86z" />
<glyph unicode="&#xd2;" horiz-adv-x="1411" d="M836 1417q-170 0 -300 -74.5t-218.5 -196.5t-133.5 -277.5t-45 -317.5q0 -274 130 -425t366 -151q172 0 301 78t216 204t131 285.5t44 323.5q0 131 -35 234.5t-99.5 173t-154 106.5t-202.5 37zM643 18q-113 0 -199 38t-143 110t-87 174t-30 229q0 137 40 279.5t121 259.5 t201 191.5t279 74.5q227 0 342 -142t115 -382q0 -139 -40 -286.5t-120 -268.5t-199.5 -199t-279.5 -78zM944 1542l-244 279h-63l252 -279h55z" />
<glyph unicode="&#xd3;" horiz-adv-x="1411" d="M836 1417q-170 0 -300 -74.5t-218.5 -196.5t-133.5 -277.5t-45 -317.5q0 -274 130 -425t366 -151q172 0 301 78t216 204t131 285.5t44 323.5q0 131 -35 234.5t-99.5 173t-154 106.5t-202.5 37zM643 18q-113 0 -199 38t-143 110t-87 174t-30 229q0 137 40 279.5t121 259.5 t201 191.5t279 74.5q227 0 342 -142t115 -382q0 -139 -40 -286.5t-120 -268.5t-199.5 -199t-279.5 -78zM850 1542l252 279h-64l-243 -279h55z" />
<glyph unicode="&#xd4;" horiz-adv-x="1411" d="M836 1417q-170 0 -300 -74.5t-218.5 -196.5t-133.5 -277.5t-45 -317.5q0 -274 130 -425t366 -151q172 0 301 78t216 204t131 285.5t44 323.5q0 131 -35 234.5t-99.5 173t-154 106.5t-202.5 37zM643 18q-113 0 -199 38t-143 110t-87 174t-30 229q0 137 40 279.5t121 259.5 t201 191.5t279 74.5q227 0 342 -142t115 -382q0 -139 -40 -286.5t-120 -268.5t-199.5 -199t-279.5 -78zM926 1821l-316 -279h60l276 240l172 -240h53l-196 279h-49z" />
<glyph unicode="&#xd5;" horiz-adv-x="1411" d="M836 1417q-170 0 -300 -74.5t-218.5 -196.5t-133.5 -277.5t-45 -317.5q0 -274 130 -425t366 -151q172 0 301 78t216 204t131 285.5t44 323.5q0 131 -35 234.5t-99.5 173t-154 106.5t-202.5 37zM643 18q-113 0 -199 38t-143 110t-87 174t-30 229q0 137 40 279.5t121 259.5 t201 191.5t279 74.5q227 0 342 -142t115 -382q0 -139 -40 -286.5t-120 -268.5t-199.5 -199t-279.5 -78zM1161 1726q-14 -33 -39.5 -63.5t-77.5 -30.5q-31 0 -68.5 15.5t-74.5 33.5q-43 23 -81 37.5t-72 14.5q-37 0 -66 -13.5t-49.5 -34t-32.5 -45t-18 -47.5l39 -14 q12 41 40.5 77t79.5 36q29 0 62 -13.5t84 -38.5q37 -18 78 -33.5t77 -15.5q66 0 102 35t52 86z" />
<glyph unicode="&#xd6;" horiz-adv-x="1411" d="M836 1417q-170 0 -300 -74.5t-218.5 -196.5t-133.5 -277.5t-45 -317.5q0 -274 130 -425t366 -151q172 0 301 78t216 204t131 285.5t44 323.5q0 131 -35 234.5t-99.5 173t-154 106.5t-202.5 37zM643 18q-113 0 -199 38t-143 110t-87 174t-30 229q0 137 40 279.5t121 259.5 t201 191.5t279 74.5q227 0 342 -142t115 -382q0 -139 -40 -286.5t-120 -268.5t-199.5 -199t-279.5 -78zM756 1790h-45l-43 -199h45zM1145 1790h-45l-43 -199h45z" />
<glyph unicode="&#xd7;" horiz-adv-x="1370" d="M1214 127l-487 485l487 488l-30 28l-488 -487l-485 487l-31 -28l488 -488l-488 -487l29 -29l487 488l488 -488z" />
<glyph unicode="&#xd8;" horiz-adv-x="1423" d="M838 1417q-170 0 -300 -74.5t-218.5 -196.5t-133.5 -277.5t-45 -317.5q0 -188 66 -324l-260 -233l30 -31l250 225q61 -104 165 -158.5t245 -54.5q172 0 301 78t216 204t131 285.5t44 323.5q0 78 -13 146.5t-36 126.5l274 247l-28 31l-264 -237q-61 117 -170 177t-254 60z M186 569q0 137 40 279.5t121 259.5t201 191.5t279 74.5q147 0 245.5 -59.5t152.5 -169.5l-981 -883q-58 123 -58 307zM645 18q-135 0 -230.5 53.5t-150.5 151.5l977 881q43 -109 43 -254q0 -139 -40 -286.5t-120 -268.5t-199.5 -199t-279.5 -78z" />
<glyph unicode="&#xd9;" horiz-adv-x="1392" d="M602 -27q139 0 235.5 30t161.5 91q37 33 65 72t50.5 88t41 112.5t36.5 147.5l190 879h-47q-37 -170 -71 -332q-14 -70 -30.5 -143.5t-32 -146.5t-30 -139.5t-26.5 -121.5q-16 -76 -33.5 -132t-37 -101.5t-45 -80t-58.5 -65.5q-61 -59 -146.5 -87t-208.5 -28 q-92 0 -168.5 20.5t-131 62.5t-85 107.5t-30.5 155.5q0 33 4 71t16 97l185 863h-46q-37 -166 -71 -324q-14 -68 -29.5 -140.5t-31 -143t-30 -136t-24.5 -119.5q-10 -45 -16 -95t-6 -87q0 -94 33.5 -164.5t93 -117t142.5 -70t181 -23.5zM965 1542l-244 279h-64l252 -279h56z " />
<glyph unicode="&#xda;" horiz-adv-x="1392" d="M602 -27q139 0 235.5 30t161.5 91q37 33 65 72t50.5 88t41 112.5t36.5 147.5l190 879h-47q-37 -170 -71 -332q-14 -70 -30.5 -143.5t-32 -146.5t-30 -139.5t-26.5 -121.5q-16 -76 -33.5 -132t-37 -101.5t-45 -80t-58.5 -65.5q-61 -59 -146.5 -87t-208.5 -28 q-92 0 -168.5 20.5t-131 62.5t-85 107.5t-30.5 155.5q0 33 4 71t16 97l185 863h-46q-37 -166 -71 -324q-14 -68 -29.5 -140.5t-31 -143t-30 -136t-24.5 -119.5q-10 -45 -16 -95t-6 -87q0 -94 33.5 -164.5t93 -117t142.5 -70t181 -23.5zM846 1542l252 279h-64l-243 -279h55z " />
<glyph unicode="&#xdb;" horiz-adv-x="1392" d="M602 -27q139 0 235.5 30t161.5 91q37 33 65 72t50.5 88t41 112.5t36.5 147.5l190 879h-47q-37 -170 -71 -332q-14 -70 -30.5 -143.5t-32 -146.5t-30 -139.5t-26.5 -121.5q-16 -76 -33.5 -132t-37 -101.5t-45 -80t-58.5 -65.5q-61 -59 -146.5 -87t-208.5 -28 q-92 0 -168.5 20.5t-131 62.5t-85 107.5t-30.5 155.5q0 33 4 71t16 97l185 863h-46q-37 -166 -71 -324q-14 -68 -29.5 -140.5t-31 -143t-30 -136t-24.5 -119.5q-10 -45 -16 -95t-6 -87q0 -94 33.5 -164.5t93 -117t142.5 -70t181 -23.5zM922 1821l-316 -279h60l276 240 l172 -240h53l-196 279h-49z" />
<glyph unicode="&#xdc;" horiz-adv-x="1392" d="M602 -27q139 0 235.5 30t161.5 91q37 33 65 72t50.5 88t41 112.5t36.5 147.5l190 879h-47q-37 -170 -71 -332q-14 -70 -30.5 -143.5t-32 -146.5t-30 -139.5t-26.5 -121.5q-16 -76 -33.5 -132t-37 -101.5t-45 -80t-58.5 -65.5q-61 -59 -146.5 -87t-208.5 -28 q-92 0 -168.5 20.5t-131 62.5t-85 107.5t-30.5 155.5q0 33 4 71t16 97l185 863h-46q-37 -166 -71 -324q-14 -68 -29.5 -140.5t-31 -143t-30 -136t-24.5 -119.5q-10 -45 -16 -95t-6 -87q0 -94 33.5 -164.5t93 -117t142.5 -70t181 -23.5zM762 1790h-45l-43 -199h45zM1151 1790 h-45l-43 -199h45z" />
<glyph unicode="&#xdd;" horiz-adv-x="1093" d="M565 596l674 797h-55l-631 -748l-311 748h-49l329 -791l-129 -602h47zM686 1542l252 279h-64l-243 -279h55z" />
<glyph unicode="&#xde;" horiz-adv-x="1312" d="M371 1393l-297 -1393h47l90 440h549q109 0 183.5 13.5t141.5 54.5q53 33 89 80t58.5 100t33 106.5t10.5 98.5q0 174 -125 250q-84 49 -174 57t-211 8h-391l41 185h-45zM221 483l146 682h438q94 0 178 -10t143 -51q49 -31 77 -84t28 -131q0 -104 -48 -203.5t-134 -148.5 q-59 -35 -127 -44.5t-146 -9.5h-555z" />
<glyph unicode="&#xdf;" horiz-adv-x="983" d="M608 817q57 4 112.5 24.5t98.5 61.5t69.5 103.5t26.5 150.5q0 68 -21.5 117t-60 80.5t-90 47t-110.5 15.5q-84 0 -154.5 -30.5t-120.5 -98.5q-29 -41 -54 -106.5t-48 -175.5q-41 -190 -78 -373q-16 -78 -33.5 -162t-34 -167t-33 -160.5t-30.5 -143.5h45l211 987 q14 72 32.5 133.5t39.5 106.5q41 76 100.5 112.5t151.5 36.5q121 0 182 -60.5t61 -160.5q0 -162 -102 -241.5t-276 -79.5h-86l-11 -41h74q86 0 149.5 -10.5t104.5 -37t60.5 -71.5t19.5 -113q0 -45 -6 -95t-19 -101q-18 -76 -41.5 -138.5t-56.5 -107.5t-78 -69.5t-108 -24.5 q-53 0 -88 13t-54.5 35.5t-28 53.5t-8.5 68q0 35 6.5 74.5t14.5 78.5h-43q-10 -39 -16.5 -80t-6.5 -73q0 -41 9.5 -79t33 -67t65.5 -46t107 -17q63 0 114.5 18.5t93.5 62.5t75 118.5t57 189.5q12 55 17.5 103t5.5 85q0 80 -23.5 129t-59.5 75t-78 35t-79 11v4z" />
<glyph unicode="&#xe0;" horiz-adv-x="978" d="M858 25q-10 -2 -20.5 -3.5t-20.5 -1.5q-45 0 -74.5 20.5t-29.5 70.5q0 18 5 50t11 60l84 397q14 70 18.5 106t4.5 64q0 61 -28 102.5t-71 65t-96 32.5t-106 9q-156 0 -259.5 -70.5t-121.5 -209.5l39 -25q6 51 28.5 99.5t63.5 85t100 58t139 21.5q78 0 130.5 -14t83 -38.5 t43 -57.5t12.5 -72q0 -25 -5.5 -58.5t-9.5 -56.5q-8 -43 -34.5 -57t-94.5 -27l-223 -38q-74 -12 -143.5 -32t-124 -53.5t-86 -86t-31.5 -134.5q0 -123 73.5 -189.5t209.5 -66.5q70 0 128 18.5t103 48.5t77 69t50 82h2q-12 -49 -12 -91q0 -61 34.5 -91.5t90.5 -30.5 q27 0 51 6zM711 350q-18 -86 -57.5 -149.5t-89.5 -104.5t-111.5 -60.5t-124.5 -19.5q-111 0 -176.5 54.5t-65.5 165.5q0 72 32 117.5t81 74.5t110.5 44t122.5 26l127 22q29 6 61.5 10.5t61.5 10.5t50.5 14t29.5 20zM649 1114l-243 279h-64l252 -279h55z" />
<glyph unicode="&#xe1;" horiz-adv-x="978" d="M858 25q-10 -2 -20.5 -3.5t-20.5 -1.5q-45 0 -74.5 20.5t-29.5 70.5q0 18 5 50t11 60l84 397q14 70 18.5 106t4.5 64q0 61 -28 102.5t-71 65t-96 32.5t-106 9q-156 0 -259.5 -70.5t-121.5 -209.5l39 -25q6 51 28.5 99.5t63.5 85t100 58t139 21.5q78 0 130.5 -14t83 -38.5 t43 -57.5t12.5 -72q0 -25 -5.5 -58.5t-9.5 -56.5q-8 -43 -34.5 -57t-94.5 -27l-223 -38q-74 -12 -143.5 -32t-124 -53.5t-86 -86t-31.5 -134.5q0 -123 73.5 -189.5t209.5 -66.5q70 0 128 18.5t103 48.5t77 69t50 82h2q-12 -49 -12 -91q0 -61 34.5 -91.5t90.5 -30.5 q27 0 51 6zM711 350q-18 -86 -57.5 -149.5t-89.5 -104.5t-111.5 -60.5t-124.5 -19.5q-111 0 -176.5 54.5t-65.5 165.5q0 72 32 117.5t81 74.5t110.5 44t122.5 26l127 22q29 6 61.5 10.5t61.5 10.5t50.5 14t29.5 20zM557 1114l252 279h-64l-243 -279h55z" />
<glyph unicode="&#xe2;" horiz-adv-x="978" d="M858 25q-10 -2 -20.5 -3.5t-20.5 -1.5q-45 0 -74.5 20.5t-29.5 70.5q0 18 5 50t11 60l84 397q14 70 18.5 106t4.5 64q0 61 -28 102.5t-71 65t-96 32.5t-106 9q-156 0 -259.5 -70.5t-121.5 -209.5l39 -25q6 51 28.5 99.5t63.5 85t100 58t139 21.5q78 0 130.5 -14t83 -38.5 t43 -57.5t12.5 -72q0 -25 -5.5 -58.5t-9.5 -56.5q-8 -43 -34.5 -57t-94.5 -27l-223 -38q-74 -12 -143.5 -32t-124 -53.5t-86 -86t-31.5 -134.5q0 -123 73.5 -189.5t209.5 -66.5q70 0 128 18.5t103 48.5t77 69t50 82h2q-12 -49 -12 -91q0 -61 34.5 -91.5t90.5 -30.5 q27 0 51 6zM711 350q-18 -86 -57.5 -149.5t-89.5 -104.5t-111.5 -60.5t-124.5 -19.5q-111 0 -176.5 54.5t-65.5 165.5q0 72 32 117.5t81 74.5t110.5 44t122.5 26l127 22q29 6 61.5 10.5t61.5 10.5t50.5 14t29.5 20zM600 1393l-313 -279h59l275 240l174 -240h51l-197 279h-49 z" />
<glyph unicode="&#xe3;" horiz-adv-x="978" d="M858 25q-10 -2 -20.5 -3.5t-20.5 -1.5q-45 0 -74.5 20.5t-29.5 70.5q0 18 5 50t11 60l84 397q14 70 18.5 106t4.5 64q0 61 -28 102.5t-71 65t-96 32.5t-106 9q-156 0 -259.5 -70.5t-121.5 -209.5l39 -25q6 51 28.5 99.5t63.5 85t100 58t139 21.5q78 0 130.5 -14t83 -38.5 t43 -57.5t12.5 -72q0 -25 -5.5 -58.5t-9.5 -56.5q-8 -43 -34.5 -57t-94.5 -27l-223 -38q-74 -12 -143.5 -32t-124 -53.5t-86 -86t-31.5 -134.5q0 -123 73.5 -189.5t209.5 -66.5q70 0 128 18.5t103 48.5t77 69t50 82h2q-12 -49 -12 -91q0 -61 34.5 -91.5t90.5 -30.5 q27 0 51 6zM711 350q-18 -86 -57.5 -149.5t-89.5 -104.5t-111.5 -60.5t-124.5 -19.5q-111 0 -176.5 54.5t-65.5 165.5q0 72 32 117.5t81 74.5t110.5 44t122.5 26l127 22q29 6 61.5 10.5t61.5 10.5t50.5 14t29.5 20zM870 1294q-14 -33 -39.5 -63.5t-76.5 -30.5 q-31 0 -69 15.5t-75 33.5q-43 23 -80.5 37t-72.5 14q-37 0 -66 -13t-49 -33.5t-32.5 -45t-18.5 -47.5l39 -14q12 41 40.5 77t80.5 36q29 0 61.5 -13.5t83.5 -38.5q37 -18 78 -33.5t78 -15.5q66 0 101.5 35t51.5 86z" />
<glyph unicode="&#xe4;" horiz-adv-x="978" d="M858 25q-10 -2 -20.5 -3.5t-20.5 -1.5q-45 0 -74.5 20.5t-29.5 70.5q0 18 5 50t11 60l84 397q14 70 18.5 106t4.5 64q0 61 -28 102.5t-71 65t-96 32.5t-106 9q-156 0 -259.5 -70.5t-121.5 -209.5l39 -25q6 51 28.5 99.5t63.5 85t100 58t139 21.5q78 0 130.5 -14t83 -38.5 t43 -57.5t12.5 -72q0 -25 -5.5 -58.5t-9.5 -56.5q-8 -43 -34.5 -57t-94.5 -27l-223 -38q-74 -12 -143.5 -32t-124 -53.5t-86 -86t-31.5 -134.5q0 -123 73.5 -189.5t209.5 -66.5q70 0 128 18.5t103 48.5t77 69t50 82h2q-12 -49 -12 -91q0 -61 34.5 -91.5t90.5 -30.5 q27 0 51 6zM711 350q-18 -86 -57.5 -149.5t-89.5 -104.5t-111.5 -60.5t-124.5 -19.5q-111 0 -176.5 54.5t-65.5 165.5q0 72 32 117.5t81 74.5t110.5 44t122.5 26l127 22q29 6 61.5 10.5t61.5 10.5t50.5 14t29.5 20zM469 1346h-45l-43 -199h45zM858 1346h-45l-43 -199h45z " />
<glyph unicode="&#xe5;" horiz-adv-x="978" d="M858 25q-10 -2 -20.5 -3.5t-20.5 -1.5q-45 0 -74.5 20.5t-29.5 70.5q0 18 5 50t11 60l84 397q14 70 18.5 106t4.5 64q0 61 -28 102.5t-71 65t-96 32.5t-106 9q-156 0 -259.5 -70.5t-121.5 -209.5l39 -25q6 51 28.5 99.5t63.5 85t100 58t139 21.5q78 0 130.5 -14t83 -38.5 t43 -57.5t12.5 -72q0 -25 -5.5 -58.5t-9.5 -56.5q-8 -43 -34.5 -57t-94.5 -27l-223 -38q-74 -12 -143.5 -32t-124 -53.5t-86 -86t-31.5 -134.5q0 -123 73.5 -189.5t209.5 -66.5q70 0 128 18.5t103 48.5t77 69t50 82h2q-12 -49 -12 -91q0 -61 34.5 -91.5t90.5 -30.5 q27 0 51 6zM711 350q-18 -86 -57.5 -149.5t-89.5 -104.5t-111.5 -60.5t-124.5 -19.5q-111 0 -176.5 54.5t-65.5 165.5q0 72 32 117.5t81 74.5t110.5 44t122.5 26l127 22q29 6 61.5 10.5t61.5 10.5t50.5 14t29.5 20zM432 1270q0 -72 49 -119t119 -47t119 47t49 119t-49 119 t-119 47t-119 -47t-49 -119zM471 1270q0 53 38 91t91 38t90 -38t37 -91t-37 -91t-90 -38t-91 38t-38 91z" />
<glyph unicode="&#xe6;" horiz-adv-x="1681" d="M1552 518q12 63 13 127q0 74 -18.5 138.5t-58.5 112.5t-101.5 75.5t-147.5 27.5q-141 0 -243.5 -70.5t-164.5 -187.5q2 10 2.5 20.5t0.5 20.5q0 61 -26 103.5t-67 67t-95 34.5t-111 10q-156 0 -259.5 -70.5t-121.5 -209.5l39 -25q6 51 28.5 99.5t63.5 85t100 58t139 21.5 q78 0 130.5 -14t83 -38.5t43 -57.5t12.5 -72q0 -25 -5.5 -58.5t-9.5 -56.5q-8 -43 -34.5 -57t-94.5 -27l-223 -38q-74 -12 -143.5 -32t-124 -53.5t-86 -86t-31.5 -134.5q0 -123 73.5 -189.5t215.5 -66.5q94 0 165.5 31t122 82t82 115.5t48.5 132.5q12 -180 107 -270.5 t253 -90.5q76 0 138.5 18.5t112.5 51.5t90 78t71 96l-35 29q-23 -41 -55.5 -81t-77.5 -74t-104.5 -54.5t-135.5 -20.5q-92 0 -155.5 32t-102.5 85t-55.5 121t-16.5 139q0 29 2 59.5t9 63.5h759zM711 350q-18 -86 -57.5 -149.5t-89.5 -104.5t-111.5 -60.5t-124.5 -19.5 q-111 0 -176.5 54.5t-65.5 165.5q0 72 32 117.5t81 74.5t110.5 44t122.5 26l127 22q29 6 61.5 10.5t61.5 10.5t50.5 14t29.5 20zM1225 956q80 0 135 -25.5t91 -68.5t52.5 -98t16.5 -117q0 -23 -2 -43t-7 -43h-710q18 70 54 140.5t89 127t124 92t157 35.5z" />
<glyph unicode="&#xe7;" horiz-adv-x="1013" d="M934 709q-29 135 -119 212.5t-231 77.5q-125 0 -218.5 -54t-156 -142t-93 -198.5t-30.5 -223.5q0 -174 85 -282.5t237 -121.5l-105 -104l23 -33q12 4 32.5 8.5t40.5 4.5q53 0 97.5 -21.5t44.5 -81.5q0 -66 -43 -90.5t-99 -24.5q-23 0 -44 4.5t-42 8.5l-8 -35 q39 -12 92 -12q78 0 131.5 34.5t53.5 114.5q0 68 -50.5 102.5t-115.5 34.5q-35 0 -66 -8l103 96q147 4 248.5 79t162.5 188l-41 24q-53 -106 -145 -177t-227 -71q-147 0 -233.5 99.5t-86.5 277.5q0 94 27.5 194.5t83 181.5t138.5 133t193 52q129 0 212 -71.5t106 -198.5z " />
<glyph unicode="&#xe8;" horiz-adv-x="1030" d="M901 518q12 63 12 127q0 74 -18 138.5t-58 112.5t-101.5 75.5t-147.5 27.5q-117 0 -210 -50t-157.5 -134t-99.5 -193.5t-35 -228.5q0 -104 26.5 -182t76 -130t118 -79t150.5 -27q76 0 138 18.5t112.5 51.5t90.5 78t70 96l-34 29q-23 -41 -56 -81t-78 -74t-104 -54.5 t-135 -20.5q-92 0 -155.5 32t-102.5 85t-55.5 121t-16.5 139q0 29 2 59.5t8 63.5h760zM573 956q80 0 135.5 -25.5t91.5 -68.5t52 -98t16 -117q0 -23 -2 -43t-6 -43h-710q18 70 54 140.5t89 127t123.5 92t156.5 35.5zM692 1114l-243 279h-64l252 -279h55z" />
<glyph unicode="&#xe9;" horiz-adv-x="1030" d="M901 518q12 63 12 127q0 74 -18 138.5t-58 112.5t-101.5 75.5t-147.5 27.5q-117 0 -210 -50t-157.5 -134t-99.5 -193.5t-35 -228.5q0 -104 26.5 -182t76 -130t118 -79t150.5 -27q76 0 138 18.5t112.5 51.5t90.5 78t70 96l-34 29q-23 -41 -56 -81t-78 -74t-104 -54.5 t-135 -20.5q-92 0 -155.5 32t-102.5 85t-55.5 121t-16.5 139q0 29 2 59.5t8 63.5h760zM573 956q80 0 135.5 -25.5t91.5 -68.5t52 -98t16 -117q0 -23 -2 -43t-6 -43h-710q18 70 54 140.5t89 127t123.5 92t156.5 35.5zM565 1114l252 279h-63l-244 -279h55z" />
<glyph unicode="&#xea;" horiz-adv-x="1030" d="M901 518q12 63 12 127q0 74 -18 138.5t-58 112.5t-101.5 75.5t-147.5 27.5q-117 0 -210 -50t-157.5 -134t-99.5 -193.5t-35 -228.5q0 -104 26.5 -182t76 -130t118 -79t150.5 -27q76 0 138 18.5t112.5 51.5t90.5 78t70 96l-34 29q-23 -41 -56 -81t-78 -74t-104 -54.5 t-135 -20.5q-92 0 -155.5 32t-102.5 85t-55.5 121t-16.5 139q0 29 2 59.5t8 63.5h760zM573 956q80 0 135.5 -25.5t91.5 -68.5t52 -98t16 -117q0 -23 -2 -43t-6 -43h-710q18 70 54 140.5t89 127t123.5 92t156.5 35.5zM639 1393l-313 -279h59l274 240l175 -240h51l-197 279 h-49z" />
<glyph unicode="&#xeb;" horiz-adv-x="1030" d="M901 518q12 63 12 127q0 74 -18 138.5t-58 112.5t-101.5 75.5t-147.5 27.5q-117 0 -210 -50t-157.5 -134t-99.5 -193.5t-35 -228.5q0 -104 26.5 -182t76 -130t118 -79t150.5 -27q76 0 138 18.5t112.5 51.5t90.5 78t70 96l-34 29q-23 -41 -56 -81t-78 -74t-104 -54.5 t-135 -20.5q-92 0 -155.5 32t-102.5 85t-55.5 121t-16.5 139q0 29 2 59.5t8 63.5h760zM573 956q80 0 135.5 -25.5t91.5 -68.5t52 -98t16 -117q0 -23 -2 -43t-6 -43h-710q18 70 54 140.5t89 127t123.5 92t156.5 35.5zM475 1346h-45l-43 -199h45zM864 1346h-45l-43 -199h45z " />
<glyph unicode="&#xec;" horiz-adv-x="380" d="M297 975h-45l-207 -975h45zM360 1114l-243 279h-64l252 -279h55z" />
<glyph unicode="&#xed;" horiz-adv-x="380" d="M297 975h-45l-207 -975h45zM311 1114l252 279h-63l-244 -279h55z" />
<glyph unicode="&#xee;" horiz-adv-x="380" d="M297 975h-45l-207 -975h45zM338 1393l-313 -279h59l274 240l174 -240h52l-197 279h-49z" />
<glyph unicode="&#xef;" horiz-adv-x="380" d="M297 975h-45l-207 -975h45zM180 1346h-45l-43 -199h45zM569 1346h-45l-43 -199h45z" />
<glyph unicode="&#xf0;" horiz-adv-x="1091" d="M780 1401q14 -25 32.5 -58.5t33.5 -68.5l-359 -107l15 -37l360 105q20 -53 35.5 -113.5t26.5 -138.5q8 -57 12 -117.5t4 -122.5q0 -41 -2 -83t-6 -82h-6q0 10 1 22t1 23q0 76 -18.5 144.5t-59.5 120.5t-107.5 81.5t-160.5 29.5q-119 0 -212.5 -52t-156.5 -138t-96 -199.5 t-33 -236.5q0 -186 92 -292t264 -106q150 0 254.5 73t168 187.5t92 259t28.5 287.5q0 147 -24.5 269.5t-53.5 199.5l236 70l-11 39l-239 -74q-14 31 -31.5 65.5t-34.5 63.5zM575 956q152 0 235 -95t83 -269q0 -98 -26.5 -199.5t-81 -184.5t-137.5 -136.5t-195 -53.5 q-147 0 -234.5 96.5t-87.5 272.5q0 98 27.5 199.5t84 183.5t139 134t193.5 52z" />
<glyph unicode="&#xf1;" horiz-adv-x="1036" d="M874 561q10 45 17.5 94.5t7.5 96.5q0 121 -68.5 184t-199.5 63q-78 0 -140.5 -22.5t-109.5 -58t-80 -77.5t-49 -81l-2 2l47 213h-45l-207 -975h45l121 571q14 66 47 134.5t83 124t119.5 91t157.5 35.5q66 0 111 -17t72.5 -46t39 -68t11.5 -84q0 -49 -9 -101t-20 -105 l-114 -535h47zM928 1294q-14 -33 -40 -63.5t-77 -30.5q-31 0 -68.5 15.5t-74.5 33.5q-43 23 -81 37t-73 14q-37 0 -65.5 -13t-49 -33.5t-33 -45t-18.5 -47.5l39 -14q12 41 41 77t80 36q29 0 61.5 -13.5t83.5 -38.5q37 -18 78 -33.5t78 -15.5q66 0 101.5 35t52.5 86z" />
<glyph unicode="&#xf2;" horiz-adv-x="1064" d="M84 381q0 -92 23.5 -167t68.5 -128t112.5 -82t153.5 -29q127 0 221.5 54.5t156 142.5t92 199.5t30.5 224.5q0 184 -95 293.5t-265 109.5q-125 0 -218.5 -54t-156 -142t-93 -198.5t-30.5 -223.5zM571 956q154 0 240 -98t86 -268q0 -98 -27.5 -199.5t-83 -184.5 t-140.5 -135.5t-197 -52.5q-147 0 -233.5 99.5t-86.5 277.5q0 94 27.5 194.5t83 181.5t138 133t193.5 52zM688 1114l-244 279h-63l252 -279h55z" />
<glyph unicode="&#xf3;" horiz-adv-x="1064" d="M84 381q0 -92 23.5 -167t68.5 -128t112.5 -82t153.5 -29q127 0 221.5 54.5t156 142.5t92 199.5t30.5 224.5q0 184 -95 293.5t-265 109.5q-125 0 -218.5 -54t-156 -142t-93 -198.5t-30.5 -223.5zM571 956q154 0 240 -98t86 -268q0 -98 -27.5 -199.5t-83 -184.5 t-140.5 -135.5t-197 -52.5q-147 0 -233.5 99.5t-86.5 277.5q0 94 27.5 194.5t83 181.5t138 133t193.5 52zM584 1114l252 279h-64l-244 -279h56z" />
<glyph unicode="&#xf4;" horiz-adv-x="1064" d="M84 381q0 -92 23.5 -167t68.5 -128t112.5 -82t153.5 -29q127 0 221.5 54.5t156 142.5t92 199.5t30.5 224.5q0 184 -95 293.5t-265 109.5q-125 0 -218.5 -54t-156 -142t-93 -198.5t-30.5 -223.5zM571 956q154 0 240 -98t86 -268q0 -98 -27.5 -199.5t-83 -184.5 t-140.5 -135.5t-197 -52.5q-147 0 -233.5 99.5t-86.5 277.5q0 94 27.5 194.5t83 181.5t138 133t193.5 52zM641 1393l-313 -279h59l275 240l174 -240h51l-197 279h-49z" />
<glyph unicode="&#xf5;" horiz-adv-x="1064" d="M84 381q0 -92 23.5 -167t68.5 -128t112.5 -82t153.5 -29q127 0 221.5 54.5t156 142.5t92 199.5t30.5 224.5q0 184 -95 293.5t-265 109.5q-125 0 -218.5 -54t-156 -142t-93 -198.5t-30.5 -223.5zM571 956q154 0 240 -98t86 -268q0 -98 -27.5 -199.5t-83 -184.5 t-140.5 -135.5t-197 -52.5q-147 0 -233.5 99.5t-86.5 277.5q0 94 27.5 194.5t83 181.5t138 133t193.5 52zM924 1294q-14 -33 -40 -63.5t-77 -30.5q-31 0 -69 15.5t-74 33.5q-43 23 -81 37t-73 14q-37 0 -65.5 -13t-49 -33.5t-33 -45t-18.5 -47.5l39 -14q12 41 41 77t80 36 q29 0 61.5 -13.5t83.5 -38.5q37 -18 78 -33.5t78 -15.5q66 0 101.5 35t51.5 86z" />
<glyph unicode="&#xf6;" horiz-adv-x="1064" d="M84 381q0 -92 23.5 -167t68.5 -128t112.5 -82t153.5 -29q127 0 221.5 54.5t156 142.5t92 199.5t30.5 224.5q0 184 -95 293.5t-265 109.5q-125 0 -218.5 -54t-156 -142t-93 -198.5t-30.5 -223.5zM571 956q154 0 240 -98t86 -268q0 -98 -27.5 -199.5t-83 -184.5 t-140.5 -135.5t-197 -52.5q-147 0 -233.5 99.5t-86.5 277.5q0 94 27.5 194.5t83 181.5t138 133t193.5 52zM487 1346h-45l-43 -199h45zM877 1346h-46l-43 -199h46z" />
<glyph unicode="&#xf7;" horiz-adv-x="1732" d="M158 465h1378v43h-1378v-43zM868 233h-45v-233h45v233zM868 975h-45v-234h45v234z" />
<glyph unicode="&#xf8;" horiz-adv-x="1064" d="M84 381q0 -152 63 -256l-153 -158l26 -28l152 153q45 -55 112.5 -86t157.5 -31q127 0 221.5 54.5t156 142.5t92 199.5t30.5 224.5q0 131 -51 227l160 164l-29 29l-154 -156q-47 66 -118.5 102.5t-167.5 36.5q-125 0 -218.5 -54t-156 -142t-93 -198.5t-30.5 -223.5z M571 956q88 0 155 -33.5t108 -97.5l-650 -663q-55 88 -55 233q0 94 27.5 194.5t83 181.5t138 133t193.5 52zM897 590q0 -98 -27.5 -199.5t-83 -184.5t-140.5 -135.5t-197 -52.5q-156 0 -242 109l649 661q41 -85 41 -198z" />
<glyph unicode="&#xf9;" horiz-adv-x="1024" d="M123 414q-10 -45 -17.5 -94.5t-7.5 -96.5q0 -121 65.5 -184.5t196.5 -63.5q76 0 138.5 22.5t108.5 58.5t78 78t48 81l2 -2l-47 -213h45l207 975h-45l-121 -572q-14 -66 -46 -134t-81 -123.5t-117.5 -91.5t-156.5 -36q-66 0 -110 16.5t-70.5 46.5t-37 68.5t-10.5 83.5 q0 49 9.5 101.5t19.5 105.5l115 535h-47zM707 1114l-244 279h-64l252 -279h56z" />
<glyph unicode="&#xfa;" horiz-adv-x="1024" d="M123 414q-10 -45 -17.5 -94.5t-7.5 -96.5q0 -121 65.5 -184.5t196.5 -63.5q76 0 138.5 22.5t108.5 58.5t78 78t48 81l2 -2l-47 -213h45l207 975h-45l-121 -572q-14 -66 -46 -134t-81 -123.5t-117.5 -91.5t-156.5 -36q-66 0 -110 16.5t-70.5 46.5t-37 68.5t-10.5 83.5 q0 49 9.5 101.5t19.5 105.5l115 535h-47zM580 1114l251 279h-63l-244 -279h56z" />
<glyph unicode="&#xfb;" horiz-adv-x="1024" d="M123 414q-10 -45 -17.5 -94.5t-7.5 -96.5q0 -121 65.5 -184.5t196.5 -63.5q76 0 138.5 22.5t108.5 58.5t78 78t48 81l2 -2l-47 -213h45l207 975h-45l-121 -572q-14 -66 -46 -134t-81 -123.5t-117.5 -91.5t-156.5 -36q-66 0 -110 16.5t-70.5 46.5t-37 68.5t-10.5 83.5 q0 49 9.5 101.5t19.5 105.5l115 535h-47zM647 1393l-313 -279h59l275 240l174 -240h51l-197 279h-49z" />
<glyph unicode="&#xfc;" horiz-adv-x="1024" d="M123 414q-10 -45 -17.5 -94.5t-7.5 -96.5q0 -121 65.5 -184.5t196.5 -63.5q76 0 138.5 22.5t108.5 58.5t78 78t48 81l2 -2l-47 -213h45l207 975h-45l-121 -572q-14 -66 -46 -134t-81 -123.5t-117.5 -91.5t-156.5 -36q-66 0 -110 16.5t-70.5 46.5t-37 68.5t-10.5 83.5 q0 49 9.5 101.5t19.5 105.5l115 535h-47zM492 1346h-46l-43 -199h46zM881 1346h-45l-43 -199h45z" />
<glyph unicode="&#xfd;" horiz-adv-x="868" d="M-160 -383q12 -8 35 -15.5t57 -7.5q51 0 92.5 17.5t74 47.5t59 70t53.5 83l696 1163h-49l-409 -688q-18 -31 -38 -65t-37.5 -62.5t-29.5 -51t-18 -34.5h-2q-4 37 -13.5 94t-23.5 154l-99 653h-47l146 -955l-127 -210q-43 -72 -94.5 -122t-126.5 -50q-55 0 -89 28z M483 1114l252 279h-63l-244 -279h55z" />
<glyph unicode="&#xfe;" horiz-adv-x="1085" d="M606 956q80 0 139.5 -28.5t97.5 -79.5t57.5 -120t19.5 -148q0 -92 -29 -191.5t-85 -181.5t-137 -135.5t-186 -53.5q-156 0 -228.5 99.5t-72.5 263.5q0 90 25.5 191.5t78 186.5t132 141t188.5 56zM8 -389l142 688h2q2 -51 18 -108.5t53 -104.5t99.5 -79t156.5 -32 q115 0 205 53.5t152.5 141.5t95.5 198.5t33 227.5q0 96 -26 172t-72 127t-110.5 77.5t-140.5 26.5q-78 0 -139 -23.5t-106 -60t-76 -80.5t-47 -83l-2 2l141 641h-45l-381 -1784h47z" />
<glyph unicode="&#xff;" horiz-adv-x="868" d="M-160 -383q12 -8 35 -15.5t57 -7.5q51 0 92.5 17.5t74 47.5t59 70t53.5 83l696 1163h-49l-409 -688q-18 -31 -38 -65t-37.5 -62.5t-29.5 -51t-18 -34.5h-2q-4 37 -13.5 94t-23.5 154l-99 653h-47l146 -955l-127 -210q-43 -72 -94.5 -122t-126.5 -50q-55 0 -89 28z M420 1346h-45l-43 -199h45zM809 1346h-45l-43 -199h45z" />
<glyph unicode="&#x132;" horiz-adv-x="1400" d="M371 1393l-297 -1393h45l297 1393h-45zM1343 1393l-206 -965q-20 -92 -45 -170t-76 -137q-43 -53 -107.5 -81t-154.5 -28q-152 0 -228.5 82t-76.5 215q0 10 1 17.5t1 17.5l-45 -20v-25q0 -164 94 -247t254 -83q115 0 189.5 37t121.5 100q51 72 72.5 147t44.5 173l207 967 h-46z" />
<glyph unicode="&#x133;" horiz-adv-x="798" d="M297 975h-45l-207 -975h45zM387 1393h-45l-51 -236h45zM104 -381q16 -8 49 -16.5t78 -8.5q82 0 129.5 29t75.5 88q18 41 33.5 105.5t32.5 146.5l215 1012h-45l-228 -1063q-12 -63 -25 -110.5t-30 -80.5q-23 -45 -59.5 -64t-96.5 -19q-43 0 -71.5 8t-44.5 18zM805 1393 h-45l-51 -236h45z" />
<glyph unicode="&#x152;" horiz-adv-x="1886" d="M1702 43h-789l140 657h673l9 43h-674l129 607h747l11 43h-793l-14 -68q-47 37 -126 64.5t-184 27.5q-160 0 -287.5 -71.5t-216.5 -190.5t-137.5 -272.5t-48.5 -319.5q0 -145 37 -250.5t101.5 -175t151.5 -103.5t187 -34q82 0 150 17.5t100 33.5l-10 -51h836zM633 43 q-205 0 -326 136t-121 392q0 160 48.5 305.5t134.5 256t204.5 176t257.5 65.5q104 0 184.5 -31.5t114.5 -64.5l-251 -1180q-31 -16 -99.5 -35.5t-146.5 -19.5z" />
<glyph unicode="&#x153;" horiz-adv-x="1828" d="M1700 518q12 63 12 127q0 74 -18.5 138.5t-58.5 112.5t-101 75.5t-148 27.5q-82 0 -151.5 -25.5t-126.5 -69.5t-100 -105.5t-70 -132.5v2q-18 154 -110.5 242.5t-245.5 88.5q-125 0 -218.5 -54t-156 -142t-93 -198.5t-30.5 -223.5q0 -92 23.5 -167t68.5 -128t112.5 -82 t153.5 -29q88 0 160 27t127 73t95 107.5t67 132.5q23 -166 118 -253t246 -87q76 0 138.5 18.5t112.5 51.5t90 78t71 96l-35 29q-23 -41 -55.5 -81t-77.5 -74t-104.5 -54.5t-134.5 -20.5q-92 0 -156 32t-102.5 85t-55 121t-16.5 139q0 29 2 59.5t8 63.5h760zM571 956 q154 0 240 -98t86 -268q0 -98 -27.5 -199.5t-83 -184.5t-140.5 -135.5t-197 -52.5q-147 0 -233.5 99.5t-86.5 277.5q0 94 27.5 194.5t83 181.5t138 133t193.5 52zM1372 956q80 0 135.5 -25.5t91 -68.5t52 -98t16.5 -117q0 -23 -2 -43t-6 -43h-711q18 70 54 140.5t89.5 127 t124 92t156.5 35.5z" />
<glyph unicode="&#x178;" horiz-adv-x="1093" d="M565 596l674 797h-55l-631 -748l-311 748h-49l329 -791l-129 -602h47zM606 1790h-45l-43 -199h45zM995 1790h-45l-43 -199h45z" />
<glyph unicode="&#x2c6;" horiz-adv-x="927" d="M600 1393l-313 -279h59l275 240l174 -240h51l-197 279h-49z" />
<glyph unicode="&#x2dc;" horiz-adv-x="962" d="M870 1294q-14 -33 -39.5 -63.5t-76.5 -30.5q-31 0 -69 15.5t-75 33.5q-43 23 -80.5 37t-72.5 14q-37 0 -66 -13t-49 -33.5t-32.5 -45t-18.5 -47.5l39 -14q12 41 40.5 77t80.5 36q29 0 61.5 -13.5t83.5 -38.5q37 -18 78 -33.5t78 -15.5q66 0 101.5 35t51.5 86z" />
<glyph unicode="&#x2000;" horiz-adv-x="932" />
<glyph unicode="&#x2001;" horiz-adv-x="1864" />
<glyph unicode="&#x2002;" horiz-adv-x="932" />
<glyph unicode="&#x2003;" horiz-adv-x="1864" />
<glyph unicode="&#x2004;" horiz-adv-x="621" />
<glyph unicode="&#x2005;" horiz-adv-x="466" />
<glyph unicode="&#x2006;" horiz-adv-x="310" />
<glyph unicode="&#x2007;" horiz-adv-x="310" />
<glyph unicode="&#x2008;" horiz-adv-x="233" />
<glyph unicode="&#x2009;" horiz-adv-x="372" />
<glyph unicode="&#x200a;" horiz-adv-x="103" />
<glyph unicode="&#x2010;" horiz-adv-x="845" d="M127 526h567l11 43h-568z" />
<glyph unicode="&#x2011;" horiz-adv-x="845" d="M127 526h567l11 43h-568z" />
<glyph unicode="&#x2012;" horiz-adv-x="845" d="M127 526h567l11 43h-568z" />
<glyph unicode="&#x2013;" horiz-adv-x="1318" d="M127 526h1040l11 43h-1041z" />
<glyph unicode="&#x2014;" horiz-adv-x="1710" d="M127 526h1432l10 43h-1432z" />
<glyph unicode="&#x2018;" horiz-adv-x="348" d="M240 844l65 303q16 84 36.5 126t53.5 68l15 62q-61 -37 -95 -97.5t-57 -168.5l-63 -293h45z" />
<glyph unicode="&#x2019;" horiz-adv-x="348" d="M342 1391l-66 -304q-16 -84 -36.5 -125.5t-53.5 -68.5l-14 -62q61 37 95 97.5t57 169.5l63 293h-45z" />
<glyph unicode="&#x201a;" horiz-adv-x="325" d="M70 233l-66 -303q-16 -84 -36.5 -126t-53.5 -68l-14 -62q61 37 95 97.5t56 169.5l64 292h-45z" />
<glyph unicode="&#x201c;" horiz-adv-x="563" d="M455 844l65 303q16 84 37 126t53 68l15 62q-61 -37 -95 -97.5t-57 -168.5l-63 -293h45zM240 844l65 303q16 84 36.5 126t53.5 68l15 62q-61 -37 -95 -97.5t-57 -168.5l-63 -293h45z" />
<glyph unicode="&#x201d;" horiz-adv-x="563" d="M342 1391l-66 -304q-16 -84 -36.5 -125.5t-53.5 -68.5l-14 -62q61 37 95 97.5t57 169.5l63 293h-45zM557 1391l-65 -304q-16 -84 -37 -125.5t-54 -68.5l-14 -62q61 37 95 97.5t57 169.5l63 293h-45z" />
<glyph unicode="&#x201e;" horiz-adv-x="540" d="M70 233l-66 -303q-16 -84 -36.5 -126t-53.5 -68l-14 -62q61 37 95 97.5t56 169.5l64 292h-45zM285 233l-66 -303q-16 -84 -36.5 -126t-53.5 -68l-14 -62q61 37 95 97.5t56 169.5l64 292h-45z" />
<glyph unicode="&#x2022;" horiz-adv-x="679" d="M201 702q0 -68 46 -113.5t111 -45.5q66 0 114 46t48 113q0 33 -13 61t-34.5 49.5t-51.5 33.5t-63 12q-66 0 -111.5 -45t-45.5 -111z" />
<glyph unicode="&#x2026;" horiz-adv-x="1691" d="M115 233h-45l-52 -233h45zM797 233h-45l-52 -233h45zM1481 233h-45l-52 -233h46z" />
<glyph unicode="&#x202f;" horiz-adv-x="372" />
<glyph unicode="&#x2030;" horiz-adv-x="2732" d="M537 1413q-92 0 -163 -51t-119 -132t-73.5 -181.5t-25.5 -198.5q0 -147 61.5 -237.5t192.5 -90.5q92 0 161.5 53.5t117.5 136.5t72.5 183t24.5 195q0 80 -20.5 140t-54 101t-78.5 61.5t-96 20.5zM201 860q0 80 20.5 170t62.5 166t103.5 126t142.5 50q53 0 92.5 -22.5 t66 -62.5t38.5 -94t12 -116q0 -90 -23.5 -181t-65.5 -165t-102.5 -121t-133.5 -47q-90 0 -151.5 69.5t-61.5 227.5zM1407 1395l-938 -1395h51l938 1395h-51zM1559 868q-92 0 -163 -51t-119 -132t-73.5 -181.5t-25.5 -198.5q0 -147 61 -237.5t193 -90.5q92 0 161.5 53.5 t117.5 136.5t72.5 183.5t24.5 194.5q0 80 -20.5 140t-54 101t-78.5 61.5t-96 20.5zM1223 315q0 80 20.5 170t62.5 166t103 126t143 50q53 0 92 -22.5t66 -62.5t39 -94t12 -116q0 -90 -23.5 -181t-65.5 -164.5t-102.5 -121t-133.5 -47.5q-90 0 -151.5 69.5t-61.5 227.5z M2376 868q-92 0 -163 -51t-119 -132t-73.5 -181.5t-25.5 -198.5q0 -147 61.5 -237.5t192.5 -90.5q92 0 161.5 53.5t117.5 136.5t73 183.5t25 194.5q0 80 -20.5 140t-54.5 101t-79 61.5t-96 20.5zM2040 315q0 80 20.5 170t62.5 166t103.5 126t143.5 50q53 0 92 -22.5 t65.5 -62.5t38.5 -94t12 -116q0 -90 -23.5 -181t-65.5 -164.5t-102 -121t-134 -47.5q-90 0 -151.5 69.5t-61.5 227.5z" />
<glyph unicode="&#x2039;" horiz-adv-x="505" d="M115 590l190 -350l14 71l-167 305l280 240l19 70l-326 -281z" />
<glyph unicode="&#x203a;" horiz-adv-x="499" d="M387 575l-190 351l-15 -72l168 -305l-280 -240l-19 -69l326 280z" />
<glyph unicode="&#x205f;" horiz-adv-x="466" />
<glyph unicode="&#x20ac;" horiz-adv-x="1271" d="M133 831h133q-16 -68 -25.5 -137t-13.5 -139h-135l-24 -43h157v-20q0 -119 25.5 -214.5t77 -163t130.5 -103.5t185 -36q162 0 279.5 88.5t195.5 229.5l-33 29q-76 -135 -184 -219.5t-252 -84.5q-78 0 -146.5 25t-120.5 82t-82 151.5t-30 235.5h475l23 43h-498 q4 135 43 276h582l23 43h-592q31 98 79 189.5t113.5 160t148.5 109.5t183 41q152 0 242 -89t118 -243l45 21q-20 102 -64 171t-99.5 109.5t-117 57t-116.5 16.5q-111 0 -202 -42t-163.5 -115.5t-127 -173t-86.5 -212.5h-121z" />
<glyph unicode="&#x2122;" horiz-adv-x="1951" d="M1716 1186q10 29 18.5 54.5t14.5 45.5q8 23 14 45h2q-2 -35 -2 -71v-127v-635h45v895h-65l-217 -650q-12 -37 -23.5 -71.5t-19.5 -63.5q-10 -33 -19 -61h-2q-10 31 -20 63q-10 29 -21.5 64t-23.5 69l-234 650h-67v-895h45v616q0 29 -1 67t-1 72q-2 41 -2 86h2 q12 -37 22 -69q10 -29 18.5 -54.5t12.5 -33.5l246 -684h47zM270 1350h305v-852h46v852h305v43h-656v-43z" />
<glyph unicode="&#x2190;" horiz-adv-x="1724" d="M1561 510h-1399l471 465h-66l-485 -488l485 -487h66l-469 467h1397v43z" />
<glyph unicode="&#x2192;" horiz-adv-x="1724" d="M1092 975l471 -465h-1399v-43h1397l-469 -467h65l485 487l-485 488h-65z" />
<glyph unicode="&#x25fc;" horiz-adv-x="972" d="M0 973h973v-973h-973v973z" />
<glyph horiz-adv-x="1925" d="M1823 719h-1663l680 674h-66l-696 -697l696 -696h66l-682 676h1665v43z" />
<glyph horiz-adv-x="1925" d="M1085 1393l680 -674h-1663v-43h1665l-682 -676h66l696 696l-696 697h-66z" />
<glyph horiz-adv-x="1710" d="M1223 328q-80 0 -80 82q0 16 4 39.5t10 50.5l72 338q12 59 16 87.5t4 53.5q0 53 -23.5 88t-61.5 56.5t-85 29.5t-92 8q-133 0 -223 -60.5t-109 -178.5l41 -29q6 45 24.5 86t53.5 71.5t85 49t120 18.5q66 0 110 -12t69.5 -33.5t36.5 -48.5t11 -57q0 -23 -4 -48.5t-8 -46.5 q-8 -35 -29.5 -48t-81.5 -23l-188 -33q-63 -10 -123.5 -26.5t-107 -44t-75 -72.5t-28.5 -115q0 -111 66.5 -165t175.5 -54q61 0 112.5 15.5t89 42t64.5 59t43 69.5h2q-4 -18 -8 -40.5t-4 -39.5q0 -47 26.5 -76.5t88.5 -29.5q92 0 171.5 52t138 137t92.5 195.5t34 227.5 q0 150 -53.5 261.5t-142.5 186t-209 111.5t-251 37q-156 0 -309 -57.5t-274 -171t-197 -283.5t-76 -395q0 -135 42 -260t128 -220.5t218.5 -151.5t312.5 -56t354 68.5t299 193.5l-12 41q-63 -61 -139 -109.5t-158 -82t-168 -51t-170 -17.5q-172 0 -296 53t-206 143t-121 208 t-39 245q0 211 72 372.5t186.5 269.5t260 163t292.5 55q121 0 231.5 -35t195.5 -103.5t135.5 -173t50.5 -245.5q0 -109 -32 -211t-85 -182t-122.5 -129t-147.5 -49zM1137 612q-33 -147 -124 -214.5t-202 -67.5q-92 0 -147.5 45t-55.5 137q0 61 27 98t67.5 60.5t93 35 t103.5 21.5l109 21q25 4 52 8t52 9t43.5 11t24.5 17z" />
<glyph horiz-adv-x="491" d="M289 1536h-45v-1716h45v1716z" />
<glyph horiz-adv-x="565" d="M102 711q59 -20 81 -58.5t22 -91.5q0 -35 -8.5 -79t-20.5 -101l-33 -145q-16 -70 -26.5 -126.5t-10.5 -103.5q0 -55 18.5 -92t51.5 -58.5t75 -31.5t89 -12l10 41q-102 8 -150 44.5t-48 118.5q0 25 5 65t15 81l37 166q18 84 28.5 144t10.5 106q0 53 -22.5 93t-73.5 62v2 q51 14 83.5 33.5t56 55.5t41 95.5t36.5 153.5l37 178q12 63 27.5 113.5t41 84.5t65.5 51.5t101 17.5h29.5t31.5 -2l11 43q-16 2 -28.5 2h-27.5q-82 0 -133 -22.5t-82.5 -65.5t-50 -106.5t-37.5 -145.5l-32 -154q-16 -78 -31 -131t-36.5 -87t-54 -53.5t-85.5 -31.5z" />
<glyph horiz-adv-x="565" d="M514 696q-59 20 -80.5 58.5t-21.5 91.5q0 35 8 79t20 101l25 111q16 70 26.5 126t10.5 103q0 55 -18.5 92t-51.5 58.5t-75 29.5t-89 10l-10 -40q102 -4 150.5 -41t48.5 -119q0 -25 -5.5 -65t-15.5 -81l-28 -131q-18 -84 -28.5 -144.5t-10.5 -105.5q0 -53 22.5 -93 t73.5 -62v-2q-51 -14 -84 -34t-56.5 -55.5t-41 -95t-35.5 -153.5l-45 -213q-12 -55 -25.5 -104.5t-38 -86t-64.5 -58.5t-104 -22h-31.5t-33.5 3l-10 -41q8 -2 18 -2h45q80 0 130 23.5t81 67.5t49.5 107.5t34.5 143.5l41 188q16 78 30.5 131t36 87t54.5 53.5t86 31.5z" />
<glyph horiz-adv-x="542" d="M328 -137h-260l346 1630h260l10 43h-305l-365 -1716h303z" />
<glyph horiz-adv-x="538" d="M-100 -180h303l366 1716h-305l-10 -43h260l-346 -1630h-258z" />
<glyph horiz-adv-x="516" d="M270 1393h-45v-662h45v662zM270 338h-45v-662h45v662z" />
<glyph horiz-adv-x="1990" d="M774 1393l-696 -697l696 -696h66l-682 676h1665v717h-45v-674h-1618l680 674h-66z" />
<glyph horiz-adv-x="1726" d="M197 670h1378v43h-1378v-43zM907 438h-45v-233h45v233zM907 1180h-45v-234h45v234z" />
<glyph horiz-adv-x="1222" d="M512 760q-78 -4 -154.5 -31t-137 -76t-98.5 -123.5t-38 -175.5q0 -186 127 -282.5t346 -96.5q121 0 214 32t157.5 87.5t97.5 131t33 163.5q0 86 -26.5 147.5t-67.5 102.5t-91.5 65.5t-95.5 36.5v2q74 8 138.5 35t112.5 71t76 107.5t28 143.5q0 74 -31 132t-86 100 t-132 63.5t-169 21.5q-104 0 -187.5 -28.5t-141.5 -76.5t-90 -111.5t-32 -135.5q0 -76 22.5 -129t58.5 -89t80 -56.5t87 -28.5v-2zM129 360q0 74 27.5 140.5t84 118t142.5 82t203 30.5q96 0 175 -23.5t135 -67.5t87 -107.5t31 -143.5q0 -88 -34 -156.5t-94.5 -116.5 t-146.5 -73t-190 -25q-199 0 -309.5 93t-110.5 249zM309 1065q0 61 25.5 117.5t77 98.5t127 67.5t176.5 25.5q174 0 273 -74.5t99 -203.5q0 -145 -102 -235.5t-305 -90.5q-96 0 -166 22.5t-115 62.5t-67.5 93.5t-22.5 116.5z" />
<glyph horiz-adv-x="1677" d="M135 649h1432l10 43h-1432z" />
<glyph horiz-adv-x="1286" d="M135 649h1041l10 43h-1041z" />
<glyph horiz-adv-x="1849" d="M229 496h1379v43h-1379v-43zM229 854h1379v43h-1379v-43z" />
<glyph horiz-adv-x="1128" d="M145 625l41 -15q27 61 69 109.5t96.5 83.5t115.5 53t127 18q70 0 136.5 -21.5t117.5 -66.5t82 -114.5t31 -167.5q0 -125 -40 -216t-105.5 -151.5t-148.5 -89.5t-169 -29q-63 0 -125 17.5t-112 52.5t-88 90t-56 129l-41 -26q41 -156 158.5 -231t267.5 -75q94 0 185 33 t162 98.5t114 167t43 236.5q0 106 -34 183t-89.5 127t-128 74t-150.5 24q-74 0 -135 -17.5t-110.5 -46.5t-86 -64.5t-61.5 -74.5h-2l170 635h668l10 43h-711z" />
<glyph horiz-adv-x="1105" d="M862 1393l-839 -953l-7 -32h635l-88 -408h45l88 408h320l10 43h-321l202 942h-45zM84 451l541 608q78 88 140 161.5t89 114.5h2q-10 -43 -34.5 -145.5t-61.5 -278.5l-98 -460h-578z" />
<glyph horiz-adv-x="794" d="M127 651l190 -350l15 72l-168 305l280 240l19 69l-326 -280zM420 651l190 -350l15 72l-168 305l280 240l19 69l-326 -280z" />
<glyph horiz-adv-x="792" d="M692 637l-190 350l-15 -72l168 -305l-280 -239l-19 -70l326 281zM399 637l-190 350l-14 -72l167 -305l-280 -239l-19 -70l326 281z" />
<glyph horiz-adv-x="501" d="M127 651l190 -350l15 72l-168 305l280 240l19 69l-326 -280z" />
<glyph horiz-adv-x="499" d="M399 637l-190 350l-14 -72l167 -305l-280 -239l-19 -70l326 281z" />
<glyph horiz-adv-x="813" d="M135 649h567l11 43h-568z" />
<glyph horiz-adv-x="1132" d="M979 971h-811v-43h766v-434h45v477z" />
<glyph horiz-adv-x="1368" d="M1227 209l-488 485l488 488l-31 28l-487 -487l-486 487l-30 -28l487 -488l-487 -487l28 -29l488 488l487 -488z" />
<glyph horiz-adv-x="1189" d="M90 260q16 -53 46 -103.5t76 -91t109.5 -65.5t147.5 -25q139 0 256 73t201 200t131 296t47 363q0 125 -32 221.5t-89 160t-135 96t-172 32.5q-121 0 -212 -43t-152.5 -113.5t-93.5 -162.5t-32 -189q0 -102 34 -180t92.5 -130t135 -78.5t162.5 -26.5q78 0 146.5 19t124 51 t97.5 74t71 89h2q-23 -154 -74 -284t-126 -224t-169 -147.5t-201 -53.5q-150 0 -232.5 75t-117.5 196zM1055 799q-33 -61 -81 -110.5t-105.5 -83.5t-120 -52t-123.5 -18q-80 0 -151 23.5t-125 71.5t-86 119.5t-32 168.5q0 86 29 168.5t85 146t137 102.5t186 39 q111 0 185.5 -41t120.5 -107.5t65.5 -151.5t19.5 -171v-53t-4 -51z" />
<glyph horiz-adv-x="651" d="M627 1393h-41q-20 -80 -53 -139.5t-95 -98.5q-47 -29 -100 -44t-137 -15h-43l-8 -41q10 -2 25 -2h26q141 0 223 46t115 99h2l-256 -1198h45z" />
<glyph horiz-adv-x="473" d="M242 -193q-45 135 -70 283t-25 289q0 164 35 320.5t98.5 304t152.5 282.5t198 256l-43 10q-229 -258 -357.5 -547.5t-128.5 -613.5q0 -313 99 -596z" />
<glyph horiz-adv-x="473" d="M272 1540q45 -135 70 -282.5t25 -288.5q0 -164 -35 -320.5t-98.5 -304t-152.5 -284t-198 -255.5l47 -10q231 258 356.5 548t125.5 613q0 160 -26 307.5t-75 288.5z" />
<glyph horiz-adv-x="1355" d="M678 1290v-583h-578v-43h578v-582h43v582h579v43h-579v583h-43z" />
<glyph horiz-adv-x="1562" d="M782 778h576v43h-576v475h-45v-475h-579v-43h579v-477h45v477zM1358 125h-1200v-43h1200v43z" />
<glyph horiz-adv-x="1038" d="M1184 1393h-932l-84 -402h45l74 359h827q-55 -61 -115.5 -132t-120 -148t-116.5 -158t-109 -160q-115 -180 -207 -371t-145 -381h51q53 188 138 367.5t196 357.5q98 158 226 320.5t264 312.5z" />
<glyph horiz-adv-x="1189" d="M1149 1133q-16 51 -46 102t-76 92t-109.5 65.5t-147.5 24.5q-139 0 -256 -72.5t-201 -199.5t-131 -297t-47 -363q0 -127 32 -222t88 -158.5t135 -96.5t173 -33q119 0 211 43t153.5 114t93.5 163t32 188q0 102 -34 180t-92.5 130.5t-135 79t-162.5 26.5 q-78 0 -146.5 -19.5t-124 -51t-98.5 -74.5t-70 -88h-2q20 154 72.5 283.5t127.5 224t169 147.5t201 53q150 0 232.5 -74.5t117.5 -195.5zM184 594q33 61 81 110.5t104.5 83t120 52t124.5 18.5q80 0 151 -23.5t125 -71.5t86 -120t32 -168q0 -86 -29 -169t-85 -146.5 t-137 -102.5t-186 -39q-111 0 -185.5 41t-120.5 107.5t-65.5 151.5t-19.5 171v53.5t4 51.5z" />
<glyph horiz-adv-x="1153" d="M262 1067q23 147 132.5 227t260.5 80q166 0 260.5 -78.5t94.5 -201.5q0 -104 -51.5 -174t-133.5 -109q-57 -27 -128.5 -40t-186.5 -13h-123l-8 -39h18q59 0 122 -2t121 -14.5t112.5 -36t99.5 -66.5q41 -41 67.5 -93t26.5 -130q0 -98 -37 -166t-98 -111t-140 -62.5 t-163 -19.5q-80 0 -149.5 17.5t-124 57.5t-89 102.5t-45.5 152.5l-41 -22q16 -166 130 -258.5t319 -92.5q127 0 218 33t150.5 88.5t87 129t27.5 155.5q0 143 -93 233.5t-234 116.5l2 2q186 16 287.5 117.5t101.5 249.5q0 61 -23.5 118.5t-73 101.5t-123 70.5t-171.5 26.5 t-176 -26.5t-134.5 -71.5t-89.5 -104.5t-41 -124.5z" />
<glyph horiz-adv-x="1128" d="M260 862q-4 25 -7 51.5t-3 49.5q0 88 29.5 163.5t83 131t130 87t171.5 31.5q176 0 276 -93t100 -251q0 -100 -38.5 -187t-100 -163t-139.5 -140.5t-156 -119.5t-161 -111.5t-162.5 -107.5t-149.5 -94t-121 -72l-10 -37h922l8 43h-434q-98 0 -172 -1t-127 -1h-107v2 q25 14 74 44t110.5 68t130 83t134.5 88q100 68 198.5 143.5t175 162.5t123.5 187.5t47 220.5q0 84 -28.5 154t-82.5 119t-131 76.5t-175 27.5q-109 0 -195 -34.5t-145.5 -96t-91 -143.5t-31.5 -176q0 -41 6 -84z" />
<glyph horiz-adv-x="813" d="M135 649h567l11 43h-568z" />
<glyph horiz-adv-x="1265" d="M770 1417q-156 0 -274.5 -82t-198.5 -213t-121 -297t-41 -333q0 -119 25.5 -214.5t77 -163t130 -103.5t185.5 -36q156 0 273.5 84t196.5 217.5t118 298t39 326.5q0 152 -40 251t-100.5 158.5t-133.5 83t-136 23.5zM180 516q0 135 36 285.5t108.5 278.5t181 211t256.5 83 q92 0 161.5 -34.5t116.5 -98t71 -153t24 -197.5q0 -156 -40 -311.5t-114 -280.5t-180.5 -203t-241.5 -78q-78 0 -146.5 25t-120.5 83t-82 153.5t-30 236.5z" />
<glyph horiz-adv-x="380" d="M297 975h-45l-207 -975h45zM387 1393h-45l-51 -236h45z" />
<glyph d="M741 1417q-156 0 -274.5 -82t-198.5 -213t-121 -297t-41 -333q0 -119 26 -214.5t77 -163t130 -103.5t185 -36q156 0 273.5 84t196.5 217.5t118 298t39 326.5q0 152 -40 251t-100.5 158.5t-133.5 83t-136 23.5zM152 516q0 135 35.5 285.5t108.5 278.5t181.5 211t255.5 83 q92 0 162 -34.5t117 -98t70.5 -153t23.5 -197.5q0 -156 -40 -311.5t-113.5 -280.5t-180 -203t-242.5 -78q-78 0 -146.5 25t-120.5 83t-81.5 153.5t-29.5 236.5z" />
<glyph d="M741 1417q-156 0 -274.5 -82t-198.5 -213t-121 -297t-41 -333q0 -119 26 -214.5t77 -163t130 -103.5t185 -36q156 0 273.5 84t196.5 217.5t118 298t39 326.5q0 152 -40 251t-100.5 158.5t-133.5 83t-136 23.5zM1106 891q0 -156 -40 -311.5t-113.5 -280.5t-180 -203 t-242.5 -78q-94 0 -174 36t-133 126l803 1039q80 -127 80 -328zM152 516q0 135 35.5 285.5t108.5 278.5t181.5 211t255.5 83q86 0 152.5 -30.5t113.5 -88.5l-796 -1032q-25 55 -38 128t-13 165z" />
<glyph d="M905 1393h-41q-20 -80 -53 -139.5t-94 -98.5q-47 -29 -100.5 -44t-137.5 -15h-43l-8 -41q10 -2 25.5 -2h25.5q141 0 223 46t115 99h2l-256 -1198h45z" />
<glyph d="M299 862q-4 25 -7 51.5t-3 49.5q0 88 29.5 163.5t83 131t130 87t170.5 31.5q176 0 276.5 -93t100.5 -251q0 -100 -39 -187t-100 -163t-139 -140.5t-156 -119.5t-161 -111.5t-162.5 -107.5t-149.5 -94t-121 -72l-10 -37h922l8 43h-434q-98 0 -172 -1t-127 -1h-107v2 q25 14 74 44t110.5 68t130 83t134.5 88q100 68 198.5 143.5t175 162.5t123.5 187.5t47 220.5q0 84 -28.5 154t-83 119t-131 76.5t-174.5 27.5q-109 0 -195 -34.5t-145.5 -96t-91 -143.5t-31.5 -176q0 -41 6 -84z" />
<glyph d="M289 1067q23 147 132 227t261 80q166 0 260 -78.5t94 -201.5q0 -104 -51 -174t-133 -109q-57 -27 -129 -40t-186 -13h-123l-8 -39h18q59 0 121.5 -2t121 -14.5t113 -36t99.5 -66.5q41 -41 67.5 -93t26.5 -130q0 -98 -37 -166t-98.5 -111t-140.5 -62.5t-162 -19.5 q-80 0 -150 17.5t-124 57.5t-89 102.5t-45 152.5l-41 -22q16 -166 130 -258.5t319 -92.5q127 0 218 33t150.5 88.5t87 129t27.5 155.5q0 143 -93.5 233.5t-234.5 116.5l2 2q186 16 287.5 117.5t101.5 249.5q0 61 -23.5 118.5t-72.5 101.5t-123 70.5t-172 26.5t-176 -26.5 t-134 -71.5t-89 -104.5t-41 -124.5z" />
<glyph d="M913 1393l-839 -953l-6 -32h634l-88 -408h45l89 408h319l10 43h-321l202 942h-45zM135 451l541 608q78 88 140.5 161.5t88.5 114.5h2q-10 -43 -34.5 -145.5t-61.5 -278.5l-98 -460h-578z" />
<glyph d="M184 625l41 -15q27 61 69 109.5t96 83.5t115.5 53t127.5 18q70 0 136.5 -21.5t117.5 -66.5t81.5 -114.5t30.5 -167.5q0 -125 -39.5 -216t-105.5 -151.5t-148.5 -89.5t-168.5 -29q-63 0 -125 17.5t-112 52.5t-88 90t-56 129l-41 -26q41 -156 158.5 -231t267.5 -75 q94 0 185 33t161.5 98.5t113.5 167t43 236.5q0 106 -33.5 183t-89 127t-128 74t-150.5 24q-74 0 -135.5 -17.5t-110.5 -46.5t-86 -64.5t-61 -74.5h-2l170 635h667l11 43h-711z" />
<glyph d="M1157 1133q-16 51 -46 102t-76 92t-109.5 65.5t-147.5 24.5q-139 0 -255.5 -72.5t-200.5 -199.5t-131.5 -297t-47.5 -363q0 -127 32 -222t88 -158.5t135 -96.5t173 -33q119 0 211 43t153.5 114t93.5 163t32 188q0 102 -34 180t-92 130.5t-135 79t-163 26.5 q-78 0 -146.5 -19.5t-124 -51t-98.5 -74.5t-69 -88h-2q20 154 72.5 283.5t127 224t168.5 147.5t201 53q150 0 232.5 -74.5t117.5 -195.5zM193 594q33 61 81 110.5t104 83t119.5 52t125.5 18.5q80 0 150.5 -23.5t124.5 -71.5t86 -120t32 -168q0 -86 -29 -169t-85 -146.5 t-137 -102.5t-185 -39q-111 0 -186 41t-121 107.5t-65.5 151.5t-19.5 171q0 29 0.5 53.5t4.5 51.5z" />
<glyph d="M1268 1393h-932l-84 -402h45l74 359h827q-55 -61 -115.5 -132t-120 -148t-117 -158t-108.5 -160q-115 -180 -207 -371t-145 -381h51q53 188 138 367.5t196 357.5q98 158 226 320.5t264 312.5z" />
<glyph d="M504 760q-78 -4 -155 -31t-137 -76t-98 -123.5t-38 -175.5q0 -186 127 -282.5t346 -96.5q121 0 214 32t157.5 87.5t97.5 131t33 163.5q0 86 -27 147.5t-68 102.5t-91 65.5t-95 36.5v2q74 8 138.5 35t112.5 71t75.5 107.5t27.5 143.5q0 74 -30.5 132t-86 100t-132 63.5 t-168.5 21.5q-104 0 -187.5 -28.5t-142 -76.5t-90 -111.5t-31.5 -135.5q0 -76 22.5 -129t58.5 -89t80 -56.5t87 -28.5v-2zM121 360q0 74 27.5 140.5t84 118t142.5 82t203 30.5q96 0 174.5 -23.5t135 -67.5t87.5 -107.5t31 -143.5q0 -88 -34 -156.5t-94.5 -116.5t-146.5 -73 t-190 -25q-199 0 -309.5 93t-110.5 249zM301 1065q0 61 25.5 117.5t77 98.5t127 67.5t176.5 25.5q174 0 273 -74.5t99 -203.5q0 -145 -102.5 -235.5t-304.5 -90.5q-96 0 -166 22.5t-115 62.5t-67.5 93.5t-22.5 116.5z" />
<glyph d="M98 260q16 -53 46 -103.5t76 -91t109.5 -65.5t147.5 -25q139 0 256 73t201 200t131 296t47 363q0 125 -31.5 221.5t-89 160t-135.5 96t-172 32.5q-121 0 -212 -43t-152.5 -113.5t-93 -162.5t-31.5 -189q0 -102 33.5 -180t92 -130t135 -78.5t162.5 -26.5q78 0 147 19 t124 51t97 74t71 89h2q-23 -154 -74 -284t-126 -224t-169 -147.5t-201 -53.5q-150 0 -232.5 75t-117.5 196zM1063 799q-33 -61 -81 -110.5t-105.5 -83.5t-120 -52t-123.5 -18q-80 0 -150.5 23.5t-125 71.5t-86 119.5t-31.5 168.5q0 86 28.5 168.5t85 146t137 102.5t185.5 39 q111 0 185.5 -41t120.5 -107.5t65.5 -151.5t19.5 -171v-53t-4 -51z" />
</font>
</defs>
</svg>
