<?xml version="1.0" standalone="no"?>
<!DOCTYPE svg PUBLIC "-//W3C//DTD SVG 1.1//EN" "http://www.w3.org/Graphics/SVG/1.1/DTD/svg11.dtd" >
<svg xmlns="http://www.w3.org/2000/svg" xmlns:xlink="http://www.w3.org/1999/xlink" version="1.1">
<metadata></metadata>
<defs>
<font id="theinhardtblack" horiz-adv-x="1208" >
<font-face units-per-em="2048" ascent="1642" descent="-406" />
<missing-glyph horiz-adv-x="409" />
<glyph unicode="&#xfb01;" horiz-adv-x="1400" d="M1307 1092h-402v301h402v-301zM1307 0h-402v975h402v-975zM788 1112q-16 2 -32.5 3t-38.5 1q-31 0 -58.5 -5t-46.5 -21q-14 -12 -21 -30t-7 -59v-26h204v-273h-204v-702h-402v702h-151v273h151v88q0 86 15.5 141.5t46.5 95.5q47 61 132 86t208 27q55 0 109.5 -4t94.5 -10 v-287z" />
<glyph unicode="&#xfb02;" horiz-adv-x="1406" d="M1307 0h-402v1393h402v-1393zM788 1112q-16 2 -32.5 3t-38.5 1q-31 0 -58.5 -5t-46.5 -21q-14 -12 -21 -30t-7 -59v-26h204v-273h-204v-702h-402v702h-151v273h151v88q0 86 15.5 141.5t46.5 95.5q47 61 132 86t208 27q55 0 109.5 -4t94.5 -10v-287z" />
<glyph horiz-adv-x="0" />
<glyph horiz-adv-x="682" />
<glyph horiz-adv-x="0" />
<glyph horiz-adv-x="0" />
<glyph unicode="&#xd;" horiz-adv-x="1626" d="M967 973l-357 -334h527v334h372v-635h-901l359 -338h-451l-485 487l485 486h451z" />
<glyph unicode=" "  horiz-adv-x="409" />
<glyph unicode="&#x09;" horiz-adv-x="409" />
<glyph unicode="&#xa0;" horiz-adv-x="409" />
<glyph unicode="!" horiz-adv-x="624" d="M514 317v-317h-403v317h403zM483 391h-338l-34 381v621h403v-621z" />
<glyph unicode="&#x22;" horiz-adv-x="1064" d="M930 741h-295l-51 447v205h405v-205zM424 741h-295l-51 447v205h405v-205z" />
<glyph unicode="#" horiz-adv-x="1531" d="M684 594h143l27 147h-143zM332 594l20 147h-233v297h280l60 353h358l-59 -353h139l61 353h357l-60 -353h211v-297h-260l-20 -147h223v-295h-272q-10 -74 -22.5 -150.5t-22.5 -148.5h-361l47 299h-139l-47 -299h-359l46 299h-218v295h271z" />
<glyph unicode="$" horiz-adv-x="1380" d="M530 6q-96 18 -173.5 50t-138 71t-102.5 80t-67 76l252 219q80 -96 188.5 -148.5t231.5 -52.5q98 0 153.5 28.5t55.5 82.5q0 27 -12.5 43t-35 26.5t-53 17.5t-69.5 13l-180 33q-96 16 -180.5 48t-148 82t-99 123.5t-35.5 176.5q0 164 110.5 273.5t302.5 142.5v176h353 v-187q76 -16 140 -41.5t114.5 -55.5t85 -59.5t55.5 -54.5l-231 -223q-74 72 -169.5 111t-197.5 39q-74 0 -121 -24.5t-47 -72.5q0 -47 41 -69.5t123 -38.5l205 -39q98 -18 179 -49t137 -78t87 -116.5t31 -164.5q0 -98 -32 -172.5t-88 -130t-136 -90.5t-176 -49v-190h-353 v194z" />
<glyph unicode="%" horiz-adv-x="1970" d="M1479 418q0 -92 17 -142.5t63 -50.5q47 0 65 50.5t18 142.5t-18 142t-65 50q-45 0 -62.5 -50t-17.5 -142zM1915 403q0 -86 -21.5 -162.5t-66.5 -135t-111.5 -92t-159.5 -33.5q-94 0 -161.5 34.5t-110.5 93t-63.5 135t-20.5 160.5t17.5 165t59.5 145.5t111.5 103.5 t172.5 39q106 0 174.5 -42t108.5 -107.5t55.5 -145.5t15.5 -158zM795 0h-344l733 1393h334zM334 973q0 -92 17.5 -142.5t62.5 -50.5q47 0 65.5 50.5t18.5 142.5t-18.5 142t-65.5 50q-45 0 -62.5 -50t-17.5 -142zM770 958q0 -86 -21.5 -162.5t-66.5 -135t-111.5 -92 t-158.5 -33.5q-94 0 -162 34.5t-111 93t-63.5 135t-20.5 160.5t17.5 165t59.5 145.5t111.5 103.5t172.5 39q106 0 174.5 -42t108.5 -107.5t55.5 -145.5t15.5 -158z" />
<glyph unicode="&#x26;" horiz-adv-x="1380" d="M557 1083q0 -41 19.5 -72.5t60.5 -72.5q41 31 60.5 71t19.5 76q0 39 -22.5 59.5t-57.5 20.5t-57.5 -21.5t-22.5 -60.5zM539 561q-45 -23 -70 -62.5t-25 -88.5q0 -66 38 -107t110 -41q39 0 81 16.5t66 45.5zM944 82q-53 -39 -145 -72t-236 -33q-109 0 -199 25t-154.5 74 t-100 122.5t-35.5 174.5q0 80 24.5 144.5t64.5 113.5t93 85t109 60q-29 29 -55.5 58.5t-47 65.5t-32 79t-11.5 98q0 66 25.5 127.5t78 108.5t131 74.5t185.5 27.5q104 0 181 -24.5t128 -66.5t76 -100.5t25 -125.5q0 -109 -64.5 -199t-175.5 -162q25 -31 47 -53 q8 -10 17.5 -19.5t15.5 -17.5q8 -8 14 -18q6 27 13.5 57.5t11.5 63.5l325 -72q-12 -88 -37.5 -178t-58.5 -168l277 -332h-424z" />
<glyph unicode="'" horiz-adv-x="559" d="M424 741h-295l-51 447v205h405v-205z" />
<glyph unicode="(" horiz-adv-x="710" d="M698 1393q-119 -211 -176 -424t-57 -426q0 -205 56.5 -424t172.5 -443h-381q-135 215 -195.5 432.5t-60.5 434.5q0 221 62.5 426t195.5 424h383z" />
<glyph unicode=")" horiz-adv-x="710" d="M395 1393q133 -219 195.5 -424t62.5 -426q0 -217 -60.5 -434.5t-195.5 -432.5h-381q117 223 173.5 442.5t56.5 424.5q0 213 -57.5 426t-176.5 424h383z" />
<glyph unicode="*" horiz-adv-x="1013" d="M655 1165l213 72l88 -279l-217 -69l70 -90t65 -88l-235 -174l-133 180l-129 -180l-238 172l133 180l-215 69l90 279l213 -70v226h295v-228z" />
<glyph unicode="+" horiz-adv-x="1351" d="M860 0h-366v420h-433v364h433v430h366v-430h430v-364h-430v-420z" />
<glyph unicode="," horiz-adv-x="614" d="M520 410v-232q0 -119 -6 -182.5t-20 -114.5q-16 -59 -46 -105t-76 -77t-111.5 -46t-158.5 -15h-8v229q70 4 101.5 30.5t31.5 102.5h-133v410h426z" />
<glyph unicode="-" horiz-adv-x="763" d="M666 715v-334h-570v334h570z" />
<glyph unicode="." horiz-adv-x="612" d="M94 0v410h426v-410h-426z" />
<glyph unicode="/" horiz-adv-x="1230" d="M1190 1393l-733 -1393h-416l735 1393h414z" />
<glyph unicode="0" d="M750 688q0 66 -4.5 128.5t-19.5 111.5t-44 79.5t-78 30.5t-78.5 -30.5t-44 -79.5t-18.5 -111.5t-4 -128.5q0 -63 4 -122.5t19.5 -106.5t44 -76t77.5 -29t79 29t44 76t18.5 106.5t4.5 122.5zM1174 688q-4 -129 -31 -257t-91.5 -229.5t-172 -164t-275.5 -62.5 q-158 0 -266.5 64.5t-176 167t-97 229.5t-29.5 252t28.5 255t95 235.5t175 172t270.5 66.5t271.5 -66.5t176 -171t94.5 -234.5t28 -257z" />
<glyph unicode="1" d="M938 0h-410v782h-348v332h103q133 0 196 47q41 29 59.5 88.5t22.5 143.5h377v-1393z" />
<glyph unicode="2" d="M92 817q-6 25 -13 57.5t-7 88.5q0 98 39 181t109.5 144.5t171 95t220.5 33.5q117 0 212.5 -31.5t164 -89t105 -138.5t36.5 -177q0 -113 -41.5 -209t-108.5 -177t-147.5 -145.5t-160.5 -113.5v-2q39 0 80 2q35 2 80 3t88 1h198v-340h-1040v270q41 29 99.5 74t123 97.5 t130 109.5t118.5 113q66 70 112 139t46 147q0 57 -29 91t-90 34q-66 0 -94.5 -46t-28.5 -105q0 -45 8 -78t19 -62z" />
<glyph unicode="3" d="M416 479q10 -82 49 -127t125 -45t118.5 41t32.5 96q0 66 -44 96.5t-142 30.5h-145v281h127q66 0 96 10q45 12 63.5 47t18.5 76q0 53 -35 83t-94 30q-70 0 -105 -41t-35 -117l-387 37q2 90 38 170t105.5 140.5t171 95t232.5 34.5q125 0 221.5 -29.5t161 -81t98 -121 t33.5 -151.5q0 -104 -46 -175t-113 -111q37 -20 72.5 -49t63 -70t45 -93.5t17.5 -117.5q0 -92 -33.5 -173t-102.5 -140.5t-175.5 -94.5t-249.5 -35q-145 0 -248.5 33t-173.5 92.5t-105.5 145.5t-41.5 190z" />
<glyph unicode="4" d="M606 606v176v55.5t2 49.5q0 23 2 45h-2q-12 -20 -24 -43q-10 -18 -24.5 -41t-29.5 -43l-57 -84q-12 -18 -27.5 -38.5t-27.5 -37.5q-16 -20 -31 -39v-2h49q23 0 45.5 1t40.5 1h84zM1176 606v-321h-189v-285h-381v285h-600v262l602 846h379v-787h189z" />
<glyph unicode="5" d="M453 453q12 -68 44.5 -108t96.5 -40q70 0 104.5 53.5t34.5 128.5q0 74 -34.5 123t-106.5 49q-49 0 -84 -28.5t-47 -81.5l-377 49l88 795h918l-23 -336h-561l-14 -121q37 12 77.5 19.5t89.5 7.5q92 0 179.5 -28t154 -84t107.5 -143t41 -206q0 -117 -36 -214.5t-105.5 -167 t-172 -107.5t-235.5 -38q-121 0 -213 32t-158.5 87.5t-107.5 129t-60 159.5z" />
<glyph unicode="6" d="M760 967q-16 59 -48 96t-85 37q-72 0 -112 -60.5t-44 -171.5q47 31 107.5 47.5t121.5 16.5q86 0 167 -26.5t142.5 -83t98.5 -142.5t37 -203q0 -94 -31 -184t-95.5 -161t-163.5 -114t-237 -43q-268 0 -410 169t-142 530q0 170 33.5 307t104 234.5t178 149.5t257.5 52 q129 0 218 -39t146.5 -98t86 -131t36.5 -139zM756 475q0 84 -40 122t-93 38q-41 0 -81 -19.5t-69 -50.5v-26q0 -39 7 -80t23.5 -74t45.5 -54.5t72 -21.5q66 0 100.5 43t34.5 123z" />
<glyph unicode="7" d="M1163 1102q-61 -76 -106 -142.5t-86 -138.5q-98 -176 -160.5 -387t-83.5 -434h-436q35 311 144.5 571t279.5 498h-266v-190h-377v514h1091v-291z" />
<glyph unicode="8" d="M604 -25q-121 0 -223 26t-178 77t-118 130t-42 187q0 59 17.5 109.5t45 90.5t63.5 70.5t73 53.5q-66 41 -115 118.5t-49 186.5q0 86 37 157.5t105.5 124t165.5 82t218 29.5t218.5 -29.5t166 -82t105 -124t36.5 -157.5q0 -109 -49 -186.5t-114 -118.5q37 -23 72.5 -53.5 t63 -70.5t45 -90t17.5 -110q0 -109 -43 -187.5t-117.5 -129.5t-178 -77t-222.5 -26zM604 846q76 0 112 37t36 90q0 49 -35 87t-113 38t-112.5 -38t-34.5 -87q0 -53 35.5 -90t111.5 -37zM604 303q74 0 119 37t45 102q0 59 -43 97.5t-121 38.5t-121 -38t-43 -98 q0 -66 45 -102.5t119 -36.5z" />
<glyph unicode="9" d="M449 428q16 -59 47.5 -95t85.5 -36q72 0 111.5 59.5t43.5 169.5q-47 -31 -107.5 -47t-121.5 -16q-86 0 -167 26.5t-142.5 82t-98.5 141.5t-37 202q0 94 31 184.5t95.5 161t164 113.5t236.5 43q268 0 410.5 -170t142.5 -528q0 -170 -34 -308.5t-104.5 -234.5t-178 -148.5 t-257.5 -52.5q-129 0 -218 39t-146.5 99.5t-86 132t-36.5 139.5zM453 920q0 -84 39.5 -122t93.5 -38q41 0 81 19.5t68 49.5v27q0 39 -7 80t-23.5 73.5t-45 54t-71.5 21.5q-66 0 -100.5 -42.5t-34.5 -122.5z" />
<glyph unicode=":" horiz-adv-x="638" d="M106 575v402h426v-402h-426zM106 0v401h426v-401h-426z" />
<glyph unicode=";" horiz-adv-x="634" d="M530 410v-232q0 -119 -6 -182.5t-20 -114.5q-16 -59 -46 -105t-76 -77t-111.5 -46t-157.5 -15h-9v229q70 4 102 30.5t32 102.5h-134v410h426zM104 575v402h426v-402h-426z" />
<glyph unicode="&#x3c;" horiz-adv-x="1568" d="M53 811l1413 635v-406l-833 -348l833 -360v-410l-1413 639v250z" />
<glyph unicode="=" horiz-adv-x="1662" d="M117 641v336h1429v-336h-1429zM117 182v336h1429v-336h-1429z" />
<glyph unicode="&#x3e;" horiz-adv-x="1568" d="M1516 561l-1414 -639v410l834 360l-834 348v406l1414 -635v-250z" />
<glyph unicode="?" horiz-adv-x="1103" d="M707 319v-319h-385v319h385zM78 848q-12 41 -17.5 78t-5.5 73q0 94 33 171t95.5 132.5t154.5 85t209 29.5q135 0 230 -35.5t154.5 -94t86 -133.5t26.5 -150q0 -63 -14 -116.5t-39.5 -98t-60.5 -82t-76 -72.5l-80 -66q-39 -31 -55.5 -60.5t-16.5 -78.5v-61h-376v98 q0 90 35.5 152.5t121.5 130.5l56 43q55 43 80.5 92t25.5 104q0 53 -29.5 86t-76.5 33q-51 0 -81 -38t-30 -109q0 -35 7 -68t18 -68z" />
<glyph unicode="@" horiz-adv-x="1728" d="M973 416q-16 -4 -33 -8q-14 -4 -28.5 -7.5t-24.5 -7.5q-47 -12 -79 -27.5t-32 -56.5q0 -76 90 -76q47 0 77 23t30 74v86zM1294 301q0 -23 2 -40t19 -17q35 0 69.5 77.5t34.5 215.5q0 86 -25.5 174t-85 158.5t-156.5 115.5t-239 45q-147 0 -255.5 -49t-181.5 -129 t-107.5 -183.5t-34.5 -213.5q0 -139 46 -249t126 -184.5t187.5 -114.5t230.5 -40q137 0 271 41t261 155l98 -198q-143 -117 -309 -166t-346 -49q-195 0 -350.5 57t-263 161.5t-165 252t-57.5 330.5q0 147 52.5 291.5t158 258t265 184t374.5 70.5q199 0 341.5 -59 t233.5 -155.5t134 -219.5t43 -248q0 -258 -113.5 -400t-337.5 -142q-76 0 -128 14t-87 49q-27 -23 -79 -44t-144 -21q-70 0 -128 17t-101 51t-66.5 85t-23.5 121q0 63 23.5 108.5t64.5 76t96 50t121 29.5l170 29q41 8 41 33v12q0 39 -24.5 55.5t-67.5 16.5q-47 0 -75 -22.5 t-28 -80.5l-301 6q-2 86 33 144.5t95.5 93.5t138 50.5t163.5 15.5q88 0 160 -13.5t123 -45.5t77.5 -87t26.5 -137v-336z" />
<glyph unicode="A" horiz-adv-x="1398" d="M731 852l-33 135h-2q-6 -20 -15 -57t-19 -78l-82 -283h231zM416 0h-432l467 1393h499l463 -1393h-436l-70 233h-422z" />
<glyph unicode="B" horiz-adv-x="1392" d="M537 860h157q31 0 70 1t67 20q23 14 37.5 37.5t14.5 58.5t-14.5 58.5t-37.5 37.5q-27 14 -58.5 16.5t-72.5 2.5h-163v-232zM537 313h178q53 0 81.5 3t47.5 12q76 29 76 116q0 88 -74 117q-18 8 -47 11t-82 3h-180v-262zM123 0v1393h670q119 0 192.5 -12.5t132.5 -41.5 q82 -41 130 -116.5t48 -180.5q0 -66 -18 -115.5t-49 -88.5t-71 -64.5t-83 -40.5q55 -16 103.5 -45t84 -69.5t56 -97t20.5 -130.5q0 -104 -41 -182t-114 -129q-76 -53 -168 -66.5t-187 -13.5h-706z" />
<glyph unicode="C" horiz-adv-x="1386" d="M1364 352q-74 -168 -225.5 -272.5t-388.5 -104.5q-166 0 -294 52.5t-217 147.5t-135.5 228.5t-46.5 292.5q0 160 48.5 293t139.5 228.5t220 147.5t293 52q125 0 224 -32.5t173 -85t124 -120t77 -135.5l-363 -174q-27 102 -85 158.5t-156 56.5q-135 0 -202 -103t-67 -286 q0 -180 66.5 -281.5t202.5 -101.5q92 0 148 46.5t85 127.5z" />
<glyph unicode="D" horiz-adv-x="1495" d="M123 0v1393h549q84 0 155.5 -2t134 -11.5t118 -29t108.5 -56.5q115 -82 180.5 -233.5t65.5 -360.5q0 -176 -48.5 -318t-146.5 -237q-55 -55 -114.5 -83.5t-128 -43t-149.5 -16.5t-177 -2h-547zM541 326h90q94 0 168.5 9t122.5 56q41 41 62.5 120t21.5 183 q0 100 -19.5 180t-73.5 127q-49 41 -116.5 52.5t-178.5 11.5h-77v-739z" />
<glyph unicode="E" horiz-adv-x="1290" d="M537 1059v-187h596v-329h-596v-207h692v-336h-1106v1393h1069v-334h-655z" />
<glyph unicode="F" horiz-adv-x="1224" d="M541 1059v-195h581v-336h-581v-528h-418v1393h1057v-334h-639z" />
<glyph unicode="G" horiz-adv-x="1470" d="M57 696q0 160 49.5 293t140.5 228.5t220 147.5t291 52q125 0 224 -32.5t173 -85t124 -120t77 -135.5l-348 -172q-29 104 -91.5 161t-164.5 57q-137 0 -207 -104.5t-70 -289.5q0 -188 66.5 -298.5t222.5 -110.5q121 0 181.5 56t70.5 149h-305v321h675v-813h-360v92 q-55 -47 -143 -82t-211 -35q-133 0 -246 47.5t-194.5 139.5t-128 226t-46.5 308z" />
<glyph unicode="H" horiz-adv-x="1484" d="M541 532v-532h-418v1393h418v-496h401v496h420v-1393h-420v532h-401z" />
<glyph unicode="I" horiz-adv-x="663" d="M541 0h-418v1393h418v-1393z" />
<glyph unicode="J" horiz-adv-x="862" d="M33 322q29 -6 54.5 -8.5t55.5 -2.5q109 0 146 43q25 29 34 76t9 135v828h418v-957q0 -86 -12.5 -168t-51.5 -143q-33 -45 -80 -73.5t-101 -46t-112.5 -24t-113.5 -6.5q-76 0 -144.5 4.5t-101.5 8.5v334z" />
<glyph unicode="K" horiz-adv-x="1435" d="M938 831l514 -831h-483l-316 522l-112 -125v-397h-418v1393h418v-469l407 469h506z" />
<glyph unicode="L" horiz-adv-x="1118" d="M541 1393v-1055h553v-338h-971v1393h418z" />
<glyph unicode="M" horiz-adv-x="1908" d="M727 0l-145 674q-12 59 -25.5 120.5t-24.5 110.5q-12 57 -24 113q0 -18 2 -63.5t3 -107t2 -133t2 -142t1 -135v-111.5v-326h-395v1393h668l98 -516q12 -59 23.5 -120t21.5 -110q10 -57 22 -110h2q12 53 23 110q10 49 21.5 109.5t25.5 120.5l105 516h653v-1393h-393v315 q0 49 1 115t2 136.5t3 141t4 131t4 106.5t4 67q-14 -66 -29 -133q-12 -57 -26.5 -121t-28.5 -117l-162 -641h-438z" />
<glyph unicode="N" horiz-adv-x="1507" d="M780 989q49 -74 86 -130t60 -93q27 -45 45 -76h2q-2 51 -4 113q-2 53 -2 121.5v146.5v322h417v-1393h-403l-272 444q-35 53 -67 105.5t-56 93.5q-29 49 -54 92h-2q2 -53 5 -117q2 -53 4 -125.5t2 -156.5v-336h-418v1393h403z" />
<glyph unicode="O" horiz-adv-x="1503" d="M481 696q0 -180 67.5 -281.5t203.5 -101.5q135 0 201.5 101.5t66.5 281.5q0 182 -69.5 285.5t-198.5 103.5q-135 0 -203 -103.5t-68 -285.5zM57 696q0 164 49.5 297t140.5 227.5t219 145.5t286 51t285.5 -51t219 -145.5t140.5 -227.5t49 -297t-46 -296t-135 -227 t-218 -146.5t-295 -51.5q-164 0 -293 51.5t-218 146.5t-136.5 227t-47.5 296z" />
<glyph unicode="P" horiz-adv-x="1363" d="M541 799h209q80 0 118 26q53 33 54 113q0 80 -54 113q-39 27 -118 26h-209v-278zM541 481v-481h-418v1393h610q119 0 198 -11.5t136 -33.5q121 -47 193.5 -154t72.5 -262q0 -135 -47 -223t-147 -150q-86 -51 -186.5 -64.5t-233.5 -13.5h-178z" />
<glyph unicode="Q" horiz-adv-x="1540" d="M481 696q0 -180 67.5 -281.5t203.5 -101.5q135 0 201.5 101.5t66.5 281.5q0 182 -69.5 285.5t-198.5 103.5q-135 0 -203 -103.5t-68 -285.5zM57 696q0 164 49.5 297t140.5 227.5t219 145.5t286 51t285.5 -51t219 -145.5t140.5 -227.5t49 -297q0 -94 -17.5 -179 t-48.5 -157l183 -170l-279 -270l-139 156q-164 -100 -393 -101q-164 0 -293 51.5t-218 146.5t-136.5 227t-47.5 296z" />
<glyph unicode="R" horiz-adv-x="1402" d="M541 801h209q80 0 118 26q53 33 54 111q0 80 -54 113q-39 27 -118 26h-209v-276zM670 487h-129v-487h-418v1393h606q119 0 198 -11.5t136 -33.5q121 -47 193.5 -151.5t72.5 -260.5q0 -135 -47 -222t-147 -149q-27 -18 -60 -30l314 -535h-447z" />
<glyph unicode="S" horiz-adv-x="1361" d="M1040 952q-76 72 -173 113t-201 41q-76 0 -124 -25.5t-48 -74.5t42 -72t126 -39l208 -39q100 -18 182.5 -50t140.5 -81t89 -118.5t31 -168.5q0 -121 -46 -208t-129 -143t-196 -84t-246 -28q-139 0 -250.5 31t-195.5 77t-141.5 97t-85.5 94l256 224q82 -98 193.5 -152.5 t234.5 -54.5q102 0 157.5 28.5t55.5 83.5q0 53 -47.5 71t-124.5 32l-185 33q-98 18 -184 50t-150.5 84t-101.5 128t-37 180q0 96 42 176t117 138.5t181.5 90t235.5 31.5q123 0 224 -24.5t178 -61.5t129 -78t79 -73z" />
<glyph unicode="T" horiz-adv-x="1187" d="M35 1393h1118v-336h-348v-1057h-418v1057h-352v336z" />
<glyph unicode="U" horiz-adv-x="1474" d="M737 -27q-80 0 -164 11.5t-158.5 37t-135 66.5t-95.5 98q-20 35 -34.5 72t-23.5 82t-13 100.5t-4 128.5v824h417v-832q0 -72 10.5 -119t36.5 -77q49 -57 164 -58q115 0 164 58q27 31 37 77.5t10 118.5v832h418v-824q0 -74 -4 -129t-13.5 -100t-23.5 -82t-35 -72 q-35 -57 -95 -98t-135 -66.5t-159 -37t-164 -11.5z" />
<glyph unicode="V" horiz-adv-x="1355" d="M920 1393h444l-422 -1393h-532l-414 1393h436l195 -731q10 -39 17 -76t15 -66q8 -35 17 -67h2q6 31 14 67q6 29 15.5 67t19.5 75z" />
<glyph unicode="W" horiz-adv-x="1964" d="M346 0l-332 1393h432l52 -256q16 -76 32.5 -169.5t30.5 -179.5q16 -98 33 -200h2q10 66 29 147q14 70 35.5 162t50.5 203l73 293h387l82 -322q23 -94 45.5 -183t38.5 -161q20 -82 35 -160h4q12 82 27 178q12 82 30.5 185.5t41.5 214.5l49 248h426l-332 -1393h-457 l-90 375q-23 92 -39 169t-26 134q-12 68 -23 119h-2q-8 -41 -20 -101q-10 -51 -29 -127.5t-43 -183.5l-92 -385h-451z" />
<glyph unicode="X" horiz-adv-x="1460" d="M-20 0l497 700l-487 693h493l250 -387l246 387h481l-481 -662l512 -731h-496l-270 410l-270 -410h-475z" />
<glyph unicode="Y" horiz-adv-x="1304" d="M858 0h-418v514l-458 879h448l232 -478l237 478h442l-483 -875v-518z" />
<glyph unicode="Z" horiz-adv-x="1275" d="M1208 0h-1149v264l609 795h-588v334h1126v-242l-616 -815h618v-336z" />
<glyph unicode="[" horiz-adv-x="747" d="M692 -324h-581v1717h581v-273h-188v-1169h188v-275z" />
<glyph unicode="\" horiz-adv-x="1228" d="M453 1393l735 -1393h-414l-733 1393h412z" />
<glyph unicode="]" horiz-adv-x="747" d="M55 -49h189v1169h-189v273h582v-1717h-582v275z" />
<glyph unicode="^" horiz-adv-x="921" d="M975 625h-420l-123 266l-121 -266h-428l387 768h336z" />
<glyph unicode="_" horiz-adv-x="1343" d="M133 -369v332h1077v-332h-1077z" />
<glyph unicode="`" horiz-adv-x="1024" d="M659 1393l140 -297h-361l-254 297h475z" />
<glyph unicode="a" horiz-adv-x="1138" d="M653 418q-10 -6 -42.5 -13.5t-61.5 -15.5q-33 -10 -55.5 -18.5t-36.5 -20.5q-25 -23 -25 -57q0 -39 25.5 -61.5t74.5 -22.5q53 0 87 28.5t34 92.5v88zM82 639q0 92 37 159.5t101.5 111.5t156.5 64.5t203 20.5q102 0 185 -14t141.5 -50t90 -95.5t31.5 -147.5v-412 q0 -47 8 -64t35 -17h14v-203q-35 -6 -75.5 -10.5t-112.5 -4.5q-90 0 -147.5 20.5t-75.5 68.5h-2q-10 -12 -29.5 -29t-51.5 -30t-77 -22.5t-108 -9.5q-162 0 -256.5 78t-94.5 226q0 78 29 132t82 91q47 35 111.5 55.5t144.5 34.5l188 31q47 8 47 41v12q0 41 -29.5 58.5 t-78.5 17.5q-57 0 -87 -28t-30 -71v-18z" />
<glyph unicode="b" horiz-adv-x="1212" d="M494 489q0 -39 5 -77.5t18 -70.5t34.5 -51.5t56.5 -19.5t57.5 18.5t36 49.5t18.5 69.5t5 81.5t-5 83t-17.5 71t-35 49.5t-59.5 18.5q-35 0 -57.5 -19.5t-34.5 -51.5t-17 -72t-5 -79zM1163 485q0 -121 -30.5 -215t-86 -159.5t-134 -100.5t-173.5 -35q-86 0 -147.5 30 t-93.5 65v-70h-402v1393h402v-492q35 41 97 70.5t148 29.5q92 0 169 -34.5t132.5 -101t87 -162t31.5 -218.5z" />
<glyph unicode="c" horiz-adv-x="1114" d="M1083 313q-12 -55 -44.5 -114.5t-91 -108.5t-146.5 -82t-211 -33q-125 0 -225.5 34t-171 98.5t-108.5 157.5t-38 214q0 119 37 215.5t107.5 165t172 105t230.5 36.5q113 0 199 -29.5t145 -80.5t94 -116.5t45 -135.5l-372 -68q-6 57 -30 100.5t-81 43.5q-37 0 -58.5 -19.5 t-34 -52.5t-16.5 -73t-4 -81t4 -80.5t16.5 -71.5t35 -51.5t57.5 -19.5q47 0 71.5 34t34.5 81z" />
<glyph unicode="d" horiz-adv-x="1212" d="M719 492q0 39 -5 77.5t-17.5 70.5t-35 51.5t-57.5 19.5q-37 0 -59.5 -18.5t-34.5 -49.5t-17.5 -69.5t-5.5 -81.5t5.5 -83t18.5 -71t35.5 -49.5t57.5 -18.5q33 0 55.5 19.5t36 51.5t18.5 72t5 79zM49 487q0 123 32 218.5t87 161t132 100t169 34.5q86 0 148.5 -29.5 t97.5 -70.5v492h401v-1393h-401v70q-33 -35 -94.5 -65t-147.5 -30q-96 0 -174 35t-133 101.5t-86 160.5t-31 215z" />
<glyph unicode="e" horiz-adv-x="1155" d="M590 756q-63 0 -97 -37t-38 -96h262q-2 59 -33 96t-94 37zM1108 213q-23 -33 -62.5 -74t-103 -77.5t-149.5 -61.5t-197 -25q-125 0 -226.5 35t-173 102.5t-110.5 165t-39 220.5q0 117 38 210t109.5 158.5t172 100t227.5 34.5q135 0 233.5 -40.5t161 -113.5t93 -171 t30.5 -213v-29.5t-2 -30.5h-653q2 -31 16 -53t36.5 -36.5t49.5 -20.5t55 -6q61 0 103.5 25.5t64.5 66.5z" />
<glyph unicode="f" horiz-adv-x="815" d="M788 1112q-16 2 -32.5 3t-38.5 1q-31 0 -58.5 -5t-46.5 -21q-14 -12 -21 -30t-7 -59v-26h204v-273h-204v-702h-402v702h-151v273h151v88q0 86 15.5 141.5t46.5 95.5q47 61 132 86t208 27q55 0 109.5 -4t94.5 -10v-287z" />
<glyph unicode="g" horiz-adv-x="1210" d="M719 504q0 39 -5 75.5t-18.5 65.5t-36 46.5t-55.5 17.5q-35 0 -57.5 -17.5t-35.5 -45.5t-18.5 -65.5t-5.5 -76.5q0 -41 5.5 -78t18.5 -64.5t35.5 -45t57.5 -17.5q33 0 54.5 17.5t35 46t19.5 65.5t6 76zM485 -16q4 -59 33 -85t82 -26t84 28.5t31 114.5v99 q-33 -35 -93.5 -63.5t-150.5 -28.5q-94 0 -171 32.5t-132 95t-86 152.5t-31 205q0 117 32 208t87 154.5t132 97t169 33.5q86 0 147.5 -29.5t96.5 -70.5v74h401v-903q0 -135 -30.5 -224.5t-96 -143.5t-168 -75.5t-248.5 -21.5q-129 0 -221 25.5t-150.5 71.5t-87 111.5 t-34.5 147.5z" />
<glyph unicode="h" horiz-adv-x="1204" d="M498 885q39 51 113.5 82.5t164.5 31.5q168 0 254 -94q23 -27 39 -54.5t26.5 -67.5t15.5 -96t5 -136v-551h-401v518q0 72 -18.5 116t-84.5 44q-61 0 -87.5 -41t-26.5 -115v-522h-402v1393h402v-508z" />
<glyph unicode="i" horiz-adv-x="593" d="M498 1092h-402v301h402v-301zM498 0h-402v975h402v-975z" />
<glyph unicode="j" horiz-adv-x="593" d="M-53 -98h18q43 0 72 9t45 38q14 29 14 92v934h402v-1026q0 -111 -27 -176q-18 -47 -53 -76t-82 -44t-106.5 -21.5t-125.5 -6.5q-57 0 -88.5 1t-68.5 3v273zM498 1092h-402v301h402v-301z" />
<glyph unicode="k" horiz-adv-x="1236" d="M498 1393v-676l241 258h500l-408 -393l420 -582h-475l-215 319l-63 -61v-258h-402v1393h402z" />
<glyph unicode="l" horiz-adv-x="602" d="M502 0h-402v1393h402v-1393z" />
<glyph unicode="m" horiz-adv-x="1822" d="M715 0v518q0 72 -18.5 116t-84.5 44q-61 0 -87.5 -41t-26.5 -115v-522h-402v975h398v-94q39 53 113.5 85.5t168.5 32.5q86 0 161 -29.5t122 -101.5q47 53 127 92t203 39q174 0 260 -94q23 -27 39 -54.5t26 -67.5t15.5 -96t5.5 -136v-551h-402v518q0 72 -18.5 116 t-83.5 44q-61 0 -88 -41t-27 -115v-522h-401z" />
<glyph unicode="n" horiz-adv-x="1204" d="M494 881q39 53 113.5 85.5t168.5 32.5q168 0 254 -94q23 -27 39 -54.5t26.5 -67.5t15.5 -96t5 -136v-551h-401v518q0 72 -18.5 116t-84.5 44q-61 0 -87.5 -41t-26.5 -115v-522h-402v975h398v-94z" />
<glyph unicode="o" horiz-adv-x="1198" d="M483 489q0 -41 5.5 -80.5t17.5 -71.5t34.5 -51.5t57.5 -19.5t57.5 19.5t36 51.5t18.5 72t5 80q0 41 -5 81t-17.5 72t-35 51.5t-59.5 19.5q-35 0 -57.5 -19.5t-34.5 -51.5t-17.5 -72t-5.5 -81zM47 485q0 119 38 214.5t109.5 163t174 103t229.5 35.5t229.5 -35.5t174 -103 t110.5 -163t39 -214.5q0 -242 -146.5 -376t-406.5 -134t-405.5 134t-145.5 376z" />
<glyph unicode="p" horiz-adv-x="1212" d="M494 489q0 -39 5 -77.5t18 -70.5t34.5 -51.5t56.5 -19.5t57.5 18.5t36 49.5t18.5 69.5t5 81.5t-5 82t-17.5 70t-35 49.5t-59.5 18.5q-35 0 -57.5 -19.5t-34.5 -51.5t-17 -71t-5 -78zM1163 485q0 -121 -30.5 -215t-86 -159.5t-134 -100.5t-173.5 -35q-86 0 -147.5 30 t-93.5 65v-439h-402v1344h402v-74q35 41 97 70.5t148 29.5q92 0 169 -34.5t132.5 -101t87 -162t31.5 -218.5z" />
<glyph unicode="q" horiz-adv-x="1212" d="M719 489q0 39 -5 78t-17.5 71t-35 51.5t-57.5 19.5q-37 0 -59.5 -18.5t-34.5 -49.5t-17.5 -70t-5.5 -82t5.5 -81.5t18.5 -69.5t35.5 -49.5t57.5 -18.5q33 0 55.5 19.5t36 51.5t18.5 70.5t5 77.5zM49 485q0 123 32 218.5t87 162t132 101t169 34.5q86 0 148.5 -29.5 t97.5 -70.5v74h401v-1344h-401v439q-33 -35 -94.5 -65t-147.5 -30q-96 0 -174 35t-133 100.5t-86 159.5t-31 215z" />
<glyph unicode="r" horiz-adv-x="833" d="M498 0h-402v975h398v-131q10 27 34.5 54.5t60.5 50t82 35.5t97 13h17.5t17.5 -2v-358q-25 6 -50.5 8t-45.5 2q-86 0 -132.5 -38t-62.5 -99q-8 -29 -11 -61.5t-3 -69.5v-379z" />
<glyph unicode="s" horiz-adv-x="1085" d="M821 647q-49 41 -130 73t-159 32q-39 0 -64.5 -11.5t-25.5 -33.5q0 -31 27 -41.5t80 -20.5l170 -35q70 -14 129 -34.5t103 -53.5t70 -81t26 -117q0 -90 -37 -156t-101.5 -109t-153.5 -63.5t-192 -20.5q-176 0 -318.5 52.5t-228.5 144.5l220 199q51 -53 141 -96.5 t201 -43.5q113 0 112 52q0 27 -22.5 35t-59.5 16l-176 33q-59 12 -122.5 31.5t-117 54t-88 89t-34.5 134.5q0 88 42 150.5t109.5 101.5t151.5 56t168 17q166 0 284.5 -47t184.5 -106z" />
<glyph unicode="t" horiz-adv-x="870" d="M604 391q0 -41 5 -63.5t20 -36.5q16 -16 43.5 -22.5t62.5 -6.5q31 0 51.5 2t30.5 4v-270q-29 -4 -91 -9t-148 -5q-104 0 -193.5 17t-130.5 71q-33 43 -41 87t-8 115v428h-187v273h187v330l399 61v-391h211v-273h-211v-311z" />
<glyph unicode="u" horiz-adv-x="1202" d="M709 94q-39 -53 -113 -86t-168 -33q-168 0 -254 95q-23 27 -39 54.5t-26.5 67t-15.5 96t-5 136.5v551h401v-518q0 -35 3.5 -65t14.5 -51.5t30.5 -32.5t52.5 -11q61 0 88 41t27 115v522h401v-975h-397v94z" />
<glyph unicode="v" horiz-adv-x="1097" d="M1106 975l-330 -975h-457l-323 975h418l106 -430q10 -41 21 -92q6 -27 12 -56h2q6 31 12 58q4 23 9.5 48t9.5 42l104 430h416z" />
<glyph unicode="w" horiz-adv-x="1646" d="M1094 643q10 -47 19 -92t17 -82q8 -43 19 -84h2q6 41 14 84q6 37 14.5 83t16.5 93l53 330h391l-260 -975h-446l-74 356q-8 33 -14 69t-10 64q-6 35 -11 66h-2q-4 -31 -12 -66q-6 -29 -13 -63.5t-14 -67.5l-75 -358h-447l-250 975h402l53 -334q6 -43 13 -89t14 -83 q8 -43 14 -84h2l16 86q8 37 17.5 82t19.5 90l68 332h393z" />
<glyph unicode="x" horiz-adv-x="1138" d="M1128 975l-335 -486l362 -489h-426l-164 248l-159 -248h-420l354 485l-332 490h432l138 -238l145 238h405z" />
<glyph unicode="y" horiz-adv-x="1095" d="M-4 975h416l94 -414q18 -86 29.5 -142.5t15.5 -84.5h2q4 29 14.5 85t28.5 140l90 416h418l-359 -1067q-27 -78 -52 -131t-62 -88q-43 -39 -122 -56.5t-233 -17.5q-74 0 -125 4t-83 8v297q12 -2 26 -2h49q115 0 142 33q16 20 16 53q0 37 -25 115z" />
<glyph unicode="z" horiz-adv-x="1058" d="M983 975v-252l-420 -430h438v-293h-940v254l428 424h-415v297h909z" />
<glyph unicode="{" horiz-adv-x="780" d="M47 662q45 12 68.5 28.5t35 39t13.5 53t2 71.5v227q0 113 36 176.5t102.5 94t159.5 37t208 6.5h49v-273h-14q-92 0 -118 -42t-26 -136v-131q0 -68 -5 -111t-17.5 -71.5t-35 -47t-56.5 -38.5v-4q35 -20 57 -39t34.5 -47.5t17.5 -71.5t5 -111v-147q0 -47 5 -81t20.5 -55.5 t43 -31.5t75.5 -10h14v-273h-49q-115 0 -208 6.5t-159.5 37t-102.5 94t-36 176.5v248q0 41 -2 71.5t-13.5 53t-35 39t-68.5 28.5v234z" />
<glyph unicode="|" horiz-adv-x="622" d="M111 1393h401v-1717h-401v1717z" />
<glyph unicode="}" horiz-adv-x="780" d="M733 428q-45 -12 -68.5 -28.5t-35 -39t-13.5 -53.5t-2 -71v-248q0 -113 -35.5 -176.5t-102 -94t-160 -37t-207.5 -6.5h-50v275h15q45 0 73.5 10t44 31.5t20.5 55.5t5 81v145q0 68 5 111t17.5 71.5t35 47t57.5 39.5v4q-35 20 -57.5 38.5t-35 47t-17.5 71.5t-5 111v131 q0 94 -25.5 136t-117.5 42h-15v273h50q115 0 208 -6.5t159.5 -37t102 -94t35.5 -176.5v-227q0 -41 2 -71.5t13.5 -53t35 -39t68.5 -28.5v-234z" />
<glyph unicode="~" horiz-adv-x="1161" d="M1128 545q-72 -82 -163 -136.5t-187 -54.5q-68 0 -118 17.5t-103 44.5q-35 16 -79 38.5t-89 22.5q-39 0 -90 -27.5t-104 -99.5l-158 289q18 29 51 63.5t78 65.5t100.5 52.5t116.5 21.5q72 0 129 -22.5t119 -57.5q41 -23 69.5 -35t67.5 -12q53 0 106.5 35.5t100.5 93.5z " />
<glyph unicode="&#xa1;" horiz-adv-x="593" d="M94 657v318h404v-318h-404zM498 203v-621h-404v621l35 381h338z" />
<glyph unicode="&#xa2;" horiz-adv-x="1163" d="M1106 313q-10 -45 -32.5 -93t-62.5 -91t-98.5 -79t-136.5 -54v-227h-325v223q-180 39 -280.5 164t-100.5 323q0 199 99 329t282 173v207h325v-207q147 -39 226 -134t98 -210l-373 -68q-6 57 -29.5 100.5t-81.5 43.5q-37 0 -58 -19.5t-33.5 -51.5t-16.5 -72t-4 -81 t4 -80.5t16.5 -71.5t35 -51.5t56.5 -19.5q47 0 72 34t35 81z" />
<glyph unicode="&#xa3;" horiz-adv-x="1224" d="M801 924q0 33 -3 66.5t-14.5 61t-30 46t-48.5 18.5q-29 0 -46.5 -14.5t-27.5 -39t-14.5 -56t-4.5 -64.5q0 -31 2 -59.5t4 -48.5h277v-285h-258v-14q0 -84 -9.5 -137.5t-35.5 -92.5h541v-305h-1055v276q49 2 83 12.5t56.5 34t32.5 65.5t10 110v23t-2 28h-172v285h150 q-4 29 -5.5 63.5t-1.5 60.5q0 94 25 177.5t80 144.5t144 97t216 36q121 0 208 -28.5t143.5 -84t84 -135.5t31.5 -182z" />
<glyph unicode="&#xa4;" horiz-adv-x="1144" d="M475 567q0 -41 28.5 -71.5t69.5 -30.5q45 0 74 30.5t29 71.5q0 43 -27.5 73t-75.5 30q-41 0 -69.5 -28t-28.5 -75zM147 567q0 53 7.5 94t27.5 82l-125 119l224 225l122 -124q76 35 170 34q43 0 90.5 -8t88.5 -24l116 118l219 -219l-120 -116q35 -78 34 -181q0 -43 -8 -88 t-24 -86q29 -27 62.5 -59.5t55.5 -57.5l-219 -219l-114 115q-39 -14 -86 -22.5t-95 -8.5q-47 0 -91 7.5t-85 23.5l-118 -117l-220 219l119 119q-16 37 -23.5 82t-7.5 92z" />
<glyph unicode="&#xa5;" horiz-adv-x="1398" d="M178 889h129l-250 504h445l198 -465l205 465h445l-273 -504h129v-295h-288v-92h288v-297h-288v-205h-459v205h-281v297h281v92h-281v295z" />
<glyph unicode="&#xa6;" horiz-adv-x="630" d="M115 334h401v-658h-401v658zM115 1393h401v-658h-401v658z" />
<glyph unicode="&#xa7;" horiz-adv-x="1167" d="M692 526q41 16 41 64q0 29 -21.5 54.5t-76.5 47.5l-129 56q-18 -10 -28.5 -30t-10.5 -40q0 -27 18.5 -49.5t77.5 -48.5zM967 391q45 -29 81.5 -85t36.5 -138q0 -86 -36.5 -150.5t-102 -106.5t-153.5 -62.5t-193 -20.5q-170 0 -313.5 53t-229.5 144l219 198 q51 -53 141.5 -96t200.5 -43q61 0 87 14.5t26 40.5q0 29 -33.5 46.5t-93.5 41.5l-121 52q-63 27 -128.5 57.5t-120 73.5t-88 103t-33.5 144q0 72 30.5 131.5t81.5 104.5q-41 35 -66.5 83t-25.5 116q0 88 42 150.5t108.5 101t150.5 56t168 17.5q164 0 284 -48t185 -105 l-188 -201q-25 20 -58.5 39.5t-71.5 34t-79 22.5t-78 8q-41 0 -66.5 -12t-25.5 -37q0 -29 29.5 -46t76.5 -36l178 -69q61 -25 114.5 -53.5t93.5 -67.5t63.5 -90t23.5 -117q0 -43 -11 -82t-28.5 -71.5t-38 -57.5t-38.5 -37z" />
<glyph unicode="&#xa8;" horiz-adv-x="1024" d="M874 1104h-311v280h311v-280zM459 1104h-312v280h312v-280z" />
<glyph unicode="&#xa9;" horiz-adv-x="1527" d="M1247 715q0 102 -36.5 192t-101.5 156.5t-153 105.5t-192 39t-192.5 -39t-153 -105.5t-101 -156.5t-36.5 -192t36.5 -192.5t101 -157t152.5 -105.5t193 -39q104 0 192 39t153 105.5t101.5 157t36.5 192.5zM1464 715q0 -147 -53 -276.5t-147.5 -223.5t-222.5 -148.5 t-277 -54.5q-150 0 -278 54.5t-222 148.5t-147.5 223t-53.5 277q0 147 53.5 276t147.5 223.5t222 148.5t278 54t277.5 -54t222 -148.5t147.5 -223.5t53 -276zM1120 541q-53 -104 -143 -167t-211 -63q-88 0 -158.5 29t-120 81t-76 124.5t-26.5 163.5q0 92 26.5 166.5t77 128 t121 82t156.5 28.5q76 0 134 -22.5t101 -58.5t72 -82t43 -91l-244 -80q-23 106 -106 107q-59 0 -87 -48t-28 -128t29 -126t86 -46q80 0 104 79z" />
<glyph unicode="&#xaa;" horiz-adv-x="835" d="M469 1030q-8 -4 -27.5 -9t-42.5 -9q-45 -10 -62.5 -21.5t-17.5 -40.5q0 -57 70 -57q33 0 56.5 14.5t23.5 53.5v69zM727 936q0 -31 6 -43t23 -12h10v-138q-23 -4 -50.5 -7t-82.5 -3q-51 0 -90 11.5t-56 33.5q-20 -14 -60 -30.5t-120 -16.5q-109 0 -177.5 54.5t-68.5 152.5 q0 96 63.5 140t170.5 61l137 22q25 4 31 9.5t6 19.5v8q0 29 -20.5 39t-49.5 10q-76 0 -75 -69l-244 2q-4 66 23.5 111.5t74.5 73.5t110.5 40t131.5 12q57 0 112.5 -8t98.5 -30.5t69.5 -62.5t26.5 -106v-274z" />
<glyph unicode="&#xab;" horiz-adv-x="1132" d="M66 715l438 321l2 -407l-113 -76l111 -90v-406l-438 295v363zM596 715l438 321l2 -407l-112 -76l110 -90v-406l-438 295v363z" />
<glyph unicode="&#xac;" horiz-adv-x="1308" d="M1198 293h-362v342h-775v340h1137v-682z" />
<glyph unicode="&#xad;" horiz-adv-x="763" d="M668 715v-334h-570v334h570z" />
<glyph unicode="&#xae;" horiz-adv-x="1527" d="M680 762h104q39 0 62 8q41 14 41 66q0 51 -41 65q-23 8 -62 8h-104v-147zM1247 715q0 102 -36.5 192t-101.5 156.5t-153 105.5t-192 39t-192.5 -39t-153 -105.5t-101 -156.5t-36.5 -192t36.5 -192.5t101 -157t152.5 -105.5t193 -39q104 0 192 39t153 105.5t101.5 157 t36.5 192.5zM1464 715q0 -147 -53 -276.5t-147.5 -223.5t-222.5 -148.5t-277 -54.5q-150 0 -278 54.5t-222 148.5t-147.5 223t-53.5 277q0 147 53.5 276t147.5 223.5t222 148.5t278 54t277.5 -54t222 -148.5t147.5 -223.5t53 -276zM680 354h-231v733h401q66 0 105.5 -12 t68.5 -35q45 -33 67.5 -84t22.5 -114q0 -92 -47 -151.5t-119 -82.5l146 -254h-250l-125 232h-39v-232z" />
<glyph unicode="&#xaf;" horiz-adv-x="1024" d="M180 1386h664v-305h-664v305z" />
<glyph unicode="&#xb0;" horiz-adv-x="917" d="M338 1004q0 -49 36 -85t85 -36q47 0 83 35.5t36 85.5q0 47 -36 82.5t-83 35.5q-49 0 -85 -35.5t-36 -82.5zM45 1004q0 86 33 161.5t88 131t131 88t162 32.5t161.5 -32.5t131 -88t88 -131t32.5 -161.5t-32.5 -162t-88 -131.5t-131 -88t-161.5 -32.5t-162 32.5t-131 88 t-88 131.5t-33 162z" />
<glyph unicode="&#xb1;" horiz-adv-x="1409" d="M90 0v336h1229v-336h-1229zM895 391h-379v221h-426v336h426v277h379v-277h424v-336h-424v-221z" />
<glyph unicode="&#xb2;" horiz-adv-x="854" d="M92 1032q-12 45 -12 92q0 133 97 211t257 78q150 0 242 -74.5t92 -195.5q0 -63 -20.5 -116.5t-53 -99.5t-74.5 -85t-88 -72q23 2 57 2h64h113v-223h-678v176q20 10 56 36.5t78 59.5t85 70t74 67q41 41 66.5 79t25.5 85q0 29 -13.5 48.5t-41.5 19.5q-33 0 -45.5 -30 t-12.5 -64q0 -45 11 -76z" />
<glyph unicode="&#xb3;" horiz-adv-x="833" d="M324 850q0 -100 86 -100q41 0 56 21.5t15 49.5q0 68 -94 68h-92v182h88q49 0 66.5 19.5t17.5 50.5q0 57 -59 57q-31 0 -49.5 -20.5t-18.5 -63.5l-268 14q0 59 23.5 111.5t67.5 90.5t108.5 60.5t148.5 22.5q158 0 244 -66.5t86 -166.5q0 -66 -29 -109t-64 -65 q45 -25 81 -69t36 -128q0 -117 -91 -195.5t-269 -78.5q-184 0 -268.5 79.5t-92.5 214.5z" />
<glyph unicode="&#xb4;" horiz-adv-x="1024" d="M823 1393l-254 -297h-340l140 297h454z" />
<glyph unicode="&#xb5;" horiz-adv-x="1196" d="M723 92q-35 -51 -90 -73.5t-115 -22.5h-14v-365h-404v1344h404v-518q0 -35 3 -65t14 -51.5t30.5 -32.5t52.5 -11q61 0 88 41t27 115v522h401v-975h-397v92z" />
<glyph unicode="&#xb6;" horiz-adv-x="1738" d="M1663 1393v-342h-158v-1313h-352v1313h-174v-1313h-350v717h-13q-84 0 -145 7t-109.5 20.5t-84 33t-66.5 45.5q-78 61 -119 151.5t-41 211.5q0 231 160 360q31 25 66.5 45.5t83 33.5t109.5 21.5t146 8.5h1047z" />
<glyph unicode="&#xb7;" horiz-adv-x="616" d="M96 428v410h426v-410h-426z" />
<glyph unicode="&#xb8;" horiz-adv-x="1024" d="M424 14h192l-49 -55q66 -10 106 -52t40 -112q0 -98 -65.5 -146t-168.5 -48q-55 0 -96 9t-57 19l14 127q12 -4 43 -10t55 -6q29 0 48.5 10t19.5 35t-18.5 33t-45.5 8q-25 0 -56.5 -6t-41.5 -13l-27 119z" />
<glyph unicode="&#xb9;" horiz-adv-x="628" d="M526 555h-280v444h-205v207h51q96 0 137 43q20 23 27.5 58.5t9.5 85.5h260v-838z" />
<glyph unicode="&#xba;" horiz-adv-x="841" d="M344 1067q0 -55 14.5 -103.5t61.5 -48.5t62.5 48.5t15.5 103.5q0 27 -3 55.5t-11.5 51t-24 37t-39.5 14.5q-25 0 -39 -14.5t-22.5 -37t-11.5 -51t-3 -55.5zM51 1063q0 80 25.5 145.5t74 111.5t116 71.5t153.5 25.5t154.5 -25.5t116.5 -71.5t74 -111.5t26 -145.5 q0 -160 -98.5 -252t-272.5 -92t-271.5 92t-97.5 252z" />
<glyph unicode="&#xbb;" horiz-adv-x="1132" d="M1067 352l-438 -295v406l110 90l-112 76l2 407l438 -321v-363zM537 352l-439 -295v406l111 90l-113 76l2 407l439 -321v-363z" />
<glyph unicode="&#xbc;" horiz-adv-x="1763" d="M1325 375v117v45q0 10 2 18h-2q-4 -10 -10 -18q-4 -8 -11.5 -18.5t-15.5 -20.5l-45 -62q-10 -12 -17 -22.5t-16 -20.5q-8 -10 -16 -18v-2h27q12 0 25.5 1t25.5 1h53zM1698 379v-207h-115v-172h-258v172h-379l-2 168l381 508h258v-469h115zM655 0h-344l733 1393h334z M541 555h-281v444h-205v207h51q96 0 138 43q20 23 27.5 58.5t9.5 85.5h260v-838z" />
<glyph unicode="&#xbd;" horiz-adv-x="1851" d="M655 0h-344l733 1393h334zM541 555h-281v444h-205v207h51q96 0 138 43q20 23 27.5 58.5t9.5 85.5h260v-838zM1104 483q-12 45 -12 92q0 133 97 211t257 78q150 0 242 -74.5t92 -195.5q0 -63 -20.5 -116.5t-53.5 -99.5t-75 -85t-87 -72q23 2 56.5 2h64.5h113v-223h-678 v176q20 10 56 37t78 59.5t85 69.5t74 68q41 41 66.5 78.5t25.5 84.5q0 29 -13.5 48.5t-41.5 19.5q-33 0 -45.5 -29.5t-12.5 -64.5q0 -45 10 -76z" />
<glyph unicode="&#xbe;" horiz-adv-x="1949" d="M1516 375v117v45q0 10 2 18h-2q-4 -10 -11 -18q-4 -8 -11 -18.5t-15 -20.5l-45 -62q-10 -12 -17.5 -22.5t-15.5 -20.5t-17 -18v-2h27q12 0 25.5 1t25.5 1h54zM844 0h-355l734 1393h344zM1888 379v-207h-114v-172h-258v172h-379l-2 168l381 508h258v-469h114zM328 850 q0 -100 86 -100q41 0 56 21.5t15 49.5q0 68 -94 68h-92v182h88q49 0 66.5 19.5t17.5 50.5q0 57 -59 57q-31 0 -49.5 -20.5t-18.5 -63.5l-268 14q0 59 23.5 111.5t67.5 90.5t108.5 60.5t148.5 22.5q158 0 244 -66.5t86 -166.5q0 -66 -29 -109t-63 -65q45 -25 80.5 -69 t35.5 -128q0 -117 -91 -195.5t-269 -78.5q-184 0 -268 79.5t-93 214.5z" />
<glyph unicode="&#xbf;" horiz-adv-x="1085" d="M385 655v320h385v-320h-385zM1014 127q12 -41 17 -78t5 -74q0 -94 -32.5 -170.5t-95 -132t-154.5 -85t-209 -29.5q-135 0 -230.5 35.5t-155 94t-86 132.5t-26.5 151q0 127 53.5 213t137.5 156l79 66q39 31 55.5 60.5t16.5 78.5v61h377v-98q0 -90 -36 -152.5t-122 -130.5 l-55 -43q-106 -82 -107 -196q0 -53 30 -86t77 -33q51 0 81 38t30 109q0 35 -7.5 68t-17.5 68z" />
<glyph unicode="&#xc0;" horiz-adv-x="1398" d="M758 1862l139 -297h-340l-254 297h455zM731 852l-33 135h-2q-6 -20 -15 -57t-19 -78l-82 -283h231zM416 0h-432l467 1393h499l463 -1393h-436l-70 233h-422z" />
<glyph unicode="&#xc1;" horiz-adv-x="1398" d="M1071 1862l-254 -297h-340l139 297h455zM731 852l-33 135h-2q-6 -20 -15 -57t-19 -78l-82 -283h231zM416 0h-432l467 1393h499l463 -1393h-436l-70 233h-422z" />
<glyph unicode="&#xc2;" horiz-adv-x="1398" d="M731 852l-33 135h-2q-6 -20 -15 -57t-19 -78l-82 -283h231zM416 0h-432l467 1393h499l463 -1393h-436l-70 233h-422zM621 1565h-324l240 297h307l254 -297h-332l-74 90z" />
<glyph unicode="&#xc3;" horiz-adv-x="1398" d="M289 1657q6 27 24.5 65.5t51 74.5t76.5 60.5t104 24.5q41 0 75.5 -10t69.5 -27q33 -14 61.5 -26.5t57.5 -12.5q35 0 56.5 24.5t33.5 55.5l234 -119q-16 -43 -39 -84t-55.5 -72.5t-74.5 -51t-100 -19.5q-45 0 -78.5 7t-70.5 24q-41 16 -69 31.5t-50 15.5 q-33 0 -51.5 -23.5t-28.5 -52.5zM731 852l-33 135h-2q-6 -20 -15 -57t-19 -78l-82 -283h231zM416 0h-432l467 1393h499l463 -1393h-436l-70 233h-422z" />
<glyph unicode="&#xc4;" horiz-adv-x="1398" d="M731 852l-33 135h-2q-6 -20 -15 -57t-19 -78l-82 -283h231zM416 0h-432l467 1393h499l463 -1393h-436l-70 233h-422zM1075 1569h-311v289h311v-289zM659 1569h-311v289h311v-289z" />
<glyph unicode="&#xc5;" horiz-adv-x="1398" d="M731 852l-33 135h-2q-6 -20 -15 -57t-19 -78l-82 -283h231zM416 0h-432l467 1393h499l463 -1393h-436l-70 233h-422zM635 1708q0 -35 20.5 -54.5t53.5 -19.5t53 19.5t20 54.5t-20.5 54.5t-52.5 19.5q-33 0 -53.5 -19.5t-20.5 -54.5zM438 1708q0 57 20.5 106.5t57.5 85 t86 56t109 20.5q57 0 106 -20.5t86 -56t57.5 -85t20.5 -106.5q0 -59 -20.5 -108.5t-57.5 -84t-86 -55t-106 -20.5q-59 0 -108.5 20.5t-86.5 55t-57.5 84t-20.5 108.5z" />
<glyph unicode="&#xc6;" horiz-adv-x="1986" d="M846 758v51t2 61q0 35 2 74h-2q-12 -29 -25 -55q-10 -25 -23.5 -52.5t-27.5 -54.5l-117 -231h191v207zM1276 1059v-187h553v-329h-553v-207h649v-336h-1079v223h-359l-118 -223h-443l772 1393h1190v-334h-612z" />
<glyph unicode="&#xc7;" horiz-adv-x="1386" d="M1364 352q-68 -154 -197 -253t-327 -119l-21 -21q66 -10 106 -52t40 -112q0 -98 -65.5 -146t-168.5 -48q-55 0 -96 9t-57 19l14 127q12 -4 43 -10t55 -6q29 0 48.5 10t19.5 35t-18.5 33t-45.5 8q-25 0 -56.5 -6t-41.5 -13l-27 119l82 56q-141 14 -251.5 72.5 t-186.5 151.5t-116 218t-40 272q0 160 48.5 293t139.5 228.5t220 147.5t293 52q125 0 224 -32.5t173 -85t124 -120t77 -135.5l-363 -174q-27 102 -85 158.5t-156 56.5q-135 0 -202 -103t-67 -286q0 -180 66.5 -281.5t202.5 -101.5q92 0 148 46.5t85 127.5z" />
<glyph unicode="&#xc8;" horiz-adv-x="1290" d="M735 1862l139 -297h-339l-254 297h454zM537 1059v-187h596v-329h-596v-207h692v-336h-1106v1393h1069v-334h-655z" />
<glyph unicode="&#xc9;" horiz-adv-x="1290" d="M537 1059v-187h596v-329h-596v-207h692v-336h-1106v1393h1069v-334h-655zM1042 1862l-254 -297h-339l139 297h454z" />
<glyph unicode="&#xca;" horiz-adv-x="1290" d="M598 1565h-324l240 297h307l254 -297h-332l-73 90zM537 1059v-187h596v-329h-596v-207h692v-336h-1106v1393h1069v-334h-655z" />
<glyph unicode="&#xcb;" horiz-adv-x="1290" d="M1036 1569h-311v289h311v-289zM621 1569h-312v289h312v-289zM537 1059v-187h596v-329h-596v-207h692v-336h-1106v1393h1069v-334h-655z" />
<glyph unicode="&#xcc;" horiz-adv-x="663" d="M373 1862l139 -297h-340l-254 297h455zM541 0h-418v1393h418v-1393z" />
<glyph unicode="&#xcd;" horiz-adv-x="663" d="M748 1862l-254 -297h-340l139 297h455zM541 0h-418v1393h418v-1393z" />
<glyph unicode="&#xce;" horiz-adv-x="663" d="M262 1565h-323l239 297h307l254 -297h-331l-74 90zM541 0h-418v1393h418v-1393z" />
<glyph unicode="&#xcf;" horiz-adv-x="663" d="M694 1569h-311v289h311v-289zM279 1569h-312v289h312v-289zM541 0h-418v1393h418v-1393z" />
<glyph unicode="&#xd0;" horiz-adv-x="1554" d="M598 860h260v-328h-260v-206h90q94 0 169 9t122 56q41 41 62.5 120t21.5 183q0 100 -19.5 180t-72.5 127q-49 41 -117 52.5t-178 11.5h-78v-205zM180 0v532h-151v328h151v533h549q84 0 155.5 -2t134 -11.5t118 -29t108.5 -56.5q115 -82 180.5 -233.5t65.5 -360.5 q0 -176 -48 -318t-147 -237q-55 -55 -114.5 -83.5t-128 -43t-149.5 -16.5t-177 -2h-547z" />
<glyph unicode="&#xd1;" horiz-adv-x="1507" d="M780 989q49 -74 86 -130t60 -93q27 -45 45 -76h2q-2 51 -4 113q-2 53 -2 121.5v146.5v322h417v-1393h-403l-272 444q-35 53 -67 105.5t-56 93.5q-29 49 -54 92h-2q2 -53 5 -117q2 -53 4 -125.5t2 -156.5v-336h-418v1393h403zM354 1657q6 27 24.5 65.5t51.5 74.5t77 60.5 t103 24.5q41 0 76 -10t70 -27q33 -14 61.5 -26.5t56.5 -12.5q35 0 56.5 24.5t34.5 55.5l227 -119q-16 -43 -39 -84t-55.5 -72.5t-74.5 -51t-99 -19.5q-45 0 -79 7t-71 24q-41 16 -68.5 31.5t-50.5 15.5q-33 0 -51 -23.5t-29 -52.5z" />
<glyph unicode="&#xd2;" horiz-adv-x="1503" d="M481 696q0 -180 67.5 -281.5t203.5 -101.5q135 0 201.5 101.5t66.5 281.5q0 182 -69.5 285.5t-198.5 103.5q-135 0 -203 -103.5t-68 -285.5zM57 696q0 164 49.5 297t140.5 227.5t219 145.5t286 51t285.5 -51t219 -145.5t140.5 -227.5t49 -297t-46 -296t-135 -227 t-218 -146.5t-295 -51.5q-164 0 -293 51.5t-218 146.5t-136.5 227t-47.5 296zM825 1862l140 -297h-340l-254 297h454z" />
<glyph unicode="&#xd3;" horiz-adv-x="1503" d="M481 696q0 -180 67.5 -281.5t203.5 -101.5q135 0 201.5 101.5t66.5 281.5q0 182 -69.5 285.5t-198.5 103.5q-135 0 -203 -103.5t-68 -285.5zM57 696q0 164 49.5 297t140.5 227.5t219 145.5t286 51t285.5 -51t219 -145.5t140.5 -227.5t49 -297t-46 -296t-135 -227 t-218 -146.5t-295 -51.5q-164 0 -293 51.5t-218 146.5t-136.5 227t-47.5 296zM1122 1862l-254 -297h-340l140 297h454z" />
<glyph unicode="&#xd4;" horiz-adv-x="1503" d="M481 696q0 -180 67.5 -281.5t203.5 -101.5q135 0 201.5 101.5t66.5 281.5q0 182 -69.5 285.5t-198.5 103.5q-135 0 -203 -103.5t-68 -285.5zM57 696q0 164 49.5 297t140.5 227.5t219 145.5t286 51t285.5 -51t219 -145.5t140.5 -227.5t49 -297t-46 -296t-135 -227 t-218 -146.5t-295 -51.5q-164 0 -293 51.5t-218 146.5t-136.5 227t-47.5 296zM682 1565h-324l240 297h307l254 -297h-332l-73 90z" />
<glyph unicode="&#xd5;" horiz-adv-x="1503" d="M481 696q0 -180 67.5 -281.5t203.5 -101.5q135 0 201.5 101.5t66.5 281.5q0 182 -69.5 285.5t-198.5 103.5q-135 0 -203 -103.5t-68 -285.5zM57 696q0 164 49.5 297t140.5 227.5t219 145.5t286 51t285.5 -51t219 -145.5t140.5 -227.5t49 -297t-46 -296t-135 -227 t-218 -146.5t-295 -51.5q-164 0 -293 51.5t-218 146.5t-136.5 227t-47.5 296zM319 1657q6 27 24.5 65.5t51.5 74.5t77 60.5t103 24.5q41 0 76 -10t70 -27q33 -14 61.5 -26.5t57.5 -12.5q35 0 56.5 24.5t33.5 55.5l233 -119q-16 -43 -38.5 -84t-55.5 -72.5t-75 -51t-99 -19.5 q-45 0 -79 7t-71 24q-41 16 -68.5 31.5t-49.5 15.5q-33 0 -51.5 -23.5t-28.5 -52.5z" />
<glyph unicode="&#xd6;" horiz-adv-x="1503" d="M481 696q0 -180 67.5 -281.5t203.5 -101.5q135 0 201.5 101.5t66.5 281.5q0 182 -69.5 285.5t-198.5 103.5q-135 0 -203 -103.5t-68 -285.5zM57 696q0 164 49.5 297t140.5 227.5t219 145.5t286 51t285.5 -51t219 -145.5t140.5 -227.5t49 -297t-46 -296t-135 -227 t-218 -146.5t-295 -51.5q-164 0 -293 51.5t-218 146.5t-136.5 227t-47.5 296zM1120 1569h-311v289h311v-289zM705 1569h-312v289h312v-289z" />
<glyph unicode="&#xd7;" horiz-adv-x="1376" d="M428 598l-369 369l265 260l364 -365l365 365l258 -260l-363 -363l369 -368l-264 -261l-365 365l-364 -365l-258 261z" />
<glyph unicode="&#xd8;" horiz-adv-x="1525" d="M756 313q135 0 201.5 101.5t66.5 281.5v13l-346 -385q18 -6 36.5 -8.5t41.5 -2.5zM485 672l357 397q-43 16 -86 16q-135 0 -203 -103t-68 -286v-24zM61 696q0 164 49.5 297t140.5 227.5t219 145.5t286 51q94 0 177 -19.5t154 -54.5l179 199l276 -256l-182 -203 q43 -82 66.5 -179t23.5 -208q0 -164 -46 -296t-135 -227t-218 -146.5t-295 -51.5q-94 0 -176 17.5t-152 50.5l-135 -152l-283 250l142 158q-91 168 -91 397z" />
<glyph unicode="&#xd9;" horiz-adv-x="1474" d="M805 1862l139 -297h-340l-254 297h455zM737 -27q-80 0 -164 11.5t-158.5 37t-135 66.5t-95.5 98q-20 35 -34.5 72t-23.5 82t-13 100.5t-4 128.5v824h417v-832q0 -72 10.5 -119t36.5 -77q49 -57 164 -58q115 0 164 58q27 31 37 77.5t10 118.5v832h418v-824q0 -74 -4 -129 t-13.5 -100t-23.5 -82t-35 -72q-35 -57 -95 -98t-135 -66.5t-159 -37t-164 -11.5z" />
<glyph unicode="&#xda;" horiz-adv-x="1474" d="M1143 1862l-254 -297h-340l139 297h455zM737 -27q-80 0 -164 11.5t-158.5 37t-135 66.5t-95.5 98q-20 35 -34.5 72t-23.5 82t-13 100.5t-4 128.5v824h417v-832q0 -72 10.5 -119t36.5 -77q49 -57 164 -58q115 0 164 58q27 31 37 77.5t10 118.5v832h418v-824q0 -74 -4 -129 t-13.5 -100t-23.5 -82t-35 -72q-35 -57 -95 -98t-135 -66.5t-159 -37t-164 -11.5z" />
<glyph unicode="&#xdb;" horiz-adv-x="1474" d="M668 1565h-324l240 297h307l254 -297h-332l-74 90zM737 -27q-80 0 -164 11.5t-158.5 37t-135 66.5t-95.5 98q-20 35 -34.5 72t-23.5 82t-13 100.5t-4 128.5v824h417v-832q0 -72 10.5 -119t36.5 -77q49 -57 164 -58q115 0 164 58q27 31 37 77.5t10 118.5v832h418v-824 q0 -74 -4 -129t-13.5 -100t-23.5 -82t-35 -72q-35 -57 -95 -98t-135 -66.5t-159 -37t-164 -11.5z" />
<glyph unicode="&#xdc;" horiz-adv-x="1474" d="M1104 1569h-311v289h311v-289zM688 1569h-311v289h311v-289zM737 -27q-80 0 -164 11.5t-158.5 37t-135 66.5t-95.5 98q-20 35 -34.5 72t-23.5 82t-13 100.5t-4 128.5v824h417v-832q0 -72 10.5 -119t36.5 -77q49 -57 164 -58q115 0 164 58q27 31 37 77.5t10 118.5v832h418 v-824q0 -74 -4 -129t-13.5 -100t-23.5 -82t-35 -72q-35 -57 -95 -98t-135 -66.5t-159 -37t-164 -11.5z" />
<glyph unicode="&#xdd;" horiz-adv-x="1304" d="M858 0h-418v514l-458 879h448l232 -478l237 478h442l-483 -875v-518zM1090 1862l-254 -297h-361l139 297h476z" />
<glyph unicode="&#xde;" horiz-adv-x="1374" d="M123 1395h418v-158h192q119 0 198 -11.5t136 -33.5q121 -47 193.5 -153.5t72.5 -262.5q0 -135 -47 -223t-147 -150q-86 -51 -186.5 -64t-233.5 -13h-178v-326h-418v1395zM541 643h209q80 0 118 27q53 33 54 112q0 80 -54 113q-39 27 -118 27h-209v-279z" />
<glyph unicode="&#xdf;" horiz-adv-x="1169" d="M553 891q63 0 97 30.5t34 100.5q0 113 -92 113q-53 0 -74 -37q-12 -20 -16 -53t-4 -78v-967h-402v961q0 66 6.5 121t22.5 96q45 121 169 180t298 59q229 0 350 -84t121 -243q0 -100 -42 -163t-91 -91q37 -16 70.5 -44t59 -73t41 -109.5t15.5 -152.5q0 -129 -25.5 -217 t-80 -143.5t-138.5 -80t-200 -24.5q-33 0 -58.5 1t-60.5 5v272h10q49 0 81 13.5t50.5 38t25.5 57.5t7 74q0 84 -32.5 134t-131.5 50h-10v254z" />
<glyph unicode="&#xe0;" horiz-adv-x="1138" d="M653 418q-10 -6 -42.5 -13.5t-61.5 -15.5q-33 -10 -55.5 -18.5t-36.5 -20.5q-25 -23 -25 -57q0 -39 25.5 -61.5t74.5 -22.5q53 0 87 28.5t34 92.5v88zM82 639q0 92 37 159.5t101.5 111.5t156.5 64.5t203 20.5q102 0 185 -14t141.5 -50t90 -95.5t31.5 -147.5v-412 q0 -47 8 -64t35 -17h14v-203q-35 -6 -75.5 -10.5t-112.5 -4.5q-90 0 -147.5 20.5t-75.5 68.5h-2q-10 -12 -29.5 -29t-51.5 -30t-77 -22.5t-108 -9.5q-162 0 -256.5 78t-94.5 226q0 78 29 132t82 91q47 35 111.5 55.5t144.5 34.5l188 31q47 8 47 41v12q0 41 -29.5 58.5 t-78.5 17.5q-57 0 -87 -28t-30 -71v-18zM668 1393l139 -297h-340l-254 297h455z" />
<glyph unicode="&#xe1;" horiz-adv-x="1138" d="M653 418q-10 -6 -42.5 -13.5t-61.5 -15.5q-33 -10 -55.5 -18.5t-36.5 -20.5q-25 -23 -25 -57q0 -39 25.5 -61.5t74.5 -22.5q53 0 87 28.5t34 92.5v88zM82 639q0 92 37 159.5t101.5 111.5t156.5 64.5t203 20.5q102 0 185 -14t141.5 -50t90 -95.5t31.5 -147.5v-412 q0 -47 8 -64t35 -17h14v-203q-35 -6 -75.5 -10.5t-112.5 -4.5q-90 0 -147.5 20.5t-75.5 68.5h-2q-10 -12 -29.5 -29t-51.5 -30t-77 -22.5t-108 -9.5q-162 0 -256.5 78t-94.5 226q0 78 29 132t82 91q47 35 111.5 55.5t144.5 34.5l188 31q47 8 47 41v12q0 41 -29.5 58.5 t-78.5 17.5q-57 0 -87 -28t-30 -71v-18zM965 1393l-254 -297h-340l139 297h455z" />
<glyph unicode="&#xe2;" horiz-adv-x="1138" d="M653 418q-10 -6 -42.5 -13.5t-61.5 -15.5q-33 -10 -55.5 -18.5t-36.5 -20.5q-25 -23 -25 -57q0 -39 25.5 -61.5t74.5 -22.5q53 0 87 28.5t34 92.5v88zM82 639q0 92 37 159.5t101.5 111.5t156.5 64.5t203 20.5q102 0 185 -14t141.5 -50t90 -95.5t31.5 -147.5v-412 q0 -47 8 -64t35 -17h14v-203q-35 -6 -75.5 -10.5t-112.5 -4.5q-90 0 -147.5 20.5t-75.5 68.5h-2q-10 -12 -29.5 -29t-51.5 -30t-77 -22.5t-108 -9.5q-162 0 -256.5 78t-94.5 226q0 78 29 132t82 91q47 35 111.5 55.5t144.5 34.5l188 31q47 8 47 41v12q0 41 -29.5 58.5 t-78.5 17.5q-57 0 -87 -28t-30 -71v-18zM508 1096h-324l240 297h307l254 -297h-332l-73 90z" />
<glyph unicode="&#xe3;" horiz-adv-x="1138" d="M653 418q-10 -6 -42.5 -13.5t-61.5 -15.5q-33 -10 -55.5 -18.5t-36.5 -20.5q-25 -23 -25 -57q0 -39 25.5 -61.5t74.5 -22.5q53 0 87 28.5t34 92.5v88zM82 639q0 92 37 159.5t101.5 111.5t156.5 64.5t203 20.5q102 0 185 -14t141.5 -50t90 -95.5t31.5 -147.5v-412 q0 -47 8 -64t35 -17h14v-203q-35 -6 -75.5 -10.5t-112.5 -4.5q-90 0 -147.5 20.5t-75.5 68.5h-2q-10 -12 -29.5 -29t-51.5 -30t-77 -22.5t-108 -9.5q-162 0 -256.5 78t-94.5 226q0 78 29 132t82 91q47 35 111.5 55.5t144.5 34.5l188 31q47 8 47 41v12q0 41 -29.5 58.5 t-78.5 17.5q-57 0 -87 -28t-30 -71v-18zM166 1188q6 27 24.5 65.5t51 74.5t76.5 60.5t104 24.5q41 0 75.5 -10t69.5 -27q33 -14 61.5 -26.5t57.5 -12.5q35 0 56.5 24.5t33.5 55.5l234 -119q-16 -43 -39 -83.5t-55.5 -72.5t-74.5 -51.5t-100 -19.5q-45 0 -78.5 7t-70.5 24 q-41 16 -68.5 31.5t-50.5 15.5q-33 0 -51.5 -23.5t-28.5 -52.5z" />
<glyph unicode="&#xe4;" horiz-adv-x="1138" d="M653 418q-10 -6 -42.5 -13.5t-61.5 -15.5q-33 -10 -55.5 -18.5t-36.5 -20.5q-25 -23 -25 -57q0 -39 25.5 -61.5t74.5 -22.5q53 0 87 28.5t34 92.5v88zM82 639q0 92 37 159.5t101.5 111.5t156.5 64.5t203 20.5q102 0 185 -14t141.5 -50t90 -95.5t31.5 -147.5v-412 q0 -47 8 -64t35 -17h14v-203q-35 -6 -75.5 -10.5t-112.5 -4.5q-90 0 -147.5 20.5t-75.5 68.5h-2q-10 -12 -29.5 -29t-51.5 -30t-77 -22.5t-108 -9.5q-162 0 -256.5 78t-94.5 226q0 78 29 132t82 91q47 35 111.5 55.5t144.5 34.5l188 31q47 8 47 41v12q0 41 -29.5 58.5 t-78.5 17.5q-57 0 -87 -28t-30 -71v-18zM942 1104h-311v280h311v-280zM526 1104h-311v280h311v-280z" />
<glyph unicode="&#xe5;" horiz-adv-x="1138" d="M653 418q-10 -6 -42.5 -13.5t-61.5 -15.5q-33 -10 -55.5 -18.5t-36.5 -20.5q-25 -23 -25 -57q0 -39 25.5 -61.5t74.5 -22.5q53 0 87 28.5t34 92.5v88zM82 639q0 92 37 159.5t101.5 111.5t156.5 64.5t203 20.5q102 0 185 -14t141.5 -50t90 -95.5t31.5 -147.5v-412 q0 -47 8 -64t35 -17h14v-203q-35 -6 -75.5 -10.5t-112.5 -4.5q-90 0 -147.5 20.5t-75.5 68.5h-2q-10 -12 -29.5 -29t-51.5 -30t-77 -22.5t-108 -9.5q-162 0 -256.5 78t-94.5 226q0 78 29 132t82 91q47 35 111.5 55.5t144.5 34.5l188 31q47 8 47 41v12q0 41 -29.5 58.5 t-78.5 17.5q-57 0 -87 -28t-30 -71v-18zM510 1286q0 -31 19.5 -49t48.5 -18t48 18t19 49t-19.5 49.5t-47.5 18.5q-29 0 -48.5 -18.5t-19.5 -49.5zM332 1286q0 51 19.5 96t52 79t77.5 52.5t99 18.5q51 0 97 -18.5t78.5 -52.5t52 -79t19.5 -96q0 -53 -19.5 -97t-52 -78 t-78.5 -52.5t-97 -18.5q-53 0 -98.5 18.5t-78 52.5t-52 78t-19.5 97z" />
<glyph unicode="&#xe6;" horiz-adv-x="1757" d="M1192 745q-61 0 -98 -35.5t-41 -95.5h270q-4 59 -37 95t-94 36zM653 418q-10 -6 -42.5 -13.5t-61.5 -15.5q-33 -10 -55.5 -18.5t-36.5 -20.5q-25 -23 -25 -57q0 -39 25.5 -61.5t74.5 -22.5q53 0 87 28.5t34 92.5v88zM82 639q0 92 37 159.5t101.5 111.5t156.5 64.5 t203 20.5q104 0 186 -16t141 -53q59 35 131 54t156 19q135 0 233.5 -40.5t161 -113.5t93 -171.5t30.5 -212.5v-29.5t-2 -30.5h-655q2 -31 17 -53t38 -35.5t49.5 -19.5t54.5 -6q61 0 103.5 25.5t64.5 66.5l326 -166q-23 -33 -62.5 -74t-103 -77.5t-149.5 -61.5t-197 -25 q-231 0 -373 111q-27 -16 -63.5 -35.5t-85.5 -36t-111.5 -28t-138.5 -11.5q-184 0 -276.5 78t-92.5 226q0 78 29 132t82 91q47 35 111.5 55.5t144.5 34.5l188 31q47 8 47 41v12q0 41 -29.5 58.5t-78.5 17.5q-57 0 -87 -28t-30 -71v-18z" />
<glyph unicode="&#xe7;" horiz-adv-x="1114" d="M453 -12q-190 33 -298 159.5t-108 333.5q0 119 37 215.5t107.5 164t172 104t230.5 36.5q113 0 199 -29.5t145 -80.5t94 -116.5t45 -135.5l-372 -68q-6 57 -30 100.5t-81 43.5q-37 0 -58.5 -19.5t-34 -51.5t-16.5 -72t-4 -80q0 -41 4 -82t16.5 -73t35 -51.5t57.5 -19.5 q47 0 71.5 34t34.5 81l383 -68q-12 -53 -41.5 -109.5t-84 -104.5t-133.5 -81.5t-189 -40.5l-14 -18q66 -10 105.5 -52t39.5 -112q0 -98 -65.5 -146t-168.5 -48q-55 0 -96 9t-57 19l14 127q12 -4 43 -10t56 -6q29 0 48 10t19 35t-18.5 33t-44.5 8q-25 0 -56.5 -6t-42.5 -13 l-26 119z" />
<glyph unicode="&#xe8;" horiz-adv-x="1155" d="M590 756q-63 0 -97 -37t-38 -96h262q-2 59 -33 96t-94 37zM1108 213q-23 -33 -62.5 -74t-103 -77.5t-149.5 -61.5t-197 -25q-125 0 -226.5 35t-173 102.5t-110.5 165t-39 220.5q0 117 38 210t109.5 158.5t172 100t227.5 34.5q135 0 233.5 -40.5t161 -113.5t93 -171 t30.5 -213v-29.5t-2 -30.5h-653q2 -31 16 -53t36.5 -36.5t49.5 -20.5t55 -6q61 0 103.5 25.5t64.5 66.5zM657 1393l140 -297h-340l-254 297h454z" />
<glyph unicode="&#xe9;" horiz-adv-x="1155" d="M590 756q-63 0 -97 -37t-38 -96h262q-2 59 -33 96t-94 37zM1108 213q-23 -33 -62.5 -74t-103 -77.5t-149.5 -61.5t-197 -25q-125 0 -226.5 35t-173 102.5t-110.5 165t-39 220.5q0 117 38 210t109.5 158.5t172 100t227.5 34.5q135 0 233.5 -40.5t161 -113.5t93 -171 t30.5 -213v-29.5t-2 -30.5h-653q2 -31 16 -53t36.5 -36.5t49.5 -20.5t55 -6q61 0 103.5 25.5t64.5 66.5zM979 1393l-254 -297h-340l139 297h455z" />
<glyph unicode="&#xea;" horiz-adv-x="1155" d="M590 756q-63 0 -97 -37t-38 -96h262q-2 59 -33 96t-94 37zM1108 213q-23 -33 -62.5 -74t-103 -77.5t-149.5 -61.5t-197 -25q-125 0 -226.5 35t-173 102.5t-110.5 165t-39 220.5q0 117 38 210t109.5 158.5t172 100t227.5 34.5q135 0 233.5 -40.5t161 -113.5t93 -171 t30.5 -213v-29.5t-2 -30.5h-653q2 -31 16 -53t36.5 -36.5t49.5 -20.5t55 -6q61 0 103.5 25.5t64.5 66.5zM528 1096h-323l239 297h308l254 -297h-332l-74 90z" />
<glyph unicode="&#xeb;" horiz-adv-x="1155" d="M590 756q-63 0 -97 -37t-38 -96h262q-2 59 -33 96t-94 37zM1108 213q-23 -33 -62.5 -74t-103 -77.5t-149.5 -61.5t-197 -25q-125 0 -226.5 35t-173 102.5t-110.5 165t-39 220.5q0 117 38 210t109.5 158.5t172 100t227.5 34.5q135 0 233.5 -40.5t161 -113.5t93 -171 t30.5 -213v-29.5t-2 -30.5h-653q2 -31 16 -53t36.5 -36.5t49.5 -20.5t55 -6q61 0 103.5 25.5t64.5 66.5zM956 1104h-311v280h311v-280zM541 1104h-312v280h312v-280z" />
<glyph unicode="&#xec;" horiz-adv-x="593" d="M358 1393l140 -297h-340l-254 297h454zM498 0h-402v975h402v-975z" />
<glyph unicode="&#xed;" horiz-adv-x="593" d="M707 1393l-254 -297h-340l139 297h455zM498 0h-402v975h402v-975z" />
<glyph unicode="&#xee;" horiz-adv-x="593" d="M219 1096h-323l239 297h307l254 -297h-331l-74 90zM498 0h-402v975h402v-975z" />
<glyph unicode="&#xef;" horiz-adv-x="593" d="M662 1104h-312v280h312v-280zM246 1104h-312v280h312v-280zM498 0h-402v975h402v-975z" />
<glyph unicode="&#xf0;" horiz-adv-x="1210" d="M483 489q0 -41 5.5 -80.5t17.5 -71.5t34.5 -51.5t57.5 -19.5t57.5 19.5t36 51.5t18.5 72t5 80q0 41 -5 81t-17.5 72t-35 51.5t-59.5 19.5q-35 0 -57.5 -19.5t-34.5 -51.5t-17.5 -72t-5.5 -81zM956 1186q92 -147 146.5 -313t54.5 -345q0 -111 -28.5 -210t-94 -175.5 t-172 -122t-262.5 -45.5q-125 0 -226.5 33t-174 97.5t-112.5 159.5t-40 218t40 219.5t112.5 163t174 100t226.5 33.5h41q-20 43 -43 78l-264 -78l-74 236l158 47q-18 16 -37 30.5t-37 28.5l348 152q27 -23 52.5 -47.5t50.5 -50.5l245 73l72 -235z" />
<glyph unicode="&#xf1;" horiz-adv-x="1204" d="M223 1188q6 27 24.5 65.5t51.5 74.5t77 60.5t103 24.5q41 0 76 -10t70 -27q33 -14 61.5 -26.5t56.5 -12.5q35 0 56.5 24.5t34.5 55.5l233 -119q-16 -43 -38.5 -83.5t-55.5 -72.5t-75 -51.5t-99 -19.5q-45 0 -79 7t-71 24q-41 16 -68.5 31.5t-50.5 15.5q-33 0 -51 -23.5 t-28 -52.5zM494 881q39 53 113.5 85.5t168.5 32.5q168 0 254 -94q23 -27 39 -54.5t26.5 -67.5t15.5 -96t5 -136v-551h-401v518q0 72 -18.5 116t-84.5 44q-61 0 -87.5 -41t-26.5 -115v-522h-402v975h398v-94z" />
<glyph unicode="&#xf2;" horiz-adv-x="1198" d="M688 1393l139 -297h-340l-254 297h455zM483 489q0 -41 5.5 -80.5t17.5 -71.5t34.5 -51.5t57.5 -19.5t57.5 19.5t36 51.5t18.5 72t5 80q0 41 -5 81t-17.5 72t-35 51.5t-59.5 19.5q-35 0 -57.5 -19.5t-34.5 -51.5t-17.5 -72t-5.5 -81zM47 485q0 119 38 214.5t109.5 163 t174 103t229.5 35.5t229.5 -35.5t174 -103t110.5 -163t39 -214.5q0 -242 -146.5 -376t-406.5 -134t-405.5 134t-145.5 376z" />
<glyph unicode="&#xf3;" horiz-adv-x="1198" d="M987 1393l-254 -297h-340l139 297h455zM483 489q0 -41 5.5 -80.5t17.5 -71.5t34.5 -51.5t57.5 -19.5t57.5 19.5t36 51.5t18.5 72t5 80q0 41 -5 81t-17.5 72t-35 51.5t-59.5 19.5q-35 0 -57.5 -19.5t-34.5 -51.5t-17.5 -72t-5.5 -81zM47 485q0 119 38 214.5t109.5 163 t174 103t229.5 35.5t229.5 -35.5t174 -103t110.5 -163t39 -214.5q0 -242 -146.5 -376t-406.5 -134t-405.5 134t-145.5 376z" />
<glyph unicode="&#xf4;" horiz-adv-x="1198" d="M528 1096h-323l239 297h308l254 -297h-332l-74 90zM483 489q0 -41 5.5 -80.5t17.5 -71.5t34.5 -51.5t57.5 -19.5t57.5 19.5t36 51.5t18.5 72t5 80q0 41 -5 81t-17.5 72t-35 51.5t-59.5 19.5q-35 0 -57.5 -19.5t-34.5 -51.5t-17.5 -72t-5.5 -81zM47 485q0 119 38 214.5 t109.5 163t174 103t229.5 35.5t229.5 -35.5t174 -103t110.5 -163t39 -214.5q0 -242 -146.5 -376t-406.5 -134t-405.5 134t-145.5 376z" />
<glyph unicode="&#xf5;" horiz-adv-x="1198" d="M182 1188q6 27 24.5 65.5t51.5 74.5t77 60.5t103 24.5q41 0 76 -10t70 -27q33 -14 61.5 -26.5t56.5 -12.5q35 0 56.5 24.5t34.5 55.5l233 -119q-16 -43 -38.5 -83.5t-55.5 -72.5t-75 -51.5t-99 -19.5q-45 0 -79 7t-71 24q-41 16 -68.5 31.5t-50.5 15.5q-33 0 -51 -23.5 t-28 -52.5zM483 489q0 -41 5.5 -80.5t17.5 -71.5t34.5 -51.5t57.5 -19.5t57.5 19.5t36 51.5t18.5 72t5 80q0 41 -5 81t-17.5 72t-35 51.5t-59.5 19.5q-35 0 -57.5 -19.5t-34.5 -51.5t-17.5 -72t-5.5 -81zM47 485q0 119 38 214.5t109.5 163t174 103t229.5 35.5t229.5 -35.5 t174 -103t110.5 -163t39 -214.5q0 -242 -146.5 -376t-406.5 -134t-405.5 134t-145.5 376z" />
<glyph unicode="&#xf6;" horiz-adv-x="1198" d="M958 1104h-311v280h311v-280zM543 1104h-312v280h312v-280zM483 489q0 -41 5.5 -80.5t17.5 -71.5t34.5 -51.5t57.5 -19.5t57.5 19.5t36 51.5t18.5 72t5 80q0 41 -5 81t-17.5 72t-35 51.5t-59.5 19.5q-35 0 -57.5 -19.5t-34.5 -51.5t-17.5 -72t-5.5 -81zM47 485 q0 119 38 214.5t109.5 163t174 103t229.5 35.5t229.5 -35.5t174 -103t110.5 -163t39 -214.5q0 -242 -146.5 -376t-406.5 -134t-405.5 134t-145.5 376z" />
<glyph unicode="&#xf7;" horiz-adv-x="1486" d="M535 694v281h417v-281h-417zM535 0v281h417v-281h-417zM59 334v309h1368v-309h-1368z" />
<glyph unicode="&#xf8;" horiz-adv-x="1206" d="M485 489q0 -41 5.5 -80.5t17.5 -71.5t34.5 -51.5t57.5 -19.5t57.5 19.5t36 51.5t18.5 72t5 80q0 41 -5 81t-17.5 72t-35 51.5t-59.5 19.5q-35 0 -57.5 -19.5t-34.5 -51.5t-17.5 -72t-5.5 -81zM49 485q0 119 38 214.5t109.5 163t174 103t229.5 35.5q113 0 209 -30l115 133 l276 -234l-102 -133q27 -53 41 -116.5t14 -135.5q0 -242 -146.5 -376t-406.5 -134q-49 0 -95 5.5t-87 15.5l-113 -131l-276 233l86 113q-66 114 -66 274z" />
<glyph unicode="&#xf9;" horiz-adv-x="1202" d="M672 1393l139 -297h-340l-254 297h455zM709 94q-39 -53 -113 -86t-168 -33q-168 0 -254 95q-23 27 -39 54.5t-26.5 67t-15.5 96t-5 136.5v551h401v-518q0 -35 3.5 -65t14.5 -51.5t30.5 -32.5t52.5 -11q61 0 88 41t27 115v522h401v-975h-397v94z" />
<glyph unicode="&#xfa;" horiz-adv-x="1202" d="M971 1393l-254 -297h-340l139 297h455zM709 94q-39 -53 -113 -86t-168 -33q-168 0 -254 95q-23 27 -39 54.5t-26.5 67t-15.5 96t-5 136.5v551h401v-518q0 -35 3.5 -65t14.5 -51.5t30.5 -32.5t52.5 -11q61 0 88 41t27 115v522h401v-975h-397v94z" />
<glyph unicode="&#xfb;" horiz-adv-x="1202" d="M518 1096h-323l239 297h307l254 -297h-331l-74 90zM709 94q-39 -53 -113 -86t-168 -33q-168 0 -254 95q-23 27 -39 54.5t-26.5 67t-15.5 96t-5 136.5v551h401v-518q0 -35 3.5 -65t14.5 -51.5t30.5 -32.5t52.5 -11q61 0 88 41t27 115v522h401v-975h-397v94z" />
<glyph unicode="&#xfc;" horiz-adv-x="1202" d="M967 1104h-312v280h312v-280zM551 1104h-311v280h311v-280zM709 94q-39 -53 -113 -86t-168 -33q-168 0 -254 95q-23 27 -39 54.5t-26.5 67t-15.5 96t-5 136.5v551h401v-518q0 -35 3.5 -65t14.5 -51.5t30.5 -32.5t52.5 -11q61 0 88 41t27 115v522h401v-975h-397v94z" />
<glyph unicode="&#xfd;" horiz-adv-x="1095" d="M-4 975h416l94 -414q18 -86 29.5 -142.5t15.5 -84.5h2q4 29 14.5 85t28.5 140l90 416h418l-359 -1067q-27 -78 -52 -131t-62 -88q-43 -39 -122 -56.5t-233 -17.5q-74 0 -125 4t-83 8v297q12 -2 26 -2h49q115 0 142 33q16 20 16 53q0 37 -25 115zM940 1393l-254 -297h-360 l139 297h475z" />
<glyph unicode="&#xfe;" horiz-adv-x="1212" d="M494 489q0 -39 5 -77.5t18 -70.5t34.5 -51.5t56.5 -19.5t57.5 18.5t36 49.5t18.5 69.5t5 81.5t-5 82t-17.5 70t-35 49.5t-59.5 18.5q-35 0 -57.5 -19.5t-34.5 -51.5t-17 -71t-5 -78zM1163 485q0 -121 -30.5 -215t-86 -159.5t-134 -100.5t-173.5 -35q-86 0 -147.5 30 t-93.5 65v-439h-402v1762h402v-494q35 41 97 70.5t148 29.5q92 0 169 -34.5t132.5 -100t87 -161t31.5 -218.5z" />
<glyph unicode="&#xff;" horiz-adv-x="1095" d="M920 1104h-312v280h312v-280zM504 1104h-311v280h311v-280zM-4 975h416l94 -414q18 -86 29.5 -142.5t15.5 -84.5h2q4 29 14.5 85t28.5 140l90 416h418l-359 -1067q-27 -78 -52 -131t-62 -88q-43 -39 -122 -56.5t-233 -17.5q-74 0 -125 4t-83 8v297q12 -2 26 -2h49 q115 0 142 33q16 20 16 53q0 37 -25 115z" />
<glyph unicode="&#x132;" horiz-adv-x="1550" d="M721 322q29 -6 54.5 -8.5t55.5 -2.5q109 0 146 43q25 29 34 76t9 135v828h418v-957q0 -86 -12.5 -168t-51.5 -143q-33 -45 -80 -73.5t-101 -46t-112.5 -24t-113.5 -6.5q-76 0 -144.5 4.5t-101.5 8.5v334zM541 0h-418v1393h418v-1393z" />
<glyph unicode="&#x133;" horiz-adv-x="1230" d="M584 -98h18q43 0 71.5 9t45.5 38q14 29 14 92v934h402v-1026q0 -111 -27 -176q-18 -47 -53 -76t-82 -44t-106.5 -21.5t-125.5 -6.5q-57 0 -88.5 1t-68.5 3v273zM1135 1092h-402v301h402v-301zM498 1092h-402v301h402v-301zM498 0h-402v975h402v-975z" />
<glyph unicode="&#x152;" horiz-adv-x="1998" d="M850 1090h-39q-160 0 -250 -92.5t-90 -301.5q0 -211 95.5 -305t248.5 -94h35v793zM1264 1059v-187h577v-329h-577v-207h673v-336h-911q-53 -12 -112.5 -16t-114.5 -4q-168 0 -304.5 46t-233.5 135t-150.5 222t-53.5 309q0 168 52.5 301t148.5 226.5t233.5 143.5t309.5 50 q55 0 113.5 -4t111.5 -16h875v-334h-637z" />
<glyph unicode="&#x153;" horiz-adv-x="1835" d="M1270 754q-63 0 -97 -37t-38 -96h262q-2 59 -33 96t-94 37zM483 489q0 -41 5.5 -80.5t17.5 -71.5t34.5 -51.5t57.5 -19.5t57.5 19.5t36 51.5t18.5 72t5 80q0 41 -5 81t-17.5 72t-35 51.5t-59.5 19.5q-35 0 -57.5 -19.5t-34.5 -51.5t-17.5 -72t-5.5 -81zM1786 213 q-23 -33 -63 -74t-103.5 -77.5t-149.5 -61.5t-196 -25q-100 0 -184 26t-150 71q-68 -45 -153 -71t-189 -26q-260 0 -405.5 134.5t-145.5 375.5q0 119 38 214.5t109.5 163t174 103t229.5 35.5q100 0 185 -24.5t153 -71.5q66 45 150.5 69.5t185.5 24.5q135 0 233.5 -40.5 t161 -113.5t93 -171.5t30.5 -212.5v-29.5t-2 -30.5h-655q2 -31 17 -53t37.5 -35.5t49.5 -19.5t55 -6q61 0 103.5 25.5t64.5 66.5z" />
<glyph unicode="&#x178;" horiz-adv-x="1304" d="M1024 1569h-311v289h311v-289zM608 1569h-311v289h311v-289zM858 0h-418v514l-458 879h448l232 -478l237 478h442l-483 -875v-518z" />
<glyph unicode="&#x2c6;" horiz-adv-x="1024" d="M432 1096h-323l239 297h307l254 -297h-331l-74 90z" />
<glyph unicode="&#x2dc;" horiz-adv-x="1024" d="M96 1188q6 27 24.5 65.5t51.5 74.5t77 60.5t103 24.5q41 0 76 -10t70 -27q33 -14 61.5 -26.5t56.5 -12.5q35 0 56.5 24.5t34.5 55.5l233 -119q-16 -43 -38.5 -83.5t-55.5 -72.5t-75 -51.5t-99 -19.5q-45 0 -79 7t-71 24q-41 16 -68.5 31.5t-50.5 15.5q-33 0 -51 -23.5 t-28 -52.5z" />
<glyph unicode="&#x2000;" horiz-adv-x="988" />
<glyph unicode="&#x2001;" horiz-adv-x="1976" />
<glyph unicode="&#x2002;" horiz-adv-x="988" />
<glyph unicode="&#x2003;" horiz-adv-x="1976" />
<glyph unicode="&#x2004;" horiz-adv-x="658" />
<glyph unicode="&#x2005;" horiz-adv-x="494" />
<glyph unicode="&#x2006;" horiz-adv-x="329" />
<glyph unicode="&#x2007;" horiz-adv-x="329" />
<glyph unicode="&#x2008;" horiz-adv-x="247" />
<glyph unicode="&#x2009;" horiz-adv-x="395" />
<glyph unicode="&#x200a;" horiz-adv-x="109" />
<glyph unicode="&#x2010;" horiz-adv-x="763" d="M666 715v-334h-570v334h570z" />
<glyph unicode="&#x2011;" horiz-adv-x="763" d="M666 715v-334h-570v334h570z" />
<glyph unicode="&#x2012;" horiz-adv-x="763" d="M666 715v-334h-570v334h570z" />
<glyph unicode="&#x2013;" horiz-adv-x="1239" d="M1143 766v-326h-1045v326h1045z" />
<glyph unicode="&#x2014;" horiz-adv-x="1628" d="M1532 766v-326h-1434v326h1434z" />
<glyph unicode="&#x2018;" horiz-adv-x="604" d="M82 641v231q0 119 6 182.5t21 114.5q33 119 120.5 181.5t270.5 62.5h8v-229q-70 -4 -101.5 -31t-31.5 -102h133v-410h-426z" />
<glyph unicode="&#x2019;" horiz-adv-x="595" d="M524 1393v-232q0 -119 -6 -182.5t-20 -114.5q-16 -59 -46 -105t-76 -77t-111.5 -46t-158.5 -15h-8v229q70 4 101.5 30.5t31.5 102.5h-133v410h426z" />
<glyph unicode="&#x201a;" horiz-adv-x="612" d="M518 410v-232q0 -119 -6 -182.5t-20 -114.5q-16 -59 -46 -105t-76 -77t-111.5 -46t-158.5 -15h-8v229q70 4 101.5 30.5t31.5 102.5h-133v410h426z" />
<glyph unicode="&#x201c;" horiz-adv-x="1120" d="M598 641v231q0 119 6 182.5t21 114.5q33 119 121 181.5t270 62.5h8v-229q-70 -4 -101.5 -31t-31.5 -102h133v-410h-426zM82 641v231q0 119 6 182.5t21 114.5q33 119 120.5 181.5t270.5 62.5h8v-229q-70 -4 -101.5 -31t-31.5 -102h133v-410h-426z" />
<glyph unicode="&#x201d;" horiz-adv-x="1112" d="M524 1393v-232q0 -119 -6 -182.5t-20 -114.5q-16 -59 -46 -105t-76 -77t-111.5 -46t-158.5 -15h-8v229q70 4 101.5 30.5t31.5 102.5h-133v410h426zM1040 1393v-232q0 -119 -6 -182.5t-20 -114.5q-16 -59 -46 -105t-76 -77t-111.5 -46t-157.5 -15h-9v229q70 4 102 30.5 t32 102.5h-134v410h426z" />
<glyph unicode="&#x201e;" horiz-adv-x="1128" d="M518 410v-232q0 -119 -6 -182.5t-20 -114.5q-16 -59 -46 -105t-76 -77t-111.5 -46t-158.5 -15h-8v229q70 4 101.5 30.5t31.5 102.5h-133v410h426zM1034 410v-232q0 -119 -6 -182.5t-20 -114.5q-16 -59 -46 -105t-76 -77t-111.5 -46t-158.5 -15h-8v229q70 4 101.5 30.5 t31.5 102.5h-133v410h426z" />
<glyph unicode="&#x2022;" horiz-adv-x="1015" d="M109 614q0 84 31.5 157t85 127t126 86t156.5 32t156.5 -32t127 -86t85 -127t30.5 -157t-30.5 -156.5t-85 -125.5t-127 -85t-156.5 -32t-156.5 32t-126 85t-85 125.5t-31.5 156.5z" />
<glyph unicode="&#x2026;" horiz-adv-x="1984" d="M1464 0v410h426v-410h-426zM778 0v410h426v-410h-426zM92 0v410h426v-410h-426z" />
<glyph unicode="&#x202f;" horiz-adv-x="395" />
<glyph unicode="&#x2030;" horiz-adv-x="2795" d="M2304 418q0 -92 17.5 -142.5t62.5 -50.5q47 0 65.5 50.5t18.5 142.5t-18.5 142t-65.5 50q-45 0 -62.5 -50t-17.5 -142zM2740 403q0 -86 -21.5 -162.5t-66.5 -135t-111.5 -92t-158.5 -33.5q-94 0 -162 34.5t-111 93t-63.5 135t-20.5 160.5t17.5 165t59.5 145.5t112 103.5 t172 39q106 0 175 -42t109 -107.5t55 -145.5t15 -158zM1479 418q0 -92 17 -142.5t63 -50.5q47 0 65 50.5t18 142.5t-18 142t-65 50q-45 0 -62.5 -50t-17.5 -142zM1915 403q0 -86 -21.5 -162.5t-66.5 -135t-111.5 -92t-159.5 -33.5q-94 0 -161.5 34.5t-110.5 93t-63.5 135 t-20.5 160.5t17.5 165t59.5 145.5t111.5 103.5t172.5 39q106 0 174.5 -42t108.5 -107.5t55.5 -145.5t15.5 -158zM795 0h-344l733 1393h334zM334 973q0 -92 17.5 -142.5t62.5 -50.5q47 0 65.5 50.5t18.5 142.5t-18.5 142t-65.5 50q-45 0 -62.5 -50t-17.5 -142zM770 958 q0 -86 -21.5 -162.5t-66.5 -135t-111.5 -92t-158.5 -33.5q-94 0 -162 34.5t-111 93t-63.5 135t-20.5 160.5t17.5 165t59.5 145.5t111.5 103.5t172.5 39q106 0 174.5 -42t108.5 -107.5t55.5 -145.5t15.5 -158z" />
<glyph unicode="&#x2039;" horiz-adv-x="602" d="M66 715l438 321l2 -407l-113 -76l111 -90v-406l-438 295v363z" />
<glyph unicode="&#x203a;" horiz-adv-x="602" d="M537 352l-439 -295v406l111 90l-113 76l2 407l439 -321v-363z" />
<glyph unicode="&#x205f;" horiz-adv-x="494" />
<glyph unicode="&#x20ac;" horiz-adv-x="1329" d="M1262 379q-23 -84 -59 -158t-96 -128t-146.5 -86t-206.5 -32q-123 0 -212 37t-150.5 99.5t-99.5 145.5t-59 175h-176l76 221h72v84h-150l74 219h98q16 96 53 187.5t100.5 161t155 111.5t218.5 42q117 0 203.5 -34.5t146 -91t96.5 -130.5t55 -153l-344 -111 q-10 78 -45 130t-108 52q-63 0 -100 -51t-46 -113h277l-74 -219h-223v-84h201l-74 -221h-96q14 -49 45.5 -84t89.5 -35q66 0 98.5 41t46.5 103z" />
<glyph unicode="&#x2122;" horiz-adv-x="2185" d="M1755 461v438q-4 -20 -10 -43q-4 -18 -9 -43t-12 -47l-79 -305h-277l-82 299q-6 20 -12 42.5t-10 45.5q-6 23 -11 49v-436h-299v932h394l96 -318q16 -57 28.5 -100t20.5 -74q8 -37 14 -63l13 61q6 31 17 76t28 104l86 314h401v-932h-297zM100 1393h756v-285h-213v-647 h-330v647h-213v285z" />
<glyph unicode="&#x2190;" horiz-adv-x="1601" d="M1509 338h-901l359 -338h-451l-485 487l485 486h451l-357 -334h899v-301z" />
<glyph unicode="&#x2192;" horiz-adv-x="1601" d="M92 639h899l-356 334h450l486 -486l-486 -487h-450l358 338h-901v301z" />
<glyph unicode="&#x25fc;" horiz-adv-x="972" d="M0 973h973v-973h-973v973z" />
<glyph horiz-adv-x="1857" d="M1765 514h-1089l530 -514h-489l-697 696l697 697h489l-530 -514h1089v-365z" />
<glyph horiz-adv-x="1857" d="M1141 1393l696 -697l-696 -696h-490l531 514h-1090v365h1090l-531 514h490z" />
<glyph horiz-adv-x="1728" d="M973 641q-16 -4 -33 -8q-14 -4 -28.5 -7t-24.5 -8q-47 -12 -79 -27.5t-32 -55.5q0 -76 90 -76q47 0 77 22.5t30 73.5v86zM1294 526q0 -23 2 -40t19 -17q35 0 69.5 78t34.5 215q0 86 -25.5 174t-85 158.5t-156.5 115.5t-239 45q-147 0 -255.5 -49t-181.5 -129t-107.5 -183 t-34.5 -214q0 -139 46 -248.5t126 -184.5t187.5 -115t230.5 -40q137 0 271 41t261 156l98 -199q-143 -117 -309 -166t-346 -49q-195 0 -350.5 57.5t-263 162t-165 252t-57.5 329.5q0 147 52.5 291.5t158 258t265 184.5t374.5 71q199 0 341.5 -59.5t233.5 -156t134 -219 t43 -247.5q0 -258 -113.5 -400.5t-337.5 -142.5q-76 0 -128 14.5t-87 48.5q-27 -23 -79 -44t-144 -21q-70 0 -128 17.5t-101 51t-66.5 85t-23.5 120.5q0 63 23.5 108.5t64.5 76t96 50t121 30.5l170 28q41 8 41 33v12q0 39 -24.5 55.5t-67.5 16.5q-47 0 -75 -22.5t-28 -79.5 l-301 6q-2 86 33 144t95.5 93t138 50.5t163.5 15.5q88 0 160 -13.5t123 -45t77.5 -87t26.5 -137.5v-336z" />
<glyph horiz-adv-x="622" d="M111 1536h401v-1716h-401v1716z" />
<glyph horiz-adv-x="780" d="M49 805q45 12 68.5 28.5t35 39t13.5 53t2 71.5v228q0 113 36 176t102.5 94t159.5 37t208 6h49v-272h-14q-92 0 -118 -42t-26 -137v-131q0 -68 -5 -110.5t-17.5 -71.5t-35 -47t-56.5 -39v-4q35 -20 57 -38.5t34.5 -47.5t17.5 -72t5 -110v-148q0 -47 5 -80.5t20.5 -55 t43.5 -32t75 -10.5h14v-272h-49q-115 0 -208 6t-159.5 36.5t-102.5 94t-36 176.5v248q0 41 -2 71.5t-13.5 53t-35 39t-68.5 28.5v234z" />
<glyph horiz-adv-x="782" d="M733 571q-45 -12 -68.5 -28.5t-35 -39t-13.5 -53t-2 -71.5v-248q0 -113 -35.5 -176.5t-102 -94t-160 -36.5t-207.5 -6h-50v274h15q45 0 73.5 10.5t44 32t20.5 55t5 80.5v146q0 68 5 110.5t17.5 71.5t35 47.5t57.5 38.5v4q-35 20 -57.5 38.5t-35 47.5t-17.5 72t-5 110v131 q0 94 -25.5 136.5t-117.5 42.5h-15v272h50q115 0 208 -6t159.5 -37t102 -94.5t35.5 -175.5v-228q0 -41 2 -71.5t13.5 -53t35 -39t68.5 -28.5v-234z" />
<glyph horiz-adv-x="745" d="M692 -180h-581v1716h581v-272h-188v-1170h188v-274z" />
<glyph horiz-adv-x="745" d="M53 94h189v1170h-189v272h582v-1716h-582v274z" />
<glyph horiz-adv-x="630" d="M115 334h401v-658h-401v658zM115 1393h401v-658h-401v658z" />
<glyph horiz-adv-x="1892" d="M1765 514h-1089l530 -514h-489l-697 696l697 697h489l-530 -514h672v514h417v-879z" />
<glyph horiz-adv-x="1499" d="M541 858v281h417v-281h-417zM541 164v280h417v-280h-417zM66 498v309h1368v-309h-1368z" />
<glyph horiz-adv-x="1251" d="M627 -25q-121 0 -223.5 26t-178 77t-117.5 130t-42 187q0 59 17 109.5t45 90.5t63.5 70.5t72.5 53.5q-66 41 -115 118.5t-49 186.5q0 86 37 157.5t105.5 124t166 82t218.5 29.5t218 -29.5t165.5 -82t105.5 -124t37 -157.5q0 -109 -49 -186.5t-115 -118.5q37 -23 73 -53.5 t63.5 -70.5t45 -90t17.5 -110q0 -109 -43 -187.5t-118 -129.5t-178 -77t-222 -26zM627 846q76 0 111.5 37t35.5 90q0 49 -34.5 87t-112.5 38t-113 -38t-35 -87q0 -53 36 -90t112 -37zM627 303q74 0 119 37t45 102q0 59 -43 96t-121 37t-121 -36.5t-43 -96.5q0 -66 45 -102.5 t119 -36.5z" />
<glyph horiz-adv-x="1619" d="M1526 868v-325h-1434v325h1434z" />
<glyph horiz-adv-x="1230" d="M1137 868v-325h-1045v325h1045z" />
<glyph horiz-adv-x="1636" d="M100 702v336h1430v-336h-1430zM100 244v336h1430v-336h-1430z" />
<glyph horiz-adv-x="1200" d="M449 453q12 -68 44.5 -108t96.5 -40q70 0 104.5 53.5t34.5 128.5q0 74 -35 123t-106 49q-49 0 -84 -28.5t-47 -81.5l-377 49l88 795h917l-22 -336h-561l-15 -121q37 12 78 19.5t90 7.5q92 0 179.5 -28t154 -84t107.5 -143t41 -206q0 -117 -36 -214.5t-105.5 -167 t-172 -107.5t-235.5 -38q-121 0 -213 32t-158.5 87.5t-107.5 129t-60 159.5z" />
<glyph horiz-adv-x="1245" d="M625 606v176v55.5t2 49.5q0 23 2 45h-2q-12 -20 -25 -43q-10 -18 -24.5 -41t-28.5 -43l-57 -84q-12 -18 -27.5 -38.5t-28.5 -37.5q-16 -20 -30 -39v-2h49q23 0 45 1t41 1h84zM1194 606v-321h-188v-285h-381v285h-600v262l602 846h379v-787h188z" />
<glyph horiz-adv-x="1163" d="M82 817l438 322l2 -408l-112 -76l110 -90v-405l-438 295v362zM612 817l439 322l2 -408l-113 -76l111 -90v-405l-439 295v362z" />
<glyph horiz-adv-x="1163" d="M1081 455l-438 -295v405l111 90l-113 76l2 408l438 -322v-362zM551 455l-438 -295v405l110 90l-112 76l2 408l438 -322v-362z" />
<glyph horiz-adv-x="632" d="M82 817l438 322l2 -408l-112 -76l110 -90v-405l-438 295v362z" />
<glyph horiz-adv-x="632" d="M551 455l-438 -295v405l110 90l-112 76l2 408l438 -322v-362z" />
<glyph horiz-adv-x="761" d="M666 817v-334h-570v334h570z" />
<glyph horiz-adv-x="1296" d="M1196 334h-362v342h-775v340h1137v-682z" />
<glyph horiz-adv-x="1374" d="M426 659l-369 369l265 260l364 -364l365 364l258 -260l-363 -362l369 -369l-264 -260l-365 364l-364 -364l-259 260z" />
<glyph horiz-adv-x="1212" d="M451 428q16 -59 47.5 -95t85.5 -36q72 0 111.5 59.5t43.5 169.5q-47 -31 -107.5 -47t-121.5 -16q-86 0 -167 26.5t-142.5 83t-98 142.5t-36.5 203q0 94 30.5 184t95 160.5t164 113.5t236.5 43q268 0 410.5 -170t142.5 -528q0 -170 -34 -308.5t-104.5 -235.5t-178 -150.5 t-257.5 -53.5q-129 0 -218 39t-146 99.5t-86 132t-37 139.5zM455 922q0 -84 40 -122t93 -38q41 0 81 19.5t68 49.5v27q0 39 -7 80t-23.5 73.5t-45 54t-71.5 21.5q-66 0 -100.5 -42.5t-34.5 -122.5z" />
<glyph horiz-adv-x="911" d="M791 0h-410v782h-348v332h102q133 0 197 47q41 29 59.5 88.5t22.5 143.5h377v-1393z" />
<glyph horiz-adv-x="710" d="M698 1536q-119 -211 -176 -424t-57 -426q0 -205 56.5 -424t172.5 -442h-381q-135 215 -195.5 432t-60.5 434q0 221 62.5 426t195.5 424h383z" />
<glyph horiz-adv-x="710" d="M395 1536q133 -219 195.5 -424t62.5 -426q0 -217 -60.5 -434t-195.5 -432h-381q117 223 173.5 442t56.5 424q0 213 -57.5 426t-176.5 424h383z" />
<glyph horiz-adv-x="1351" d="M860 61h-366v420h-433v365h433v430h366v-430h430v-365h-430v-420z" />
<glyph horiz-adv-x="1413" d="M92 82v336h1229v-336h-1229zM897 473h-379v221h-426v336h426v277h379v-277h424v-336h-424v-221z" />
<glyph horiz-adv-x="1153" d="M1137 1102q-61 -76 -106.5 -142.5t-86.5 -138.5q-98 -176 -160.5 -387t-83.5 -434h-436q35 311 144.5 571t279.5 498h-266v-190h-377v514h1092v-291z" />
<glyph horiz-adv-x="1212" d="M762 965q-16 59 -48 96t-85 37q-72 0 -112 -60.5t-44 -171.5q47 31 107.5 47.5t121.5 16.5q86 0 167 -26.5t142.5 -82t98.5 -141.5t37 -203q0 -94 -31 -184t-95.5 -161t-163.5 -114t-236 -43q-268 0 -410.5 169t-142.5 530q0 170 33.5 307t104 234.5t178.5 149.5t257 52 q129 0 218 -39t146.5 -99t86 -132t36.5 -139zM758 475q0 84 -40 122t-93 38q-41 0 -81 -19.5t-69 -50.5v-26q0 -39 7 -80t23.5 -74t45.5 -54.5t72 -21.5q66 0 100.5 43t34.5 123z" />
<glyph horiz-adv-x="1239" d="M432 479q10 -82 49 -127t125 -45t119 41t33 96q0 66 -44 96.5t-143 30.5h-145v283h127q66 0 96 10q45 12 63.5 46t18.5 75q0 53 -34.5 83t-94.5 30q-70 0 -104.5 -41t-34.5 -117l-387 37q2 90 38 170t105.5 140.5t171 95t232.5 34.5q125 0 221 -29.5t160.5 -81t98.5 -121 t34 -151.5q0 -104 -46.5 -175t-113.5 -111q37 -20 72.5 -49t63.5 -70t45.5 -93.5t17.5 -117.5q0 -92 -34 -173t-102.5 -140.5t-175 -94.5t-250.5 -35q-145 0 -248.5 33t-173 92.5t-105.5 145.5t-42 190z" />
<glyph horiz-adv-x="1206" d="M90 817q-6 25 -13 57.5t-7 88.5q0 98 38.5 181t109.5 144.5t171 95t221 33.5q117 0 212.5 -31.5t164 -89t105 -138.5t36.5 -177q0 -113 -42 -209t-108.5 -177t-147 -145.5t-160.5 -113.5v-2q39 0 80 2q35 2 79.5 3t88.5 1h198v-340h-1040v270q41 29 99 74t122.5 97.5 t130.5 109.5t119 113q66 70 112 139t46 147q0 57 -29 91t-90 34q-66 0 -94.5 -46t-28.5 -105q0 -45 8 -78t18 -62z" />
<glyph horiz-adv-x="759" d="M664 817v-334h-570v334h570z" />
<glyph horiz-adv-x="1265" d="M778 688q0 66 -4 128.5t-19.5 111.5t-44 79.5t-77.5 30.5t-79 -30.5t-44 -79.5t-18.5 -111.5t-4.5 -128.5q0 -63 4.5 -122.5t19.5 -106.5t44 -76t78 -29t78.5 29t44 76t18.5 106.5t4 122.5zM1202 688q-4 -129 -30.5 -257t-91 -229.5t-172 -164t-275.5 -62.5 q-158 0 -266.5 64.5t-176 167t-97.5 229.5t-30 252t29 255t95.5 235.5t175 172t270.5 66.5t271.5 -66.5t176 -171t94 -234.5t27.5 -257z" />
<glyph horiz-adv-x="593" d="M498 1092h-402v301h402v-301zM498 0h-402v975h402v-975z" />
<glyph d="M758 698l-203 -352q18 -8 49 -8q51 0 82 29.5t47.5 79t20.5 113t4 128.5v10zM662 1040q-12 6 -25.5 10.5t-32.5 4.5q-53 0 -82.5 -32t-46 -83t-20.5 -117.5t-4 -134.5v-18zM1174 688q-4 -129 -31 -257t-91.5 -229.5t-172 -164t-275.5 -62.5q-158 0 -266.5 64.5t-176 167 t-97 229.5t-29.5 252t28.5 255t95 235.5t175 172t270.5 66.5t271.5 -66.5t176 -171t94.5 -234.5t28 -257z" />
</font>
</defs>
</svg>
