<?xml version="1.0" standalone="no"?>
<!DOCTYPE svg PUBLIC "-//W3C//DTD SVG 1.1//EN" "http://www.w3.org/Graphics/SVG/1.1/DTD/svg11.dtd" >
<svg xmlns="http://www.w3.org/2000/svg">
<metadata></metadata>
<defs>
<font id="theinhardtlight_italic" horiz-adv-x="1208" >
<font-face units-per-em="2048" ascent="1642" descent="-406" />
<missing-glyph horiz-adv-x="409" />
<glyph unicode="&#xfb01;" horiz-adv-x="1017" d="M1008 1192h-121l41 201h121zM754 0h-121l207 973h121zM659 874h-221l-186 -874h-121l186 874h-221l21 101h221l47 223q14 61 32.5 99t47.5 63q35 33 79 45t91 12q41 0 77 -7t58 -15l-25 -111q-23 10 -50 17.5t-60 7.5q-59 0 -88 -29t-43 -96l-45 -209h221z" />
<glyph unicode="&#xfb02;" horiz-adv-x="1028" d="M1049 1393l-297 -1393h-121l297 1393h121zM659 874h-221l-186 -874h-121l186 874h-221l21 101h221l47 223q14 61 32.5 99t47.5 63q35 33 79 45t91 12q41 0 77 -7t58 -15l-25 -111q-23 10 -50 17.5t-60 7.5q-59 0 -88 -29t-43 -96l-45 -209h221z" />
<glyph horiz-adv-x="0" />
<glyph horiz-adv-x="682" />
<glyph horiz-adv-x="0" />
<glyph horiz-adv-x="0" />
<glyph unicode="&#xd;" horiz-adv-x="1718" d="M1561 436h-1280l440 -436h-154l-485 487l485 488h154l-445 -436h1164v436h121v-539z" />
<glyph unicode=" "  horiz-adv-x="409" />
<glyph unicode="&#x09;" horiz-adv-x="409" />
<glyph unicode="&#xa0;" horiz-adv-x="409" />
<glyph unicode="!" horiz-adv-x="444" d="M225 233l-49 -233h-156l50 233h155zM221 360h-92l59 369l142 664h131l-142 -664z" />
<glyph unicode="&#x22;" horiz-adv-x="616" d="M518 836h-61l49 421l29 136h143l-29 -136zM264 836h-61l49 421l29 136h143l-29 -136z" />
<glyph unicode="#" horiz-adv-x="1396" d="M535 506h260l79 348h-262zM1356 854h-361l-80 -348h375l-10 -111h-397l-90 -395h-121l92 395h-262l-90 -395h-121l92 395h-309l10 111h330l80 348h-347l9 113h364l103 426h120l-102 -426h260l103 426h120l-102 -426h342z" />
<glyph unicode="$" horiz-adv-x="1175" d="M315 1051q0 -57 18.5 -96.5t52.5 -67t79 -48t100 -38.5l103 487q-10 2 -29 2q-141 0 -232.5 -60t-91.5 -179zM647 637l-115 -537h41q180 0 270.5 74t90.5 201q0 57 -20.5 97t-57.5 68.5t-87 50t-107 42.5zM158 422q20 -94 83.5 -178t178.5 -121l119 555l-66 24 q-51 18 -102.5 41t-92 60t-66.5 92t-26 139q0 80 33 147.5t92.5 114.5t144.5 74t189 27h22.5t22.5 -2l35 157h117l-37 -176q127 -31 208 -100.5t117 -147.5l-100 -75q-31 72 -93.5 130t-154.5 87l-108 -510l82 -29q59 -23 114.5 -49.5t98.5 -65t69.5 -94t26.5 -131.5 q0 -100 -39 -175t-105.5 -124t-156.5 -72.5t-193 -23.5q-16 0 -30.5 1t-28.5 1l-41 -193h-119l45 211q-137 37 -225 125t-123 211z" />
<glyph unicode="%" horiz-adv-x="1935" d="M248 866q0 -135 52 -190t124 -55q66 0 118 42t88 107.5t56.5 147t20.5 161.5q0 111 -43 175.5t-129 64.5q-74 0 -128.5 -43t-89 -109.5t-52 -146.5t-17.5 -154zM541 1417q41 0 89 -13t88 -49t66.5 -98.5t26.5 -158.5q0 -100 -25.5 -201.5t-76 -184.5t-124 -135.5 t-167.5 -52.5q-139 0 -208 90.5t-69 241.5q0 100 27 200.5t78 180.5t126 130t169 50zM449 0l929 1393h113l-930 -1393h-112zM1282 317q0 -135 52 -190t124 -55q66 0 118 42t88 107.5t56.5 147.5t20.5 161q0 111 -43 175.5t-129 64.5q-74 0 -128.5 -43t-89 -109.5t-52 -146.5 t-17.5 -154zM1575 868q41 0 89 -13t88 -49t66.5 -98.5t26.5 -158.5q0 -100 -25.5 -201.5t-75.5 -184.5t-124 -135.5t-168 -52.5q-139 0 -207.5 90.5t-68.5 241.5q0 100 26.5 200.5t77.5 180.5t126 130t169 50z" />
<glyph unicode="&#x26;" horiz-adv-x="1251" d="M522 1096q0 -72 20.5 -135.5t51.5 -131.5q135 59 220 140.5t85 181.5q0 84 -52 125t-120 41q-96 0 -150.5 -63.5t-54.5 -157.5zM449 86q109 0 195.5 49t156.5 127q-74 104 -145.5 214t-129.5 220q-68 -29 -130 -62.5t-111 -74.5t-78 -93t-29 -120q0 -117 71 -188.5 t200 -71.5zM999 0q-31 39 -65.5 82t-69.5 90q-86 -88 -188.5 -142.5t-245.5 -54.5q-84 0 -152.5 26t-120 72t-79 111.5t-27.5 145.5q0 90 32 157.5t89 119.5t138 95t177 84q-39 78 -60 146.5t-21 154.5q0 63 21.5 124t63 106t102 72.5t140.5 27.5q72 0 124 -21.5t87 -57 t52.5 -82t17.5 -95.5q0 -131 -89 -230.5t-290 -189.5q47 -90 109.5 -186t134.5 -199q47 72 87 154t68 158l99 -74q-37 -86 -83 -170t-104 -160q47 -66 98.5 -131t110.5 -133h-156z" />
<glyph unicode="'" horiz-adv-x="368" d="M266 836h-61l45 421l29 136h151l-29 -136z" />
<glyph unicode="(" horiz-adv-x="499" d="M172 -336q-113 322 -113 615q0 299 113 575t346 543l107 -11q-225 -276 -335 -545.5t-110 -570.5q0 -276 92 -598z" />
<glyph unicode=")" horiz-adv-x="497" d="M303 1397q55 -160 85 -312.5t30 -302.5q0 -299 -112.5 -575.5t-346.5 -542.5l-104 10q225 276 333.5 545.5t108.5 571.5q0 274 -92 598z" />
<glyph unicode="*" horiz-adv-x="894" d="M596 1081l309 37l6 -92l-307 -29l131 -288l-88 -41l-125 286l-231 -211l-62 74l238 205l-277 154l52 84l264 -160l61 301l97 -21z" />
<glyph unicode="+" horiz-adv-x="1345" d="M739 0h-116v551h-543v115h543v548h116v-548h541v-115h-541v-551z" />
<glyph unicode="," horiz-adv-x="407" d="M-57 -217q72 18 95 61t40 113l10 43h-86l51 233h160l-70 -311q-23 -98 -69.5 -146t-145.5 -65z" />
<glyph unicode="-" horiz-adv-x="839" d="M682 481h-567l26 129h568z" />
<glyph unicode="." horiz-adv-x="407" d="M213 233l-51 -233h-160l51 233h160z" />
<glyph unicode="/" horiz-adv-x="729" d="M823 1391l-733 -1391h-129l735 1391h127z" />
<glyph unicode="0" horiz-adv-x="1236" d="M240 516q0 -119 25.5 -201t68.5 -132t99 -72.5t120 -22.5q115 0 206 71.5t154.5 185.5t98.5 254t35 280q0 94 -19.5 172.5t-57.5 135t-96.5 87.5t-134.5 31q-127 0 -221 -76t-155.5 -192.5t-92 -256t-30.5 -264.5zM750 1417q66 0 140.5 -22.5t137 -81t104.5 -158.5 t42 -254q0 -109 -18.5 -219.5t-54.5 -213.5t-89.5 -192.5t-123 -156t-156.5 -105.5t-189 -39q-109 0 -189 38t-133 106.5t-79.5 166t-26.5 218.5q0 164 42 326.5t122.5 292.5t198.5 212t272 82z" />
<glyph unicode="1" horiz-adv-x="696" d="M274 0l228 1057q-68 -41 -149 -55.5t-160 -14.5h-35t-35 2l22 107h33q84 0 143.5 15t106.5 44q61 39 99 98.5t59 139.5h112l-297 -1393h-127z" />
<glyph unicode="2" horiz-adv-x="1122" d="M197 852q-12 55 -13 113q0 92 33 174t94.5 144.5t149.5 98t198 35.5q100 0 180.5 -28.5t136.5 -81t86 -123t30 -154.5q0 -123 -48.5 -223t-124 -183t-170 -155t-188.5 -137q-61 -43 -120.5 -81t-108.5 -66.5t-86 -49t-53 -29.5v-2q39 2 86 5q39 2 90 3t108 1h471 l-22 -113h-934l18 106q49 27 114.5 68t139.5 89t154 102.5t155 111.5q70 53 139.5 110.5t123 123t87 141.5t33.5 168q0 129 -79.5 207t-225.5 78q-88 0 -152.5 -29t-105.5 -76t-61.5 -110.5t-20.5 -133.5q0 -68 19 -135z" />
<glyph unicode="3" horiz-adv-x="1142" d="M195 1051q4 61 34.5 125.5t88 118t140.5 88t193 34.5q106 0 185 -28.5t130.5 -76.5t76 -108.5t24.5 -124.5q0 -61 -21.5 -120.5t-64.5 -106.5t-106.5 -79t-145.5 -40v-2q68 -14 119 -47t86 -78t52.5 -99t17.5 -112q0 -78 -31 -152.5t-92.5 -134t-153.5 -96.5t-215 -37 q-221 0 -338 105.5t-133 281.5l123 44q6 -68 28.5 -126.5t65.5 -101.5t104.5 -66.5t145.5 -23.5q72 0 137.5 17.5t116.5 56.5t80.5 97t29.5 142q0 104 -51 164t-131 88q-51 18 -110.5 25.5t-128.5 7.5h-113l22 105h150q104 0 167.5 11t110.5 34q70 35 108 92t38 141 q0 104 -77 170t-212 66q-82 0 -142.5 -26t-102.5 -67t-63.5 -93t-27.5 -105z" />
<glyph unicode="4" horiz-adv-x="1128" d="M688 483l96 461q16 82 38 162t32 125h-2q-29 -41 -90.5 -117t-140.5 -162l-443 -469h510zM705 0h-123l82 373h-670l18 86l881 942h113l-197 -918h254l-23 -110h-256z" />
<glyph unicode="5" horiz-adv-x="1120" d="M174 362q10 -59 37 -109t70 -88t99 -59.5t126 -21.5q74 0 142.5 27.5t121.5 81t85 134.5t32 187q0 82 -24.5 142.5t-66.5 99.5t-96.5 57t-113.5 18q-55 0 -108.5 -16t-99.5 -48t-81 -81t-53 -117l-121 39l196 785h756l-26 -113h-641l-74 -287q-12 -47 -22.5 -84 t-18.5 -65q-8 -33 -17 -60l5 -2q53 80 145 121t190 41q80 0 153 -26.5t129 -79t89 -132t33 -184.5q0 -135 -44 -236.5t-116 -171t-164 -104.5t-188 -35q-164 0 -288 83t-165 253z" />
<glyph unicode="6" horiz-adv-x="1171" d="M244 602q-2 -25 -3 -50.5t-1 -47.5q0 -188 81.5 -301t241.5 -113q88 0 156.5 35t115 92t71 129t24.5 146q0 63 -19.5 121.5t-59.5 103.5t-100.5 71.5t-142.5 26.5q-121 0 -217 -61.5t-147 -151.5zM1040 1030q-8 51 -30.5 100.5t-60.5 87t-90 61.5t-120 24 q-111 0 -214 -70t-173 -219q-27 -53 -48 -119t-38 -137h2q59 72 151.5 120t219.5 48q106 0 185 -36t131.5 -94.5t78 -136t25.5 -159.5q0 -96 -33 -189.5t-97.5 -168t-158.5 -121t-217 -46.5q-98 0 -178 33t-137.5 97.5t-89 159.5t-31.5 222q0 188 43 357.5t124 296.5 t197.5 201.5t263.5 74.5q160 0 265.5 -88t138.5 -229z" />
<glyph unicode="7" horiz-adv-x="1021" d="M1147 1294q-123 -139 -237.5 -289.5t-213 -313.5t-177.5 -336t-130 -355h-135q84 299 239.5 569.5t354.5 526.5q37 47 75 92t78 92v2q-35 -2 -97 -2h-126h-446l-66 -313h-121l91 426h933z" />
<glyph unicode="8" horiz-adv-x="1189" d="M362 1049q0 -51 17.5 -96.5t53.5 -78t92.5 -52t133.5 -19.5q164 0 246 76.5t82 197.5q0 102 -79 167t-218 65q-82 0 -143.5 -22.5t-102.5 -58.5t-61.5 -82t-20.5 -97zM195 375q0 -129 90 -208t252 -79q176 0 278.5 82t102.5 231q0 135 -93.5 212t-253.5 77 q-96 0 -167.5 -26.5t-117.5 -70.5t-68.5 -100.5t-22.5 -117.5zM440 762q-92 31 -148 101.5t-56 187.5q0 72 31.5 138t91 116.5t143.5 81t188 30.5q201 0 315.5 -89t114.5 -238q0 -141 -83 -233.5t-236 -121.5q129 -43 188.5 -130t59.5 -210q0 -90 -34 -166.5t-98.5 -133 t-161 -88.5t-220.5 -32q-231 0 -350 103.5t-119 273.5q0 74 23.5 140.5t70.5 121t116.5 92.5t163.5 56z" />
<glyph unicode="9" horiz-adv-x="1167" d="M975 793q2 25 3 50t1 48q0 188 -82 301t-242 113q-88 0 -156.5 -35t-114.5 -92.5t-70.5 -129t-24.5 -145.5q0 -63 19.5 -121.5t59.5 -103.5t100 -71.5t142 -26.5q121 0 217.5 61.5t147.5 151.5zM178 362q8 -51 30.5 -100t60.5 -87t90.5 -60.5t119.5 -22.5 q111 0 214.5 68.5t172.5 218.5q27 53 48.5 118.5t37.5 137.5h-2q-59 -72 -151 -120t-219 -48q-106 0 -185.5 36t-131.5 94t-77.5 135t-25.5 161q0 94 32.5 188.5t97 169t159 120.5t217.5 46q98 0 178 -32.5t137 -97t89 -161t32 -221.5q0 -188 -43 -357t-124 -296 t-197.5 -202t-264.5 -75q-160 0 -265.5 88.5t-137.5 229.5z" />
<glyph unicode=":" horiz-adv-x="442" d="M385 975l-49 -234h-160l49 234h160zM227 233l-49 -233h-160l50 233h159z" />
<glyph unicode=";" horiz-adv-x="450" d="M-41 -217q72 18 95.5 61t39.5 113l10 43h-86l52 233h159l-69 -311q-23 -98 -70 -146t-145 -65zM387 975l-49 -234h-160l49 234h160z" />
<glyph unicode="&#x3c;" horiz-adv-x="1667" d="M1487 -33l-1387 654v135l1387 649v-129l-1256 -586l1256 -594v-129z" />
<glyph unicode="=" horiz-adv-x="1775" d="M1571 715h-1378v116h1378v-116zM1571 358h-1378v115h1378v-115z" />
<glyph unicode="&#x3e;" horiz-adv-x="1665" d="M225 96l1256 594l-1256 586v129l1387 -649v-135l-1387 -654v129z" />
<glyph unicode="?" horiz-adv-x="952" d="M451 209l-45 -209h-152l45 209h152zM602 578q-43 -33 -67.5 -57.5t-39 -48t-21.5 -49.5t-13 -58q-4 -12 -5 -27.5t-5 -32.5h-123q10 68 22 116t35 88t58.5 76t93.5 79l157 116q27 20 43.5 35.5t32.5 32.5q47 53 67.5 108.5t20.5 108.5q0 45 -16.5 89t-49 77t-84 53.5 t-118.5 20.5q-76 0 -133.5 -27t-96 -72t-58 -103.5t-19.5 -121.5q0 -72 26 -147l-127 45q-8 33 -12 63.5t-4 63.5q0 82 31.5 155.5t90 129t139.5 87t181 31.5q92 0 162 -26.5t117 -71.5t70.5 -106.5t23.5 -129.5q0 -61 -16.5 -119.5t-57.5 -115.5q-20 -29 -50 -59.5 t-75 -65.5z" />
<glyph unicode="@" horiz-adv-x="1636" d="M1100 129q70 0 131 45t105 116.5t70 164t26 186.5q0 96 -29 189.5t-90.5 166t-159.5 117.5t-238 45q-178 0 -316 -72.5t-233.5 -189.5t-144.5 -261t-49 -288q0 -115 35 -222.5t105.5 -189t180 -131t259.5 -49.5q82 0 165.5 18.5t163.5 53.5t151 86t130 119l20 -103 q-123 -133 -290.5 -201.5t-341.5 -68.5q-176 0 -306.5 55.5t-215.5 149.5t-127 217t-42 256q0 160 58.5 323.5t169 294.5t271.5 214t368 83q162 0 277.5 -52t190 -136t109.5 -191.5t35 -220.5q0 -115 -34 -225.5t-93 -196.5t-142 -139t-182 -53q-59 0 -99 20.5t-40 75.5 q0 16 2 27l-2 2q-35 -59 -102.5 -96t-169.5 -37q-111 0 -181.5 58t-70.5 169q0 68 24.5 115t70.5 79.5t110.5 52t144.5 34.5l197 34q37 6 50 18.5t17 39.5q4 18 7.5 34.5t3.5 32.5q0 27 -9.5 51.5t-31 43t-58.5 30t-92 11.5q-121 0 -179 -55.5t-69 -139.5l-96 23 q8 72 42 120.5t83 79.5t109.5 45.5t121.5 14.5q57 0 107.5 -10.5t88.5 -35t59.5 -65.5t21.5 -100q0 -49 -12 -99l-82 -381q-6 -37 -6 -53q0 -49 53 -49zM1010 506q-16 -10 -53 -17.5t-87 -17.5l-88 -16q-49 -8 -95 -20.5t-81 -33t-56.5 -52.5t-21.5 -81q0 -80 50.5 -113.5 t123.5 -33.5q45 0 88.5 12t80 38t63.5 65.5t39 97.5z" />
<glyph unicode="A" horiz-adv-x="1226" d="M791 1055q-10 57 -16.5 103t-12.5 91h-2q-23 -45 -43.5 -85t-48.5 -87l-318 -545h522zM41 0h-141l825 1393h131l236 -1393h-134l-67 420h-604z" />
<glyph unicode="B" horiz-adv-x="1345" d="M784 776q100 0 162 14.5t101 40.5q49 35 82.5 95.5t33.5 152.5q0 53 -18.5 90t-50.5 62q-47 35 -113 41t-127 6h-405l-107 -502h442zM317 666l-116 -551h471q113 0 178 15t108 44q57 39 93 104.5t36 161.5q0 84 -38.5 133.5t-98.5 71.5q-39 14 -93 17.5t-107 3.5h-433z M47 0l297 1393h518q111 0 177.5 -13.5t113.5 -40.5q70 -39 103.5 -107.5t33.5 -146.5q0 -63 -17.5 -123.5t-53 -109.5t-91 -84t-131.5 -45q111 -25 165.5 -102.5t54.5 -186.5q0 -55 -15.5 -110.5t-44.5 -106.5t-68.5 -92t-91.5 -68q-55 -29 -130.5 -43t-207.5 -14h-612z" />
<glyph unicode="C" horiz-adv-x="1284" d="M1171 995q-31 143 -122 225.5t-250 82.5q-139 0 -243.5 -70t-173.5 -177.5t-102.5 -239.5t-33.5 -255q0 -106 23.5 -193t71.5 -148.5t122 -95.5t174 -34q78 0 144.5 23.5t124 64.5t102.5 98.5t79 122.5l99 -73q-86 -154 -226.5 -252.5t-341.5 -98.5q-250 0 -376.5 150.5 t-126.5 427.5q0 162 47 317.5t136 277.5t219 195.5t294 73.5q182 0 306 -89t171 -259z" />
<glyph unicode="D" horiz-adv-x="1386" d="M201 113h282q129 0 229.5 17t188.5 77q78 51 133.5 134t91 176t52 188.5t16.5 173.5q0 217 -154 321q-43 29 -93 45.5t-103 23.5t-111.5 9t-118.5 2h-165zM47 0l297 1393h309q150 0 274 -25t213 -84t137 -158.5t48 -246.5q0 -113 -23.5 -228.5t-69.5 -219t-114.5 -189.5 t-161.5 -142q-59 -35 -112 -54t-109.5 -29.5t-120 -13.5t-141.5 -3h-426z" />
<glyph unicode="E" horiz-adv-x="1191" d="M1001 0h-954l297 1393h913l-24 -113h-784l-109 -506h711l-23 -112h-711l-118 -549h827z" />
<glyph unicode="F" horiz-adv-x="1110" d="M47 0l297 1393h887l-25 -113h-757l-109 -506h690l-24 -115h-689l-141 -659h-129z" />
<glyph unicode="G" horiz-adv-x="1355" d="M637 90q102 0 188 35t156 108q53 59 92 139.5t68 205.5l2 12h-498l25 115h608l-150 -705h-118l45 199l-2 2q-25 -37 -63 -76t-91 -73t-123.5 -55.5t-161.5 -21.5q-246 0 -372.5 150.5t-126.5 427.5q0 162 47 317.5t136 277.5t219 195.5t294 73.5q182 0 306 -89t171 -259 l-117 -74q-31 143 -122 225.5t-250 82.5q-139 0 -243.5 -70t-173.5 -177.5t-102.5 -239.5t-33.5 -255q0 -106 23.5 -193t71.5 -148.5t122 -95.5t174 -34z" />
<glyph unicode="H" horiz-adv-x="1419" d="M1126 0h-129l142 659h-822l-141 -659h-129l297 1393h129l-131 -617h821l131 617h127z" />
<glyph unicode="I" horiz-adv-x="471" d="M473 1393l-297 -1393h-129l297 1393h129z" />
<glyph unicode="J" horiz-adv-x="995" d="M1004 1393l-197 -930q-20 -94 -42 -169t-56 -136q-49 -86 -133 -137.5t-230 -51.5q-180 0 -274.5 83t-94.5 247v27.5t5 42.5l133 51q-4 -27 -7.5 -49.5t-3.5 -46.5q0 -106 58.5 -176t189.5 -70q104 0 165 45t95 123q20 41 35 92t27 113l203 942h127z" />
<glyph unicode="K" horiz-adv-x="1280" d="M1151 0h-150l-354 750l-373 -318l-92 -432h-133l295 1393h135l-170 -787l924 787h188l-669 -562z" />
<glyph unicode="L" horiz-adv-x="1079" d="M940 0h-893l297 1393h127l-272 -1280h766z" />
<glyph unicode="M" horiz-adv-x="1630" d="M1208 0l181 852q10 45 23 100.5t27.5 107.5t27 96t18.5 67h-2q-23 -41 -67 -123t-105 -182l-566 -918h-90l-196 901q-23 98 -33 177t-14 132h-2q-2 -25 -7.5 -63.5t-11.5 -84.5t-15 -96.5t-18 -95.5l-184 -870h-127l297 1393h137l213 -996q16 -70 25.5 -123t15.5 -90h2 q20 41 51 95.5t76 128.5l606 985h162l-297 -1393h-127z" />
<glyph unicode="N" horiz-adv-x="1447" d="M1012 0l-500 1047q-29 59 -50.5 112t-27.5 74h-2q-4 -37 -11 -80t-24 -119l-221 -1034h-129l297 1393h141l504 -1047q29 -59 46.5 -100t29.5 -70h2q2 18 5 35.5t7 38t9.5 47.5t13.5 63l219 1033h129l-297 -1393h-141z" />
<glyph unicode="O" horiz-adv-x="1390" d="M635 90q92 0 170 33t140.5 90t109.5 132t77.5 159t46 171t15.5 169q0 209 -98.5 334t-292.5 125q-137 0 -240.5 -70t-174.5 -177.5t-106.5 -239.5t-35.5 -255q0 -106 23.5 -193t71.5 -148.5t121 -95.5t173 -34zM821 1417q115 0 208 -37t159.5 -107.5t102.5 -174 t36 -234.5q0 -162 -44 -321.5t-132 -285.5t-221 -204t-314 -78q-250 0 -376.5 153t-126.5 425q0 162 48 317.5t138 277.5t222 195.5t300 73.5z" />
<glyph unicode="P" horiz-adv-x="1247" d="M305 614l-131 -614h-127l297 1393h485q119 0 187.5 -14.5t122.5 -43.5q63 -35 105 -99.5t42 -162.5q0 -135 -55 -238.5t-160 -160.5q-55 -29 -131 -44.5t-209 -15.5h-426zM743 729q117 0 180.5 14.5t108.5 44.5q57 39 93 106t36 169q0 82 -39 127t-100 67 q-41 14 -94.5 18.5t-106.5 4.5h-375l-116 -551h413z" />
<glyph unicode="Q" horiz-adv-x="1406" d="M635 90q92 0 170 33t140.5 90t109.5 132t77.5 159t46 171t15.5 169q0 209 -98.5 334t-292.5 125q-137 0 -240.5 -70t-174.5 -177.5t-106.5 -239.5t-35.5 -255q0 -106 23.5 -193t71.5 -148.5t121 -95.5t173 -34zM821 1417q115 0 208 -37t159.5 -107.5t102.5 -174 t36 -234.5q0 -180 -53 -355t-164 -306l129 -166l-104 -80l-119 156q-78 -66 -177.5 -102t-222.5 -36q-250 0 -376.5 153t-126.5 425q0 162 48 317.5t138 277.5t222 195.5t300 73.5z" />
<glyph unicode="R" horiz-adv-x="1306" d="M743 729q117 0 180.5 14.5t108.5 44.5q57 39 93 106t36 169q0 82 -39 127t-100 67q-41 14 -94.5 18.5t-106.5 4.5h-375l-116 -551h413zM305 614l-131 -614h-127l297 1393h485q119 0 187.5 -14.5t122.5 -43.5q63 -35 105 -99.5t42 -162.5q0 -135 -55 -238.5t-160 -160.5 q-37 -20 -84 -33.5t-113 -19.5l244 -621h-139l-234 614h-440z" />
<glyph unicode="S" horiz-adv-x="1193" d="M1044 1081q-47 94 -145 158t-248 64q-72 0 -132 -15.5t-105 -45.5t-71 -75t-26 -106q0 -59 19.5 -99t53.5 -69t82 -49.5t103 -40.5l195 -72q61 -23 118.5 -50.5t102.5 -67.5t72 -95t27 -135q0 -104 -40 -180t-109 -127t-162 -76t-197 -25q-109 0 -198 27t-156.5 76 t-113.5 116.5t-71 147.5l113 72q12 -61 43.5 -119.5t84 -105t127 -74t173.5 -27.5q178 0 274 74t96 203q0 59 -21.5 100t-59 70.5t-89 51t-110.5 44.5l-195 71q-53 18 -105 43t-94 63t-69 94t-27 142q0 82 34 151t95.5 118t148.5 76.5t195 27.5q98 0 176 -22.5t139.5 -58.5 t104.5 -82t70 -95z" />
<glyph unicode="T" horiz-adv-x="1077" d="M201 1393h1024l-25 -113h-448l-273 -1280h-127l273 1280h-449z" />
<glyph unicode="U" horiz-adv-x="1370" d="M596 -27q-236 0 -351.5 107.5t-115.5 296.5q0 37 7 85t18 101l178 830h127l-174 -822q-10 -51 -18.5 -97t-8.5 -87q0 -299 352 -299q98 0 173 23.5t132 76.5q53 49 88 122t64 196l188 887h127l-184 -871q-31 -141 -76 -245.5t-116 -172.5q-70 -66 -169.5 -98.5 t-240.5 -32.5z" />
<glyph unicode="V" horiz-adv-x="1185" d="M379 0l-184 1393h133l139 -1069q8 -55 12 -94.5t10 -79.5h3q23 47 43 85.5t49 86.5l608 1071h141l-796 -1393h-158z" />
<glyph unicode="W" horiz-adv-x="1810" d="M1122 0l-71 831q-4 43 -8.5 95.5t-8.5 101.5t-6 90t-2 62h-2q-8 -20 -27.5 -63.5t-44 -94.5t-50 -103.5t-46.5 -91.5l-420 -827h-117l-112 1393h127l69 -826q2 -37 7.5 -88t8.5 -100t6 -91t3 -63h2q8 20 26.5 60.5t42 89.5t48 100t47.5 92l414 826h120l76 -826 q2 -37 7.5 -88t8.5 -101t6 -92t3 -63h2q8 20 26.5 60.5t41 88.5t48 99t46.5 92l409 830h135l-696 -1393h-119z" />
<glyph unicode="X" d="M946 0l-321 639l-590 -639h-162l694 748l-327 645h141l281 -564l514 564h157l-618 -660l375 -733h-144z" />
<glyph unicode="Y" horiz-adv-x="1163" d="M383 0l123 573l-330 820h137l283 -693l580 693h155l-696 -820l-123 -573h-129z" />
<glyph unicode="Z" horiz-adv-x="1142" d="M967 0h-1047l19 84l1099 1196h-800l24 113h983l-20 -93l-1090 -1187h856z" />
<glyph unicode="[" horiz-adv-x="552" d="M303 -324h-342l365 1717h344l-21 -99h-223l-324 -1519h224z" />
<glyph unicode="\" horiz-adv-x="788" d="M485 0l-256 1393h121l256 -1393h-121z" />
<glyph unicode="]" horiz-adv-x="552" d="M231 1393h342l-364 -1717h-344l20 99h224l323 1519h-223z" />
<glyph unicode="^" horiz-adv-x="940" d="M918 700h-130l-147 592h-2l-410 -592h-143l524 734h111z" />
<glyph unicode="_" horiz-adv-x="1497" d="M1100 -303h-1075l20 115h1077z" />
<glyph unicode="`" horiz-adv-x="960" d="M606 1393l193 -263h-115l-270 263h192z" />
<glyph unicode="a" horiz-adv-x="985" d="M129 700q8 82 47 138.5t95.5 91.5t125 51t140.5 16q66 0 124 -12t101 -39.5t68.5 -74t25.5 -115.5q0 -27 -4 -55.5t-10 -57.5l-94 -442q-8 -39 -9 -62q0 -29 13.5 -43t48.5 -14q25 0 45 6t33 14l-21 -96q-14 -8 -42 -14t-58 -6q-59 0 -96 25.5t-37 78.5q0 20 6 45l-2 2 q-41 -72 -120 -117t-196 -45q-127 0 -207.5 67t-80.5 194q0 78 28.5 133t80.5 92t126 59.5t166 38.5l227 39q41 8 56.5 22.5t21.5 43.5q4 23 7 40t3 37q0 31 -10 58.5t-34.5 49t-66.5 35t-108 13.5q-137 0 -204.5 -63.5t-77.5 -159.5zM698 520q-20 -12 -61 -20t-98 -19 l-103 -18q-57 -10 -109.5 -24.5t-92 -38t-64.5 -60.5t-25 -92q0 -92 56.5 -131t142.5 -39q51 0 101.5 13t91.5 43t72.5 77t45.5 113z" />
<glyph unicode="b" horiz-adv-x="1085" d="M600 893q-96 0 -165.5 -49t-116 -125t-69 -165t-22.5 -171q0 -137 62.5 -220t197.5 -83q90 0 161 47t119 119.5t72.5 162t24.5 173.5q0 141 -63.5 226t-200.5 85zM434 1393l-76 -351q-10 -39 -17 -78.5t-15 -72.5q-8 -39 -17 -76h2q43 78 129 130t195 52q160 0 256 -102 t96 -289q0 -123 -34.5 -236.5t-99.5 -201.5t-159 -140.5t-211 -52.5q-72 0 -125 20.5t-90 52.5t-58.5 73t-29.5 84l-43 -205h-121l299 1393h119z" />
<glyph unicode="c" horiz-adv-x="985" d="M823 662q-10 41 -27.5 82.5t-48 74.5t-76.5 53.5t-114 20.5q-92 0 -161.5 -47t-117 -119t-71 -161t-23.5 -171q0 -143 64.5 -228t197.5 -85q66 0 118 21.5t91 55.5t67 73.5t46 76.5l94 -63q-63 -119 -165.5 -195t-258.5 -76q-188 0 -282.5 109t-94.5 295q0 117 34 228.5 t98.5 198.5t160 139t215.5 52q143 0 237.5 -74.5t125.5 -203.5z" />
<glyph unicode="d" horiz-adv-x="1087" d="M446 80q94 0 165 49t117 124t68.5 165t22.5 172q0 137 -62.5 220t-197.5 83q-90 0 -160.5 -47t-119 -120t-73 -162t-24.5 -173q0 -141 63.5 -226t200.5 -85zM1120 1393l-297 -1393h-121l37 160h-2q-43 -78 -130 -131.5t-195 -53.5q-160 0 -256.5 102.5t-96.5 289.5 q0 123 35 236.5t99.5 201.5t158.5 140t211 52q72 0 125 -20.5t90 -52t58.5 -72.5t29.5 -84l133 625h121z" />
<glyph unicode="e" horiz-adv-x="1026" d="M563 895q-70 0 -128 -28.5t-102 -73.5t-75 -102.5t-45 -112.5h588q2 14 3 28.5t1 30.5q0 49 -12.5 95t-40 83t-74.5 58.5t-115 21.5zM190 479q-6 -43 -6 -88q0 -61 14.5 -116.5t46 -98.5t84 -68.5t130.5 -25.5q76 0 131 23.5t96 57.5t68.5 72.5t46.5 71.5l92 -63 q-27 -47 -63.5 -95.5t-91 -86t-125 -62.5t-164.5 -25q-193 0 -290.5 106.5t-97.5 315.5q0 119 38 227.5t105.5 191.5t162 132t208.5 49q94 0 162 -30.5t111 -81.5t62.5 -120t19.5 -144q0 -33 -4 -71t-13 -71h-723z" />
<glyph unicode="f" horiz-adv-x="630" d="M659 874h-221l-186 -874h-121l186 874h-221l21 101h221l47 223q14 61 32.5 99t47.5 63q35 33 79 45t91 12q41 0 77 -7t58 -15l-25 -111q-23 10 -50 17.5t-60 7.5q-59 0 -88 -29t-43 -96l-45 -209h221z" />
<glyph unicode="g" horiz-adv-x="1089" d="M743 174q-43 -78 -131 -131t-196 -53q-160 0 -256.5 104.5t-96.5 290.5q0 121 35 231.5t99.5 195.5t156.5 135t205 50q72 0 126 -20.5t92 -52t60.5 -72.5t30.5 -84l43 207h121l-188 -899q-27 -125 -58.5 -210t-83.5 -145q-55 -63 -138 -95t-204 -32q-102 0 -172.5 26 t-113.5 68t-62.5 94t-19.5 105v20.5t2 20.5l119 37q-2 -12 -2 -23.5v-21.5q0 -223 258 -223q98 0 158.5 29.5t97.5 82t58.5 121t39.5 146.5q4 12 7 28.5t7 32.5q4 18 8 37h-2zM451 94q94 0 164.5 47t115.5 120t67.5 160t22.5 169q0 137 -62.5 220t-197.5 83 q-90 0 -160.5 -44t-117.5 -113.5t-72 -155.5t-25 -170q0 -141 64 -228.5t201 -87.5z" />
<glyph unicode="h" horiz-adv-x="1026" d="M432 1393l-121 -580q18 37 52 69.5t79 58.5t96.5 41t106.5 15q131 0 200.5 -70.5t69.5 -189.5q0 -31 -6 -76t-16 -92l-121 -569h-121l111 522q14 61 21.5 109.5t7.5 87.5q0 166 -189 166q-72 0 -130 -31t-103 -80t-74 -109.5t-41 -119.5l-115 -545h-121l295 1393h119z " />
<glyph unicode="i" horiz-adv-x="403" d="M393 1192h-121l41 201h121zM139 0h-121l207 975h121z" />
<glyph unicode="j" horiz-adv-x="401" d="M393 1192h-121l43 201h121zM346 975l-213 -993q-18 -84 -30.5 -139.5t-23.5 -92.5t-25.5 -61.5t-35.5 -44.5q-33 -33 -76.5 -45.5t-91.5 -12.5q-49 0 -90 12.5t-69 28.5l26 117q29 -23 62 -35t74 -12q70 0 95 47t48 158l229 1073h121z" />
<glyph unicode="k" horiz-adv-x="999" d="M436 1393l-194 -910l614 492h184l-469 -363l289 -612h-139l-248 535l-264 -205l-70 -330h-121l295 1393h123z" />
<glyph unicode="l" horiz-adv-x="425" d="M446 1393l-296 -1393h-121l297 1393h120z" />
<glyph unicode="m" horiz-adv-x="1585" d="M735 0h-121l111 522q14 66 21.5 112t7.5 85q0 78 -38 122t-124 44q-63 0 -118.5 -29t-99.5 -76t-75 -106.5t-43 -122.5l-117 -551h-121l207 975h121l-35 -162q18 35 52 68.5t77 59.5t92.5 41t98.5 15q111 0 170 -54t73 -148q20 35 55.5 70.5t81.5 65.5t101 48t115 18 q117 0 182.5 -65.5t65.5 -183.5q0 -31 -6.5 -81.5t-16.5 -97.5l-121 -569h-121l111 522q14 66 21.5 112t7.5 85q0 78 -39 122t-123 44q-59 0 -111.5 -24.5t-94.5 -66.5t-73.5 -96.5t-48.5 -113.5z" />
<glyph unicode="n" horiz-adv-x="1026" d="M772 0h-121l111 522q14 61 21.5 109.5t7.5 87.5q0 166 -189 166q-72 0 -130 -31t-103 -80t-74 -109.5t-41 -119.5l-115 -545h-121l207 975h121l-35 -162q18 37 52 69.5t79 58.5t96.5 41t106.5 15q131 0 200.5 -70.5t69.5 -189.5q0 -31 -6 -76t-16 -92z" />
<glyph unicode="o" horiz-adv-x="1058" d="M567 895q-94 0 -165.5 -46t-120 -118t-73 -161t-24.5 -177q0 -150 71 -231.5t194 -81.5q96 0 167.5 47t119.5 119.5t73 163t25 176.5q0 147 -71 228t-196 81zM59 379q0 115 34 225.5t99.5 198.5t164 141t225.5 53q178 0 277 -108.5t99 -296.5q0 -113 -32.5 -223.5 t-98 -197.5t-164 -141.5t-227.5 -54.5q-178 0 -277.5 108t-99.5 296z" />
<glyph unicode="p" horiz-adv-x="1087" d="M602 893q-94 0 -163.5 -49t-116 -125t-69 -165t-22.5 -171q0 -137 61.5 -220t196.5 -83q90 0 161 47t119 119.5t72.5 162t24.5 173.5q0 141 -63.5 226t-200.5 85zM-63 -389l288 1364h121l-37 -162h2q43 78 130 131t196 53q160 0 256 -102t96 -289q0 -123 -34.5 -236.5 t-99 -201.5t-159 -140.5t-211.5 -52.5q-72 0 -125 20.5t-90 52.5t-58.5 73t-29.5 84l-125 -594h-120z" />
<glyph unicode="q" horiz-adv-x="1087" d="M446 80q94 0 165 49t117 124t68.5 165t22.5 172q0 137 -62.5 220t-197.5 83q-90 0 -160.5 -47t-119 -120t-73 -162t-24.5 -173q0 -141 63.5 -226t200.5 -85zM618 -389l121 549h-2q-43 -78 -130 -131.5t-195 -53.5q-160 0 -256.5 102.5t-96.5 289.5q0 123 35 236.5 t99.5 201.5t158.5 140t211 52q72 0 125 -20.5t90 -52t58.5 -72.5t29.5 -84l43 207h121l-291 -1364h-121z" />
<glyph unicode="r" horiz-adv-x="663" d="M680 866q-18 4 -37.5 6t-36.5 2q-68 0 -126 -27.5t-104 -72.5t-77 -103.5t-43 -119.5l-117 -551h-121l207 975h121l-41 -189q20 39 53 77t76 68t94.5 48t106.5 18q16 0 35.5 -2t36.5 -6z" />
<glyph unicode="s" horiz-adv-x="905" d="M721 727q-35 74 -98.5 121t-167.5 47q-88 0 -148.5 -40t-60.5 -120q0 -35 11 -59.5t31.5 -42t50.5 -30.5t69 -28l133 -49q45 -16 87 -35.5t74.5 -48t52 -68.5t19.5 -98q0 -74 -28.5 -130t-78 -94t-116 -57.5t-141.5 -19.5q-160 0 -262.5 75t-143.5 200l105 65 q78 -238 309 -237q92 0 158.5 44t66.5 136q0 72 -45 103.5t-131 62.5l-137 51q-33 12 -70 28.5t-68.5 44t-52 68.5t-20.5 101q0 68 28.5 121t75.5 88t108.5 53t129.5 18q117 0 211 -47t147 -153z" />
<glyph unicode="t" horiz-adv-x="620" d="M102 975h197l82 366l125 25l-86 -391h233l-20 -101h-234l-137 -636q-12 -55 -12 -82q0 -66 69 -66q74 0 158 45l-24 -119q-37 -16 -86.5 -26t-96.5 -10q-150 0 -149 122q0 33 12 95l146 677h-197z" />
<glyph unicode="u" horiz-adv-x="1015" d="M215 975h121l-111 -524q-29 -127 -28 -199q0 -82 42 -123t138 -41q72 0 130 31t102 80t73 109.5t41 119.5l115 547h120l-206 -975h-121l35 160q-18 -37 -51 -70t-77 -58.5t-96.5 -41t-107.5 -15.5q-125 0 -193.5 69t-68.5 185q0 31 6 79t16 95z" />
<glyph unicode="v" horiz-adv-x="892" d="M369 0h-107l-143 975h127l86 -639q8 -59 14 -102.5t8 -59.5h2q8 16 35 64.5t66 111.5l370 625h129z" />
<glyph unicode="w" horiz-adv-x="1409" d="M897 385q6 -59 10 -118.5t8 -94.5h3q8 16 20 42t27.5 56.5t31 62.5t31.5 62l303 580h123l-518 -975h-115l-55 627q-4 61 -6 109t-4 69h-2q-8 -18 -34 -68.5t-56 -111.5l-320 -625h-108l-121 975h121l67 -586q8 -59 13.5 -119.5t9.5 -95.5h2q16 35 44.5 95.5t61.5 121.5 l301 584h105z" />
<glyph unicode="x" horiz-adv-x="911" d="M762 0h-137l-201 414l-381 -414h-147l481 512l-234 463h138l182 -381l352 381h141l-446 -481z" />
<glyph unicode="y" horiz-adv-x="911" d="M336 326l24 -170h2q12 23 38 67.5t65 108.5l383 643h129l-670 -1106q-35 -57 -63.5 -104.5t-57.5 -81.5q-41 -49 -86 -73t-110 -24q-51 0 -81 13.5t-44 23.5l22 115q23 -18 50.5 -30.5t62.5 -12.5q59 0 96 43q14 16 31.5 40.5t46.5 74.5l88 151l-141 971h125z" />
<glyph unicode="z" horiz-adv-x="829" d="M649 0h-710l16 82l694 792h-499l20 101h657l-16 -80l-696 -793h557z" />
<glyph unicode="{" horiz-adv-x="552" d="M168 580q59 -29 85 -72t26 -107q0 -49 -13 -110l-69 -330q-8 -35 -13.5 -62.5t-5.5 -50.5q0 -45 29 -64.5t104 -19.5h13l-19 -88q-14 0 -26.5 -1t-24.5 -1q-115 0 -160 35t-45 113q0 39 10.5 89t24.5 109l51 228q27 109 27 174q0 47 -21.5 77.5t-81.5 49.5l21 82 q51 6 83 21.5t52.5 46t32.5 79.5t26 123l50 250q14 78 35.5 126t51 74.5t70.5 36t97 9.5h39.5t44.5 -4l-19 -88h-53q-39 0 -62.5 -9.5t-40 -33t-27.5 -62.5t-24 -98l-47 -234q-12 -66 -26.5 -112.5t-38 -81.5t-61.5 -57.5t-95 -36.5z" />
<glyph unicode="|" horiz-adv-x="528" d="M315 -324h-120v1717h120v-1717z" />
<glyph unicode="}" horiz-adv-x="550" d="M375 528q-59 29 -85 72t-26 107q0 49 12 110l62 291q8 35 13 62.5t5 50.5q0 45 -28.5 64.5t-104.5 19.5h-12l18 88h17q8 0 16 1t19 1q115 0 159.5 -35t44.5 -113q0 -39 -10 -89t-24 -109l-43 -189q-27 -109 -27 -174q0 -47 21.5 -77.5t80.5 -49.5l-20 -82 q-53 -6 -84 -21.5t-51.5 -46t-32.5 -79.5t-27 -123l-57 -291q-16 -78 -36.5 -126t-50.5 -74.5t-71 -36t-96 -9.5h-39.5t-44.5 4l18 88h54q39 0 62.5 9.5t39.5 32t27.5 62.5t23.5 99l56 275q12 63 26.5 111t38 83t60.5 57.5t96 36.5z" />
<glyph unicode="~" horiz-adv-x="1105" d="M1026 612q-51 -63 -115.5 -110t-142.5 -47q-47 0 -89 13t-112 48l-84 41q-31 14 -68.5 26.5t-78.5 12.5q-29 0 -51.5 -7t-42 -22.5t-42 -40t-50.5 -59.5l-64 96q12 18 32.5 47t51.5 55.5t72 45t94 18.5t101 -17.5t100 -39.5l96 -45q51 -23 78.5 -33t56.5 -10 q35 0 63.5 12t53 31.5t45 42t37.5 43.5z" />
<glyph unicode="&#xa1;" horiz-adv-x="409" d="M162 741l49 234h156l-50 -234h-155zM166 614h92l-59 -368l-142 -664h-131l142 664z" />
<glyph unicode="&#xa2;" horiz-adv-x="1003" d="M193 395q0 -117 41.5 -194.5t130.5 -106.5l167 797q-84 -8 -147 -57.5t-106 -120t-64.5 -154.5t-21.5 -164zM831 662q-16 72 -59 136t-135 87l-170 -803q63 2 112.5 24.5t87.5 55.5t64.5 71.5t44.5 75.5l94 -63q-63 -119 -165.5 -195t-258.5 -76h-2l-43 -206h-106l45 217 q-135 29 -202.5 132t-67.5 261q0 115 32.5 223.5t94 194.5t151.5 140t207 58l41 193h106l-43 -199q111 -20 182.5 -91t98.5 -179z" />
<glyph unicode="&#xa3;" horiz-adv-x="1103" d="M1010 1059v14q0 125 -62.5 180.5t-156.5 55.5q-98 0 -157 -47.5t-92.5 -121t-50 -162.5t-28.5 -171l-8 -55h315l-25 -109h-305l-6 -39q-12 -74 -25.5 -147.5t-38 -139t-65.5 -120t-104 -86.5v-2q39 2 94 3t162 1h471l-23 -113h-940l21 100q63 4 110 20.5t83 56.5 t61.5 106.5t48.5 169.5q8 35 14 84t14 106h-219l25 109h211q12 66 22.5 137.5t27.5 141t43 133t69 112.5q53 63 128.5 99t176.5 36q154 0 237.5 -83t83.5 -208v-22z" />
<glyph unicode="&#xa4;" horiz-adv-x="1161" d="M305 592q0 -59 21.5 -109.5t58.5 -89.5t87 -60.5t110 -21.5q59 0 110 21.5t88 60.5t58.5 89t21.5 110q0 59 -20.5 110.5t-57.5 90t-88 60t-112 21.5q-59 0 -109.5 -21.5t-87.5 -59t-58.5 -90t-21.5 -111.5zM188 592q0 133 74 235l-129 129l86 86l127 -129q102 74 236 74 q66 0 126 -19.5t107 -54.5l127 127l86 -86l-127 -127q35 -49 55.5 -108.5t20.5 -126.5q0 -133 -74 -236l125 -123l-86 -86l-125 125q-102 -74 -235 -73q-68 0 -128.5 19.5t-107.5 53.5l-127 -127l-86 86l127 127q-72 97 -72 234z" />
<glyph unicode="&#xa5;" horiz-adv-x="1280" d="M193 692h323l-287 701h138l284 -682l578 682h155l-602 -701h342l-22 -108h-412l-37 -170h418l-22 -109h-418l-66 -305h-129l66 305h-385l22 109h385l37 170h-391z" />
<glyph unicode="&#xa6;" horiz-adv-x="552" d="M328 -324h-121v662h121v-662zM328 731h-121v662h121v-662z" />
<glyph unicode="&#xa7;" horiz-adv-x="1003" d="M541 401q104 16 177 78t73 152q0 80 -58.5 127t-142.5 82l-76 32q-123 -4 -200.5 -58t-77.5 -146q0 -41 14 -73t39.5 -56.5t59.5 -43t71 -36.5zM639 334q57 -31 93 -83t36 -132q0 -74 -28.5 -130.5t-78 -94t-116 -57t-142.5 -19.5q-156 0 -260 74.5t-145 199.5l104 66 q78 -238 310 -238q92 0 158.5 44t66.5 136q0 72 -51 120t-137 89l-93 45q-57 27 -103 54.5t-79 61.5t-50.5 79t-17.5 106q0 68 30 120t76 87t100.5 55.5t105.5 24.5q-53 35 -83 81t-30 118q0 51 22.5 100t66.5 88t107.5 61.5t145.5 22.5q121 0 217.5 -51t149.5 -168 l-101 -66q-35 82 -99 132.5t-173 50.5q-88 0 -148.5 -40t-60.5 -120q0 -35 12.5 -62.5t36 -50t57 -42t74.5 -40.5l58 -24q51 -27 96 -52.5t79 -58.5t54.5 -74.5t20.5 -99.5q0 -74 -29 -128t-71 -92t-91 -60.5t-90 -32.5z" />
<glyph unicode="&#xa8;" horiz-adv-x="960" d="M754 1346h127l-41 -187h-127zM371 1346h127l-41 -187h-127z" />
<glyph unicode="&#xa9;" horiz-adv-x="1615" d="M1417 717q0 123 -44 231.5t-121.5 189.5t-184 128t-231.5 47q-123 0 -228.5 -47t-183.5 -128t-122 -189.5t-44 -231.5q0 -121 44 -228.5t122 -187.5t183.5 -127t228.5 -47q125 0 231.5 47t184 127t121.5 187.5t44 228.5zM1534 717q0 -147 -53.5 -274.5t-147.5 -221.5 t-221 -148.5t-276 -54.5q-147 0 -274.5 54.5t-221.5 148.5t-147.5 221t-53.5 275q0 147 53.5 275t147.5 222.5t221 148.5t275 54q150 0 276.5 -54t220.5 -148.5t147.5 -222.5t53.5 -275zM1063 864q-29 90 -86 135t-141 45q-113 0 -182.5 -88t-69.5 -243q0 -156 70.5 -240 t181.5 -84q82 0 140 36t93 118l94 -60q-47 -92 -129 -147t-198 -55q-172 0 -270.5 115.5t-98.5 314.5q0 98 25.5 179t73.5 138t116 88t154 31q123 0 204.5 -59.5t122.5 -163.5z" />
<glyph unicode="&#xaa;" horiz-adv-x="741" d="M240 1217q6 53 30.5 91t60.5 61.5t80 33.5t89 10q86 0 145.5 -33.5t59.5 -124.5q0 -16 -2.5 -34.5t-6.5 -34.5l-57 -277q-6 -25 -6 -35q0 -31 31 -30q31 0 59 16l-16 -78q-10 -4 -30 -8t-38 -4q-41 0 -64.5 21.5t-23.5 58.5v4q-27 -37 -76 -63.5t-115 -26.5 q-82 0 -134 44t-52 124q0 51 19.5 87t53.5 59.5t81 37.5t102 25l141 24q37 8 43 35q4 10 6.5 21.5t2.5 25.5q0 35 -27 63.5t-107 28.5q-82 0 -121.5 -41t-48.5 -100zM592 1098q-16 -4 -39 -9.5t-51 -9.5l-62 -12q-35 -6 -67.5 -15.5t-57 -22.5t-39 -34.5t-14.5 -54.5 q0 -53 35 -75.5t82 -22.5q63 0 115.5 35.5t72.5 111.5z" />
<glyph unicode="&#xab;" horiz-adv-x="794" d="M430 715l334 280l-37 -170l-246 -190l162 -203l-33 -153l-213 286zM129 715l334 280l-37 -170l-246 -190l162 -203l-33 -153l-213 286z" />
<glyph unicode="&#xac;" horiz-adv-x="1097" d="M958 453h-120v368h-691v109h811v-477z" />
<glyph unicode="&#xad;" horiz-adv-x="839" d="M682 481h-567l26 129h568z" />
<glyph unicode="&#xae;" horiz-adv-x="1615" d="M1417 717q0 123 -44 231.5t-121.5 189.5t-184 128t-231.5 47q-123 0 -228.5 -47t-183.5 -128t-122 -189.5t-44 -231.5q0 -121 44 -228.5t122 -187.5t183.5 -127t228.5 -47q125 0 231.5 47t184 127t121.5 187.5t44 228.5zM1534 717q0 -147 -53.5 -274.5t-147.5 -221.5 t-221 -148.5t-276 -54.5q-147 0 -274.5 54.5t-221.5 148.5t-147.5 221t-53.5 275q0 147 53.5 275t147.5 222.5t221 148.5t275 54q150 0 276.5 -54t220.5 -148.5t147.5 -222.5t53.5 -275zM862 750q55 0 87 5t55 15q33 14 51 45t18 74q0 41 -19.5 70.5t-49.5 44.5 q-25 10 -55.5 14t-86.5 4h-203v-272h203zM659 307h-104v815h334q82 0 129 -14t82 -39q45 -33 66.5 -79t21.5 -101q0 -53 -18.5 -94t-49 -72t-70.5 -48.5t-81 -23.5l245 -344h-133l-247 342h-175v-342z" />
<glyph unicode="&#xaf;" horiz-adv-x="960" d="M375 1346h555l-23 -109h-555z" />
<glyph unicode="&#xb0;" horiz-adv-x="784" d="M313 1110q0 -84 52.5 -139.5t136.5 -55.5t136 55.5t52 139.5t-52 139.5t-136 55.5t-136.5 -55.5t-52.5 -139.5zM195 1110q0 63 24.5 119.5t65.5 97.5t97 65.5t120 24.5q63 0 119.5 -24.5t97.5 -65.5t65.5 -97t24.5 -120q0 -63 -24.5 -119.5t-65.5 -97.5t-97.5 -65.5 t-119.5 -24.5t-119.5 24.5t-97.5 65.5t-65.5 97.5t-24.5 119.5z" />
<glyph unicode="&#xb1;" horiz-adv-x="1501" d="M1317 0h-1200v117h1200v-117zM776 219h-117v443h-542v114h542v438h117v-438h541v-114h-541v-443z" />
<glyph unicode="&#xb2;" horiz-adv-x="808" d="M231 1075q-2 12 -3 24.5t-1 24.5q0 57 20.5 108.5t59.5 89.5t94.5 59.5t124.5 21.5q131 0 202 -68.5t71 -175.5q0 -90 -51.5 -169t-127 -145.5t-162.5 -120.5t-159 -93v-6h63q29 0 61 1t60 1h232l-19 -92h-583l14 86q18 10 56 33.5t82 51t87 56.5t72 49q49 37 97 73 t85 76.5t59.5 88t22.5 104.5q0 72 -44 116t-122 44q-92 0 -140 -58.5t-48 -138.5q0 -35 10 -76z" />
<glyph unicode="&#xb3;" horiz-adv-x="768" d="M225 797q8 -104 63.5 -145.5t129.5 -41.5q80 0 140 43t60 131q0 53 -28.5 87t-73.5 51q-31 10 -61.5 15t-83.5 5h-68l19 80h94q59 0 96 6t66 21q39 18 58 55t19 80q0 57 -41 94t-118 37q-66 0 -114 -41t-63 -113l-94 29q6 39 27.5 78t56.5 68.5t84 48t111 18.5 q125 0 190.5 -58.5t65.5 -146.5t-53.5 -146.5t-128.5 -68.5l-3 -4q66 -23 106 -75t40 -124q0 -47 -18.5 -93t-56.5 -83t-95 -59.5t-133 -22.5q-137 0 -213 63.5t-82 178.5z" />
<glyph unicode="&#xb4;" horiz-adv-x="960" d="M801 1393l-271 -263h-114l192 263h193z" />
<glyph unicode="&#xb5;" horiz-adv-x="1005" d="M-57 -389l288 1364h121l-114 -543q-14 -61 -21.5 -103t-7.5 -77q0 -82 44 -123t140 -41q72 0 130.5 31t102.5 80t72.5 109.5t40.5 119.5l115 547h121l-207 -975h-121l35 160q-43 -84 -136 -134.5t-198 -50.5q-59 0 -109.5 20.5t-78.5 67.5l-97 -452h-120z" />
<glyph unicode="&#xb6;" horiz-adv-x="1196" d="M522 655q-78 0 -144.5 19.5t-115.5 59.5t-77.5 100.5t-28.5 144.5q0 193 120 297q33 31 73 52.5t94.5 35.5t127 21.5t170.5 7.5h551l-18 -90h-162l-332 -1565h-104l332 1565h-228l-331 -1565h-105l195 917h-17z" />
<glyph unicode="&#xb7;" horiz-adv-x="421" d="M332 772l-51 -233h-160l51 233h160z" />
<glyph unicode="&#xb8;" horiz-adv-x="960" d="M354 6h84l-94 -98q6 2 13.5 2h13.5q59 0 100 -34t41 -95q0 -84 -64.5 -130t-156.5 -46q-53 0 -105 18l31 58q29 -10 64 -11q49 0 89 21.5t40 72.5q0 41 -31 58.5t-68 17.5q-31 0 -63 -14l-19 47z" />
<glyph unicode="&#xb9;" horiz-adv-x="499" d="M254 539l131 628q-31 -20 -74 -28.5t-86 -8.5q-14 0 -27.5 1.5t-27.5 3.5l16 88h35q80 0 133 32q35 20 55.5 55.5t32.5 82.5h93l-179 -854h-102z" />
<glyph unicode="&#xba;" horiz-adv-x="739" d="M510 1335q-57 0 -100 -27.5t-72 -71.5t-43 -98.5t-14 -107.5q0 -90 42 -139t115 -49q57 0 101.5 27.5t73 72.5t43 100.5t14.5 108.5q0 90 -42 137t-118 47zM188 1020q0 72 21.5 142.5t63.5 125.5t103.5 90t143.5 35q113 0 177.5 -68.5t64.5 -189.5q0 -72 -21.5 -141.5 t-62.5 -124.5t-103.5 -90t-144.5 -35q-113 0 -177.5 68.5t-64.5 187.5z" />
<glyph unicode="&#xbb;" horiz-adv-x="794" d="M389 559l-334 -280l37 172l246 194l-162 197l33 153l213 -286zM690 559l-334 -280l37 172l246 194l-162 197l33 153l213 -286z" />
<glyph unicode="&#xbc;" horiz-adv-x="1615" d="M969 303q25 2 63.5 3t104.5 1h118l58 273q4 23 7 38t6 27t6 22.5t7 26.5h-4q-8 -10 -21.5 -25.5t-27.5 -33t-28.5 -32.5t-22.5 -25l-148 -152q-29 -29 -56 -57.5t-62 -61.5v-4zM1290 0h-98l47 219h-414l15 72l538 563h90l-114 -547h143l-16 -88h-144zM240 0l929 1393h113 l-930 -1393h-112zM266 539l131 628q-31 -20 -73.5 -28.5t-85.5 -8.5q-14 0 -27.5 1.5t-28.5 3.5l17 88h34q80 0 134 32q35 20 55 55.5t33 82.5h92l-178 -854h-103z" />
<glyph unicode="&#xbd;" horiz-adv-x="1705" d="M1051 541q-2 12 -3 24.5t-1 24.5q0 57 20 108.5t59 89t94.5 59t125.5 21.5q131 0 201.5 -68.5t70.5 -174.5q0 -90 -51 -169t-127 -145.5t-163 -121t-159 -93.5v-6h64q29 0 60.5 1t60.5 1h231l-18 -92h-584l14 86q18 10 56 33.5t82 51.5t87 56.5t72 48.5q49 37 97.5 73 t85 77t59 88t22.5 104q0 72 -44 116t-122 44q-92 0 -140 -58t-48 -138q0 -35 10 -76zM264 539l131 628q-31 -20 -73.5 -28.5t-85.5 -8.5q-14 0 -27.5 1.5t-28.5 3.5l17 88h34q80 0 134 32q35 20 55 55.5t33 82.5h92l-178 -854h-103zM238 0l929 1393h113l-930 -1393h-112z " />
<glyph unicode="&#xbe;" horiz-adv-x="1843" d="M467 0l930 1393h112l-929 -1393h-113zM1196 303q25 2 63.5 3t104.5 1h119l57 273q4 23 7 38t6 27t6.5 22.5t7.5 26.5h-4q-8 -10 -21.5 -25.5t-28 -33t-29 -32.5t-22.5 -25l-147 -152q-29 -29 -56.5 -57.5t-62.5 -61.5v-4zM1518 0h-99l47 219h-413l14 72l539 563h90 l-115 -547h143l-16 -88h-143zM215 797q8 -104 63.5 -145.5t129.5 -41.5q80 0 140 43t60 131q0 53 -28.5 87t-73.5 51q-31 10 -61.5 15t-84.5 5h-67l18 80h95q59 0 96 6t65 21q39 18 58.5 55t19.5 80q0 57 -41 94t-119 37q-66 0 -113.5 -41t-62.5 -113l-94 29q6 39 27.5 78 t56.5 68.5t84 48t111 18.5q125 0 190.5 -58.5t65.5 -146.5t-53.5 -146.5t-129.5 -68.5l-2 -4q66 -23 106 -75t40 -124q0 -47 -18.5 -93t-56.5 -83t-95.5 -59.5t-132.5 -22.5q-137 0 -213 63.5t-82 178.5z" />
<glyph unicode="&#xbf;" horiz-adv-x="940" d="M459 766l45 209h151l-45 -209h-151zM307 397q43 33 67.5 57.5t39 48t21.5 49.5t14 58q4 12 5 27.5t5 32.5h123q-10 -68 -22.5 -116t-35 -88t-58.5 -76t-93 -79l-158 -116q-27 -20 -43 -36t-33 -32q-47 -53 -67.5 -108.5t-20.5 -108.5q0 -47 16.5 -90t49.5 -76t84 -53.5 t118 -20.5q76 0 133.5 27t96.5 72t58.5 103t19.5 122q0 72 -27 147l127 -45q8 -33 12 -63.5t4 -63.5q0 -82 -31.5 -155.5t-90 -129t-139.5 -87t-181 -31.5q-92 0 -161.5 26.5t-117 71.5t-71 106.5t-23.5 129.5q0 61 16.5 119.5t57.5 115.5q20 29 50 59.5t75 65.5z" />
<glyph unicode="&#xc0;" horiz-adv-x="1226" d="M797 1542l-291 279h196l209 -279h-114zM791 1055q-10 57 -16.5 103t-12.5 91h-2q-23 -45 -43.5 -85t-48.5 -87l-318 -545h522zM41 0h-141l825 1393h131l236 -1393h-134l-67 420h-604z" />
<glyph unicode="&#xc1;" horiz-adv-x="1226" d="M709 1542l209 279h196l-291 -279h-114zM791 1055q-10 57 -16.5 103t-12.5 91h-2q-23 -45 -43.5 -85t-48.5 -87l-318 -545h522zM41 0h-141l825 1393h131l236 -1393h-134l-67 420h-604z" />
<glyph unicode="&#xc2;" horiz-adv-x="1226" d="M662 1542h-134l303 279h87l188 -279h-121l-127 166zM791 1055q-10 57 -16.5 103t-12.5 91h-2q-23 -45 -43.5 -85t-48.5 -87l-318 -545h522zM41 0h-141l825 1393h131l236 -1393h-134l-67 420h-604z" />
<glyph unicode="&#xc3;" horiz-adv-x="1226" d="M1184 1755q-14 -31 -31.5 -63.5t-40 -59t-52.5 -44t-69 -17.5t-79 16.5t-78 36.5q-35 16 -63 30.5t-50 14.5q-45 0 -65.5 -32.5t-30.5 -63.5l-86 18q8 18 22 50t38 62t57.5 51.5t78.5 21.5q35 0 69 -14.5t68 -30.5q35 -16 66 -32t61 -16q45 0 68 30t33 63zM791 1055 q-10 57 -16.5 103t-12.5 91h-2q-23 -45 -43.5 -85t-48.5 -87l-318 -545h522zM41 0h-141l825 1393h131l236 -1393h-134l-67 420h-604z" />
<glyph unicode="&#xc4;" horiz-adv-x="1226" d="M985 1759h127l-39 -186h-127zM602 1759h127l-39 -186h-127zM791 1055q-10 57 -16.5 103t-12.5 91h-2q-23 -45 -43.5 -85t-48.5 -87l-318 -545h522zM41 0h-141l825 1393h131l236 -1393h-134l-67 420h-604z" />
<glyph unicode="&#xc5;" horiz-adv-x="1226" d="M772 1677q0 -37 26.5 -62.5t61.5 -25.5t61.5 25.5t26.5 62.5t-26.5 62.5t-61.5 25.5t-61.5 -25.5t-26.5 -62.5zM694 1677q0 70 49.5 118t118.5 48q70 0 119 -48t49 -118t-49 -118t-119 -48t-119 48t-49 118zM791 1055q-10 57 -16.5 103t-12.5 91h-2q-23 -45 -43.5 -85 t-48.5 -87l-318 -545h522zM41 0h-141l825 1393h131l236 -1393h-134l-67 420h-604z" />
<glyph unicode="&#xc6;" horiz-adv-x="1859" d="M971 1014q31 145 48 212.5t15 67.5h-2q-35 -53 -93 -130t-124 -154l-391 -475h442zM-12 0h-148l1151 1393h934l-24 -113h-746l-106 -506h673l-24 -112h-674l-117 -549h787l-25 -113h-917l92 422h-508z" />
<glyph unicode="&#xc7;" horiz-adv-x="1284" d="M1171 995q-31 143 -122 225.5t-250 82.5q-139 0 -243.5 -70t-173.5 -177.5t-102.5 -239.5t-33.5 -255q0 -106 23.5 -193t71.5 -148.5t122 -95.5t174 -34q78 0 144.5 23.5t124 64.5t102.5 98.5t79 122.5l99 -73q-43 -76 -98.5 -139.5t-125 -109.5t-152.5 -73t-181 -29 l-64 -67q6 2 13.5 2h13.5q59 0 100 -34t41 -95q0 -84 -64.5 -130t-156.5 -46q-53 0 -104 18l30 58q29 -10 64 -11q49 0 89 21.5t40 72.5q0 41 -31 58.5t-68 17.5q-31 0 -63 -14l-27 47l101 107q-213 23 -320.5 170t-107.5 403q0 162 47 317.5t136 277.5t219 195.5t294 73.5 q182 0 306 -89t171 -259z" />
<glyph unicode="&#xc8;" horiz-adv-x="1191" d="M823 1542l-291 279h197l209 -279h-115zM1001 0h-954l297 1393h913l-24 -113h-784l-109 -506h711l-23 -112h-711l-118 -549h827z" />
<glyph unicode="&#xc9;" horiz-adv-x="1191" d="M676 1542l209 279h196l-290 -279h-115zM1001 0h-954l297 1393h913l-24 -113h-784l-109 -506h711l-23 -112h-711l-118 -549h827z" />
<glyph unicode="&#xca;" horiz-adv-x="1191" d="M666 1542h-134l304 279h86l188 -279h-121l-127 166zM1001 0h-954l297 1393h913l-24 -113h-784l-109 -506h711l-23 -112h-711l-118 -549h827z" />
<glyph unicode="&#xcb;" horiz-adv-x="1191" d="M1001 1759h127l-38 -186h-127zM618 1759h127l-38 -186h-127zM1001 0h-954l297 1393h913l-24 -113h-784l-109 -506h711l-23 -112h-711l-118 -549h827z" />
<glyph unicode="&#xcc;" horiz-adv-x="471" d="M412 1542l-291 279h196l209 -279h-114zM473 1393l-297 -1393h-129l297 1393h129z" />
<glyph unicode="&#xcd;" horiz-adv-x="471" d="M365 1542l208 279h197l-291 -279h-114zM473 1393l-297 -1393h-129l297 1393h129z" />
<glyph unicode="&#xce;" horiz-adv-x="471" d="M281 1542h-134l304 279h86l188 -279h-121l-127 166zM473 1393l-297 -1393h-129l297 1393h129z" />
<glyph unicode="&#xcf;" horiz-adv-x="471" d="M608 1759h127l-39 -186h-127zM225 1759h127l-39 -186h-127zM473 1393l-297 -1393h-129l297 1393h129z" />
<glyph unicode="&#xd0;" horiz-adv-x="1409" d="M371 805h413l-24 -115h-414l-123 -577h283q129 0 229.5 17t188.5 77q78 51 133 134t91 176t52.5 188.5t16.5 173.5q0 217 -154 321q-43 29 -93 45.5t-103.5 23.5t-112 9t-117.5 2h-166zM29 805h213l125 588h309q150 0 273.5 -25t212.5 -84t137.5 -158.5t48.5 -246.5 q0 -113 -24 -228.5t-70 -219t-114.5 -189.5t-160.5 -142q-59 -35 -112.5 -54t-110 -29.5t-120 -13.5t-140.5 -3h-426l147 690h-211z" />
<glyph unicode="&#xd1;" horiz-adv-x="1447" d="M1012 0l-500 1047q-29 59 -50.5 112t-27.5 74h-2q-4 -37 -11 -80t-24 -119l-221 -1034h-129l297 1393h141l504 -1047q29 -59 46.5 -100t29.5 -70h2q2 18 5 35.5t7 38t9.5 47.5t13.5 63l219 1033h129l-297 -1393h-141zM1266 1755q-14 -31 -31.5 -63.5t-40.5 -59t-52.5 -44 t-68.5 -17.5t-79 16.5t-79 36.5q-35 16 -62.5 30.5t-49.5 14.5q-45 0 -65.5 -32.5t-30.5 -63.5l-86 18q8 18 22 50t38 62t57.5 51.5t78.5 21.5q35 0 69 -14.5t68 -30.5q35 -16 66 -32t61 -16q45 0 67.5 30t33.5 63z" />
<glyph unicode="&#xd2;" horiz-adv-x="1390" d="M885 1542l-291 279h197l208 -279h-114zM635 90q92 0 170 33t140.5 90t109.5 132t77.5 159t46 171t15.5 169q0 209 -98.5 334t-292.5 125q-137 0 -240.5 -70t-174.5 -177.5t-106.5 -239.5t-35.5 -255q0 -106 23.5 -193t71.5 -148.5t121 -95.5t173 -34zM821 1417 q115 0 208 -37t159.5 -107.5t102.5 -174t36 -234.5q0 -162 -44 -321.5t-132 -285.5t-221 -204t-314 -78q-250 0 -376.5 153t-126.5 425q0 162 48 317.5t138 277.5t222 195.5t300 73.5z" />
<glyph unicode="&#xd3;" horiz-adv-x="1390" d="M735 1542l209 279h197l-291 -279h-115zM635 90q92 0 170 33t140.5 90t109.5 132t77.5 159t46 171t15.5 169q0 209 -98.5 334t-292.5 125q-137 0 -240.5 -70t-174.5 -177.5t-106.5 -239.5t-35.5 -255q0 -106 23.5 -193t71.5 -148.5t121 -95.5t173 -34zM821 1417 q115 0 208 -37t159.5 -107.5t102.5 -174t36 -234.5q0 -162 -44 -321.5t-132 -285.5t-221 -204t-314 -78q-250 0 -376.5 153t-126.5 425q0 162 48 317.5t138 277.5t222 195.5t300 73.5z" />
<glyph unicode="&#xd4;" horiz-adv-x="1390" d="M707 1542h-134l304 279h86l188 -279h-121l-127 166zM635 90q92 0 170 33t140.5 90t109.5 132t77.5 159t46 171t15.5 169q0 209 -98.5 334t-292.5 125q-137 0 -240.5 -70t-174.5 -177.5t-106.5 -239.5t-35.5 -255q0 -106 23.5 -193t71.5 -148.5t121 -95.5t173 -34z M821 1417q115 0 208 -37t159.5 -107.5t102.5 -174t36 -234.5q0 -162 -44 -321.5t-132 -285.5t-221 -204t-314 -78q-250 0 -376.5 153t-126.5 425q0 162 48 317.5t138 277.5t222 195.5t300 73.5z" />
<glyph unicode="&#xd5;" horiz-adv-x="1390" d="M1227 1755q-14 -31 -31.5 -63.5t-40 -59t-52.5 -44t-69 -17.5t-79 16.5t-78 36.5q-35 16 -63 30.5t-50 14.5q-45 0 -65.5 -32.5t-30.5 -63.5l-86 18q8 18 22 50t38 62t57.5 51.5t78.5 21.5q35 0 69 -14.5t68 -30.5q35 -16 66 -32t61 -16q45 0 68 30t33 63zM635 90 q92 0 170 33t140.5 90t109.5 132t77.5 159t46 171t15.5 169q0 209 -98.5 334t-292.5 125q-137 0 -240.5 -70t-174.5 -177.5t-106.5 -239.5t-35.5 -255q0 -106 23.5 -193t71.5 -148.5t121 -95.5t173 -34zM821 1417q115 0 208 -37t159.5 -107.5t102.5 -174t36 -234.5 q0 -162 -44 -321.5t-132 -285.5t-221 -204t-314 -78q-250 0 -376.5 153t-126.5 425q0 162 48 317.5t138 277.5t222 195.5t300 73.5z" />
<glyph unicode="&#xd6;" horiz-adv-x="1390" d="M1010 1759h127l-39 -186h-127zM627 1759h127l-39 -186h-127zM635 90q92 0 170 33t140.5 90t109.5 132t77.5 159t46 171t15.5 169q0 209 -98.5 334t-292.5 125q-137 0 -240.5 -70t-174.5 -177.5t-106.5 -239.5t-35.5 -255q0 -106 23.5 -193t71.5 -148.5t121 -95.5t173 -34 zM821 1417q115 0 208 -37t159.5 -107.5t102.5 -174t36 -234.5q0 -162 -44 -321.5t-132 -285.5t-221 -204t-314 -78q-250 0 -376.5 153t-126.5 425q0 162 48 317.5t138 277.5t222 195.5t300 73.5z" />
<glyph unicode="&#xd7;" horiz-adv-x="1413" d="M797 602l467 -467l-82 -82l-467 467l-467 -467l-82 82l467 467l-467 467l82 82l467 -467l467 467l82 -82z" />
<glyph unicode="&#xd8;" horiz-adv-x="1415" d="M262 561q0 -100 19 -180l852 768q-47 72 -125 113t-189 41q-137 0 -240.5 -70t-174 -177.5t-106.5 -239.5t-36 -255zM651 90q92 0 170 33t140.5 90t109.5 132t78 159t46 171t15 169q0 53 -6 101t-20 91l-856 -774q47 -82 126.5 -127t196.5 -45zM838 1417q129 0 229 -46 t166 -132l252 227l78 -88l-271 -243q51 -119 51 -271q0 -162 -44 -321.5t-132 -285.5t-221 -204t-313 -78q-141 0 -243.5 50.5t-164.5 144.5l-237 -215l-80 88l262 238q-41 119 -41 272q0 162 48 317.5t138.5 277.5t222.5 195.5t300 73.5z" />
<glyph unicode="&#xd9;" horiz-adv-x="1370" d="M856 1542l-291 279h197l209 -279h-115zM596 -27q-236 0 -351.5 107.5t-115.5 296.5q0 37 7 85t18 101l178 830h127l-174 -822q-10 -51 -18.5 -97t-8.5 -87q0 -299 352 -299q98 0 173 23.5t132 76.5q53 49 88 122t64 196l188 887h127l-184 -871q-31 -141 -76 -245.5 t-116 -172.5q-70 -66 -169.5 -98.5t-240.5 -32.5z" />
<glyph unicode="&#xda;" horiz-adv-x="1370" d="M739 1542l209 279h197l-291 -279h-115zM596 -27q-236 0 -351.5 107.5t-115.5 296.5q0 37 7 85t18 101l178 830h127l-174 -822q-10 -51 -18.5 -97t-8.5 -87q0 -299 352 -299q98 0 173 23.5t132 76.5q53 49 88 122t64 196l188 887h127l-184 -871q-31 -141 -76 -245.5 t-116 -172.5q-70 -66 -169.5 -98.5t-240.5 -32.5z" />
<glyph unicode="&#xdb;" horiz-adv-x="1370" d="M725 1542h-133l303 279h86l188 -279h-120l-127 166zM596 -27q-236 0 -351.5 107.5t-115.5 296.5q0 37 7 85t18 101l178 830h127l-174 -822q-10 -51 -18.5 -97t-8.5 -87q0 -299 352 -299q98 0 173 23.5t132 76.5q53 49 88 122t64 196l188 887h127l-184 -871 q-31 -141 -76 -245.5t-116 -172.5q-70 -66 -169.5 -98.5t-240.5 -32.5z" />
<glyph unicode="&#xdc;" horiz-adv-x="1370" d="M1063 1759h127l-39 -186h-127zM680 1759h127l-39 -186h-127zM596 -27q-236 0 -351.5 107.5t-115.5 296.5q0 37 7 85t18 101l178 830h127l-174 -822q-10 -51 -18.5 -97t-8.5 -87q0 -299 352 -299q98 0 173 23.5t132 76.5q53 49 88 122t64 196l188 887h127l-184 -871 q-31 -141 -76 -245.5t-116 -172.5q-70 -66 -169.5 -98.5t-240.5 -32.5z" />
<glyph unicode="&#xdd;" horiz-adv-x="1163" d="M629 1542l209 279h196l-291 -279h-114zM383 0l123 573l-330 820h137l283 -693l580 693h155l-696 -820l-123 -573h-129z" />
<glyph unicode="&#xde;" horiz-adv-x="1255" d="M702 524q117 0 180.5 14.5t108.5 45.5q57 39 93 105.5t36 168.5q0 82 -39 127t-100 68q-41 14 -94 18t-107 4h-374l-117 -551h413zM49 0l295 1393h129l-45 -205h360q119 0 187.5 -14.5t122.5 -43.5q63 -35 105 -99t42 -163q0 -135 -55 -238.5t-160 -160.5 q-55 -29 -131 -44t-209 -15h-426l-88 -410h-127z" />
<glyph unicode="&#xdf;" horiz-adv-x="966" d="M678 838q29 -6 61.5 -19.5t59 -41t44 -73t17.5 -118.5q0 -72 -22 -180q-27 -121 -61 -201t-79 -129t-100 -69.5t-125 -20.5q-66 0 -108.5 17t-67.5 46t-35 69t-10 85q0 63 16 135l13 53h94l-10 -51q-6 -29 -11.5 -59.5t-5.5 -59.5t6 -54.5t20.5 -45t39 -30.5t63.5 -11 q53 0 91 23.5t66 66.5t48 103.5t37 134.5q20 90 20 165q0 123 -65.5 164t-206.5 41h-105l19 99h80q98 0 156.5 17t101.5 52q41 35 63.5 84t22.5 121t-47 118t-146 46q-98 0 -153 -53q-39 -37 -62.5 -99.5t-44.5 -161.5l-213 -1001h-121l220 1026q27 119 57.5 194.5 t93.5 129.5q88 74 232 73q135 0 221 -64.5t86 -191.5t-63.5 -218t-186.5 -109v-2z" />
<glyph unicode="&#xe0;" horiz-adv-x="985" d="M516 1393l193 -263h-115l-270 263h192zM129 700q8 82 47 138.5t95.5 91.5t125 51t140.5 16q66 0 124 -12t101 -39.5t68.5 -74t25.5 -115.5q0 -27 -4 -55.5t-10 -57.5l-94 -442q-8 -39 -9 -62q0 -29 13.5 -43t48.5 -14q25 0 45 6t33 14l-21 -96q-14 -8 -42 -14t-58 -6 q-59 0 -96 25.5t-37 78.5q0 20 6 45l-2 2q-41 -72 -120 -117t-196 -45q-127 0 -207.5 67t-80.5 194q0 78 28.5 133t80.5 92t126 59.5t166 38.5l227 39q41 8 56.5 22.5t21.5 43.5q4 23 7 40t3 37q0 31 -10 58.5t-34.5 49t-66.5 35t-108 13.5q-137 0 -204.5 -63.5 t-77.5 -159.5zM698 520q-20 -12 -61 -20t-98 -19l-103 -18q-57 -10 -109.5 -24.5t-92 -38t-64.5 -60.5t-25 -92q0 -92 56.5 -131t142.5 -39q51 0 101.5 13t91.5 43t72.5 77t45.5 113z" />
<glyph unicode="&#xe1;" horiz-adv-x="985" d="M866 1393l-270 -263h-115l193 263h192zM129 700q8 82 47 138.5t95.5 91.5t125 51t140.5 16q66 0 124 -12t101 -39.5t68.5 -74t25.5 -115.5q0 -27 -4 -55.5t-10 -57.5l-94 -442q-8 -39 -9 -62q0 -29 13.5 -43t48.5 -14q25 0 45 6t33 14l-21 -96q-14 -8 -42 -14t-58 -6 q-59 0 -96 25.5t-37 78.5q0 20 6 45l-2 2q-41 -72 -120 -117t-196 -45q-127 0 -207.5 67t-80.5 194q0 78 28.5 133t80.5 92t126 59.5t166 38.5l227 39q41 8 56.5 22.5t21.5 43.5q4 23 7 40t3 37q0 31 -10 58.5t-34.5 49t-66.5 35t-108 13.5q-137 0 -204.5 -63.5 t-77.5 -159.5zM698 520q-20 -12 -61 -20t-98 -19l-103 -18q-57 -10 -109.5 -24.5t-92 -38t-64.5 -60.5t-25 -92q0 -92 56.5 -131t142.5 -39q51 0 101.5 13t91.5 43t72.5 77t45.5 113z" />
<glyph unicode="&#xe2;" horiz-adv-x="985" d="M326 1130l286 263h86l176 -263h-120l-111 158l-180 -158h-137zM129 700q8 82 47 138.5t95.5 91.5t125 51t140.5 16q66 0 124 -12t101 -39.5t68.5 -74t25.5 -115.5q0 -27 -4 -55.5t-10 -57.5l-94 -442q-8 -39 -9 -62q0 -29 13.5 -43t48.5 -14q25 0 45 6t33 14l-21 -96 q-14 -8 -42 -14t-58 -6q-59 0 -96 25.5t-37 78.5q0 20 6 45l-2 2q-41 -72 -120 -117t-196 -45q-127 0 -207.5 67t-80.5 194q0 78 28.5 133t80.5 92t126 59.5t166 38.5l227 39q41 8 56.5 22.5t21.5 43.5q4 23 7 40t3 37q0 31 -10 58.5t-34.5 49t-66.5 35t-108 13.5 q-137 0 -204.5 -63.5t-77.5 -159.5zM698 520q-20 -12 -61 -20t-98 -19l-103 -18q-57 -10 -109.5 -24.5t-92 -38t-64.5 -60.5t-25 -92q0 -92 56.5 -131t142.5 -39q51 0 101.5 13t91.5 43t72.5 77t45.5 113z" />
<glyph unicode="&#xe3;" horiz-adv-x="985" d="M920 1343q-14 -31 -32 -63.5t-40.5 -59t-52 -44t-68.5 -17.5t-79 16.5t-79 36.5q-35 16 -62.5 30.5t-49.5 14.5q-45 0 -65.5 -32.5t-31.5 -63.5l-86 19q8 18 22.5 50t38 61.5t57.5 51t79 21.5q35 0 68.5 -14.5t68.5 -30.5t66 -31.5t61 -15.5q45 0 67.5 29.5t33.5 62.5z M129 700q8 82 47 138.5t95.5 91.5t125 51t140.5 16q66 0 124 -12t101 -39.5t68.5 -74t25.5 -115.5q0 -27 -4 -55.5t-10 -57.5l-94 -442q-8 -39 -9 -62q0 -29 13.5 -43t48.5 -14q25 0 45 6t33 14l-21 -96q-14 -8 -42 -14t-58 -6q-59 0 -96 25.5t-37 78.5q0 20 6 45l-2 2 q-41 -72 -120 -117t-196 -45q-127 0 -207.5 67t-80.5 194q0 78 28.5 133t80.5 92t126 59.5t166 38.5l227 39q41 8 56.5 22.5t21.5 43.5q4 23 7 40t3 37q0 31 -10 58.5t-34.5 49t-66.5 35t-108 13.5q-137 0 -204.5 -63.5t-77.5 -159.5zM698 520q-20 -12 -61 -20t-98 -19 l-103 -18q-57 -10 -109.5 -24.5t-92 -38t-64.5 -60.5t-25 -92q0 -92 56.5 -131t142.5 -39q51 0 101.5 13t91.5 43t72.5 77t45.5 113z" />
<glyph unicode="&#xe4;" horiz-adv-x="985" d="M750 1346h127l-41 -187h-127zM367 1346h127l-41 -187h-127zM129 700q8 82 47 138.5t95.5 91.5t125 51t140.5 16q66 0 124 -12t101 -39.5t68.5 -74t25.5 -115.5q0 -27 -4 -55.5t-10 -57.5l-94 -442q-8 -39 -9 -62q0 -29 13.5 -43t48.5 -14q25 0 45 6t33 14l-21 -96 q-14 -8 -42 -14t-58 -6q-59 0 -96 25.5t-37 78.5q0 20 6 45l-2 2q-41 -72 -120 -117t-196 -45q-127 0 -207.5 67t-80.5 194q0 78 28.5 133t80.5 92t126 59.5t166 38.5l227 39q41 8 56.5 22.5t21.5 43.5q4 23 7 40t3 37q0 31 -10 58.5t-34.5 49t-66.5 35t-108 13.5 q-137 0 -204.5 -63.5t-77.5 -159.5zM698 520q-20 -12 -61 -20t-98 -19l-103 -18q-57 -10 -109.5 -24.5t-92 -38t-64.5 -60.5t-25 -92q0 -92 56.5 -131t142.5 -39q51 0 101.5 13t91.5 43t72.5 77t45.5 113z" />
<glyph unicode="&#xe5;" horiz-adv-x="985" d="M520 1266q0 -37 26.5 -62.5t61.5 -25.5t61.5 25.5t26.5 62.5t-26.5 62.5t-61.5 25.5t-61.5 -25.5t-26.5 -62.5zM442 1266q0 70 49.5 118t118.5 48q70 0 119 -48.5t49 -117.5q0 -70 -49 -118t-119 -48t-119 48t-49 118zM129 700q8 82 47 138.5t95.5 91.5t125 51t140.5 16 q66 0 124 -12t101 -39.5t68.5 -74t25.5 -115.5q0 -27 -4 -55.5t-10 -57.5l-94 -442q-8 -39 -9 -62q0 -29 13.5 -43t48.5 -14q25 0 45 6t33 14l-21 -96q-14 -8 -42 -14t-58 -6q-59 0 -96 25.5t-37 78.5q0 20 6 45l-2 2q-41 -72 -120 -117t-196 -45q-127 0 -207.5 67 t-80.5 194q0 78 28.5 133t80.5 92t126 59.5t166 38.5l227 39q41 8 56.5 22.5t21.5 43.5q4 23 7 40t3 37q0 31 -10 58.5t-34.5 49t-66.5 35t-108 13.5q-137 0 -204.5 -63.5t-77.5 -159.5zM698 520q-20 -12 -61 -20t-98 -19l-103 -18q-57 -10 -109.5 -24.5t-92 -38 t-64.5 -60.5t-25 -92q0 -92 56.5 -131t142.5 -39q51 0 101.5 13t91.5 43t72.5 77t45.5 113z" />
<glyph unicode="&#xe6;" horiz-adv-x="1634" d="M1171 895q-70 0 -128 -28.5t-102 -73.5t-74.5 -102.5t-45.5 -112.5h588q2 14 3 28.5t1 30.5q0 49 -12 95t-40 83t-75 58.5t-115 21.5zM698 520q-20 -12 -61 -20t-98 -19l-103 -18q-57 -10 -109.5 -24.5t-92 -38t-64.5 -60.5t-25 -92q0 -92 56.5 -131t142.5 -39 q51 0 101.5 13t91.5 43t72.5 77t45.5 113zM799 479q-6 -43 -6 -88q0 -61 14 -116.5t46 -98.5t84 -68.5t130 -25.5q76 0 131 23.5t96 57.5t69 72.5t46 71.5l92 -63q-27 -47 -63.5 -95.5t-91 -86t-125 -62.5t-164.5 -25q-272 0 -352 211q-70 -106 -162 -158.5t-221 -52.5 q-133 0 -215 67t-82 194q0 78 28.5 133t80.5 92t126 59.5t166 38.5l227 39q41 8 56.5 22.5t21.5 43.5q4 23 7 40t3 37q0 31 -10 58.5t-34.5 49t-66.5 35t-108 13.5q-137 0 -204.5 -63.5t-77.5 -159.5l-111 26q8 82 47 138.5t95.5 91.5t125 51t140.5 16q106 0 189 -32.5 t114 -116.5q68 68 153.5 108.5t190.5 40.5q94 0 161.5 -30.5t110.5 -81.5t62.5 -120t19.5 -144q0 -33 -4 -71t-12 -71h-723z" />
<glyph unicode="&#xe7;" horiz-adv-x="985" d="M823 662q-10 41 -27.5 82.5t-48 74.5t-76.5 53.5t-114 20.5q-92 0 -161.5 -47t-117 -119t-71 -161t-23.5 -171q0 -143 64.5 -228t197.5 -85q66 0 118 21.5t91 55.5t67 73.5t46 76.5l94 -63q-61 -117 -160.5 -191.5t-246.5 -79.5l-60 -67q6 2 13.5 2h13.5q59 0 100 -34 t41 -95q0 -84 -64.5 -130t-156.5 -46q-53 0 -104 18l30 58q29 -10 64 -11q49 0 89 21.5t40 72.5q0 41 -31 58.5t-68 17.5q-31 0 -63 -14l-18 47l96 107q-158 18 -237 123.5t-79 275.5q0 117 34 228.5t98.5 198.5t160 139t215.5 52q143 0 237.5 -74.5t125.5 -203.5z" />
<glyph unicode="&#xe8;" horiz-adv-x="1026" d="M555 1393l193 -263h-115l-271 263h193zM563 895q-70 0 -128 -28.5t-102 -73.5t-75 -102.5t-45 -112.5h588q2 14 3 28.5t1 30.5q0 49 -12.5 95t-40 83t-74.5 58.5t-115 21.5zM190 479q-6 -43 -6 -88q0 -61 14.5 -116.5t46 -98.5t84 -68.5t130.5 -25.5q76 0 131 23.5 t96 57.5t68.5 72.5t46.5 71.5l92 -63q-27 -47 -63.5 -95.5t-91 -86t-125 -62.5t-164.5 -25q-193 0 -290.5 106.5t-97.5 315.5q0 119 38 227.5t105.5 191.5t162 132t208.5 49q94 0 162 -30.5t111 -81.5t62.5 -120t19.5 -144q0 -33 -4 -71t-13 -71h-723z" />
<glyph unicode="&#xe9;" horiz-adv-x="1026" d="M891 1393l-270 -263h-115l192 263h193zM563 895q-70 0 -128 -28.5t-102 -73.5t-75 -102.5t-45 -112.5h588q2 14 3 28.5t1 30.5q0 49 -12.5 95t-40 83t-74.5 58.5t-115 21.5zM190 479q-6 -43 -6 -88q0 -61 14.5 -116.5t46 -98.5t84 -68.5t130.5 -25.5q76 0 131 23.5 t96 57.5t68.5 72.5t46.5 71.5l92 -63q-27 -47 -63.5 -95.5t-91 -86t-125 -62.5t-164.5 -25q-193 0 -290.5 106.5t-97.5 315.5q0 119 38 227.5t105.5 191.5t162 132t208.5 49q94 0 162 -30.5t111 -81.5t62.5 -120t19.5 -144q0 -33 -4 -71t-13 -71h-723z" />
<glyph unicode="&#xea;" horiz-adv-x="1026" d="M322 1130l286 263h86l176 -263h-120l-111 158l-180 -158h-137zM563 895q-70 0 -128 -28.5t-102 -73.5t-75 -102.5t-45 -112.5h588q2 14 3 28.5t1 30.5q0 49 -12.5 95t-40 83t-74.5 58.5t-115 21.5zM190 479q-6 -43 -6 -88q0 -61 14.5 -116.5t46 -98.5t84 -68.5 t130.5 -25.5q76 0 131 23.5t96 57.5t68.5 72.5t46.5 71.5l92 -63q-27 -47 -63.5 -95.5t-91 -86t-125 -62.5t-164.5 -25q-193 0 -290.5 106.5t-97.5 315.5q0 119 38 227.5t105.5 191.5t162 132t208.5 49q94 0 162 -30.5t111 -81.5t62.5 -120t19.5 -144q0 -33 -4 -71t-13 -71 h-723z" />
<glyph unicode="&#xeb;" horiz-adv-x="1026" d="M770 1346h127l-41 -187h-127zM387 1346h127l-41 -187h-127zM563 895q-70 0 -128 -28.5t-102 -73.5t-75 -102.5t-45 -112.5h588q2 14 3 28.5t1 30.5q0 49 -12.5 95t-40 83t-74.5 58.5t-115 21.5zM190 479q-6 -43 -6 -88q0 -61 14.5 -116.5t46 -98.5t84 -68.5t130.5 -25.5 q76 0 131 23.5t96 57.5t68.5 72.5t46.5 71.5l92 -63q-27 -47 -63.5 -95.5t-91 -86t-125 -62.5t-164.5 -25q-193 0 -290.5 106.5t-97.5 315.5q0 119 38 227.5t105.5 191.5t162 132t208.5 49q94 0 162 -30.5t111 -81.5t62.5 -120t19.5 -144q0 -33 -4 -71t-13 -71h-723z" />
<glyph unicode="&#xec;" horiz-adv-x="403" d="M188 1393l193 -263h-115l-270 263h192zM139 0h-121l207 973h121z" />
<glyph unicode="&#xed;" horiz-adv-x="403" d="M614 1393l-270 -263h-115l193 263h192zM139 0h-121l207 973h121z" />
<glyph unicode="&#xee;" horiz-adv-x="403" d="M39 1130l287 263h86l176 -263h-121l-111 158l-180 -158h-137zM139 0h-121l207 973h121z" />
<glyph unicode="&#xef;" horiz-adv-x="403" d="M494 1346h127l-41 -187h-127zM111 1346h127l-41 -187h-127zM139 0h-121l207 973h121z" />
<glyph unicode="&#xf0;" horiz-adv-x="1058" d="M553 870q-92 0 -160.5 -44t-116 -114.5t-71 -157.5t-23.5 -171q0 -147 67.5 -225t188.5 -78q94 0 164 45t117 115.5t70.5 157.5t23.5 171q0 143 -68.5 222t-191.5 79zM743 1221q-33 59 -58.5 97t-47.5 62l102 56q35 -43 63.5 -87t55.5 -98l227 70l21 -82l-211 -65 q35 -92 54.5 -199t19.5 -230q0 -139 -30 -277t-94.5 -247.5t-168 -177.5t-250.5 -68q-170 0 -268.5 104.5t-98.5 289.5q0 111 34 219t97.5 194t155.5 138.5t209 52.5q115 0 194.5 -59.5t108.5 -157.5q-2 88 -20.5 192.5t-59.5 196.5l-332 -98l-20 79z" />
<glyph unicode="&#xf1;" horiz-adv-x="1026" d="M981 1343q-14 -31 -31.5 -63.5t-40 -59t-52.5 -44t-69 -17.5t-78.5 16.5t-78.5 36.5q-35 16 -62.5 30.5t-50.5 14.5q-45 0 -65.5 -32.5t-30.5 -63.5l-86 19q8 18 22.5 50t38 61.5t57 51t78.5 21.5q35 0 69 -14.5t69 -30.5t65.5 -31.5t61.5 -15.5q45 0 67.5 29.5 t32.5 62.5zM772 0h-121l111 522q14 61 21.5 109.5t7.5 87.5q0 166 -189 166q-72 0 -130 -31t-103 -80t-74 -109.5t-41 -119.5l-115 -545h-121l207 975h121l-35 -162q18 37 52 69.5t79 58.5t96.5 41t106.5 15q131 0 200.5 -70.5t69.5 -189.5q0 -31 -6 -76t-16 -92z" />
<glyph unicode="&#xf2;" horiz-adv-x="1058" d="M578 1393l192 -263h-115l-270 263h193zM567 895q-94 0 -165.5 -46t-120 -118t-73 -161t-24.5 -177q0 -150 71 -231.5t194 -81.5q96 0 167.5 47t119.5 119.5t73 163t25 176.5q0 147 -71 228t-196 81zM59 379q0 115 34 225.5t99.5 198.5t164 141t225.5 53q178 0 277 -108.5 t99 -296.5q0 -113 -32.5 -223.5t-98 -197.5t-164 -141.5t-227.5 -54.5q-178 0 -277.5 108t-99.5 296z" />
<glyph unicode="&#xf3;" horiz-adv-x="1058" d="M897 1393l-270 -263h-115l193 263h192zM567 895q-94 0 -165.5 -46t-120 -118t-73 -161t-24.5 -177q0 -150 71 -231.5t194 -81.5q96 0 167.5 47t119.5 119.5t73 163t25 176.5q0 147 -71 228t-196 81zM59 379q0 115 34 225.5t99.5 198.5t164 141t225.5 53q178 0 277 -108.5 t99 -296.5q0 -113 -32.5 -223.5t-98 -197.5t-164 -141.5t-227.5 -54.5q-178 0 -277.5 108t-99.5 296z" />
<glyph unicode="&#xf4;" horiz-adv-x="1058" d="M362 1130l287 263h86l176 -263h-120l-111 158l-180 -158h-138zM567 895q-94 0 -165.5 -46t-120 -118t-73 -161t-24.5 -177q0 -150 71 -231.5t194 -81.5q96 0 167.5 47t119.5 119.5t73 163t25 176.5q0 147 -71 228t-196 81zM59 379q0 115 34 225.5t99.5 198.5t164 141 t225.5 53q178 0 277 -108.5t99 -296.5q0 -113 -32.5 -223.5t-98 -197.5t-164 -141.5t-227.5 -54.5q-178 0 -277.5 108t-99.5 296z" />
<glyph unicode="&#xf5;" horiz-adv-x="1058" d="M987 1343q-14 -31 -31.5 -63.5t-40 -59t-52 -44t-68.5 -17.5t-79 16.5t-79 36.5q-35 16 -62.5 30.5t-50.5 14.5q-45 0 -65.5 -32.5t-30.5 -63.5l-86 19q8 18 22.5 50t38 61.5t57.5 51t79 21.5q35 0 68.5 -14.5t68.5 -30.5t65.5 -31.5t61.5 -15.5q45 0 67.5 29.5 t32.5 62.5zM567 895q-94 0 -165.5 -46t-120 -118t-73 -161t-24.5 -177q0 -150 71 -231.5t194 -81.5q96 0 167.5 47t119.5 119.5t73 163t25 176.5q0 147 -71 228t-196 81zM59 379q0 115 34 225.5t99.5 198.5t164 141t225.5 53q178 0 277 -108.5t99 -296.5 q0 -113 -32.5 -223.5t-98 -197.5t-164 -141.5t-227.5 -54.5q-178 0 -277.5 108t-99.5 296z" />
<glyph unicode="&#xf6;" horiz-adv-x="1058" d="M795 1346h127l-41 -187h-127zM412 1346h127l-41 -187h-127zM567 895q-94 0 -165.5 -46t-120 -118t-73 -161t-24.5 -177q0 -150 71 -231.5t194 -81.5q96 0 167.5 47t119.5 119.5t73 163t25 176.5q0 147 -71 228t-196 81zM59 379q0 115 34 225.5t99.5 198.5t164 141 t225.5 53q178 0 277 -108.5t99 -296.5q0 -113 -32.5 -223.5t-98 -197.5t-164 -141.5t-227.5 -54.5q-178 0 -277.5 108t-99.5 296z" />
<glyph unicode="&#xf7;" horiz-adv-x="1636" d="M879 207v-207h-160v207h160zM879 975v-205h-160v205h160zM1489 430h-1378v117h1378v-117z" />
<glyph unicode="&#xf8;" horiz-adv-x="1056" d="M446 82q102 0 176 49t122.5 124t71 165t22.5 170q0 35 -4.5 63.5t-12.5 57.5l-555 -564q65 -65 180 -65zM184 395q0 -90 25 -157l561 573q-33 39 -83 60.5t-120 21.5q-94 0 -165.5 -47t-120 -119t-73 -161t-24.5 -171zM582 997q172 0 272 -100l145 147l80 -71l-161 -164 q20 -43 31.5 -92t11.5 -109q0 -115 -33 -228.5t-97.5 -203.5t-163 -145.5t-229.5 -55.5q-162 0 -258 84l-133 -135l-72 74l140 143q-53 96 -54 238q0 117 35 228.5t101.5 198.5t163 139t221.5 52z" />
<glyph unicode="&#xf9;" horiz-adv-x="1015" d="M547 1393l192 -263h-114l-271 263h193zM215 975h121l-111 -524q-29 -127 -28 -199q0 -82 42 -123t138 -41q72 0 130 31t102 80t73 109.5t41 119.5l115 547h120l-206 -975h-121l35 160q-18 -37 -51 -70t-77 -58.5t-96.5 -41t-107.5 -15.5q-125 0 -193.5 69t-68.5 185 q0 31 6 79t16 95z" />
<glyph unicode="&#xfa;" horiz-adv-x="1015" d="M877 1393l-271 -263h-114l192 263h193zM215 975h121l-111 -524q-29 -127 -28 -199q0 -82 42 -123t138 -41q72 0 130 31t102 80t73 109.5t41 119.5l115 547h120l-206 -975h-121l35 160q-18 -37 -51 -70t-77 -58.5t-96.5 -41t-107.5 -15.5q-125 0 -193.5 69t-68.5 185 q0 31 6 79t16 95z" />
<glyph unicode="&#xfb;" horiz-adv-x="1015" d="M332 1130l286 263h87l176 -263h-121l-111 158l-180 -158h-137zM215 975h121l-111 -524q-29 -127 -28 -199q0 -82 42 -123t138 -41q72 0 130 31t102 80t73 109.5t41 119.5l115 547h120l-206 -975h-121l35 160q-18 -37 -51 -70t-77 -58.5t-96.5 -41t-107.5 -15.5 q-125 0 -193.5 69t-68.5 185q0 31 6 79t16 95z" />
<glyph unicode="&#xfc;" horiz-adv-x="1015" d="M786 1346h127l-41 -187h-127zM403 1346h127l-41 -187h-127zM215 975h121l-111 -524q-29 -127 -28 -199q0 -82 42 -123t138 -41q72 0 130 31t102 80t73 109.5t41 119.5l115 547h120l-206 -975h-121l35 160q-18 -37 -51 -70t-77 -58.5t-96.5 -41t-107.5 -15.5 q-125 0 -193.5 69t-68.5 185q0 31 6 79t16 95z" />
<glyph unicode="&#xfd;" horiz-adv-x="911" d="M860 1393l-270 -263h-115l193 263h192zM336 326l24 -170h2q12 23 38 67.5t65 108.5l383 643h129l-670 -1106q-35 -57 -63.5 -104.5t-57.5 -81.5q-41 -49 -86 -73t-110 -24q-51 0 -81 13.5t-44 23.5l22 115q23 -18 50.5 -30.5t62.5 -12.5q59 0 96 43q14 16 31.5 40.5 t46.5 74.5l88 151l-141 971h125z" />
<glyph unicode="&#xfe;" horiz-adv-x="1087" d="M602 893q-94 0 -163.5 -49t-116 -125t-69 -165t-22.5 -171q0 -137 61.5 -220t196.5 -83q90 0 161 47t119 119.5t72.5 162t24.5 173.5q0 141 -63.5 226t-200.5 85zM-63 -389l376 1780h119l-123 -578h2q43 78 130 131t196 53q160 0 256 -102t96 -289q0 -123 -34.5 -236.5 t-99 -201.5t-159 -140.5t-211.5 -52.5q-72 0 -125 20.5t-90 52.5t-58.5 73t-29.5 84l-125 -594h-120z" />
<glyph unicode="&#xff;" horiz-adv-x="911" d="M739 1346h127l-41 -187h-127zM356 1346h127l-41 -187h-127zM336 326l24 -170h2q12 23 38 67.5t65 108.5l383 643h129l-670 -1106q-35 -57 -63.5 -104.5t-57.5 -81.5q-41 -49 -86 -73t-110 -24q-51 0 -81 13.5t-44 23.5l22 115q23 -18 50.5 -30.5t62.5 -12.5q59 0 96 43 q14 16 31.5 40.5t46.5 74.5l88 151l-141 971h125z" />
<glyph unicode="&#x132;" horiz-adv-x="1433" d="M1444 1393l-197 -930q-20 -94 -41.5 -169t-56.5 -136q-49 -86 -133 -137.5t-230 -51.5q-180 0 -274 83t-94 247v27.5t4 42.5l133 51q-4 -27 -7 -49.5t-3 -46.5q0 -106 58.5 -176t189.5 -70q104 0 164.5 45t95.5 123q20 41 34.5 92t26.5 113l203 942h127zM473 1393 l-297 -1393h-129l297 1393h129z" />
<glyph unicode="&#x133;" horiz-adv-x="845" d="M838 1192h-121l43 201h121zM791 975l-213 -993q-18 -84 -30.5 -139.5t-24 -92.5t-26 -61.5t-34.5 -44.5q-33 -33 -77 -45.5t-91 -12.5q-49 0 -90 12.5t-70 28.5l27 117q29 -23 61.5 -35t73.5 -12q70 0 95.5 47t47.5 158l230 1073h121zM393 1192h-121l41 201h121zM139 0 h-121l207 975h121z" />
<glyph unicode="&#x152;" horiz-adv-x="1857" d="M633 106q55 0 104 13.5t94 36.5l228 1061q-49 43 -114.5 67.5t-145.5 24.5q-135 0 -237.5 -69t-172.5 -175.5t-104.5 -235.5t-34.5 -251q0 -104 22.5 -191.5t69.5 -150t120 -96.5t171 -34zM1669 0h-870l8 33q-43 -16 -91 -25.5t-100 -9.5q-248 0 -372.5 151.5 t-124.5 419.5q0 162 47 314.5t136 271.5t219 190.5t296 71.5q158 0 268 -67l11 43h829l-24 -113h-701l-108 -506h626l-22 -112h-627l-119 -549h744z" />
<glyph unicode="&#x153;" horiz-adv-x="1769" d="M1307 895q-70 0 -128.5 -28.5t-102.5 -73.5t-74.5 -102.5t-45.5 -112.5h588q2 14 3 28.5t1 30.5q0 49 -12 95t-40 83t-74.5 58.5t-114.5 21.5zM440 82q102 0 176 49t120 124t67.5 165t21.5 170q0 137 -62.5 220t-201.5 83q-94 0 -164.5 -47t-118 -119t-71 -161 t-23.5 -171q0 -143 61.5 -228t194.5 -85zM836 197q-66 -98 -165.5 -160t-238.5 -62q-188 0 -279.5 109t-91.5 295q0 117 34 228.5t99.5 198.5t161 139t219.5 52q127 0 216.5 -56t128.5 -163q68 98 169 158.5t230 60.5q94 0 161.5 -30.5t110.5 -81.5t62.5 -120t19.5 -144 q0 -33 -4 -71t-12 -71h-723q-6 -43 -6 -88q0 -61 14 -116.5t46 -98.5t84 -68.5t130 -25.5q76 0 131.5 23.5t96 57.5t68.5 72.5t46 71.5l92 -63q-27 -47 -63.5 -95.5t-91 -86t-125 -62.5t-164.5 -25q-274 1 -356 222z" />
<glyph unicode="&#x178;" horiz-adv-x="1163" d="M918 1759h126l-38 -186h-127zM535 1759h127l-39 -186h-127zM383 0l123 573l-330 820h137l283 -693l580 693h155l-696 -820l-123 -573h-129z" />
<glyph unicode="&#x2c6;" horiz-adv-x="960" d="M297 1130l287 263h86l176 -263h-121l-111 158l-180 -158h-137z" />
<glyph unicode="&#x2dc;" horiz-adv-x="960" d="M922 1343q-14 -31 -32 -63.5t-40.5 -59t-52 -44t-68.5 -17.5t-79 16.5t-79 36.5q-35 16 -62.5 30.5t-49.5 14.5q-45 0 -65.5 -32.5t-31.5 -63.5l-86 19q8 18 22.5 50t38 61.5t57.5 51t79 21.5q35 0 68.5 -14.5t68.5 -30.5t66 -31.5t61 -15.5q45 0 67.5 29.5t33.5 62.5z " />
<glyph unicode="&#x2000;" horiz-adv-x="921" />
<glyph unicode="&#x2001;" horiz-adv-x="1843" />
<glyph unicode="&#x2002;" horiz-adv-x="921" />
<glyph unicode="&#x2003;" horiz-adv-x="1843" />
<glyph unicode="&#x2004;" horiz-adv-x="614" />
<glyph unicode="&#x2005;" horiz-adv-x="460" />
<glyph unicode="&#x2006;" horiz-adv-x="307" />
<glyph unicode="&#x2007;" horiz-adv-x="307" />
<glyph unicode="&#x2008;" horiz-adv-x="230" />
<glyph unicode="&#x2009;" horiz-adv-x="368" />
<glyph unicode="&#x200a;" horiz-adv-x="102" />
<glyph unicode="&#x2010;" horiz-adv-x="839" d="M682 481h-567l26 129h568z" />
<glyph unicode="&#x2011;" horiz-adv-x="839" d="M682 481h-567l26 129h568z" />
<glyph unicode="&#x2012;" horiz-adv-x="839" d="M682 481h-567l26 129h568z" />
<glyph unicode="&#x2013;" horiz-adv-x="1310" d="M1157 496h-1040l22 114h1041z" />
<glyph unicode="&#x2014;" horiz-adv-x="1701" d="M1548 496h-1431l22 114h1432z" />
<glyph unicode="&#x2018;" horiz-adv-x="397" d="M451 1341q-72 -18 -95.5 -61t-40.5 -113l-10 -43h86l-51 -233h-160l70 311q23 98 70 146.5t145 64.5z" />
<glyph unicode="&#x2019;" horiz-adv-x="395" d="M188 942q72 18 95.5 61.5t40.5 112.5l10 43h-86l51 234h160l-70 -312q-23 -98 -70 -146t-145 -65z" />
<glyph unicode="&#x201a;" horiz-adv-x="407" d="M-57 -217q72 18 95 61t40 113l10 43h-86l51 233h160l-70 -311q-23 -98 -69.5 -146t-145.5 -65z" />
<glyph unicode="&#x201c;" horiz-adv-x="667" d="M721 1341q-72 -18 -95.5 -61t-39.5 -113l-11 -43h87l-52 -233h-159l69 311q23 98 70 146.5t145 64.5zM451 1341q-72 -18 -95.5 -61t-40.5 -113l-10 -43h86l-51 -233h-160l70 311q23 98 70 146.5t145 64.5z" />
<glyph unicode="&#x201d;" horiz-adv-x="665" d="M188 942q72 18 95.5 61.5t40.5 112.5l10 43h-86l51 234h160l-70 -312q-23 -98 -70 -146t-145 -65zM459 942q72 18 95.5 61.5t39.5 112.5l10 43h-86l51 234h160l-70 -312q-23 -98 -69.5 -146t-145.5 -65z" />
<glyph unicode="&#x201e;" horiz-adv-x="677" d="M-57 -217q72 18 95 61t40 113l10 43h-86l51 233h160l-70 -311q-23 -98 -69.5 -146t-145.5 -65zM213 -217q72 18 95.5 61t39.5 113l10 43h-86l52 233h159l-69 -311q-23 -98 -70 -146t-145 -65z" />
<glyph unicode="&#x2022;" horiz-adv-x="772" d="M168 702q0 49 18.5 93.5t51 77t76.5 51t94 18.5q49 0 93 -18.5t76.5 -51t51 -76.5t18.5 -94q0 -49 -18.5 -93t-51 -76.5t-76.5 -51t-93 -18.5t-93.5 18.5t-77 51t-51 76.5t-18.5 93z" />
<glyph unicode="&#x2026;" horiz-adv-x="1779" d="M1585 233l-51 -233h-160l51 233h160zM899 233l-51 -233h-160l51 233h160zM213 233l-51 -233h-160l51 233h160z" />
<glyph unicode="&#x202f;" horiz-adv-x="368" />
<glyph unicode="&#x2030;" horiz-adv-x="2756" d="M2103 317q0 -135 52.5 -190t123.5 -55q66 0 118 42t88 107.5t56.5 147.5t20.5 161q0 111 -43 175.5t-129 64.5q-74 0 -128 -43t-89 -109.5t-52.5 -146.5t-17.5 -154zM2396 868q41 0 89 -13t88 -49t66.5 -98.5t26.5 -158.5q0 -100 -25.5 -201.5t-75.5 -184.5t-124 -135.5 t-168 -52.5q-139 0 -207.5 90.5t-68.5 241.5q0 100 26.5 200.5t77.5 180.5t126 130t169 50zM248 866q0 -135 52 -190t124 -55q66 0 118 42t88 107.5t56.5 147t20.5 161.5q0 111 -43 175.5t-129 64.5q-74 0 -128.5 -43t-89 -109.5t-52 -146.5t-17.5 -154zM541 1417 q41 0 89 -13t88 -49t66.5 -98.5t26.5 -158.5q0 -100 -25.5 -201.5t-76 -184.5t-124 -135.5t-167.5 -52.5q-139 0 -208 90.5t-69 241.5q0 100 27 200.5t78 180.5t126 130t169 50zM449 0l929 1393h113l-930 -1393h-112zM1282 317q0 -135 52 -190t124 -55q66 0 118 42t88 107.5 t56.5 147.5t20.5 161q0 111 -43 175.5t-129 64.5q-74 0 -128.5 -43t-89 -109.5t-52 -146.5t-17.5 -154zM1575 868q41 0 89 -13t88 -49t66.5 -98.5t26.5 -158.5q0 -100 -25.5 -201.5t-75.5 -184.5t-124 -135.5t-168 -52.5q-139 0 -207.5 90.5t-68.5 241.5q0 100 26.5 200.5 t77.5 180.5t126 130t169 50z" />
<glyph unicode="&#x2039;" horiz-adv-x="493" d="M129 715l334 280l-37 -170l-246 -190l162 -203l-33 -153l-213 286z" />
<glyph unicode="&#x203a;" horiz-adv-x="493" d="M389 559l-334 -280l37 172l246 194l-162 197l33 153l213 -286z" />
<glyph unicode="&#x205f;" horiz-adv-x="460" />
<glyph unicode="&#x20ac;" horiz-adv-x="1275" d="M229 614q6 82 25 162h-145l61 109h111q35 111 89 207t125.5 167.5t163 114.5t199.5 43q57 0 123 -17.5t124 -60.5t103 -115.5t64 -185.5l-119 -57q-20 147 -95 235.5t-210 88.5q-84 0 -152.5 -34t-124 -91.5t-96.5 -133t-69 -161.5h548l-63 -109h-514q-10 -41 -16.5 -81 t-10.5 -81h461l-63 -108h-402q2 -117 27.5 -196t68.5 -128t100.5 -70.5t121.5 -21.5q125 0 221 81t162 210l96 -66q-78 -147 -201 -242.5t-289 -95.5q-109 0 -189.5 38t-134 106.5t-79 166t-25.5 218.5h-174l64 108h114z" />
<glyph unicode="&#x2122;" horiz-adv-x="1959" d="M268 1393h668v-97h-283v-798h-102v798h-283v97zM1473 496h-89l-235 675q-10 27 -19.5 62t-15.5 61q0 -12 1 -31.5t1 -39v-38v-30.5v-659h-102v897h157l226 -652l35 -108q6 20 12 44.5t18 63.5l211 652h162v-897h-102v659v90t2 66l-35 -115z" />
<glyph unicode="&#x2190;" horiz-adv-x="1662" d="M721 975l-442 -436h1282v-103h-1280l440 -436h-154l-485 487l485 488h154z" />
<glyph unicode="&#x2192;" horiz-adv-x="1662" d="M1096 975l485 -488l-485 -487h-154l440 436h-1280v103h1282l-442 436h154z" />
<glyph unicode="&#x25fc;" horiz-adv-x="972" d="M0 973h973v-973h-973v973z" />
<glyph horiz-adv-x="1925" d="M1823 639h-1532l649 -639h-166l-696 696l696 697h166l-649 -639h1532v-115z" />
<glyph horiz-adv-x="1925" d="M102 754h1532l-649 639h166l696 -697l-696 -696h-166l649 639h-1532v115z" />
<glyph horiz-adv-x="1990" d="M940 1393l-649 -639h1405v639h127v-754h-1532l649 -639h-166l-696 696l696 697h166z" />
<glyph horiz-adv-x="1236" d="M240 516q0 -119 25.5 -201t68.5 -132t99 -72.5t120 -22.5q115 0 206 71.5t154.5 185.5t98.5 254t35 280q0 94 -19.5 172.5t-57.5 135t-96.5 87.5t-134.5 31q-127 0 -221 -76t-155.5 -192.5t-92 -256t-30.5 -264.5zM750 1417q66 0 140.5 -22.5t137 -81t104.5 -158.5 t42 -254q0 -109 -18.5 -219.5t-54.5 -213.5t-89.5 -192.5t-123 -156t-156.5 -105.5t-189 -39q-109 0 -189 38t-133 106.5t-79.5 166t-26.5 218.5q0 164 42 326.5t122.5 292.5t198.5 212t272 82z" />
<glyph horiz-adv-x="696" d="M274 0l228 1057q-68 -41 -149 -55.5t-160 -14.5h-35t-35 2l22 107h33q84 0 143.5 15t106.5 44q61 39 99 98.5t59 139.5h112l-297 -1393h-127z" />
<glyph horiz-adv-x="1122" d="M197 852q-12 55 -13 113q0 92 33 174t94.5 144.5t149.5 98t198 35.5q100 0 180.5 -28.5t136.5 -81t86 -123t30 -154.5q0 -123 -48.5 -223t-124 -183t-170 -155t-188.5 -137q-61 -43 -120.5 -81t-108.5 -66.5t-86 -49t-53 -29.5v-2q39 2 86 5q39 2 90 3t108 1h471 l-22 -113h-934l18 106q49 27 114.5 68t139.5 89t154 102.5t155 111.5q70 53 139.5 110.5t123 123t87 141.5t33.5 168q0 129 -79.5 207t-225.5 78q-88 0 -152.5 -29t-105.5 -76t-61.5 -110.5t-20.5 -133.5q0 -68 19 -135z" />
<glyph horiz-adv-x="1142" d="M195 1051q4 61 34.5 125.5t88 118t140.5 88t193 34.5q106 0 185 -28.5t130.5 -76.5t76 -108.5t24.5 -124.5q0 -61 -21.5 -120.5t-64.5 -106.5t-106.5 -79t-145.5 -40v-2q68 -14 119 -47t86 -78t52.5 -99t17.5 -112q0 -78 -31 -152.5t-92.5 -134t-153.5 -96.5t-215 -37 q-221 0 -338 105.5t-133 281.5l123 44q6 -68 28.5 -126.5t65.5 -101.5t104.5 -66.5t145.5 -23.5q72 0 137.5 17.5t116.5 56.5t80.5 97t29.5 142q0 104 -51 164t-131 88q-51 18 -110.5 25.5t-128.5 7.5h-113l22 105h150q104 0 167.5 11t110.5 34q70 35 108 92t38 141 q0 104 -77 170t-212 66q-82 0 -142.5 -26t-102.5 -67t-63.5 -93t-27.5 -105z" />
<glyph horiz-adv-x="1128" d="M688 483l96 461q16 82 38 162t32 125h-2q-29 -41 -90.5 -117t-140.5 -162l-443 -469h510zM705 0h-123l82 373h-670l18 86l881 942h113l-197 -918h254l-23 -110h-256z" />
<glyph horiz-adv-x="1120" d="M174 362q10 -59 37 -109t70 -88t99 -59.5t126 -21.5q74 0 142.5 27.5t121.5 81t85 134.5t32 187q0 82 -24.5 142.5t-66.5 99.5t-96.5 57t-113.5 18q-55 0 -108.5 -16t-99.5 -48t-81 -81t-53 -117l-121 39l196 785h756l-26 -113h-641l-74 -287q-12 -47 -22.5 -84 t-18.5 -65q-8 -33 -17 -60l5 -2q53 80 145 121t190 41q80 0 153 -26.5t129 -79t89 -132t33 -184.5q0 -135 -44 -236.5t-116 -171t-164 -104.5t-188 -35q-164 0 -288 83t-165 253z" />
<glyph horiz-adv-x="1171" d="M244 602q-2 -25 -3 -50.5t-1 -47.5q0 -188 81.5 -301t241.5 -113q88 0 156.5 35t115 92t71 129t24.5 146q0 63 -19.5 121.5t-59.5 103.5t-100.5 71.5t-142.5 26.5q-121 0 -217 -61.5t-147 -151.5zM1040 1030q-8 51 -30.5 100.5t-60.5 87t-90 61.5t-120 24 q-111 0 -214 -70t-173 -219q-27 -53 -48 -119t-38 -137h2q59 72 151.5 120t219.5 48q106 0 185 -36t131.5 -94.5t78 -136t25.5 -159.5q0 -96 -33 -189.5t-97.5 -168t-158.5 -121t-217 -46.5q-98 0 -178 33t-137.5 97.5t-89 159.5t-31.5 222q0 188 43 357.5t124 296.5 t197.5 201.5t263.5 74.5q160 0 265.5 -88t138.5 -229z" />
<glyph horiz-adv-x="1021" d="M1147 1294q-123 -139 -237.5 -289.5t-213 -313.5t-177.5 -336t-130 -355h-135q84 299 239.5 569.5t354.5 526.5q37 47 75 92t78 92v2q-35 -2 -97 -2h-126h-446l-66 -313h-121l91 426h933z" />
<glyph horiz-adv-x="1189" d="M362 1049q0 -51 17.5 -96.5t53.5 -78t92.5 -52t133.5 -19.5q164 0 246 76.5t82 197.5q0 102 -79 167t-218 65q-82 0 -143.5 -22.5t-102.5 -58.5t-61.5 -82t-20.5 -97zM195 375q0 -129 90 -208t252 -79q176 0 278.5 82t102.5 231q0 135 -93.5 212t-253.5 77 q-96 0 -167.5 -26.5t-117.5 -70.5t-68.5 -100.5t-22.5 -117.5zM440 762q-92 31 -148 101.5t-56 187.5q0 72 31.5 138t91 116.5t143.5 81t188 30.5q201 0 315.5 -89t114.5 -238q0 -141 -83 -233.5t-236 -121.5q129 -43 188.5 -130t59.5 -210q0 -90 -34 -166.5t-98.5 -133 t-161 -88.5t-220.5 -32q-231 0 -350 103.5t-119 273.5q0 74 23.5 140.5t70.5 121t116.5 92.5t163.5 56z" />
<glyph horiz-adv-x="1167" d="M975 793q2 25 3 50t1 48q0 188 -82 301t-242 113q-88 0 -156.5 -35t-114.5 -92.5t-70.5 -129t-24.5 -145.5q0 -63 19.5 -121.5t59.5 -103.5t100 -71.5t142 -26.5q121 0 217.5 61.5t147.5 151.5zM178 362q8 -51 30.5 -100t60.5 -87t90.5 -60.5t119.5 -22.5 q111 0 214.5 68.5t172.5 218.5q27 53 48.5 118.5t37.5 137.5h-2q-59 -72 -151 -120t-219 -48q-106 0 -185.5 36t-131.5 94t-77.5 135t-25.5 161q0 94 32.5 188.5t97 169t159 120.5t217.5 46q98 0 178 -32.5t137 -97t89 -161t32 -221.5q0 -188 -43 -357t-124 -296 t-197.5 -202t-264.5 -75q-160 0 -265.5 88.5t-137.5 229.5z" />
<glyph horiz-adv-x="1638" d="M1153 375q70 0 131.5 45t105.5 116.5t69.5 164t25.5 186.5q0 96 -29 189t-90 166t-159.5 118t-237.5 45q-178 0 -316.5 -72.5t-233.5 -189.5t-144.5 -261.5t-49.5 -287.5q0 -115 35 -222.5t105.5 -189.5t180 -131t259.5 -49q82 0 166 18.5t163.5 53.5t150.5 86t130 119 l21 -103q-123 -133 -291 -201.5t-342 -68.5q-176 0 -306 55t-215 149.5t-127 217.5t-42 256q0 160 58 323.5t169 294.5t271.5 214t367.5 83q162 0 277.5 -52t190.5 -136t109.5 -191.5t34.5 -220.5q0 -115 -33.5 -225.5t-93 -196.5t-142.5 -139t-181 -53q-59 0 -99.5 20.5 t-40.5 75.5q0 16 3 27l-3 2q-35 -59 -102.5 -96.5t-169.5 -37.5q-111 0 -181.5 58.5t-70.5 169.5q0 68 24.5 115t70.5 79.5t111 52t144 33.5l197 35q37 6 50 18.5t18 39.5q4 18 7 34.5t3 32.5q0 27 -9.5 51.5t-31 43t-58 29.5t-92.5 11q-121 0 -179 -55t-68 -139l-97 22 q8 72 42 121t83 80t109.5 45t122.5 14q57 0 107 -10t88 -34.5t59.5 -65.5t21.5 -101q0 -49 -12 -98l-82 -381q-6 -37 -6 -53q0 -49 53 -49zM1063 752q-16 -10 -53 -17.5t-86 -17.5l-88 -17q-49 -8 -95.5 -20t-81 -32.5t-56 -52.5t-21.5 -81q0 -80 50 -113.5t124 -33.5 q45 0 88 12t80 37.5t63.5 65.5t38.5 98z" />
<glyph horiz-adv-x="528" d="M350 -160h-121v1716h121v-1716z" />
<glyph horiz-adv-x="1345" d="M756 82h-117v551h-543v115h543v548h117v-548h540v-115h-540v-551z" />
<glyph horiz-adv-x="1503" d="M1335 102h-1200v117h1200v-117zM795 322h-117v442h-543v115h543v438h117v-438h540v-115h-540v-442z" />
<glyph horiz-adv-x="1417" d="M809 664l467 -467l-82 -82l-467 467l-467 -467l-82 82l467 467l-467 466l82 82l467 -467l467 467l82 -82z" />
<glyph horiz-adv-x="1634" d="M920 412v-207h-160v207h160zM920 1180v-205h-160v205h160zM1530 635h-1378v117h1378v-117z" />
<glyph horiz-adv-x="1769" d="M1587 797h-1378v116h1378v-116zM1587 440h-1378v115h1378v-115z" />
<glyph horiz-adv-x="1097" d="M958 453h-120v368h-691v109h811v-477z" />
<glyph horiz-adv-x="499" d="M207 -172q-113 322 -113 614q0 299 112.5 575.5t346.5 543.5l106 -11q-225 -276 -334.5 -545.5t-109.5 -570.5q0 -276 92 -598z" />
<glyph horiz-adv-x="497" d="M338 1561q55 -160 85 -312.5t30 -302.5q0 -299 -113 -575.5t-346 -542.5l-105 10q225 276 334 545.5t109 570.5q0 274 -92 598z" />
<glyph horiz-adv-x="837" d="M696 563h-567l27 129h567z" />
<glyph horiz-adv-x="552" d="M338 -160h-342l364 1716h345l-21 -98h-223l-324 -1519h223z" />
<glyph horiz-adv-x="552" d="M266 1556h342l-364 -1716h-344l20 99h223l324 1519h-223z" />
<glyph horiz-adv-x="552" d="M203 743q59 -29 84.5 -71.5t25.5 -106.5q0 -49 -12 -110l-70 -330q-8 -35 -13 -62.5t-5 -50.5q0 -45 28.5 -64.5t104.5 -19.5h12l-18 -88q-14 0 -26.5 -1t-24.5 -1q-115 0 -160 35t-45 113q0 39 10 89t25 109l51 228q27 109 27 174q0 47 -21.5 77.5t-81.5 49.5l21 82 q51 6 82.5 21t52 46t33 80t26.5 123l49 250q14 78 36 126t51.5 74.5t70.5 36t96 9.5h40t44 -5l-18 -88h-53q-39 0 -62.5 -9t-40 -32.5t-28 -62.5t-23.5 -98l-47 -234q-12 -66 -26.5 -113t-38 -81.5t-61.5 -57.5t-95 -37z" />
<glyph horiz-adv-x="550" d="M410 692q-59 29 -85 72t-26 106q0 49 12 111l62 291q8 35 13 62.5t5 49.5q0 45 -28.5 64.5t-104.5 19.5h-12l18 88h17q8 0 16 1.5t18 1.5q115 0 160 -35t45 -113q0 -39 -10 -89t-25 -110l-43 -188q-27 -109 -26 -174q0 -47 21.5 -78t80.5 -49l-20 -82q-53 -6 -84 -21.5 t-51.5 -46t-33 -80t-26.5 -122.5l-57 -291q-16 -78 -37 -126t-50.5 -74.5t-70.5 -36t-96 -9.5h-40t-44 4l18 88h54q39 0 62.5 9.5t39.5 32t27.5 62.5t23.5 99l55 274q12 63 26.5 111.5t38 83.5t61 57.5t96.5 36.5z" />
<glyph horiz-adv-x="784" d="M430 776l334 281l-37 -170l-246 -191l162 -202l-33 -154l-213 287zM129 776l334 281l-37 -170l-246 -191l162 -202l-33 -154l-213 287z" />
<glyph horiz-adv-x="839" d="M698 563h-567l27 129h567z" />
<glyph horiz-adv-x="780" d="M401 621l-333 -281l36 172l246 195l-162 196l33 154l213 -287zM702 621l-333 -281l37 172l245 195l-162 196l33 154l213 -287z" />
<glyph horiz-adv-x="1308" d="M1174 578h-1041l23 114h1040z" />
<glyph horiz-adv-x="1699" d="M1565 578h-1432l23 114h1431z" />
<glyph horiz-adv-x="483" d="M129 776l334 281l-37 -170l-246 -191l162 -202l-33 -154l-213 287z" />
<glyph horiz-adv-x="479" d="M401 621l-333 -281l36 172l246 195l-162 196l33 154l213 -287z" />
<glyph horiz-adv-x="552" d="M362 -160h-120v662h120v-662zM362 895h-120v661h120v-661z" />
<glyph horiz-adv-x="403" d="M393 1192h-121l41 201h121zM139 0h-121l207 975h121z" />
<glyph d="M225 516q0 -119 25.5 -201t68.5 -132t99.5 -72.5t120.5 -22.5q115 0 206 71.5t154.5 185.5t98 254t34.5 280q0 94 -19.5 172.5t-57 135t-96 87.5t-134.5 31q-127 0 -221 -76t-155.5 -192.5t-92.5 -256t-31 -264.5zM735 1417q66 0 140.5 -22.5t137 -81t104.5 -158.5 t42 -254q0 -109 -18.5 -219.5t-54 -213.5t-89 -192.5t-123 -156t-156.5 -105.5t-190 -39q-109 0 -188.5 38t-132.5 106.5t-80 166t-27 218.5q0 164 42 326.5t123 292.5t198.5 212t271.5 82z" />
<glyph d="M305 201q43 -59 103.5 -86t130.5 -27q115 0 206 71.5t154.5 185.5t98 254t34.5 280q0 59 -8 113.5t-25 101.5zM946 1196q-39 51 -94 80t-127 29q-127 0 -221 -76t-155.5 -192.5t-92.5 -256t-31 -264.5q0 -66 7.5 -118t21.5 -95zM735 1417q66 0 140.5 -22.5t137 -81 t104.5 -158.5t42 -254q0 -109 -18.5 -219.5t-54 -213.5t-89 -192.5t-123 -156t-156.5 -105.5t-190 -39q-109 0 -188.5 38t-132.5 106.5t-80 166t-27 218.5q0 164 42 326.5t123 292.5t198.5 212t271.5 82z" />
<glyph d="M530 0l228 1057q-68 -41 -149 -55.5t-160 -14.5h-35t-35 2l22 107h33q84 0 143.5 15t106.5 44q61 39 99 98.5t59 139.5h112l-297 -1393h-127z" />
<glyph d="M240 852q-12 55 -13 113q0 92 33 174t94.5 144.5t149.5 98t198 35.5q100 0 180.5 -28.5t136.5 -81t86 -123t30 -154.5q0 -123 -48.5 -223t-124 -183t-170 -155t-188.5 -137q-61 -43 -120.5 -81t-108.5 -66.5t-86 -49t-53 -29.5v-2q39 2 86 5q39 2 90 3t108 1h471 l-22 -113h-934l18 106q49 27 114.5 68t139.5 89t154 102.5t155 111.5q70 53 139.5 110.5t123 123t87 141.5t33.5 168q0 129 -79.5 207t-225.5 78q-88 0 -152.5 -29t-105.5 -76t-61.5 -110.5t-20.5 -133.5q0 -68 19 -135z" />
<glyph d="M227 1051q4 61 35 125.5t88.5 118t140 88t193.5 34.5q106 0 185 -28.5t130.5 -76.5t76 -108.5t24.5 -124.5q0 -61 -21.5 -120.5t-64.5 -106.5t-106.5 -79t-145.5 -40v-2q68 -14 119 -47t85.5 -78t52 -99t17.5 -112q0 -78 -30.5 -152.5t-92 -134t-153.5 -96.5t-215 -37 q-221 0 -338 105.5t-133 281.5l123 44q6 -68 28.5 -126.5t65.5 -101.5t104.5 -66.5t145.5 -23.5q72 0 137 17.5t116.5 56.5t81 97t29.5 142q0 104 -51 164t-131 88q-51 18 -110.5 25.5t-129.5 7.5h-112l22 105h150q104 0 167.5 11t110.5 34q70 35 108 92t38 141 q0 104 -77 170t-212 66q-82 0 -142.5 -26t-102.5 -67t-63.5 -93t-27.5 -105z" />
<glyph d="M727 483l96 461q16 82 38 162t32 125h-2q-29 -41 -90.5 -117t-141.5 -162l-442 -469h510zM743 0h-122l81 373h-669l18 86l881 942h112l-196 -918h254l-23 -110h-256z" />
<glyph d="M217 362q10 -59 37 -109t70 -88t99 -59.5t126 -21.5q74 0 142.5 27.5t121.5 81t85 134.5t32 187q0 82 -24.5 142.5t-66.5 99.5t-96.5 57t-113.5 18q-55 0 -108.5 -16t-99.5 -48t-81 -81t-53 -117l-121 39l196 785h756l-26 -113h-641l-74 -287q-12 -47 -22.5 -84 t-18.5 -65q-8 -33 -17 -60l5 -2q53 80 145 121t190 41q80 0 153 -26.5t129 -79t89 -132t33 -184.5q0 -135 -44 -236.5t-116 -171t-164 -104.5t-188 -35q-164 0 -288 83t-165 253z" />
<glyph d="M262 602q-2 -25 -3 -50.5t-1 -47.5q0 -188 82 -301t242 -113q88 0 156.5 35t114.5 92t70.5 129t24.5 146q0 63 -19.5 121.5t-59.5 103.5t-100 71.5t-142 26.5q-121 0 -217.5 -61.5t-147.5 -151.5zM1059 1030q-8 51 -30.5 100.5t-60.5 87t-90.5 61.5t-119.5 24 q-111 0 -214.5 -70t-172.5 -219q-27 -53 -48.5 -119t-37.5 -137h2q59 72 151 120t219 48q106 0 185.5 -36t131.5 -94.5t77.5 -136t25.5 -159.5q0 -96 -32.5 -189.5t-97 -168t-159 -121t-217.5 -46.5q-98 0 -178 33t-137 97.5t-89 159.5t-32 222q0 188 43 357.5t124 296.5 t197.5 201.5t264.5 74.5q160 0 265.5 -88t137.5 -229z" />
<glyph d="M1239 1294q-123 -139 -237.5 -289.5t-213 -313.5t-177.5 -336t-130 -355h-135q84 299 239.5 569.5t354.5 526.5q37 47 75 92t79 92v2q-35 -2 -97.5 -2h-126.5h-446l-66 -313h-120l90 426h934z" />
<glyph d="M371 1049q0 -51 17.5 -96.5t53 -78t92 -52t134.5 -19.5q164 0 245.5 76.5t81.5 197.5q0 102 -78.5 167t-218.5 65q-82 0 -143 -22.5t-102 -58.5t-61.5 -82t-20.5 -97zM203 375q0 -129 90 -208t252 -79q176 0 278.5 82t102.5 231q0 135 -93.5 212t-252.5 77 q-96 0 -168 -26.5t-118 -70.5t-68.5 -100.5t-22.5 -117.5zM449 762q-92 31 -148.5 101.5t-56.5 187.5q0 72 31.5 138t91 116.5t143.5 81t188 30.5q201 0 315.5 -89t114.5 -238q0 -141 -82.5 -233.5t-236.5 -121.5q129 -43 188.5 -130t59.5 -210q0 -90 -34 -166.5t-98.5 -133 t-160.5 -88.5t-221 -32q-231 0 -350 103.5t-119 273.5q0 74 23.5 140.5t70.5 121t117 92.5t164 56z" />
<glyph d="M995 793q2 25 3 50t1 48q0 188 -81.5 301t-241.5 113q-88 0 -156.5 -35t-115 -92.5t-71 -129t-24.5 -145.5q0 -63 19.5 -121.5t59.5 -103.5t100.5 -71.5t142.5 -26.5q121 0 217 61.5t147 151.5zM199 362q8 -51 30.5 -100t60.5 -87t90 -60.5t120 -22.5q111 0 214 68.5 t173 218.5q27 53 48 118.5t38 137.5h-2q-59 -72 -151.5 -120t-219.5 -48q-106 0 -185 36t-131.5 94t-78 135t-25.5 161q0 94 33 188.5t97.5 169t158.5 120.5t217 46q98 0 178 -32.5t137.5 -97t89 -161t31.5 -221.5q0 -188 -43 -357t-124 -296t-197.5 -202t-263.5 -75 q-160 0 -265.5 88.5t-138.5 229.5z" />
</font>
</defs>
</svg>
