<?xml version="1.0" standalone="no"?>
<!DOCTYPE svg PUBLIC "-//W3C//DTD SVG 1.1//EN" "http://www.w3.org/Graphics/SVG/1.1/DTD/svg11.dtd" >
<svg xmlns="http://www.w3.org/2000/svg" xmlns:xlink="http://www.w3.org/1999/xlink" version="1.1">
<metadata></metadata>
<defs>
<font id="theinhardtultralight" horiz-adv-x="1208" >
<font-face units-per-em="2048" ascent="1642" descent="-406" />
<missing-glyph horiz-adv-x="409" />
<glyph unicode="&#xfb01;" horiz-adv-x="1038" d="M598 932h-287v-932h-45v932h-223v43h223v217q0 72 11.5 105.5t33.5 58.5q29 33 72 47t90 14q37 0 68.5 -8t56.5 -18v-50q-27 14 -58.5 23.5t-70.5 9.5q-41 0 -77 -13t-58 -46q-10 -16 -16.5 -41t-6.5 -72v-227h287v-43zM874 1159h-45v236h45v-236zM874 0h-45v975h45v-975 z" />
<glyph unicode="&#xfb02;" horiz-adv-x="1056" d="M598 932h-287v-932h-45v932h-223v43h223v217q0 72 11.5 105.5t33.5 58.5q29 33 72 47t90 14q37 0 68.5 -8t56.5 -18v-50q-27 14 -58.5 23.5t-70.5 9.5q-41 0 -77 -13t-58 -46q-10 -16 -16.5 -41t-6.5 -72v-227h287v-43zM874 0h-45v1393h45v-1393z" />
<glyph horiz-adv-x="0" />
<glyph horiz-adv-x="682" />
<glyph horiz-adv-x="0" />
<glyph horiz-adv-x="0" />
<glyph unicode="&#xd;" horiz-adv-x="1724" d="M1561 467h-1397l469 -467h-66l-485 487l485 488h66l-471 -465h1354v465h45v-508z" />
<glyph unicode=" "  horiz-adv-x="409" />
<glyph unicode="&#x09;" horiz-adv-x="409" />
<glyph unicode="&#xa0;" horiz-adv-x="409" />
<glyph unicode="!" horiz-adv-x="401" d="M223 0h-45v233h45v-233zM217 360h-33l-6 330v703h45v-703z" />
<glyph unicode="&#x22;" horiz-adv-x="548" d="M397 836h-28l-9 229v328h46v-328zM180 836h-28l-9 229v328h45v-328z" />
<glyph unicode="#" horiz-adv-x="1427" d="M485 483h375l66 410h-375zM1335 893h-362l-66 -410h375v-41h-381l-72 -442h-45l70 442h-375l-71 -442h-46l70 442h-340v41h346l66 410h-359v43h367l74 457h45l-74 -457h377l74 457h45l-74 -457h356v-43z" />
<glyph unicode="$" horiz-adv-x="1138" d="M168 1055q0 -68 24.5 -116t68.5 -82t107.5 -56.5t143.5 -38.5l33 -8v600q-84 0 -152.5 -21.5t-119 -60.5t-78 -94t-27.5 -123zM588 700v-661h8q207 2 314.5 94t107.5 242q0 129 -88 198.5t-248 104.5zM961 1163q-68 78 -161 129t-212 60v-607l102 -22q180 -41 276.5 -119 t96.5 -229q0 -80 -29.5 -148.5t-88 -119t-147.5 -80t-206 -29.5h-4v-197h-43v199q-92 6 -168 31.5t-135.5 64.5t-102.5 87t-67 98l37 34q49 -104 160.5 -183t275.5 -91v670l-45 10q-72 14 -139.5 35.5t-121 58.5t-86 93.5t-32.5 140.5q0 78 31.5 141t88 108t134.5 70t170 27 v202h43v-204q137 -8 240.5 -65.5t158.5 -125.5z" />
<glyph unicode="%" horiz-adv-x="1859" d="M1454 829q-74 0 -125 -33.5t-84 -89t-47 -129t-14 -153.5q0 -82 14 -155.5t47 -130t84 -89.5t125 -33t125 33t84 89.5t47 130t14 155.5q0 80 -14 153.5t-47 129t-84 89t-125 33.5zM1452 -27q-88 0 -148.5 37t-97.5 97.5t-52 138.5t-15 162q0 86 14 168.5t50 148.5 t97.5 106.5t155.5 40.5q92 0 152.5 -40.5t96.5 -106.5t50 -148.5t14 -168.5q0 -84 -16 -162t-54 -138.5t-98.5 -97.5t-148.5 -37zM584 0h-49l729 1393h47zM406 1374q-74 0 -125.5 -33.5t-84 -89t-47 -129t-14.5 -153.5q0 -82 14.5 -156t47 -130t84 -89t125.5 -33t125 33 t83.5 89t47 130t14.5 156q0 80 -14.5 153.5t-47 129t-83.5 89t-125 33.5zM403 518q-88 0 -148 37t-97 97.5t-52.5 138t-15.5 161.5q0 86 14.5 169t50 148.5t97 106.5t156.5 41q92 0 152.5 -41t96 -106.5t50 -148.5t14.5 -169q0 -84 -16.5 -161.5t-54.5 -138t-98.5 -97.5 t-148.5 -37z" />
<glyph unicode="&#x26;" horiz-adv-x="1212" d="M532 803q127 66 207 147.5t80 198.5q0 57 -20.5 99t-53 70t-76.5 41t-89 13q-51 0 -97.5 -14.5t-80 -42t-54 -67.5t-20.5 -89q0 -45 10 -81t27.5 -66.5t40 -59t47.5 -55.5zM516 748l-22 -13q-68 -37 -131.5 -72.5t-112.5 -80.5t-79 -102.5t-30 -133.5q0 -84 31 -145.5 t82 -101.5t117.5 -60.5t138.5 -20.5q121 0 232.5 56.5t179.5 183.5zM1081 575q-16 -72 -40.5 -149.5t-65.5 -159.5l223 -266h-57l-189 225q-82 -135 -195.5 -192.5t-254.5 -57.5q-80 0 -153 22.5t-129 69t-90 116t-34 163.5q0 82 30 143.5t82 112.5t125 94t156 86l-75 90 q-20 25 -44 53.5t-43.5 63.5t-31.5 75t-12 89q0 51 19.5 98t56 83t92 57.5t129.5 21.5t128 -22.5t88.5 -58.5t51 -83t16.5 -96q0 -109 -69.5 -203t-239.5 -182l391 -469q39 86 61.5 165t36.5 150z" />
<glyph unicode="'" horiz-adv-x="331" d="M180 836h-28l-9 229v328h45v-328z" />
<glyph unicode="(" horiz-adv-x="434" d="M328 -330q-104 199 -159.5 418t-55.5 449q0 223 54 442t155 418l43 -6q-102 -201 -154.5 -416t-52.5 -438q0 -225 53 -442.5t162 -416.5z" />
<glyph unicode=")" horiz-adv-x="434" d="M61 -322q109 199 162 416t53 443q0 223 -52 438t-154 416l43 6q100 -199 154.5 -418t54.5 -442q0 -229 -55.5 -448.5t-160.5 -418.5z" />
<glyph unicode="*" horiz-adv-x="899" d="M469 1059l317 104l11 -39l-316 -100l197 -270l-35 -23l-192 270l-197 -272l-33 27l197 266l-318 102l15 41l315 -106l-2 334h43z" />
<glyph unicode="+" horiz-adv-x="1363" d="M702 1208v-583h580v-43h-580v-582h-43v582h-577v43h577v583h43z" />
<glyph unicode="," horiz-adv-x="327" d="M186 233v-292q0 -109 -21.5 -170.5t-72.5 -96.5v54q27 27 38 72.5t11 129.5v303h45z" />
<glyph unicode="-" horiz-adv-x="849" d="M141 569h568v-43h-568v43z" />
<glyph unicode="." horiz-adv-x="327" d="M186 0h-45v233h45v-233z" />
<glyph unicode="/" horiz-adv-x="890" d="M838 1393l-734 -1393h-51l733 1393h52z" />
<glyph unicode="0" horiz-adv-x="1232" d="M616 -25q-137 0 -231 58.5t-151.5 158t-82 229.5t-24.5 273q0 154 28.5 286t89 229.5t152.5 152.5t219 55t219.5 -55t153 -152.5t89 -229.5t28.5 -286q0 -143 -24.5 -273t-82 -229.5t-152 -158t-231.5 -58.5zM616 1374q-111 0 -193.5 -52t-138 -143.5t-83 -215 t-27.5 -265.5q0 -133 21.5 -254.5t72.5 -217t136 -152t212 -56.5q129 0 214 56.5t136.5 152t72 217t20.5 254.5q0 141 -26.5 265t-82 215.5t-138.5 143.5t-196 52z" />
<glyph unicode="1" horiz-adv-x="655" d="M461 0h-45v1198q-14 -27 -38 -53.5t-60.5 -47t-89 -32.5t-122.5 -12h-28.5t-22.5 2v41h43q84 0 134.5 15t91.5 44q53 39 71.5 98.5t22.5 139.5h43v-1393z" />
<glyph unicode="2" horiz-adv-x="1110" d="M997 0h-882v39q45 31 106.5 76t130 97t139 110.5t136.5 115.5q61 53 117.5 109.5t99.5 121t68.5 139.5t25.5 165q0 96 -30.5 171t-85 126t-126 77.5t-151.5 26.5q-96 0 -168 -30.5t-119 -81t-70.5 -117t-23.5 -137.5q0 -109 47 -205l-57 12q-20 49 -28.5 99.5t-8.5 95.5 q0 82 27.5 155.5t82 130t134 89t184.5 32.5q113 0 195.5 -35.5t137 -95t81 -140.5t26.5 -169q0 -106 -36 -196.5t-94 -168t-132 -145.5t-150 -131q-51 -43 -113.5 -91t-118.5 -91t-101 -74t-62 -39v-2q35 2 88 3t111 1h620v-43z" />
<glyph unicode="3" horiz-adv-x="1120" d="M133 1122q2 39 24.5 90.5t73 97.5t129 76.5t191.5 30.5q102 0 179 -26.5t128 -72.5t77 -108.5t26 -132.5q0 -137 -81 -224t-243 -110v-2q78 -6 143.5 -30.5t113.5 -69.5t75.5 -111.5t27.5 -156.5q0 -88 -32.5 -161t-91 -125t-142.5 -82t-184 -30q-193 0 -310.5 90.5 t-134.5 253.5q6 4 14.5 10.5t14.5 12.5q8 8 16 14q6 -94 42 -158.5t91.5 -104.5t125 -57.5t143.5 -17.5q82 0 154.5 24t128 70t87 112.5t31.5 152.5q0 117 -50 187.5t-130 107.5q-53 27 -129 37t-215 10h-76v41h58q63 0 110 2t84 7t66.5 13.5t58.5 20.5q78 31 133 95.5 t55 168.5q0 66 -24.5 122t-70.5 97t-114.5 64.5t-154.5 23.5q-84 0 -151.5 -22.5t-117 -61.5t-77 -89t-33.5 -107z" />
<glyph unicode="4" horiz-adv-x="1124" d="M700 438v600v160t5 117h-3q-20 -41 -64 -111.5t-106 -156.5l-423 -609h591zM745 0h-45v395h-651v29l662 969h34v-955h320v-43h-320v-395z" />
<glyph unicode="5" horiz-adv-x="1099" d="M203 723h2q14 27 42.5 61.5t75 63.5t110 49.5t142.5 20.5q90 0 168 -30t135.5 -88.5t90 -143.5t32.5 -193q0 -104 -29.5 -193.5t-88 -155t-144.5 -102.5t-198 -37q-164 0 -274.5 80t-155.5 217l41 41q12 -55 42.5 -108t80 -95t116 -67t150.5 -25q92 0 167.5 31t131 88.5 t86 139t30.5 186.5q0 86 -26.5 160.5t-76.5 130t-125 88t-169 32.5q-135 0 -235.5 -76.5t-137.5 -201.5l-34 10l43 787h716v-43h-673z" />
<glyph unicode="6" horiz-adv-x="1163" d="M1004 440q0 106 -33 183t-88.5 127.5t-127 75t-147.5 24.5q-66 0 -130 -17.5t-121.5 -51t-103.5 -83t-75 -112.5q14 -281 123 -424.5t311 -143.5q80 0 152 29t125 83t84 133t31 177zM973 1106q-10 41 -31.5 88t-62.5 87t-103.5 66.5t-152.5 26.5q-225 0 -338 -190.5 t-113 -532.5q31 57 79 102.5t105.5 76t123 47t132.5 16.5q84 0 163 -26.5t140.5 -81t98.5 -138.5t37 -198q0 -96 -29 -181.5t-84 -151t-137 -103.5t-189 -38q-111 0 -200.5 39t-152 123t-97.5 219.5t-35 325.5q0 170 31.5 306t95 231.5t156 146.5t215.5 51q160 0 256 -75.5 t131 -192.5z" />
<glyph unicode="7" horiz-adv-x="1032" d="M1012 1358q-104 -150 -196.5 -312.5t-158.5 -320.5q-72 -178 -117.5 -357.5t-60.5 -367.5h-49q10 190 62.5 380.5t130.5 371.5q33 80 73.5 160.5t83.5 157.5t88 147.5t86 132.5h-825v-359h-45v402h928v-35z" />
<glyph unicode="8" horiz-adv-x="1191" d="M596 -25q-102 0 -189.5 22.5t-149.5 70t-98 121t-36 178.5q0 143 85 242.5t257 127.5q-150 27 -227.5 117t-77.5 221q0 164 116.5 253t319.5 89t319.5 -89t116.5 -253q0 -131 -77.5 -221t-227.5 -117q172 -29 257 -128t85 -242q0 -104 -36 -178t-98.5 -121.5t-149.5 -70 t-189 -22.5zM596 717q-92 0 -171 -23.5t-135.5 -68.5t-88 -110.5t-31.5 -147.5q0 -168 110.5 -258.5t315.5 -90.5t315.5 90.5t110.5 258.5q0 82 -32 147.5t-88 110.5t-135 68.5t-171 23.5zM596 1374q-186 0 -287.5 -80t-101.5 -221q0 -76 29.5 -135t82 -99t123 -61.5 t154.5 -21.5q82 0 153.5 21.5t124 61.5t82 99t29.5 135q0 141 -101.5 221t-287.5 80z" />
<glyph unicode="9" horiz-adv-x="1165" d="M160 952q0 -106 32.5 -183t88 -127t127 -74.5t147.5 -24.5q66 0 130.5 17.5t121.5 51t103 82.5t75 113q-14 281 -122.5 424t-311.5 143q-80 0 -151.5 -28.5t-125 -83t-84 -133.5t-30.5 -177zM190 287q8 -41 31 -88t64 -87t103.5 -67t152.5 -27q225 0 337.5 190.5 t112.5 532.5q-31 -57 -79 -102t-105 -76t-123 -47t-133 -16q-84 0 -163 26.5t-140.5 81t-98 138t-36.5 198.5q0 94 27.5 180t83 151.5t137 103.5t190.5 38q111 0 201 -39t152.5 -123t97 -219t34.5 -325q0 -170 -31.5 -306.5t-95 -231.5t-155.5 -146.5t-215 -51.5 q-160 0 -256.5 76t-130.5 193z" />
<glyph unicode=":" horiz-adv-x="362" d="M205 741h-45v234h45v-234zM205 0h-45v233h45v-233z" />
<glyph unicode=";" horiz-adv-x="378" d="M217 233v-292q0 -109 -21.5 -170.5t-72.5 -96.5v54q27 27 38 72.5t11 129.5v303h45zM217 741h-45v234h45v-234z" />
<glyph unicode="&#x3c;" horiz-adv-x="1624" d="M1530 -33l-1471 695v51l1471 692v-49l-1417 -668l1417 -672v-49z" />
<glyph unicode="=" horiz-adv-x="1808" d="M215 795h1378v-43h-1378v43zM215 436h1378v-43h-1378v43z" />
<glyph unicode="&#x3e;" horiz-adv-x="1624" d="M94 16l1417 672l-1417 668v49l1471 -692v-51l-1471 -695v49z" />
<glyph unicode="?" horiz-adv-x="913" d="M438 0h-45v227h45v-227zM438 322h-45v47q0 37 4 68.5t18.5 62t41 63.5t73.5 74l93 84q80 72 124 151.5t44 184.5q0 68 -24 126t-67 101t-105.5 66.5t-141.5 23.5q-84 0 -145.5 -26.5t-102.5 -70.5t-61.5 -103.5t-20.5 -124.5q0 -37 7 -76t20 -78l-52 14q-12 37 -17 71 t-5 75q0 76 25.5 142.5t74.5 115.5t119 76.5t160 27.5t161.5 -27.5t120.5 -76.5t75 -113.5t26 -138.5q0 -63 -13.5 -114.5t-38 -95.5t-58.5 -83t-75 -76l-53 -47q-51 -47 -83 -77.5t-49 -60.5t-23.5 -62.5t-6.5 -84.5v-38z" />
<glyph unicode="@" horiz-adv-x="1673" d="M1092 547q-10 -10 -56.5 -18.5t-87.5 -16.5l-123 -23q-47 -8 -93 -19t-81 -32.5t-56.5 -57.5t-21.5 -93q0 -102 61.5 -152.5t166.5 -50.5q72 0 133 31.5t104 95.5q23 37 38.5 87t15.5 134v115zM1229 94q59 0 113.5 36t94.5 99.5t63.5 152.5t23.5 196q0 119 -42 233.5 t-123 202.5t-200 142t-270 54q-156 0 -289 -53t-230.5 -151.5t-152.5 -237.5t-55 -311q0 -170 56 -309.5t156.5 -237.5t237 -152.5t295.5 -54.5q186 0 332.5 70.5t249.5 199.5l22 -43q-104 -129 -254.5 -200.5t-349.5 -71.5q-178 0 -324.5 58.5t-251 163t-161.5 252 t-57 325.5q0 180 59 327.5t162.5 252t246 161.5t308.5 57t294 -59t214 -154.5t130 -216t44 -245.5t-30 -223.5t-78 -166t-109.5 -102.5t-126.5 -35q-76 0 -105.5 38t-29.5 110v29.5t2 31.5h-2q-10 -39 -32 -78t-57.5 -70.5t-89 -51t-125.5 -19.5q-133 0 -198.5 67.5 t-65.5 176.5q0 113 69 163t189 72l248 47q29 6 45.5 15.5t16.5 44.5v26q0 106 -54.5 161.5t-191.5 55.5q-123 0 -186.5 -59t-63.5 -170l-43 25q-2 119 79 182t214 63q74 0 132 -15t97 -54q29 -31 45.5 -77t16.5 -132v-397q0 -66 15.5 -105t76.5 -39z" />
<glyph unicode="A" horiz-adv-x="1181" d="M590 1337q-16 -47 -35 -98q-16 -43 -34.5 -94t-37.5 -101l-211 -548h633l-209 546q-23 57 -41 110.5t-32 94.5q-16 49 -31 90h-2zM1141 0h-51l-168 453h-664l-166 -453h-49l522 1393h49z" />
<glyph unicode="B" horiz-adv-x="1341" d="M1128 1047q0 139 -96 223q-55 47 -135 63.5t-203 16.5h-454v-602h448q55 0 96 2t73 6t56.5 11t47.5 17q78 35 122.5 100t44.5 163zM240 707v-664h479q68 0 118 4t88 13.5t67.5 21.5t56.5 29q63 41 96 104.5t33 157.5q0 109 -52.5 183.5t-142.5 113.5q-41 16 -100.5 26.5 t-163.5 10.5h-479zM1178 1051q0 -63 -21.5 -117.5t-58.5 -96.5t-87 -70t-108 -36v-2q76 -10 136.5 -42t102.5 -80t63.5 -108.5t21.5 -127.5q0 -115 -50.5 -192t-127.5 -118q-29 -16 -61 -27t-73 -18.5t-94 -11.5t-127 -4h-499v1393h464q125 0 220.5 -13.5t164.5 -62.5 q59 -41 96.5 -110.5t37.5 -155.5z" />
<glyph unicode="C" horiz-adv-x="1323" d="M1231 332q-68 -168 -201 -262.5t-321 -94.5q-137 0 -247 51.5t-185.5 145.5t-115.5 227t-40 297t41 297t116.5 227.5t184 145.5t246.5 51q182 0 312 -88t200 -246l-35 -36q-66 156 -187.5 241.5t-289.5 85.5q-125 0 -224.5 -47t-170 -135t-108.5 -214t-38 -282t38 -281.5 t108.5 -213.5t171 -135.5t223.5 -47.5q170 0 294.5 90.5t188.5 253.5z" />
<glyph unicode="D" horiz-adv-x="1376" d="M240 43h299q68 0 131 2t122.5 12.5t112.5 34t96 64.5q86 80 145.5 209t59.5 329q0 186 -53 319.5t-156 221.5q-45 39 -94 61.5t-108.5 34.5t-131 15.5t-159.5 3.5h-264v-1307zM512 1393q80 0 147.5 -2t127 -11.5t110.5 -29t100 -52.5q115 -82 186.5 -236.5t71.5 -361.5 q0 -178 -52 -321t-150 -238q-53 -51 -106.5 -79.5t-119 -42t-146.5 -16.5t-187 -3h-299v1393h317z" />
<glyph unicode="E" horiz-adv-x="1161" d="M1087 0h-892v1393h849v-43h-804v-609h731v-43h-731v-655h847v-43z" />
<glyph unicode="F" horiz-adv-x="1046" d="M195 0v1393h809v-43h-764v-609h690v-43h-690v-698h-45z" />
<glyph unicode="G" horiz-adv-x="1363" d="M696 -25q-133 0 -239.5 51.5t-181 145.5t-114.5 227t-40 297t40 297t115.5 227.5t184 145.5t246.5 51q186 0 318 -93t200 -259l-37 -35q-59 166 -184 255t-297 89q-125 0 -224.5 -47t-170 -135t-108.5 -214t-38 -282t38 -281.5t108.5 -213.5t171 -135.5t223.5 -47.5 q133 0 244.5 58.5t170.5 171.5q23 47 36 101t13 132v148h-507v43h553v-672h-46v268h-2q-49 -143 -173 -218t-300 -75z" />
<glyph unicode="H" horiz-adv-x="1347" d="M1153 0h-45v698h-868v-698h-45v1393h45v-652h868v652h45v-1393z" />
<glyph unicode="I" horiz-adv-x="434" d="M240 0h-45v1393h45v-1393z" />
<glyph unicode="J" horiz-adv-x="1007" d="M823 1393v-889q0 -55 -1 -102.5t-5 -88.5q-18 -199 -137 -282q-90 -61 -240 -62q-84 0 -156.5 19.5t-125 63.5t-83 115t-30.5 173l47 20v-4q0 -80 18.5 -143t59.5 -108.5t107.5 -69t162.5 -23.5q135 0 206 47t106 152q16 51 21 110.5t5 122.5v949h45z" />
<glyph unicode="K" horiz-adv-x="1226" d="M1208 0h-55l-575 823l-338 -338v-485h-45v1393h45v-848l847 848h62l-537 -535z" />
<glyph unicode="L" horiz-adv-x="1058" d="M240 43h800v-43h-845v1393h45v-1350z" />
<glyph unicode="M" horiz-adv-x="1499" d="M772 0h-37l-381 975q-39 102 -71.5 185t-49.5 136h-2q2 -25 4.5 -65.5t3.5 -88.5t1 -100.5v-97.5v-944h-45v1393h45l436 -1123q29 -72 47 -118t31 -86h2q12 41 29.5 86t45.5 118l433 1123h41v-1393h-43v920v101t1 110.5t2 99.5t3 67h-2q-10 -41 -40 -120.5t-71 -182.5z " />
<glyph unicode="N" horiz-adv-x="1347" d="M997 256q41 -59 73 -109.5t40 -64.5h2q0 37 -2 79t-2 118v1114h45v-1393h-41l-760 1137q-41 59 -73.5 109t-40.5 65h-2q0 -23 1 -41.5t2 -38t1 -45v-62.5v-1124h-45v1393h41z" />
<glyph unicode="O" horiz-adv-x="1413" d="M168 696q0 -156 38 -281.5t108.5 -213.5t170 -135.5t222.5 -47.5t222 47.5t169.5 135.5t108.5 214t38 281q0 156 -38 282t-107.5 214t-169 135t-223.5 47q-123 0 -223.5 -47t-170 -135t-107.5 -214t-38 -282zM121 696q0 164 40 297t115.5 227.5t184 145.5t246.5 51 q137 0 245.5 -51t184 -145.5t115.5 -227.5t40 -297t-40 -297t-114.5 -227t-184 -145.5t-246.5 -51.5t-246 51.5t-184.5 145.5t-115.5 227t-40 297z" />
<glyph unicode="P" horiz-adv-x="1230" d="M655 688q98 0 173 12.5t141 49.5q68 39 108.5 103.5t40.5 166.5q0 117 -60.5 193.5t-164.5 109.5q-51 16 -116.5 21.5t-143.5 5.5h-393v-662h415zM240 0h-45v1393h456q137 0 221 -19q129 -25 211 -114t82 -240q0 -98 -41 -179t-127 -130q-53 -33 -128.5 -49.5 t-190.5 -16.5h-438v-645z" />
<glyph unicode="Q" horiz-adv-x="1425" d="M168 696q0 -156 38 -281.5t108.5 -213.5t170 -135.5t222.5 -47.5t222 47.5t169.5 135.5t108.5 214t38 281q0 156 -38 282t-107.5 214t-169 135t-223.5 47q-123 0 -223.5 -47t-170 -135t-107.5 -214t-38 -282zM121 696q0 164 40 297t115.5 227.5t184 145.5t246.5 51 q137 0 245.5 -51t184 -145.5t115.5 -227.5t40 -297q0 -160 -36.5 -287.5t-106.5 -222.5l197 -180l-33 -37l-195 181q-74 -86 -178 -130.5t-233 -44.5q-137 0 -246 51.5t-184.5 145.5t-115.5 227t-40 297z" />
<glyph unicode="R" horiz-adv-x="1282" d="M1192 0h-62l-460 653h-430v-653h-45v1393h462q133 0 220 -19q129 -25 209.5 -111.5t80.5 -238.5q0 -102 -40 -175t-107 -118q-59 -41 -132 -57.5t-159 -20.5zM647 696q133 0 214 19.5t145 64.5q53 39 82.5 101.5t29.5 142.5q0 117 -60.5 191.5t-164.5 107.5 q-51 16 -116.5 21.5t-143.5 5.5h-393v-654h407z" />
<glyph unicode="S" horiz-adv-x="1177" d="M987 1178q-76 90 -181.5 143t-242.5 53q-84 0 -154.5 -22.5t-121.5 -62.5t-80 -97t-29 -127t24.5 -119t69.5 -84t111 -57.5t145 -40.5l183 -41q186 -41 283.5 -122t97.5 -236q0 -82 -31 -153t-90.5 -123t-150.5 -83t-210 -31q-104 0 -189 26t-151.5 67t-115 94t-74.5 106 l37 35q27 -57 74 -109.5t109 -91.5t142 -61.5t172 -22.5q211 2 320.5 97.5t109.5 249.5q0 133 -90 205.5t-252 107.5l-186 43q-74 16 -142.5 38.5t-122.5 59.5t-87 95.5t-33 144.5q0 82 33 147.5t91 112.5t138 72.5t176 25.5q76 0 144.5 -17.5t125 -45t100.5 -63.5t75 -72z " />
<glyph unicode="T" horiz-adv-x="1071" d="M25 1393h1022v-43h-490v-1350h-45v1350h-487v43z" />
<glyph unicode="U" horiz-adv-x="1388" d="M694 -29q-145 0 -261 51.5t-181 161.5q-49 84 -59.5 182.5t-10.5 221.5v805h45v-840q0 -43 2 -91t9.5 -94t21.5 -90.5t39 -80.5q61 -88 160.5 -135.5t234.5 -47.5t234.5 47.5t161.5 135.5q25 37 39 81t21 90t9 93t2 90v842h45v-805q0 -123 -10 -221.5t-59 -182.5 q-66 -111 -182 -162t-261 -51z" />
<glyph unicode="V" horiz-adv-x="1118" d="M471 317q29 -86 50.5 -149.5t35.5 -116.5q14 47 35.5 113.5t50.5 150.5l385 1078h49l-497 -1393h-50l-481 1393h49z" />
<glyph unicode="W" horiz-adv-x="1744" d="M1239 0l-238 854q-12 41 -30.5 107.5t-37 134t-33.5 126t-21 83.5h-2q-4 -20 -20.5 -79t-35 -128.5t-38 -138t-29.5 -107.5l-236 -852h-47l-412 1393h50l292 -990q12 -41 26.5 -88t28 -93t23.5 -85t15 -61h2q4 20 13 57t21.5 82t25.5 94t26 94l274 990h43l277 -985 q12 -47 26.5 -98.5t25.5 -97.5t20 -82t14 -52h2q4 20 14 58t22.5 83t25.5 93t26 91l276 990h47l-389 -1393h-47z" />
<glyph unicode="X" horiz-adv-x="1150" d="M152 1393l426 -607l432 607h55l-463 -643l531 -750h-60l-498 715l-507 -715h-54l535 750l-455 643h58z" />
<glyph unicode="Y" horiz-adv-x="1097" d="M571 0h-45v594l-495 799h53l465 -754l473 754h53l-506 -799z" />
<glyph unicode="Z" horiz-adv-x="1134" d="M1077 0h-1020v39l934 1311h-905v43h963v-39l-934 -1311h962v-43z" />
<glyph unicode="[" horiz-adv-x="544" d="M479 -324h-305v1717h305v-43h-260v-1631h260v-43z" />
<glyph unicode="\" horiz-adv-x="890" d="M104 1393l734 -1393h-52l-733 1393h51z" />
<glyph unicode="]" horiz-adv-x="544" d="M66 -281h260v1631h-260v43h305v-1717h-305v43z" />
<glyph unicode="^" horiz-adv-x="931" d="M504 1393l325 -736h-51l-297 686l-297 -686h-51l326 736h45z" />
<glyph unicode="_" horiz-adv-x="1529" d="M225 -246h1080v-43h-1080v43z" />
<glyph unicode="`" horiz-adv-x="819" d="M535 1114l-252 279h63l244 -279h-55z" />
<glyph unicode="a" horiz-adv-x="985" d="M764 573q-14 -12 -63.5 -22t-98.5 -21l-147 -26q-68 -12 -135.5 -30.5t-110.5 -61.5q-27 -27 -42 -63t-15 -87q0 -121 73.5 -182.5t196.5 -61.5q84 0 155.5 36t122.5 112q29 43 46.5 102.5t17.5 157.5v147zM967 -8q-25 -6 -62 -6q-84 0 -112.5 47t-28.5 125v35.5t2 37.5 h-2q-12 -45 -38 -91t-69 -83t-105.5 -59.5t-145.5 -22.5q-78 0 -134.5 21.5t-94.5 60.5t-56.5 90.5t-18.5 112.5q0 74 27 124t80 85q37 23 86 39t115 29l270 51q45 8 64.5 19t19.5 52v39q0 125 -64.5 191.5t-224.5 66.5q-154 0 -227.5 -70.5t-73.5 -205.5l-45 29 q0 70 24.5 124t70.5 91t109.5 55t141.5 18t146.5 -16t115.5 -63q35 -35 53.5 -86.5t18.5 -151.5v-494q0 -51 6 -80.5t25 -50.5q27 -27 78 -26q27 0 49 6v-43z" />
<glyph unicode="b" horiz-adv-x="1089" d="M205 479q0 -223 100.5 -342t263.5 -119q168 0 264.5 122t96.5 347q0 231 -100.5 350t-262.5 119q-80 0 -146.5 -31.5t-114.5 -93t-74.5 -150.5t-26.5 -202zM573 -25q-86 0 -148.5 24t-104 61.5t-67.5 85t-40 92.5h-2v-238h-45v1393h45v-670h2q12 47 39 96t72 89 t106.5 65.5t142.5 25.5q197 0 301.5 -138t104.5 -378q0 -117 -28.5 -211t-81 -159.5t-128.5 -101.5t-168 -36z" />
<glyph unicode="c" horiz-adv-x="993" d="M901 211q-51 -111 -144 -173.5t-227 -62.5q-100 0 -178 37t-132 103.5t-82.5 160t-28.5 205.5q0 115 27.5 210t80.5 164t132 106.5t181 37.5q137 0 233.5 -67.5t141.5 -181.5l-35 -39q-41 119 -129 182t-211 63q-172 0 -272 -124.5t-100 -348.5q0 -221 102 -343t270 -122 q117 0 202 58.5t130 167.5z" />
<glyph unicode="d" horiz-adv-x="1089" d="M885 479q0 113 -27 202t-75 150.5t-114.5 93t-146.5 31.5q-162 0 -262 -118.5t-100 -350.5q0 -225 96 -347t264 -122q164 0 264.5 119t100.5 342zM516 -25q-92 0 -168 36t-128 101.5t-80.5 160t-28.5 210.5q0 240 104 378t301 138q82 0 143.5 -25.5t106.5 -65.5t71.5 -89 t39.5 -96h2v670h45v-1393h-45v238h-2q-14 -45 -40 -92.5t-68 -85t-104.5 -61.5t-148.5 -24z" />
<glyph unicode="e" horiz-adv-x="1050" d="M899 557q-16 193 -112.5 296t-256.5 103q-156 0 -254 -104t-114 -295h737zM530 999q90 0 167 -31.5t132.5 -93t87 -152.5t33.5 -208h-792v-18q0 -106 25.5 -194.5t75.5 -151t123 -97.5t167 -35q74 0 130 20.5t100 55.5t75 80t51 96l37 -37q-23 -51 -57.5 -98t-83.5 -82 t-111.5 -56.5t-142.5 -21.5q-96 0 -177 35t-139.5 100.5t-90 160t-31.5 212.5q0 115 30.5 210t86 163t133 105.5t171.5 37.5z" />
<glyph unicode="f" horiz-adv-x="634" d="M598 932h-287v-932h-45v932h-223v43h223v217q0 72 11.5 105.5t33.5 58.5q29 33 72 47t90 14q37 0 68.5 -8t56.5 -18v-50q-27 14 -58.5 23.5t-70.5 9.5q-41 0 -77 -13t-58 -46q-10 -16 -16.5 -41t-6.5 -72v-227h287v-43z" />
<glyph unicode="g" horiz-adv-x="1089" d="M885 479q0 113 -27 202t-75 150.5t-114.5 93t-146.5 31.5q-162 0 -262 -118.5t-100 -350.5q0 -225 96 -347t264 -122q164 0 264.5 119t100.5 342zM924 152q0 -66 -2 -114t-6.5 -86t-10.5 -67.5t-16 -58.5q-84 -231 -377 -232q-104 0 -177 27t-119 70t-68.5 98t-24.5 113 l43 35q4 -141 92 -220t254 -79q127 0 214 51t126 168q6 23 11 47t8 58t5.5 79t2.5 109v88h-2q-14 -45 -40 -92.5t-68 -85t-104.5 -61.5t-148.5 -24q-92 0 -168 36t-128 101.5t-80.5 160t-28.5 210.5q0 240 104 378t301 138q82 0 143.5 -25.5t106.5 -65.5t71.5 -89t39.5 -96 h2v252h45v-823z" />
<glyph unicode="h" horiz-adv-x="1032" d="M874 0h-45v528q0 70 -4 127.5t-14 104.5q-23 92 -82 144t-188 52q-78 0 -139.5 -30.5t-103.5 -80.5t-64.5 -118t-22.5 -141v-586h-45v1393h45v-627h2q12 39 37.5 81t66.5 75.5t98.5 55t135.5 21.5q74 0 127 -17t89 -48t57.5 -73t33.5 -93q10 -43 13 -90t3 -109v-569z" />
<glyph unicode="i" horiz-adv-x="376" d="M211 1157h-45v236h45v-236zM211 0h-45v975h45v-975z" />
<glyph unicode="j" horiz-adv-x="376" d="M211 1157h-45v236h45v-236zM-133 -324q31 -16 66.5 -27t72.5 -11q84 0 121 45q23 27 31 70.5t8 115.5v1106h45v-985q0 -82 -1 -136.5t-6 -91t-14.5 -61.5t-25.5 -45q-25 -33 -68 -47.5t-90 -14.5q-43 0 -75.5 7.5t-63.5 21.5v53z" />
<glyph unicode="k" horiz-adv-x="933" d="M897 0h-57l-396 588l-233 -219v-369h-45v1393h45v-971l582 553h61l-377 -357z" />
<glyph unicode="l" horiz-adv-x="409" d="M227 0h-45v1393h45v-1393z" />
<glyph unicode="m" horiz-adv-x="1564" d="M526 999q133 0 197.5 -73.5t75.5 -196.5q8 43 31.5 90t63.5 87t97.5 66.5t132.5 26.5q86 0 142.5 -29.5t89.5 -84.5q37 -63 44 -134t7 -159v-592h-45v594q0 63 -5 121.5t-22 99.5q-23 66 -74 103.5t-143 37.5q-78 0 -136 -34.5t-96 -91t-57.5 -127t-19.5 -142.5v-561h-45 v575q0 88 -10.5 159t-38 120t-74.5 75.5t-121 26.5q-80 0 -137 -35.5t-96 -92t-57.5 -129t-18.5 -146.5v-553h-45v975h45v-217h2q10 41 34.5 84t63.5 77.5t92 57t123 22.5z" />
<glyph unicode="n" horiz-adv-x="1032" d="M874 0h-45v528q0 70 -4 127.5t-14 104.5q-23 92 -82 144t-188 52q-78 0 -139.5 -30.5t-103.5 -80.5t-64.5 -118t-22.5 -141v-586h-45v975h45v-209h2q12 39 37.5 81t66.5 75.5t98.5 55t135.5 21.5q74 0 127 -17t89 -48t57.5 -73t33.5 -93q10 -43 13 -90t3 -109v-569z" />
<glyph unicode="o" horiz-adv-x="1062" d="M158 483q0 -221 102 -343t270 -122q172 0 273.5 123t101.5 342q0 225 -100 349t-275 124q-172 0 -272 -125t-100 -348zM109 481q0 115 27.5 210t80.5 164t132 106.5t181 37.5t181.5 -37.5t133.5 -106.5t81.5 -164t27.5 -210q0 -113 -28.5 -206t-83 -159.5t-133 -103.5 t-179.5 -37q-100 0 -178 37t-132 103.5t-82.5 159.5t-28.5 206z" />
<glyph unicode="p" horiz-adv-x="1089" d="M205 479q0 -223 100.5 -342t263.5 -119q168 0 264.5 122t96.5 347q0 231 -100.5 350t-262.5 119q-80 0 -146.5 -31.5t-114.5 -93t-74.5 -150.5t-26.5 -202zM573 -25q-86 0 -148.5 24t-104 61.5t-67.5 85t-40 92.5h-2v-627h-45v1364h45v-252h2q12 47 39 96t72 89 t106.5 65.5t142.5 25.5q197 0 301.5 -138t104.5 -378q0 -117 -28.5 -211t-81 -159.5t-128.5 -101.5t-168 -36z" />
<glyph unicode="q" horiz-adv-x="1089" d="M885 479q0 113 -27 202t-75 150.5t-114.5 93t-146.5 31.5q-162 0 -262 -118.5t-100 -350.5q0 -225 96 -347t264 -122q164 0 264.5 119t100.5 342zM516 -25q-92 0 -168 36t-128 101.5t-80.5 160t-28.5 210.5q0 240 104 378t301 138q82 0 143.5 -25.5t106.5 -65.5t71.5 -89 t39.5 -96h2v252h45v-1364h-45v627h-2q-14 -45 -40 -92.5t-68 -85t-104.5 -61.5t-148.5 -24z" />
<glyph unicode="r" horiz-adv-x="620" d="M571 944q-18 4 -35.5 7t-37.5 3q-66 0 -119 -29.5t-90 -77.5t-57.5 -110.5t-20.5 -126.5v-610h-45v975h45v-203q10 41 34.5 82t61.5 72.5t85 52t106 20.5q16 0 36.5 -2t36.5 -8v-45z" />
<glyph unicode="s" horiz-adv-x="899" d="M117 180q55 -72 144 -117t208 -45q147 2 222 62.5t75 159.5q0 53 -20.5 90t-56.5 62.5t-83 43t-102 31.5l-121 31q-61 16 -111.5 35.5t-85 48t-53 68.5t-18.5 98q0 61 25.5 108t70.5 79t102.5 48t122.5 16q109 0 191 -39.5t129 -93.5l-25 -47q-43 53 -115.5 95t-181.5 42 q-55 0 -105 -14t-87 -39.5t-58.5 -63.5t-21.5 -87q0 -47 16.5 -82t47 -59.5t75.5 -42t105 -31.5l118 -31q61 -16 114.5 -36.5t92.5 -51.5t60.5 -73t21.5 -101q0 -131 -95 -199t-255 -70q-70 0 -128.5 14.5t-105.5 37t-82.5 51t-60.5 59.5z" />
<glyph unicode="t" horiz-adv-x="587" d="M543 25q-29 -23 -71 -35.5t-83 -12.5q-86 0 -125 50q-23 27 -30 65.5t-7 91.5v748h-196v43h196v381l45 10v-391h256v-43h-256v-725q0 -55 6.5 -92t24.5 -60q29 -35 92 -35q84 0 148 54v-49z" />
<glyph unicode="u" horiz-adv-x="1028" d="M156 975h45v-533q0 -96 9 -174t40 -133t89 -86t155 -31q78 0 138 31t101 81t62.5 117.5t21.5 141.5v586h45v-975h-45v209h-2q-12 -39 -36.5 -81t-64.5 -76t-97.5 -55.5t-133.5 -21.5q-104 0 -168.5 34t-100.5 91.5t-47 132t-11 156.5v586z" />
<glyph unicode="v" horiz-adv-x="864" d="M442 0h-32l-353 975h47l242 -666q10 -29 23.5 -66.5t26 -73.5t21.5 -63.5t11 -35.5h2q2 8 11.5 34.5t22.5 62.5t27.5 75t26.5 69l256 664h45z" />
<glyph unicode="w" horiz-adv-x="1329" d="M860 356q25 -84 45.5 -162.5t30.5 -113.5h2q4 18 14.5 51t22.5 73t24.5 82t24.5 79l197 610h43l-310 -975h-39l-182 653q-8 31 -18 69t-20.5 71.5t-17.5 60.5t-9 37h-2q-2 -10 -9.5 -38t-16.5 -61.5t-19.5 -71.5t-18.5 -69l-184 -651h-39l-318 975h48l202 -621 q10 -29 23.5 -69.5t26 -80.5t23.5 -74t15 -50h2q4 18 13.5 51t19.5 72t21.5 77.5t19.5 69.5l176 625h35z" />
<glyph unicode="x" horiz-adv-x="860" d="M432 537l305 438h54l-336 -471l360 -504h-55l-332 467l-330 -467h-53l358 502l-331 473h53z" />
<glyph unicode="y" horiz-adv-x="868" d="M43 -334q39 -29 98 -28q47 0 78 18q33 18 55.5 54t49.5 102l82 208l-349 955h52l251 -694q23 -59 41.5 -118t26.5 -81h2q8 23 31.5 82t48.5 123l264 688h47l-426 -1100q-23 -55 -42 -102t-40 -82q-29 -47 -70.5 -72t-107.5 -25q-29 0 -52.5 5.5t-39.5 13.5v53z" />
<glyph unicode="z" horiz-adv-x="829" d="M766 0h-688v35l598 897h-594v43h653v-35l-600 -897h631v-43z" />
<glyph unicode="{" horiz-adv-x="583" d="M106 545q51 -18 82 -42t48.5 -65t22.5 -105.5t5 -168.5v-197q0 -74 11.5 -122t40 -76.5t77.5 -40t127 -11.5v-41h-16q-80 0 -134.5 14.5t-88 48.5t-48 87t-14.5 131v244q0 70 -3 123t-17.5 92t-43 63.5t-79.5 40.5v51q51 14 79.5 40t43 65t17.5 91t3 124v221 q0 78 14.5 131t48 87t88 48.5t134.5 14.5h16v-41q-78 0 -127 -11.5t-77.5 -40t-40 -76.5t-11.5 -122v-174q0 -104 -5 -169t-22.5 -106t-48 -64.5t-82.5 -41.5v-2z" />
<glyph unicode="|" horiz-adv-x="393" d="M219 -324h-45v1717h45v-1717z" />
<glyph unicode="}" horiz-adv-x="583" d="M477 547q-51 18 -81.5 41.5t-48 64.5t-23 105.5t-5.5 169.5v174q0 74 -11 122t-39.5 76.5t-79 40t-126.5 11.5v41h17q80 0 134 -14.5t88 -48.5t48.5 -87t14.5 -131v-221q0 -72 3 -124t17 -91t43 -64.5t80 -40.5v-51q-51 -16 -80 -40.5t-43 -63.5t-17 -92.5t-3 -122.5 v-244q0 -78 -14.5 -131t-48.5 -87t-88 -48.5t-134 -14.5h-17v41q76 0 126.5 11.5t79 40t39.5 77t11 121.5v197q0 104 5.5 168.5t23 105.5t48 64.5t81.5 42.5v2z" />
<glyph unicode="~" horiz-adv-x="1179" d="M1057 637q-47 -57 -102.5 -92t-125.5 -35q-63 0 -125.5 28.5t-130.5 59.5q-59 27 -112 48.5t-107 21.5q-55 0 -102 -31t-96 -90l-29 28q14 20 36.5 43t51.5 43.5t64.5 34t78.5 13.5q53 0 109.5 -20.5t140.5 -59.5q47 -23 80 -38.5t57.5 -24.5t44 -12t39.5 -3q66 0 115 37 t86 78z" />
<glyph unicode="&#xa1;" horiz-adv-x="368" d="M207 741h-45v234h45v-234zM207 285v-703h-45v703l6 329h33z" />
<glyph unicode="&#xa2;" horiz-adv-x="1005" d="M164 483q0 -211 94 -332.5t252 -132.5v936q-160 -10 -253 -133t-93 -338zM907 211q-49 -109 -138 -170t-214 -66v-206h-45v206q-94 6 -168 45t-124 104.5t-76.5 157t-26.5 199.5q0 111 25.5 204t75.5 160.5t124 107.5t170 46v189h45v-189q129 -4 221 -71.5t135 -177.5 l-34 -39q-41 115 -124 178t-198 67v-938q111 4 190.5 62.5t122.5 163.5z" />
<glyph unicode="&#xa3;" horiz-adv-x="1138" d="M373 678q4 -53 8 -122t4 -140q0 -57 -6 -113.5t-21.5 -106t-44 -89t-73.5 -62.5v-2h772v-43h-920v33q66 8 113 29.5t76.5 67.5t43 119t13.5 183q0 20 -1 49t-3 63t-4 68.5t-4 65.5h-236v45h234q-4 53 -9.5 110.5t-5.5 116.5q0 86 14.5 171t54.5 150.5t113.5 106.5 t190.5 41q158 0 251 -81t109 -216l-38 -16q-16 131 -100.5 200.5t-223.5 69.5q-102 0 -165.5 -34.5t-99.5 -91t-48.5 -130t-12.5 -153.5q0 -61 5.5 -124t9.5 -120h342v-45h-338z" />
<glyph unicode="&#xa4;" horiz-adv-x="1136" d="M221 602q0 -72 26.5 -135.5t74 -110.5t111 -74.5t134.5 -27.5q72 0 135.5 27.5t110.5 74.5t74.5 110.5t27.5 135.5t-27.5 135.5t-74.5 111.5t-110.5 75.5t-135.5 27.5t-135 -27.5t-110.5 -75.5t-74 -111.5t-26.5 -135.5zM176 602q0 76 25.5 141.5t72.5 118.5l-149 152 l29 30l149 -151q53 47 119.5 74.5t144.5 27.5q76 0 142.5 -27.5t119.5 -74.5l148 147l31 -30l-148 -148q47 -53 74 -118.5t27 -141.5q0 -78 -28 -144.5t-75 -119.5l152 -150l-31 -28l-150 149q-53 -47 -119.5 -72.5t-142.5 -25.5t-142.5 25.5t-119.5 72.5l-145 -147l-31 31 l147 147q-47 53 -73.5 118.5t-26.5 143.5z" />
<glyph unicode="&#xa5;" horiz-adv-x="1241" d="M641 373h457v-43h-457l2 -330h-45v330h-459v43h459v221l-2 2h-457v43h430l-467 754h54l465 -754l473 754h53l-477 -754h428v-43h-457v-2v-221z" />
<glyph unicode="&#xa6;" horiz-adv-x="397" d="M221 -324h-45v662h45v-662zM221 731h-45v662h45v-662z" />
<glyph unicode="&#xa7;" horiz-adv-x="993" d="M608 342q102 35 167 102.5t65 165.5q0 106 -69 163.5t-191 98.5l-162 54q-117 -23 -185.5 -87.5t-68.5 -156.5q0 -55 21.5 -98t59.5 -76t90 -58.5t114 -46.5zM362 946q-37 14 -69.5 31.5t-57 43.5t-40 61.5t-15.5 84.5q0 61 25.5 108.5t71 79t102.5 48t123 16.5 q109 0 190.5 -40t128.5 -93l-24 -47q-43 53 -116 95t-181 42q-55 0 -105.5 -14t-87.5 -40t-58.5 -63.5t-21.5 -87.5q0 -47 17.5 -79.5t49.5 -56t78 -42t103 -37.5l137 -45q55 -18 104.5 -41.5t87.5 -57.5t60.5 -81t22.5 -110q0 -70 -23.5 -121t-58.5 -87t-76 -57.5 t-74 -33.5q39 -14 73 -35t59.5 -48.5t41 -64.5t15.5 -86q0 -131 -95.5 -198.5t-254.5 -67.5q-70 0 -127.5 14t-104.5 37t-84 51.5t-61 59.5l30 43q55 -72 144.5 -117t208.5 -45q147 2 222 62.5t75 158.5q0 53 -21.5 88t-56.5 60.5t-83 44t-101 38.5l-127 48 q-57 20 -110.5 46.5t-93.5 62.5t-63.5 85t-23.5 115q0 59 20.5 105t55 80t78.5 55.5t91 31.5z" />
<glyph unicode="&#xa8;" horiz-adv-x="819" d="M627 1147h-45v199h45v-199zM238 1147h-45v199h45v-199z" />
<glyph unicode="&#xa9;" horiz-adv-x="1634" d="M1470 717q0 137 -49 258t-137 209t-207 139t-260 51t-260 -51t-207 -139t-137 -209t-49 -258q0 -139 49 -259t137 -208t207 -139.5t260 -51.5t260 51.5t207 139.5t137 208t49 259zM1518 717q0 -147 -53.5 -275.5t-147.5 -222.5t-222 -148.5t-278 -54.5t-277.5 54.5 t-222 148.5t-147.5 222t-53 276q0 147 53 275t147.5 222.5t222.5 148.5t277 54q150 0 278 -54t222 -148.5t147.5 -222.5t53.5 -275zM1083 944q-74 170 -264 170q-141 0 -230 -101.5t-89 -289.5q0 -92 23.5 -165t66.5 -122t101.5 -74.5t127.5 -25.5q92 0 158.5 35t105.5 112 l35 -26q-43 -78 -115.5 -121t-183.5 -43q-84 0 -151.5 30.5t-114.5 86t-73.5 134.5t-26.5 177t26.5 179t73.5 138.5t114.5 88t151.5 30.5q111 0 185.5 -50t115.5 -134z" />
<glyph unicode="&#xaa;" horiz-adv-x="759" d="M522 1141q-14 -4 -35.5 -8.5t-40.5 -8.5l-110 -20q-33 -6 -64.5 -14.5t-57.5 -23.5t-41 -40t-15 -63q0 -72 44 -108t115 -36q49 0 93.5 21.5t72.5 66.5q16 27 27.5 63t11.5 95v76zM659 793q-12 -4 -22 -5.5t-21 -1.5q-55 0 -74.5 30t-19.5 83v4q-23 -47 -73 -85t-140 -38 q-100 0 -147 51.5t-47 129.5q0 82 49 119.5t141 54.5l176 32q18 4 29.5 10.5t11.5 26.5v21q0 76 -38 115.5t-134 39.5q-180 0 -180 -172l-39 21q0 92 60.5 140t158.5 48q51 0 93 -10t73 -39q23 -23 35 -56.5t12 -94.5v-302q0 -57 17 -75q14 -14 45 -15q6 0 12 1t22 8v-41z " />
<glyph unicode="&#xab;" horiz-adv-x="782" d="M369 604l290 342v-65l-253 -293l253 -299v-66l-290 342v39zM106 604l291 342v-65l-254 -293l254 -299v-66l-291 342v39z" />
<glyph unicode="&#xac;" horiz-adv-x="1091" d="M930 453h-45v434h-766v43h811v-477z" />
<glyph unicode="&#xad;" horiz-adv-x="849" d="M141 569h568v-43h-568v43z" />
<glyph unicode="&#xae;" horiz-adv-x="1634" d="M1470 717q0 137 -49 258t-137 209t-207 139t-260 51t-260 -51t-207 -139t-137 -209t-49 -258q0 -139 49 -259t137 -208t207 -139.5t260 -51.5t260 51.5t207 139.5t137 208t49 259zM1518 717q0 -147 -53.5 -275.5t-147.5 -222.5t-222 -148.5t-278 -54.5t-277.5 54.5 t-222 148.5t-147.5 222t-53 276q0 147 53 275t147.5 222.5t222.5 148.5t277 54q150 0 278 -54t222 -148.5t147.5 -222.5t53.5 -275zM897 741q119 0 173 44t54 135q0 123 -120 163q-23 6 -47.5 9.5t-59.5 3.5h-315v-355h315zM582 303h-45v836h337q59 0 98.5 -5.5t67.5 -15.5 q57 -25 93 -76t36 -122q0 -63 -21.5 -105.5t-60 -69t-91 -37t-113.5 -10.5l280 -395h-55l-281 395h-245v-395z" />
<glyph unicode="&#xaf;" horiz-adv-x="962" d="M203 1210h555v-43h-555v43z" />
<glyph unicode="&#xb0;" horiz-adv-x="774" d="M147 1133q0 -49 18.5 -94.5t51.5 -78t77 -52t93 -19.5t93 19.5t76 52t51.5 77.5t19.5 95q0 49 -19.5 93t-51.5 76.5t-76 52t-93 19.5t-93 -19.5t-77 -52t-51.5 -76.5t-18.5 -93zM102 1133q0 59 22.5 111t60.5 90t90.5 60.5t111.5 22.5t111.5 -22.5t90.5 -60.5t60.5 -90 t22.5 -111t-22.5 -111.5t-60.5 -91.5t-90.5 -61.5t-111.5 -22.5t-111.5 22.5t-90.5 61.5t-60.5 91.5t-22.5 111.5z" />
<glyph unicode="&#xb1;" horiz-adv-x="1497" d="M1350 0h-1200v43h1200v-43zM774 219h-45v477h-579v43h579v475h45v-475h576v-43h-576v-477z" />
<glyph unicode="&#xb2;" horiz-adv-x="811" d="M676 555h-545v39q29 20 69 48t83 58.5t85 63.5t74 61q37 33 70 67t57.5 73t40 83t15.5 97q0 111 -66.5 171t-161.5 60q-106 0 -162.5 -63.5t-56.5 -149.5q0 -66 35 -135l-53 14q-12 33 -18.5 60.5t-6.5 60.5q0 51 17.5 97.5t51.5 81t83 55t114 20.5q66 0 116 -21.5 t84 -58.5t51.5 -86t17.5 -104q0 -76 -30 -141.5t-79 -122t-111.5 -105.5t-125.5 -94q-66 -45 -89.5 -61.5t-41.5 -24.5h483v-43z" />
<glyph unicode="&#xb3;" horiz-adv-x="794" d="M127 1225q2 27 19.5 59.5t49 62t81 50t116.5 20.5q72 0 122 -18.5t82 -47t46 -66.5t14 -77q0 -72 -42 -130t-121 -77v-4q82 -16 134 -77.5t52 -149.5q0 -111 -71.5 -181.5t-217.5 -70.5q-123 0 -199.5 59.5t-87.5 163.5l46 29q2 -59 25.5 -99t57 -64.5t75.5 -35t85 -10.5 q104 0 171 54.5t67 156.5q0 70 -34 112t-77 62q-16 8 -34.5 13.5t-42 8.5t-55.5 4t-77 1h-49v41h39q41 0 69.5 1t50 4t38 8t33.5 11q51 23 83.5 63t32.5 105q0 68 -52 118t-163 50q-106 0 -160.5 -52t-64.5 -120z" />
<glyph unicode="&#xb4;" horiz-adv-x="962" d="M334 1114l244 279h63l-252 -279h-55z" />
<glyph unicode="&#xb5;" horiz-adv-x="1011" d="M217 442q0 -96 10.5 -174t41 -133t88 -86t153.5 -31q78 0 138.5 31t101.5 81t62.5 117.5t21.5 141.5v586h45v-975h-45v209h-3q-12 -39 -36.5 -81t-64.5 -76t-97.5 -55.5t-132.5 -21.5q-131 0 -193.5 49.5t-87.5 125.5h-2v-539h-45v1364h45v-533z" />
<glyph unicode="&#xb6;" horiz-adv-x="1103" d="M483 729h-14q-59 0 -103 5t-78 14.5t-59.5 23.5t-48.5 33q-115 92 -114 256q0 164 114 256q23 18 48.5 32.5t59.5 23.5t78 14.5t103 5.5h575v-43h-190v-1612h-45v1612h-281v-1612h-45v991z" />
<glyph unicode="&#xb7;" horiz-adv-x="346" d="M197 539h-45v233h45v-233z" />
<glyph unicode="&#xb8;" horiz-adv-x="962" d="M432 6h47l-104 -121q37 10 69 11q63 0 108.5 -33t45.5 -105q0 -86 -52 -119.5t-126 -33.5q-53 0 -96 14l14 41q18 -6 40.5 -10t45.5 -4q49 0 89 23.5t40 86.5q0 59 -40 81t-91 22q-49 0 -92 -17l-19 25z" />
<glyph unicode="&#xb9;" horiz-adv-x="489" d="M291 532v703q-35 -41 -92.5 -52.5t-114.5 -11.5h-14v41h30q92 0 138 33q29 23 43 60.5t16 87.5h37v-861h-43z" />
<glyph unicode="&#xba;" horiz-adv-x="751" d="M150 1096q0 -133 64.5 -203t164.5 -70q96 0 159.5 71t63.5 202q0 137 -61.5 207.5t-161.5 70.5q-102 0 -165.5 -71.5t-63.5 -206.5zM109 1096q0 147 70.5 232t199.5 85q123 0 193.5 -85t70.5 -232q0 -143 -69.5 -227.5t-194.5 -84.5q-129 0 -199.5 84.5t-70.5 227.5z" />
<glyph unicode="&#xbb;" horiz-adv-x="782" d="M414 565l-291 -342v66l254 299l-254 293v65l291 -342v-39zM676 565l-291 -342v66l254 299l-254 293v65l291 -342v-39z" />
<glyph unicode="&#xbc;" horiz-adv-x="1425" d="M295 532v703q-35 -41 -92.5 -52.5t-114.5 -11.5h-14v41h30q92 0 138 33q29 23 43 60.5t16 87.5h37v-861h-43zM342 0h-49l729 1393h47zM1155 260v256v166q0 51 2 106q-25 -35 -47 -69q-20 -31 -44 -66t-44 -65l-84 -121q-23 -35 -49.5 -71t-48.5 -66q-27 -37 -52 -70h367z M1200 0h-45v217h-420v39l426 604h39v-600h162v-43h-162v-217z" />
<glyph unicode="&#xbd;" horiz-adv-x="1542" d="M313 0h-49l729 1393h47zM295 532v703q-35 -41 -92.5 -52.5t-114.5 -11.5h-14v41h30q92 0 138 33q29 23 43 60.5t16 87.5h37v-861h-43zM1450 0h-545v39q29 20 69 48t83 58.5t85 63.5t75 61q37 33 69.5 67t57 73t40 83t15.5 97q0 111 -66.5 171t-161.5 60 q-106 0 -162.5 -63.5t-56.5 -149.5q0 -66 35 -135l-53 14q-12 33 -18.5 60.5t-6.5 60.5q0 51 17.5 97.5t51.5 81t83 55t115 20.5t115.5 -21.5t83.5 -58.5t51.5 -86t17.5 -104q0 -76 -30 -141.5t-79 -122t-111.5 -105.5t-125.5 -94q-66 -45 -89.5 -61.5t-41.5 -24.5h483v-43z " />
<glyph unicode="&#xbe;" horiz-adv-x="1656" d="M573 0h-49l729 1393h47zM111 1225q2 27 19 59.5t49 62t81 50t117 20.5q72 0 122 -18.5t81.5 -47t46 -66.5t14.5 -77q0 -72 -42 -130t-122 -77v-4q82 -16 134.5 -77.5t52.5 -149.5q0 -111 -72 -181.5t-217 -70.5q-123 0 -200 59.5t-87 163.5l45 29q2 -59 25.5 -99 t57.5 -64.5t76 -35t85 -10.5q104 0 170.5 54.5t66.5 156.5q0 70 -33.5 112t-76.5 62q-16 8 -34.5 13.5t-42.5 8.5t-55.5 4t-76.5 1h-49v41h39q41 0 69.5 1t50 4t38 8t32.5 11q51 23 84 63t33 105q0 68 -52.5 118t-162.5 50q-106 0 -160.5 -52t-64.5 -120zM1386 260v256v166 q0 51 3 106q-25 -35 -48 -69q-20 -31 -43.5 -66t-44.5 -65l-84 -121q-23 -35 -49 -71t-49 -66q-27 -37 -51 -70h366zM1432 0h-46v217h-419v39l426 604h39v-600h161v-43h-161v-217z" />
<glyph unicode="&#xbf;" horiz-adv-x="901" d="M469 975h45v-227h-45v227zM469 653h45v-47q0 -37 -4 -68.5t-18.5 -62.5t-42 -63.5t-72.5 -73.5l-92 -84q-80 -72 -124 -151.5t-44 -184.5q0 -68 23.5 -126t66.5 -101t105.5 -66.5t142.5 -23.5q84 0 145.5 26.5t102 70.5t61 103.5t20.5 124.5q0 37 -7 76t-19 78l51 -14 q12 -37 17 -71t5 -75q0 -78 -25.5 -143.5t-74.5 -114.5t-119.5 -76.5t-158.5 -27.5q-90 0 -162 27.5t-121 76.5t-74.5 113.5t-25.5 138.5q0 63 13 114.5t37.5 95.5t58.5 83t75 76l53 47q51 45 83 76.5t49.5 60.5t23.5 62.5t6 84.5v39z" />
<glyph unicode="&#xc0;" horiz-adv-x="1181" d="M606 1542l-252 279h64l244 -279h-56zM590 1337q-16 -47 -35 -98q-16 -43 -34.5 -94t-37.5 -101l-211 -548h633l-209 546q-23 57 -41 110.5t-32 94.5q-16 49 -31 90h-2zM1141 0h-51l-168 453h-664l-166 -453h-49l522 1393h49z" />
<glyph unicode="&#xc1;" horiz-adv-x="1181" d="M549 1542l244 279h63l-252 -279h-55zM590 1337q-16 -47 -35 -98q-16 -43 -34.5 -94t-37.5 -101l-211 -548h633l-209 546q-23 57 -41 110.5t-32 94.5q-16 49 -31 90h-2zM1141 0h-51l-168 453h-664l-166 -453h-49l522 1393h49z" />
<glyph unicode="&#xc2;" horiz-adv-x="1181" d="M633 1821l254 -279h-56l-225 240l-223 -240h-55l252 279h53zM590 1337q-16 -47 -35 -98q-16 -43 -34.5 -94t-37.5 -101l-211 -548h633l-209 546q-23 57 -41 110.5t-32 94.5q-16 49 -31 90h-2zM1141 0h-51l-168 453h-664l-166 -453h-49l522 1393h49z" />
<glyph unicode="&#xc3;" horiz-adv-x="1181" d="M590 1337q-16 -47 -35 -98q-16 -43 -34.5 -94t-37.5 -101l-211 -548h633l-209 546q-23 57 -41 110.5t-32 94.5q-16 49 -31 90h-2zM1141 0h-51l-168 453h-664l-166 -453h-49l522 1393h49zM907 1712q-16 -51 -52 -86t-101 -35q-37 0 -78 15.5t-78 33.5q-51 25 -84 38.5 t-61 13.5q-51 0 -80 -36t-41 -77l-39 14q6 23 18.5 47.5t33 45t49 34t65.5 13.5q35 0 72.5 -14.5t80.5 -37.5q37 -18 75 -33.5t69 -15.5q51 0 76.5 31t39.5 63z" />
<glyph unicode="&#xc4;" horiz-adv-x="1181" d="M590 1337q-16 -47 -35 -98q-16 -43 -34.5 -94t-37.5 -101l-211 -548h633l-209 546q-23 57 -41 110.5t-32 94.5q-16 49 -31 90h-2zM1141 0h-51l-168 453h-664l-166 -453h-49l522 1393h49zM809 1591h-45v199h45v-199zM420 1591h-45v199h45v-199z" />
<glyph unicode="&#xc5;" horiz-adv-x="1181" d="M590 1337q-16 -47 -35 -98q-16 -43 -34.5 -94t-37.5 -101l-211 -548h633l-209 546q-23 57 -41 110.5t-32 94.5q-16 49 -31 90h-2zM1141 0h-51l-168 453h-664l-166 -453h-49l522 1393h49zM465 1696q0 -53 38 -91t91 -38t90 37.5t37 91.5q0 53 -37 91t-90 38t-91 -38 t-38 -91zM426 1696q0 72 49 119t119 47t119 -47.5t49 -118.5q0 -72 -49 -119t-119 -47t-119 47t-49 119z" />
<glyph unicode="&#xc6;" horiz-adv-x="1806" d="M862 0v459h-538l-287 -459h-51l860 1393h844v-43h-783v-609h709v-43h-709v-655h826v-43h-871zM862 999v140.5t2 111.5q0 55 2 101h-2q-29 -49 -59 -103q-27 -45 -58.5 -99t-62.5 -106l-338 -542h516v497z" />
<glyph unicode="&#xc7;" horiz-adv-x="1323" d="M1231 332q-66 -162 -192 -255t-304 -102l-78 -90q37 10 70 11q63 0 108.5 -33t45.5 -105q0 -86 -52.5 -119.5t-126.5 -33.5q-53 0 -96 14l15 41q18 -6 40.5 -10t45.5 -4q49 0 89 23.5t40 86.5q0 59 -40 81t-91 22q-49 0 -93 -17l-18 25l96 110q-133 2 -238.5 54.5 t-179 146.5t-112.5 225.5t-39 292.5q0 164 41 297t116.5 227.5t184 145.5t246.5 51q182 0 312 -88t200 -246l-35 -36q-66 156 -187.5 241.5t-289.5 85.5q-125 0 -224.5 -47t-170 -135t-108.5 -214t-38 -282t38 -281.5t108.5 -213.5t171 -135.5t223.5 -47.5q170 0 294.5 90.5 t188.5 253.5z" />
<glyph unicode="&#xc8;" horiz-adv-x="1161" d="M641 1542l-252 279h64l243 -279h-55zM1087 0h-892v1393h849v-43h-804v-609h731v-43h-731v-655h847v-43z" />
<glyph unicode="&#xc9;" horiz-adv-x="1161" d="M526 1542l244 279h64l-252 -279h-56zM1087 0h-892v1393h849v-43h-804v-609h731v-43h-731v-655h847v-43z" />
<glyph unicode="&#xca;" horiz-adv-x="1161" d="M668 1821l254 -279h-56l-225 240l-223 -240h-56l252 279h54zM1087 0h-892v1393h849v-43h-804v-609h731v-43h-731v-655h847v-43z" />
<glyph unicode="&#xcb;" horiz-adv-x="1161" d="M1087 0h-892v1393h849v-43h-804v-609h731v-43h-731v-655h847v-43zM844 1591h-45v199h45v-199zM455 1591h-45v199h45v-199z" />
<glyph unicode="&#xcc;" horiz-adv-x="434" d="M207 1542l-252 279h63l244 -279h-55zM240 0h-45v1434h45v-1434z" />
<glyph unicode="&#xcd;" horiz-adv-x="434" d="M178 1542l244 279h63l-252 -279h-55zM240 0h-45v1434h45v-1434z" />
<glyph unicode="&#xce;" horiz-adv-x="434" d="M254 1821l254 -279h-55l-226 240l-223 -240h-55l252 279h53zM240 0h-45v1434h45v-1434z" />
<glyph unicode="&#xcf;" horiz-adv-x="434" d="M434 1591h-45v199h45v-199zM45 1591h-45v199h45v-199zM240 0h-45v1434h45v-1434z" />
<glyph unicode="&#xd0;" horiz-adv-x="1378" d="M242 758h534v-43h-534v-672h299q68 0 131 2t122.5 12.5t113 34t96.5 64.5q86 80 145 209t59 329q0 186 -53 319.5t-156 221.5q-45 39 -94 61.5t-108.5 34.5t-131 15.5t-159.5 3.5h-264v-592zM23 758h174v635h317q80 0 147.5 -2t127 -11.5t110.5 -29t100 -52.5 q115 -82 186.5 -236.5t71.5 -361.5q0 -178 -52 -321t-150 -238q-53 -51 -106.5 -79.5t-119 -42t-146.5 -16.5t-187 -3h-299v715h-174v43z" />
<glyph unicode="&#xd1;" horiz-adv-x="1347" d="M997 256q41 -59 73 -109.5t40 -64.5h2q0 37 -2 79t-2 118v1114h45v-1393h-41l-760 1137q-41 59 -73.5 109t-40.5 65h-2q0 -23 1 -41.5t2 -38t1 -45v-62.5v-1124h-45v1393h41zM985 1712q-16 -51 -52 -86t-102 -35q-37 0 -77.5 15.5t-77.5 33.5q-51 25 -84 38.5t-62 13.5 q-51 0 -79.5 -36t-40.5 -77l-39 14q6 23 18 47.5t32.5 45t49.5 34t66 13.5q35 0 72.5 -14.5t80.5 -37.5q37 -18 75 -33.5t69 -15.5q51 0 76.5 31t39.5 63z" />
<glyph unicode="&#xd2;" horiz-adv-x="1413" d="M741 1542l-252 279h64l244 -279h-56zM168 696q0 -156 38 -281.5t108.5 -213.5t170 -135.5t222.5 -47.5t222 47.5t169.5 135.5t108.5 214t38 281q0 156 -38 282t-107.5 214t-169 135t-223.5 47q-123 0 -223.5 -47t-170 -135t-107.5 -214t-38 -282zM121 696q0 164 40 297 t115.5 227.5t184 145.5t246.5 51q137 0 245.5 -51t184 -145.5t115.5 -227.5t40 -297t-40 -297t-114.5 -227t-184 -145.5t-246.5 -51.5t-246 51.5t-184.5 145.5t-115.5 227t-40 297z" />
<glyph unicode="&#xd3;" horiz-adv-x="1413" d="M612 1542l244 279h64l-252 -279h-56zM168 696q0 -156 38 -281.5t108.5 -213.5t170 -135.5t222.5 -47.5t222 47.5t169.5 135.5t108.5 214t38 281q0 156 -38 282t-107.5 214t-169 135t-223.5 47q-123 0 -223.5 -47t-170 -135t-107.5 -214t-38 -282zM121 696q0 164 40 297 t115.5 227.5t184 145.5t246.5 51q137 0 245.5 -51t184 -145.5t115.5 -227.5t40 -297t-40 -297t-114.5 -227t-184 -145.5t-246.5 -51.5t-246 51.5t-184.5 145.5t-115.5 227t-40 297z" />
<glyph unicode="&#xd4;" horiz-adv-x="1413" d="M743 1821l254 -279h-55l-225 240l-223 -240h-56l252 279h53zM168 696q0 -156 38 -281.5t108.5 -213.5t170 -135.5t222.5 -47.5t222 47.5t169.5 135.5t108.5 214t38 281q0 156 -38 282t-107.5 214t-169 135t-223.5 47q-123 0 -223.5 -47t-170 -135t-107.5 -214t-38 -282z M121 696q0 164 40 297t115.5 227.5t184 145.5t246.5 51q137 0 245.5 -51t184 -145.5t115.5 -227.5t40 -297t-40 -297t-114.5 -227t-184 -145.5t-246.5 -51.5t-246 51.5t-184.5 145.5t-115.5 227t-40 297z" />
<glyph unicode="&#xd5;" horiz-adv-x="1413" d="M168 696q0 -156 38 -281.5t108.5 -213.5t170 -135.5t222.5 -47.5t222 47.5t169.5 135.5t108.5 214t38 281q0 156 -38 282t-107.5 214t-169 135t-223.5 47q-123 0 -223.5 -47t-170 -135t-107.5 -214t-38 -282zM121 696q0 164 40 297t115.5 227.5t184 145.5t246.5 51 q137 0 245.5 -51t184 -145.5t115.5 -227.5t40 -297t-40 -297t-114.5 -227t-184 -145.5t-246.5 -51.5t-246 51.5t-184.5 145.5t-115.5 227t-40 297zM1004 1712q-16 -51 -52.5 -86t-101.5 -35q-37 0 -78 15.5t-78 33.5q-51 25 -83.5 38.5t-61.5 13.5q-51 0 -80 -36t-41 -77 l-39 14q6 23 18.5 47.5t33 45t49 34t65.5 13.5q35 0 73 -14.5t81 -37.5q37 -18 74.5 -33.5t68.5 -15.5q51 0 76.5 31t40.5 63z" />
<glyph unicode="&#xd6;" horiz-adv-x="1413" d="M168 696q0 -156 38 -281.5t108.5 -213.5t170 -135.5t222.5 -47.5t222 47.5t169.5 135.5t108.5 214t38 281q0 156 -38 282t-107.5 214t-169 135t-223.5 47q-123 0 -223.5 -47t-170 -135t-107.5 -214t-38 -282zM121 696q0 164 40 297t115.5 227.5t184 145.5t246.5 51 q137 0 245.5 -51t184 -145.5t115.5 -227.5t40 -297t-40 -297t-114.5 -227t-184 -145.5t-246.5 -51.5t-246 51.5t-184.5 145.5t-115.5 227t-40 297zM922 1591h-45v199h45v-199zM532 1591h-45v199h45v-199z" />
<glyph unicode="&#xd7;" horiz-adv-x="1275" d="M1124 96l-487 488l-487 -488l-29 29l487 487l-487 488l31 28l485 -487l487 487l31 -28l-487 -488l487 -485z" />
<glyph unicode="&#xd8;" horiz-adv-x="1421" d="M1247 696q0 256 -100 428l-830 -923q72 -88 170.5 -135.5t221.5 -47.5t222 47.5t169.5 135.5t108.5 213.5t38 281.5zM170 696q0 -283 119 -456l831 925q-70 100 -174 154.5t-237 54.5q-123 0 -223.5 -47t-170 -135t-107.5 -214t-38 -282zM123 696q0 164 40 297 t115.5 227.5t184 145.5t246.5 51q143 0 255.5 -55t188.5 -160l184 205l35 -33l-192 -215q55 -92 84.5 -207.5t29.5 -255.5q0 -164 -40 -297t-114.5 -227t-184 -145.5t-246.5 -51.5q-135 0 -242 48.5t-182 140.5l-191 -211l-35 31l197 219q-66 92 -99.5 215.5t-33.5 277.5z " />
<glyph unicode="&#xd9;" horiz-adv-x="1388" d="M717 1542l-252 279h63l244 -279h-55zM694 -29q-145 0 -261 51.5t-181 161.5q-49 84 -59.5 182.5t-10.5 221.5v805h45v-840q0 -43 2 -91t9.5 -94t21.5 -90.5t39 -80.5q61 -88 160.5 -135.5t234.5 -47.5t234.5 47.5t161.5 135.5q25 37 39 81t21 90t9 93t2 90v842h45v-805 q0 -123 -10 -221.5t-59 -182.5q-66 -111 -182 -162t-261 -51z" />
<glyph unicode="&#xda;" horiz-adv-x="1388" d="M584 1542l243 279h64l-252 -279h-55zM694 -29q-145 0 -261 51.5t-181 161.5q-49 84 -59.5 182.5t-10.5 221.5v805h45v-840q0 -43 2 -91t9.5 -94t21.5 -90.5t39 -80.5q61 -88 160.5 -135.5t234.5 -47.5t234.5 47.5t161.5 135.5q25 37 39 81t21 90t9 93t2 90v842h45v-805 q0 -123 -10 -221.5t-59 -182.5q-66 -111 -182 -162t-261 -51z" />
<glyph unicode="&#xdb;" horiz-adv-x="1388" d="M729 1821l254 -279h-55l-226 240l-223 -240h-55l252 279h53zM694 -29q-145 0 -261 51.5t-181 161.5q-49 84 -59.5 182.5t-10.5 221.5v805h45v-840q0 -43 2 -91t9.5 -94t21.5 -90.5t39 -80.5q61 -88 160.5 -135.5t234.5 -47.5t234.5 47.5t161.5 135.5q25 37 39 81t21 90 t9 93t2 90v842h45v-805q0 -123 -10 -221.5t-59 -182.5q-66 -111 -182 -162t-261 -51z" />
<glyph unicode="&#xdc;" horiz-adv-x="1388" d="M694 -29q-145 0 -261 51.5t-181 161.5q-49 84 -59.5 182.5t-10.5 221.5v805h45v-840q0 -43 2 -91t9.5 -94t21.5 -90.5t39 -80.5q61 -88 160.5 -135.5t234.5 -47.5t234.5 47.5t161.5 135.5q25 37 39 81t21 90t9 93t2 90v842h45v-805q0 -123 -10 -221.5t-59 -182.5 q-66 -111 -182 -162t-261 -51zM911 1591h-45v199h45v-199zM522 1591h-45v199h45v-199z" />
<glyph unicode="&#xdd;" horiz-adv-x="1097" d="M571 0h-45v594l-495 799h53l465 -754l473 754h53l-506 -799zM496 1542l243 279h64l-252 -279h-55z" />
<glyph unicode="&#xde;" horiz-adv-x="1282" d="M676 483q123 0 204 19.5t146 66.5q55 41 86 107.5t31 150.5q0 119 -62.5 199t-169.5 115q-53 16 -119.5 21t-148.5 5h-403v-684h436zM240 0h-45v1393h45v-183h426q139 0 225 -18q133 -27 217 -119t84 -246q0 -135 -71.5 -227t-178.5 -127q-47 -16 -112.5 -24.5 t-161.5 -8.5h-428v-440z" />
<glyph unicode="&#xdf;" horiz-adv-x="1005" d="M831 1112q0 -279 -260 -297q57 -4 114.5 -20.5t104 -59.5t74 -119.5t27.5 -201.5q0 -119 -17.5 -201t-52.5 -132t-89 -72.5t-130 -22.5q-74 0 -125 22.5t-76 61.5q-12 20 -20 42.5t-13.5 51.5t-7.5 67.5t-2 92.5v18h45q0 -63 3.5 -120.5t23 -100.5t60 -68.5t114.5 -25.5 q135 0 188.5 92t53.5 297q0 113 -25.5 186.5t-77 114.5t-126 57.5t-175.5 16.5h-84v43h72q86 0 151.5 12t110.5 43t68.5 84t23.5 133q0 57 -16 106.5t-51 85t-87 56t-126 20.5q-164 0 -234 -98q-25 -37 -38 -81t-17 -91t-4 -94v-90v-920h-45v913v99.5t6 103.5t19.5 98.5 t39.5 83.5q43 59 114 88t161 29q166 0 245.5 -86t79.5 -217z" />
<glyph unicode="&#xe0;" horiz-adv-x="985" d="M764 573q-14 -12 -63.5 -22t-98.5 -21l-147 -26q-68 -12 -135.5 -30.5t-110.5 -61.5q-27 -27 -42 -63t-15 -87q0 -121 73.5 -182.5t196.5 -61.5q84 0 155.5 36t122.5 112q29 43 46.5 102.5t17.5 157.5v147zM967 -8q-25 -6 -62 -6q-84 0 -112.5 47t-28.5 125v35.5t2 37.5 h-2q-12 -45 -38 -91t-69 -83t-105.5 -59.5t-145.5 -22.5q-78 0 -134.5 21.5t-94.5 60.5t-56.5 90.5t-18.5 112.5q0 74 27 124t80 85q37 23 86 39t115 29l270 51q45 8 64.5 19t19.5 52v39q0 125 -64.5 191.5t-224.5 66.5q-154 0 -227.5 -70.5t-73.5 -205.5l-45 29 q0 70 24.5 124t70.5 91t109.5 55t141.5 18t146.5 -16t115.5 -63q35 -35 53.5 -86.5t18.5 -151.5v-494q0 -51 6 -80.5t25 -50.5q27 -27 78 -26q27 0 49 6v-43zM530 1114l-251 279h63l244 -279h-56z" />
<glyph unicode="&#xe1;" horiz-adv-x="985" d="M764 573q-14 -12 -63.5 -22t-98.5 -21l-147 -26q-68 -12 -135.5 -30.5t-110.5 -61.5q-27 -27 -42 -63t-15 -87q0 -121 73.5 -182.5t196.5 -61.5q84 0 155.5 36t122.5 112q29 43 46.5 102.5t17.5 157.5v147zM967 -8q-25 -6 -62 -6q-84 0 -112.5 47t-28.5 125v35.5t2 37.5 h-2q-12 -45 -38 -91t-69 -83t-105.5 -59.5t-145.5 -22.5q-78 0 -134.5 21.5t-94.5 60.5t-56.5 90.5t-18.5 112.5q0 74 27 124t80 85q37 23 86 39t115 29l270 51q45 8 64.5 19t19.5 52v39q0 125 -64.5 191.5t-224.5 66.5q-154 0 -227.5 -70.5t-73.5 -205.5l-45 29 q0 70 24.5 124t70.5 91t109.5 55t141.5 18t146.5 -16t115.5 -63q35 -35 53.5 -86.5t18.5 -151.5v-494q0 -51 6 -80.5t25 -50.5q27 -27 78 -26q27 0 49 6v-43zM389 1114l244 279h63l-252 -279h-55z" />
<glyph unicode="&#xe2;" horiz-adv-x="985" d="M764 573q-14 -12 -63.5 -22t-98.5 -21l-147 -26q-68 -12 -135.5 -30.5t-110.5 -61.5q-27 -27 -42 -63t-15 -87q0 -121 73.5 -182.5t196.5 -61.5q84 0 155.5 36t122.5 112q29 43 46.5 102.5t17.5 157.5v147zM967 -8q-25 -6 -62 -6q-84 0 -112.5 47t-28.5 125v35.5t2 37.5 h-2q-12 -45 -38 -91t-69 -83t-105.5 -59.5t-145.5 -22.5q-78 0 -134.5 21.5t-94.5 60.5t-56.5 90.5t-18.5 112.5q0 74 27 124t80 85q37 23 86 39t115 29l270 51q45 8 64.5 19t19.5 52v39q0 125 -64.5 191.5t-224.5 66.5q-154 0 -227.5 -70.5t-73.5 -205.5l-45 29 q0 70 24.5 124t70.5 91t109.5 55t141.5 18t146.5 -16t115.5 -63q35 -35 53.5 -86.5t18.5 -151.5v-494q0 -51 6 -80.5t25 -50.5q27 -27 78 -26q27 0 49 6v-43zM522 1393l254 -279h-55l-225 240l-224 -240h-55l252 279h53z" />
<glyph unicode="&#xe3;" horiz-adv-x="985" d="M764 573q-14 -12 -63.5 -22t-98.5 -21l-147 -26q-68 -12 -135.5 -30.5t-110.5 -61.5q-27 -27 -42 -63t-15 -87q0 -121 73.5 -182.5t196.5 -61.5q84 0 155.5 36t122.5 112q29 43 46.5 102.5t17.5 157.5v147zM967 -8q-25 -6 -62 -6q-84 0 -112.5 47t-28.5 125v35.5t2 37.5 h-2q-12 -45 -38 -91t-69 -83t-105.5 -59.5t-145.5 -22.5q-78 0 -134.5 21.5t-94.5 60.5t-56.5 90.5t-18.5 112.5q0 74 27 124t80 85q37 23 86 39t115 29l270 51q45 8 64.5 19t19.5 52v39q0 125 -64.5 191.5t-224.5 66.5q-154 0 -227.5 -70.5t-73.5 -205.5l-45 29 q0 70 24.5 124t70.5 91t109.5 55t141.5 18t146.5 -16t115.5 -63q35 -35 53.5 -86.5t18.5 -151.5v-494q0 -51 6 -80.5t25 -50.5q27 -27 78 -26q27 0 49 6v-43zM795 1280q-16 -51 -52 -86t-102 -35q-37 0 -78 15.5t-78 33.5q-51 25 -83.5 38.5t-61.5 13.5q-51 0 -80 -36 t-41 -77l-39 14q6 23 18.5 47.5t33 45t49 33.5t65.5 13q35 0 73 -14t81 -37q37 -18 74.5 -33.5t68.5 -15.5q51 0 76.5 31t40.5 63z" />
<glyph unicode="&#xe4;" horiz-adv-x="985" d="M764 573q-14 -12 -63.5 -22t-98.5 -21l-147 -26q-68 -12 -135.5 -30.5t-110.5 -61.5q-27 -27 -42 -63t-15 -87q0 -121 73.5 -182.5t196.5 -61.5q84 0 155.5 36t122.5 112q29 43 46.5 102.5t17.5 157.5v147zM967 -8q-25 -6 -62 -6q-84 0 -112.5 47t-28.5 125v35.5t2 37.5 h-2q-12 -45 -38 -91t-69 -83t-105.5 -59.5t-145.5 -22.5q-78 0 -134.5 21.5t-94.5 60.5t-56.5 90.5t-18.5 112.5q0 74 27 124t80 85q37 23 86 39t115 29l270 51q45 8 64.5 19t19.5 52v39q0 125 -64.5 191.5t-224.5 66.5q-154 0 -227.5 -70.5t-73.5 -205.5l-45 29 q0 70 24.5 124t70.5 91t109.5 55t141.5 18t146.5 -16t115.5 -63q35 -35 53.5 -86.5t18.5 -151.5v-494q0 -51 6 -80.5t25 -50.5q27 -27 78 -26q27 0 49 6v-43zM711 1147h-45v199h45v-199zM322 1147h-46v199h46v-199z" />
<glyph unicode="&#xe5;" horiz-adv-x="985" d="M764 573q-14 -12 -63.5 -22t-98.5 -21l-147 -26q-68 -12 -135.5 -30.5t-110.5 -61.5q-27 -27 -42 -63t-15 -87q0 -121 73.5 -182.5t196.5 -61.5q84 0 155.5 36t122.5 112q29 43 46.5 102.5t17.5 157.5v147zM967 -8q-25 -6 -62 -6q-84 0 -112.5 47t-28.5 125v35.5t2 37.5 h-2q-12 -45 -38 -91t-69 -83t-105.5 -59.5t-145.5 -22.5q-78 0 -134.5 21.5t-94.5 60.5t-56.5 90.5t-18.5 112.5q0 74 27 124t80 85q37 23 86 39t115 29l270 51q45 8 64.5 19t19.5 52v39q0 125 -64.5 191.5t-224.5 66.5q-154 0 -227.5 -70.5t-73.5 -205.5l-45 29 q0 70 24.5 124t70.5 91t109.5 55t141.5 18t146.5 -16t115.5 -63q35 -35 53.5 -86.5t18.5 -151.5v-494q0 -51 6 -80.5t25 -50.5q27 -27 78 -26q27 0 49 6v-43zM354 1270q0 -53 38 -91t91 -38t90 38t37 91t-36.5 91t-90.5 38q-53 0 -91 -38t-38 -91zM315 1270q0 72 49.5 119 t118.5 47q70 0 119 -47.5t49 -118.5q0 -72 -49 -119t-119 -47t-119 47t-49 119z" />
<glyph unicode="&#xe6;" horiz-adv-x="1689" d="M1538 557q-16 193 -109.5 296t-252.5 103q-156 0 -252.5 -104t-112.5 -295h727zM764 573q-14 -12 -63.5 -22t-98.5 -21l-147 -26q-68 -12 -135.5 -30.5t-110.5 -61.5q-27 -27 -42 -63t-15 -87q0 -121 73.5 -182.5t196.5 -61.5q84 0 155.5 36t122.5 112q29 43 46.5 102.5 t17.5 157.5v147zM807 739q49 123 143 191.5t226 68.5q182 0 295.5 -124.5t117.5 -360.5h-782v-18q0 -106 25.5 -194.5t74.5 -151t121 -97.5t166 -35q74 0 129 20.5t98 55.5t73 80t50 96l37 -37q-23 -51 -56.5 -98t-81.5 -82t-109.5 -56.5t-141.5 -21.5q-147 0 -251.5 77 t-152.5 220q-10 -45 -33.5 -97t-67.5 -96t-113.5 -74t-167.5 -30q-78 0 -134.5 21.5t-94.5 60.5t-56.5 90.5t-18.5 112.5q0 74 27 124t80 85q37 23 86 39t115 29l270 51q45 8 64.5 19t19.5 52v39q0 125 -64.5 191.5t-224.5 66.5q-154 0 -227.5 -70.5t-73.5 -205.5l-45 29 q0 70 24.5 124t70.5 91t109.5 55t141.5 18t146.5 -16t115.5 -63q29 -29 46.5 -69t23.5 -110z" />
<glyph unicode="&#xe7;" horiz-adv-x="993" d="M901 211q-49 -106 -136 -167.5t-210 -68.5l-80 -90q18 4 35.5 7.5t36.5 3.5q61 0 106 -33t45 -105q0 -86 -52 -119.5t-126 -33.5q-53 0 -96 14l14 41q18 -6 41 -10t45 -4q49 0 89 23.5t40 86.5q0 59 -40 81t-89 22q-51 0 -94 -17l-18 25l96 108q-190 10 -294.5 147.5 t-104.5 358.5q0 115 27.5 210t80.5 164t132 106.5t181 37.5q137 0 233.5 -67.5t141.5 -181.5l-35 -39q-41 119 -129 182t-211 63q-172 0 -272 -124.5t-100 -348.5q0 -221 102 -343t270 -122q117 0 202 58.5t130 167.5z" />
<glyph unicode="&#xe8;" horiz-adv-x="1050" d="M565 1114l-252 279h64l244 -279h-56zM899 557q-16 193 -112.5 296t-256.5 103q-156 0 -254 -104t-114 -295h737zM530 999q90 0 167 -31.5t132.5 -93t87 -152.5t33.5 -208h-792v-18q0 -106 25.5 -194.5t75.5 -151t123 -97.5t167 -35q74 0 130 20.5t100 55.5t75 80t51 96 l37 -37q-23 -51 -57.5 -98t-83.5 -82t-111.5 -56.5t-142.5 -21.5q-96 0 -177 35t-139.5 100.5t-90 160t-31.5 212.5q0 115 30.5 210t86 163t133 105.5t171.5 37.5z" />
<glyph unicode="&#xe9;" horiz-adv-x="1050" d="M422 1114l244 279h63l-252 -279h-55zM899 557q-16 193 -112.5 296t-256.5 103q-156 0 -254 -104t-114 -295h737zM530 999q90 0 167 -31.5t132.5 -93t87 -152.5t33.5 -208h-792v-18q0 -106 25.5 -194.5t75.5 -151t123 -97.5t167 -35q74 0 130 20.5t100 55.5t75 80t51 96 l37 -37q-23 -51 -57.5 -98t-83.5 -82t-111.5 -56.5t-142.5 -21.5q-96 0 -177 35t-139.5 100.5t-90 160t-31.5 212.5q0 115 30.5 210t86 163t133 105.5t171.5 37.5z" />
<glyph unicode="&#xea;" horiz-adv-x="1050" d="M559 1393l254 -279h-55l-226 240l-223 -240h-55l252 279h53zM899 557q-16 193 -112.5 296t-256.5 103q-156 0 -254 -104t-114 -295h737zM530 999q90 0 167 -31.5t132.5 -93t87 -152.5t33.5 -208h-792v-18q0 -106 25.5 -194.5t75.5 -151t123 -97.5t167 -35q74 0 130 20.5 t100 55.5t75 80t51 96l37 -37q-23 -51 -57.5 -98t-83.5 -82t-111.5 -56.5t-142.5 -21.5q-96 0 -177 35t-139.5 100.5t-90 160t-31.5 212.5q0 115 30.5 210t86 163t133 105.5t171.5 37.5z" />
<glyph unicode="&#xeb;" horiz-adv-x="1050" d="M752 1147h-45v199h45v-199zM362 1147h-45v199h45v-199zM899 557q-16 193 -112.5 296t-256.5 103q-156 0 -254 -104t-114 -295h737zM530 999q90 0 167 -31.5t132.5 -93t87 -152.5t33.5 -208h-792v-18q0 -106 25.5 -194.5t75.5 -151t123 -97.5t167 -35q74 0 130 20.5 t100 55.5t75 80t51 96l37 -37q-23 -51 -57.5 -98t-83.5 -82t-111.5 -56.5t-142.5 -21.5q-96 0 -177 35t-139.5 100.5t-90 160t-31.5 212.5q0 115 30.5 210t86 163t133 105.5t171.5 37.5z" />
<glyph unicode="&#xec;" horiz-adv-x="376" d="M190 1114l-251 279h63l244 -279h-56zM211 0h-45v975h45v-975z" />
<glyph unicode="&#xed;" horiz-adv-x="376" d="M156 1114l243 279h64l-252 -279h-55zM211 0h-45v975h45v-975z" />
<glyph unicode="&#xee;" horiz-adv-x="376" d="M217 1393l254 -279h-55l-226 240l-223 -240h-55l252 279h53zM211 0h-45v975h45v-975z" />
<glyph unicode="&#xef;" horiz-adv-x="376" d="M406 1147h-46v199h46v-199zM16 1147h-45v199h45v-199zM211 0h-45v975h45v-975z" />
<glyph unicode="&#xf0;" horiz-adv-x="1095" d="M166 485q0 -223 102.5 -346t272.5 -123q82 0 152.5 32t120.5 92.5t79 147.5t29 197q0 111 -28 199t-78 148.5t-119.5 92t-155.5 31.5q-186 0 -280.5 -124t-94.5 -347zM655 1427q25 -31 48.5 -62.5t46.5 -64.5l196 64l12 -41l-184 -61q98 -164 150.5 -349.5t52.5 -388.5 q0 -115 -25.5 -215t-80 -175t-136.5 -118t-194 -43q-102 0 -182 36t-135.5 101.5t-84 161t-28.5 211.5q0 117 27.5 212.5t80.5 163t133 104t185 36.5q98 0 165.5 -28.5t111.5 -72.5t69.5 -96t40.5 -97l2 2q-29 150 -78 282.5t-125 255.5l-381 -127l-14 43l370 121 q-20 31 -41.5 61.5t-46.5 59.5z" />
<glyph unicode="&#xf1;" horiz-adv-x="1032" d="M874 0h-45v528q0 70 -4 127.5t-14 104.5q-23 92 -82 144t-188 52q-78 0 -139.5 -30.5t-103.5 -80.5t-64.5 -118t-22.5 -141v-586h-45v975h45v-209h2q12 39 37.5 81t66.5 75.5t98.5 55t135.5 21.5q74 0 127 -17t89 -48t57.5 -73t33.5 -93q10 -43 13 -90t3 -109v-569z M850 1280q-16 -51 -52 -86t-102 -35q-37 0 -77.5 15.5t-77.5 33.5q-51 25 -84 38.5t-62 13.5q-51 0 -79.5 -36t-41.5 -77l-38 14q6 23 18 47.5t32.5 45t49.5 33.5t65 13q35 0 73 -14t81 -37q37 -18 75 -33.5t68 -15.5q51 0 77 31t40 63z" />
<glyph unicode="&#xf2;" horiz-adv-x="1062" d="M582 1114l-252 279h63l244 -279h-55zM158 483q0 -221 102 -343t270 -122q172 0 273.5 123t101.5 342q0 225 -100 349t-275 124q-172 0 -272 -125t-100 -348zM109 481q0 115 27.5 210t80.5 164t132 106.5t181 37.5t181.5 -37.5t133.5 -106.5t81.5 -164t27.5 -210 q0 -113 -28.5 -206t-83 -159.5t-133 -103.5t-179.5 -37q-100 0 -178 37t-132 103.5t-82.5 159.5t-28.5 206z" />
<glyph unicode="&#xf3;" horiz-adv-x="1062" d="M436 1114l244 279h63l-251 -279h-56zM158 483q0 -221 102 -343t270 -122q172 0 273.5 123t101.5 342q0 225 -100 349t-275 124q-172 0 -272 -125t-100 -348zM109 481q0 115 27.5 210t80.5 164t132 106.5t181 37.5t181.5 -37.5t133.5 -106.5t81.5 -164t27.5 -210 q0 -113 -28.5 -206t-83 -159.5t-133 -103.5t-179.5 -37q-100 0 -178 37t-132 103.5t-82.5 159.5t-28.5 206z" />
<glyph unicode="&#xf4;" horiz-adv-x="1062" d="M565 1393l254 -279h-55l-225 240l-224 -240h-55l252 279h53zM158 483q0 -221 102 -343t270 -122q172 0 273.5 123t101.5 342q0 225 -100 349t-275 124q-172 0 -272 -125t-100 -348zM109 481q0 115 27.5 210t80.5 164t132 106.5t181 37.5t181.5 -37.5t133.5 -106.5 t81.5 -164t27.5 -210q0 -113 -28.5 -206t-83 -159.5t-133 -103.5t-179.5 -37q-100 0 -178 37t-132 103.5t-82.5 159.5t-28.5 206z" />
<glyph unicode="&#xf5;" horiz-adv-x="1062" d="M846 1280q-16 -51 -52 -86t-102 -35q-37 0 -78 15.5t-77 33.5q-51 25 -84 38.5t-62 13.5q-51 0 -79.5 -36t-41.5 -77l-39 14q6 23 18.5 47.5t33 45t49 33.5t65.5 13q35 0 73 -14t81 -37q37 -18 75 -33.5t68 -15.5q51 0 77 31t40 63zM158 483q0 -221 102 -343t270 -122 q172 0 273.5 123t101.5 342q0 225 -100 349t-275 124q-172 0 -272 -125t-100 -348zM109 481q0 115 27.5 210t80.5 164t132 106.5t181 37.5t181.5 -37.5t133.5 -106.5t81.5 -164t27.5 -210q0 -113 -28.5 -206t-83 -159.5t-133 -103.5t-179.5 -37q-100 0 -178 37t-132 103.5 t-82.5 159.5t-28.5 206z" />
<glyph unicode="&#xf6;" horiz-adv-x="1062" d="M748 1147h-46v199h46v-199zM358 1147h-45v199h45v-199zM158 483q0 -221 102 -343t270 -122q172 0 273.5 123t101.5 342q0 225 -100 349t-275 124q-172 0 -272 -125t-100 -348zM109 481q0 115 27.5 210t80.5 164t132 106.5t181 37.5t181.5 -37.5t133.5 -106.5t81.5 -164 t27.5 -210q0 -113 -28.5 -206t-83 -159.5t-133 -103.5t-179.5 -37q-100 0 -178 37t-132 103.5t-82.5 159.5t-28.5 206z" />
<glyph unicode="&#xf7;" horiz-adv-x="1714" d="M879 741h-45v234h45v-234zM879 0h-45v233h45v-233zM168 508h1378v-43h-1378v43z" />
<glyph unicode="&#xf8;" horiz-adv-x="1062" d="M905 483q0 201 -82 324l-536 -696q98 -92 243 -93q172 0 273.5 123t101.5 342zM158 483q0 -217 98 -340l539 701q-100 113 -265 112q-172 0 -272 -125t-100 -348zM109 481q0 115 27.5 210t80.5 164t132 106.5t181 37.5q92 0 166 -30.5t127 -87.5l105 135l35 -29 l-111 -143q102 -137 102 -363q0 -113 -28.5 -206t-83 -159.5t-133 -103.5t-179.5 -37q-164 0 -272 99l-104 -135l-33 28l106 137q-59 68 -88.5 164t-29.5 213z" />
<glyph unicode="&#xf9;" horiz-adv-x="1028" d="M561 1114l-252 279h64l243 -279h-55zM156 975h45v-533q0 -96 9 -174t40 -133t89 -86t155 -31q78 0 138 31t101 81t62.5 117.5t21.5 141.5v586h45v-975h-45v209h-2q-12 -39 -36.5 -81t-64.5 -76t-97.5 -55.5t-133.5 -21.5q-104 0 -168.5 34t-100.5 91.5t-47 132t-11 156.5 v586z" />
<glyph unicode="&#xfa;" horiz-adv-x="1028" d="M408 1114l243 279h64l-252 -279h-55zM156 975h45v-533q0 -96 9 -174t40 -133t89 -86t155 -31q78 0 138 31t101 81t62.5 117.5t21.5 141.5v586h45v-975h-45v209h-2q-12 -39 -36.5 -81t-64.5 -76t-97.5 -55.5t-133.5 -21.5q-104 0 -168.5 34t-100.5 91.5t-47 132t-11 156.5 v586z" />
<glyph unicode="&#xfb;" horiz-adv-x="1028" d="M547 1393l254 -279h-56l-225 240l-223 -240h-55l252 279h53zM156 975h45v-533q0 -96 9 -174t40 -133t89 -86t155 -31q78 0 138 31t101 81t62.5 117.5t21.5 141.5v586h45v-975h-45v209h-2q-12 -39 -36.5 -81t-64.5 -76t-97.5 -55.5t-133.5 -21.5q-104 0 -168.5 34 t-100.5 91.5t-47 132t-11 156.5v586z" />
<glyph unicode="&#xfc;" horiz-adv-x="1028" d="M735 1147h-45v199h45v-199zM346 1147h-45v199h45v-199zM156 975h45v-533q0 -96 9 -174t40 -133t89 -86t155 -31q78 0 138 31t101 81t62.5 117.5t21.5 141.5v586h45v-975h-45v209h-2q-12 -39 -36.5 -81t-64.5 -76t-97.5 -55.5t-133.5 -21.5q-104 0 -168.5 34t-100.5 91.5 t-47 132t-11 156.5v586z" />
<glyph unicode="&#xfd;" horiz-adv-x="868" d="M371 1114l243 279h64l-252 -279h-55zM43 -334q39 -29 98 -28q47 0 78 18q33 18 55.5 54t49.5 102l82 208l-349 955h52l251 -694q23 -59 41.5 -118t26.5 -81h2q8 23 31.5 82t48.5 123l264 688h47l-426 -1100q-23 -55 -42 -102t-40 -82q-29 -47 -70.5 -72t-107.5 -25 q-29 0 -52.5 5.5t-39.5 13.5v53z" />
<glyph unicode="&#xfe;" horiz-adv-x="1089" d="M205 479q0 -223 100.5 -342t263.5 -119q168 0 264.5 122t96.5 347q0 231 -100.5 350t-262.5 119q-80 0 -146.5 -31.5t-114.5 -93t-74.5 -150.5t-26.5 -202zM573 -25q-86 0 -148.5 24t-104 61.5t-67.5 85t-40 92.5h-2v-627h-45v1782h45v-670h2q12 47 39 96t72 89 t106.5 65.5t142.5 25.5q197 0 301.5 -138t104.5 -378q0 -117 -28.5 -211t-81 -159.5t-128.5 -101.5t-168 -36z" />
<glyph unicode="&#xff;" horiz-adv-x="868" d="M43 -334q39 -29 98 -28q47 0 78 18q33 18 55.5 54t49.5 102l82 208l-349 955h52l251 -694q23 -59 41.5 -118t26.5 -81h2q8 23 31.5 82t48.5 123l264 688h47l-426 -1100q-23 -55 -42 -102t-40 -82q-29 -47 -70.5 -72t-107.5 -25q-29 0 -52.5 5.5t-39.5 13.5v53zM674 1147 h-45v199h45v-199zM285 1147h-45v199h45v-199z" />
<glyph unicode="&#x132;" horiz-adv-x="1423" d="M1239 1393v-889q0 -55 -1 -102.5t-5 -88.5q-18 -199 -137 -282q-90 -61 -240 -62q-84 0 -156.5 19.5t-125 63.5t-83 115t-30.5 173l47 20v-4q0 -80 18.5 -143t59.5 -108.5t107.5 -69t162.5 -23.5q135 0 206 47t105 152q16 51 21.5 110.5t5.5 122.5v949h45zM240 0h-45 v1393h45v-1393z" />
<glyph unicode="&#x133;" horiz-adv-x="792" d="M627 1157h-45v236h45v-236zM283 -324q31 -16 66.5 -27t72.5 -11q84 0 121 45q23 27 31 70.5t8 115.5v1106h45v-985q0 -82 -1 -136.5t-6.5 -91t-14.5 -61.5t-25 -45q-25 -33 -68 -47.5t-90 -14.5q-43 0 -76 7.5t-63 21.5v53zM211 1157h-45v236h45v-236zM211 0h-45v975h45 v-975z" />
<glyph unicode="&#x152;" horiz-adv-x="2045" d="M1090 0q-123 -25 -246 -25q-150 0 -282 40t-230.5 127t-155.5 223.5t-57 326.5t56 326.5t155.5 225.5t232.5 131t287 42q117 0 237 -24h842v-43h-792v-609h718v-43h-718v-655h833v-43h-880zM1090 1346q-59 14 -121 19t-121 5q-137 0 -261 -37t-218.5 -118.5 t-149.5 -209.5t-55 -313q0 -166 50 -292t139 -211t213 -128t274 -43q59 0 121.5 5.5t128.5 21.5v1301z" />
<glyph unicode="&#x153;" horiz-adv-x="1826" d="M1675 557q-16 193 -109 296t-253 103q-156 0 -252 -104t-113 -295h727zM160 483q0 -221 99 -343t267 -122q172 0 270.5 123t98.5 342q0 225 -97.5 349t-271.5 124q-172 0 -269 -125t-97 -348zM1313 999q182 0 295.5 -124.5t117.5 -360.5h-782v-18q0 -106 25.5 -194.5 t75 -151t121 -97.5t165.5 -35q74 0 129.5 20.5t98.5 55.5t72.5 80t49.5 96l37 -37q-23 -51 -56.5 -98t-81.5 -82t-109.5 -56.5t-141.5 -21.5q-154 0 -262.5 83t-148.5 237q-18 -70 -51 -128t-81.5 -101t-113 -67t-146.5 -24q-100 0 -177 37t-130 103.5t-80.5 160 t-27.5 205.5q0 115 26.5 210t78.5 164t130 106.5t180 37.5q82 0 146.5 -24.5t113 -68.5t81 -104.5t51.5 -131.5q41 154 144.5 241.5t250.5 87.5z" />
<glyph unicode="&#x178;" horiz-adv-x="1097" d="M762 1591h-45v199h45v-199zM373 1591h-45v199h45v-199zM571 0h-45v594l-495 799h53l465 -754l473 754h53l-506 -799z" />
<glyph unicode="&#x2c6;" horiz-adv-x="962" d="M516 1393l254 -279h-55l-226 240l-223 -240h-55l252 279h53z" />
<glyph unicode="&#x2dc;" horiz-adv-x="962" d="M788 1280q-16 -51 -52 -86t-101 -35q-37 0 -78 15.5t-78 33.5q-51 25 -84 38.5t-61 13.5q-51 0 -80 -36t-41 -77l-39 14q6 23 18.5 47.5t33 45t49 33.5t65.5 13q35 0 73 -14t81 -37q37 -18 74.5 -33.5t68.5 -15.5q51 0 76.5 31t40.5 63z" />
<glyph unicode="&#x2000;" horiz-adv-x="931" />
<glyph unicode="&#x2001;" horiz-adv-x="1862" />
<glyph unicode="&#x2002;" horiz-adv-x="931" />
<glyph unicode="&#x2003;" horiz-adv-x="1862" />
<glyph unicode="&#x2004;" horiz-adv-x="620" />
<glyph unicode="&#x2005;" horiz-adv-x="465" />
<glyph unicode="&#x2006;" horiz-adv-x="310" />
<glyph unicode="&#x2007;" horiz-adv-x="310" />
<glyph unicode="&#x2008;" horiz-adv-x="232" />
<glyph unicode="&#x2009;" horiz-adv-x="372" />
<glyph unicode="&#x200a;" horiz-adv-x="103" />
<glyph unicode="&#x2010;" horiz-adv-x="849" d="M141 569h568v-43h-568v43z" />
<glyph unicode="&#x2011;" horiz-adv-x="849" d="M141 569h568v-43h-568v43z" />
<glyph unicode="&#x2012;" horiz-adv-x="849" d="M141 569h568v-43h-568v43z" />
<glyph unicode="&#x2013;" horiz-adv-x="1323" d="M141 569h1041v-43h-1041v43z" />
<glyph unicode="&#x2014;" horiz-adv-x="1714" d="M141 569h1432v-43h-1432v43z" />
<glyph unicode="&#x2018;" horiz-adv-x="346" d="M141 854v293q0 109 21.5 170t73.5 96v-53q-27 -27 -38.5 -73t-11.5 -130v-303h-45z" />
<glyph unicode="&#x2019;" horiz-adv-x="346" d="M215 1393v-293q0 -109 -21.5 -170.5t-72.5 -95.5v53q27 27 38 73t11 130v303h45z" />
<glyph unicode="&#x201a;" horiz-adv-x="327" d="M186 233v-292q0 -109 -21.5 -170.5t-72.5 -96.5v54q27 27 38 72.5t11 129.5v303h45z" />
<glyph unicode="&#x201c;" horiz-adv-x="555" d="M350 854v293q0 109 21.5 170t72.5 96v-53q-27 -27 -38 -73t-11 -130v-303h-45zM141 854v293q0 109 21.5 170t73.5 96v-53q-27 -27 -38.5 -73t-11.5 -130v-303h-45z" />
<glyph unicode="&#x201d;" horiz-adv-x="555" d="M215 1393v-293q0 -109 -21.5 -170.5t-72.5 -95.5v53q27 27 38 73t11 130v303h45zM424 1393v-293q0 -109 -21.5 -170.5t-72.5 -95.5v53q27 27 38 73t11 130v303h45z" />
<glyph unicode="&#x201e;" horiz-adv-x="536" d="M186 233v-292q0 -109 -21.5 -170.5t-72.5 -96.5v54q27 27 38 72.5t11 129.5v303h45zM395 233v-292q0 -109 -21.5 -170.5t-72.5 -96.5v54q27 27 38 72.5t11 129.5v303h45z" />
<glyph unicode="&#x2022;" horiz-adv-x="679" d="M180 702q0 66 46 111t112 45q33 0 62.5 -12t51 -33.5t35 -49.5t13.5 -61q0 -68 -48.5 -113.5t-113.5 -45.5q-66 0 -112 45.5t-46 113.5z" />
<glyph unicode="&#x2026;" horiz-adv-x="1693" d="M1552 0h-45v233h45v-233zM868 0h-45v233h45v-233zM186 0h-45v233h45v-233z" />
<glyph unicode="&#x202f;" horiz-adv-x="372" />
<glyph unicode="&#x2030;" horiz-adv-x="2693" d="M2290 829q-74 0 -125 -33.5t-84 -89t-47.5 -129t-14.5 -153.5q0 -82 14.5 -155.5t47.5 -130t84 -89.5t125 -33t125 33t83.5 89.5t47 130t14.5 155.5q0 80 -14.5 153.5t-47 129t-83.5 89t-125 33.5zM2288 -27q-88 0 -148.5 37t-97.5 97.5t-52.5 138.5t-15.5 162 q0 86 14.5 168.5t50.5 148.5t97.5 106.5t155.5 40.5q92 0 152.5 -40.5t96 -106.5t50 -148.5t14.5 -168.5q0 -84 -16.5 -162t-54 -138.5t-98 -97.5t-148.5 -37zM1454 829q-74 0 -125 -33.5t-84 -89t-47 -129t-14 -153.5q0 -82 14 -155.5t47 -130t84 -89.5t125 -33t125 33 t84 89.5t47 130t14 155.5q0 80 -14 153.5t-47 129t-84 89t-125 33.5zM1452 -27q-88 0 -148.5 37t-97.5 97.5t-52 138.5t-15 162q0 86 14 168.5t50 148.5t97.5 106.5t155.5 40.5q92 0 152.5 -40.5t96.5 -106.5t50 -148.5t14 -168.5q0 -84 -16 -162t-54 -138.5t-98.5 -97.5 t-148.5 -37zM584 0h-49l729 1393h47zM406 1374q-74 0 -125.5 -33.5t-84 -89t-47 -129t-14.5 -153.5q0 -82 14.5 -156t47 -130t84 -89t125.5 -33t125 33t83.5 89t47 130t14.5 156q0 80 -14.5 153.5t-47 129t-83.5 89t-125 33.5zM403 518q-88 0 -148 37t-97 97.5t-52.5 138 t-15.5 161.5q0 86 14.5 169t50 148.5t97 106.5t156.5 41q92 0 152.5 -41t96 -106.5t50 -148.5t14.5 -169q0 -84 -16.5 -161.5t-54.5 -138t-98.5 -97.5t-148.5 -37z" />
<glyph unicode="&#x2039;" horiz-adv-x="520" d="M106 604l291 342v-65l-254 -293l254 -299v-66l-291 342v39z" />
<glyph unicode="&#x203a;" horiz-adv-x="520" d="M414 565l-291 -342v66l254 299l-254 293v65l291 -342v-39z" />
<glyph unicode="&#x205f;" horiz-adv-x="465" />
<glyph unicode="&#x20ac;" horiz-adv-x="1257" d="M1149 291q-25 -70 -62.5 -128.5t-89 -99t-119 -64.5t-151.5 -24q-115 0 -199 42t-142 115t-91 171t-47 211h-164l12 41h148q-6 68 -6 139q0 72 6 140h-160l12 40h152q14 119 51 218.5t96.5 172t141 112.5t190.5 40q162 0 264.5 -88t155.5 -235l-41 -25 q-51 141 -144.5 223t-234.5 82q-94 0 -168 -37t-127 -103.5t-88 -158.5t-49 -201h577l-14 -40h-567q-6 -66 -6 -136q0 -76 6 -143h477l-14 -41h-459q12 -104 42 -194.5t81 -157t128 -105.5t181 -39q158 0 249 83t136 216z" />
<glyph unicode="&#x2122;" horiz-adv-x="1816" d="M102 1393h656v-43h-305v-852h-45v852h-306v43zM1317 498h-47l-246 684q-4 8 -12 33.5t-19 54.5q-10 33 -22 69h-2q0 -45 2 -86q0 -35 1 -72.5t1 -66.5v-616h-45v895h67l234 -650q12 -35 23.5 -69.5t21.5 -63.5q10 -33 20 -63h2q8 29 19 61q8 29 19.5 64t23.5 71l217 650 h65v-895h-45v635v127q0 37 2 71h-2q-6 -23 -14 -45q-6 -20 -14 -46t-19 -54z" />
<glyph unicode="&#x2190;" horiz-adv-x="1724" d="M1561 467h-1397l469 -467h-66l-485 487l485 488h66l-471 -465h1399v-43z" />
<glyph unicode="&#x2192;" horiz-adv-x="1724" d="M1157 975l485 -488l-485 -487h-65l469 467h-1397v43h1399l-471 465h65z" />
<glyph unicode="&#x25fc;" horiz-adv-x="972" d="M0 973h973v-973h-973v973z" />
<glyph horiz-adv-x="1990" d="M840 1393l-680 -674h1618v674h45v-717h-1665l682 -676h-66l-696 696l696 697h66z" />
<glyph horiz-adv-x="1232" d="M616 -25q-137 0 -231 58.5t-151.5 158t-82 229.5t-24.5 273q0 154 28.5 286t89 229.5t152.5 152.5t219 55t219.5 -55t153 -152.5t89 -229.5t28.5 -286q0 -143 -24.5 -273t-82 -229.5t-152 -158t-231.5 -58.5zM616 1374q-111 0 -193.5 -52t-138 -143.5t-83 -215 t-27.5 -265.5q0 -133 21.5 -254.5t72.5 -217t136 -152t212 -56.5q129 0 214 56.5t136.5 152t72 217t20.5 254.5q0 141 -26.5 265t-82 215.5t-138.5 143.5t-196 52z" />
<glyph horiz-adv-x="655" d="M461 0h-45v1198q-14 -27 -38 -53.5t-60.5 -47t-89 -32.5t-122.5 -12h-28.5t-22.5 2v41h43q84 0 134.5 15t91.5 44q53 39 71.5 98.5t22.5 139.5h43v-1393z" />
<glyph horiz-adv-x="1110" d="M997 0h-882v39q45 31 106.5 76t130 97t139 110.5t136.5 115.5q61 53 117.5 109.5t99.5 121t68.5 139.5t25.5 165q0 96 -30.5 171t-85 126t-126 77.5t-151.5 26.5q-96 0 -168 -30.5t-119 -81t-70.5 -117t-23.5 -137.5q0 -109 47 -205l-57 12q-20 49 -28.5 99.5t-8.5 95.5 q0 82 27.5 155.5t82 130t134 89t184.5 32.5q113 0 195.5 -35.5t137 -95t81 -140.5t26.5 -169q0 -106 -36 -196.5t-94 -168t-132 -145.5t-150 -131q-51 -43 -113.5 -91t-118.5 -91t-101 -74t-62 -39v-2q35 2 88 3t111 1h620v-43z" />
<glyph horiz-adv-x="1120" d="M133 1122q2 39 24.5 90.5t73 97.5t129 76.5t191.5 30.5q102 0 179 -26.5t128 -72.5t77 -108.5t26 -132.5q0 -137 -81 -224t-243 -110v-2q78 -6 143.5 -30.5t113.5 -69.5t75.5 -111.5t27.5 -156.5q0 -88 -32.5 -161t-91 -125t-142.5 -82t-184 -30q-193 0 -310.5 90.5 t-134.5 253.5q6 4 14.5 10.5t14.5 12.5q8 8 16 14q6 -94 42 -158.5t91.5 -104.5t125 -57.5t143.5 -17.5q82 0 154.5 24t128 70t87 112.5t31.5 152.5q0 117 -50 187.5t-130 107.5q-53 27 -129 37t-215 10h-76v41h58q63 0 110 2t84 7t66.5 13.5t58.5 20.5q78 31 133 95.5 t55 168.5q0 66 -24.5 122t-70.5 97t-114.5 64.5t-154.5 23.5q-84 0 -151.5 -22.5t-117 -61.5t-77 -89t-33.5 -107z" />
<glyph horiz-adv-x="1124" d="M700 438v600v160t5 117h-3q-20 -41 -64 -111.5t-106 -156.5l-423 -609h591zM745 0h-45v395h-651v29l662 969h34v-955h320v-43h-320v-395z" />
<glyph horiz-adv-x="1099" d="M203 723h2q14 27 42.5 61.5t75 63.5t110 49.5t142.5 20.5q90 0 168 -30t135.5 -88.5t90 -143.5t32.5 -193q0 -104 -29.5 -193.5t-88 -155t-144.5 -102.5t-198 -37q-164 0 -274.5 80t-155.5 217l41 41q12 -55 42.5 -108t80 -95t116 -67t150.5 -25q92 0 167.5 31t131 88.5 t86 139t30.5 186.5q0 86 -26.5 160.5t-76.5 130t-125 88t-169 32.5q-135 0 -235.5 -76.5t-137.5 -201.5l-34 10l43 787h716v-43h-673z" />
<glyph horiz-adv-x="1163" d="M1004 440q0 106 -33 183t-88.5 127.5t-127 75t-147.5 24.5q-66 0 -130 -17.5t-121.5 -51t-103.5 -83t-75 -112.5q14 -281 123 -424.5t311 -143.5q80 0 152 29t125 83t84 133t31 177zM973 1106q-10 41 -31.5 88t-62.5 87t-103.5 66.5t-152.5 26.5q-225 0 -338 -190.5 t-113 -532.5q31 57 79 102.5t105.5 76t123 47t132.5 16.5q84 0 163 -26.5t140.5 -81t98.5 -138.5t37 -198q0 -96 -29 -181.5t-84 -151t-137 -103.5t-189 -38q-111 0 -200.5 39t-152 123t-97.5 219.5t-35 325.5q0 170 31.5 306t95 231.5t156 146.5t215.5 51q160 0 256 -75.5 t131 -192.5z" />
<glyph horiz-adv-x="1032" d="M1012 1358q-104 -150 -196.5 -312.5t-158.5 -320.5q-72 -178 -117.5 -357.5t-60.5 -367.5h-49q10 190 62.5 380.5t130.5 371.5q33 80 73.5 160.5t83.5 157.5t88 147.5t86 132.5h-825v-359h-45v402h928v-35z" />
<glyph horiz-adv-x="1191" d="M596 -25q-102 0 -189.5 22.5t-149.5 70t-98 121t-36 178.5q0 143 85 242.5t257 127.5q-150 27 -227.5 117t-77.5 221q0 164 116.5 253t319.5 89t319.5 -89t116.5 -253q0 -131 -77.5 -221t-227.5 -117q172 -29 257 -128t85 -242q0 -104 -36 -178t-98.5 -121.5t-149.5 -70 t-189 -22.5zM596 717q-92 0 -171 -23.5t-135.5 -68.5t-88 -110.5t-31.5 -147.5q0 -168 110.5 -258.5t315.5 -90.5t315.5 90.5t110.5 258.5q0 82 -32 147.5t-88 110.5t-135 68.5t-171 23.5zM596 1374q-186 0 -287.5 -80t-101.5 -221q0 -76 29.5 -135t82 -99t123 -61.5 t154.5 -21.5q82 0 153.5 21.5t124 61.5t82 99t29.5 135q0 141 -101.5 221t-287.5 80z" />
<glyph horiz-adv-x="1165" d="M160 952q0 -106 32.5 -183t88 -127t127 -74.5t147.5 -24.5q66 0 130.5 17.5t121.5 51t103 82.5t75 113q-14 281 -122.5 424t-311.5 143q-80 0 -151.5 -28.5t-125 -83t-84 -133.5t-30.5 -177zM190 287q8 -41 31 -88t64 -87t103.5 -67t152.5 -27q225 0 337.5 190.5 t112.5 532.5q-31 -57 -79 -102t-105 -76t-123 -47t-133 -16q-84 0 -163 26.5t-140.5 81t-98 138t-36.5 198.5q0 94 27.5 180t83 151.5t137 103.5t190.5 38q111 0 201 -39t152.5 -123t97 -219t34.5 -325q0 -170 -31.5 -306.5t-95 -231.5t-155.5 -146.5t-215 -51.5 q-160 0 -256.5 76t-130.5 193z" />
<glyph horiz-adv-x="1675" d="M1092 793q-10 -10 -56.5 -18.5t-87.5 -16.5l-123 -23q-47 -8 -93 -19t-81 -32.5t-56.5 -57.5t-21.5 -94q0 -102 61.5 -152t166.5 -50q72 0 133 31.5t104 95.5q23 37 38.5 87t15.5 134v115zM1229 340q59 0 113.5 36t94.5 99.5t63.5 152.5t23.5 195q0 119 -42 233.5 t-123 203t-200 142.5t-270 54q-156 0 -289 -53t-230.5 -151.5t-152.5 -238t-55 -311.5q0 -170 56 -309t156.5 -237.5t237 -152.5t295.5 -54q186 0 332.5 70.5t249.5 199.5l22 -43q-104 -129 -254.5 -200.5t-349.5 -71.5q-178 0 -324.5 58t-251 162.5t-161.5 252t-57 325.5 q0 180 59 328t162.5 252t246 161.5t308.5 57.5t294 -59.5t214 -154.5t130 -216t44 -246t-30 -223t-78 -165.5t-109.5 -102.5t-126.5 -35q-76 0 -105.5 38t-29.5 109v30t2 32h-2q-10 -39 -32 -78t-57.5 -70.5t-89 -51t-125.5 -19.5q-133 0 -198.5 67.5t-65.5 175.5 q0 113 69 163t189 73l248 47q29 6 45.5 15.5t16.5 43.5v27q0 106 -54.5 161.5t-191.5 55.5q-123 0 -186.5 -59.5t-63.5 -169.5l-43 24q-2 119 79 182.5t214 63.5q74 0 132 -15.5t97 -53.5q29 -31 45.5 -77t16.5 -132v-398q0 -66 15.5 -104.5t76.5 -38.5z" />
<glyph horiz-adv-x="393" d="M219 -180h-45v1716h45v-1716z" />
<glyph horiz-adv-x="1363" d="M702 1290v-583h580v-43h-580v-582h-43v582h-577v43h577v583h43z" />
<glyph horiz-adv-x="1523" d="M1362 82h-1200v43h1200v-43zM786 301h-45v477h-579v43h579v475h45v-475h576v-43h-576v-477z" />
<glyph horiz-adv-x="1280" d="M1126 178l-487 488l-487 -488l-29 29l487 487l-487 488l31 28l485 -487l487 487l31 -28l-487 -488l487 -485z" />
<glyph horiz-adv-x="1734" d="M889 946h-45v234h45v-234zM889 205h-45v233h45v-233zM178 713h1378v-43h-1378v43z" />
<glyph horiz-adv-x="1787" d="M184 897h1379v-43h-1379v43zM184 539h1379v-43h-1379v43z" />
<glyph horiz-adv-x="1083" d="M922 494h-45v434h-766v43h811v-477z" />
<glyph horiz-adv-x="434" d="M328 -186q-104 199 -159.5 418t-55.5 448q0 223 54 442t155 418l43 -6q-102 -201 -154.5 -416t-52.5 -438q0 -225 53 -442.5t162 -415.5z" />
<glyph horiz-adv-x="434" d="M61 -178q109 199 162 416t53 442q0 223 -52 438t-154 416l43 6q100 -199 154.5 -418t54.5 -442q0 -229 -55.5 -448.5t-160.5 -417.5z" />
<glyph horiz-adv-x="817" d="M125 692h567v-43h-567v43z" />
<glyph horiz-adv-x="544" d="M479 -180h-305v1716h305v-43h-260v-1630h260v-43z" />
<glyph horiz-adv-x="544" d="M66 -137h260v1630h-260v43h305v-1716h-305v43z" />
<glyph horiz-adv-x="583" d="M106 688q51 -18 82 -41.5t48.5 -64.5t22.5 -105.5t5 -169.5v-196q0 -74 11.5 -122t40 -77t77.5 -40t127 -11v-41h-16q-80 0 -134.5 14t-88 48t-48 87.5t-14.5 130.5v244q0 70 -3 123t-17.5 92t-43 63.5t-79.5 41.5v51q51 14 79.5 39.5t43 64.5t17.5 91.5t3 123.5v221 q0 78 14.5 131.5t48 87t88 48t134.5 14.5h16v-41q-78 0 -127 -11t-77.5 -40t-40 -77t-11.5 -122v-174q0 -104 -5 -168.5t-22.5 -105.5t-48 -64.5t-82.5 -42.5v-2z" />
<glyph horiz-adv-x="583" d="M477 690q-51 18 -81.5 42t-48 65t-23 105.5t-5.5 168.5v174q0 74 -11 122t-39.5 77t-79 40t-126.5 11v41h17q80 0 134 -14.5t88 -48t48.5 -87t14.5 -131.5v-221q0 -72 3 -124t17 -91t43 -64.5t80 -39.5v-51q-51 -16 -80 -41t-43 -64t-17 -92t-3 -123v-244 q0 -78 -14.5 -131t-48.5 -87t-88 -48t-134 -14h-17v41q76 0 126.5 11t79 40t39.5 77t11 122v196q0 104 5.5 169t23 106t48 64.5t81.5 41.5v2z" />
<glyph horiz-adv-x="780" d="M369 666l290 342v-66l-253 -293l253 -299v-65l-290 342v39zM106 666l291 342v-66l-254 -293l254 -299v-65l-291 342v39z" />
<glyph horiz-adv-x="817" d="M125 692h567v-43h-567v43z" />
<glyph horiz-adv-x="780" d="M412 627l-291 -342v65l254 299l-254 293v66l291 -342v-39zM674 627l-291 -342v65l254 299l-254 293v66l291 -342v-39z" />
<glyph horiz-adv-x="1290" d="M125 692h1040v-43h-1040v43z" />
<glyph horiz-adv-x="1681" d="M125 692h1431v-43h-1431v43z" />
<glyph horiz-adv-x="518" d="M106 666l291 342v-66l-254 -293l254 -299v-65l-291 342v39z" />
<glyph horiz-adv-x="518" d="M412 627l-291 -342v65l254 299l-254 293v66l291 -342v-39z" />
<glyph horiz-adv-x="397" d="M221 -324h-45v662h45v-662zM221 731h-45v662h45v-662z" />
<glyph horiz-adv-x="1925" d="M1823 676h-1665l682 -676h-66l-696 696l696 697h66l-680 -674h1663v-43z" />
<glyph horiz-adv-x="1925" d="M1151 1393l696 -697l-696 -696h-66l682 676h-1665v43h1663l-680 674h66z" />
<glyph horiz-adv-x="376" d="M211 1157h-45v236h45v-236zM211 0h-45v975h45v-975z" />
<glyph d="M604 -25q-137 0 -231 58.5t-151.5 158t-82 229.5t-24.5 273q0 154 28.5 286t89 229.5t152.5 152.5t219 55t219 -55t152.5 -152.5t89.5 -229.5t29 -286q0 -143 -25 -273t-82 -229.5t-151.5 -158t-231.5 -58.5zM604 1374q-111 0 -193.5 -52t-138 -143.5t-83 -215 t-27.5 -265.5q0 -133 21.5 -254.5t72.5 -217t136 -152t212 -56.5q129 0 214 56.5t136.5 152t72 217t20.5 254.5q0 141 -27 265t-82 215.5t-138 143.5t-196 52z" />
<glyph d="M885 1249q-53 59 -123 92t-158 33q-111 0 -193.5 -52t-138 -143.5t-83 -215t-27.5 -265.5q0 -152 26.5 -283.5t94.5 -230.5zM309 145q53 -59 125 -93t170 -34q129 0 214 56.5t136.5 152t72 217t20.5 254.5q0 158 -33 289t-99 223zM604 -25q-137 0 -231 58.5t-151.5 158 t-82 229.5t-24.5 273q0 154 28.5 286t89 229.5t152.5 152.5t219 55t219 -55t152.5 -152.5t89.5 -229.5t29 -286q0 -143 -25 -273t-82 -229.5t-151.5 -158t-231.5 -58.5z" />
<glyph d="M737 0h-45v1198q-14 -27 -37.5 -53.5t-60.5 -47t-89 -32.5t-122 -12h-28.5t-22.5 2v41h43q84 0 134 15t91 44q53 39 71.5 98.5t22.5 139.5h43v-1393z" />
<glyph d="M1047 0h-883v39q45 31 106.5 76t130 98t139 110.5t136.5 114.5q61 55 117.5 111.5t99.5 121t68.5 138.5t25.5 164q0 96 -30.5 171t-85 126t-126 77.5t-151.5 26.5q-96 0 -168 -30.5t-119 -81t-70.5 -117t-23.5 -137.5q0 -109 47 -205l-57 12q-20 49 -28.5 99.5t-8.5 95.5 q0 82 27.5 155.5t82 130t134 89t184.5 32.5q113 0 195.5 -35.5t137 -95t81 -140.5t26.5 -169q0 -106 -35.5 -196.5t-94 -168t-132.5 -145.5t-149 -131q-51 -43 -114 -91t-119 -91t-101 -74t-62 -39v-2q35 2 88.5 3t110.5 1h621v-43z" />
<glyph d="M176 1122q2 39 24.5 90.5t73 97.5t129 76.5t191.5 30.5q102 0 179 -26.5t128 -72.5t77 -108.5t26 -132.5q0 -137 -81 -224t-243 -110v-2q78 -6 143.5 -30.5t113.5 -69.5t75.5 -111.5t27.5 -156.5q0 -88 -32.5 -161t-91 -125t-142.5 -82t-184 -30q-193 0 -310.5 90.5 t-134.5 253.5q6 4 14.5 10.5t14.5 12.5q8 8 16 14q6 -94 42 -158.5t91.5 -104.5t125 -57.5t143.5 -17.5q82 0 154.5 24t128 70t87 112.5t31.5 152.5q0 117 -50 187.5t-130 107.5q-53 27 -129 37t-215 10h-76v41h58q63 0 110 2t84 7t66.5 13.5t58.5 20.5q78 31 133 95.5 t55 168.5q0 66 -24.5 122t-70.5 97t-114.5 64.5t-154.5 23.5q-84 0 -151.5 -22.5t-117 -61.5t-77 -89t-33.5 -107z" />
<glyph d="M741 438v600v160t4 117h-2q-20 -41 -64 -111.5t-106 -156.5l-423 -609h591zM786 0h-45v395h-651v29l662 969h34v-955h320v-43h-320v-395z" />
<glyph d="M256 723h2q14 27 43 61.5t75 63.5t109.5 49.5t143.5 20.5q90 0 167.5 -30t135 -88.5t90.5 -143.5t33 -193q0 -104 -30 -193.5t-88 -155t-144 -102.5t-199 -37q-164 0 -274.5 80t-155.5 217l41 41q12 -55 43 -108t80 -95t115.5 -67t150.5 -25q92 0 168 31t131 88.5t86 139 t31 186.5q0 86 -27 160.5t-77 130t-124.5 88t-169.5 32.5q-135 0 -235.5 -76.5t-136.5 -201.5l-35 10l43 787h717v-43h-674z" />
<glyph d="M1026 440q0 106 -32.5 183t-88 127.5t-127 75t-147.5 24.5q-66 0 -130.5 -17.5t-121.5 -51t-103.5 -83t-74.5 -112.5q14 -281 122.5 -424.5t311.5 -143.5q80 0 151.5 29t125 83t84 133t30.5 177zM995 1106q-10 41 -31.5 88t-62.5 87t-103.5 66.5t-152.5 26.5 q-225 0 -337.5 -190.5t-112.5 -532.5q31 57 79 102.5t105 76t122.5 47t133.5 16.5q84 0 163 -26.5t140 -81t98 -138.5t37 -198q0 -96 -28.5 -181.5t-84 -151t-137.5 -103.5t-188 -38q-111 0 -201 39t-152.5 123t-97 219.5t-34.5 325.5q0 170 31.5 306t95 231.5t155.5 146.5 t215 51q160 0 256 -75.5t131 -192.5z" />
<glyph d="M1100 1358q-104 -150 -196.5 -312.5t-158.5 -320.5q-72 -178 -117.5 -357.5t-60.5 -367.5h-49q10 190 62.5 380.5t130.5 371.5q33 80 73.5 160.5t83.5 157.5t88 147.5t86 132.5h-825v-359h-45v402h928v-35z" />
<glyph d="M604 -25q-102 0 -189 22.5t-149.5 70t-98.5 121t-36 178.5q0 143 85 242.5t257 127.5q-150 27 -227.5 117t-77.5 221q0 164 116.5 253t319.5 89t319.5 -89t116.5 -253q0 -131 -77.5 -221t-227.5 -117q172 -29 257 -128t85 -242q0 -104 -35.5 -178t-98 -121.5t-150 -70 t-189.5 -22.5zM604 717q-92 0 -171 -23.5t-135 -68.5t-88 -110.5t-32 -147.5q0 -168 110.5 -258.5t315.5 -90.5t315.5 90.5t110.5 258.5q0 82 -31.5 147.5t-88 110.5t-135.5 68.5t-171 23.5zM604 1374q-186 0 -287.5 -80t-101.5 -221q0 -76 29.5 -135t82 -99t123 -61.5 t154.5 -21.5q82 0 153.5 21.5t124 61.5t82 99t29.5 135q0 141 -101.5 221t-287.5 80z" />
<glyph d="M182 952q0 -106 33 -183t88 -127t127 -74.5t148 -24.5q66 0 130 17.5t121.5 51t103.5 82.5t75 113q-14 281 -123 424t-312 143q-80 0 -151.5 -28.5t-124.5 -83t-84 -133.5t-31 -177zM213 287q8 -41 30.5 -88t63.5 -87t103.5 -67t152.5 -27q225 0 338 190.5t113 532.5 q-31 -57 -79 -102t-105.5 -76t-123 -47t-133.5 -16q-84 0 -162.5 26.5t-140 81t-98.5 138t-37 198.5q0 94 27.5 180t83 151.5t137.5 103.5t190 38q111 0 201 -39t152.5 -123t97.5 -219t35 -325q0 -170 -32 -306.5t-95.5 -231.5t-155.5 -146.5t-215 -51.5q-160 0 -256 76 t-131 193z" />
</font>
</defs>
</svg>
