<?xml version="1.0" standalone="no"?>
<!DOCTYPE svg PUBLIC "-//W3C//DTD SVG 1.1//EN" "http://www.w3.org/Graphics/SVG/1.1/DTD/svg11.dtd" >
<svg xmlns="http://www.w3.org/2000/svg" xmlns:xlink="http://www.w3.org/1999/xlink" version="1.1">
<metadata></metadata>
<defs>
<font id="theinhardtbold_italic" horiz-adv-x="1208" >
<font-face units-per-em="2048" ascent="1642" descent="-406" />
<missing-glyph horiz-adv-x="409" />
<glyph unicode="&#xfb01;" horiz-adv-x="1306" d="M1296 1100h-301l64 293h301zM1063 0h-299l205 975h301zM760 764h-221l-162 -764h-299l162 764h-162l47 211h162l24 121q14 68 27.5 107.5t34.5 72.5q45 74 131 103.5t203 29.5q53 0 103 -5t85 -11l-47 -230q-18 4 -42 6t-48 2q-39 0 -69 -7t-50 -29q-23 -23 -37 -88 l-16 -72h221z" />
<glyph unicode="&#xfb02;" horiz-adv-x="1314" d="M1358 1393l-297 -1393h-297l295 1393h299zM760 764h-221l-162 -764h-299l162 764h-162l47 211h162l24 121q14 68 27.5 107.5t34.5 72.5q45 74 131 103.5t203 29.5q53 0 103 -5t85 -11l-47 -230q-18 4 -42 6t-48 2q-39 0 -69 -7t-50 -29q-23 -23 -37 -88l-16 -72h221z" />
<glyph horiz-adv-x="0" />
<glyph horiz-adv-x="682" />
<glyph horiz-adv-x="0" />
<glyph horiz-adv-x="0" />
<glyph unicode="&#xd;" horiz-adv-x="1650" d="M1520 365h-994l381 -365h-381l-485 487l485 486h381l-379 -361h693v361h299v-608z" />
<glyph unicode=" "  horiz-adv-x="409" />
<glyph unicode="&#x09;" horiz-adv-x="409" />
<glyph unicode="&#xa0;" horiz-adv-x="409" />
<glyph unicode="!" horiz-adv-x="569" d="M379 324l-70 -324h-297l68 324h299zM377 436h-242l55 400l119 557h295l-119 -557z" />
<glyph unicode="&#x22;" horiz-adv-x="905" d="M784 748h-190l43 448l41 197h303l-41 -197zM373 748h-191l43 448l41 197h303l-41 -197z" />
<glyph unicode="#" horiz-adv-x="1331" d="M575 575h175l43 185h-175zM311 575l45 185h-204l16 262h248l88 371h262l-88 -371h176l86 371h264l-88 -371h191l-17 -262h-233l-45 -185h207l-17 -264h-250l-71 -311h-265l72 311h-174l-72 -311h-264l72 311h-187l17 264h231z" />
<glyph unicode="$" horiz-adv-x="1280" d="M1051 948q-68 92 -161 141.5t-198 49.5q-92 0 -146 -35t-54 -94q0 -63 48 -94t113 -52l162 -55q68 -25 133.5 -54.5t116.5 -71.5t83 -100.5t32 -138.5q0 -92 -32 -174t-97.5 -143t-164 -98t-231.5 -39l-37 -178h-274l45 215q-143 45 -238.5 127t-138.5 161l230 177 q27 -49 67.5 -93.5t93 -76t114 -51t128.5 -19.5q100 0 155.5 39t55.5 108q0 61 -52 91t-120 55l-192 65q-53 18 -109.5 46t-103 72t-76 106.5t-29.5 152.5q0 92 39 169t108.5 131t161.5 84t201 32l35 164h274l-45 -205q111 -39 188.5 -99.5t125.5 -121.5z" />
<glyph unicode="%" horiz-adv-x="2082" d="M381 885q0 -164 82 -164q39 0 69.5 31.5t52 84t33 116t11.5 128.5q0 61 -19.5 105.5t-66.5 44.5q-41 0 -72 -34t-50.5 -86t-29.5 -112.5t-10 -113.5zM563 1417q47 0 101.5 -14t100.5 -51t76.5 -102.5t30.5 -166.5q0 -98 -26.5 -195t-78.5 -176t-130 -128t-180 -49 q-156 0 -235 94t-79 252q0 100 27 196.5t79 172t131 121.5t183 46zM1501 326q0 -164 82 -164q39 0 69.5 31.5t52 84t33 116t11.5 128.5q0 61 -19.5 105.5t-66.5 44.5q-41 0 -71.5 -34t-50 -86t-30 -112.5t-10.5 -113.5zM1683 858q47 0 101.5 -14.5t100.5 -51t77 -102 t31 -166.5q0 -98 -27 -195.5t-79 -176t-130 -128t-180 -49.5q-156 0 -234.5 94.5t-78.5 252.5q0 100 26.5 196t78.5 172t131 122t183 46zM680 0h-264l1022 1393h260z" />
<glyph unicode="&#x26;" horiz-adv-x="1359" d="M737 1194q-55 0 -78.5 -42t-23.5 -95q0 -37 10 -79t29 -69q20 10 36.5 22.5t32.5 22.5q78 68 78 152q0 39 -21.5 63.5t-62.5 24.5zM346 379q0 -76 48 -121t120 -45q70 0 122 25.5t83 60.5q-53 72 -101.5 152.5t-85.5 152.5q-37 -23 -70.5 -43t-59 -46t-41 -58.5 t-15.5 -77.5zM952 0q-16 16 -31.5 36.5t-29.5 37.5q-16 20 -31 41q-27 -23 -61.5 -47.5t-79.5 -45t-102.5 -33t-127.5 -12.5q-102 0 -182 28t-135 78t-84 120.5t-29 154.5q0 82 30 147.5t81 119t119.5 95.5t148.5 79q-23 49 -44 113.5t-21 140.5q0 68 25.5 133t74.5 116.5 t121 83t164 31.5q86 0 147.5 -23.5t102.5 -63.5t60 -93t19 -113q0 -129 -77.5 -220t-239.5 -179q51 -104 125 -213q29 49 56.5 109.5t56.5 134.5l209 -133q-70 -170 -170 -310q43 -59 102 -134t151 -179h-348z" />
<glyph unicode="'" horiz-adv-x="493" d="M373 748h-191l43 448l41 197h303l-41 -197z" />
<glyph unicode="(" horiz-adv-x="632" d="M782 1393q-102 -135 -185 -266.5t-142.5 -268.5t-92 -287.5t-32.5 -322.5q0 -129 18.5 -269.5t59.5 -302.5h-258q-104 332 -105 609q0 158 30.5 303t91 282.5t146.5 266.5t197 256h272z" />
<glyph unicode=")" horiz-adv-x="632" d="M-170 -324q102 135 185 266.5t142.5 268.5t92.5 287.5t33 322.5q0 129 -16.5 269.5t-57.5 302.5h250q53 -166 80.5 -318.5t27.5 -294.5q0 -158 -30.5 -303t-88 -280.5t-142.5 -264.5t-191 -256h-285z" />
<glyph unicode="*" horiz-adv-x="1005" d="M694 1108l250 92l76 -221l-254 -80l174 -205l-192 -147l-164 219l-164 -219l-193 147l174 205l-254 80l76 221l250 -92l-6 285h233z" />
<glyph unicode="+" horiz-adv-x="1386" d="M842 0h-285v467h-465v283h465v475h285v-475h463v-283h-463v-467z" />
<glyph unicode="," horiz-adv-x="548" d="M393 362l-51 -243q-20 -94 -43 -173t-64.5 -135.5t-112.5 -88t-188 -31.5h-8l33 157q74 4 118 34t62 118h-147l76 362h325z" />
<glyph unicode="-" horiz-adv-x="813" d="M88 461l59 282h582l-59 -282h-582z" />
<glyph unicode="." horiz-adv-x="550" d="M-8 0l76 365h325l-76 -365h-325z" />
<glyph unicode="/" horiz-adv-x="872" d="M987 1393l-733 -1393h-313l735 1393h311z" />
<glyph unicode="0" horiz-adv-x="1271" d="M412 535q0 -82 13 -137.5t35.5 -90.5t52.5 -50t67 -15q78 0 139 57t102 146.5t63.5 200t22.5 216.5q0 131 -36.5 211t-127.5 80q-88 0 -150.5 -60.5t-102 -152.5t-59 -200.5t-19.5 -204.5zM754 1417q78 0 160.5 -23.5t150.5 -83t112 -163t44 -264.5q0 -100 -16.5 -208 t-51.5 -208t-88 -189.5t-125 -157t-165 -106.5t-206 -39q-117 0 -205 39t-146 111t-88 173t-30 224q0 160 41 319.5t123 287.5t205 208t285 80z" />
<glyph unicode="1" horiz-adv-x="868" d="M291 0l182 852h-377l51 244h62q84 0 143.5 15t106.5 44q61 39 99 98.5t58 139.5h275l-297 -1393h-303z" />
<glyph unicode="2" horiz-adv-x="1196" d="M186 846q-8 47 -8 110q0 94 35 178.5t99.5 148t156.5 99t209 35.5q115 0 204 -31.5t149.5 -88t92 -132t31.5 -164.5q0 -129 -59.5 -240.5t-150.5 -204.5t-199.5 -168t-206.5 -128v-2q37 2 96 4t174 2h240l-58 -264h-1003l41 231q55 29 121.5 71t136 88t138.5 93t126 90 q53 39 106.5 84t96.5 96.5t69.5 108t26.5 119.5q0 78 -46 126t-136 48q-55 0 -94 -19.5t-64 -53t-36 -76.5t-11 -91q0 -29 3 -60.5t11 -59.5z" />
<glyph unicode="3" horiz-adv-x="1198" d="M174 1040q10 74 46 142.5t99.5 121t153.5 83t207 30.5t203 -28.5t142 -78.5t84 -116t28 -139q0 -121 -60.5 -206t-152.5 -126q70 -47 111.5 -125t41.5 -176q0 -80 -28.5 -159t-92 -143.5t-163 -104.5t-240.5 -40q-236 0 -368 118t-140 343l289 51q4 -131 63.5 -189 t163.5 -58q57 0 97 17t66 45t37 62.5t11 69.5q0 115 -98 154q-41 16 -95.5 19t-127.5 3h-50l43 240h131q78 0 124 15.5t79 41.5q23 18 36 48t13 67q0 59 -42 99t-128 40q-90 0 -146 -47t-69 -143z" />
<glyph unicode="4" horiz-adv-x="1202" d="M655 549l50 221q20 92 33.5 148.5t19.5 82.5h-2q-18 -27 -41 -53q-18 -23 -42 -51.5t-46 -54.5l-92 -105q-31 -35 -62 -68.5t-55 -60.5q-29 -31 -53 -57v-2h290zM1135 549l-48 -246h-194l-64 -303h-290l63 303h-616l41 215l788 875h311l-182 -844h191z" />
<glyph unicode="5" horiz-adv-x="1171" d="M338 418q16 -84 68.5 -132t138.5 -48q106 0 169.5 73.5t63.5 198.5q0 102 -57 156.5t-146 54.5q-49 0 -85.5 -15.5t-63.5 -38t-43 -50t-25 -54.5l-256 101l220 729h841l-63 -258h-561l-76 -215q25 16 80 32.5t127 16.5q76 0 149.5 -24.5t132 -78t94 -135.5t35.5 -196 q0 -117 -33.5 -219.5t-102 -178.5t-173 -119t-244.5 -43q-119 0 -202.5 31t-141 83t-89.5 121t-46 144z" />
<glyph unicode="6" horiz-adv-x="1222" d="M915 987q-6 33 -19 62.5t-34.5 53t-53.5 37t-75 13.5q-51 0 -96 -22.5t-82 -60.5t-63.5 -86t-38.5 -97q49 41 113.5 59.5t129.5 18.5q78 0 154 -27t135 -81t96 -137t37 -198q0 -104 -34.5 -202.5t-103.5 -175t-168 -123t-228 -46.5q-106 0 -195.5 36t-153 103.5 t-98.5 166t-35 225.5q0 180 43 346t126 291t204 199.5t277 74.5q109 0 188.5 -32.5t132.5 -86t81 -124t30 -146.5zM598 240q57 0 99 22.5t70 59t42 83t14 93.5q0 111 -61.5 166t-147.5 55q-57 0 -113.5 -31t-97.5 -84v2q-4 -23 -6 -47t-2 -49q0 -51 11.5 -99.5t35 -86 t62.5 -61t94 -23.5z" />
<glyph unicode="7" horiz-adv-x="1153" d="M1241 1153q-113 -109 -221.5 -247t-198.5 -277q-92 -143 -163.5 -303t-118.5 -326h-344q41 129 96 250t119 231q96 168 212.5 333t262.5 319h-414l-45 -203h-297l98 463h1065z" />
<glyph unicode="8" horiz-adv-x="1249" d="M498 1012q0 -59 46 -106.5t140 -47.5q104 0 155.5 48t51.5 120q0 63 -49 103t-142 40q-104 0 -153 -49t-49 -108zM354 416q0 -82 60.5 -133.5t165.5 -51.5q115 0 180 54.5t65 152.5q0 84 -59 131t-164 47q-125 0 -186.5 -59t-61.5 -141zM57 383q0 70 22.5 128t60.5 106.5 t88.5 83t107.5 59.5q-51 39 -88 104.5t-37 163.5q0 82 36 153.5t101.5 124t159.5 82t211 29.5q106 0 192 -25.5t146.5 -71.5t92.5 -110.5t32 -142.5q0 -129 -61.5 -212t-157.5 -126q63 -41 114 -115.5t51 -193.5q0 -98 -34.5 -179t-104 -139.5t-174 -91.5t-242.5 -33 q-252 0 -384 111t-132 295z" />
<glyph unicode="9" horiz-adv-x="1222" d="M358 408q6 -33 19.5 -63t35 -53.5t53.5 -36.5t75 -13q51 0 96 22.5t82 59t63.5 85t38.5 97.5q-49 -41 -113.5 -59.5t-129.5 -18.5q-78 0 -154 26.5t-135.5 81t-96 137.5t-36.5 197q0 104 34.5 202.5t103 175.5t168 123t228.5 46q106 0 195.5 -35.5t153 -103.5t98 -167 t34.5 -224q0 -182 -43 -347t-125.5 -290t-203.5 -200t-277 -75q-109 0 -188.5 33t-133 86t-81 124t-29.5 147zM676 1155q-57 0 -99 -22.5t-70 -59.5t-42 -83t-14 -93q0 -111 61 -166t147 -55q57 0 113.5 30.5t97.5 84.5v-3q4 23 6.5 47.5t2.5 49.5q0 51 -11.5 99t-35 86 t-62.5 61.5t-94 23.5z" />
<glyph unicode=":" horiz-adv-x="587" d="M137 610l78 365h326l-78 -365h-326zM8 0l78 365h326l-78 -365h-326z" />
<glyph unicode=";" horiz-adv-x="587" d="M412 362l-52 -243q-20 -94 -42.5 -173t-64.5 -135.5t-112.5 -88t-187.5 -31.5h-8l32 157q74 4 118 34t63 118h-148l76 362h326zM137 610l78 365h326l-78 -365h-326z" />
<glyph unicode="&#x3c;" horiz-adv-x="1677" d="M1493 -53l-1391 618v230l1391 614v-299l-999 -426l999 -438v-299z" />
<glyph unicode="=" horiz-adv-x="1695" d="M154 262v258h1380v-258h-1380zM154 680v258h1380v-258h-1380z" />
<glyph unicode="&#x3e;" horiz-adv-x="1675" d="M227 246l1000 438l-1000 426v299l1391 -614v-230l-1391 -618v299z" />
<glyph unicode="?" horiz-adv-x="1054" d="M590 270l-53 -270h-318l55 270h316zM170 895q-12 51 -12 102q0 84 32.5 160t95 133.5t152.5 91t205 33.5q113 0 195 -29.5t134 -79t76.5 -115t24.5 -138.5q0 -127 -60.5 -223.5t-160.5 -172.5l-143 -110q-23 -18 -40.5 -34.5t-30.5 -38t-23.5 -51.5t-18.5 -75h-301 q14 82 32.5 138.5t46 99.5t67.5 78.5t96 78.5l129 95q59 45 82.5 94t23.5 100q0 57 -37 97t-114 40q-94 0 -137.5 -61t-43.5 -150q0 -59 15 -114z" />
<glyph unicode="@" horiz-adv-x="1685" d="M932 111q-31 -27 -82 -53.5t-152 -26.5q-57 0 -109 14t-92 44t-64.5 75t-24.5 106q0 70 23.5 119t68.5 84t109.5 55.5t146.5 30.5l202 29q16 2 22.5 5t10.5 19l4 21q2 8 3 13t1 13q0 35 -31.5 50.5t-82.5 15.5q-66 0 -108 -27.5t-52 -95.5l-240 12q12 80 51 134.5 t97.5 88t129.5 49t146 15.5q145 0 237.5 -52t92.5 -163q0 -27 -4 -50.5t-8 -41.5l-68 -297q-10 -41 -10 -59q0 -25 27 -25q39 0 76.5 35t68.5 93t49.5 135t18.5 161q0 78 -24 152.5t-78 133t-144 94.5t-221 36q-145 0 -265 -56.5t-205 -151.5t-131.5 -220t-46.5 -260 t44 -233.5t119 -162t175.5 -93.5t212.5 -30q195 0 334 59.5t223 133.5l45 -195q-47 -37 -110.5 -71.5t-144 -62t-176 -44t-205.5 -16.5q-154 0 -289 40t-235.5 126t-158 219t-57.5 321q0 221 80 389t207 281t285.5 170t316.5 57q178 0 304 -51t206 -136t116 -193.5 t36 -223.5t-32 -226.5t-92.5 -198.5t-149.5 -140t-204 -53q-84 0 -130 24.5t-62 55.5zM946 422q-20 -8 -72 -19l-51 -8q-70 -10 -119 -31.5t-49 -78.5q0 -43 31 -63.5t78 -20.5q57 0 103 31.5t57 80.5z" />
<glyph unicode="A" horiz-adv-x="1323" d="M797 874q-4 43 -5 83t-4 73q-2 37 -2 72h-2q-14 -39 -32 -76q-16 -33 -35 -70.5t-35 -72.5l-186 -365h327zM227 0h-333l753 1393h383l164 -1393h-324l-24 266h-477z" />
<glyph unicode="B" horiz-adv-x="1398" d="M797 836q90 0 130 9t68 38q51 51 52 153q0 35 -10.5 55.5t-26.5 32.5q-23 16 -56.5 20.5t-81.5 4.5h-290l-70 -313h285zM387 246h313q80 0 127 11t78 34q33 23 54.5 64.5t21.5 107.5q0 47 -12.5 73.5t-32.5 41.5q-23 16 -56.5 19t-80.5 3h-334zM29 0l295 1393h538 q123 0 198 -13.5t128 -42.5q86 -45 127 -123.5t41 -164.5q0 -98 -51.5 -189.5t-151.5 -144.5q59 -37 97 -107.5t38 -163.5q0 -123 -63.5 -231.5t-192.5 -165.5q-51 -23 -116.5 -35t-170.5 -12h-716z" />
<glyph unicode="C" horiz-adv-x="1320" d="M1102 928q-12 45 -35 86t-57.5 73.5t-81.5 52t-109 19.5q-106 0 -182 -51t-124 -133t-70.5 -184.5t-22.5 -202.5q0 -178 70.5 -264t205.5 -86q57 0 107.5 17t89.5 44t68.5 58.5t48.5 60.5l217 -156q-27 -43 -72 -93t-112.5 -93t-157.5 -72t-209 -29q-281 0 -427.5 161 t-146.5 450q0 162 49.5 312.5t143.5 266t229 184t305 68.5q125 0 214.5 -35.5t150.5 -91t99 -122t57 -128.5z" />
<glyph unicode="D" horiz-adv-x="1406" d="M393 276h129q98 0 181 12.5t145 57.5q51 37 90 97.5t65.5 128t40 137t13.5 129.5q0 88 -33 154.5t-106 97.5q-55 23 -125 26.5t-150 3.5h-72zM29 0l295 1393h350q117 0 217 -13.5t186 -48.5q63 -27 116.5 -66.5t91.5 -97t58.5 -133.5t20.5 -174q-2 -104 -25.5 -217 t-68.5 -216t-114 -189t-159 -138q-57 -33 -109 -52t-108.5 -30.5t-120 -14.5t-139.5 -3h-491z" />
<glyph unicode="E" horiz-adv-x="1245" d="M573 1120l-57 -274h600l-57 -271h-600l-64 -299h711l-57 -276h-1018l293 1393h970l-57 -273h-664z" />
<glyph unicode="F" horiz-adv-x="1138" d="M575 1120l-57 -274h578l-58 -271h-575l-125 -575h-307l293 1393h913l-57 -273h-605z" />
<glyph unicode="G" horiz-adv-x="1417" d="M102 586q0 162 49.5 312.5t143.5 266t229 184t305 68.5q125 0 215.5 -35.5t151.5 -91t98 -122t56 -128.5l-248 -112q-12 45 -35 86t-57.5 73.5t-81.5 52t-109 19.5q-106 0 -182 -51t-124 -134t-71.5 -186.5t-23.5 -205.5q0 -166 70.5 -256t207.5 -90q63 0 116.5 21.5 t94.5 59t71 90t46 111.5h-391l49 266h690l-166 -784h-297l21 94q-47 -51 -130 -85t-186 -34q-98 0 -190 32t-164 104.5t-115 188.5t-43 286z" />
<glyph unicode="H" horiz-adv-x="1454" d="M1477 1393l-297 -1393h-310l123 578h-534l-123 -578h-307l295 1393h309l-115 -537h535l114 537h310z" />
<glyph unicode="I" horiz-adv-x="610" d="M633 1393l-297 -1393h-307l295 1393h309z" />
<glyph unicode="J" horiz-adv-x="811" d="M840 1393l-226 -1061q-18 -86 -43.5 -147.5t-64.5 -102.5q-61 -66 -154.5 -89.5t-212.5 -23.5q-66 0 -121 5.5t-98 13.5l53 264q27 -4 56.5 -6t60.5 -2q119 0 168 49q31 31 48.5 81t33.5 126l190 893h310z" />
<glyph unicode="K" horiz-adv-x="1400" d="M1278 0h-363l-294 602l-189 -156l-96 -446h-305l293 1393h305l-111 -543l635 543h420l-709 -588z" />
<glyph unicode="L" horiz-adv-x="1042" d="M633 1393l-236 -1117h551l-59 -276h-858l293 1393h309z" />
<glyph unicode="M" horiz-adv-x="1812" d="M1835 1393l-297 -1393h-307l100 473q16 74 41 177.5t50.5 202.5t47 180t29.5 112h-2q-20 -51 -66.5 -159.5t-109.5 -235.5l-375 -750h-340l-39 813q-4 49 -5 106.5t-1 108.5v119h-2q-4 -25 -16.5 -102.5t-30.5 -180t-38.5 -213t-39.5 -198.5l-98 -453h-307l295 1393h489 l33 -703q4 -57 4 -117.5t2 -109.5q0 -57 2 -113h2q20 55 47 121q23 55 53.5 125t65.5 143l315 654h498z" />
<glyph unicode="N" horiz-adv-x="1476" d="M877 0l-224 559q-29 68 -51 135.5t-41 122.5q-23 66 -39 125h-2q-10 -70 -22 -147q-10 -66 -26.5 -148t-33.5 -166l-102 -481h-307l295 1393h327l226 -566q27 -70 50 -130t40 -107q20 -53 34 -101h3l28 148q12 63 25.5 136t27.5 134l105 486h309l-297 -1393h-325z" />
<glyph unicode="O" horiz-adv-x="1480" d="M827 1161q-111 0 -188.5 -52t-126.5 -136t-71.5 -188.5t-22.5 -206.5q0 -162 70.5 -253.5t205.5 -91.5q106 0 185 52.5t131.5 135.5t78 187.5t25.5 208.5q0 160 -75 252t-212 92zM100 580q0 156 46.5 306t139.5 269t232 190.5t326 71.5q137 0 245.5 -43t184.5 -120.5 t117 -186.5t41 -242q0 -156 -45.5 -307t-138.5 -272t-234.5 -196t-333.5 -75q-145 0 -255 44t-181.5 124t-107.5 191t-36 246z" />
<glyph unicode="P" horiz-adv-x="1298" d="M731 774q84 0 132 10.5t83 32.5q35 25 55.5 70t20.5 106q0 41 -12.5 65.5t-30.5 39.5q-27 18 -63.5 22t-81.5 4h-259l-77 -350h233zM444 506l-108 -506h-305l293 1393h471q88 0 151.5 -6.5t120.5 -22.5q123 -35 193.5 -119t70.5 -239q0 -139 -64.5 -255t-187.5 -182 q-29 -16 -61.5 -27.5t-75.5 -19.5t-99.5 -12t-131.5 -4h-267z" />
<glyph unicode="Q" horiz-adv-x="1531" d="M827 1161q-111 0 -188.5 -52t-126.5 -136t-71.5 -188.5t-22.5 -206.5q0 -162 70.5 -253.5t205.5 -91.5q106 0 185 52.5t131.5 135.5t78 187.5t25.5 208.5q0 160 -75 252t-212 92zM100 580q0 156 46.5 306t139.5 269t232 190.5t326 71.5q137 0 245.5 -43t184.5 -120.5 t117 -186.5t41 -242q0 -135 -34 -265t-102 -243l160 -190l-256 -201l-125 160q-80 -53 -178 -82t-217 -29q-145 0 -255 44t-181.5 124t-107.5 191t-36 246z" />
<glyph unicode="R" horiz-adv-x="1382" d="M731 774q84 0 132 10.5t83 32.5q35 25 55.5 70t20.5 106q0 41 -12.5 65.5t-30.5 39.5q-29 18 -65.5 22t-79.5 4h-261l-73 -350h231zM444 510l-108 -510h-305l293 1393h471q88 0 151.5 -6.5t120.5 -22.5q123 -35 193.5 -119t70.5 -239q0 -166 -85 -287t-232 -174l219 -545 h-330l-190 510h-269z" />
<glyph unicode="S" horiz-adv-x="1267" d="M1049 954q-68 92 -161 142.5t-198 50.5q-92 0 -146.5 -36t-54.5 -95q0 -33 13.5 -55.5t35 -40t51 -29.5t62.5 -23l162 -57q68 -25 133.5 -54.5t116.5 -73.5t83 -103.5t32 -141.5q0 -96 -33 -180t-100.5 -147.5t-170 -99.5t-239.5 -36q-123 0 -224.5 31t-180 79 t-134 107.5t-86.5 114.5l230 180q27 -49 67.5 -94t93 -77.5t113.5 -52t129 -19.5q100 0 155.5 39t55.5 110q0 31 -14.5 53.5t-38 40t-55 29.5t-64.5 25l-193 67q-53 18 -109 47t-102.5 74t-76 109.5t-29.5 154.5q0 96 40 174t110.5 133.5t166 86t203.5 30.5 q106 0 195.5 -23.5t160 -62.5t123 -86t89.5 -96z" />
<glyph unicode="T" horiz-adv-x="1157" d="M213 1393h1077l-57 -275h-383l-238 -1118h-307l238 1118h-385z" />
<glyph unicode="U" horiz-adv-x="1396" d="M618 -25q-254 0 -379.5 102.5t-125.5 291.5q0 66 11 130t26 130l159 764h312l-177 -832q-10 -41 -15 -76.5t-5 -64.5q0 -176 213 -176q66 0 116 15t91 50q33 31 54.5 87.5t43.5 160.5l178 836h307l-184 -871q-29 -139 -72 -239.5t-108 -165.5q-74 -74 -179.5 -108 t-265.5 -34z" />
<glyph unicode="V" horiz-adv-x="1265" d="M1413 1393l-698 -1393h-428l-99 1393h320l45 -867q2 -41 3 -78.5t3 -68.5q2 -37 2 -68h2q12 33 29 70q12 31 29.5 67.5t35.5 75.5l414 869h342z" />
<glyph unicode="W" horiz-adv-x="2033" d="M1139 0l-25 461q-4 86 -6 177t-4 169q-2 90 -2 178h-2q-29 -70 -66 -151q-31 -72 -72.5 -165.5t-91.5 -197.5l-221 -471h-403l-39 1393h317l8 -621v-299q0 -68 -2 -121h2q37 90 78 189q35 86 82 192.5t101 218.5l204 441h357l26 -455q4 -94 10.5 -192.5t10.5 -182.5 q6 -98 8 -188h4q37 88 76 186q35 86 78 192.5t90 217.5l178 422h334l-621 -1393h-409z" />
<glyph unicode="X" horiz-adv-x="1386" d="M907 0l-225 473l-436 -473h-383l686 729l-340 664h336l223 -455l406 455h382l-653 -705l354 -688h-350z" />
<glyph unicode="Y" horiz-adv-x="1294" d="M358 0l119 559l-315 834h315l203 -545l426 545h371l-691 -834l-118 -559h-310z" />
<glyph unicode="Z" horiz-adv-x="1239" d="M1038 0h-1085l53 252l846 868h-639l57 273h1051l-51 -244l-848 -873h676z" />
<glyph unicode="[" horiz-adv-x="686" d="M428 -324h-485l364 1717h488l-47 -222h-193l-272 -1273h192z" />
<glyph unicode="\" horiz-adv-x="1099" d="M502 1393l438 -1393h-293l-436 1393h291z" />
<glyph unicode="]" horiz-adv-x="686" d="M240 1393h485l-365 -1717h-487l47 222h193l272 1273h-192z" />
<glyph unicode="^" horiz-adv-x="946" d="M967 627h-322l-88 342l-231 -342h-344l546 766h232z" />
<glyph unicode="_" horiz-adv-x="1406" d="M-31 -352l58 282h1077l-60 -282h-1075z" />
<glyph unicode="`" horiz-adv-x="1024" d="M674 1393l135 -297h-256l-242 297h363z" />
<glyph unicode="a" horiz-adv-x="1103" d="M111 662q14 94 60 158.5t113.5 104.5t151.5 57t174 17q84 0 156 -15t123 -46t79.5 -79t28.5 -114q0 -31 -5 -58.5l-9 -49.5q-2 -6 -6 -27.5t-11.5 -51.5t-15.5 -65.5t-16 -72.5q-20 -86 -43 -191q-6 -29 -6 -39q0 -25 41 -24h13t17 2l-36 -176q-10 -4 -45 -10.5t-89 -6.5 q-80 0 -119.5 22.5t-48.5 63.5q-33 -31 -88 -58.5t-165 -27.5q-70 0 -132.5 17.5t-110.5 52.5t-76 88t-28 125q0 80 28 138.5t81 98.5t129 64.5t172 36.5l240 33q16 4 24 8t13 20l6 25q2 10 3 16.5t1 16.5q0 41 -38 58.5t-97 17.5q-76 0 -126.5 -33t-60.5 -111zM653 434 q-14 -4 -34.5 -10t-49.5 -10l-61 -11q-41 -6 -77 -14t-63.5 -22.5t-43 -37t-15.5 -57.5q0 -51 38 -74.5t91 -23.5q66 0 121 34t72 118z" />
<glyph unicode="b" horiz-adv-x="1177" d="M592 1393l-111 -519q39 51 106.5 88t166.5 37q68 0 129 -25.5t108 -76.5t75 -128t28 -177q0 -123 -37 -235.5t-103.5 -196.5t-161 -134.5t-208.5 -50.5q-92 0 -163 31t-104 82l-18 -88h-299l295 1393h297zM633 766q-63 0 -110.5 -36t-78 -90t-46 -119.5t-15.5 -123.5 q0 -84 39 -138t117 -54q63 0 110 34.5t79 87t47.5 116t15.5 122.5q0 90 -38 145.5t-120 55.5z" />
<glyph unicode="c" horiz-adv-x="1077" d="M967 233q-25 -47 -66 -93t-99.5 -83t-136 -59.5t-176.5 -22.5q-213 0 -327.5 114t-114.5 310q0 119 37 227.5t109.5 191.5t180 132t251.5 49q180 0 283.5 -85t131.5 -230l-288 -80q-8 76 -46 118t-110 42q-66 0 -113 -33t-78.5 -84t-47 -114.5t-15.5 -124.5 q0 -94 45 -143.5t123 -49.5q76 0 125 40t78 101z" />
<glyph unicode="d" horiz-adv-x="1175" d="M1227 1393l-297 -1393h-293l20 100q-37 -53 -106.5 -89t-167.5 -36q-68 0 -129 26t-107.5 78t-74 131t-27.5 183q0 119 38 228.5t105.5 193.5t160.5 134t206 50q92 0 161.5 -31.5t102.5 -80.5l109 506h299zM506 209q63 0 110.5 36t78 90t46 118.5t15.5 124.5 q0 84 -39 138t-117 54q-63 0 -110.5 -35t-79 -87t-47 -116.5t-15.5 -121.5q0 -90 38 -145.5t120 -55.5z" />
<glyph unicode="e" horiz-adv-x="1120" d="M588 788q-94 0 -152.5 -55t-73.5 -127h394q0 76 -39 129t-129 53zM991 217q-29 -41 -71.5 -84t-103 -78t-138.5 -57.5t-176 -22.5q-215 0 -336 111t-121 322q0 109 36 214t105.5 189t174 136t243.5 52q113 0 196 -32.5t135 -90t77.5 -135t25.5 -168.5q0 -51 -6 -92 t-12 -69h-692q0 -106 58 -155.5t151 -49.5q92 0 158.5 47t99.5 104z" />
<glyph unicode="f" horiz-adv-x="759" d="M760 764h-221l-162 -764h-299l162 764h-162l47 211h162l24 121q14 68 27.5 107.5t34.5 72.5q45 74 131 103.5t203 29.5q53 0 103 -5t85 -11l-47 -230q-18 4 -42 6t-48 2q-39 0 -69 -7t-50 -29q-23 -23 -37 -88l-16 -72h221z" />
<glyph unicode="g" horiz-adv-x="1173" d="M256 -41v-8q0 -141 172 -141q100 0 143 52t62 148l18 92h-2q-41 -47 -105.5 -67.5t-129.5 -20.5q-80 0 -145.5 26t-112.5 78t-74 131t-27 187q0 115 35 217.5t99.5 179t155.5 121.5t202 45q88 0 162.5 -31.5t107.5 -80.5l21 88h299l-219 -1006q-25 -115 -71 -185.5 t-109.5 -109.5t-143.5 -53t-172 -14q-82 0 -164 13t-146.5 48t-104.5 94.5t-40 151.5v14.5t2 20.5zM520 236q61 0 106.5 35.5t73 89t41 116t13.5 115.5q0 84 -39 136t-117 52q-61 0 -107.5 -32.5t-77 -83t-45 -111.5t-14.5 -117q0 -90 40 -145t126 -55z" />
<glyph unicode="h" horiz-adv-x="1161" d="M590 1393l-119 -545q41 55 122 103t198 48q74 0 126 -20.5t85.5 -56t49 -83.5t15.5 -106q0 -47 -8 -96t-19 -100l-114 -537h-297l104 492q10 45 15.5 79.5t5.5 63.5q0 51 -26 80.5t-91 29.5q-45 0 -84 -19t-68.5 -53t-51 -79t-32.5 -94l-104 -500h-297l295 1393h295z" />
<glyph unicode="i" horiz-adv-x="546" d="M535 1100h-302l64 293h301zM301 0h-299l205 975h301z" />
<glyph unicode="j" horiz-adv-x="550" d="M535 1100h-304l62 293h303zM510 975l-223 -1065q-16 -76 -36 -122t-48 -81q-47 -57 -122 -78.5t-187 -21.5q-35 0 -66 2t-66 6l50 235q6 -2 14 -2h29q55 0 88.5 23t50.5 96l213 1008h303z" />
<glyph unicode="k" horiz-adv-x="1155" d="M592 1393l-158 -736l387 318h389l-481 -381l303 -594h-334l-198 416l-138 -107l-65 -309h-297l295 1393h297z" />
<glyph unicode="l" horiz-adv-x="559" d="M602 1393l-297 -1393h-297l295 1393h299z" />
<glyph unicode="m" horiz-adv-x="1763" d="M1231 0l104 492q10 45 15.5 79.5t5.5 63.5q0 51 -23.5 80.5t-89.5 29.5q-43 0 -80 -19t-65.5 -53t-49 -79t-30.5 -94l-105 -500h-297l105 492q10 45 15 79.5t5 63.5q0 51 -23.5 80.5t-88.5 29.5q-43 0 -80 -19t-65.5 -53t-49 -79t-31.5 -94l-104 -500h-297l205 975h295 l-29 -127q41 55 121 103t188 48q104 0 166 -40.5t86 -108.5q23 25 55.5 51.5t76.5 48t98.5 35.5t121.5 14q78 0 131.5 -20.5t87 -56t49 -83.5t15.5 -106q0 -47 -8 -96t-19 -100l-114 -537h-297z" />
<glyph unicode="n" horiz-adv-x="1163" d="M928 0h-297l104 492q10 45 15.5 79.5t5.5 63.5q0 51 -25.5 80.5t-91.5 29.5q-45 0 -84 -19t-68.5 -53t-51 -79t-32.5 -94l-104 -500h-297l205 975h295l-29 -127q41 55 122 103t198 48q74 0 126 -20.5t85.5 -56t49 -83.5t15.5 -106q0 -47 -8 -96t-19 -100z" />
<glyph unicode="o" horiz-adv-x="1146" d="M596 764q-66 0 -113 -33t-78.5 -84t-47 -114.5t-15.5 -124.5q0 -94 45 -143.5t123 -49.5q66 0 114 32t78.5 82t45 113.5t14.5 124.5q0 92 -44 144.5t-122 52.5zM47 399q0 119 37 227.5t109.5 191.5t180 132t251.5 49q215 0 326.5 -116.5t111.5 -311.5q0 -109 -34 -215 t-104.5 -190t-178 -137.5t-257.5 -53.5q-213 0 -327.5 113.5t-114.5 310.5z" />
<glyph unicode="p" horiz-adv-x="1175" d="M-80 -369l287 1344h293l-21 -101q39 53 108.5 89t160.5 36q68 0 129 -24.5t109 -75.5t77 -127t29 -180q0 -123 -37 -234.5t-103.5 -196.5t-161 -135.5t-208.5 -50.5q-92 0 -162 31t-103 82l-98 -457h-299zM631 766q-63 0 -110.5 -36t-78 -90t-46 -119.5t-15.5 -123.5 q0 -84 39 -138t117 -54q63 0 110 34.5t79 87t47 116t15 122.5q0 90 -37.5 145.5t-119.5 55.5z" />
<glyph unicode="q" horiz-adv-x="1177" d="M555 -369l100 469q-39 -53 -105.5 -89t-162.5 -36q-68 0 -129 26t-109.5 78t-76 129t-27.5 179q0 119 37 230.5t103.5 195.5t160.5 135t209 51q92 0 162.5 -30.5t103.5 -81.5l19 88h299l-287 -1344h-297zM506 209q63 0 110.5 36t78 90t46 118.5t15.5 124.5q0 84 -39 138 t-117 54q-63 0 -110.5 -35t-79 -87t-47 -116.5t-15.5 -121.5q0 -90 38 -145.5t120 -55.5z" />
<glyph unicode="r" horiz-adv-x="772" d="M502 975l-33 -135h2q33 59 115 108t192 49h17.5t17.5 -2l-61 -286q-23 6 -48.5 9t-46.5 3q-86 0 -139 -38t-84 -99q-14 -29 -23.5 -62t-17.5 -69l-94 -453h-297l203 975h297z" />
<glyph unicode="s" horiz-adv-x="997" d="M182 365q55 -92 133 -127t148 -35q66 0 104.5 20.5t38.5 61.5q0 35 -32.5 52t-79.5 28l-119 28q-47 12 -95.5 32.5t-88 54.5t-65.5 82t-26 116q0 76 32 135t86 101t128 63.5t158 21.5q106 0 220 -38.5t208 -143.5l-178 -166q-59 66 -132 94.5t-133 28.5 q-49 0 -80.5 -17.5t-31.5 -51.5q0 -35 25.5 -51.5t68.5 -28.5l135 -35q55 -14 105.5 -34.5t89.5 -53.5t62.5 -79t23.5 -110q0 -84 -33 -146.5t-90 -105.5t-136 -64.5t-171 -21.5q-68 0 -134.5 13.5t-129 42t-116.5 72.5t-93 106z" />
<glyph unicode="t" horiz-adv-x="788" d="M602 -2q-74 -18 -186 -18q-133 0 -209 32.5t-76 132.5q0 29 5 60t11 61l105 498h-189l46 211h190l76 350l305 41l-84 -391h213l-45 -211h-213l-86 -404q-4 -25 -8 -44t-4 -35q0 -43 30.5 -57.5t77.5 -14.5q27 0 50.5 3t37.5 7z" />
<glyph unicode="u" horiz-adv-x="1150" d="M197 975h297l-105 -492q-10 -45 -15 -79.5t-5 -63.5q0 -51 24.5 -81t89.5 -30q45 0 82 19.5t65.5 53.5t49 79t31.5 94l104 500h297l-205 -975h-295l29 127q-41 -55 -119 -103.5t-192 -48.5q-145 0 -210 76t-65 191q0 47 8.5 96t18.5 100z" />
<glyph unicode="v" horiz-adv-x="1036" d="M1100 975l-514 -975h-383l-97 975h304l26 -504q2 -41 4 -79t4 -68q2 -37 2 -70h3q12 35 28 72q14 33 30.5 71.5t37.5 79.5l233 498h322z" />
<glyph unicode="w" horiz-adv-x="1654" d="M844 680h-2q-14 -41 -35 -92q-16 -43 -40 -101.5t-52 -124.5l-160 -362h-405l-39 975h305v-428q0 -39 -1 -90t-1 -99q-2 -55 -2 -112h2q18 57 41 110q18 47 39.5 99.5t44.5 97.5l188 422h352l17 -426q2 -49 4 -102.5t4 -98.5q2 -53 2 -102h2q16 49 37 102 q16 45 37.5 99.5t44.5 107.5l166 420h313l-444 -975h-406z" />
<glyph unicode="x" horiz-adv-x="1026" d="M586 0l-127 293l-232 -293h-344l461 520l-221 455h311l109 -250l194 250h338l-420 -477l242 -498h-311z" />
<glyph unicode="y" horiz-adv-x="1060" d="M1122 975l-553 -1065q-47 -90 -93 -148.5t-103.5 -92.5t-131 -47t-178.5 -13q-47 0 -90 3t-86 7l50 238q29 -2 48 -2h42q39 0 71.5 3t56 15t37 34.5t13.5 63.5q0 14 -1 26.5t-3 29.5l-99 948h320l20 -506q2 -35 2 -80t2 -86q0 -49 3 -98h2q16 43 34 88q16 39 36 86t42 94 l228 502h331z" />
<glyph unicode="z" horiz-adv-x="1058" d="M1049 975l-45 -213l-584 -518h493l-51 -244h-909l43 211l592 520h-459l49 244h871z" />
<glyph unicode="{" horiz-adv-x="733" d="M537 807q-12 -61 -26.5 -99t-31 -62.5t-35 -38t-41.5 -25.5q27 -29 35 -63t8 -75t-7 -85t-17 -89l-43 -209q-10 -41 -14.5 -65.5t-4.5 -44.5q0 -37 35 -48.5t131 -11.5l-45 -215q-86 0 -163.5 5.5t-135 28t-91.5 70.5t-34 132q0 43 11.5 103.5t21.5 111.5l43 203 q6 35 11.5 58.5t5.5 41.5q0 33 -19.5 49.5t-81.5 26.5l43 209q43 0 69.5 9t43 29.5t26 52.5t19.5 79l33 151q20 104 44.5 174t66.5 112t105.5 59.5t166.5 17.5q55 0 96 -2t76 -6l-47 -224q-18 2 -34 2h-30q-43 0 -68.5 -8t-41 -24.5t-23.5 -43t-14 -65.5z" />
<glyph unicode="|" horiz-adv-x="673" d="M180 1393h295v-1717h-295v1717z" />
<glyph unicode="}" horiz-adv-x="733" d="M190 315q12 61 26.5 99.5t31 63t35 37.5t41.5 26q-27 29 -35 62.5t-8 74.5t7 85t17 89l33 162q10 41 14 65.5t4 44.5q0 37 -34.5 48.5t-131.5 11.5l46 215q86 0 163.5 -5t135 -29t91 -71t33.5 -131q0 -43 -11 -103.5t-21 -111.5l-33 -155q-6 -35 -11 -58.5t-5 -42.5 q0 -33 19 -49t81 -27l-43 -208q-43 0 -69.5 -9.5t-43 -30t-26 -53t-19.5 -77.5l-43 -199q-23 -104 -47.5 -174t-66 -112t-107.5 -59.5t-166 -17.5q-55 0 -94 2.5t-74 6.5l47 223q18 -2 33.5 -2h30.5q43 0 68.5 8t41 24.5t22.5 44t15 64.5z" />
<glyph unicode="~" horiz-adv-x="1187" d="M1137 590q-72 -90 -168.5 -139.5t-186.5 -49.5q-68 0 -116 16.5t-101 43.5q-35 16 -78 38.5t-84 22.5q-16 0 -33.5 -4t-40 -18.5t-51 -43t-67.5 -75.5l-150 242q18 29 51 63.5t78.5 65t100.5 52t117 21.5q72 0 129 -22.5t118 -57.5q41 -23 70 -35t66 -12q53 0 107 36 t101 93z" />
<glyph unicode="&#xa1;" horiz-adv-x="534" d="M133 651l70 324h297l-68 -324h-299zM135 539h242l-55 -400l-119 -557h-295l119 557z" />
<glyph unicode="&#xa2;" horiz-adv-x="1114" d="M981 233q-23 -43 -59.5 -85t-87 -76.5t-117 -59t-148.5 -32.5l-45 -207h-241l49 227q-131 41 -201 143.5t-70 255.5q0 106 31 207t91.5 181.5t150.5 135t209 70.5l43 195h239l-45 -207q117 -29 184.5 -106.5t90.5 -190.5l-289 -80q-8 76 -46 118t-110 42 q-66 0 -112.5 -33t-78.5 -84t-47.5 -114.5t-15.5 -124.5q0 -94 45 -143.5t123 -49.5q76 0 125 40t78 101z" />
<glyph unicode="&#xa3;" horiz-adv-x="1193" d="M928 963q0 96 -29 148t-96 52q-47 0 -79 -25.5t-52.5 -71.5t-31.5 -108.5t-19 -134.5h290l-53 -248h-268q-18 -127 -48 -202.5t-71 -108.5v-2h107q47 0 103 1t110 1h256l-48 -264h-1026l47 236q57 2 98.5 16t70 45t49 79t34.5 120l17 79h-201l55 248h187 q12 100 34.5 203.5t75 188.5t141.5 139.5t234 54.5q193 0 289 -102.5t96 -296.5v-6z" />
<glyph unicode="&#xa4;" horiz-adv-x="1251" d="M481 571q0 -61 42 -104t102 -43q63 0 104 43t41 104t-40 104.5t-105 43.5q-59 0 -101.5 -42.5t-42.5 -105.5zM201 571q0 53 10 98.5t33 90.5l-33 28l-96 91l204 204l123 -125q80 39 183 39q47 0 96 -9t92 -27l119 118l198 -198l-120 -119q41 -88 41 -191q0 -98 -39 -188 q29 -27 62.5 -59.5t55.5 -55.5l-198 -200l-117 116q-84 -37 -190 -37q-49 0 -97.5 8.5t-91.5 28.5l-119 -118l-200 200l121 119q-37 80 -37 186z" />
<glyph unicode="&#xa5;" horiz-adv-x="1427" d="M260 807h191l-226 586h316l202 -545l426 545h371l-489 -586h206l-53 -252h-356l-21 -102h353l-54 -252h-352l-43 -201h-309l43 201h-336l53 252h336l21 102h-332z" />
<glyph unicode="&#xa6;" horiz-adv-x="698" d="M193 338h294v-662h-294v662zM193 1393h294v-662h-294v662z" />
<glyph unicode="&#xa7;" horiz-adv-x="1083" d="M602 492q51 12 85 41.5t34 76.5q0 53 -41 83t-94 57l-64 30q-66 -4 -100.5 -35.5t-34.5 -78.5q0 -51 37 -82t88 -54zM319 928q-33 33 -50 72.5t-17 99.5q0 76 31.5 135t87 100t129 62.5t157.5 21.5q106 0 220 -40t208 -142l-178 -166q-59 66 -132 94.5t-132 28.5 q-49 0 -81 -17.5t-32 -52.5t32 -60.5t85 -47.5l88 -37q55 -25 104.5 -53.5t86.5 -67.5t58.5 -87t21.5 -112q0 -61 -18.5 -112t-47.5 -90t-66.5 -68t-74.5 -43q39 -35 65.5 -80t26.5 -114q0 -84 -33 -145.5t-91 -102.5t-138 -61.5t-172 -20.5q-68 0 -134.5 14t-129 43 t-116.5 73t-93 103l198 156q55 -92 133 -127t150 -35q68 0 104.5 19.5t36.5 60.5q0 33 -31.5 54.5t-91.5 52.5l-90 45q-61 31 -114.5 62.5t-94.5 72.5t-64.5 93t-23.5 122q0 55 17.5 104t48.5 88t71.5 66t85.5 39z" />
<glyph unicode="&#xa8;" horiz-adv-x="1024" d="M942 1128h-240l52 238h239zM563 1128h-239l51 238h239z" />
<glyph unicode="&#xa9;" horiz-adv-x="1589" d="M1341 715q0 111 -38.5 207t-108.5 167.5t-165 112.5t-206 41t-206 -41t-163.5 -112.5t-108.5 -168t-40 -206.5q0 -111 40 -207t108.5 -168t164 -113t205.5 -41q111 0 206 41t165 113t108.5 168t38.5 207zM1524 715q0 -147 -54.5 -275.5t-148.5 -223.5t-222 -149.5 t-276 -54.5q-147 0 -275 54.5t-222.5 149.5t-148.5 223t-54 276q0 147 54 275t148.5 223.5t222.5 149.5t275 54t275.5 -54t222.5 -149.5t148.5 -223.5t54.5 -275zM1157 539q-47 -106 -130 -168t-200 -62q-84 0 -151.5 29t-114.5 81t-72.5 127t-25.5 167t25.5 168.5t72.5 130 t114.5 83t151.5 29.5q80 0 136.5 -24.5t96.5 -62.5t62.5 -81t34.5 -79l-172 -70q-16 70 -56 108.5t-102 38.5q-78 0 -123 -63.5t-45 -175.5q0 -113 46.5 -174.5t121.5 -61.5q59 0 99.5 35t62.5 94z" />
<glyph unicode="&#xaa;" horiz-adv-x="817" d="M217 1188q8 63 40 107t78 71t103.5 39t118.5 12q117 0 189.5 -42t72.5 -130q0 -18 -2 -37.5t-6 -36.5l-59 -258q-4 -12 -6.5 -23t-2.5 -18q0 -18 29 -18h9t12 2l-25 -117q-8 -4 -34.5 -9t-61.5 -5q-94 0 -113 53q-25 -23 -64.5 -38t-107.5 -15q-45 0 -87 11.5t-73.5 35 t-51 59t-19.5 84.5q0 109 72.5 160t205.5 70l162 22q16 2 22 19q4 12 5.5 20t1.5 19q0 29 -25 40t-63 11q-49 0 -83 -21.5t-42 -74.5zM584 1034q-10 -4 -24.5 -6t-31.5 -6l-41 -8q-53 -10 -92 -25.5t-39 -62.5q0 -35 25 -50.5t59 -15.5q45 0 80 24.5t45 65.5z" />
<glyph unicode="&#xab;" horiz-adv-x="1024" d="M498 442l57 256l444 316l-69 -332l-201 -129l143 -150l-63 -303zM49 442l60 256l444 316l-70 -332l-200 -129l143 -150l-64 -303z" />
<glyph unicode="&#xac;" horiz-adv-x="1343" d="M1194 291h-254v403h-809v236h1063v-639z" />
<glyph unicode="&#xad;" horiz-adv-x="813" d="M88 461l59 282h582l-59 -282h-582z" />
<glyph unicode="&#xae;" horiz-adv-x="1589" d="M1341 715q0 111 -38.5 207t-108.5 167.5t-165 112.5t-206 41t-206 -41t-163.5 -112.5t-108.5 -168t-40 -206.5q0 -111 40 -207t108.5 -168t164 -113t205.5 -41q111 0 206 41t165 113t108.5 168t38.5 207zM1524 715q0 -147 -54.5 -275.5t-148.5 -223.5t-222 -149.5 t-276 -54.5q-147 0 -275 54.5t-222.5 149.5t-148.5 223t-54 276q0 147 54 275t148.5 223.5t222.5 149.5t275 54t275.5 -54t222.5 -149.5t148.5 -223.5t54.5 -275zM815 770q43 0 66.5 4t38.5 10q12 10 21 26.5t9 39.5q0 27 -9 43t-21 25q-20 10 -105 10h-127v-158h127z M688 348h-188v748h323q80 0 118 -7.5t65 -17.5q61 -29 99 -86t38 -135q0 -90 -42 -148.5t-118 -80.5l201 -273h-240l-178 260h-78v-260z" />
<glyph unicode="&#xaf;" horiz-adv-x="1024" d="M385 1380h627l-56 -252h-626z" />
<glyph unicode="&#xb0;" horiz-adv-x="935" d="M403 1020q0 -63 46.5 -109.5t109.5 -46.5t109.5 46t46.5 110q0 63 -46 109.5t-110 46.5q-63 0 -109.5 -46.5t-46.5 -109.5zM162 1020q0 82 30.5 154.5t85 127t126 85t155.5 30.5q82 0 154.5 -30.5t127 -85t85 -127t30.5 -154.5q0 -84 -30.5 -155.5t-85 -126t-127 -85 t-154.5 -30.5q-84 0 -155.5 30.5t-126 85t-85 126t-30.5 155.5z" />
<glyph unicode="&#xb1;" horiz-adv-x="1525" d="M133 0v258h1213v-258h-1213zM883 334h-285v274h-465v283h465v334h285v-334h463v-283h-463v-274z" />
<glyph unicode="&#xb2;" horiz-adv-x="829" d="M225 1055q-6 33 -6 67q0 59 20.5 113.5t60.5 94.5t98.5 63.5t131.5 23.5q74 0 129.5 -19.5t94.5 -54t58 -82t19 -102.5q0 -68 -28.5 -128t-74.5 -111.5t-104.5 -93.5t-117.5 -74v-2h43q18 0 40.5 1t43.5 1h141l-39 -191h-631l31 162q33 18 73 43t82 51.5t82 54t72 52.5 q29 20 57.5 45.5t52.5 54.5t39 59.5t15 63.5q0 37 -21.5 60.5t-62.5 23.5q-53 0 -74.5 -38t-21.5 -85t14 -82z" />
<glyph unicode="&#xb3;" horiz-adv-x="802" d="M315 852q6 -66 37 -103.5t97 -37.5q53 0 82.5 27.5t29.5 80.5q0 98 -155 99h-39l26 145h60q66 0 104.5 25.5t38.5 78.5q0 41 -25.5 62.5t-64.5 21.5q-59 0 -85 -36.5t-30 -92.5l-184 47q4 47 24.5 92.5t59.5 80t96 55t135 20.5q72 0 125 -18.5t88 -49t52.5 -70.5 t17.5 -85q0 -88 -43 -137t-96 -72q39 -16 72.5 -63.5t33.5 -116.5q0 -121 -81 -193.5t-240 -72.5q-82 0 -142.5 21.5t-100.5 60t-61.5 90t-23.5 110.5z" />
<glyph unicode="&#xb4;" horiz-adv-x="1024" d="M913 1393l-241 -297h-256l135 297h362z" />
<glyph unicode="&#xb5;" horiz-adv-x="1144" d="M-72 -369l285 1344h297l-104 -492q-10 -45 -15.5 -79.5t-5.5 -63.5q0 -51 24.5 -81t90.5 -30q45 0 81.5 19.5t65.5 53.5t49.5 79t30.5 94l104 500h297l-204 -975h-293l26 121q-47 -66 -114.5 -97.5t-136.5 -31.5q-47 0 -101 16l-80 -377h-297z" />
<glyph unicode="&#xb6;" horiz-adv-x="1544" d="M864 -262l295 1388h-190l-297 -1388h-262l170 801h-17q-90 0 -168 22.5t-134 69.5t-88 119.5t-32 173.5q0 215 138 336q39 35 85 59t108.5 40.5t145 25t197.5 8.5h817l-55 -267h-160l-295 -1388h-258z" />
<glyph unicode="&#xb7;" horiz-adv-x="561" d="M80 408l76 364h325l-75 -364h-326z" />
<glyph unicode="&#xb8;" horiz-adv-x="731" d="M219 16h146l-70 -77q96 0 141 -49.5t45 -108.5q0 -88 -65.5 -134t-153.5 -46q-37 0 -76 8t-75 26l49 127q14 -10 34.5 -16t43.5 -6q27 0 46 11t19 38q0 25 -18.5 36t-42.5 11q-23 0 -44.5 -7t-35.5 -22l-53 89z" />
<glyph unicode="&#xb9;" horiz-adv-x="634" d="M508 561h-229l100 471h-232l37 166h27q53 0 92 10.5t70 28.5q78 49 102 156h211z" />
<glyph unicode="&#xba;" horiz-adv-x="819" d="M539 1249q-41 0 -72 -20.5t-51.5 -53t-29.5 -73.5t-9 -80q0 -59 28.5 -91t75.5 -32q43 0 73 20.5t50.5 53.5t29.5 72.5t9 80.5q0 57 -27.5 90t-76.5 33zM170 1016q0 80 24.5 152.5t73.5 128t122 88t169 32.5q143 0 219 -77.5t76 -211.5q0 -72 -22.5 -143.5t-69.5 -128.5 t-120 -93t-173 -36q-145 0 -222 78t-77 211z" />
<glyph unicode="&#xbb;" horiz-adv-x="1026" d="M518 672l-57 -256l-445 -316l72 334l201 129l-144 150l62 301zM967 672l-60 -256l-444 -316l72 334l200 129l-143 150l61 301z" />
<glyph unicode="&#xbc;" horiz-adv-x="1802" d="M516 561h-229l100 471h-231l37 166h26q53 0 92 10.5t70 28.5q78 49 102 156h211zM512 0h-264l1022 1393h260zM1368 422q4 23 11 47.5t14 44.5q8 23 12 47q-18 -27 -44 -58.5t-42 -47.5l-45 -49q-25 -27 -43.5 -44.5t-18.5 -19.5h138zM1487 0h-209l39 186h-369l31 127 l502 537h184l-106 -508h131l-31 -156h-133z" />
<glyph unicode="&#xbd;" horiz-adv-x="1898" d="M514 561h-229l100 471h-231l36 166h27q53 0 92 10.5t70 28.5q78 49 102 156h211zM510 0h-264l1022 1393h260zM1196 494q-6 33 -6 67q0 59 20.5 113.5t60.5 94.5t98 63.5t132 23.5t129.5 -19.5t94 -54t58 -82t19.5 -102.5q0 -68 -28.5 -128t-74.5 -111.5t-104.5 -93.5 t-117.5 -75v-2h43q18 0 40.5 1t43.5 1h141l-39 -190h-631l31 162q33 18 73 42.5t82 51.5t81.5 54.5t72.5 51.5q29 20 57.5 46t52 55t39 59.5t15.5 63.5q0 37 -21.5 60.5t-62.5 23.5q-53 0 -74.5 -38t-21.5 -85t14 -82z" />
<glyph unicode="&#xbe;" horiz-adv-x="1970" d="M682 0h-264l1022 1393h260zM1538 422q4 23 11 47.5t14 44.5q8 23 12 47q-18 -27 -44 -58.5t-42 -47.5l-45 -49q-25 -27 -43.5 -44.5t-18.5 -19.5h138zM1657 0h-209l39 186h-369l31 127l502 537h184l-106 -508h131l-31 -156h-133zM313 852q6 -66 37 -103.5t96 -37.5 q53 0 83 27.5t30 80.5q0 98 -156 99h-38l26 145h60q66 0 104.5 25.5t38.5 78.5q0 41 -25.5 62.5t-64.5 21.5q-59 0 -85 -36.5t-30 -92.5l-184 47q4 47 24.5 92.5t59.5 80t96 55t135 20.5q72 0 125 -18.5t88 -49t52.5 -70.5t17.5 -85q0 -88 -43 -137t-96 -72 q39 -16 72.5 -63.5t33.5 -116.5q0 -121 -81 -193.5t-240 -72.5q-82 0 -142.5 21.5t-100.5 60t-61.5 90t-23.5 110.5z" />
<glyph unicode="&#xbf;" horiz-adv-x="1038" d="M416 705l53 270h317l-55 -270h-315zM836 80q12 -53 12 -103q0 -84 -33 -159.5t-95.5 -133t-152.5 -91t-205 -33.5t-195.5 29.5t-132.5 78.5t-77 114.5t-25 139.5q0 127 60.5 223.5t161.5 171.5l143 111q23 18 40 34.5t30.5 38t23.5 51.5t19 75h301q-14 -82 -33 -138.5 t-46.5 -99.5t-67.5 -79t-95 -79l-129 -94q-59 -45 -83 -94t-24 -100q0 -57 37 -97.5t115 -40.5q94 0 137 61.5t43 149.5q0 59 -14 115z" />
<glyph unicode="&#xc0;" horiz-adv-x="1323" d="M797 874q-4 43 -5 83t-4 73q-2 37 -2 72h-2q-14 -39 -32 -76q-16 -33 -35 -70.5t-35 -72.5l-186 -365h327zM227 0h-333l753 1393h383l164 -1393h-324l-24 266h-477zM850 1862l135 -297h-256l-242 297h363z" />
<glyph unicode="&#xc1;" horiz-adv-x="1323" d="M797 874q-4 43 -5 83t-4 73q-2 37 -2 72h-2q-14 -39 -32 -76q-16 -33 -35 -70.5t-35 -72.5l-186 -365h327zM227 0h-333l753 1393h383l164 -1393h-324l-24 266h-477zM1204 1862l-241 -297h-256l135 297h362z" />
<glyph unicode="&#xc2;" horiz-adv-x="1323" d="M797 874q-4 43 -5 83t-4 73q-2 37 -2 72h-2q-14 -39 -32 -76q-16 -33 -35 -70.5t-35 -72.5l-186 -365h327zM227 0h-333l753 1393h383l164 -1393h-324l-24 266h-477zM889 1696l-135 -131h-254l317 297h209l158 -297h-219z" />
<glyph unicode="&#xc3;" horiz-adv-x="1323" d="M797 874q-4 43 -5 83t-4 73q-2 37 -2 72h-2q-14 -39 -32 -76q-16 -33 -35 -70.5t-35 -72.5l-186 -365h327zM227 0h-333l753 1393h383l164 -1393h-324l-24 266h-477zM481 1640q6 27 24.5 67t51.5 77t77 63.5t103 26.5q41 0 76 -14.5t70 -30.5q31 -16 60.5 -27.5 t57.5 -11.5q35 0 56.5 22.5t34.5 53.5l172 -70q-16 -43 -38 -86t-52.5 -77t-72.5 -54t-100 -20q-45 0 -77.5 10t-71.5 28q-41 20 -68.5 34t-50.5 14q-33 0 -51 -24t-29 -52z" />
<glyph unicode="&#xc4;" horiz-adv-x="1323" d="M797 874q-4 43 -5 83t-4 73q-2 37 -2 72h-2q-14 -39 -32 -76q-16 -33 -35 -70.5t-35 -72.5l-186 -365h327zM227 0h-333l753 1393h383l164 -1393h-324l-24 266h-477zM1184 1593h-240l51 238h240zM805 1593h-240l51 238h240z" />
<glyph unicode="&#xc5;" horiz-adv-x="1323" d="M797 874q-4 43 -5 83t-4 73q-2 37 -2 72h-2q-14 -39 -32 -76q-16 -33 -35 -70.5t-35 -72.5l-186 -365h327zM227 0h-333l753 1393h383l164 -1393h-324l-24 266h-477zM811 1731q0 -31 21.5 -51.5t50.5 -20.5t50 20.5t21 51.5t-21.5 51t-49.5 20q-29 0 -50.5 -20t-21.5 -51z M653 1731q0 49 17.5 91t49.5 72.5t74 48t91 17.5t91 -17.5t73.5 -48t49 -72.5t17.5 -91t-17.5 -91.5t-49 -73t-73.5 -48t-91 -17.5t-91 17.5t-74 48t-49.5 73t-17.5 91.5z" />
<glyph unicode="&#xc6;" horiz-adv-x="1882" d="M889 831q8 41 18.5 82t18.5 76q8 39 18 78h-2q-14 -25 -35 -57q-16 -29 -39.5 -66t-52.5 -78l-215 -313h229zM1245 1120l-57 -274h565l-57 -271h-566l-63 -299h676l-57 -276h-979l65 311h-352l-234 -311h-356l1059 1393h1042l-57 -273h-629z" />
<glyph unicode="&#xc7;" horiz-adv-x="1320" d="M537 -12q-215 39 -325 193.5t-110 404.5q0 162 49.5 312.5t143.5 266t229 184t305 68.5q125 0 214.5 -35.5t150.5 -91t99 -122t57 -128.5l-248 -112q-12 45 -35 86t-57.5 73.5t-81.5 52t-109 19.5q-106 0 -182 -51t-124 -133t-70.5 -184.5t-22.5 -202.5q0 -178 70.5 -264 t205.5 -86q57 0 107.5 17t89.5 44t68.5 58.5t48.5 60.5l217 -156q-27 -43 -72 -93t-112.5 -93t-157.5 -72t-209 -29h-17l-45 -36q96 0 141.5 -49.5t45.5 -108.5q0 -88 -65.5 -134t-153.5 -46q-82 0 -152 34l49 127q14 -10 35 -16t43 -6q27 0 46.5 11t19.5 38q0 25 -18.5 36 t-43.5 11q-23 0 -44 -7t-36 -22l-53 89z" />
<glyph unicode="&#xc8;" horiz-adv-x="1245" d="M573 1120l-57 -274h600l-57 -271h-600l-64 -299h711l-57 -276h-1018l293 1393h970l-57 -273h-664zM868 1862l136 -297h-256l-242 297h362z" />
<glyph unicode="&#xc9;" horiz-adv-x="1245" d="M573 1120l-57 -274h600l-57 -271h-600l-64 -299h711l-57 -276h-1018l293 1393h970l-57 -273h-664zM1171 1862l-241 -297h-256l135 297h362z" />
<glyph unicode="&#xca;" horiz-adv-x="1245" d="M573 1120l-57 -274h600l-57 -271h-600l-64 -299h711l-57 -276h-1018l293 1393h970l-57 -273h-664zM889 1696l-135 -131h-254l317 297h209l158 -297h-219z" />
<glyph unicode="&#xcb;" horiz-adv-x="1245" d="M1153 1593h-240l52 238h239zM774 1593h-239l51 238h239zM573 1120l-57 -274h600l-57 -271h-600l-64 -299h711l-57 -276h-1018l293 1393h970l-57 -273h-664z" />
<glyph unicode="&#xcc;" horiz-adv-x="610" d="M514 1862l135 -297h-256l-241 297h362zM633 1393l-297 -1393h-307l295 1393h309z" />
<glyph unicode="&#xcd;" horiz-adv-x="610" d="M868 1862l-241 -297h-256l135 297h362zM633 1393l-297 -1393h-307l295 1393h309z" />
<glyph unicode="&#xce;" horiz-adv-x="610" d="M547 1696l-135 -131h-254l317 297h209l158 -297h-219zM633 1393l-297 -1393h-307l295 1393h309z" />
<glyph unicode="&#xcf;" horiz-adv-x="610" d="M819 1593h-239l51 238h239zM440 1593h-239l51 238h240zM633 1393l-297 -1393h-307l295 1393h309z" />
<glyph unicode="&#xd0;" horiz-adv-x="1431" d="M532 831h322l-59 -274h-320l-59 -281h129q98 0 181 12.5t144 57.5q51 37 90 97.5t66 128t40 137t13 129.5q0 88 -32.5 154.5t-106.5 97.5q-55 23 -125 26.5t-149 3.5h-72zM51 0l117 557h-156l58 274h157l119 562h350q117 0 217.5 -13.5t186.5 -48.5q63 -27 116.5 -66.5 t91.5 -97t58 -133.5t20 -174q0 -104 -23.5 -217t-69.5 -216t-114.5 -189t-158.5 -138q-57 -33 -109.5 -52t-109 -30.5t-120 -14.5t-138.5 -3h-492z" />
<glyph unicode="&#xd1;" horiz-adv-x="1476" d="M877 0l-224 559q-29 68 -51 135.5t-41 122.5q-23 66 -39 125h-2q-10 -70 -22 -147q-10 -66 -26.5 -148t-33.5 -166l-102 -481h-307l295 1393h327l226 -566q27 -70 50 -130t40 -107q20 -53 34 -101h3l28 148q12 63 25.5 136t27.5 134l105 486h309l-297 -1393h-325z M569 1640q6 27 24.5 67t51.5 77t77 63.5t103 26.5q41 0 76 -14.5t70 -30.5q31 -16 60.5 -27.5t58.5 -11.5q35 0 56 22.5t34 53.5l172 -70q-16 -43 -38 -86t-52.5 -77t-72.5 -54t-99 -20q-45 0 -78 10t-72 28q-41 20 -68.5 34t-50.5 14q-33 0 -51 -24t-29 -52z" />
<glyph unicode="&#xd2;" horiz-adv-x="1480" d="M827 1161q-111 0 -188.5 -52t-126.5 -136t-71.5 -188.5t-22.5 -206.5q0 -162 70.5 -253.5t205.5 -91.5q106 0 185 52.5t131.5 135.5t78 187.5t25.5 208.5q0 160 -75 252t-212 92zM100 580q0 156 46.5 306t139.5 269t232 190.5t326 71.5q137 0 245.5 -43t184.5 -120.5 t117 -186.5t41 -242q0 -156 -45.5 -307t-138.5 -272t-234.5 -196t-333.5 -75q-145 0 -255 44t-181.5 124t-107.5 191t-36 246zM930 1862l135 -297h-256l-242 297h363z" />
<glyph unicode="&#xd3;" horiz-adv-x="1480" d="M827 1161q-111 0 -188.5 -52t-126.5 -136t-71.5 -188.5t-22.5 -206.5q0 -162 70.5 -253.5t205.5 -91.5q106 0 185 52.5t131.5 135.5t78 187.5t25.5 208.5q0 160 -75 252t-212 92zM100 580q0 156 46.5 306t139.5 269t232 190.5t326 71.5q137 0 245.5 -43t184.5 -120.5 t117 -186.5t41 -242q0 -156 -45.5 -307t-138.5 -272t-234.5 -196t-333.5 -75q-145 0 -255 44t-181.5 124t-107.5 191t-36 246zM1231 1862l-242 -297h-256l135 297h363z" />
<glyph unicode="&#xd4;" horiz-adv-x="1480" d="M827 1161q-111 0 -188.5 -52t-126.5 -136t-71.5 -188.5t-22.5 -206.5q0 -162 70.5 -253.5t205.5 -91.5q106 0 185 52.5t131.5 135.5t78 187.5t25.5 208.5q0 160 -75 252t-212 92zM100 580q0 156 46.5 306t139.5 269t232 190.5t326 71.5q137 0 245.5 -43t184.5 -120.5 t117 -186.5t41 -242q0 -156 -45.5 -307t-138.5 -272t-234.5 -196t-333.5 -75q-145 0 -255 44t-181.5 124t-107.5 191t-36 246zM946 1696l-135 -131h-254l317 297h209l158 -297h-219z" />
<glyph unicode="&#xd5;" horiz-adv-x="1480" d="M827 1161q-111 0 -188.5 -52t-126.5 -136t-71.5 -188.5t-22.5 -206.5q0 -162 70.5 -253.5t205.5 -91.5q106 0 185 52.5t131.5 135.5t78 187.5t25.5 208.5q0 160 -75 252t-212 92zM100 580q0 156 46.5 306t139.5 269t232 190.5t326 71.5q137 0 245.5 -43t184.5 -120.5 t117 -186.5t41 -242q0 -156 -45.5 -307t-138.5 -272t-234.5 -196t-333.5 -75q-145 0 -255 44t-181.5 124t-107.5 191t-36 246zM545 1640q6 27 24.5 67t51 77t76.5 63.5t104 26.5q41 0 75.5 -14.5t69.5 -30.5q31 -16 60.5 -27.5t58.5 -11.5q35 0 56.5 22.5t33.5 53.5l172 -70 q-16 -43 -37.5 -86t-52.5 -77t-73 -54t-99 -20q-45 0 -78 10t-72 28q-41 20 -68.5 34t-49.5 14q-33 0 -51.5 -24t-28.5 -52z" />
<glyph unicode="&#xd6;" horiz-adv-x="1480" d="M827 1161q-111 0 -188.5 -52t-126.5 -136t-71.5 -188.5t-22.5 -206.5q0 -162 70.5 -253.5t205.5 -91.5q106 0 185 52.5t131.5 135.5t78 187.5t25.5 208.5q0 160 -75 252t-212 92zM100 580q0 156 46.5 306t139.5 269t232 190.5t326 71.5q137 0 245.5 -43t184.5 -120.5 t117 -186.5t41 -242q0 -156 -45.5 -307t-138.5 -272t-234.5 -196t-333.5 -75q-145 0 -255 44t-181.5 124t-107.5 191t-36 246zM1227 1593h-240l51 238h240zM848 1593h-240l51 238h240z" />
<glyph unicode="&#xd7;" horiz-adv-x="1501" d="M760 815l405 406l203 -203l-405 -406l405 -409l-203 -201l-405 408l-410 -410l-203 203l410 409l-407 406l200 203z" />
<glyph unicode="&#xd8;" horiz-adv-x="1511" d="M846 1161q-104 0 -179 -46t-124 -121.5t-74 -170t-31 -192.5l611 446q-74 84 -203 84zM713 233q102 0 180 49.5t130 128t78.5 178t31.5 202.5l-631 -461q72 -97 211 -97zM119 580q0 156 46 306t139 269t232.5 190.5t325.5 71.5q135 0 243.5 -42t186.5 -120l162 119 l164 -227l-191 -139q23 -90 23 -183q0 -156 -45 -307t-138 -272t-234.5 -196t-334.5 -75q-150 0 -259 45.5t-181 129.5l-152 -111l-167 227l196 144q-8 41 -12 82t-4 88z" />
<glyph unicode="&#xd9;" horiz-adv-x="1396" d="M618 -25q-254 0 -379.5 102.5t-125.5 291.5q0 66 11 130t26 130l159 764h312l-177 -832q-8 -41 -14 -76.5t-6 -64.5q0 -176 213 -176q66 0 116 15t91 50q33 31 54.5 87.5t43.5 160.5l178 836h307l-184 -871q-29 -139 -72 -239.5t-108 -165.5q-74 -74 -179.5 -108 t-265.5 -34zM936 1862l135 -297h-256l-242 297h363z" />
<glyph unicode="&#xda;" horiz-adv-x="1396" d="M618 -25q-254 0 -379.5 102.5t-125.5 291.5q0 66 11 130t26 130l159 764h312l-177 -832q-8 -41 -14 -76.5t-6 -64.5q0 -176 213 -176q66 0 116 15t91 50q33 31 54.5 87.5t43.5 160.5l178 836h307l-184 -871q-29 -139 -72 -239.5t-108 -165.5q-74 -74 -179.5 -108 t-265.5 -34zM1270 1862l-242 -297h-256l135 297h363z" />
<glyph unicode="&#xdb;" horiz-adv-x="1396" d="M618 -25q-254 0 -379.5 102.5t-125.5 291.5q0 66 11 130t26 130l159 764h312l-177 -832q-8 -41 -14 -76.5t-6 -64.5q0 -176 213 -176q66 0 116 15t91 50q33 31 54.5 87.5t43.5 160.5l178 836h307l-184 -871q-29 -139 -72 -239.5t-108 -165.5q-74 -74 -179.5 -108 t-265.5 -34zM948 1696l-135 -131h-254l318 297h208l158 -297h-219z" />
<glyph unicode="&#xdc;" horiz-adv-x="1396" d="M618 -25q-254 0 -379.5 102.5t-125.5 291.5q0 66 11 130t26 130l159 764h312l-177 -832q-8 -41 -14 -76.5t-6 -64.5q0 -176 213 -176q66 0 116 15t91 50q33 31 54.5 87.5t43.5 160.5l178 836h307l-184 -871q-29 -139 -72 -239.5t-108 -165.5q-74 -74 -179.5 -108 t-265.5 -34zM1225 1593h-240l51 238h240zM846 1593h-240l51 238h240z" />
<glyph unicode="&#xdd;" horiz-adv-x="1294" d="M1159 1862l-241 -297h-256l135 297h362zM358 0l119 559l-315 834h315l203 -545l426 545h371l-691 -834l-118 -559h-310z" />
<glyph unicode="&#xde;" horiz-adv-x="1308" d="M694 608q84 0 132 10.5t83 32.5q35 25 55.5 70t20.5 106q0 41 -12 66t-31 39q-27 18 -63.5 22t-81.5 4h-258l-78 -350h233zM408 340l-74 -340h-305l295 1393h307l-37 -166h164q88 0 151.5 -6.5t120.5 -22.5q123 -35 193.5 -119t70.5 -239q0 -139 -64.5 -255t-187.5 -182 q-29 -16 -61.5 -27t-75.5 -19.5t-99 -12.5t-132 -4h-266z" />
<glyph unicode="&#xdf;" horiz-adv-x="1097" d="M455 215h45q47 0 78.5 17.5t52 49t35 76.5t26.5 99q20 88 21 143q0 55 -32 76.5t-103 21.5h-19l45 222h19q70 0 107.5 44t37.5 109q0 47 -28.5 76t-82.5 29q-33 0 -53 -10.5t-37 -26.5q-29 -27 -41 -75t-22 -93l-207 -973h-297l205 967q23 106 53.5 185t77.5 132 q55 63 136 97t196 34q201 0 300 -80t99 -213q0 -92 -43 -175t-133 -130q117 -59 117 -223q0 -47 -6.5 -91t-14.5 -81q-25 -111 -59.5 -191.5t-89 -135t-135 -80t-197.5 -25.5h-60q-18 0 -36 2z" />
<glyph unicode="&#xe0;" horiz-adv-x="1103" d="M111 662q14 94 60 158.5t113.5 104.5t151.5 57t174 17q84 0 156 -15t123 -46t79.5 -79t28.5 -114q0 -31 -5 -58.5l-9 -49.5q-2 -6 -6 -27.5t-11.5 -51.5t-15.5 -65.5t-16 -72.5q-20 -86 -43 -191q-6 -29 -6 -39q0 -25 41 -24h13t17 2l-36 -176q-10 -4 -45 -10.5t-89 -6.5 q-80 0 -119.5 22.5t-48.5 63.5q-33 -31 -88 -58.5t-165 -27.5q-70 0 -132.5 17.5t-110.5 52.5t-76 88t-28 125q0 80 28 138.5t81 98.5t129 64.5t172 36.5l240 33q16 4 24 8t13 20l6 25q2 10 3 16.5t1 16.5q0 41 -38 58.5t-97 17.5q-76 0 -126.5 -33t-60.5 -111zM653 434 q-14 -4 -34.5 -10t-49.5 -10l-61 -11q-41 -6 -77 -14t-63.5 -22.5t-43 -37t-15.5 -57.5q0 -51 38 -74.5t91 -23.5q66 0 121 34t72 118zM676 1393l135 -297h-256l-242 297h363z" />
<glyph unicode="&#xe1;" horiz-adv-x="1103" d="M111 662q14 94 60 158.5t113.5 104.5t151.5 57t174 17q84 0 156 -15t123 -46t79.5 -79t28.5 -114q0 -31 -5 -58.5l-9 -49.5q-2 -6 -6 -27.5t-11.5 -51.5t-15.5 -65.5t-16 -72.5q-20 -86 -43 -191q-6 -29 -6 -39q0 -25 41 -24h13t17 2l-36 -176q-10 -4 -45 -10.5t-89 -6.5 q-80 0 -119.5 22.5t-48.5 63.5q-33 -31 -88 -58.5t-165 -27.5q-70 0 -132.5 17.5t-110.5 52.5t-76 88t-28 125q0 80 28 138.5t81 98.5t129 64.5t172 36.5l240 33q16 4 24 8t13 20l6 25q2 10 3 16.5t1 16.5q0 41 -38 58.5t-97 17.5q-76 0 -126.5 -33t-60.5 -111zM653 434 q-14 -4 -34.5 -10t-49.5 -10l-61 -11q-41 -6 -77 -14t-63.5 -22.5t-43 -37t-15.5 -57.5q0 -51 38 -74.5t91 -23.5q66 0 121 34t72 118zM991 1393l-241 -297h-256l135 297h362z" />
<glyph unicode="&#xe2;" horiz-adv-x="1103" d="M111 662q14 94 60 158.5t113.5 104.5t151.5 57t174 17q84 0 156 -15t123 -46t79.5 -79t28.5 -114q0 -31 -5 -58.5l-9 -49.5q-2 -6 -6 -27.5t-11.5 -51.5t-15.5 -65.5t-16 -72.5q-20 -86 -43 -191q-6 -29 -6 -39q0 -25 41 -24h13t17 2l-36 -176q-10 -4 -45 -10.5t-89 -6.5 q-80 0 -119.5 22.5t-48.5 63.5q-33 -31 -88 -58.5t-165 -27.5q-70 0 -132.5 17.5t-110.5 52.5t-76 88t-28 125q0 80 28 138.5t81 98.5t129 64.5t172 36.5l240 33q16 4 24 8t13 20l6 25q2 10 3 16.5t1 16.5q0 41 -38 58.5t-97 17.5q-76 0 -126.5 -33t-60.5 -111zM653 434 q-14 -4 -34.5 -10t-49.5 -10l-61 -11q-41 -6 -77 -14t-63.5 -22.5t-43 -37t-15.5 -57.5q0 -51 38 -74.5t91 -23.5q66 0 121 34t72 118zM680 1227l-135 -131h-254l317 297h209l158 -297h-219z" />
<glyph unicode="&#xe3;" horiz-adv-x="1103" d="M111 662q14 94 60 158.5t113.5 104.5t151.5 57t174 17q84 0 156 -15t123 -46t79.5 -79t28.5 -114q0 -31 -5 -58.5l-9 -49.5q-2 -6 -6 -27.5t-11.5 -51.5t-15.5 -65.5t-16 -72.5q-20 -86 -43 -191q-6 -29 -6 -39q0 -25 41 -24h13t17 2l-36 -176q-10 -4 -45 -10.5t-89 -6.5 q-80 0 -119.5 22.5t-48.5 63.5q-33 -31 -88 -58.5t-165 -27.5q-70 0 -132.5 17.5t-110.5 52.5t-76 88t-28 125q0 80 28 138.5t81 98.5t129 64.5t172 36.5l240 33q16 4 24 8t13 20l6 25q2 10 3 16.5t1 16.5q0 41 -38 58.5t-97 17.5q-76 0 -126.5 -33t-60.5 -111zM653 434 q-14 -4 -34.5 -10t-49.5 -10l-61 -11q-41 -6 -77 -14t-63.5 -22.5t-43 -37t-15.5 -57.5q0 -51 38 -74.5t91 -23.5q66 0 121 34t72 118zM283 1171q6 27 24.5 67t51 77t76.5 63.5t104 26.5q41 0 75.5 -14.5t69.5 -30.5q31 -16 60.5 -27.5t58.5 -11.5q35 0 56.5 22.5t33.5 53.5 l172 -70q-16 -43 -37.5 -86t-52.5 -77t-73 -54t-99 -20q-45 0 -78 10t-72 28q-41 20 -68.5 34t-49.5 14q-33 0 -51.5 -24t-28.5 -52z" />
<glyph unicode="&#xe4;" horiz-adv-x="1103" d="M111 662q14 94 60 158.5t113.5 104.5t151.5 57t174 17q84 0 156 -15t123 -46t79.5 -79t28.5 -114q0 -31 -5 -58.5l-9 -49.5q-2 -6 -6 -27.5t-11.5 -51.5t-15.5 -65.5t-16 -72.5q-20 -86 -43 -191q-6 -29 -6 -39q0 -25 41 -24h13t17 2l-36 -176q-10 -4 -45 -10.5t-89 -6.5 q-80 0 -119.5 22.5t-48.5 63.5q-33 -31 -88 -58.5t-165 -27.5q-70 0 -132.5 17.5t-110.5 52.5t-76 88t-28 125q0 80 28 138.5t81 98.5t129 64.5t172 36.5l240 33q16 4 24 8t13 20l6 25q2 10 3 16.5t1 16.5q0 41 -38 58.5t-97 17.5q-76 0 -126.5 -33t-60.5 -111zM653 434 q-14 -4 -34.5 -10t-49.5 -10l-61 -11q-41 -6 -77 -14t-63.5 -22.5t-43 -37t-15.5 -57.5q0 -51 38 -74.5t91 -23.5q66 0 121 34t72 118zM958 1128h-239l51 238h240zM580 1128h-240l51 238h240z" />
<glyph unicode="&#xe5;" horiz-adv-x="1103" d="M111 662q14 94 60 158.5t113.5 104.5t151.5 57t174 17q84 0 156 -15t123 -46t79.5 -79t28.5 -114q0 -31 -5 -58.5l-9 -49.5q-2 -6 -6 -27.5t-11.5 -51.5t-15.5 -65.5t-16 -72.5q-20 -86 -43 -191q-6 -29 -6 -39q0 -25 41 -24h13t17 2l-36 -176q-10 -4 -45 -10.5t-89 -6.5 q-80 0 -119.5 22.5t-48.5 63.5q-33 -31 -88 -58.5t-165 -27.5q-70 0 -132.5 17.5t-110.5 52.5t-76 88t-28 125q0 80 28 138.5t81 98.5t129 64.5t172 36.5l240 33q16 4 24 8t13 20l6 25q2 10 3 16.5t1 16.5q0 41 -38 58.5t-97 17.5q-76 0 -126.5 -33t-60.5 -111zM653 434 q-14 -4 -34.5 -10t-49.5 -10l-61 -11q-41 -6 -77 -14t-63.5 -22.5t-43 -37t-15.5 -57.5q0 -51 38 -74.5t91 -23.5q66 0 121 34t72 118zM590 1290q0 -31 21.5 -51t50.5 -20t50 20.5t21 50.5q0 31 -21.5 51.5t-49.5 20.5q-29 0 -50.5 -20.5t-21.5 -51.5zM432 1290 q0 49 17.5 91t49 73t73.5 48.5t92 17.5q49 0 91 -17.5t73.5 -48.5t49 -73t17.5 -91t-17.5 -91t-49 -72.5t-73.5 -48t-91 -17.5t-91.5 17.5t-74 48t-49 72.5t-17.5 91z" />
<glyph unicode="&#xe6;" horiz-adv-x="1722" d="M1190 788q-94 0 -152.5 -55t-72.5 -127h393q0 76 -39 129t-129 53zM653 434q-14 -4 -34.5 -10t-49.5 -10l-61 -11q-41 -6 -77 -14t-63.5 -21.5t-43 -36t-15.5 -57.5q0 -53 35 -76.5t94 -23.5q68 0 122 37t67 96zM1593 217q-29 -41 -71.5 -84t-103 -78t-138.5 -57.5 t-176 -22.5q-231 0 -348 123q-23 -18 -56.5 -39.5t-79 -40t-104.5 -31t-135 -12.5t-142.5 17.5t-115.5 52.5t-77 87t-28 124q0 82 28 140.5t81 98.5t129 64.5t172 36.5l240 33q16 4 24 8t13 20l6 25q2 10 3 16.5t1 16.5q0 41 -38 58.5t-97 17.5q-76 0 -126.5 -33t-60.5 -111 l-282 15q14 94 60 158.5t113.5 104.5t151.5 57t174 17q96 0 173 -19t130 -60q59 37 132 58t161 21q113 0 196 -32.5t135 -90t77.5 -135t25.5 -168.5q0 -51 -6 -92t-12 -69h-692q0 -106 58.5 -155.5t150.5 -49.5t158.5 47t99.5 104z" />
<glyph unicode="&#xe7;" horiz-adv-x="1077" d="M967 233q-25 -45 -64 -89t-93 -79.5t-126 -59t-164 -28.5l-55 -38q96 0 141 -49.5t45 -108.5q0 -88 -65.5 -134t-153.5 -46q-37 0 -76 8t-75 26l49 127q14 -10 34.5 -16t43.5 -6q27 0 46 11t19 38q0 25 -18.5 36t-42.5 11q-23 0 -44.5 -7t-35.5 -22l-53 89l106 88 q-164 27 -251 135t-87 280q0 119 37 227.5t109.5 191.5t180 132t251.5 49q180 0 283.5 -85t131.5 -230l-288 -80q-8 76 -46 118t-110 42q-66 0 -113 -33t-78.5 -84t-47 -114.5t-15.5 -124.5q0 -94 45 -143.5t123 -49.5q76 0 125 40t78 101z" />
<glyph unicode="&#xe8;" horiz-adv-x="1120" d="M653 1393l135 -297h-256l-241 297h362zM588 788q-94 0 -152.5 -55t-73.5 -127h394q0 76 -39 129t-129 53zM991 217q-29 -41 -71.5 -84t-103 -78t-138.5 -57.5t-176 -22.5q-215 0 -336 111t-121 322q0 109 36 214t105.5 189t174 136t243.5 52q113 0 196 -32.5t135 -90 t77.5 -135t25.5 -168.5q0 -51 -6 -92t-12 -69h-692q0 -106 58 -155.5t151 -49.5q92 0 158.5 47t99.5 104z" />
<glyph unicode="&#xe9;" horiz-adv-x="1120" d="M977 1393l-242 -297h-256l135 297h363zM588 788q-94 0 -152.5 -55t-73.5 -127h394q0 76 -39 129t-129 53zM991 217q-29 -41 -71.5 -84t-103 -78t-138.5 -57.5t-176 -22.5q-215 0 -336 111t-121 322q0 109 36 214t105.5 189t174 136t243.5 52q113 0 196 -32.5t135 -90 t77.5 -135t25.5 -168.5q0 -51 -6 -92t-12 -69h-692q0 -106 58 -155.5t151 -49.5q92 0 158.5 47t99.5 104z" />
<glyph unicode="&#xea;" horiz-adv-x="1120" d="M664 1227l-136 -131h-254l318 297h209l157 -297h-219zM588 788q-94 0 -152.5 -55t-73.5 -127h394q0 76 -39 129t-129 53zM991 217q-29 -41 -71.5 -84t-103 -78t-138.5 -57.5t-176 -22.5q-215 0 -336 111t-121 322q0 109 36 214t105.5 189t174 136t243.5 52 q113 0 196 -32.5t135 -90t77.5 -135t25.5 -168.5q0 -51 -6 -92t-12 -69h-692q0 -106 58 -155.5t151 -49.5q92 0 158.5 47t99.5 104z" />
<glyph unicode="&#xeb;" horiz-adv-x="1120" d="M948 1128h-239l51 238h239zM569 1128h-239l51 238h240zM588 788q-94 0 -152.5 -55t-73.5 -127h394q0 76 -39 129t-129 53zM991 217q-29 -41 -71.5 -84t-103 -78t-138.5 -57.5t-176 -22.5q-215 0 -336 111t-121 322q0 109 36 214t105.5 189t174 136t243.5 52 q113 0 196 -32.5t135 -90t77.5 -135t25.5 -168.5q0 -51 -6 -92t-12 -69h-692q0 -106 58 -155.5t151 -49.5q92 0 158.5 47t99.5 104z" />
<glyph unicode="&#xec;" horiz-adv-x="546" d="M383 1393l135 -297h-256l-242 297h363zM301 0h-299l205 975h301z" />
<glyph unicode="&#xed;" horiz-adv-x="546" d="M741 1393l-241 -297h-256l135 297h362zM301 0h-299l205 975h301z" />
<glyph unicode="&#xee;" horiz-adv-x="546" d="M416 1227l-135 -131h-254l317 297h209l158 -297h-219zM301 0h-299l205 975h301z" />
<glyph unicode="&#xef;" horiz-adv-x="546" d="M698 1128h-239l51 238h240zM319 1128h-239l51 238h240zM301 0h-299l205 975h301z" />
<glyph unicode="&#xf0;" horiz-adv-x="1163" d="M596 764q-66 0 -113 -33t-78.5 -84t-47 -114.5t-15.5 -124.5q0 -94 45 -143.5t123 -49.5q66 0 114 32t78.5 82t45 113.5t14.5 124.5q0 92 -44 144.5t-122 52.5zM842 1452q16 -23 33.5 -48.5t33.5 -49.5l205 61l55 -178l-170 -51q43 -102 68 -217t25 -244 q0 -141 -33 -276.5t-105.5 -240t-187.5 -169t-277 -64.5q-213 0 -327.5 114t-114.5 310q0 133 43 244t117 189.5t172 121.5t209 43q72 0 122 -14t85 -37q-4 12 -18.5 55t-43.5 103l-194 -57l-58 176l160 49q-10 16 -22.5 35.5t-26.5 35.5z" />
<glyph unicode="&#xf1;" horiz-adv-x="1163" d="M336 1171q6 27 24.5 67t51 77t76.5 63.5t104 26.5q41 0 75.5 -14.5t69.5 -30.5q31 -16 60.5 -27.5t58.5 -11.5q35 0 56.5 22.5t33.5 53.5l172 -70q-16 -43 -37.5 -86t-52.5 -77t-73 -54t-99 -20q-45 0 -78 10t-71 28q-41 20 -69 34t-50 14q-33 0 -51.5 -24t-28.5 -52z M928 0h-297l104 492q10 45 15.5 79.5t5.5 63.5q0 51 -25.5 80.5t-91.5 29.5q-45 0 -84 -19t-68.5 -53t-51 -79t-32.5 -94l-104 -500h-297l205 975h295l-29 -127q41 55 122 103t198 48q74 0 126 -20.5t85.5 -56t49 -83.5t15.5 -106q0 -47 -8 -96t-19 -100z" />
<glyph unicode="&#xf2;" horiz-adv-x="1146" d="M659 1393l136 -297h-256l-242 297h362zM596 764q-66 0 -113 -33t-78.5 -84t-47 -114.5t-15.5 -124.5q0 -94 45 -143.5t123 -49.5q66 0 114 32t78.5 82t45 113.5t14.5 124.5q0 92 -44 144.5t-122 52.5zM47 399q0 119 37 227.5t109.5 191.5t180 132t251.5 49 q215 0 326.5 -116.5t111.5 -311.5q0 -109 -34 -215t-104.5 -190t-178 -137.5t-257.5 -53.5q-213 0 -327.5 113.5t-114.5 310.5z" />
<glyph unicode="&#xf3;" horiz-adv-x="1146" d="M1004 1393l-242 -297h-256l135 297h363zM596 764q-66 0 -113 -33t-78.5 -84t-47 -114.5t-15.5 -124.5q0 -94 45 -143.5t123 -49.5q66 0 114 32t78.5 82t45 113.5t14.5 124.5q0 92 -44 144.5t-122 52.5zM47 399q0 119 37 227.5t109.5 191.5t180 132t251.5 49 q215 0 326.5 -116.5t111.5 -311.5q0 -109 -34 -215t-104.5 -190t-178 -137.5t-257.5 -53.5q-213 0 -327.5 113.5t-114.5 310.5z" />
<glyph unicode="&#xf4;" horiz-adv-x="1146" d="M690 1227l-135 -131h-254l317 297h209l158 -297h-219zM596 764q-66 0 -113 -33t-78.5 -84t-47 -114.5t-15.5 -124.5q0 -94 45 -143.5t123 -49.5q66 0 114 32t78.5 82t45 113.5t14.5 124.5q0 92 -44 144.5t-122 52.5zM47 399q0 119 37 227.5t109.5 191.5t180 132t251.5 49 q215 0 326.5 -116.5t111.5 -311.5q0 -109 -34 -215t-104.5 -190t-178 -137.5t-257.5 -53.5q-213 0 -327.5 113.5t-114.5 310.5z" />
<glyph unicode="&#xf5;" horiz-adv-x="1146" d="M293 1171q6 27 24.5 67t51 77t76.5 63.5t104 26.5q41 0 75.5 -14.5t69.5 -30.5q31 -16 60.5 -27.5t58.5 -11.5q35 0 56.5 22.5t33.5 53.5l172 -70q-16 -43 -37.5 -86t-52.5 -77t-73 -54t-99 -20q-45 0 -78 10t-71 28q-41 20 -69 34t-50 14q-33 0 -51.5 -24t-28.5 -52z M596 764q-66 0 -113 -33t-78.5 -84t-47 -114.5t-15.5 -124.5q0 -94 45 -143.5t123 -49.5q66 0 114 32t78.5 82t45 113.5t14.5 124.5q0 92 -44 144.5t-122 52.5zM47 399q0 119 37 227.5t109.5 191.5t180 132t251.5 49q215 0 326.5 -116.5t111.5 -311.5q0 -109 -34 -215 t-104.5 -190t-178 -137.5t-257.5 -53.5q-213 0 -327.5 113.5t-114.5 310.5z" />
<glyph unicode="&#xf6;" horiz-adv-x="1146" d="M977 1128h-240l51 238h240zM598 1128h-240l52 238h239zM596 764q-66 0 -113 -33t-78.5 -84t-47 -114.5t-15.5 -124.5q0 -94 45 -143.5t123 -49.5q66 0 114 32t78.5 82t45 113.5t14.5 124.5q0 92 -44 144.5t-122 52.5zM47 399q0 119 37 227.5t109.5 191.5t180 132 t251.5 49q215 0 326.5 -116.5t111.5 -311.5q0 -109 -34 -215t-104.5 -190t-178 -137.5t-257.5 -53.5q-213 0 -327.5 113.5t-114.5 310.5z" />
<glyph unicode="&#xf7;" horiz-adv-x="1556" d="M604 690v283h307v-283h-307zM604 0v283h307v-283h-307zM72 356v267h1376v-267h-1376z" />
<glyph unicode="&#xf8;" horiz-adv-x="1148" d="M598 764q-53 0 -95 -22.5t-73 -61.5t-51.5 -88t-28.5 -100l309 262q-30 10 -61 10zM512 215q66 0 113 30.5t77.5 81t46 112t15.5 122.5l-363 -309q43 -37 111 -37zM49 399q0 119 37 227.5t109.5 191.5t180 132t251.5 49q72 0 132 -14t109 -41l107 90l145 -176l-96 -82 q41 -92 41 -205q0 -109 -34 -215t-104.5 -190t-178 -137.5t-256.5 -53.5q-186 0 -299 88l-89 -73l-151 176l113 96q-10 31 -13.5 65.5t-3.5 71.5z" />
<glyph unicode="&#xf9;" horiz-adv-x="1150" d="M696 1393l135 -297h-256l-241 297h362zM197 975h297l-105 -492q-10 -45 -15 -79.5t-5 -63.5q0 -51 24.5 -81t89.5 -30q45 0 82 19.5t65.5 53.5t49 79t31.5 94l104 500h297l-205 -975h-295l29 127q-41 -55 -119 -103.5t-192 -48.5q-145 0 -210 76t-65 191q0 47 8.5 96 t18.5 100z" />
<glyph unicode="&#xfa;" horiz-adv-x="1150" d="M1016 1393l-242 -297h-256l135 297h363zM197 975h297l-105 -492q-10 -45 -15 -79.5t-5 -63.5q0 -51 24.5 -81t89.5 -30q45 0 82 19.5t65.5 53.5t49 79t31.5 94l104 500h297l-205 -975h-295l29 127q-41 -55 -119 -103.5t-192 -48.5q-145 0 -210 76t-65 191q0 47 8.5 96 t18.5 100z" />
<glyph unicode="&#xfb;" horiz-adv-x="1150" d="M713 1227l-135 -131h-254l317 297h209l158 -297h-220zM197 975h297l-105 -492q-10 -45 -15 -79.5t-5 -63.5q0 -51 24.5 -81t89.5 -30q45 0 82 19.5t65.5 53.5t49 79t31.5 94l104 500h297l-205 -975h-295l29 127q-41 -55 -119 -103.5t-192 -48.5q-145 0 -210 76t-65 191 q0 47 8.5 96t18.5 100z" />
<glyph unicode="&#xfc;" horiz-adv-x="1150" d="M995 1128h-239l51 238h240zM616 1128h-239l51 238h240zM197 975h297l-105 -492q-10 -45 -15 -79.5t-5 -63.5q0 -51 24.5 -81t89.5 -30q45 0 82 19.5t65.5 53.5t49 79t31.5 94l104 500h297l-205 -975h-295l29 127q-41 -55 -119 -103.5t-192 -48.5q-145 0 -210 76t-65 191 q0 47 8.5 96t18.5 100z" />
<glyph unicode="&#xfd;" horiz-adv-x="1060" d="M958 1393l-241 -297h-256l135 297h362zM1122 975l-553 -1065q-47 -90 -93 -148.5t-103.5 -92.5t-131 -47t-178.5 -13q-47 0 -90 3t-86 7l50 238q29 -2 48 -2h42q39 0 71.5 3t56 15t37 34.5t13.5 63.5q0 14 -1 26.5t-3 29.5l-99 948h320l20 -506q2 -35 2 -80t2 -86 q0 -49 3 -98h2q16 43 34 88q16 39 36 86t42 94l228 502h331z" />
<glyph unicode="&#xfe;" horiz-adv-x="1177" d="M-78 -369l375 1762h299l-113 -516q37 53 104.5 87.5t166.5 34.5q68 0 129 -25.5t108 -76.5t75 -128t28 -177q0 -123 -37 -234.5t-103.5 -196.5t-161 -135.5t-208.5 -50.5q-92 0 -162 31t-103 82l-98 -457h-299zM633 766q-63 0 -110.5 -36t-78 -90t-46 -119.5 t-15.5 -123.5q0 -84 39 -138t117 -54q63 0 110 34.5t79 87t47.5 116t15.5 122.5q0 90 -38 145.5t-120 55.5z" />
<glyph unicode="&#xff;" horiz-adv-x="1060" d="M950 1128h-239l51 238h239zM571 1128h-239l51 238h240zM1122 975l-553 -1065q-47 -90 -93 -148.5t-103.5 -92.5t-131 -47t-178.5 -13q-47 0 -90 3t-86 7l50 238q29 -2 48 -2h42q39 0 71.5 3t56 15t37 34.5t13.5 63.5q0 14 -1 26.5t-3 29.5l-99 948h320l20 -506 q2 -35 2 -80t2 -86q0 -49 3 -98h2q16 43 34 88q16 39 36 86t42 94l228 502h331z" />
<glyph unicode="&#x132;" horiz-adv-x="1370" d="M1399 1393l-225 -1061q-18 -86 -44 -147.5t-65 -102.5q-61 -66 -154.5 -89.5t-212.5 -23.5q-66 0 -121 5.5t-98 13.5l53 264q27 -4 56.5 -6t60.5 -2q119 0 168 49q31 31 48.5 81t33.5 126l191 893h309zM633 1393l-297 -1393h-307l295 1393h309z" />
<glyph unicode="&#x133;" horiz-adv-x="1120" d="M1104 1100h-303l61 293h303zM1079 975l-223 -1065q-16 -76 -35.5 -122t-48.5 -81q-47 -57 -122 -78.5t-187 -21.5q-35 0 -65.5 2t-65.5 6l49 235q6 -2 14 -2h29q55 0 89 23t50 96l213 1008h303zM535 1100h-302l64 293h301zM301 0h-299l205 975h301z" />
<glyph unicode="&#x152;" horiz-adv-x="1943" d="M690 236q43 0 76 8t59 18l176 840q-72 61 -180 61q-113 0 -191.5 -52t-127.5 -136t-70.5 -187.5t-21.5 -207.5q0 -162 70.5 -253t209.5 -91zM1313 1120l-58 -274h560l-58 -271h-559l-63 -299h669l-57 -276h-977l4 25q-72 -27 -170 -27q-100 0 -191 34t-160 105.5 t-110 182t-41 264.5q0 178 54.5 330.5t148.5 264t222 174t274 62.5q80 0 140 -14.5t114 -42.5l8 35h930l-58 -273h-622z" />
<glyph unicode="&#x153;" horiz-adv-x="1818" d="M1286 788q-94 0 -152.5 -55t-72.5 -127h393q0 76 -39 129t-129 53zM596 764q-66 0 -113 -33t-78.5 -84t-47 -114.5t-15.5 -124.5q0 -94 45 -143.5t123 -49.5q66 0 114 32t78.5 82t45 113.5t14.5 124.5q0 92 -44 144.5t-122 52.5zM1690 217q-29 -41 -72 -84t-103.5 -78 t-138.5 -57.5t-176 -22.5q-227 0 -346 119q-68 -55 -158 -87t-207 -32q-213 0 -327.5 114t-114.5 310q0 119 37 227.5t109.5 191.5t180 132t251.5 49q109 0 190.5 -31.5t136.5 -88.5q66 55 153 87.5t198 32.5q113 0 195.5 -32.5t135 -90t78 -135t25.5 -168.5q0 -51 -6.5 -92 t-12.5 -69h-692q0 -106 58.5 -155.5t150.5 -49.5t158.5 47t99.5 104z" />
<glyph unicode="&#x178;" horiz-adv-x="1294" d="M1124 1593h-239l51 238h240zM745 1593h-239l51 238h240zM358 0l119 559l-315 834h315l203 -545l426 545h371l-691 -834l-118 -559h-310z" />
<glyph unicode="&#x2c6;" horiz-adv-x="993" d="M645 1227l-135 -131h-254l317 297h209l158 -297h-219z" />
<glyph unicode="&#x2dc;" horiz-adv-x="1013" d="M270 1159q6 27 24.5 67t51.5 76.5t77 63.5t103 27q41 0 76 -14.5t70 -30.5q31 -16 60.5 -27.5t58.5 -11.5q35 0 56 22.5t34 52.5l172 -69q-16 -43 -38 -86t-52.5 -77t-72.5 -54.5t-99 -20.5q-45 0 -78 10.5t-72 28.5q-41 20 -68.5 33.5t-50.5 13.5q-33 0 -51 -23.5 t-29 -52.5z" />
<glyph unicode="&#x2000;" horiz-adv-x="980" />
<glyph unicode="&#x2001;" horiz-adv-x="1960" />
<glyph unicode="&#x2002;" horiz-adv-x="980" />
<glyph unicode="&#x2003;" horiz-adv-x="1960" />
<glyph unicode="&#x2004;" horiz-adv-x="653" />
<glyph unicode="&#x2005;" horiz-adv-x="490" />
<glyph unicode="&#x2006;" horiz-adv-x="326" />
<glyph unicode="&#x2007;" horiz-adv-x="326" />
<glyph unicode="&#x2008;" horiz-adv-x="245" />
<glyph unicode="&#x2009;" horiz-adv-x="392" />
<glyph unicode="&#x200a;" horiz-adv-x="108" />
<glyph unicode="&#x2010;" horiz-adv-x="813" d="M88 461l59 282h582l-59 -282h-582z" />
<glyph unicode="&#x2011;" horiz-adv-x="813" d="M88 461l59 282h582l-59 -282h-582z" />
<glyph unicode="&#x2012;" horiz-adv-x="813" d="M88 461l59 282h582l-59 -282h-582z" />
<glyph unicode="&#x2013;" horiz-adv-x="1275" d="M90 465l60 274h1042l-59 -274h-1043z" />
<glyph unicode="&#x2014;" horiz-adv-x="1665" d="M90 465l60 274h1431l-59 -274h-1432z" />
<glyph unicode="&#x2018;" horiz-adv-x="542" d="M150 782l51 244q20 94 42.5 172t64.5 135.5t113 89t187 31.5h8l-32 -158q-74 -4 -118 -33.5t-63 -117.5h148l-76 -363h-325z" />
<glyph unicode="&#x2019;" horiz-adv-x="534" d="M610 1393l-51 -244q-20 -94 -42.5 -173t-64.5 -135.5t-113 -88t-187 -31.5h-9l33 158q74 4 118 33.5t62 117.5h-147l76 363h325z" />
<glyph unicode="&#x201a;" horiz-adv-x="548" d="M393 362l-51 -243q-20 -94 -43 -173t-64.5 -135.5t-112.5 -88t-188 -31.5h-8l33 157q74 4 118 34t62 118h-147l76 362h325z" />
<glyph unicode="&#x201c;" horiz-adv-x="999" d="M596 741l51 244q20 94 43 172t65 135.5t112.5 89t187.5 31.5h8l-33 -158q-74 -4 -118 -33.5t-62 -117.5h147l-75 -363h-326zM139 741l51 244q20 94 43 172t65 135.5t112.5 89t187.5 31.5h8l-33 -158q-74 -4 -117.5 -33.5t-62.5 -117.5h148l-76 -363h-326z" />
<glyph unicode="&#x201d;" horiz-adv-x="991" d="M610 1393l-51 -244q-20 -94 -42.5 -173t-64.5 -135.5t-113 -88t-187 -31.5h-9l33 158q74 4 118 33.5t62 117.5h-147l76 363h325zM1067 1393l-51 -244q-20 -94 -43 -173t-65 -135.5t-112.5 -88t-187.5 -31.5h-8l33 158q74 4 118 33.5t62 117.5h-147l75 363h326z" />
<glyph unicode="&#x201e;" horiz-adv-x="1005" d="M393 362l-51 -243q-20 -94 -43 -173t-64.5 -135.5t-112.5 -88t-188 -31.5h-8l33 157q74 4 118 34t62 118h-147l76 362h325zM850 362l-51 -243q-20 -94 -43 -173t-65 -135.5t-112.5 -88t-187.5 -31.5h-8l33 157q74 4 118 34t62 118h-147l75 362h326z" />
<glyph unicode="&#x2022;" horiz-adv-x="909" d="M143 684q0 70 26 130t71 105.5t105.5 71t127.5 25.5q70 0 129.5 -25.5t104.5 -71t70.5 -105.5t25.5 -130q0 -68 -25.5 -128t-70.5 -105t-104.5 -71t-129.5 -26q-68 0 -128 26t-105 71t-71 105t-26 128z" />
<glyph unicode="&#x2026;" horiz-adv-x="1949" d="M1391 0l75 365h326l-76 -365h-325zM707 0l75 365h326l-76 -365h-325zM-8 0l76 365h325l-76 -365h-325z" />
<glyph unicode="&#x202f;" horiz-adv-x="392" />
<glyph unicode="&#x2030;" horiz-adv-x="2932" d="M2351 326q0 -164 82 -164q39 0 69.5 31.5t52 84t33 116t11.5 128.5q0 61 -19.5 105.5t-66.5 44.5q-41 0 -72 -34t-50 -86t-29.5 -112.5t-10.5 -113.5zM2533 858q47 0 101.5 -14.5t100.5 -51t77 -102t31 -166.5q0 -98 -27 -195.5t-79 -176t-130 -128t-180 -49.5 q-156 0 -234.5 94.5t-78.5 252.5q0 100 26.5 196t78.5 172t131 122t183 46zM381 885q0 -164 82 -164q39 0 69.5 31.5t52 84t33 116t11.5 128.5q0 61 -19.5 105.5t-66.5 44.5q-41 0 -72 -34t-50.5 -86t-29.5 -112.5t-10 -113.5zM563 1417q47 0 101.5 -14t100.5 -51 t76.5 -102.5t30.5 -166.5q0 -98 -26.5 -195t-78.5 -176t-130 -128t-180 -49q-156 0 -235 94t-79 252q0 100 27 196.5t79 172t131 121.5t183 46zM1501 326q0 -164 82 -164q39 0 69.5 31.5t52 84t33 116t11.5 128.5q0 61 -19.5 105.5t-66.5 44.5q-41 0 -71.5 -34t-50 -86 t-30 -112.5t-10.5 -113.5zM1683 858q47 0 101.5 -14.5t100.5 -51t77 -102t31 -166.5q0 -98 -27 -195.5t-79 -176t-130 -128t-180 -49.5q-156 0 -234.5 94.5t-78.5 252.5q0 100 26.5 196t78.5 172t131 122t183 46zM680 0h-264l1022 1393h260z" />
<glyph unicode="&#x2039;" horiz-adv-x="577" d="M49 442l60 256l444 316l-70 -332l-200 -129l143 -150l-64 -303z" />
<glyph unicode="&#x203a;" horiz-adv-x="577" d="M518 672l-57 -256l-445 -316l72 334l201 129l-144 150l62 301z" />
<glyph unicode="&#x205f;" horiz-adv-x="490" />
<glyph unicode="&#x20ac;" horiz-adv-x="1347" d="M1225 322q-39 -74 -89.5 -137.5t-115 -109.5t-142 -73t-169.5 -27q-211 0 -327 121t-138 328h-205l113 225h94q2 18 4 38t6 40h-160l125 225h94q37 98 92.5 182.5t127 148t161.5 99t197 35.5q70 0 141.5 -17.5t133 -62.5t107.5 -121.5t64 -193.5l-305 -88 q-4 100 -43 159.5t-117 59.5q-80 0 -138 -57.5t-99 -143.5h340l-117 -225h-291q-4 -20 -6 -39.5t-6 -38.5h270l-118 -225h-150q16 -100 58 -141t102 -41q78 0 135 55t98 143z" />
<glyph unicode="&#x2122;" horiz-adv-x="2056" d="M1698 461v438q-4 -20 -10 -43q-4 -18 -9.5 -43t-11.5 -47l-80 -305h-178l-82 299q-6 20 -12 42.5t-10 45.5q-6 23 -11 49v-436h-229v932h274l97 -318q16 -57 28.5 -100t20.5 -74q8 -37 14 -63l12 61q6 31 17.5 76t27.5 104l86 314h283v-932h-227zM266 1393h727v-224h-243 v-708h-240v708h-244v224z" />
<glyph unicode="&#x2190;" horiz-adv-x="1650" d="M1520 365h-994l381 -365h-381l-485 487l485 486h381l-379 -361h992v-247z" />
<glyph unicode="&#x2192;" horiz-adv-x="1650" d="M1124 973l486 -486l-486 -487h-381l381 365h-993v247h991l-379 361h381z" />
<glyph unicode="&#x25fc;" horiz-adv-x="972" d="M0 973h973v-973h-973v973z" />
<glyph horiz-adv-x="1937" d="M1796 557h-1237l567 -557h-378l-697 696l697 697h378l-567 -557h928v557h309v-836z" />
<glyph horiz-adv-x="1271" d="M412 535q0 -82 13 -137.5t35.5 -90.5t52.5 -50t67 -15q78 0 139 57t102 146.5t63.5 200t22.5 216.5q0 131 -36.5 211t-127.5 80q-88 0 -150.5 -60.5t-102 -152.5t-59 -200.5t-19.5 -204.5zM754 1417q78 0 160.5 -23.5t150.5 -83t112 -163t44 -264.5q0 -100 -16.5 -208 t-51.5 -208t-88 -189.5t-125 -157t-165 -106.5t-206 -39q-117 0 -205 39t-146 111t-88 173t-30 224q0 160 41 319.5t123 287.5t205 208t285 80z" />
<glyph horiz-adv-x="868" d="M291 0l182 852h-377l51 244h62q84 0 143.5 15t106.5 44q61 39 99 98.5t58 139.5h275l-297 -1393h-303z" />
<glyph horiz-adv-x="1196" d="M186 846q-8 47 -8 110q0 94 35 178.5t99.5 148t156.5 99t209 35.5q115 0 204 -31.5t149.5 -88t92 -132t31.5 -164.5q0 -129 -59.5 -240.5t-150.5 -204.5t-199.5 -168t-206.5 -128v-2q37 2 96 4t174 2h240l-58 -264h-1003l41 231q55 29 121.5 71t136 88t138.5 93t126 90 q53 39 106.5 84t96.5 96.5t69.5 108t26.5 119.5q0 78 -46 126t-136 48q-55 0 -94 -19.5t-64 -53t-36 -76.5t-11 -91q0 -29 3 -60.5t11 -59.5z" />
<glyph horiz-adv-x="1198" d="M174 1040q10 74 46 142.5t99.5 121t153.5 83t207 30.5t203 -28.5t142 -78.5t84 -116t28 -139q0 -121 -60.5 -206t-152.5 -126q70 -47 111.5 -125t41.5 -176q0 -80 -28.5 -159t-92 -143.5t-163 -104.5t-240.5 -40q-236 0 -368 118t-140 343l289 51q4 -131 63.5 -189 t163.5 -58q57 0 97 17t66 45t37 62.5t11 69.5q0 115 -98 154q-41 16 -95.5 19t-127.5 3h-50l43 240h131q78 0 124 15.5t79 41.5q23 18 36 48t13 67q0 59 -42 99t-128 40q-90 0 -146 -47t-69 -143z" />
<glyph horiz-adv-x="1202" d="M655 549l50 221q20 92 33.5 148.5t19.5 82.5h-2q-18 -27 -41 -53q-18 -23 -42 -51.5t-46 -54.5l-92 -105q-31 -35 -62 -68.5t-55 -60.5q-29 -31 -53 -57v-2h290zM1135 549l-48 -246h-194l-64 -303h-290l63 303h-616l41 215l788 875h311l-182 -844h191z" />
<glyph horiz-adv-x="1171" d="M338 418q16 -84 68.5 -132t138.5 -48q106 0 169.5 73.5t63.5 198.5q0 102 -57 156.5t-146 54.5q-49 0 -85.5 -15.5t-63.5 -38t-43 -50t-25 -54.5l-256 101l220 729h841l-63 -258h-561l-76 -215q25 16 80 32.5t127 16.5q76 0 149.5 -24.5t132 -78t94 -135.5t35.5 -196 q0 -117 -33.5 -219.5t-102 -178.5t-173 -119t-244.5 -43q-119 0 -202.5 31t-141 83t-89.5 121t-46 144z" />
<glyph horiz-adv-x="1222" d="M915 987q-6 33 -19 62.5t-34.5 53t-53.5 37t-75 13.5q-51 0 -96 -22.5t-82 -60.5t-63.5 -86t-38.5 -97q49 41 113.5 59.5t129.5 18.5q78 0 154 -27t135 -81t96 -137t37 -198q0 -104 -34.5 -202.5t-103.5 -175t-168 -123t-228 -46.5q-106 0 -195.5 36t-153 103.5 t-98.5 166t-35 225.5q0 180 43 346t126 291t204 199.5t277 74.5q109 0 188.5 -32.5t132.5 -86t81 -124t30 -146.5zM598 240q57 0 99 22.5t70 59t42 83t14 93.5q0 111 -61.5 166t-147.5 55q-57 0 -113.5 -31t-97.5 -84v2q-4 -23 -6 -47t-2 -49q0 -51 11.5 -99.5t35 -86 t62.5 -61t94 -23.5z" />
<glyph horiz-adv-x="1153" d="M1241 1153q-113 -109 -221.5 -247t-198.5 -277q-92 -143 -163.5 -303t-118.5 -326h-344q41 129 96 250t119 231q96 168 212.5 333t262.5 319h-414l-45 -203h-297l98 463h1065z" />
<glyph horiz-adv-x="1249" d="M498 1012q0 -59 46 -106.5t140 -47.5q104 0 155.5 48t51.5 120q0 63 -49 103t-142 40q-104 0 -153 -49t-49 -108zM354 416q0 -82 60.5 -133.5t165.5 -51.5q115 0 180 54.5t65 152.5q0 84 -59 131t-164 47q-125 0 -186.5 -59t-61.5 -141zM57 383q0 70 22.5 128t60.5 106.5 t88.5 83t107.5 59.5q-51 39 -88 104.5t-37 163.5q0 82 36 153.5t101.5 124t159.5 82t211 29.5q106 0 192 -25.5t146.5 -71.5t92.5 -110.5t32 -142.5q0 -129 -61.5 -212t-157.5 -126q63 -41 114 -115.5t51 -193.5q0 -98 -34.5 -179t-104 -139.5t-174 -91.5t-242.5 -33 q-252 0 -384 111t-132 295z" />
<glyph horiz-adv-x="1222" d="M358 408q6 -33 19.5 -63t35 -53.5t53.5 -36.5t75 -13q51 0 96 22.5t82 59t63.5 85t38.5 97.5q-49 -41 -113.5 -59.5t-129.5 -18.5q-78 0 -154 26.5t-135.5 81t-96 137.5t-36.5 197q0 104 34.5 202.5t103 175.5t168 123t228.5 46q106 0 195.5 -35.5t153 -103.5t98 -167 t34.5 -224q0 -182 -43 -347t-125.5 -290t-203.5 -200t-277 -75q-109 0 -188.5 33t-133 86t-81 124t-29.5 147zM676 1155q-57 0 -99 -22.5t-70 -59.5t-42 -83t-14 -93q0 -111 61 -166t147 -55q57 0 113.5 30.5t97.5 84.5v-3q4 23 6.5 47.5t2.5 49.5q0 51 -11.5 99t-35 86 t-62.5 61.5t-94 23.5z" />
<glyph horiz-adv-x="1685" d="M979 336q-31 -27 -82 -53.5t-152 -26.5q-57 0 -109 14.5t-92 44t-64.5 74.5t-24.5 107q0 70 23.5 119t68.5 83.5t109.5 55t146.5 30.5l203 29q16 2 22 5t10 20l4 20q2 8 3.5 13.5t1.5 13.5q0 35 -32 50t-83 15q-66 0 -108 -27.5t-52 -95.5l-240 13q12 80 51.5 134 t97.5 88t129 49t146 15q145 0 237.5 -52t92.5 -163q0 -27 -4 -50t-8 -42l-68 -297q-10 -41 -10 -59q0 -25 27 -25q39 0 76.5 35t68.5 93.5t49.5 135t18.5 160.5q0 78 -23.5 153t-78 133t-144.5 94t-221 36q-145 0 -265 -56.5t-205 -151.5t-131 -220t-46 -260t44 -233.5 t118.5 -162t175 -93t212.5 -29.5q195 0 334.5 59t223.5 133l45 -194q-47 -37 -111 -72t-144.5 -62.5t-176 -44t-205.5 -16.5q-154 0 -289 40t-235.5 126t-158 219t-57.5 322q0 221 80 389t207 280.5t285.5 170t316.5 57.5q178 0 304 -51.5t206 -136.5t116 -193.5t36 -223.5 t-32 -226t-92.5 -198.5t-149.5 -140.5t-204 -53q-84 0 -130 24.5t-62 55.5zM993 647q-20 -8 -71 -18l-52 -8q-70 -10 -119 -32t-49 -79q0 -43 31 -63.5t78 -20.5q57 0 103.5 31.5t56.5 81.5z" />
<glyph horiz-adv-x="673" d="M209 1536h295v-1716h-295v1716z" />
<glyph horiz-adv-x="1386" d="M856 61h-285v467h-465v283h465v475h285v-475h463v-283h-463v-467z" />
<glyph horiz-adv-x="1525" d="M145 61v258h1213v-258h-1213zM895 395h-285v275h-465v282h465v334h285v-334h463v-282h-463v-275z" />
<glyph horiz-adv-x="1501" d="M772 877l406 405l202 -203l-405 -405l405 -410l-202 -201l-406 408l-410 -410l-202 203l409 410l-407 405l200 203z" />
<glyph horiz-adv-x="1562" d="M645 870v283h307v-283h-307zM645 180v283h307v-283h-307zM113 537v266h1376v-266h-1376z" />
<glyph horiz-adv-x="1691" d="M160 332v258h1380v-258h-1380zM160 750v258h1380v-258h-1380z" />
<glyph horiz-adv-x="1341" d="M1200 334h-254v403h-809v236h1063v-639z" />
<glyph horiz-adv-x="630" d="M813 1536q-102 -135 -185 -266t-142.5 -268.5t-92.5 -288t-33 -322.5q0 -129 18.5 -269t59.5 -302h-258q-104 332 -104 608q0 158 30.5 303.5t91 282.5t146.5 266t197 256h272z" />
<glyph horiz-adv-x="632" d="M-139 -180q102 135 185 266t142.5 268.5t92 288t32.5 322.5q0 129 -16 269t-57 302h249q53 -166 81 -318.5t28 -293.5q0 -158 -30.5 -303.5t-88 -280.5t-142.5 -264t-192 -256h-284z" />
<glyph horiz-adv-x="811" d="M104 528l60 283h581l-59 -283h-582z" />
<glyph horiz-adv-x="686" d="M459 -180h-486l365 1716h487l-47 -221h-192l-273 -1274h193z" />
<glyph horiz-adv-x="686" d="M270 1536h486l-365 -1716h-487l47 221h192l273 1274h-193z" />
<glyph horiz-adv-x="733" d="M565 950q-12 -61 -26.5 -99t-30.5 -62.5t-34.5 -38t-41.5 -25.5q27 -29 35 -62.5t8 -74.5t-7 -85t-17 -89l-43 -209q-10 -41 -14.5 -65.5t-4.5 -45.5q0 -37 35 -48t131 -11l-45 -215q-86 0 -164 5t-135 27.5t-91 70.5t-34 132q0 43 11.5 103.5t21.5 111.5l43 203 q6 35 11 58.5t5 41.5q0 33 -19.5 49.5t-80.5 26.5l43 209q43 0 69.5 9.5t43 30t25.5 52t20 78.5l32 152q20 104 45 173.5t67 111.5t105.5 59.5t165.5 17.5q55 0 96 -2t76 -6l-47 -223q-18 2 -33.5 2h-29.5q-43 0 -68.5 -8.5t-41 -24.5t-24 -43t-14.5 -66z" />
<glyph horiz-adv-x="733" d="M221 459q12 61 26.5 99t31 62.5t35 38t40.5 25.5q-27 29 -35 62.5t-8 74.5t7.5 85t17.5 89l33 162q10 41 14 65.5t4 45.5q0 37 -35 48t-131 11l45 215q86 0 164 -5t135.5 -28.5t91 -70.5t33.5 -131q0 -43 -11 -103.5t-22 -111.5l-32 -156q-6 -35 -11.5 -58.5t-5.5 -41.5 q0 -33 19.5 -49.5t81.5 -26.5l-43 -209q-43 0 -70 -9.5t-43 -29.5t-25.5 -53t-19.5 -78l-43 -199q-23 -104 -47.5 -173.5t-66.5 -111.5t-107.5 -59.5t-165.5 -17.5q-55 0 -94 2t-74 6l47 223q18 -2 33.5 -2h29.5q43 0 69 8.5t41 24.5t22.5 44t15.5 64z" />
<glyph horiz-adv-x="1056" d="M539 551l57 256l444 315l-69 -331l-201 -129l143 -150l-63 -303zM90 551l60 256l444 315l-70 -331l-200 -129l143 -150l-64 -303z" />
<glyph horiz-adv-x="808" d="M100 528l60 283h581l-59 -283h-582z" />
<glyph horiz-adv-x="1052" d="M553 780l-57 -256l-445 -315l72 334l201 129l-144 149l62 301zM1001 780l-59 -256l-444 -315l71 334l201 129l-143 149l61 301z" />
<glyph horiz-adv-x="1273" d="M102 532l60 275h1042l-59 -275h-1043z" />
<glyph horiz-adv-x="1662" d="M102 532l60 275h1431l-59 -275h-1432z" />
<glyph horiz-adv-x="610" d="M90 551l60 256l444 315l-70 -331l-200 -129l143 -150l-64 -303z" />
<glyph horiz-adv-x="606" d="M553 780l-57 -256l-445 -315l72 334l201 129l-144 149l62 301z" />
<glyph horiz-adv-x="698" d="M221 481h295v-661h-295v661zM221 1536h295v-662h-295v662z" />
<glyph horiz-adv-x="1888" d="M1796 557h-1237l567 -557h-378l-697 696l697 697h378l-567 -557h1237v-279z" />
<glyph horiz-adv-x="1888" d="M1141 1393l696 -697l-696 -696h-379l567 557h-1237v279h1237l-567 557h379z" />
<glyph horiz-adv-x="546" d="M535 1100h-302l64 293h301zM301 0h-299l205 975h301z" />
<glyph d="M379 535q0 -82 13.5 -137.5t36 -90.5t52 -50t66.5 -15q78 0 139.5 57t102 146.5t63 200t22.5 216.5q0 131 -36.5 211t-126.5 80q-88 0 -150.5 -60.5t-102.5 -152.5t-59.5 -200.5t-19.5 -204.5zM721 1417q78 0 161 -23.5t150.5 -83t111.5 -163t44 -264.5 q0 -100 -16.5 -208t-51.5 -208t-88 -189.5t-124.5 -157t-165 -106.5t-205.5 -39q-117 0 -205 39t-146.5 111t-88 173t-29.5 224q0 160 41 319.5t122.5 287.5t204.5 208t285 80z" />
<glyph d="M803 1118q-35 35 -92 35q-84 0 -144.5 -55.5t-100.5 -140.5t-61.5 -187t-25.5 -197zM446 283q39 -41 101 -41q76 0 134 52t100 136t64.5 188.5t26.5 208.5zM721 1417q78 0 161 -23.5t150.5 -83t111.5 -163t44 -264.5q0 -100 -16.5 -208t-51.5 -208t-88 -189.5 t-124.5 -157t-165 -106.5t-205.5 -39q-117 0 -205 39t-146.5 111t-88 173t-29.5 224q0 160 41 319.5t122.5 287.5t204.5 208t285 80z" />
<glyph d="M461 0l182 852h-377l51 244h62q84 0 143.5 15t106.5 44q61 39 99 98.5t58 139.5h275l-297 -1393h-303z" />
<glyph d="M193 846q-8 47 -9 110q0 94 35 178.5t99.5 148t156.5 99t209 35.5q115 0 204 -31.5t149.5 -88t92 -132t31.5 -164.5q0 -129 -59.5 -240.5t-150.5 -204.5t-199.5 -168t-206.5 -128v-2q37 2 96 4t174 2h240l-58 -264h-1003l41 231q55 29 121.5 71t136 88t138.5 93t126 90 q53 39 106.5 84t96.5 96.5t69.5 108t26.5 119.5q0 78 -46 126t-136 48q-55 0 -94 -19.5t-63.5 -53t-36 -76.5t-11.5 -91q0 -29 3 -60.5t11 -59.5z" />
<glyph d="M178 1040q10 74 46 142.5t99.5 121t153.5 83t207 30.5t203 -28.5t142 -78.5t84 -116t28 -139q0 -121 -60.5 -206t-152.5 -126q70 -47 111.5 -125t41.5 -176q0 -80 -28.5 -159t-92 -143.5t-163 -104.5t-240.5 -40q-236 0 -368 118t-140 343l289 51q4 -131 63.5 -189 t163.5 -58q57 0 97 17t66 45t37 62.5t11 69.5q0 115 -98 154q-41 16 -95.5 19t-127.5 3h-49l43 240h131q78 0 124 15.5t78 41.5q23 18 36 48t13 67q0 59 -41.5 99t-127.5 40q-90 0 -146.5 -47t-69.5 -143z" />
<glyph d="M657 549l50 221q20 92 33.5 148.5t19.5 82.5h-2q-18 -27 -41 -53q-18 -23 -42 -51.5t-46 -54.5l-92 -105q-31 -35 -62 -68.5t-55 -60.5q-29 -31 -53 -57v-2h290zM1137 549l-47 -246h-195l-64 -303h-290l63 303h-616l41 215l788 875h311l-182 -844h191z" />
<glyph d="M356 418q16 -84 68.5 -132t138.5 -48q106 0 170 73.5t64 198.5q0 102 -57.5 156.5t-145.5 54.5q-49 0 -86 -15.5t-63.5 -38t-43 -50t-24.5 -54.5l-256 101l219 729h842l-64 -258h-561l-76 -215q25 16 80 32.5t127 16.5q76 0 149.5 -24.5t132 -78t94.5 -135.5t36 -196 q0 -117 -34 -219.5t-102.5 -178.5t-173 -119t-243.5 -43q-119 0 -203 31t-141.5 83t-89 121t-45.5 144z" />
<glyph d="M907 987q-6 33 -19.5 62.5t-35 53t-53 37t-74.5 13.5q-51 0 -96 -22.5t-82 -60.5t-63.5 -86t-39.5 -97q49 41 114 59.5t130 18.5q78 0 154 -27t135 -81t96 -137t37 -198q0 -104 -35 -202.5t-103.5 -175t-167.5 -123t-229 -46.5q-106 0 -195 36t-152.5 103.5t-98.5 166 t-35 225.5q0 180 43 346t126 291t204 199.5t276 74.5q109 0 189 -32.5t133 -86t81 -124t30 -146.5zM590 240q57 0 99 22.5t69.5 59t42 83t14.5 93.5q0 111 -61.5 166t-147.5 55q-57 0 -113.5 -31t-97.5 -84v2q-4 -23 -6 -47t-2 -49q0 -51 11.5 -99.5t35 -86t62.5 -61 t94 -23.5z" />
<glyph d="M1268 1153q-113 -109 -221.5 -247t-198.5 -277q-92 -143 -164 -303t-119 -326h-344q41 129 96.5 250t118.5 231q96 168 213 333t262 319h-413l-45 -203h-297l98 463h1065z" />
<glyph d="M477 1012q0 -59 46 -106.5t141 -47.5q104 0 155 48t51 120q0 63 -49 103t-141 40q-104 0 -153.5 -49t-49.5 -108zM334 416q0 -82 60.5 -133.5t164.5 -51.5q115 0 180.5 54.5t65.5 152.5q0 84 -59.5 131t-163.5 47q-125 0 -186.5 -59t-61.5 -141zM37 383q0 70 22.5 128 t60.5 106.5t88 83t107 59.5q-51 39 -88 104.5t-37 163.5q0 82 36 153.5t101.5 124t160 82t210.5 29.5q106 0 192.5 -25.5t147 -71.5t92 -110.5t31.5 -142.5q0 -129 -61.5 -212t-157.5 -126q63 -41 114.5 -115.5t51.5 -193.5q0 -98 -35 -179t-104.5 -139.5t-174 -91.5 t-241.5 -33q-252 0 -384 111t-132 295z" />
<glyph d="M350 408q6 -33 19.5 -63t35 -53.5t53 -36.5t74.5 -13q51 0 96.5 22.5t82.5 59t63.5 85t38.5 97.5q-49 -41 -113.5 -59.5t-130.5 -18.5q-78 0 -153.5 26.5t-135 81t-96.5 137.5t-37 197q0 104 35 202.5t103.5 175.5t168 123t228.5 46q106 0 195.5 -35.5t153 -103.5 t98 -167t34.5 -224q0 -182 -43 -347t-126 -290t-203.5 -200t-276.5 -75q-109 0 -188.5 33t-133 86t-81 124t-29.5 147zM668 1155q-57 0 -99.5 -22.5t-70 -59.5t-42 -83t-14.5 -93q0 -111 61.5 -166t147.5 -55q57 0 113.5 30.5t97.5 84.5v-3q4 23 6 47.5t2 49.5q0 51 -11 99 t-34.5 86t-62.5 61.5t-94 23.5z" />
</font>
</defs>
</svg>
