<?xml version="1.0" encoding="utf-8"?>
<!-- Generator: Adobe Illustrator 14.0.0, SVG Export Plug-In . SVG Version: 6.00 Build 43363)  -->
<!DOCTYPE svg PUBLIC "-//W3C//DTD SVG 1.1//EN" "http://www.w3.org/Graphics/SVG/1.1/DTD/svg11.dtd">
<svg version="1.1" xmlns="http://www.w3.org/2000/svg" xmlns:xlink="http://www.w3.org/1999/xlink" x="0px" y="0px" width="961px"
	 height="480px" viewBox="0 0 961 480" enable-background="new 0 0 961 480" xml:space="preserve">
<g id="guides" display="none">
</g>
<g id="wave-fwd">
	<path fill="none" stroke="#000000" d="M116.5,240.959c0,0,96,0,157,0s79,61,84,81c6,21,15,84,57,84c44,0,48-58,54-84
		c5-21,19-140,23-161c4-23,10-84,54-84c42,0,50,60,57,84c6,20,23,80,84,80s158,0,158,0"/>
</g>
<g id="wave-rev">
	<path fill="none" stroke="#000000" d="M844.5,240.959c0,0-97,0-158,0s-78-60-84-80c-7-24-15-84-57-84c-44,0-50,61-54,84
		c-4,21-18,140-23,161c-6,26-10,84-54,84c-42,0-51-63-57-84c-5-20-23-81-84-81s-157,0-157,0"/>
</g>
<g id="loop-fwd">
	<path fill="none" stroke="#000000" d="M116.5,240.5h183c137,0,251-51,251-122c0-34-27-65-70-65s-70,31-70,65c0,71,114,122,251,122
		h183"/>
</g>
<g id="loop-rev">
	<path fill="none" stroke="#000000" d="M844.5,240.5h-183c-137,0-251-51-251-122c0-34,27-65,70-65s70,31,70,65c0,71-114,122-251,122
		h-183"/>
</g>
<g id="bowtie-fwd">
	<path fill="none" stroke="#000000" d="M116.5,240.5h163c137,0,246-40,246-111c0-34-23-66-65-66c-40,0-66,30-66,66
		c0,56,55,88,86,111s86,55,86,111c0,36-26,66-66,66c-42,0-65-32-65-66c0-71,109-111,246-111h163"/>
</g>
<g id="bowtie-rev">
	<path fill="none" stroke="#000000" d="M844.5,240.5h-163c-137,0-246,40-246,111c0,34,23,66,65,66c40,0,66-30,66-66
		c0-56-55-88-86-111s-86-55-86-111c0-36,26-66,66-66c42,0,65,32,65,66c0,71-109,111-246,111h-163"/>
</g>
</svg>
