<svg id="Layer_1" data-name="Layer 1" xmlns="http://www.w3.org/2000/svg" viewBox="0 0 452 35.6"><defs><style>.cls-1{fill:#fff;}</style></defs><title>terra_header</title><path class="cls-1" d="M19.56,19.43H9.85V15.17h24.6v4.26h-9.7V49.8H19.56Z" transform="translate(-9.85 -14.68)"/><path class="cls-1" d="M40.7,15.17H61.46v4.26H45.85V30.15H59.14v4.27H45.85V45.53H61.61V49.8H40.7Z" transform="translate(-9.85 -14.68)"/><path class="cls-1" d="M73.54,49.8H68.35V15.17H80.67c4.27,0,6.7.72,8.49,2.52s2.47,4,2.47,7.32c0,5.73-2.08,8.68-6.84,9.75l7.57,15H86.64L79.7,35.25H73.54Zm6.94-18.68c4.17,0,6-1.84,6-5.87s-1.94-5.91-6.3-5.91H73.44V31.12Z" transform="translate(-9.85 -14.68)"/><path class="cls-1" d="M104.44,49.8H99.25V15.17h12.32c4.27,0,6.69.72,8.49,2.52s2.47,4,2.47,7.32c0,5.73-2.08,8.68-6.84,9.75l7.57,15h-5.72L110.6,35.25h-6.16Zm6.93-18.68c4.18,0,6-1.84,6-5.87s-1.94-5.91-6.31-5.91h-6.74V31.12Z" transform="translate(-9.85 -14.68)"/><path class="cls-1" d="M135.67,42.57l-2.42,7.23h-5.63l12.61-34.63h5L157.84,49.8h-5.62l-2.43-7.23Zm7.09-21.1L136.94,38.4h11.59Z" transform="translate(-9.85 -14.68)"/><path class="cls-1" d="M176.89,15.17h20.57v4.26H182.08v11h13v4.27h-13V49.8h-5.19Z" transform="translate(-9.85 -14.68)"/><path class="cls-1" d="M202.4,28.26c0-5,.78-7.71,2.86-10,2.28-2.52,5.19-3.59,9.66-3.59,4.75,0,7.9,1.31,10.09,4.17,1.69,2.18,2.37,4.85,2.37,9.41V36.7c0,4.95-.77,7.76-2.86,10-2.28,2.53-5.19,3.59-9.6,3.59-4.81,0-8-1.31-10.14-4.17-1.7-2.18-2.38-4.85-2.38-9.41Zm19.79.49c0-6.94-2.18-9.85-7.27-9.85s-7.33,2.91-7.33,9.85v7.47c0,6.93,2.18,9.84,7.33,9.84s7.27-2.91,7.27-9.84Z" transform="translate(-9.85 -14.68)"/><path class="cls-1" d="M240.43,15.17V37c0,3.35.29,4.9,1.07,6.26,1.21,2,2.91,2.81,5.91,2.81,3.16,0,5-1,6.12-3.25.58-1.26.82-2.91.82-5.82V15.17h5.19V37c0,5-.48,7.23-2.13,9.27-2.19,2.81-5.19,4-10,4-5.14,0-8.44-1.45-10.52-4.6-1.26-1.94-1.65-4.08-1.65-8.69V15.17Z" transform="translate(-9.85 -14.68)"/><path class="cls-1" d="M268.22,15.17h5l15.42,25.9V15.17h5.05V49.8h-5.05L273.27,23.9V49.8h-5Z" transform="translate(-9.85 -14.68)"/><path class="cls-1" d="M302.56,15.17H314c8.78-.15,13.1,4.31,12.86,13.29v8c.24,9-4.08,13.39-12.86,13.29h-11.4ZM313,45.63c6.11.09,8.54-2.57,8.59-9.56V28.89c-.05-7-2.48-9.7-8.59-9.55h-5.29V45.63Z" transform="translate(-9.85 -14.68)"/><path class="cls-1" d="M338.36,42.57l-2.43,7.23h-5.62l12.61-34.63h5L360.53,49.8H354.9l-2.43-7.23Zm7.08-21.1L339.62,38.4h11.59Z" transform="translate(-9.85 -14.68)"/><path class="cls-1" d="M369.06,19.43h-9.7V15.17H384v4.26h-9.7V49.8h-5.19Z" transform="translate(-9.85 -14.68)"/><path class="cls-1" d="M390.16,15.17h5.19V49.8h-5.19Z" transform="translate(-9.85 -14.68)"/><path class="cls-1" d="M403.35,28.26c0-5,.78-7.71,2.87-10,2.28-2.52,5.19-3.59,9.65-3.59,4.75,0,7.91,1.31,10.09,4.17,1.7,2.18,2.38,4.85,2.38,9.41V36.7c0,4.95-.78,7.76-2.87,10-2.28,2.53-5.19,3.59-9.6,3.59-4.8,0-8-1.31-10.14-4.17-1.7-2.18-2.38-4.85-2.38-9.41Zm19.8.49c0-6.94-2.19-9.85-7.28-9.85s-7.33,2.91-7.33,9.85v7.47c0,6.93,2.19,9.84,7.33,9.84s7.28-2.91,7.28-9.84Z" transform="translate(-9.85 -14.68)"/><path class="cls-1" d="M436.34,15.17h5l15.43,25.9V15.17h5V49.8h-5L441.38,23.9V49.8h-5Z" transform="translate(-9.85 -14.68)"/></svg>