<svg id="Layer_1" data-name="Layer 1" xmlns="http://www.w3.org/2000/svg" xmlns:xlink="http://www.w3.org/1999/xlink" viewBox="0 0 329.44 25.54"><defs><style>.cls-1{fill:none;}.cls-2{clip-path:url(#clip-path);}.cls-3{fill:#fff;}</style><clipPath id="clip-path" transform="translate(-222.01 -295)"><rect class="cls-1" width="792" height="612"/></clipPath></defs><title>terra_header</title><g class="cls-2"><path class="cls-3" d="M551.45,320.33V295.22h-3.81v17.63L536,295.22h-3.49v25.11h3.81V302.66L548,320.33Zm-28.54-12.56c0,5-.21,6.49-1.48,7.8a5.2,5.2,0,0,1-7.47,0c-1.24-1.34-1.48-2.83-1.48-7.8s.24-6.49,1.48-7.83a5.28,5.28,0,0,1,7.47,0c1.27,1.31,1.48,2.86,1.48,7.83m3.81,0c0-5.25-.07-7.76-2.54-10.23a9.55,9.55,0,0,0-13,0c-2.47,2.47-2.54,5-2.54,10.23s.07,7.76,2.54,10.23a9.55,9.55,0,0,0,13,0c2.47-2.47,2.54-5,2.54-10.23m-23.87-12.55H499v25.11h3.81Zm-8.33,3.42v-3.42H476.89v3.42h6.91v21.69h3.81V298.64ZM470.65,312h-7.73l3.92-11.15Zm6.84,8.29-9.21-25.11h-3.06L456,320.33h4.06l1.72-5.05h9.92l1.72,5.05Zm-27.76-12.56c0,3.74-.1,6.07-1.34,7.44a5.28,5.28,0,0,1-4.3,1.73h-4.58V298.6h4.58a5.31,5.31,0,0,1,4.3,1.73c1.24,1.38,1.34,3.7,1.34,7.44m3.81,0c0-4-.07-7.12-1.9-9.38a8.41,8.41,0,0,0-7.13-3.17H435.7v25.11h8.81a8.41,8.41,0,0,0,7.13-3.18c1.83-2.25,1.9-5.36,1.9-9.38M429,320.33V295.22h-3.81v17.63l-11.6-17.63h-3.49v25.11h3.81V302.66l11.6,17.67Zm-25.25-8.47V295.22H399.9v16.47c0,3.35-2.08,5.43-5.22,5.43s-5.18-2.08-5.18-5.43V295.22h-3.81v16.64c0,5.19,3.88,8.68,9,8.68s9-3.49,9-8.68m-27.26-4.09c0,5-.22,6.49-1.49,7.8a5.2,5.2,0,0,1-7.47,0c-1.24-1.34-1.48-2.83-1.48-7.8s.24-6.49,1.48-7.83a5.28,5.28,0,0,1,7.47,0c1.27,1.31,1.49,2.86,1.49,7.83m3.81,0c0-5.25-.08-7.76-2.54-10.23a9.56,9.56,0,0,0-13,0c-2.47,2.47-2.54,5-2.54,10.23s.07,7.76,2.54,10.23a9.56,9.56,0,0,0,13,0c2.46-2.47,2.54-5,2.54-10.23m-21.2-9.13v-3.42H343v25.11h3.81V309.71h10.44v-3.42H346.82v-7.65ZM323.79,312h-7.72L320,300.89Zm6.84,8.29-9.2-25.11h-3.07l-9.21,25.11h4.06l1.73-5.05h9.91l1.73,5.05Zm-28-17.74c0,2.47-1.72,3.91-4.26,3.91h-5.65v-7.86h5.65c2.54,0,4.26,1.48,4.26,3.95m4.59,17.74-5.79-11.11a6.59,6.59,0,0,0,5-6.67c0-4.27-3-7.33-7.79-7.33h-9.74v25.11h3.81V309.75h4.76l5.29,10.58Zm-27.86-17.74c0,2.47-1.73,3.91-4.27,3.91h-5.64v-7.86h5.64c2.54,0,4.27,1.48,4.27,3.95m4.58,17.74-5.78-11.11a6.6,6.6,0,0,0,5-6.67c0-4.27-3-7.33-7.8-7.33H265.6v25.11h3.81V309.75h4.76l5.29,10.58Zm-23.7,0v-3.42H248v-7.55H258.4V306H248v-7.33H260.2v-3.42h-16v25.11Zm-20.56-21.69v-3.42H222v3.42h6.91v21.69h3.81V298.64Z" transform="translate(-222.01 -295)"/></g></svg>