<svg id="Layer_1" data-name="Layer 1" xmlns="http://www.w3.org/2000/svg" viewBox="0 0 303.11 103.01"><defs><style>.cls-1{fill:#fff;}</style></defs><title>terra_logo</title><rect class="cls-1" x="93.79" y="90.05" width="2.51" height="12.85"/><polygon class="cls-1" points="118.98 97.92 113.89 90.05 111.66 90.05 111.66 102.9 114.16 102.9 114.16 95.02 119.25 102.9 121.49 102.9 121.49 90.05 118.98 90.05 118.98 97.92"/><path class="cls-1" d="M204.56,362.44a4.71,4.71,0,0,0-3.49,1.41c-1.3,1.3-1.26,2.9-1.26,5.12s0,3.83,1.26,5.13a4.71,4.71,0,0,0,3.49,1.41A4.64,4.64,0,0,0,208,374.1c1.3-1.3,1.28-2.91,1.28-5.13s0-3.82-1.28-5.12A4.64,4.64,0,0,0,204.56,362.44Zm1.6,10.14a2.07,2.07,0,0,1-1.6.69,2.12,2.12,0,0,1-1.63-.69c-.49-.54-.61-1.13-.61-3.61s.12-3.06.61-3.61a2.14,2.14,0,0,1,1.63-.68,2.09,2.09,0,0,1,1.6.68c.49.55.64,1.14.64,3.61S206.65,372,206.16,372.58Z" transform="translate(-100.45 -272.49)"/><path class="cls-1" d="M126.73,362.44a4.69,4.69,0,0,0-3.48,1.41c-1.3,1.3-1.26,2.9-1.26,5.12s0,3.83,1.26,5.13a5,5,0,0,0,6.95,0c1.3-1.3,1.28-2.91,1.28-5.13s0-3.82-1.28-5.12A4.67,4.67,0,0,0,126.73,362.44Zm1.61,10.14a2.07,2.07,0,0,1-1.61.69,2.11,2.11,0,0,1-1.62-.69c-.49-.54-.61-1.13-.61-3.61s.12-3.06.61-3.61a2.14,2.14,0,0,1,1.62-.68,2.1,2.1,0,0,1,1.61.68c.49.55.63,1.14.63,3.61S128.83,372,128.34,372.58Z" transform="translate(-100.45 -272.49)"/><path class="cls-1" d="M141,370.9a2.23,2.23,0,1,1-4.45,0v-8.35H134V371a4.73,4.73,0,0,0,9.46,0v-8.44H141Z" transform="translate(-100.45 -272.49)"/><polygon class="cls-1" points="11.18 102.9 13.69 102.9 13.69 97.69 18.76 97.69 18.76 95.45 13.69 95.45 13.69 92.29 19.65 92.29 19.65 90.05 11.18 90.05 11.18 102.9"/><polygon class="cls-1" points="53.63 97.92 48.54 90.05 46.3 90.05 46.3 102.9 48.81 102.9 48.81 95.02 53.9 102.9 56.14 102.9 56.14 90.05 53.63 90.05 53.63 97.92"/><polygon class="cls-1" points="81.84 92.29 85.2 92.29 85.2 102.9 87.71 102.9 87.71 92.29 91.06 92.29 91.06 90.05 81.84 90.05 81.84 92.29"/><path class="cls-1" d="M175.48,362.55l-4.67,12.85h2.61l.78-2.28h4.57l.75,2.28h2.62l-4.69-12.85ZM174.9,371l1.63-4.67L178.1,371Z" transform="translate(-100.45 -272.49)"/><path class="cls-1" d="M164.72,362.55h-4.63V375.4h4.63a4.69,4.69,0,0,0,3.4-1.23c1.44-1.44,1.3-3.32,1.3-5.25s.14-3.7-1.3-5.14A4.69,4.69,0,0,0,164.72,362.55Zm1.65,9.82a2.26,2.26,0,0,1-1.88.79H162.6v-8.37h1.89a2.26,2.26,0,0,1,1.88.79c.46.58.54,1.39.54,3.34S166.83,371.79,166.37,372.37Z" transform="translate(-100.45 -272.49)"/><rect class="cls-1" x="222.58" y="90.05" width="2.51" height="12.85"/><path class="cls-1" d="M333,364.68a2.12,2.12,0,0,1,2.16,1.82h2.55a4.53,4.53,0,0,0-4.73-4.06,4.76,4.76,0,0,0-3.47,1.41c-1.3,1.3-1.26,2.9-1.26,5.12s0,3.83,1.26,5.13a4.76,4.76,0,0,0,3.47,1.41,4.55,4.55,0,0,0,4.73-4.06h-2.55a2.13,2.13,0,0,1-2.16,1.82,2.06,2.06,0,0,1-1.61-.67c-.49-.54-.63-1.15-.63-3.63s.14-3.08.63-3.62A2.06,2.06,0,0,1,333,364.68Z" transform="translate(-100.45 -272.49)"/><path class="cls-1" d="M319.74,366.48a3.88,3.88,0,0,0-4.17-3.93h-5V375.4H313v-5.13h1.81l2.51,5.13h2.9l-2.87-5.54A3.46,3.46,0,0,0,319.74,366.48Zm-4.33,1.7H313v-3.39h2.37a1.7,1.7,0,1,1,0,3.39Z" transform="translate(-100.45 -272.49)"/><path class="cls-1" d="M392.28,366.48a3.89,3.89,0,0,0-4.17-3.93h-5V375.4h2.51v-5.13h1.81l2.5,5.13h2.91l-2.87-5.54A3.46,3.46,0,0,0,392.28,366.48Zm-4.34,1.7h-2.36v-3.39h2.36a1.7,1.7,0,1,1,0,3.39Z" transform="translate(-100.45 -272.49)"/><polygon class="cls-1" points="259.54 97.92 254.45 90.05 252.22 90.05 252.22 102.9 254.72 102.9 254.72 95.02 259.81 102.9 262.05 102.9 262.05 90.05 259.54 90.05 259.54 97.92"/><path class="cls-1" d="M374.05,362.55l-4.68,12.85H372l.78-2.28h4.56l.76,2.28h2.62L376,362.55Zm-.58,8.46,1.63-4.67,1.57,4.67Z" transform="translate(-100.45 -272.49)"/><polygon class="cls-1" points="293.89 90.05 293.89 92.29 297.25 92.29 297.25 102.9 299.75 102.9 299.75 92.29 303.11 92.29 303.11 90.05 293.89 90.05"/><path class="cls-1" d="M343.82,362.55l-4.68,12.85h2.62l.78-2.28h4.56l.76,2.28h2.62l-4.7-12.85Zm-.58,8.46,1.62-4.67,1.57,4.67Z" transform="translate(-100.45 -272.49)"/><path class="cls-1" d="M262.89,366.48a3.88,3.88,0,0,0-4.17-3.93h-5V375.4h2.51v-5.13H258l2.51,5.13h2.91l-2.87-5.54A3.47,3.47,0,0,0,262.89,366.48Zm-4.33,1.7h-2.37v-3.39h2.37a1.7,1.7,0,1,1,0,3.39Z" transform="translate(-100.45 -272.49)"/><path class="cls-1" d="M246.14,362.44a4.69,4.69,0,0,0-3.48,1.41c-1.3,1.3-1.27,2.9-1.27,5.12s0,3.83,1.27,5.13a5,5,0,0,0,6.94,0c1.31-1.3,1.29-2.91,1.29-5.13s0-3.82-1.29-5.12A4.64,4.64,0,0,0,246.14,362.44Zm1.61,10.14a2.24,2.24,0,0,1-3.23,0c-.49-.54-.62-1.13-.62-3.61s.13-3.06.62-3.61a2.26,2.26,0,0,1,3.23,0c.48.55.63,1.14.63,3.61S248.23,372,247.75,372.58Z" transform="translate(-100.45 -272.49)"/><polygon class="cls-1" points="130.59 102.9 133.1 102.9 133.1 97.69 138.17 97.69 138.17 95.45 133.1 95.45 133.1 92.29 139.05 92.29 139.05 90.05 130.59 90.05 130.59 102.9"/><polygon class="cls-1" points="189.53 97 186.18 90.05 183.7 90.05 183.7 102.9 186.21 102.9 186.21 95.41 188.69 100.29 190.38 100.29 192.84 95.41 192.84 102.9 195.34 102.9 195.34 90.05 192.87 90.05 189.53 97"/><path class="cls-1" d="M275,362.55l-4.67,12.85H273l.77-2.28h4.57l.76,2.28h2.61L277,362.55Zm-.57,8.46,1.62-4.67,1.57,4.67Z" transform="translate(-100.45 -272.49)"/><polygon class="cls-1" points="198.58 102.9 207.04 102.9 207.04 100.67 201.08 100.67 201.08 97.54 206.16 97.54 206.16 95.31 201.08 95.31 201.08 92.29 207.04 92.29 207.04 90.05 198.58 90.05 198.58 102.9"/><polygon class="cls-1" points="30.97 72.52 30.97 9.88 50.93 9.88 50.93 0 0 0 0 9.88 19.96 9.88 19.96 72.52 30.97 72.52"/><polygon class="cls-1" points="106 62.64 70.66 62.64 70.66 41.98 100.81 41.98 100.81 31.75 70.66 31.75 70.66 9.88 106 9.88 106 0 59.66 0 59.66 72.52 106 72.52 106 62.64"/><path class="cls-1" d="M336.43,345l-16.71-32.09a20.16,20.16,0,0,0,14.47-19.25c0-12.33-8.76-21.19-22.51-21.19h-30V345h11V314.46h15.61L323.6,345Zm-43.72-40.86V282.37h18.15c7.34,0,12.33,4.28,12.33,11.41s-6.85,10.38-14.18,10.38Z" transform="translate(-100.45 -272.49)"/><path class="cls-1" d="M259.6,345h12.84l-16.71-32.09a20.18,20.18,0,0,0,14.47-19.25c0-12.33-8.76-21.19-22.52-21.19h-30V345h11V314.46h15.6Zm-30.88-62.65h18.15c7.33,0,12.32,4.28,12.32,11.41s-6.84,10.38-14.17,10.38h-16.3Z" transform="translate(-100.45 -272.49)"/><path class="cls-1" d="M386.21,330.45l5,14.57h11.71l-26.58-72.53h-8.86L340.88,345H352.6l5-14.57Zm-14.06-41.56,10.66,31.18H361.2Z" transform="translate(-100.45 -272.49)"/></svg>