<svg xmlns="http://www.w3.org/2000/svg" viewBox="0 0 36.13 36.13"><defs><style>.a{fill:none;stroke:#4d4d4d;stroke-miterlimit:10;stroke-width:2.53px;}.b{fill:#4d4d4d;}</style></defs><title>instagram</title><path class="a" d="M32.08,25.18a6.75,6.75,0,1,0-6.75,6.74A6.75,6.75,0,0,0,32.08,25.18ZM35,42H15.69a7.16,7.16,0,0,1-7.16-7.16V15.54a7.15,7.15,0,0,1,7.16-7.16H35a7.15,7.15,0,0,1,7.16,7.16V34.82A7.16,7.16,0,0,1,35,42Z" transform="translate(-7.27 -7.11)"/><path class="b" d="M37.44,15.7a2.74,2.74,0,1,0-2.74,2.73,2.74,2.74,0,0,0,2.74-2.73" transform="translate(-7.27 -7.11)"/></svg>