<svg version="1.1" id="Layer_1" xmlns="http://www.w3.org/2000/svg" xmlns:xlink="http://www.w3.org/1999/xlink" x="0px" y="0px"
	 width="155px" height="65px" viewBox="0 0 155 65" enable-background="new 0 0 155 65" xml:space="preserve">
<g>
	<path fill="#FFFFFF" d="M24.267,27.704h-2.041l-8.808-12.451H5.531v12.451H3.97V0.481h9.168c2.922,0,4.563,0.28,5.844,0.8
		c2.602,1.121,4.324,3.403,4.324,6.565c0,2.562-1.001,4.404-2.602,5.605c-1.442,1.121-3.323,1.561-5.485,1.681L24.267,27.704z
		 M13.098,13.812c3.042,0,5.044-0.36,6.565-1.521c1.281-0.961,2.041-2.362,2.041-4.444c0-2.041-1-3.682-2.522-4.643
		c-1.561-1.001-3.162-1.241-6.084-1.241H5.531v11.85H13.098z"/>
	<path fill="#FFFFFF" d="M28.748,27.704h-1.561V0.481h1.561V27.704z"/>
	<path fill="#FFFFFF" d="M49.004,5.164c-1.922-2.401-4.484-3.803-7.766-3.803c-4.164,0-7.326,2.002-7.326,5.485
		c0,3.402,2.121,4.763,6.165,5.604l3.763,0.801c4.523,0.96,7.566,2.842,7.566,7.165c0,4.604-3.562,7.766-9.768,7.766
		c-5.484,0-8.927-3.002-10.449-5.844l1.321-1.041c1.361,2.842,4.523,5.484,9.167,5.484c5.284,0,8.127-2.602,8.127-6.245
		c0-3.282-2.322-5.004-6.405-5.844l-3.803-0.801c-3.923-0.84-7.285-2.242-7.285-6.885C32.31,2.763,35.873,0,41.238,0
		c4.363,0,7.245,1.922,8.887,3.923L49.004,5.164z"/>
	<path fill="#FFFFFF" d="M62.173,0.481c4.163,0,6.685,0.08,9.248,1.881c3.002,2.082,4.964,6.325,4.964,11.65
		c0,4.604-1.441,8.487-3.923,10.93c-2.722,2.642-5.404,2.762-10.93,2.762h-6.244V0.481H62.173z M56.848,26.222h5.764
		c3.403,0,6.165,0,8.368-2.002c2.162-1.961,3.843-5.364,3.843-10.089c0-4.123-1.361-7.886-3.923-10.128
		c-2.282-2.002-4.604-2.042-9.289-2.042h-4.763V26.222z"/>
</g>
<g>
	<path fill="#FFFFFF" d="M79.504,17.407l8.768,8.451V1.965h-8.768V0.62h10.248v25.2l8.808-8.413v1.844l-9.529,9.104l-9.528-9.104
		V17.407z"/>
</g>
<g>
	<path fill="#FFFFFF" d="M18.902,46.142l-8.768-8.45v23.894h8.768v1.344H8.654v-25.2l-8.808,8.412v-1.844l9.528-9.103l9.529,9.103
		V46.142z"/>
</g>
<g>
	<path fill="#FFFFFF" d="M35.514,35.226c4.723,0,8.206,2.402,10.008,6.486l-1.241,1.16c-1.561-3.962-4.643-6.244-8.767-6.244
		c-6.045,0-9.929,5.044-9.929,12.691c0,7.646,4.043,12.691,10.009,12.691c4.603,0,8.606-3.004,8.606-8.288v-2.722h-9.728v-1.48
		h11.21V62.93H44.2v-4.684h-0.04c-1.12,2.442-3.723,5.164-8.767,5.164c-7.126,0-11.41-5.644-11.41-14.091
		C23.984,40.791,28.387,35.226,35.514,35.226z"/>
	<path fill="#FFFFFF" d="M66.657,62.93H49.963V35.706h1.561v25.742h15.133V62.93z"/>
	<path fill="#FFFFFF" d="M77.264,35.226c7.165,0,11.53,5.564,11.53,14.093c0,8.527-4.324,14.091-11.53,14.091
		c-7.167,0-11.53-5.564-11.53-14.091C65.734,40.791,70.137,35.226,77.264,35.226z M77.264,62.01c5.965,0,9.968-5.044,9.968-12.691
		c0-7.647-3.882-12.691-9.968-12.691c-6.045,0-9.929,5.044-9.929,12.691C67.335,56.965,71.298,62.01,77.264,62.01z"/>
	<path fill="#FFFFFF" d="M106.565,48.677c3.762,0.522,6.165,3.204,6.165,6.886c0,3.042-1.48,5.004-3.562,6.126
		c-1.522,0.8-3.122,1.24-6.926,1.24H92.112V35.706h9.289c3.322,0,5.764,0.16,7.606,1.482c1.642,1.16,2.682,3.002,2.682,5.364
		C111.689,45.995,109.287,48.157,106.565,48.677z M108.327,38.631c-1.322-1.122-3.084-1.442-6.166-1.442h-8.487v10.849h8.287
		c2.802,0,3.964-0.2,5.084-0.68c1.842-0.84,3.002-2.362,3.002-4.724C110.047,40.911,109.447,39.591,108.327,38.631z M93.674,49.439
		v12.009h8.887c3.404,0,4.804-0.4,6.126-1.24c1.48-0.92,2.362-2.442,2.362-4.684c0-2.722-1.322-4.524-3.564-5.444
		c-1.04-0.4-2.202-0.64-4.924-0.64H93.674z"/>
	<path fill="#FFFFFF" d="M115.009,62.93h-1.602l10.249-27.224h1.922l10.209,27.224h-1.562l-3.202-8.567h-12.891L115.009,62.93z
		 M126.298,41.833c-0.52-1.402-1.32-3.684-1.68-4.924c-0.482,1.36-1.322,3.562-1.802,4.884l-4.164,11.129h11.811L126.298,41.833z"/>
	<path fill="#FFFFFF" d="M155,62.93h-16.695V35.706h1.562v25.742H155V62.93z"/>
</g>
</svg>
