<svg version="1.1" id="Layer_1" xmlns="http://www.w3.org/2000/svg" xmlns:xlink="http://www.w3.org/1999/xlink" x="0px" y="0px"
	 width="155px" height="65px" viewBox="0 0 155 65" enable-background="new 0 0 155 65" xml:space="preserve">
<g>
	<path fill="#FFFFFF" d="M23.994,27.607h-1.197l-8.976-12.727H5.443v12.727H4.565V0.479h9.016c1.795,0,3.152,0.12,4.269,0.359
		c3.311,0.638,5.665,2.912,5.665,6.822c0,2.633-1.117,4.548-2.872,5.705c-1.516,1.037-3.471,1.436-5.665,1.516L23.994,27.607z
		 M13.382,14.043c3.471,0,5.346-0.479,6.982-1.636c1.396-0.997,2.194-2.673,2.194-4.747c0-2.992-1.716-4.987-4.388-5.825
		c-1.317-0.439-3.032-0.519-5.067-0.519h-7.66v12.727H13.382z"/>
	<path fill="#FFFFFF" d="M28.462,27.607h-0.878V0.479h0.878V27.607z"/>
	<path fill="#FFFFFF" d="M49.327,4.668c-1.955-2.314-4.708-3.83-8.258-3.83c-4.389,0.04-7.5,2.394-7.5,6.024
		c0,3.591,2.633,4.947,6.822,5.865l3.551,0.798c4.827,1.077,7.42,2.912,7.42,6.982c0,4.269-3.152,7.54-9.375,7.58
		c-5.386,0-8.897-2.912-10.333-5.705l0.718-0.678c1.436,2.992,4.867,5.545,9.694,5.545c5.466-0.04,8.378-2.753,8.378-6.742
		c0-3.471-2.473-5.186-6.662-6.104l-3.63-0.838c-3.79-0.838-7.46-2.075-7.5-6.583c0-4.229,3.551-6.942,8.537-6.982
		c3.99,0,7.101,1.955,8.657,3.87L49.327,4.668z"/>
	<path fill="#FFFFFF" d="M61.815,0.479c4.149,0,6.942,0.08,9.455,1.835c2.952,2.114,5.027,6.303,5.027,11.649
		c0,4.588-1.396,8.458-3.95,10.891c-2.713,2.633-5.386,2.753-10.891,2.753h-5.825V0.479H61.815z M56.508,26.77h5.825
		c3.471,0,6.742-0.04,9.016-2.194c2.234-2.075,3.99-5.306,3.99-10.492c0-4.827-1.436-8.258-4.069-10.532
		c-2.314-2.035-5.027-2.234-9.615-2.234h-5.146V26.77z"/>
</g>
<g>
	<path fill="#FFFFFF" d="M89.502,0.604v26.12l9.056-8.771v1.226l-9.495,9.077l-9.495-9.077v-1.226l9.056,8.771V1.446h-9.056V0.604
		H89.502z"/>
</g>
<g>
	<path fill="#FFFFFF" d="M19.157,45.366l-9.056-8.77v25.278h9.056v0.843H9.224v-26.12l-9.056,8.77V44.14l9.495-9.077l9.495,9.077
		V45.366z"/>
</g>
<g>
	<path fill="#FFFFFF" d="M24.065,49.151c0-8.497,4.309-14.043,11.41-14.043c4.827,0,8.338,2.553,10.093,6.862l-0.718,0.678
		c-1.516-4.269-4.947-6.702-9.375-6.702c-6.463,0-10.532,5.107-10.532,13.205c0,8.099,4.149,13.205,10.532,13.205
		c3.431,0,6.583-1.556,8.099-4.468c0.598-1.197,0.957-2.553,0.957-4.548v-2.873h-9.894V49.63h10.772v13.086h-0.878v-5.226h-0.04
		c-1.277,3.71-4.668,5.705-9.216,5.705C28.373,63.194,24.065,57.649,24.065,49.151z"/>
	<path fill="#FFFFFF" d="M51.153,61.877h15.599v0.838H50.275V35.587h0.878V61.877z"/>
	<path fill="#FFFFFF" d="M77.563,35.108c7.141,0,11.41,5.545,11.41,14.043c0,8.498-4.229,14.043-11.41,14.043
		c-7.141,0-11.41-5.545-11.41-14.043C66.153,40.653,70.462,35.108,77.563,35.108z M77.563,62.356
		c6.343,0,10.492-5.107,10.492-13.205c0-8.098-4.029-13.205-10.492-13.205c-6.423,0-10.492,5.107-10.492,13.205
		C67.071,57.25,71.22,62.356,77.563,62.356z"/>
	<path fill="#FFFFFF" d="M106.408,48.473v0.04c3.99,0.519,6.303,3.471,6.303,6.982c0,2.952-1.436,4.947-3.471,6.024
		c-1.516,0.798-3.112,1.197-6.902,1.197h-9.734V35.587h9.056c3.231,0,5.705,0.199,7.5,1.476c1.556,1.077,2.593,2.952,2.593,5.186
		C111.754,45.56,109.44,47.994,106.408,48.473z M108.921,37.981c-1.436-1.197-3.391-1.556-6.583-1.556h-8.857v11.729h8.737
		c2.912,0,4.109-0.199,5.306-0.718c1.995-0.918,3.271-2.553,3.271-5.107C110.796,40.454,110.118,39.018,108.921,37.981z
		 M93.482,48.952v12.926h9.335c3.551,0,5.027-0.479,6.423-1.316c1.636-1.037,2.513-2.673,2.513-5.107
		c0-2.793-1.476-4.788-3.79-5.785c-1.037-0.439-2.434-0.718-5.146-0.718H93.482z"/>
	<path fill="#FFFFFF" d="M135.411,62.715h-0.997l-3.271-8.817h-12.926l-3.231,8.817h-0.958l10.173-27.129h0.958L135.411,62.715z
		 M124.68,36.664c0,0-1.117,3.152-2.075,5.705l-4.109,10.692h12.328l-4.069-10.652c-1.117-2.952-2.035-5.745-2.035-5.745H124.68z"/>
	<path fill="#FFFFFF" d="M139.401,61.877H155v0.838h-16.477V35.587h0.878V61.877z"/>
</g>
</svg>
