<svg xmlns="http://www.w3.org/2000/svg" viewBox="0 0 1366 768"><defs><style>.a{fill:#fff;}.b{fill:none;stroke:#fff;stroke-miterlimit:10;stroke-width:1.7px;}</style></defs><title>RISDGlobal_bg_arrow</title><path class="a" d="M1215.16,52.81h-2.56l18.32,18.52v1.81L1212.6,91.68h2.56l19-19.44Z"/><path class="a" d="M133.87,722.57l19,19.43h2.56l-18.33-18.54v-1.79l18.33-18.54h-2.56Z"/><path class="a" d="M70.39,703.59v17.94H41.63V704.22c0-4.6.18-8.48,1.17-11.45,1.9-6,6.4-9.92,13.17-9.92,4.68,0,8.47,1.8,10.73,5,2.61,3.69,3.69,7.93,3.69,15.78m30.66-24L72.28,700c-.18-5-1.08-9.37-3.42-12.8-2.62-4-6.94-6.49-12.89-6.49-8.84,0-14,5.32-15.42,12.8a46.28,46.28,0,0,0-.82,9.65v20.37h61.32v-2H72.28V702.6l28.77-20.29Zm0-8.12v-2H39.73v2ZM54.16,658c-8.2,0-13.52-7-13.61-17a23.67,23.67,0,0,1,8.65-18.66l-1.8-1.18a25.6,25.6,0,0,0-8.75,19.57C38.74,652,44.88,660,54.43,660c10.19-.09,13-8.39,14.88-16.95l1.89-8.21c2.07-9.46,6-15,13.8-15,9,0,15.15,6.58,15.23,18.93,0,10.91-5.76,18.67-12.53,21.91l1.54,1.62c6.31-3.24,12.89-11.18,12.89-23.35C102,624.87,94.65,617.75,85,617.75c-9.2,0-13.35,5.86-15.78,16.77l-1.8,8C65.34,652,62.28,658,54.16,658m16.32-94.32c11.72,0,19,4,23.71,9,4.87,5.14,5,12.54,5,20.38v13.16H41.63V594.58c0-10.37.45-16.5,5-21.73,5.14-6,12.89-9.2,23.8-9.2m24.35,6.77c-5.51-5.77-14.25-8.93-24.62-8.93-12.08,0-21.55,4.69-26.33,11.36-4,5.68-4.15,12-4.15,21.37v14h61.32V595c0-12.44-.27-18.48-6.22-24.61"/><path class="a" d="M1306.44,88.88v27.86l-24.16-9.28c-5.78-2.17-12.9-4.69-12.9-4.69v-.09s6.31-2.08,13-4.6Zm-39.49,15,61.31,23v-2.16l-19.93-7.31V88.16l19.93-7.39V78.51L1267,101.68Zm60.5,105.76c0,14.33-11.54,23.71-29.85,23.71s-29.84-9.2-29.84-23.71,11.54-23.71,29.84-23.71,29.85,9.37,29.85,23.71m-61.58,0c0,16,12.53,25.78,31.73,25.78s31.74-9.64,31.74-25.78-12.53-25.79-31.74-25.79-31.73,9.65-31.73,25.79M1267,268.3v2h61.31V233.05h-1.89V268.3Zm59.42-197H1267v2h61.31V36h-1.89Zm-3,65.46c1.89,3.15,3,6.49,3,14.51v21.1h-29.22v-21.1c0-6.13.63-9.28,1.63-11.63a13.56,13.56,0,0,1,13.07-8.56c5.5,0,9.2,2,11.54,5.68m-54.55,35.61v-20c0-7.21.81-11.62,3.52-14.87a12.36,12.36,0,0,1,9.82-4.24,11.9,11.9,0,0,1,11.55,7.39c1.17,2.71,1.62,5.41,1.62,12v19.74Zm27.32-29.21h-.09a14.39,14.39,0,0,0-25.79-6.22c-2.88,4.05-3.33,9.64-3.33,16.95v20.46h61.31v-22c0-8.56-.9-12.17-2.71-15.59-2.43-4.6-6.94-7.84-13.61-7.84-7.94,0-14.61,5.22-15.78,14.24M1267.76,305c0-10,5.5-17.76,15.15-21.19l-1.54-1.62c-9.73,4-15.5,11.9-15.5,22.81,0,16.05,12.53,25.79,31.73,25.79s31.74-9.74,31.74-25.34c0-10.28-4.51-17.94-12.89-20.83v-.08h11.81v-2h-29.58V306.9h1.9V284.54h6.49a21.83,21.83,0,0,1,10.28,2.16c6.58,3.42,10.1,10.55,10.1,18.3,0,14.42-11.54,23.81-29.85,23.81s-29.84-9.2-29.84-23.81"/><path class="b" d="M1329.17,362.53c0,227.27-136.45,361-282.61,361C882,723.51,724,572.74,765,362.43,818.89,85.89,1115.63,97,1054.05,378.63c-70.2,321.15-595.2,343.86-897.54,343.86l-19.64,0"/><path class="b" d="M38.83,529.75c0-348.55,159.55-458.42,297.61-458.42C501,71.33,644.05,222.13,603,432.46,549.11,709,246.18,696.28,313.94,416.25,392.8,90.38,909.15,72.36,1211.49,72.36h19.64"/></svg>