<?xml version="1.0" standalone="no"?>
<!DOCTYPE svg PUBLIC "-//W3C//DTD SVG 1.1//EN" "http://www.w3.org/Graphics/SVG/1.1/DTD/svg11.dtd" >
<svg xmlns="http://www.w3.org/2000/svg" xmlns:xlink="http://www.w3.org/1999/xlink" version="1.1">
<metadata></metadata>
<defs>
<font id="theinhardtheavy_italic" horiz-adv-x="1208" >
<font-face units-per-em="2048" ascent="1642" descent="-406" />
<missing-glyph horiz-adv-x="409" />
<glyph unicode="&#xfb01;" horiz-adv-x="1380" d="M1384 1081h-374l65 312h375zM1155 0h-373l205 975h375zM874 1130q-10 0 -24 3q-12 2 -28.5 3t-33.5 1q-68 0 -99.5 -26t-45.5 -97l-6 -39h205l-51 -242h-205l-156 -733h-373l156 733h-152l52 242h151l31 145q20 94 59 151.5t94.5 90.5t127 44t155.5 11q53 0 108.5 -5 t90.5 -11z" />
<glyph unicode="&#xfb02;" horiz-adv-x="1390" d="M1452 1393l-293 -1393h-375l295 1393h373zM874 1130q-10 0 -24 3q-12 2 -28.5 3t-33.5 1q-68 0 -99.5 -26t-45.5 -97l-6 -39h205l-51 -242h-205l-156 -733h-373l156 733h-152l52 242h151l31 145q20 94 59 151.5t94.5 90.5t127 44t155.5 11q53 0 108.5 -5t90.5 -11z" />
<glyph horiz-adv-x="0" />
<glyph horiz-adv-x="682" />
<glyph horiz-adv-x="0" />
<glyph horiz-adv-x="0" />
<glyph unicode="&#xd;" horiz-adv-x="1626" d="M967 973l-357 -334h527v334h372v-635h-901l359 -338h-451l-485 487l485 486h451z" />
<glyph unicode=" "  horiz-adv-x="409" />
<glyph unicode="&#x09;" horiz-adv-x="409" />
<glyph unicode="&#xa0;" horiz-adv-x="409" />
<glyph unicode="!" horiz-adv-x="610" d="M434 307l-65 -307h-371l63 307h373zM420 379h-309l47 391l133 623h373l-134 -623z" />
<glyph unicode="&#x22;" horiz-adv-x="1030" d="M922 741h-267l43 447l43 205h377l-43 -205zM434 741h-266l43 447l43 205h377l-43 -205z" />
<glyph unicode="#" horiz-adv-x="1390" d="M621 586h157l37 166h-158zM295 586l35 166h-185l21 284h231l82 357h328l-84 -357h158l84 357h325l-82 -357h164l-20 -284h-211l-35 -166h178l-20 -285h-226l-67 -301h-330l70 301h-156l-70 -301h-327l67 301h-168l21 285h217z" />
<glyph unicode="$" horiz-adv-x="1335" d="M1075 922q-63 76 -156.5 129t-207.5 53q-70 0 -115 -21.5t-45 -74.5t45 -81t100 -44l158 -47q78 -25 148.5 -55.5t123 -76t83 -106.5t30.5 -149q0 -90 -30.5 -172t-98.5 -145.5t-174.5 -101.5t-257.5 -40l-35 -166h-311l43 213q-135 47 -224.5 125t-136.5 155l260 203 q27 -47 66 -89t89 -73.5t111.5 -51t133.5 -19.5q104 0 145 35.5t41 80.5q0 43 -38 67t-109 46l-164 51q-78 25 -146.5 57.5t-120 82t-81 117t-29.5 163.5q0 90 38 164t103.5 127t156.5 85t196 38l34 158h312l-43 -197q109 -35 189.5 -93.5t139.5 -123.5z" />
<glyph unicode="%" horiz-adv-x="2127" d="M399 889q0 -70 16.5 -109t51.5 -39q33 0 59.5 31t46 78t29.5 106.5t10 116.5q0 53 -15 93t-56 40q-35 0 -61.5 -31.5t-44 -78.5t-27 -102.5t-9.5 -104.5zM559 1415q47 0 102.5 -14.5t102.5 -51t77.5 -102t30.5 -168.5q0 -98 -26.5 -195.5t-78.5 -175t-130 -127 t-178 -49.5q-160 0 -240 94.5t-80 252.5q0 100 27 196t79 172t131 122t183 46zM1706 1393l-936 -1393h-307l938 1393h305zM1567 332q0 -70 16 -109t51 -39q33 0 59.5 31t46 78t30 106.5t10.5 116.5q0 53 -15.5 93t-56.5 40q-35 0 -61.5 -31.5t-44 -78.5t-26.5 -102.5 t-9 -104.5zM1726 858q47 0 102.5 -14.5t102.5 -51t78 -102t31 -168.5q0 -98 -26.5 -195.5t-79 -175t-130.5 -127t-178 -49.5q-160 0 -239.5 94.5t-79.5 252.5q0 100 26.5 196t78.5 172t131 122t183 46z" />
<glyph unicode="&#x26;" horiz-adv-x="1402" d="M750 1180q-39 0 -61.5 -27t-22.5 -74q0 -49 17 -87t32 -60l18 10q47 27 68.5 69t21.5 85q1 84 -73 84zM530 575q-137 -72 -137 -180q0 -57 41 -99t107 -42q61 0 102 23.5t53 33.5q-25 33 -49 71t-45.5 74t-40.5 66t-31 53zM944 0q-16 16 -28.5 32.5t-22.5 30.5 q-12 14 -23 29q-55 -41 -144 -79t-220 -38q-106 0 -191.5 28t-144.5 77t-91 119.5t-32 156.5q0 82 29.5 149.5t82 122t122 96.5t151.5 73q-29 51 -51.5 116.5t-22.5 137.5q0 70 26 136t78 117.5t130 82t180 30.5q98 0 168 -24.5t114 -66.5t65.5 -97t21.5 -117 q0 -127 -86 -222t-234 -167q16 -37 42 -80t48 -78q23 39 51.5 95.5t57.5 121.5l250 -159q-35 -78 -78 -153t-96 -151q47 -61 109.5 -141t152.5 -178h-414z" />
<glyph unicode="'" horiz-adv-x="542" d="M434 741h-266l43 447l43 205h377l-43 -205z" />
<glyph unicode="(" horiz-adv-x="710" d="M870 1393q-102 -135 -185 -266.5t-142.5 -268.5t-92 -287.5t-32.5 -322.5q0 -129 18.5 -269.5t59.5 -302.5h-359q-104 332 -104 609q0 158 30.5 303t91 282.5t146.5 266.5t197 256h372z" />
<glyph unicode=")" horiz-adv-x="708" d="M-180 -324q102 135 185 266.5t142.5 268.5t92 287.5t32.5 322.5q0 129 -18 269.5t-59 302.5h358q104 -332 104 -609q0 -158 -30.5 -303t-91 -282.5t-146.5 -266.5t-196 -256h-373z" />
<glyph unicode="*" horiz-adv-x="1026" d="M745 1122l240 54l49 -269l-235 -41l131 -204l-248 -136l-121 222l-174 -177l-197 201l183 156l-217 110l120 240l211 -115l33 254l266 -35z" />
<glyph unicode="+" horiz-adv-x="1411" d="M881 0h-338v434h-447v336h447v444h338v-444h444v-336h-444v-434z" />
<glyph unicode="," horiz-adv-x="600" d="M461 393l-70 -330q-20 -94 -42.5 -172.5t-66.5 -135t-121 -88.5t-206 -32h-55l41 181q63 0 104 19.5t61 90.5l15 74h-144l84 393h400z" />
<glyph unicode="-" horiz-adv-x="776" d="M698 700l-63 -305h-569l63 305h569z" />
<glyph unicode="." horiz-adv-x="587" d="M-25 0l86 393h388l-82 -393h-392z" />
<glyph unicode="/" horiz-adv-x="925" d="M311 0h-383l740 1393h381z" />
<glyph unicode="0" horiz-adv-x="1247" d="M463 561q0 -133 30.5 -188.5t86.5 -55.5q59 0 106 48.5t79 124t49 170t17 186.5q0 102 -26.5 166.5t-91.5 64.5q-63 0 -110.5 -54t-78 -133t-46 -168t-15.5 -161zM733 1417q86 0 171 -24.5t152.5 -86t109.5 -167t42 -267.5q0 -152 -35.5 -311.5t-112.5 -289.5t-199 -213 t-296 -83q-125 0 -215 40t-147.5 114t-85 178.5t-27.5 231.5q0 158 39 314.5t118 282.5t199.5 203.5t286.5 77.5z" />
<glyph unicode="1" horiz-adv-x="886" d="M258 0l174 815h-348l63 299h103q135 0 207 47q47 29 79.5 88.5t55.5 143.5h336l-297 -1393h-373z" />
<glyph unicode="2" horiz-adv-x="1202" d="M172 831q-12 57 -12 119q0 96 35.5 180t103.5 146.5t163 98.5t212 36q119 0 210 -31.5t153.5 -88t94 -133.5t31.5 -167q0 -121 -44 -219t-119.5 -181t-175 -151.5t-210.5 -128.5v-2q43 0 84 2q35 0 77 1t79 1h217l-67 -313h-1027l48 264q53 33 116.5 74t129 84t130 88 t121.5 86q47 35 95.5 77t86 88t61 96t23.5 106q0 59 -33.5 97t-99.5 38q-47 0 -77.5 -19.5t-49 -50.5t-26.5 -70.5t-8 -80.5q0 -49 12 -107z" />
<glyph unicode="3" horiz-adv-x="1204" d="M152 1020q8 76 46 147.5t105.5 127t161.5 89t217 33.5q117 0 206 -28.5t149.5 -77.5t90 -116t29.5 -142q0 -137 -65.5 -216t-159.5 -116q70 -35 120 -106.5t50 -182.5q0 -80 -30 -162t-94.5 -147.5t-167.5 -106.5t-251 -41q-137 0 -235.5 37t-162 101.5t-93 153.5 t-29.5 194l342 51v-25q0 -106 48 -153t128 -47q72 0 120 39t48 125q0 45 -18.5 71.5t-51 42t-74.5 20.5t-92 5h-73l53 272h92q121 0 168 41t47 107q0 45 -31.5 74.5t-95.5 29.5q-61 0 -106 -31.5t-58 -121.5z" />
<glyph unicode="4" horiz-adv-x="1234" d="M649 582l41 188q8 39 16.5 70.5t12.5 54.5q6 27 10 47h-4q-18 -25 -39 -47q-16 -20 -36.5 -43t-39.5 -45l-82 -94q-18 -23 -40.5 -45.5t-41.5 -42.5q-23 -23 -43 -45v-2q20 0 43 2q18 0 42 1t47 1h114zM1184 582l-64 -287h-190l-62 -295h-340l62 295h-617l66 276l754 822 h370l-172 -811h193z" />
<glyph unicode="5" horiz-adv-x="1187" d="M94 651l223 742h869l-88 -306h-523l-47 -155q23 12 68 24.5t109 12.5q80 0 152.5 -28t127.5 -81t87 -134t32 -185q0 -121 -34 -224.5t-103.5 -179.5t-176 -119t-249.5 -43q-127 0 -218.5 36t-152.5 92.5t-96 127t-47 140.5l368 82q10 -76 51 -116t105 -40q80 0 125 58.5 t45 158.5q0 84 -40 130t-110 46q-66 0 -108.5 -41t-54.5 -104z" />
<glyph unicode="6" horiz-adv-x="1228" d="M625 670q-84 0 -146 -62q-8 -25 -13 -54.5t-5 -59.5q0 -37 7 -71t23.5 -61.5t45 -44t69.5 -16.5q78 0 124 55.5t46 141.5q0 84 -44 128t-107 44zM862 987q-4 43 -40 85t-105 42q-86 0 -135.5 -62.5t-65.5 -154.5l2 -2q33 20 83 36.5t122 16.5q82 0 156.5 -26.5t132 -78.5 t92.5 -132t35 -185q0 -111 -36 -211t-104.5 -174.5t-169 -120t-231.5 -45.5q-236 0 -370 145.5t-134 414.5q0 176 40 335.5t121 281.5t203 193.5t285 71.5q123 0 209 -38t141.5 -98t82 -134t30.5 -146z" />
<glyph unicode="7" horiz-adv-x="1167" d="M1245 1081q-76 -72 -135 -141.5t-117 -140.5q-135 -178 -242.5 -382t-172.5 -417h-412q88 264 203.5 467t259.5 387q43 55 90 110.5t96 110.5h-305l-41 -190h-358l108 508h1096z" />
<glyph unicode="8" horiz-adv-x="1257" d="M541 999q0 -53 33.5 -87.5t107.5 -34.5q86 0 127 38.5t41 100.5q0 57 -40 89t-112 32q-80 0 -118.5 -43.5t-38.5 -94.5zM403 430q0 -66 46.5 -108.5t132.5 -42.5q94 0 147 46t53 124q0 66 -48 106.5t-132 40.5q-96 0 -147.5 -47t-51.5 -119zM45 391q0 70 21.5 128.5 t58.5 104.5t86 79.5t104 54.5q-23 20 -45 43.5t-39.5 55.5t-27.5 71t-10 90q0 86 34.5 158.5t102 127t166 84t223.5 29.5q117 0 207 -26.5t152.5 -73.5t94 -111.5t31.5 -140.5q0 -66 -18.5 -120t-48 -96t-69.5 -73t-83 -49q27 -18 55.5 -45t53 -64.5t41 -86t16.5 -109.5 q0 -96 -35 -178t-106.5 -141.5t-179 -93.5t-250.5 -34q-264 0 -399.5 111.5t-135.5 304.5z" />
<glyph unicode="9" horiz-adv-x="1230" d="M655 727q84 0 146 61q8 25 13 54.5t5 60.5q0 37 -7 71t-24.5 61.5t-45 44t-68.5 16.5q-78 0 -124 -55.5t-46 -141.5q0 -84 44 -128t107 -44zM418 406q4 -43 40 -85t105 -42q86 0 135.5 62t65.5 155l-2 2q-33 -20 -83 -37t-122 -17q-82 0 -156.5 27t-132 79t-92.5 132 t-35 184q0 111 36 211.5t104.5 175t169 119.5t231.5 45q117 0 210 -38t158.5 -110.5t100.5 -177t35 -237.5q0 -178 -40 -338t-121 -279.5t-203 -190.5t-285 -71q-123 0 -209 38t-141.5 97.5t-82 134t-30.5 146.5z" />
<glyph unicode=":" horiz-adv-x="612" d="M113 584l86 393h381l-82 -393h-385zM-12 0l86 393h387l-82 -393h-391z" />
<glyph unicode=";" horiz-adv-x="614" d="M465 393l-70 -330q-20 -94 -42.5 -172.5t-66.5 -135t-121 -88.5t-206 -32h-55l41 181q63 0 104 19.5t62 90.5l14 74h-135l84 393h391zM115 584l86 393h381l-82 -393h-385z" />
<glyph unicode="&#x3c;" horiz-adv-x="1701" d="M100 795l1413 618v-369l-907 -368l907 -381v-373l-1413 623v250z" />
<glyph unicode="=" horiz-adv-x="1718" d="M139 657v308h1430v-308h-1430zM139 213v307h1430v-307h-1430z" />
<glyph unicode="&#x3e;" horiz-adv-x="1697" d="M1638 545l-1413 -623v373l908 381l-908 368v369l1413 -618v-250z" />
<glyph unicode="?" horiz-adv-x="1116" d="M668 311l-62 -311h-395l61 311h396zM172 862q-8 33 -11 64.5t-3 62.5q0 92 32.5 170t98 134.5t162 89t225.5 32.5q121 0 208 -26.5t143 -74.5t83 -112.5t27 -140.5q0 -127 -64.5 -227.5t-163.5 -178.5l-106 -86q-39 -31 -61.5 -52t-36 -40.5t-20.5 -44t-15 -63.5h-383 q8 78 28.5 132t51 97t74.5 80t100 78l118 86q49 35 73 83t24 93q0 47 -28 82t-81 35q-76 0 -105.5 -54.5t-29.5 -122.5t23 -124z" />
<glyph unicode="@" horiz-adv-x="1662" d="M922 408q-16 -8 -40 -12.5t-77 -14.5q-66 -12 -100.5 -31.5t-34.5 -66.5q0 -37 23.5 -58.5t68.5 -21.5t80 20.5t49 69.5zM936 580q23 4 31 25.5t8 43.5q0 25 -24.5 42.5t-84.5 17.5q-59 0 -88.5 -26t-38.5 -81l-252 10q12 150 124 222.5t284 72.5q154 0 246 -53t92 -176 q0 -37 -6 -72t-15 -63l-63 -262q-4 -10 -7 -25.5t-3 -22.5q0 -18 16 -18q35 0 70 35t63.5 93t47 133t18.5 157q0 74 -21.5 144.5t-74 125.5t-137.5 89t-210 34q-145 0 -258.5 -54t-193.5 -146.5t-122 -212t-42 -251.5q0 -131 43 -224t115.5 -152.5t167 -87t196.5 -27.5 q135 0 270.5 43t239.5 121l49 -213q-129 -86 -284.5 -130t-313.5 -44q-143 0 -276 40t-234.5 125t-163 217t-61.5 316q0 225 77 395t201.5 284t282.5 171t320 57q180 0 308 -51t209 -135t117.5 -192.5t36.5 -223.5q0 -119 -35.5 -233.5t-100 -205.5t-155 -146.5 t-200.5 -55.5q-80 0 -116 22.5t-56 53.5h-4q-31 -35 -87.5 -57.5t-133.5 -22.5q-145 0 -226 78q-33 31 -52 77t-19 105q0 70 25.5 119t70.5 82t106.5 53.5t130.5 30.5z" />
<glyph unicode="A" horiz-adv-x="1363" d="M817 520l-20 285q-4 76 -7.5 117t-3.5 84h-2q-12 -35 -34.5 -80l-55.5 -111l-149 -295h272zM287 0h-410l752 1393h458l164 -1393h-393l-20 231h-432z" />
<glyph unicode="B" horiz-adv-x="1427" d="M834 842q41 0 64.5 5t45.5 15q78 37 78 144q0 41 -17.5 61t-43.5 29q-20 6 -48 7t-59 1h-227l-58 -262h265zM516 580l-63 -297h276q51 0 80 5t53 15q92 39 92 160q0 35 -9 55.5t-25 34.5q-27 20 -67 23.5t-87 3.5h-250zM10 0l295 1393h590q123 0 203 -14.5t131 -41.5 q98 -49 135 -123.5t37 -158.5q0 -121 -58.5 -207t-158.5 -127q68 -41 109.5 -110.5t41.5 -161.5q0 -61 -16 -122t-50 -114t-84 -97t-120 -73q-53 -23 -123 -33t-178 -10h-754z" />
<glyph unicode="C" horiz-adv-x="1341" d="M1047 887q-18 104 -77 163.5t-157 59.5q-92 0 -157.5 -47t-108.5 -122t-63.5 -168t-20.5 -185q0 -147 58.5 -224t172.5 -77q86 0 151.5 44t110.5 115l306 -163q-94 -135 -235.5 -221.5t-352.5 -86.5q-147 0 -258 44t-183.5 123t-109.5 190.5t-37 247.5q0 158 47 308 t140.5 268t232.5 189.5t323 71.5q137 0 236.5 -39t166 -100t104.5 -136t55 -147z" />
<glyph unicode="D" horiz-adv-x="1433" d="M459 305h82q78 0 156.5 10.5t136.5 53.5q45 33 79.5 89t59 122.5t37 136t12.5 131.5q0 90 -30.5 144.5t-102.5 76.5q-47 14 -105.5 16t-124.5 2h-34zM10 0l295 1393h383q182 0 307 -25t209 -84q98 -70 148.5 -176.5t50.5 -253.5q0 -102 -22.5 -213t-68.5 -213t-114 -188 t-160 -140q-106 -61 -219.5 -80.5t-265.5 -19.5h-543z" />
<glyph unicode="E" horiz-adv-x="1277" d="M625 1081l-50 -221h599l-64 -309h-598l-51 -238h694l-65 -313h-1082l297 1393h1041l-66 -312h-655z" />
<glyph unicode="F" horiz-adv-x="1206" d="M625 1081l-52 -227h578l-64 -309h-577l-115 -545h-387l297 1393h1020l-65 -312h-635z" />
<glyph unicode="G" horiz-adv-x="1443" d="M88 590q0 156 47 305t141.5 265t233.5 186.5t321 70.5q137 0 236.5 -39t166 -100t104.5 -136t55 -147l-344 -108q-18 104 -77 163.5t-157 59.5q-88 0 -153.5 -44t-109.5 -116.5t-65.5 -163t-21.5 -182.5q0 -326 244 -325q111 0 179 61t101 160h-358l57 311h721l-176 -811 h-350l16 74q-45 -39 -116.5 -69t-182.5 -30q-238 0 -375 159t-137 456z" />
<glyph unicode="H" horiz-adv-x="1484" d="M516 553l-121 -553h-385l295 1393h387l-110 -519h446l113 519h385l-295 -1393h-385l117 553h-447z" />
<glyph unicode="I" horiz-adv-x="641" d="M682 1393l-297 -1393h-375l295 1393h377z" />
<glyph unicode="J" horiz-adv-x="847" d="M895 1393l-223 -1049q-18 -86 -46 -145.5t-69 -106.5q-66 -70 -164 -94.5t-217 -24.5q-70 0 -136.5 7.5t-123.5 17.5l64 305q39 -6 71.5 -9t69.5 -3q55 0 87 9t54 32q23 23 37 70t31 118l184 873h381z" />
<glyph unicode="K" horiz-adv-x="1427" d="M1300 0h-430l-235 524l-160 -143l-80 -381h-387l299 1393h379l-100 -482l530 482h512l-688 -605z" />
<glyph unicode="L" horiz-adv-x="1089" d="M694 1393l-229 -1071h545l-68 -322h-932l295 1393h389z" />
<glyph unicode="M" horiz-adv-x="1927" d="M1309 0l88 428q10 49 24.5 113.5t30.5 133t32.5 138.5t31 128t25.5 103.5t18 65.5q-29 -61 -56 -125q-23 -53 -50.5 -115.5t-51.5 -115.5l-352 -754h-426l-19 784q-2 51 -2 107.5t-2 103.5q-2 55 -4 109q-2 -18 -10 -62.5t-19.5 -104.5t-25 -130t-26.5 -139.5t-25.5 -133 t-22.5 -110.5l-90 -424h-365l291 1393h592l14 -699q2 -59 3 -117.5t1 -105.5v-109h2q23 53 46 109q20 47 44.5 105.5t51.5 117.5l315 699h598l-299 -1393h-362z" />
<glyph unicode="N" horiz-adv-x="1529" d="M879 0l-189 494q-18 47 -40.5 110.5t-43.5 120.5q-23 68 -47 133h-2q-10 -61 -22 -131q-10 -59 -25.5 -137t-34.5 -164l-90 -426h-375l295 1393h395l195 -490q27 -68 51.5 -131t40.5 -110q20 -55 37 -105h2q10 66 23 135q10 59 25.5 136t31.5 157l88 408h377l-297 -1393 h-395z" />
<glyph unicode="O" horiz-adv-x="1466" d="M815 1110q-90 0 -156.5 -46t-109.5 -119t-64.5 -164t-21.5 -181q0 -162 58.5 -237.5t172.5 -75.5q90 0 158 47t113 121.5t67.5 168t22.5 187.5q0 139 -62.5 219t-177.5 80zM86 580q0 158 46 308t140.5 268t233.5 189.5t328 71.5q139 0 249.5 -43t188.5 -121.5t119 -189.5 t41 -244q0 -156 -45.5 -307.5t-139.5 -270t-237.5 -192.5t-339.5 -74q-147 0 -257 43t-182.5 121t-108.5 190t-36 251z" />
<glyph unicode="P" horiz-adv-x="1353" d="M10 0l295 1393h488q59 0 105 -2t83 -5.5t68.5 -10.5t62.5 -15q131 -37 205 -126t74 -253q0 -72 -16.5 -141.5t-50.5 -131t-84 -111.5t-116 -83q-31 -14 -64.5 -26.5t-79.5 -21.5t-106.5 -14.5t-142.5 -5.5h-239l-97 -446h-385zM625 1090l-72 -336h203q51 0 86 6t61 16 q47 20 76 68.5t29 113.5q0 39 -11.5 64t-27.5 39q-25 20 -65 24.5t-85 4.5h-194z" />
<glyph unicode="Q" horiz-adv-x="1521" d="M815 1110q-90 0 -156.5 -46t-109.5 -119t-64.5 -164t-21.5 -181q0 -162 58.5 -237.5t172.5 -75.5q90 0 158 47t113 121.5t67.5 168t22.5 187.5q0 139 -62.5 219t-177.5 80zM86 580q0 158 46 308t140.5 268t233.5 189.5t328 71.5q139 0 249.5 -43t188.5 -121.5t119 -189.5 t41 -244q0 -125 -29 -246.5t-88 -230.5l160 -192l-297 -228l-119 154q-80 -47 -176.5 -74t-212.5 -27q-147 0 -257 43t-182.5 121t-108.5 190t-36 251z" />
<glyph unicode="R" horiz-adv-x="1427" d="M627 1090l-70 -320h207q51 0 85 6t60 17q47 20 74 62t27 108q0 39 -11.5 62.5t-27.5 35.5q-23 20 -63 24.5t-83 4.5h-198zM10 0l295 1393h504q117 0 185.5 -7.5t127.5 -23.5q129 -37 201 -125t72 -248q0 -72 -16.5 -139.5t-49.5 -127.5t-82 -108.5t-112 -81.5 q-10 -6 -22.5 -11t-25.5 -9l211 -512h-403l-174 465h-225l-101 -465h-385z" />
<glyph unicode="S" horiz-adv-x="1306" d="M1065 926q-63 78 -156.5 132t-208.5 54q-70 0 -114.5 -22.5t-44.5 -75.5t45 -82t100 -45l158 -49q78 -25 148.5 -55.5t122.5 -77t83 -110t31 -151.5q0 -92 -32 -177t-100.5 -149.5t-177 -103.5t-262.5 -39q-129 0 -233.5 31t-186 79t-140 107.5t-93.5 116.5l260 207 q27 -47 66 -90t89 -76t111.5 -52t133.5 -19q104 0 145 36.5t41 81.5t-38 68.5t-110 46.5l-163 53q-78 25 -146.5 58.5t-120 83t-81 119t-29.5 167.5q0 96 42 174t113.5 133.5t170 86t210.5 30.5q104 0 192.5 -21.5t161 -57t132 -84t104.5 -101.5z" />
<glyph unicode="T" horiz-adv-x="1191" d="M289 0l231 1085h-375l66 308h1118l-65 -308h-367l-231 -1085h-377z" />
<glyph unicode="U" horiz-adv-x="1417" d="M635 -25q-252 0 -397.5 93.5t-145.5 298.5q0 76 12.5 138t26.5 128l160 760h387l-160 -766q-10 -47 -22.5 -102.5t-12.5 -96.5q0 -137 172 -137q63 0 104.5 14t69 46t45 83t33.5 125l176 834h385l-196 -926q-29 -139 -77 -227t-108 -142q-92 -80 -207.5 -101.5 t-244.5 -21.5z" />
<glyph unicode="V" horiz-adv-x="1292" d="M283 0l-109 1393h383l39 -721q2 -41 3 -79t3 -69q2 -37 2 -67h2q12 33 29 69q12 31 29.5 68t35.5 76l344 723h414l-713 -1393h-462z" />
<glyph unicode="W" horiz-adv-x="2017" d="M1075 0l-16 315q-4 90 -7 174t-5 152q-2 78 -3 150h-2q-23 -57 -53 -127q-27 -61 -65.5 -146.5t-85.5 -191.5l-150 -326h-452l-41 1393h387l2 -277q0 -76 -2 -180.5t-4 -202.5q-4 -113 -7 -235h2q41 98 86 202q39 90 87.5 200t99.5 220l125 273h375l14 -301q4 -94 7 -202 t7 -200q4 -109 8 -213h4q39 102 80 213q35 94 80 209t92 225l115 269h406l-605 -1393h-479z" />
<glyph unicode="X" horiz-adv-x="1415" d="M889 0l-201 430l-364 -430h-474l682 727l-350 666h420l191 -404l340 404h456l-641 -705l369 -688h-428z" />
<glyph unicode="Y" horiz-adv-x="1316" d="M1516 1393l-687 -830l-118 -563h-377l121 563l-308 830h388l167 -475l359 475h455z" />
<glyph unicode="Z" horiz-adv-x="1296" d="M1098 0h-1149l61 295l817 782h-634l67 316h1133l-58 -271l-833 -803h663z" />
<glyph unicode="[" horiz-adv-x="729" d="M477 -324h-551l365 1717h553l-58 -263h-188l-252 -1189h189z" />
<glyph unicode="\" horiz-adv-x="1476" d="M586 1393l737 -1393h-383l-735 1393h381z" />
<glyph unicode="]" horiz-adv-x="729" d="M233 1393h551l-364 -1717h-553l57 263h189l252 1189h-189z" />
<glyph unicode="^" horiz-adv-x="942" d="M995 666h-385l-67 266l-176 -266h-422l549 768h294z" />
<glyph unicode="_" horiz-adv-x="1368" d="M-51 -354l61 307h1077l-63 -307h-1075z" />
<glyph unicode="`" horiz-adv-x="1024" d="M823 1393l140 -297h-320l-254 297h434z" />
<glyph unicode="a" horiz-adv-x="1146" d="M645 418q-18 -4 -37 -8q-16 -4 -33.5 -6.5t-31.5 -6.5q-35 -6 -67 -12t-55.5 -18.5t-36.5 -32t-13 -49.5q0 -43 27.5 -66.5t74.5 -23.5q68 0 101.5 31.5t43.5 82.5zM104 659q12 160 141.5 250t381.5 90q229 0 330.5 -70.5t101.5 -197.5q0 -31 -5 -58.5t-10 -49.5 q-4 -14 -17 -74t-30 -127q-18 -80 -41 -174q-6 -29 -6 -39q0 -25 41 -25h11.5t15.5 2l-39 -194q-70 -14 -168 -15q-80 0 -130 17.5t-75 58.5q-37 -35 -101.5 -56.5t-154.5 -21.5q-68 0 -129 15.5t-109.5 49.5t-77 88t-28.5 132q0 160 108.5 234.5t301.5 101.5l237 33 q16 4 24.5 8t12.5 20q6 25 6 41q0 70 -108 70q-70 0 -106 -27.5t-46 -93.5z" />
<glyph unicode="b" horiz-adv-x="1206" d="M428 410q0 -76 28.5 -127.5t96.5 -51.5q55 0 95 31t66.5 81t39 112.5t12.5 124.5q0 174 -127 174q-55 0 -95 -31t-65.5 -80t-38 -110.5t-12.5 -122.5zM643 1393l-104 -480q41 35 105.5 60.5t141.5 25.5q74 0 137.5 -25.5t111.5 -76.5t76 -129t28 -180q0 -129 -40 -240.5 t-108.5 -194.5t-163 -130.5t-202.5 -47.5q-84 0 -148.5 27t-103.5 80l-19 -82h-372l294 1393h367z" />
<glyph unicode="c" horiz-adv-x="1110" d="M752 588q-8 72 -40 119t-100 47q-53 0 -93 -31t-66.5 -80t-40 -110.5t-13.5 -120.5q0 -180 127 -181q72 0 116 43t77 113l303 -127q-33 -61 -80 -112.5t-109.5 -90.5t-142.5 -60.5t-178 -21.5q-229 0 -356 114t-127 310q0 119 41 227.5t117.5 191.5t189 132t256.5 49 q201 0 309.5 -90t134.5 -247z" />
<glyph unicode="d" horiz-adv-x="1204" d="M739 575q0 76 -28.5 127.5t-96.5 51.5q-55 0 -95 -31t-66.5 -81t-39 -112.5t-12.5 -123.5q0 -174 127 -175q55 0 95.5 31t66 80t37.5 110.5t12 122.5zM1274 1393l-295 -1393h-367l21 86q-14 -16 -39 -35.5t-58.5 -36t-77.5 -28t-96 -11.5q-72 0 -132 28t-105 80 t-70.5 129t-25.5 175q0 131 41 242.5t110.5 193.5t162.5 129t198 47q170 0 256 -98l104 492h373z" />
<glyph unicode="e" horiz-adv-x="1157" d="M606 776q-41 0 -73.5 -15.5t-56 -40t-38 -53t-18.5 -55.5h321q8 66 -26.5 115t-108.5 49zM1040 217q-25 -37 -67.5 -80t-105 -78.5t-147.5 -59.5t-196 -24q-229 0 -362 111t-133 324q0 106 37.5 212.5t113.5 189.5t188.5 135t264.5 52q117 0 204 -31.5t144 -90t86 -138.5 t29 -176q0 -37 -4.5 -74.5t-12.5 -78.5h-688q-6 -88 47.5 -131t130.5 -43q76 0 129.5 34.5t87.5 87.5z" />
<glyph unicode="f" horiz-adv-x="786" d="M874 1130q-10 0 -24 3q-12 2 -28.5 3t-33.5 1q-68 0 -99.5 -26t-45.5 -97l-6 -39h205l-51 -242h-205l-156 -733h-373l156 733h-152l52 242h151l31 145q20 94 59 151.5t94.5 90.5t127 44t155.5 11q53 0 108.5 -5t90.5 -11z" />
<glyph unicode="g" horiz-adv-x="1214" d="M627 23q2 16 6 30q4 12 6 25.5t6 23.5q-39 -35 -100.5 -57t-143.5 -22q-78 0 -144.5 25.5t-115.5 74.5t-76.5 124t-27.5 173q0 121 39 227.5t108.5 185t163.5 123.5t203 45q84 0 148.5 -25.5t103.5 -76.5l18 76h373l-213 -998q-25 -113 -69 -184.5t-109.5 -113 t-153.5 -57t-198 -15.5q-80 0 -167 10t-159 44t-118 96.5t-46 168.5v23l356 12q2 -61 38 -88t98 -27q88 0 123 45.5t51 131.5zM748 592q0 72 -29 121t-96 49q-55 0 -95.5 -30t-67 -77t-38.5 -106.5t-12 -118.5q0 -80 32.5 -123t94.5 -43q55 0 95 30t65.5 76t38 104.5 t12.5 117.5z" />
<glyph unicode="h" horiz-adv-x="1202" d="M647 1393l-117 -535q53 61 139.5 101t192.5 40q119 0 192.5 -56t73.5 -179q0 -39 -6 -94.5t-22 -126.5l-115 -543h-375l117 553q10 47 10 78q0 39 -20.5 62.5t-73.5 23.5q-66 0 -112 -46t-62 -124l-113 -547h-376l296 1393h371z" />
<glyph unicode="i" horiz-adv-x="583" d="M586 1081h-375l65 312h375zM356 0h-372l204 975h375z" />
<glyph unicode="j" horiz-adv-x="581" d="M-188 -104q10 -2 18 -2h16q70 0 101 32q12 14 21 36t20 69l200 944h375l-221 -1036q-16 -76 -33.5 -122t-40.5 -79q-53 -72 -135 -101.5t-199 -29.5q-84 0 -182 12zM586 1081h-375l65 312h375z" />
<glyph unicode="k" horiz-adv-x="1196" d="M651 1393l-151 -686l293 268h489l-512 -414l311 -561h-413l-176 342l-76 -59l-60 -283h-374l294 1393h375z" />
<glyph unicode="l" horiz-adv-x="593" d="M655 1393l-293 -1393h-374l295 1393h372z" />
<glyph unicode="m" horiz-adv-x="1814" d="M1339 553q10 47 11 78q0 39 -20.5 62.5t-72.5 23.5q-74 0 -122 -68q-29 -39 -45 -112l-111 -537h-377l117 553q10 47 10 78q0 39 -20.5 62.5t-71.5 23.5q-74 0 -123 -68q-29 -39 -45 -112l-111 -537h-376l206 975h371l-27 -117q53 61 136.5 101t185.5 40 q92 0 157.5 -33.5t92.5 -105.5q57 57 144 98t208 41q131 0 208 -56t77 -179q0 -39 -6 -94.5t-23 -126.5l-115 -543h-374z" />
<glyph unicode="n" horiz-adv-x="1204" d="M532 858q53 61 139.5 101t192.5 40q119 0 192.5 -56t73.5 -179q0 -39 -6 -94.5t-22 -126.5l-115 -543h-375l117 553q10 47 10 78q0 39 -20.5 62.5t-73.5 23.5q-66 0 -112 -46t-62 -124l-113 -547h-376l206 975h371z" />
<glyph unicode="o" horiz-adv-x="1183" d="M737 575q0 76 -29.5 127.5t-95.5 51.5q-53 0 -93 -31t-66.5 -80t-40 -110.5t-13.5 -120.5q0 -180 127 -181q55 0 95.5 31t66 80t37.5 110.5t12 122.5zM29 399q0 119 40 227.5t118.5 191.5t192.5 132t261 49q231 0 352 -116.5t121 -317.5q0 -109 -36 -214t-110.5 -188 t-188 -135.5t-267.5 -52.5q-229 0 -356 113.5t-127 310.5z" />
<glyph unicode="p" d="M428 406q0 -76 28.5 -127.5t96.5 -51.5q55 0 95 31t66.5 81t39 112.5t12.5 123.5q0 174 -127 175q-55 0 -95 -31t-65.5 -80t-38 -110.5t-12.5 -122.5zM-96 -369l284 1344h367l-20 -86q104 111 258 110q74 0 136 -27.5t109 -79.5t74 -129t27 -175q0 -131 -40 -243 t-109.5 -193.5t-163 -129t-199.5 -47.5q-170 0 -256 99l-95 -443h-372z" />
<glyph unicode="q" d="M741 569q0 76 -28.5 127.5t-96.5 51.5q-55 0 -95 -31t-66.5 -81t-39 -112.5t-12.5 -124.5q0 -174 127 -174q55 0 95.5 31t66 80t37.5 110.5t12 122.5zM537 -369l94 430q-41 -35 -105.5 -60.5t-146.5 -25.5q-74 0 -137.5 26t-110.5 77t-73.5 129t-26.5 180q0 129 39 240.5 t108.5 194.5t163.5 130t203 47q84 0 148.5 -26.5t103.5 -79.5l18 82h373l-285 -1344h-366z" />
<glyph unicode="r" horiz-adv-x="823" d="M356 0h-374l206 975h371l-31 -137q16 27 47 56.5t72 52t90 37.5t101 15h17t17 -2l-67 -327q-25 6 -49.5 8t-44.5 2q-86 0 -140.5 -38t-85.5 -99q-27 -59 -41 -131z" />
<glyph unicode="s" horiz-adv-x="1058" d="M803 635q-33 33 -73 55.5t-78 35.5t-72.5 19.5t-59.5 6.5q-45 0 -70.5 -12.5t-25.5 -39.5q0 -29 21.5 -40t68.5 -21l141 -33q61 -14 117.5 -35.5t99.5 -55.5t68 -82t25 -116q0 -84 -35 -148.5t-97.5 -107.5t-148.5 -64.5t-188 -21.5q-98 0 -182.5 19.5t-151 51.5 t-115.5 74t-76 87l219 174q41 -63 125 -108.5t191 -45.5q68 0 96.5 16.5t28.5 43.5q0 29 -33 40t-74 21l-127 31q-53 12 -109.5 33.5t-101.5 56.5t-73.5 84t-28.5 119q0 78 35 139t95 103t141 63.5t173 21.5q131 0 251 -42t218 -142z" />
<glyph unicode="t" horiz-adv-x="839" d="M526 365q-8 -35 -8 -58q0 -45 31 -59.5t78 -14.5q33 0 56.5 3.5t31.5 5.5l-53 -242q-23 -4 -78.5 -13.5t-147.5 -9.5q-59 0 -115.5 5.5t-101.5 24t-72.5 53t-27.5 94.5q0 41 16 116l98 463h-184l49 242h187l71 346l387 45l-86 -391h211l-51 -242h-211z" />
<glyph unicode="u" horiz-adv-x="1200" d="M629 117q-53 -61 -137 -101.5t-191 -40.5q-119 0 -192.5 56.5t-73.5 179.5q0 39 6 94t22 127l115 543h375l-117 -553q-10 -47 -10 -78q0 -39 20.5 -62.5t73.5 -23.5q61 0 107.5 46t62.5 124l113 547h377l-207 -975h-371z" />
<glyph unicode="v" horiz-adv-x="1071" d="M1153 975l-518 -975h-451l-92 975h377l12 -445q0 -29 1 -59.5t1 -54.5q0 -29 2 -58h2q12 29 25 60q10 27 23.5 56.5t25.5 57.5l187 443h405z" />
<glyph unicode="w" horiz-adv-x="1650" d="M1112 621q0 -47 -1 -95.5t-1 -89.5v-90h2q14 41 33 88q14 41 32.5 90t34.5 99l121 352h385l-452 -975h-443l4 367q0 33 1 70.5t3 68.5q2 37 5 72h-2q-12 -35 -27 -72q-12 -31 -26.5 -68t-28.5 -69l-154 -369h-467l-35 975h398l-19 -357q-4 -45 -5 -92t-3 -86 q-2 -45 -4 -88h2q14 43 33 88q16 39 34.5 86t36.5 95l138 354h405v-354z" />
<glyph unicode="x" horiz-adv-x="1134" d="M1202 975l-442 -486l264 -489h-399l-117 233l-199 -233h-434l471 508l-260 467h397l113 -219l184 219h422z" />
<glyph unicode="y" horiz-adv-x="1077" d="M92 975h387l2 -338v-211q0 -61 2 -125h2q25 63 47 123q20 51 42 106.5t38 92.5l142 352h409l-585 -1071q-43 -78 -81 -131.5t-81 -87.5q-98 -74 -301 -74q-57 0 -97.5 4t-80.5 10l51 262q8 -2 18 -2q8 -2 19.5 -2h21.5q84 0 115 20.5t31 88.5q0 16 -2.5 41.5t-6.5 52.5z " />
<glyph unicode="z" horiz-adv-x="1085" d="M1090 975l-48 -225l-550 -482h466l-57 -268h-962l47 227l551 482h-431l58 266h926z" />
<glyph unicode="{" horiz-adv-x="786" d="M582 786q-10 -53 -23.5 -85.5t-31 -54t-40 -36t-49.5 -26.5l-2 -4q35 -29 48.5 -69t13.5 -83q0 -41 -8.5 -84t-16.5 -80l-35 -151q-6 -29 -10 -52.5t-4 -40.5q0 -53 37 -65t114 -12h19l-57 -269q-29 -2 -63 -2h-62q-80 0 -148.5 9.5t-118 35t-78 72.5t-28.5 125 q0 45 12 103.5t25 111.5l41 172q4 23 7 39t3 33q0 41 -21.5 67.5t-74.5 32.5l49 238q80 0 110.5 38.5t47.5 116.5l43 207q20 94 48.5 156.5t77 100.5t123 53.5t187.5 15.5q66 0 101.5 -1t80.5 -5l-55 -263h-76q-78 0 -105.5 -36.5t-41.5 -116.5z" />
<glyph unicode="|" horiz-adv-x="761" d="M193 1536h364v-1972h-364v1972z" />
<glyph unicode="}" horiz-adv-x="788" d="M195 315q10 51 23 85t30.5 55.5t39 36t50.5 26.5l2 4q-35 29 -48 69t-13 83q0 41 8 84t16 80l27 120q6 29 10 52.5t4 40.5q0 53 -37 65t-114 12h-17l57 269q29 2 62 2h61q80 0 148.5 -9.5t118 -35t78 -73.5t28.5 -124q0 -45 -13.5 -104.5t-23.5 -110.5l-33 -141 q-4 -23 -7 -39.5t-3 -32.5q0 -41 21.5 -67.5t74.5 -32.5l-49 -238q-80 0 -110.5 -39t-46.5 -116l-52 -238q-20 -94 -48.5 -156.5t-77 -100.5t-123 -53.5t-187.5 -15.5q-66 0 -102.5 1t-81.5 5l57 263h76q78 0 104.5 36.5t42.5 116.5z" />
<glyph unicode="~" horiz-adv-x="1169" d="M1130 573q-72 -90 -168 -139t-186 -49q-68 0 -116 16.5t-101 42.5q-35 16 -78 39t-84 23q-16 0 -33.5 -4t-40 -18.5t-51 -43t-67.5 -75.5l-154 274q18 29 51 63.5t78 65.5t100.5 52.5t116.5 21.5q72 0 129.5 -22.5t118.5 -57.5q41 -23 69.5 -35t65.5 -12q53 0 107.5 35.5 t101.5 93.5z" />
<glyph unicode="&#xa1;" horiz-adv-x="577" d="M121 668l65 307h371l-63 -307h-373zM135 596h309l-47 -391l-133 -623h-373l134 623z" />
<glyph unicode="&#xa2;" horiz-adv-x="1171" d="M410 412q0 -90 43 -138l94 451q-33 -20 -58.5 -55t-43 -77t-26.5 -89t-9 -92zM801 588q-10 76 -53 119l-97 -451q74 41 117 131l281 -127q-59 -111 -168 -188.5t-275 -91.5l-45 -213l-215 43l37 182q-158 35 -243 141.5t-85 265.5q0 113 36 215.5t105.5 184.5t171 134 t230.5 62l43 201l215 -43l-39 -172q125 -33 195.5 -115t91.5 -204z" />
<glyph unicode="&#xa3;" horiz-adv-x="1239" d="M907 946q2 10 2 23.5v27.5q0 43 -16 82t-70 39q-59 0 -83.5 -57t-41.5 -156l-10 -59h285l-60 -293h-266q-14 -90 -35.5 -149.5t-62.5 -98.5v-2h59q29 0 72 1t100 1h332l-61 -305h-1084l56 272q57 2 98 14.5t70.5 42t50 84t34.5 140.5h-196l63 293h181q16 111 43.5 213 t83 180t146.5 124t234 46q190 0 300 -87t110 -271v-30.5t-2 -31.5z" />
<glyph unicode="&#xa4;" horiz-adv-x="1255" d="M522 567q0 -45 31 -76.5t74 -31.5q47 0 77.5 31.5t30.5 76.5q0 47 -29.5 79t-78.5 32q-43 0 -74 -32t-31 -79zM201 567q0 53 7 94t28 82l-125 119l223 225l123 -124q76 35 170 34q43 0 90 -8t88 -24l117 118l219 -219l-121 -116q35 -78 35 -181q0 -43 -8.5 -88t-24.5 -86 q29 -27 62.5 -59.5t56.5 -57.5l-219 -219l-115 115q-39 -14 -86 -22.5t-94 -8.5t-91 7.5t-85 23.5l-119 -117l-219 219l118 119q-16 37 -23 82t-7 92z" />
<glyph unicode="&#xa5;" horiz-adv-x="1476" d="M506 455l26 116h-327l53 258h178l-213 564h387l168 -475l359 475h454l-471 -564h195l-53 -258h-355l-26 -116h354l-53 -258h-355l-41 -197h-376l41 197h-324l51 258h328z" />
<glyph unicode="&#xa6;" horiz-adv-x="745" d="M180 334h365v-658h-365v658zM180 1393h365v-658h-365v658z" />
<glyph unicode="&#xa7;" horiz-adv-x="1101" d="M618 518q33 14 54.5 40t21.5 65q0 51 -34.5 73.5t-92.5 44.5l-55 21q-37 -10 -60.5 -32.5t-23.5 -63.5q0 -49 33 -73t78 -42zM209 252q16 -31 45 -58.5t62.5 -50t72.5 -36t78 -13.5q49 0 74.5 18.5t25.5 47.5q0 37 -40 60.5t-111 51.5l-68 29q-121 51 -190.5 129 t-71.5 209q0 55 17.5 102t47 84t69.5 62.5t83 38.5q-16 25 -32.5 65.5t-16.5 104.5q0 68 28.5 127t82 103t127 68.5t163.5 24.5q84 0 157 -20.5t132.5 -51t102.5 -67.5t65 -70l-199 -174q-47 49 -103 80t-126 31q-84 0 -84 -64q0 -23 16.5 -42t61.5 -37l70 -27 q59 -25 113 -52.5t94 -64.5t63.5 -86t23.5 -112q0 -113 -59 -188t-145 -112q27 -35 50 -78.5t23 -111.5q0 -76 -30.5 -140.5t-86 -110.5t-133 -71.5t-174.5 -25.5q-86 0 -164.5 22.5t-145 58.5t-117 81t-74.5 90z" />
<glyph unicode="&#xa8;" horiz-adv-x="1024" d="M1006 1106h-291l59 276h291zM610 1106h-291l60 276h291z" />
<glyph unicode="&#xa9;" horiz-adv-x="1566" d="M1298 717q0 102 -36.5 192t-102 158t-153.5 106.5t-193 38.5q-104 0 -192.5 -38.5t-154 -106.5t-102 -158t-36.5 -192t36.5 -192.5t102 -158t154 -106.5t192.5 -39t192.5 39t154 106.5t102 158t36.5 192.5zM1511 717q0 -147 -53 -275.5t-147 -222.5t-222 -148.5 t-276 -54.5q-147 0 -275 54.5t-222.5 148.5t-147.5 222t-53 276q0 147 53 275t147.5 222.5t222.5 148.5t275 54t275.5 -54t222.5 -148.5t147 -222.5t53 -275zM1159 537q-49 -100 -136 -160t-206 -60q-84 0 -152.5 28t-116.5 80t-75 125t-27 163q0 184 99.5 293.5 t271.5 109.5q74 0 131.5 -21.5t98 -56t67.5 -79t41 -89.5l-186 -65q-37 143 -152 143q-76 0 -119 -61.5t-43 -171.5q0 -111 45 -170.5t117 -59.5q102 0 148 113z" />
<glyph unicode="&#xaa;" horiz-adv-x="831" d="M571 1024l-24 -4q-10 -2 -22.5 -4t-22.5 -4q-47 -10 -81 -22.5t-34 -53.5q0 -61 70 -62q45 0 66.5 22t29.5 56zM209 1186q8 109 95 168t255 59q154 0 221.5 -46t67.5 -132q0 -39 -10 -74q-2 -10 -11.5 -49t-19.5 -84q-12 -53 -27 -117q-4 -10 -4 -16v-10q0 -16 27 -17 q10 0 18 2l-26 -131q-25 -4 -52.5 -7t-60.5 -3q-106 0 -137 51q-25 -23 -69 -38t-103 -15q-45 0 -86 10.5t-73 34t-51.5 59t-19.5 89.5q0 106 73 156t202 69l160 20q10 4 15 6.5t9 14.5q2 8 3 14t1 12q0 47 -74 48q-88 0 -100 -82z" />
<glyph unicode="&#xab;" horiz-adv-x="1181" d="M598 446l57 263l519 311l-80 -377l-191 -86l144 -125l-72 -352zM37 446l57 263l518 311l-80 -377l-190 -86l143 -125l-71 -352z" />
<glyph unicode="&#xac;" horiz-adv-x="1423" d="M1270 293h-334v373h-803v309h1137v-682z" />
<glyph unicode="&#xad;" horiz-adv-x="776" d="M698 700l-63 -305h-569l63 305h569z" />
<glyph unicode="&#xae;" horiz-adv-x="1570" d="M715 770h131q39 0 61 8q23 8 32 26.5t9 41.5t-9 41t-32 26t-61 9h-131v-152zM1303 715q0 104 -37 194t-102.5 158t-154.5 106.5t-194 38.5q-104 0 -193.5 -38.5t-155 -106.5t-102 -158t-36.5 -194t36.5 -194.5t102 -158t155 -106.5t193.5 -39t193.5 39t155 106.5 t102.5 158t37 194.5zM1516 715q0 -147 -53.5 -276.5t-147.5 -223.5t-222 -148.5t-278 -54.5t-277.5 54.5t-222 148.5t-147.5 223t-53 277q0 147 53 276t147.5 223.5t222.5 148.5t277 54q150 0 278 -54t222 -148.5t147.5 -223.5t53.5 -276zM715 354h-199v733h367 q66 0 105.5 -12t68.5 -35q45 -33 67.5 -82t22.5 -108q0 -92 -41 -148.5t-119 -76.5l154 -271h-244l-133 252h-49v-252z" />
<glyph unicode="&#xaf;" horiz-adv-x="1024" d="M373 1393h663l-59 -281h-664z" />
<glyph unicode="&#xb0;" horiz-adv-x="942" d="M412 1004q0 -59 44 -103.5t103 -44.5t103.5 44t44.5 104q0 59 -44.5 103t-103.5 44t-103 -44t-44 -103zM145 1004q0 86 33 161.5t88.5 131t131 88t161.5 32.5t162 -32.5t131 -88t88 -131t33 -161.5t-33 -162t-88 -131.5t-131 -88t-162 -32.5t-161.5 32.5t-131 88 t-88.5 131.5t-33 162z" />
<glyph unicode="&#xb1;" horiz-adv-x="1550" d="M145 0v336h1229v-336h-1229zM930 391h-338v221h-447v336h447v277h338v-277h444v-336h-444v-221z" />
<glyph unicode="&#xb2;" horiz-adv-x="843" d="M215 1055q-6 29 -7 44t-1 34q0 59 21.5 111t63.5 90t104.5 60.5t142.5 22.5q150 0 233.5 -70.5t83.5 -189.5q0 -72 -27.5 -130t-73.5 -106.5t-104.5 -86t-122.5 -66.5v-4q23 0 47 2q23 0 51.5 1t61.5 1h115l-45 -211h-660l33 186q33 18 75 43t85 50.5t84 52t76 51.5 q27 20 55.5 42t50 45.5t35.5 51t14 60.5t-18.5 53t-55.5 20q-41 0 -64.5 -29.5t-23.5 -80.5q0 -23 2.5 -39t6.5 -31z" />
<glyph unicode="&#xb3;" horiz-adv-x="806" d="M184 1165q6 49 29 94.5t64.5 81t103 56t145.5 20.5q74 0 130.5 -18.5t93 -49t56 -71.5t19.5 -86q0 -78 -38.5 -127t-92.5 -76q37 -23 67 -64.5t30 -105.5q0 -51 -17.5 -101t-57.5 -90t-104.5 -65.5t-158.5 -25.5q-86 0 -148.5 22.5t-103.5 62.5t-60.5 94t-19.5 118v8 l229 32q0 -4 -1 -10t-1 -10q0 -63 30 -89t71 -26q43 0 70.5 23.5t27.5 66.5q0 53 -41 73t-98 20h-56l31 155h78q45 0 81 15.5t36 68.5q0 29 -20.5 44.5t-51.5 15.5q-37 0 -61.5 -20.5t-34.5 -74.5z" />
<glyph unicode="&#xb4;" horiz-adv-x="1024" d="M971 1393l-254 -297h-320l140 297h434z" />
<glyph unicode="&#xb5;" horiz-adv-x="1193" d="M-90 -367l283 1342h374l-116 -553q-10 -47 -11 -78q0 -39 20.5 -62.5t74.5 -23.5q61 0 107 46t63 124l112 547h377l-207 -975h-371l27 117q-35 -59 -94.5 -89t-130.5 -30h-27.5t-30.5 4l-75 -369h-375z" />
<glyph unicode="&#xb6;" horiz-adv-x="1626" d="M586 524h-17q-92 0 -171 23.5t-136 71t-90 121t-33 175.5q0 221 140 345q39 35 86 60.5t110.5 41.5t148.5 24.5t201 8.5h889l-65 -314h-154l-285 -1343h-311l285 1343h-168l-285 -1343h-311z" />
<glyph unicode="&#xb7;" horiz-adv-x="595" d="M68 432l88 406h391l-88 -406h-391z" />
<glyph unicode="&#xb8;" horiz-adv-x="1024" d="M338 6h137l-67 -67q72 -2 121 -40t49 -116q0 -47 -20.5 -82t-52.5 -57.5t-73 -32.5t-84 -10q-63 0 -121 22l15 103q35 -14 75 -15q31 0 55.5 12.5t24.5 47.5q0 31 -21.5 43t-49.5 12q-49 0 -80 -21l-39 95z" />
<glyph unicode="&#xb9;" horiz-adv-x="622" d="M240 555l102 453h-211l49 202h82q39 0 68.5 14.5t50 40t33 58.5t20.5 70h252l-180 -838h-266z" />
<glyph unicode="&#xba;" horiz-adv-x="823" d="M541 1241q-37 0 -64.5 -20.5t-46 -52t-27 -71.5t-8.5 -77q0 -59 23.5 -89t64.5 -30q37 0 64.5 20.5t46 52.5t27 70.5t8.5 77.5q0 55 -23.5 87t-64.5 32zM158 1014q0 80 25.5 152.5t75.5 128t126 88t176 32.5q150 0 229.5 -77.5t79.5 -213.5q0 -72 -23.5 -143.5 t-72.5 -128.5t-124 -93t-179 -36q-152 0 -232.5 78t-80.5 213z" />
<glyph unicode="&#xbb;" horiz-adv-x="1179" d="M569 653l-57 -262l-518 -311l80 377l190 86l-143 125l72 352zM1130 653l-57 -262l-518 -311l80 377l190 86l-143 125l72 352z" />
<glyph unicode="&#xbc;" horiz-adv-x="1794" d="M1343 446q4 20 9.5 40t9.5 36q4 18 8 37q-16 -23 -35.5 -45t-42.5 -47l-41 -43q-10 -10 -20 -21.5t-21 -21.5l-20 -21h135zM258 555l102 453h-210l49 202h82q39 0 68.5 14.5t50 40t32.5 58.5t21 70h252l-181 -838h-266zM1501 1393l-936 -1393h-307l938 1393h305zM1475 0 h-230l39 180h-366l36 162l476 508h227l-107 -490h129l-34 -180h-132z" />
<glyph unicode="&#xbd;" horiz-adv-x="1896" d="M256 555l102 453h-211l50 202h82q39 0 68.5 14.5t50 40t32.5 58.5t21 70h251l-180 -838h-266zM1499 1393l-936 -1393h-307l938 1393h305zM1163 500q-6 29 -7 44t-1 34q0 59 21.5 111t63.5 90t104.5 60.5t142.5 22.5q150 0 233.5 -70.5t83.5 -189.5q0 -72 -27.5 -130 t-73.5 -106.5t-104.5 -86t-121.5 -66.5v-4q23 0 47 2q23 0 51.5 1t60.5 1h115l-45 -211h-659l32 186q33 18 75 43t85 50.5t84 52t76 51.5q27 20 55.5 42t50 45.5t35.5 51t14 60.5t-18 53t-55 20q-41 0 -64.5 -29.5t-23.5 -80.5q0 -23 2 -39t6 -31z" />
<glyph unicode="&#xbe;" horiz-adv-x="1951" d="M1507 446q4 20 9.5 40t9.5 36q4 18 8 37q-16 -23 -35.5 -45t-42.5 -47l-41 -43q-10 -10 -20.5 -21.5t-20.5 -21.5l-20 -21h135zM1665 1393l-936 -1393h-307l938 1393h305zM1638 0h-229l39 180h-367l37 162l475 508h228l-107 -490h129l-35 -180h-131zM186 1165 q6 49 29 94.5t65 81t103 56t145 20.5q74 0 130.5 -18.5t93 -49t56 -71.5t19.5 -86q0 -78 -38.5 -127t-92.5 -76q37 -23 67 -64.5t30 -105.5q0 -51 -17.5 -101t-57.5 -90t-104.5 -65.5t-158.5 -25.5q-86 0 -148.5 22.5t-103.5 62.5t-60.5 94t-19.5 118v8l229 32q0 -4 -1 -10 t-1 -10q0 -63 30 -89t71 -26q43 0 70.5 23.5t27.5 66.5q0 53 -41 73t-98 20h-56l31 155h78q45 0 81 15.5t36 68.5q0 29 -20.5 44.5t-51.5 15.5q-37 0 -61.5 -20.5t-34.5 -74.5z" />
<glyph unicode="&#xbf;" horiz-adv-x="1095" d="M397 666l62 311h395l-61 -311h-396zM893 115q8 -33 11 -65t3 -62q0 -92 -32.5 -170t-98 -134.5t-162 -89t-225.5 -32.5q-121 0 -208 26.5t-143 74.5t-83 112.5t-27 140.5q0 127 64.5 227.5t163.5 178.5l106 86q39 31 61.5 52t36 40.5t20.5 44t15 63.5h383 q-10 -78 -29.5 -133t-50 -98t-74.5 -79t-100 -77l-118 -86q-49 -35 -73 -83t-24 -93q0 -47 28 -82t81 -35q76 0 105.5 54.5t29.5 121.5q0 68 -23 125z" />
<glyph unicode="&#xc0;" horiz-adv-x="1363" d="M899 1862l139 -297h-319l-254 297h434zM817 520l-20 285q-4 76 -7.5 117t-3.5 84h-2q-12 -35 -34.5 -80l-55.5 -111l-149 -295h272zM287 0h-410l752 1393h458l164 -1393h-393l-20 231h-432z" />
<glyph unicode="&#xc1;" horiz-adv-x="1363" d="M1280 1862l-254 -297h-319l139 297h434zM817 520l-20 285q-4 76 -7.5 117t-3.5 84h-2q-12 -35 -34.5 -80l-55.5 -111l-149 -295h272zM287 0h-410l752 1393h458l164 -1393h-393l-20 231h-432z" />
<glyph unicode="&#xc2;" horiz-adv-x="1363" d="M911 1655l-92 -90h-325l315 297h266l178 -297h-288zM817 520l-20 285q-4 76 -7.5 117t-3.5 84h-2q-12 -35 -34.5 -80l-55.5 -111l-149 -295h272zM287 0h-410l752 1393h458l164 -1393h-393l-20 231h-432z" />
<glyph unicode="&#xc3;" horiz-adv-x="1363" d="M494 1636q6 27 24.5 66t51 74.5t76.5 60.5t104 25q41 0 75.5 -10.5t69.5 -26.5q33 -14 61.5 -26.5t57.5 -12.5q35 0 56.5 24.5t33.5 55.5l223 -103q-16 -43 -38.5 -84t-55.5 -72.5t-75 -51t-99 -19.5q-45 0 -79 7t-71 24q-41 16 -68.5 31.5t-49.5 15.5q-33 0 -51.5 -23.5 t-28.5 -52.5zM817 520l-20 285q-4 76 -7.5 117t-3.5 84h-2q-12 -35 -34.5 -80l-55.5 -111l-149 -295h272zM287 0h-410l752 1393h458l164 -1393h-393l-20 231h-432z" />
<glyph unicode="&#xc4;" horiz-adv-x="1363" d="M1243 1575h-291l60 276h291zM848 1575h-291l59 276h291zM817 520l-20 285q-4 76 -7.5 117t-3.5 84h-2q-12 -35 -34.5 -80l-55.5 -111l-149 -295h272zM287 0h-410l752 1393h458l164 -1393h-393l-20 231h-432z" />
<glyph unicode="&#xc5;" horiz-adv-x="1363" d="M852 1731q0 -31 19.5 -49.5t48.5 -18.5t48 18.5t19 49.5t-19.5 49t-47.5 18q-29 0 -48.5 -18t-19.5 -49zM686 1731q0 49 18.5 92t50 74.5t74.5 49t93 17.5q49 0 92 -17.5t74.5 -49t50 -74.5t18.5 -92t-18.5 -92.5t-50 -75t-74.5 -49t-92 -17.5t-92.5 17.5t-75 49t-50 75 t-18.5 92.5zM817 520l-20 285q-4 76 -7.5 117t-3.5 84h-2q-12 -35 -34.5 -80l-55.5 -111l-149 -295h272zM287 0h-410l752 1393h458l164 -1393h-393l-20 231h-432z" />
<glyph unicode="&#xc6;" horiz-adv-x="1974" d="M932 748q6 33 20.5 90t28.5 114q16 68 35 140h-4q-45 -66 -84 -125q-35 -51 -71 -104.5t-58 -84.5l-178 -252h262zM1372 1081l-49 -221h547l-64 -309h-546l-52 -238h643l-65 -313h-1018l51 238h-399l-166 -238h-438l1058 1393h1168l-66 -312h-604z" />
<glyph unicode="&#xc7;" horiz-adv-x="1341" d="M1047 887q-18 104 -77 163.5t-157 59.5q-92 0 -157.5 -47t-108.5 -122t-63.5 -168t-20.5 -185q0 -147 58.5 -224t172.5 -77q86 0 151.5 44t110.5 115l306 -163q-94 -135 -233.5 -220.5t-348.5 -87.5l-55 -36q72 -2 121 -40t49 -116q0 -47 -20.5 -82t-52.5 -57.5 t-73 -32.5t-84 -10q-63 0 -121 22l15 103q35 -14 76 -15q31 0 55 12.5t24 47.5q0 31 -21.5 43t-49.5 12q-49 0 -80 -21l-39 95l121 86q-115 18 -201 68t-143.5 127t-86 177.5t-28.5 221.5q0 158 47 308t140.5 268t232.5 189.5t323 71.5q137 0 236.5 -39t166 -100t104.5 -136 t55 -147z" />
<glyph unicode="&#xc8;" horiz-adv-x="1277" d="M913 1862l140 -297h-320l-254 297h434zM625 1081l-50 -221h599l-64 -309h-598l-51 -238h694l-65 -313h-1082l297 1393h1041l-66 -312h-655z" />
<glyph unicode="&#xc9;" horiz-adv-x="1277" d="M1212 1862l-254 -297h-319l139 297h434zM625 1081l-50 -221h599l-64 -309h-598l-51 -238h694l-65 -313h-1082l297 1393h1041l-66 -312h-655z" />
<glyph unicode="&#xca;" horiz-adv-x="1277" d="M889 1655l-92 -90h-326l315 297h267l178 -297h-289zM625 1081l-50 -221h599l-64 -309h-598l-51 -238h694l-65 -313h-1082l297 1393h1041l-66 -312h-655z" />
<glyph unicode="&#xcb;" horiz-adv-x="1277" d="M1200 1575h-291l60 276h291zM805 1575h-291l59 276h291zM625 1081l-50 -221h599l-64 -309h-598l-51 -238h694l-65 -313h-1082l297 1393h1041l-66 -312h-655z" />
<glyph unicode="&#xcc;" horiz-adv-x="641" d="M532 1862l140 -297h-320l-254 297h434zM682 1393l-297 -1393h-375l295 1393h377z" />
<glyph unicode="&#xcd;" horiz-adv-x="641" d="M936 1862l-254 -297h-320l140 297h434zM682 1393l-297 -1393h-375l295 1393h377z" />
<glyph unicode="&#xce;" horiz-adv-x="641" d="M549 1655l-92 -90h-326l315 297h267l178 -297h-289zM682 1393l-297 -1393h-375l295 1393h377z" />
<glyph unicode="&#xcf;" horiz-adv-x="641" d="M866 1575h-291l60 276h291zM471 1575h-291l60 276h290zM682 1393l-297 -1393h-375l295 1393h377z" />
<glyph unicode="&#xd0;" horiz-adv-x="1488" d="M633 883h289l-70 -320h-287l-53 -258h82q78 0 156.5 10.5t136.5 53.5q45 33 79.5 89t59.5 122.5t37 136t12 131.5q0 90 -30.5 144.5t-102.5 76.5q-47 14 -105.5 16t-123.5 2h-35zM63 0l119 563h-157l65 320h160l108 510h383q182 0 307.5 -25t208.5 -84 q98 -70 148.5 -176.5t50.5 -253.5q0 -102 -22.5 -213t-68.5 -213t-113.5 -188t-159.5 -140q-106 -61 -220 -80.5t-266 -19.5h-543z" />
<glyph unicode="&#xd1;" horiz-adv-x="1529" d="M879 0l-189 494q-18 47 -40.5 110.5t-43.5 120.5q-23 68 -47 133h-2q-10 -61 -22 -131q-10 -59 -25.5 -137t-34.5 -164l-90 -426h-375l295 1393h395l195 -490q27 -68 51.5 -131t40.5 -110q20 -55 37 -105h2q10 66 23 135q10 59 25.5 136t31.5 157l88 408h377l-297 -1393 h-395zM547 1636q6 27 24.5 66t51 74.5t76.5 60.5t104 25q41 0 75.5 -10.5t69.5 -26.5q33 -14 61.5 -26.5t57.5 -12.5q35 0 56.5 24.5t33.5 55.5l223 -103q-16 -43 -38.5 -84t-55.5 -72.5t-75 -51t-99 -19.5q-45 0 -79 7t-70 24q-41 16 -69 31.5t-50 15.5q-33 0 -51.5 -23.5 t-28.5 -52.5z" />
<glyph unicode="&#xd2;" horiz-adv-x="1466" d="M926 1862l139 -297h-320l-253 297h434zM815 1110q-90 0 -156.5 -46t-109.5 -119t-64.5 -164t-21.5 -181q0 -162 58.5 -237.5t172.5 -75.5q90 0 158 47t113 121.5t67.5 168t22.5 187.5q0 139 -62.5 219t-177.5 80zM86 580q0 158 46 308t140.5 268t233.5 189.5t328 71.5 q139 0 249.5 -43t188.5 -121.5t119 -189.5t41 -244q0 -156 -45.5 -307.5t-139.5 -270t-237.5 -192.5t-339.5 -74q-147 0 -257 43t-182.5 121t-108.5 190t-36 251z" />
<glyph unicode="&#xd3;" horiz-adv-x="1466" d="M1264 1862l-254 -297h-320l139 297h435zM815 1110q-90 0 -156.5 -46t-109.5 -119t-64.5 -164t-21.5 -181q0 -162 58.5 -237.5t172.5 -75.5q90 0 158 47t113 121.5t67.5 168t22.5 187.5q0 139 -62.5 219t-177.5 80zM86 580q0 158 46 308t140.5 268t233.5 189.5t328 71.5 q139 0 249.5 -43t188.5 -121.5t119 -189.5t41 -244q0 -156 -45.5 -307.5t-139.5 -270t-237.5 -192.5t-339.5 -74q-147 0 -257 43t-182.5 121t-108.5 190t-36 251z" />
<glyph unicode="&#xd4;" horiz-adv-x="1466" d="M924 1655l-93 -90h-325l315 297h266l179 -297h-289zM815 1110q-90 0 -156.5 -46t-109.5 -119t-64.5 -164t-21.5 -181q0 -162 58.5 -237.5t172.5 -75.5q90 0 158 47t113 121.5t67.5 168t22.5 187.5q0 139 -62.5 219t-177.5 80zM86 580q0 158 46 308t140.5 268t233.5 189.5 t328 71.5q139 0 249.5 -43t188.5 -121.5t119 -189.5t41 -244q0 -156 -45.5 -307.5t-139.5 -270t-237.5 -192.5t-339.5 -74q-147 0 -257 43t-182.5 121t-108.5 190t-36 251z" />
<glyph unicode="&#xd5;" horiz-adv-x="1466" d="M506 1636q6 27 24.5 66t51 74.5t76.5 60.5t104 25q41 0 75.5 -10.5t69.5 -26.5q33 -14 61.5 -26.5t57.5 -12.5q35 0 56.5 24.5t33.5 55.5l223 -103q-16 -43 -38.5 -84t-55.5 -72.5t-75 -51t-99 -19.5q-45 0 -79 7t-70 24q-41 16 -69 31.5t-50 15.5q-33 0 -51.5 -23.5 t-28.5 -52.5zM815 1110q-90 0 -156.5 -46t-109.5 -119t-64.5 -164t-21.5 -181q0 -162 58.5 -237.5t172.5 -75.5q90 0 158 47t113 121.5t67.5 168t22.5 187.5q0 139 -62.5 219t-177.5 80zM86 580q0 158 46 308t140.5 268t233.5 189.5t328 71.5q139 0 249.5 -43t188.5 -121.5 t119 -189.5t41 -244q0 -156 -45.5 -307.5t-139.5 -270t-237.5 -192.5t-339.5 -74q-147 0 -257 43t-182.5 121t-108.5 190t-36 251z" />
<glyph unicode="&#xd6;" horiz-adv-x="1466" d="M1241 1575h-291l60 276h290zM846 1575h-291l59 276h291zM815 1110q-90 0 -156.5 -46t-109.5 -119t-64.5 -164t-21.5 -181q0 -162 58.5 -237.5t172.5 -75.5q90 0 158 47t113 121.5t67.5 168t22.5 187.5q0 139 -62.5 219t-177.5 80zM86 580q0 158 46 308t140.5 268 t233.5 189.5t328 71.5q139 0 249.5 -43t188.5 -121.5t119 -189.5t41 -244q0 -156 -45.5 -307.5t-139.5 -270t-237.5 -192.5t-339.5 -74q-147 0 -257 43t-182.5 121t-108.5 190t-36 251z" />
<glyph unicode="&#xd7;" horiz-adv-x="1495" d="M514 600l-377 377l242 240l375 -375l374 375l240 -240l-375 -375l377 -377l-242 -239l-374 374l-375 -374l-240 239z" />
<glyph unicode="&#xd8;" horiz-adv-x="1509" d="M846 1110q-78 0 -137.5 -34t-102.5 -89t-69.5 -128t-36.5 -150l487 356q-61 45 -141 45zM725 287q80 0 142.5 36.5t106.5 97t70.5 138.5t36.5 162l-516 -375q58 -59 160 -59zM117 580q0 158 46 308t140 268t233.5 189.5t327.5 71.5q129 0 231.5 -37t180.5 -104l160 117 l194 -271l-186 -137q18 -78 18 -166q0 -156 -45 -307.5t-139 -270t-237.5 -192.5t-340.5 -74q-143 0 -250.5 40t-179.5 116l-145 -106l-201 264l203 147q-4 35 -7 70t-3 74z" />
<glyph unicode="&#xd9;" horiz-adv-x="1417" d="M975 1862l139 -297h-319l-254 297h434zM635 -25q-252 0 -397.5 93.5t-145.5 298.5q0 76 12.5 138t26.5 128l160 760h387l-160 -766q-10 -47 -22.5 -102.5t-12.5 -96.5q0 -137 172 -137q63 0 104.5 14t69 46t45 83t33.5 125l176 834h385l-196 -926q-29 -139 -77 -227 t-108 -142q-92 -80 -207.5 -101.5t-244.5 -21.5z" />
<glyph unicode="&#xda;" horiz-adv-x="1417" d="M1278 1862l-254 -297h-319l139 297h434zM635 -25q-252 0 -397.5 93.5t-145.5 298.5q0 76 12.5 138t26.5 128l160 760h387l-160 -766q-10 -47 -22.5 -102.5t-12.5 -96.5q0 -137 172 -137q63 0 104.5 14t69 46t45 83t33.5 125l176 834h385l-196 -926q-29 -139 -77 -227 t-108 -142q-92 -80 -207.5 -101.5t-244.5 -21.5z" />
<glyph unicode="&#xdb;" horiz-adv-x="1417" d="M913 1655l-92 -90h-325l315 297h266l178 -297h-288zM635 -25q-252 0 -397.5 93.5t-145.5 298.5q0 76 12.5 138t26.5 128l160 760h387l-160 -766q-10 -47 -22.5 -102.5t-12.5 -96.5q0 -137 172 -137q63 0 104.5 14t69 46t45 83t33.5 125l176 834h385l-196 -926 q-29 -139 -77 -227t-108 -142q-92 -80 -207.5 -101.5t-244.5 -21.5z" />
<glyph unicode="&#xdc;" horiz-adv-x="1417" d="M1274 1575h-291l59 276h291zM879 1575h-291l59 276h291zM635 -25q-252 0 -397.5 93.5t-145.5 298.5q0 76 12.5 138t26.5 128l160 760h387l-160 -766q-10 -47 -22.5 -102.5t-12.5 -96.5q0 -137 172 -137q63 0 104.5 14t69 46t45 83t33.5 125l176 834h385l-196 -926 q-29 -139 -77 -227t-108 -142q-92 -80 -207.5 -101.5t-244.5 -21.5z" />
<glyph unicode="&#xdd;" horiz-adv-x="1316" d="M1516 1393l-687 -830l-118 -563h-377l121 563l-308 830h388l167 -475l359 475h455zM1214 1862l-253 -297h-320l139 297h434z" />
<glyph unicode="&#xde;" horiz-adv-x="1359" d="M590 934l-72 -336h203q51 0 86 6t61 17q47 20 76 68t29 114q0 39 -11.5 63.5t-27.5 38.5q-25 20 -65 24.5t-85 4.5h-194zM8 0l297 1393h381l-35 -156h107q59 0 105 -2t83 -5t69 -10.5t62 -15.5q131 -37 205 -126t74 -253q0 -72 -16.5 -141.5t-50.5 -130.5t-84 -111.5 t-115 -83.5q-31 -14 -65 -26.5t-80 -21.5t-106.5 -14t-142.5 -5h-239l-64 -291h-385z" />
<glyph unicode="&#xdf;" horiz-adv-x="1175" d="M492 240h38q47 0 76 13t46.5 37.5t27.5 59.5t20 76q2 12 8.5 34.5t10.5 47t8 50.5t4 46q0 47 -22.5 66.5t-75.5 19.5h-47l49 236h27q59 0 92.5 41t33.5 106q0 43 -25.5 66.5t-68.5 23.5q-59 0 -86.5 -46t-50.5 -152l-205 -965h-372l208 981q27 125 70 206t111 134 q119 92 346 92q119 0 204 -26.5t137 -69.5t76.5 -99.5t24.5 -113.5q0 -66 -18.5 -115t-45 -85t-56 -58.5t-54.5 -32.5q45 -23 81 -75t36 -144q0 -78 -18.5 -169t-55.5 -183q-29 -68 -66.5 -115t-93 -78t-130 -45t-175.5 -14h-48t-38 2q-20 0 -35 2z" />
<glyph unicode="&#xe0;" horiz-adv-x="1146" d="M645 418q-18 -4 -37 -8q-16 -4 -33.5 -6.5t-31.5 -6.5q-35 -6 -67 -12t-55.5 -18.5t-36.5 -32t-13 -49.5q0 -43 27.5 -66.5t74.5 -23.5q68 0 101.5 31.5t43.5 82.5zM104 659q12 160 141.5 250t381.5 90q229 0 330.5 -70.5t101.5 -197.5q0 -31 -5 -58.5t-10 -49.5 q-4 -14 -17 -74t-30 -127q-18 -80 -41 -174q-6 -29 -6 -39q0 -25 41 -25h11.5t15.5 2l-39 -194q-70 -14 -168 -15q-80 0 -130 17.5t-75 58.5q-37 -35 -101.5 -56.5t-154.5 -21.5q-68 0 -129 15.5t-109.5 49.5t-77 88t-28.5 132q0 160 108.5 234.5t301.5 101.5l237 33 q16 4 24.5 8t12.5 20q6 25 6 41q0 70 -108 70q-70 0 -106 -27.5t-46 -93.5zM709 1393l139 -297h-320l-254 297h435z" />
<glyph unicode="&#xe1;" horiz-adv-x="1146" d="M645 418q-18 -4 -37 -8q-16 -4 -33.5 -6.5t-31.5 -6.5q-35 -6 -67 -12t-55.5 -18.5t-36.5 -32t-13 -49.5q0 -43 27.5 -66.5t74.5 -23.5q68 0 101.5 31.5t43.5 82.5zM104 659q12 160 141.5 250t381.5 90q229 0 330.5 -70.5t101.5 -197.5q0 -31 -5 -58.5t-10 -49.5 q-4 -14 -17 -74t-30 -127q-18 -80 -41 -174q-6 -29 -6 -39q0 -25 41 -25h11.5t15.5 2l-39 -194q-70 -14 -168 -15q-80 0 -130 17.5t-75 58.5q-37 -35 -101.5 -56.5t-154.5 -21.5q-68 0 -129 15.5t-109.5 49.5t-77 88t-28.5 132q0 160 108.5 234.5t301.5 101.5l237 33 q16 4 24.5 8t12.5 20q6 25 6 41q0 70 -108 70q-70 0 -106 -27.5t-46 -93.5zM993 1393l-254 -297h-319l139 297h434z" />
<glyph unicode="&#xe2;" horiz-adv-x="1146" d="M645 418q-18 -4 -37 -8q-16 -4 -33.5 -6.5t-31.5 -6.5q-35 -6 -67 -12t-55.5 -18.5t-36.5 -32t-13 -49.5q0 -43 27.5 -66.5t74.5 -23.5q68 0 101.5 31.5t43.5 82.5zM104 659q12 160 141.5 250t381.5 90q229 0 330.5 -70.5t101.5 -197.5q0 -31 -5 -58.5t-10 -49.5 q-4 -14 -17 -74t-30 -127q-18 -80 -41 -174q-6 -29 -6 -39q0 -25 41 -25h11.5t15.5 2l-39 -194q-70 -14 -168 -15q-80 0 -130 17.5t-75 58.5q-37 -35 -101.5 -56.5t-154.5 -21.5q-68 0 -129 15.5t-109.5 49.5t-77 88t-28.5 132q0 160 108.5 234.5t301.5 101.5l237 33 q16 4 24.5 8t12.5 20q6 25 6 41q0 70 -108 70q-70 0 -106 -27.5t-46 -93.5zM692 1186l-92 -90h-326l316 297h266l178 -297h-289z" />
<glyph unicode="&#xe3;" horiz-adv-x="1146" d="M252 1180q6 27 24.5 65.5t51 74.5t77 60.5t103.5 24.5q41 0 75.5 -10.5t69.5 -26.5q33 -14 61.5 -26.5t57.5 -12.5q35 0 56.5 24.5t33.5 55.5l223 -102q-16 -43 -38.5 -84t-55.5 -73t-75 -51.5t-99 -19.5q-45 0 -78.5 7.5t-70.5 23.5q-41 16 -69 31.5t-50 15.5 q-33 0 -51.5 -23.5t-28.5 -52.5zM645 418q-18 -4 -37 -8q-16 -4 -33.5 -6.5t-31.5 -6.5q-35 -6 -67 -12t-55.5 -18.5t-36.5 -32t-13 -49.5q0 -43 27.5 -66.5t74.5 -23.5q68 0 101.5 31.5t43.5 82.5zM104 659q12 160 141.5 250t381.5 90q229 0 330.5 -70.5t101.5 -197.5 q0 -31 -5 -58.5t-10 -49.5q-4 -14 -17 -74t-30 -127q-18 -80 -41 -174q-6 -29 -6 -39q0 -25 41 -25h11.5t15.5 2l-39 -194q-70 -14 -168 -15q-80 0 -130 17.5t-75 58.5q-37 -35 -101.5 -56.5t-154.5 -21.5q-68 0 -129 15.5t-109.5 49.5t-77 88t-28.5 132q0 160 108.5 234.5 t301.5 101.5l237 33q16 4 24.5 8t12.5 20q6 25 6 41q0 70 -108 70q-70 0 -106 -27.5t-46 -93.5z" />
<glyph unicode="&#xe4;" horiz-adv-x="1146" d="M645 418q-18 -4 -37 -8q-16 -4 -33.5 -6.5t-31.5 -6.5q-35 -6 -67 -12t-55.5 -18.5t-36.5 -32t-13 -49.5q0 -43 27.5 -66.5t74.5 -23.5q68 0 101.5 31.5t43.5 82.5zM104 659q12 160 141.5 250t381.5 90q229 0 330.5 -70.5t101.5 -197.5q0 -31 -5 -58.5t-10 -49.5 q-4 -14 -17 -74t-30 -127q-18 -80 -41 -174q-6 -29 -6 -39q0 -25 41 -25h11.5t15.5 2l-39 -194q-70 -14 -168 -15q-80 0 -130 17.5t-75 58.5q-37 -35 -101.5 -56.5t-154.5 -21.5q-68 0 -129 15.5t-109.5 49.5t-77 88t-28.5 132q0 160 108.5 234.5t301.5 101.5l237 33 q16 4 24.5 8t12.5 20q6 25 6 41q0 70 -108 70q-70 0 -106 -27.5t-46 -93.5zM1006 1106h-291l59 276h291zM610 1106h-291l60 276h291z" />
<glyph unicode="&#xe5;" horiz-adv-x="1146" d="M600 1286q0 -31 19.5 -49t48.5 -18t48 18t19 49t-19.5 49.5t-47.5 18.5q-29 0 -48.5 -18.5t-19.5 -49.5zM434 1286q0 49 18.5 92t50.5 75t75 49.5t92 17.5t92 -17.5t74.5 -49.5t50 -75t18.5 -92t-18.5 -92t-50 -75t-74.5 -49t-92 -17t-92 17t-75 49t-50.5 75t-18.5 92z M645 418q-18 -4 -37 -8q-16 -4 -33.5 -6.5t-31.5 -6.5q-35 -6 -67 -12t-55.5 -18.5t-36.5 -32t-13 -49.5q0 -43 27.5 -66.5t74.5 -23.5q68 0 101.5 31.5t43.5 82.5zM104 659q12 160 141.5 250t381.5 90q229 0 330.5 -70.5t101.5 -197.5q0 -31 -5 -58.5t-10 -49.5 q-4 -14 -17 -74t-30 -127q-18 -80 -41 -174q-6 -29 -6 -39q0 -25 41 -25h11.5t15.5 2l-39 -194q-70 -14 -168 -15q-80 0 -130 17.5t-75 58.5q-37 -35 -101.5 -56.5t-154.5 -21.5q-68 0 -129 15.5t-109.5 49.5t-77 88t-28.5 132q0 160 108.5 234.5t301.5 101.5l237 33 q16 4 24.5 8t12.5 20q6 25 6 41q0 70 -108 70q-70 0 -106 -27.5t-46 -93.5z" />
<glyph unicode="&#xe6;" horiz-adv-x="1769" d="M1214 776q-41 0 -73.5 -15.5t-56 -40t-38 -53t-18.5 -55.5h322q8 66 -27 115t-109 49zM645 418q-18 -4 -37 -8q-16 -4 -33.5 -6.5t-31.5 -6.5q-35 -6 -67 -12t-55.5 -18.5t-36.5 -32t-13 -49.5q0 -43 27.5 -66.5t74.5 -23.5q68 0 101.5 31.5t43.5 82.5zM104 659 q12 160 141.5 250t381.5 90q113 0 191.5 -18t129.5 -53q59 33 133 52t160 19q117 0 204 -31.5t144.5 -90t86 -138.5t28.5 -176q0 -37 -4 -74.5t-12 -78.5h-689q-6 -88 49.5 -132.5t129.5 -44.5q76 0 129 34t82 79l270 -121q-25 -37 -70 -80t-110.5 -80.5t-150.5 -63.5 t-191 -26q-254 0 -385 127q-51 -47 -148.5 -87t-241.5 -40q-74 0 -139 15.5t-113.5 49.5t-76 88t-27.5 132q0 160 108.5 234.5t301.5 101.5l237 33q16 4 24.5 8t12.5 20q6 25 6 41q0 70 -108 70q-70 0 -106 -27.5t-46 -93.5z" />
<glyph unicode="&#xe7;" horiz-adv-x="1110" d="M752 588q-8 72 -40 119t-100 47q-53 0 -93 -31t-66.5 -80t-40 -110.5t-13.5 -120.5q0 -180 127 -181q72 0 116 43t77 113l303 -127q-66 -119 -182.5 -198.5t-302.5 -86.5l-56 -36q72 -2 121 -40t49 -116q0 -47 -20.5 -82t-52 -57.5t-72.5 -32.5t-84 -10q-63 0 -121 22 l14 103q35 -14 76 -15q31 0 55.5 12.5t24.5 47.5q0 31 -21.5 43t-50.5 12q-49 0 -80 -21l-38 95l118 84q-178 27 -274 135t-96 280q0 119 41 227.5t117.5 191.5t189 132t256.5 49q201 0 309.5 -90t134.5 -247z" />
<glyph unicode="&#xe8;" horiz-adv-x="1157" d="M688 1393l139 -297h-319l-254 297h434zM606 776q-41 0 -73.5 -15.5t-56 -40t-38 -53t-18.5 -55.5h321q8 66 -26.5 115t-108.5 49zM1040 217q-25 -37 -67.5 -80t-105 -78.5t-147.5 -59.5t-196 -24q-229 0 -362 111t-133 324q0 106 37.5 212.5t113.5 189.5t188.5 135 t264.5 52q117 0 204 -31.5t144 -90t86 -138.5t29 -176q0 -37 -4.5 -74.5t-12.5 -78.5h-688q-6 -88 47.5 -131t130.5 -43q76 0 129.5 34.5t87.5 87.5z" />
<glyph unicode="&#xe9;" horiz-adv-x="1157" d="M1018 1393l-254 -297h-320l140 297h434zM606 776q-41 0 -73.5 -15.5t-56 -40t-38 -53t-18.5 -55.5h321q8 66 -26.5 115t-108.5 49zM1040 217q-25 -37 -67.5 -80t-105 -78.5t-147.5 -59.5t-196 -24q-229 0 -362 111t-133 324q0 106 37.5 212.5t113.5 189.5t188.5 135 t264.5 52q117 0 204 -31.5t144 -90t86 -138.5t29 -176q0 -37 -4.5 -74.5t-12.5 -78.5h-688q-6 -88 47.5 -131t130.5 -43q76 0 129.5 34.5t87.5 87.5z" />
<glyph unicode="&#xea;" horiz-adv-x="1157" d="M670 1186l-92 -90h-326l315 297h267l178 -297h-289zM606 776q-41 0 -73.5 -15.5t-56 -40t-38 -53t-18.5 -55.5h321q8 66 -26.5 115t-108.5 49zM1040 217q-25 -37 -67.5 -80t-105 -78.5t-147.5 -59.5t-196 -24q-229 0 -362 111t-133 324q0 106 37.5 212.5t113.5 189.5 t188.5 135t264.5 52q117 0 204 -31.5t144 -90t86 -138.5t29 -176q0 -37 -4.5 -74.5t-12.5 -78.5h-688q-6 -88 47.5 -131t130.5 -43q76 0 129.5 34.5t87.5 87.5z" />
<glyph unicode="&#xeb;" horiz-adv-x="1157" d="M991 1106h-291l60 276h291zM596 1106h-291l60 276h290zM606 776q-41 0 -73.5 -15.5t-56 -40t-38 -53t-18.5 -55.5h321q8 66 -26.5 115t-108.5 49zM1040 217q-25 -37 -67.5 -80t-105 -78.5t-147.5 -59.5t-196 -24q-229 0 -362 111t-133 324q0 106 37.5 212.5t113.5 189.5 t188.5 135t264.5 52q117 0 204 -31.5t144 -90t86 -138.5t29 -176q0 -37 -4.5 -74.5t-12.5 -78.5h-688q-6 -88 47.5 -131t130.5 -43q76 0 129.5 34.5t87.5 87.5z" />
<glyph unicode="&#xec;" horiz-adv-x="583" d="M449 1393l139 -297h-320l-254 297h435zM356 0h-372l204 975h375z" />
<glyph unicode="&#xed;" horiz-adv-x="583" d="M801 1393l-254 -297h-320l140 297h434zM356 0h-372l204 975h375z" />
<glyph unicode="&#xee;" horiz-adv-x="583" d="M414 1186l-92 -90h-326l315 297h267l178 -297h-289zM356 0h-372l204 975h375z" />
<glyph unicode="&#xef;" horiz-adv-x="583" d="M748 1106h-291l59 276h291zM352 1106h-291l60 276h291zM356 0h-372l204 975h375z" />
<glyph unicode="&#xf0;" horiz-adv-x="1187" d="M735 575q0 76 -29.5 127.5t-95.5 51.5q-53 0 -93 -31t-66.5 -80t-40 -110.5t-13.5 -120.5q0 -180 127 -181q55 0 95 31t66 80t38 110.5t12 122.5zM872 1448q16 -23 36 -52.5t34 -52.5l209 64l57 -190l-172 -52q41 -104 69 -217.5t28 -236.5q0 -141 -36 -273.5t-113 -236 t-195.5 -165t-286.5 -61.5q-229 0 -351 115t-122 311q0 133 46 243t123.5 187.5t181 120.5t220.5 43q47 0 83 -3t67 -13q-6 20 -15.5 40.5t-21.5 49.5l-195 -57l-59 184l157 49q-8 12 -17 31.5t-15 28.5z" />
<glyph unicode="&#xf1;" horiz-adv-x="1204" d="M317 1180q6 27 24.5 65.5t51.5 74.5t77 60.5t103 24.5q41 0 76 -10.5t70 -26.5q33 -14 61.5 -26.5t57.5 -12.5q35 0 56 24.5t34 55.5l223 -102q-16 -43 -38.5 -84t-55.5 -73t-75 -51.5t-99 -19.5q-45 0 -79 7.5t-71 23.5q-41 16 -68.5 31.5t-50.5 15.5q-33 0 -51 -23.5 t-28 -52.5zM532 858q53 61 139.5 101t192.5 40q119 0 192.5 -56t73.5 -179q0 -39 -6 -94.5t-22 -126.5l-115 -543h-375l117 553q10 47 10 78q0 39 -20.5 62.5t-73.5 23.5q-66 0 -112 -46t-62 -124l-113 -547h-376l206 975h371z" />
<glyph unicode="&#xf2;" horiz-adv-x="1183" d="M725 1393l139 -297h-319l-254 297h434zM737 575q0 76 -29.5 127.5t-95.5 51.5q-53 0 -93 -31t-66.5 -80t-40 -110.5t-13.5 -120.5q0 -180 127 -181q55 0 95.5 31t66 80t37.5 110.5t12 122.5zM29 399q0 119 40 227.5t118.5 191.5t192.5 132t261 49q231 0 352 -116.5 t121 -317.5q0 -109 -36 -214t-110.5 -188t-188 -135.5t-267.5 -52.5q-229 0 -356 113.5t-127 310.5z" />
<glyph unicode="&#xf3;" horiz-adv-x="1183" d="M1032 1393l-254 -297h-319l139 297h434zM737 575q0 76 -29.5 127.5t-95.5 51.5q-53 0 -93 -31t-66.5 -80t-40 -110.5t-13.5 -120.5q0 -180 127 -181q55 0 95.5 31t66 80t37.5 110.5t12 122.5zM29 399q0 119 40 227.5t118.5 191.5t192.5 132t261 49q231 0 352 -116.5 t121 -317.5q0 -109 -36 -214t-110.5 -188t-188 -135.5t-267.5 -52.5q-229 0 -356 113.5t-127 310.5z" />
<glyph unicode="&#xf4;" horiz-adv-x="1183" d="M709 1186l-93 -90h-325l315 297h266l179 -297h-289zM737 575q0 76 -29.5 127.5t-95.5 51.5q-53 0 -93 -31t-66.5 -80t-40 -110.5t-13.5 -120.5q0 -180 127 -181q55 0 95.5 31t66 80t37.5 110.5t12 122.5zM29 399q0 119 40 227.5t118.5 191.5t192.5 132t261 49 q231 0 352 -116.5t121 -317.5q0 -109 -36 -214t-110.5 -188t-188 -135.5t-267.5 -52.5q-229 0 -356 113.5t-127 310.5z" />
<glyph unicode="&#xf5;" horiz-adv-x="1183" d="M270 1180q6 27 24.5 65.5t51.5 74.5t77 60.5t103 24.5q41 0 76 -10.5t70 -26.5q33 -14 61.5 -26.5t57.5 -12.5q35 0 56 24.5t34 55.5l223 -102q-16 -43 -39 -84t-55.5 -73t-74.5 -51.5t-99 -19.5q-45 0 -79 7.5t-71 23.5q-41 16 -68.5 31.5t-50.5 15.5q-33 0 -51 -23.5 t-29 -52.5zM737 575q0 76 -29.5 127.5t-95.5 51.5q-53 0 -93 -31t-66.5 -80t-40 -110.5t-13.5 -120.5q0 -180 127 -181q55 0 95.5 31t66 80t37.5 110.5t12 122.5zM29 399q0 119 40 227.5t118.5 191.5t192.5 132t261 49q231 0 352 -116.5t121 -317.5q0 -109 -36 -214 t-110.5 -188t-188 -135.5t-267.5 -52.5q-229 0 -356 113.5t-127 310.5z" />
<glyph unicode="&#xf6;" horiz-adv-x="1183" d="M1026 1106h-291l60 276h290zM631 1106h-291l59 276h291zM737 575q0 76 -29.5 127.5t-95.5 51.5q-53 0 -93 -31t-66.5 -80t-40 -110.5t-13.5 -120.5q0 -180 127 -181q55 0 95.5 31t66 80t37.5 110.5t12 122.5zM29 399q0 119 40 227.5t118.5 191.5t192.5 132t261 49 q231 0 352 -116.5t121 -317.5q0 -109 -36 -214t-110.5 -188t-188 -135.5t-267.5 -52.5q-229 0 -356 113.5t-127 310.5z" />
<glyph unicode="&#xf7;" horiz-adv-x="1542" d="M557 694v281h389v-281h-389zM557 0v281h389v-281h-389zM68 342v295h1368v-295h-1368z" />
<glyph unicode="&#xf8;" horiz-adv-x="1183" d="M526 231q49 0 85 25t61.5 64.5t41 91t19.5 106.5l-266 -274q24 -13 59 -13zM612 754q-49 0 -88 -27t-64.5 -70t-41 -97t-19.5 -109l281 282q-31 21 -68 21zM29 399q0 119 40 227.5t118.5 191.5t192.5 132t261 49q133 0 240 -45l129 133l153 -151l-116 -119 q68 -109 67 -252q0 -109 -36 -214t-110.5 -188t-188 -135.5t-267.5 -52.5q-139 0 -246 45l-141 -145l-158 150l129 131q-67 98 -67 243z" />
<glyph unicode="&#xf9;" horiz-adv-x="1200" d="M770 1393l139 -297h-319l-254 297h434zM629 117q-53 -61 -137 -101.5t-191 -40.5q-119 0 -192.5 56.5t-73.5 179.5q0 39 6 94t22 127l115 543h375l-117 -553q-10 -47 -10 -78q0 -39 20.5 -62.5t73.5 -23.5q61 0 107.5 46t62.5 124l113 547h377l-207 -975h-371z" />
<glyph unicode="&#xfa;" horiz-adv-x="1200" d="M1059 1393l-254 -297h-320l140 297h434zM629 117q-53 -61 -137 -101.5t-191 -40.5q-119 0 -192.5 56.5t-73.5 179.5q0 39 6 94t22 127l115 543h375l-117 -553q-10 -47 -10 -78q0 -39 20.5 -62.5t73.5 -23.5q61 0 107.5 46t62.5 124l113 547h377l-207 -975h-371z" />
<glyph unicode="&#xfb;" horiz-adv-x="1200" d="M727 1186l-92 -90h-326l316 297h266l178 -297h-289zM629 117q-53 -61 -137 -101.5t-191 -40.5q-119 0 -192.5 56.5t-73.5 179.5q0 39 6 94t22 127l115 543h375l-117 -553q-10 -47 -10 -78q0 -39 20.5 -62.5t73.5 -23.5q61 0 107.5 46t62.5 124l113 547h377l-207 -975 h-371z" />
<glyph unicode="&#xfc;" horiz-adv-x="1200" d="M1053 1106h-291l59 276h291zM657 1106h-290l59 276h291zM629 117q-53 -61 -137 -101.5t-191 -40.5q-119 0 -192.5 56.5t-73.5 179.5q0 39 6 94t22 127l115 543h375l-117 -553q-10 -47 -10 -78q0 -39 20.5 -62.5t73.5 -23.5q61 0 107.5 46t62.5 124l113 547h377l-207 -975 h-371z" />
<glyph unicode="&#xfd;" horiz-adv-x="1077" d="M1018 1393l-254 -297h-320l140 297h434zM92 975h387l4 -322q0 -41 1 -98t1 -111v-127h2q25 63 48 123q20 51 41.5 106.5t37.5 92.5l140 336h409l-585 -1071q-43 -78 -81 -131.5t-81 -87.5q-98 -74 -301 -74q-57 0 -97.5 4t-80.5 10l51 262q8 -2 18 -2q8 -2 19.5 -2h21.5 q84 0 115 20.5t31 88.5q0 16 -2.5 41.5t-6.5 52.5z" />
<glyph unicode="&#xfe;" d="M430 406q0 -76 28.5 -127.5t96.5 -51.5q55 0 95 31t66.5 81t39 112.5t12.5 123.5q0 174 -127 175q-55 0 -95 -31t-65.5 -80t-38 -110.5t-12.5 -122.5zM-94 -369l370 1762h373l-106 -504q45 53 109.5 81.5t140.5 28.5q74 0 137 -26.5t110 -78.5t74 -129t27 -177 q0 -131 -40 -243t-109.5 -193.5t-163 -129t-199.5 -47.5q-170 0 -256 99l-94 -443h-373z" />
<glyph unicode="&#xff;" horiz-adv-x="1077" d="M989 1106h-291l60 276h291zM594 1106h-291l59 276h291zM92 975h387l4 -322q0 -41 1 -98t1 -111v-127h2q25 63 48 123q20 51 41.5 106.5t37.5 92.5l140 336h409l-585 -1071q-43 -78 -81 -131.5t-81 -87.5q-98 -74 -301 -74q-57 0 -97.5 4t-80.5 10l51 262q8 -2 18 -2 q8 -2 19.5 -2h21.5q84 0 115 20.5t31 88.5q0 16 -2.5 41.5t-6.5 52.5z" />
<glyph unicode="&#x132;" horiz-adv-x="1458" d="M1505 1393l-223 -1049q-18 -86 -46 -145.5t-69 -106.5q-66 -70 -164 -94.5t-217 -24.5q-70 0 -136 7.5t-124 17.5l64 305q39 -6 71.5 -9t69.5 -3q55 0 87 9t54 32q23 23 37.5 70t30.5 118l184 873h381zM682 1393l-297 -1393h-375l295 1393h377z" />
<glyph unicode="&#x133;" horiz-adv-x="1214" d="M444 -104q10 -2 18.5 -2h16.5q70 0 101 32q12 14 21 36t20 69l200 944h375l-221 -1036q-16 -76 -33.5 -122t-40.5 -79q-53 -72 -135 -101.5t-199 -29.5q-84 0 -182 12zM1219 1081h-375l65 312h375zM586 1081h-375l65 312h375zM356 0h-372l204 975h375z" />
<glyph unicode="&#x152;" horiz-adv-x="1933" d="M954 1077q-23 18 -58.5 28.5t-74.5 10.5q-96 0 -164.5 -47t-111.5 -123t-63.5 -169t-20.5 -187q0 -154 62.5 -231.5t183.5 -77.5q18 0 39.5 3t44.5 11zM1337 1081l-49 -221h541l-64 -309h-540l-51 -238h636l-65 -313h-1018l6 20q-23 -10 -60.5 -16t-82.5 -6 q-98 0 -189.5 34t-161 105.5t-111.5 183t-42 265.5q0 178 56.5 329.5t153.5 263t229 174t284 62.5q66 0 117 -9t92 -26l4 13h979l-66 -312h-598z" />
<glyph unicode="&#x153;" horiz-adv-x="1839" d="M1288 776q-41 0 -73.5 -15.5t-56 -40t-38 -53t-18.5 -55.5h321q8 66 -26.5 115t-108.5 49zM737 575q0 76 -29.5 127.5t-95.5 51.5q-53 0 -93 -31t-66.5 -80t-40 -110.5t-13.5 -120.5q0 -180 127 -181q55 0 95.5 31t66 80t37.5 110.5t12 122.5zM1722 217 q-25 -37 -67.5 -80t-105 -78.5t-147.5 -59.5t-196 -24q-217 0 -344 97q-70 -45 -155.5 -71t-194.5 -26q-229 0 -356 114t-127 310q0 119 40 227.5t118.5 191.5t192.5 132t261 49q213 0 332 -100q68 47 152.5 73.5t189.5 26.5q117 0 204 -31.5t144 -90t86 -138.5t29 -176 q0 -37 -4.5 -74.5t-12.5 -78.5h-688q-6 -88 47.5 -131t130.5 -43q76 0 129.5 34.5t87.5 87.5z" />
<glyph unicode="&#x178;" horiz-adv-x="1316" d="M1165 1575h-291l60 276h291zM770 1575h-291l60 276h290zM1516 1393l-687 -830l-118 -563h-377l121 563l-308 830h388l167 -475l359 475h455z" />
<glyph unicode="&#x2c6;" horiz-adv-x="1021" d="M649 1186l-92 -90h-326l316 297h266l178 -297h-289z" />
<glyph unicode="&#x2dc;" horiz-adv-x="1024" d="M264 1180q6 27 24.5 65.5t51.5 74.5t77 60.5t103 24.5q41 0 76 -10.5t70 -26.5q33 -14 61.5 -26.5t56.5 -12.5q35 0 56.5 24.5t33.5 55.5l224 -102q-16 -43 -39 -84t-55.5 -73t-74.5 -51.5t-100 -19.5q-45 0 -78.5 7.5t-70.5 23.5q-41 16 -68.5 31.5t-50.5 15.5 q-33 0 -51 -23.5t-29 -52.5z" />
<glyph unicode="&#x2000;" horiz-adv-x="982" />
<glyph unicode="&#x2001;" horiz-adv-x="1964" />
<glyph unicode="&#x2002;" horiz-adv-x="982" />
<glyph unicode="&#x2003;" horiz-adv-x="1964" />
<glyph unicode="&#x2004;" horiz-adv-x="654" />
<glyph unicode="&#x2005;" horiz-adv-x="491" />
<glyph unicode="&#x2006;" horiz-adv-x="327" />
<glyph unicode="&#x2007;" horiz-adv-x="327" />
<glyph unicode="&#x2008;" horiz-adv-x="245" />
<glyph unicode="&#x2009;" horiz-adv-x="392" />
<glyph unicode="&#x200a;" horiz-adv-x="109" />
<glyph unicode="&#x2010;" horiz-adv-x="776" d="M698 700l-63 -305h-569l63 305h569z" />
<glyph unicode="&#x2011;" horiz-adv-x="776" d="M698 700l-63 -305h-569l63 305h569z" />
<glyph unicode="&#x2012;" horiz-adv-x="776" d="M698 700l-63 -305h-569l63 305h569z" />
<glyph unicode="&#x2013;" horiz-adv-x="1253" d="M1186 752l-64 -297h-1044l63 297h1045z" />
<glyph unicode="&#x2014;" horiz-adv-x="1642" d="M1575 752l-64 -297h-1433l63 297h1434z" />
<glyph unicode="&#x2018;" horiz-adv-x="598" d="M111 649l69 330q20 94 42 172t67 135t121.5 89t205.5 32h56l-41 -180q-63 0 -104.5 -19.5t-61.5 -91.5l-14 -74h143l-84 -393h-399z" />
<glyph unicode="&#x2019;" horiz-adv-x="591" d="M676 1393l-70 -330q-20 -94 -42.5 -173t-66.5 -135.5t-121 -88t-206 -31.5h-55l41 180q63 0 104 19.5t62 91.5l14 73h-143l83 394h400z" />
<glyph unicode="&#x201a;" horiz-adv-x="600" d="M461 393l-70 -330q-20 -94 -42.5 -172.5t-66.5 -135t-121 -88.5t-206 -32h-55l41 181q63 0 104 19.5t61 90.5l15 74h-144l84 393h400z" />
<glyph unicode="&#x201c;" horiz-adv-x="1112" d="M113 651l69 330q20 94 42 172t67 135.5t121.5 89t205.5 31.5h56l-41 -180q-63 0 -104.5 -19.5t-61.5 -91.5l-14 -74h143l-84 -393h-399zM625 651l69 330q20 94 42 172t67 135.5t121.5 89t205.5 31.5h56l-41 -180q-63 0 -104.5 -19.5t-61.5 -91.5l-14 -74h143l-84 -393 h-399z" />
<glyph unicode="&#x201d;" horiz-adv-x="1103" d="M1188 1393l-70 -330q-20 -94 -42.5 -173t-66.5 -135.5t-121 -88t-206 -31.5h-55l41 180q63 0 104 19.5t62 91.5l14 73h-143l83 394h400zM676 1393l-70 -330q-20 -94 -42.5 -173t-66.5 -135.5t-121 -88t-206 -31.5h-55l41 180q63 0 104 19.5t62 91.5l14 73h-143l83 394 h400z" />
<glyph unicode="&#x201e;" horiz-adv-x="1112" d="M973 393l-70 -330q-20 -94 -42.5 -172.5t-66.5 -135t-121 -88.5t-206 -32h-55l41 181q63 0 104 19.5t61 90.5l15 74h-144l84 393h400zM461 393l-70 -330q-20 -94 -42.5 -172.5t-66.5 -135t-121 -88.5t-206 -32h-55l41 181q63 0 104 19.5t61 90.5l15 74h-144l84 393h400z " />
<glyph unicode="&#x2022;" horiz-adv-x="980" d="M143 651q0 76 29 142.5t78 115.5t114.5 78t141.5 29t142.5 -29t115.5 -78t76.5 -115.5t27.5 -142.5t-27.5 -141.5t-76.5 -114.5t-115.5 -77.5t-142.5 -28.5t-141.5 28.5t-114.5 77.5t-78 114.5t-29 141.5z" />
<glyph unicode="&#x2026;" horiz-adv-x="1974" d="M1360 0l88 406h391l-88 -406h-391zM668 0l88 406h391l-88 -406h-391zM-25 0l88 406h392l-88 -406h-392z" />
<glyph unicode="&#x202f;" horiz-adv-x="392" />
<glyph unicode="&#x2030;" horiz-adv-x="3002" d="M2441 332q0 -70 16.5 -109t51.5 -39q33 0 59.5 31t46 78t29.5 106.5t10 116.5q0 53 -15.5 93t-55.5 40q-35 0 -62 -31.5t-44 -78.5t-26.5 -102.5t-9.5 -104.5zM2601 858q47 0 102.5 -14.5t102.5 -51t77.5 -102t30.5 -168.5q0 -98 -26.5 -195.5t-78.5 -175t-130 -127 t-178 -49.5q-160 0 -240 94.5t-80 252.5q0 100 26.5 196t79 172t131.5 122t183 46zM399 889q0 -70 16.5 -109t51.5 -39q33 0 59.5 31t46 78t29.5 106.5t10 116.5q0 53 -15 93t-56 40q-35 0 -61.5 -31.5t-44 -78.5t-27 -102.5t-9.5 -104.5zM559 1415q47 0 102.5 -14.5 t102.5 -51t77.5 -102t30.5 -168.5q0 -98 -26.5 -195.5t-78.5 -175t-130 -127t-178 -49.5q-160 0 -240 94.5t-80 252.5q0 100 27 196t79 172t131 122t183 46zM1706 1393l-936 -1393h-307l938 1393h305zM1567 332q0 -70 16 -109t51 -39q33 0 59.5 31t46 78t30 106.5 t10.5 116.5q0 53 -15.5 93t-56.5 40q-35 0 -61.5 -31.5t-44 -78.5t-26.5 -102.5t-9 -104.5zM1726 858q47 0 102.5 -14.5t102.5 -51t78 -102t31 -168.5q0 -98 -26.5 -195.5t-79 -175t-130.5 -127t-178 -49.5q-160 0 -239.5 94.5t-79.5 252.5q0 100 26.5 196t78.5 172t131 122 t183 46z" />
<glyph unicode="&#x2039;" horiz-adv-x="620" d="M37 446l57 263l518 311l-80 -377l-190 -86l143 -125l-71 -352z" />
<glyph unicode="&#x203a;" horiz-adv-x="618" d="M569 653l-57 -262l-518 -311l80 377l190 86l-143 125l72 352z" />
<glyph unicode="&#x205f;" horiz-adv-x="491" />
<glyph unicode="&#x20ac;" horiz-adv-x="1333" d="M602 729l-12 -82h231l-88 -215h-137q14 -66 44 -94.5t71 -28.5q59 0 103 40t79 106l326 -111q-37 -80 -87.5 -147.5t-114 -116.5t-143 -77t-176.5 -28q-223 0 -335.5 123t-133.5 334h-157l86 215h71q2 18 3 39t6 43h-148l82 213h117q33 100 85 186t124.5 150.5t165 101.5 t204.5 37q76 0 151 -19.5t136.5 -67.5t105.5 -129t60 -206l-348 -82q-6 78 -37 125t-88 47t-101.5 -40.5t-76.5 -102.5h274l-88 -213h-254z" />
<glyph unicode="&#x2122;" horiz-adv-x="2166" d="M1776 461v438q-4 -20 -11 -43q-4 -18 -9 -43t-11 -47l-80 -305h-219l-82 299q-6 20 -12 42.5t-11 45.5q-6 23 -10 49v-436h-270v932h336l96 -318q16 -57 28.5 -100t20.5 -74q8 -37 14 -63l13 61q6 31 17 76t28 104l86 314h344v-932h-268zM264 1393h727v-258h-213v-674 h-301v674h-213v258z" />
<glyph unicode="&#x2190;" horiz-adv-x="1601" d="M1509 338h-901l359 -338h-451l-485 487l485 486h451l-357 -334h899v-301z" />
<glyph unicode="&#x2192;" horiz-adv-x="1601" d="M92 639h899l-356 334h450l486 -486l-486 -487h-450l358 338h-901v301z" />
<glyph unicode="&#x25fc;" horiz-adv-x="972" d="M0 973h973v-973h-973v973z" />
<glyph horiz-adv-x="1857" d="M1776 535h-1147l547 -535h-449l-696 696l696 697h449l-547 -535h1147v-323z" />
<glyph horiz-adv-x="1857" d="M1130 1393l697 -697l-697 -696h-448l547 535h-1147v323h1147l-547 535h448z" />
<glyph horiz-adv-x="1902" d="M1776 535h-1147l547 -535h-449l-696 696l696 697h449l-547 -535h770v535h377v-858z" />
<glyph horiz-adv-x="1247" d="M463 561q0 -133 30.5 -188.5t86.5 -55.5q59 0 106 48.5t79 124t49 170t17 186.5q0 102 -26.5 166.5t-91.5 64.5q-63 0 -110.5 -54t-78 -133t-46 -168t-15.5 -161zM733 1417q86 0 171 -24.5t152.5 -86t109.5 -167t42 -267.5q0 -152 -35.5 -311.5t-112.5 -289.5t-199 -213 t-296 -83q-125 0 -215 40t-147.5 114t-85 178.5t-27.5 231.5q0 158 39 314.5t118 282.5t199.5 203.5t286.5 77.5z" />
<glyph horiz-adv-x="886" d="M258 0l174 815h-348l63 299h103q135 0 207 47q47 29 79.5 88.5t55.5 143.5h336l-297 -1393h-373z" />
<glyph horiz-adv-x="1202" d="M172 831q-12 57 -12 119q0 96 35.5 180t103.5 146.5t163 98.5t212 36q119 0 210 -31.5t153.5 -88t94 -133.5t31.5 -167q0 -121 -44 -219t-119.5 -181t-175 -151.5t-210.5 -128.5v-2q43 0 84 2q35 0 77 1t79 1h217l-67 -313h-1027l48 264q53 33 116.5 74t129 84t130 88 t121.5 86q47 35 95.5 77t86 88t61 96t23.5 106q0 59 -33.5 97t-99.5 38q-47 0 -77.5 -19.5t-49 -50.5t-26.5 -70.5t-8 -80.5q0 -49 12 -107z" />
<glyph horiz-adv-x="1204" d="M152 1020q8 76 46 147.5t105.5 127t161.5 89t217 33.5q117 0 206 -28.5t149.5 -77.5t90 -116t29.5 -142q0 -137 -65.5 -216t-159.5 -116q70 -35 120 -106.5t50 -182.5q0 -80 -30 -162t-94.5 -147.5t-167.5 -106.5t-251 -41q-137 0 -235.5 37t-162 101.5t-93 153.5 t-29.5 194l342 51v-25q0 -106 48 -153t128 -47q72 0 120 39t48 125q0 45 -18.5 71.5t-51 42t-74.5 20.5t-92 5h-73l53 272h92q121 0 168 41t47 107q0 45 -31.5 74.5t-95.5 29.5q-61 0 -106 -31.5t-58 -121.5z" />
<glyph horiz-adv-x="1234" d="M649 582l41 188q8 39 16.5 70.5t12.5 54.5q6 27 10 47h-4q-18 -25 -39 -47q-16 -20 -36.5 -43t-39.5 -45l-82 -94q-18 -23 -40.5 -45.5t-41.5 -42.5q-23 -23 -43 -45v-2q20 0 43 2q18 0 42 1t47 1h114zM1184 582l-64 -287h-190l-62 -295h-340l62 295h-617l66 276l754 822 h370l-172 -811h193z" />
<glyph horiz-adv-x="1187" d="M94 651l223 742h869l-88 -306h-523l-47 -155q23 12 68 24.5t109 12.5q80 0 152.5 -28t127.5 -81t87 -134t32 -185q0 -121 -34 -224.5t-103.5 -179.5t-176 -119t-249.5 -43q-127 0 -218.5 36t-152.5 92.5t-96 127t-47 140.5l368 82q10 -76 51 -116t105 -40q80 0 125 58.5 t45 158.5q0 84 -40 130t-110 46q-66 0 -108.5 -41t-54.5 -104z" />
<glyph horiz-adv-x="1228" d="M625 670q-84 0 -146 -62q-8 -25 -13 -54.5t-5 -59.5q0 -37 7 -71t23.5 -61.5t45 -44t69.5 -16.5q78 0 124 55.5t46 141.5q0 84 -44 128t-107 44zM862 987q-4 43 -40 85t-105 42q-86 0 -135.5 -62.5t-65.5 -154.5l2 -2q33 20 83 36.5t122 16.5q82 0 156.5 -26.5t132 -78.5 t92.5 -132t35 -185q0 -111 -36 -211t-104.5 -174.5t-169 -120t-231.5 -45.5q-236 0 -370 145.5t-134 414.5q0 176 40 335.5t121 281.5t203 193.5t285 71.5q123 0 209 -38t141.5 -98t82 -134t30.5 -146z" />
<glyph horiz-adv-x="1167" d="M1245 1081q-76 -72 -135 -141.5t-117 -140.5q-135 -178 -242.5 -382t-172.5 -417h-412q88 264 203.5 467t259.5 387q43 55 90 110.5t96 110.5h-305l-41 -190h-358l108 508h1096z" />
<glyph horiz-adv-x="1257" d="M541 999q0 -53 33.5 -87.5t107.5 -34.5q86 0 127 38.5t41 100.5q0 57 -40 89t-112 32q-80 0 -118.5 -43.5t-38.5 -94.5zM403 430q0 -66 46.5 -108.5t132.5 -42.5q94 0 147 46t53 124q0 66 -48 106.5t-132 40.5q-96 0 -147.5 -47t-51.5 -119zM45 391q0 70 21.5 128.5 t58.5 104.5t86 79.5t104 54.5q-23 20 -45 43.5t-39.5 55.5t-27.5 71t-10 90q0 86 34.5 158.5t102 127t166 84t223.5 29.5q117 0 207 -26.5t152.5 -73.5t94 -111.5t31.5 -140.5q0 -66 -18.5 -120t-48 -96t-69.5 -73t-83 -49q27 -18 55.5 -45t53 -64.5t41 -86t16.5 -109.5 q0 -96 -35 -178t-106.5 -141.5t-179 -93.5t-250.5 -34q-264 0 -399.5 111.5t-135.5 304.5z" />
<glyph horiz-adv-x="1230" d="M655 727q84 0 146 61q8 25 13 54.5t5 60.5q0 37 -7 71t-24.5 61.5t-45 44t-68.5 16.5q-78 0 -124 -55.5t-46 -141.5q0 -84 44 -128t107 -44zM418 406q4 -43 40 -85t105 -42q86 0 135.5 62t65.5 155l-2 2q-33 -20 -83 -37t-122 -17q-82 0 -156.5 27t-132 79t-92.5 132 t-35 184q0 111 36 211.5t104.5 175t169 119.5t231.5 45q117 0 210 -38t158.5 -110.5t100.5 -177t35 -237.5q0 -178 -40 -338t-121 -279.5t-203 -190.5t-285 -71q-123 0 -209 38t-141.5 97.5t-82 134t-30.5 146.5z" />
<glyph horiz-adv-x="1662" d="M969 633q-16 -8 -40 -12.5t-77 -14.5q-66 -12 -100.5 -31.5t-34.5 -66.5q0 -37 23.5 -58.5t68.5 -21.5t80 20.5t49 69.5zM983 805q23 4 31 25.5t8 43.5q0 25 -24.5 42.5t-84.5 17.5q-59 0 -88.5 -25.5t-38.5 -81.5l-251 11q12 150 123.5 222.5t283.5 72.5 q154 0 246 -53.5t92 -176.5q0 -37 -6 -71.5t-14 -63.5l-64 -262q-4 -10 -7 -25.5t-3 -21.5q0 -18 16 -19q35 0 70 35t63.5 93.5t47 133t18.5 156.5q0 74 -21.5 144.5t-74 126t-137.5 89t-210 33.5q-145 0 -258.5 -54t-193.5 -146.5t-122 -212t-42 -250.5t43 -224.5 t115.5 -152.5t167 -87t196.5 -28q135 0 270.5 43t239.5 121l49 -213q-129 -86 -284.5 -130t-313.5 -44q-143 0 -276 40t-234.5 125t-163 217t-61.5 316q0 225 77 395.5t202 284t282.5 171t319.5 57.5q180 0 308 -51.5t209 -135.5t117.5 -192.5t36.5 -222.5 q0 -119 -35.5 -234t-100 -206t-154.5 -146t-201 -55q-80 0 -116 22.5t-56 52.5h-4q-31 -35 -87.5 -57.5t-133.5 -22.5q-145 0 -226 78q-33 31 -52 77t-19 106q0 70 25.5 118.5t70.5 81.5t106.5 53.5t131.5 30.5z" />
<glyph horiz-adv-x="720" d="M199 1536h364v-1716h-364v1716z" />
<glyph horiz-adv-x="1409" d="M893 61h-338v435h-446v335h446v445h338v-445h444v-335h-444v-435z" />
<glyph horiz-adv-x="1548" d="M150 25v335h1228v-335h-1228zM934 416h-338v221h-446v336h446v276h338v-276h444v-336h-444v-221z" />
<glyph horiz-adv-x="1497" d="M528 664l-376 376l241 240l375 -375l375 375l239 -240l-374 -374l376 -377l-241 -240l-375 375l-375 -375l-239 240z" />
<glyph horiz-adv-x="1554" d="M600 866v281h389v-281h-389zM600 172v281h389v-281h-389zM111 514v295h1368v-295h-1368z" />
<glyph horiz-adv-x="1728" d="M154 725v307h1429v-307h-1429zM154 281v307h1429v-307h-1429z" />
<glyph horiz-adv-x="1415" d="M1280 334h-334v373h-803v309h1137v-682z" />
<glyph horiz-adv-x="708" d="M899 1536q-102 -135 -185 -266t-142.5 -268.5t-92.5 -288t-33 -322.5q0 -129 18.5 -269t59.5 -302h-358q-104 332 -105 608q0 158 31 303.5t91.5 282.5t146.5 266t196 256h373z" />
<glyph horiz-adv-x="708" d="M-150 -180q102 135 185.5 266t143 268.5t92 288t32.5 322.5q0 129 -18.5 269t-59.5 302h359q104 -332 104 -608q0 -158 -30.5 -303.5t-91 -282.5t-146.5 -266t-197 -256h-373z" />
<glyph horiz-adv-x="774" d="M721 815l-64 -305h-569l64 305h569z" />
<glyph horiz-adv-x="729" d="M508 -180h-551l365 1716h552l-57 -262h-188l-252 -1190h188z" />
<glyph horiz-adv-x="729" d="M264 1536h551l-364 -1716h-553l57 262h188l252 1190h-188z" />
<glyph horiz-adv-x="786" d="M610 930q-10 -53 -23.5 -86t-30.5 -54.5t-39.5 -36t-49.5 -26.5l-2 -4q35 -29 48 -69t13 -83q0 -41 -8 -84t-16 -79l-35 -152q-6 -29 -10 -52.5t-4 -39.5q0 -53 36.5 -65.5t114.5 -12.5h19l-58 -268q-29 -2 -62.5 -2h-62.5q-80 0 -148.5 9t-117.5 34.5t-77.5 73 t-28.5 124.5q0 45 12 103.5t24 111.5l41 172q4 23 7.5 39.5t3.5 32.5q0 41 -21.5 67.5t-75.5 32.5l50 238q80 0 110.5 39t46.5 117l43 207q20 94 49 156.5t77 100t123 53t187 15.5q66 0 102 -1t81 -5l-56 -262h-75q-78 0 -105.5 -37t-42.5 -117z" />
<glyph horiz-adv-x="788" d="M225 459q10 51 23.5 85t31 55.5t39 35.5t50.5 27l2 4q-35 29 -48.5 68.5t-13.5 82.5q0 41 8.5 84t16.5 80l26 121q6 29 10.5 52.5t4.5 39.5q0 53 -37 65.5t-115 12.5h-16l57 268q29 2 61.5 2h61.5q80 0 148.5 -9t117.5 -34.5t78 -74t29 -124.5q0 -45 -13.5 -104 t-23.5 -111l-33 -141q-4 -23 -7 -39t-3 -33q0 -41 21.5 -67.5t74.5 -32.5l-49 -237q-80 0 -110.5 -39t-47.5 -117l-51 -238q-20 -94 -49 -156.5t-77 -100.5t-122.5 -53t-187.5 -15q-66 0 -102.5 1t-81.5 5l57 262h76q78 0 104.5 37t42.5 117z" />
<glyph horiz-adv-x="1214" d="M637 549l57 262l518 311l-79 -377l-191 -86l143 -124l-71 -353zM76 549l57 262l518 311l-80 -377l-190 -86l143 -124l-71 -353z" />
<glyph horiz-adv-x="774" d="M719 815l-64 -305h-569l64 305h569z" />
<glyph horiz-adv-x="1212" d="M608 756l-57 -262l-518 -312l80 377l190 86l-143 125l71 352zM1169 756l-57 -262l-518 -312l80 377l190 86l-143 125l72 352z" />
<glyph horiz-adv-x="1247" d="M1194 813l-64 -297h-1044l64 297h1044z" />
<glyph horiz-adv-x="1636" d="M1583 813l-63 -297h-1434l64 297h1433z" />
<glyph horiz-adv-x="653" d="M76 549l57 262l518 311l-80 -377l-190 -86l143 -124l-71 -353z" />
<glyph horiz-adv-x="651" d="M608 756l-57 -262l-518 -312l80 377l190 86l-143 125l71 352z" />
<glyph horiz-adv-x="745" d="M180 334h365v-658h-365v658zM180 1393h365v-658h-365v658z" />
<glyph horiz-adv-x="583" d="M586 1081h-375l65 312h375zM356 0h-372l204 975h375z" />
<glyph d="M442 561q0 -133 31 -188.5t86 -55.5q59 0 106.5 48.5t79 124t49 170t17.5 186.5q0 102 -26.5 166.5t-92.5 64.5q-63 0 -110 -54t-78 -133t-46.5 -168t-15.5 -161zM713 1417q86 0 171 -24.5t152.5 -86t109.5 -167t42 -267.5q0 -152 -36 -311.5t-112.5 -289.5t-198.5 -213 t-296 -83q-125 0 -215 40t-147.5 114t-85 178.5t-27.5 231.5q0 158 38.5 314.5t117.5 282.5t200 203.5t287 77.5z" />
<glyph d="M760 1049q-29 29 -68 28q-55 0 -97 -41t-72.5 -104.5t-50 -140t-26.5 -146.5zM492 344q27 -27 67 -27q51 0 94 38t75 99.5t51.5 139.5t27.5 160zM713 1417q86 0 171 -24.5t152.5 -86t109.5 -167t42 -267.5q0 -152 -36 -311.5t-112.5 -289.5t-198.5 -213t-296 -83 q-125 0 -215 40t-147.5 114t-85 177.5t-27.5 230.5q0 158 38.5 314.5t117.5 282.5t200 204.5t287 78.5z" />
<glyph d="M418 0l174 815h-348l63 299h103q135 0 206 47q47 29 80 88.5t56 143.5h335l-296 -1393h-373z" />
<glyph d="M174 831q-12 57 -12 119q0 96 35.5 180t103.5 146.5t163 98.5t212 36q119 0 210 -31.5t153.5 -88t94 -133.5t31.5 -167q0 -121 -44 -219t-119.5 -181t-175 -151.5t-210.5 -128.5v-2q43 0 84 2q35 0 77 1t79 1h217l-67 -313h-1026l47 264q53 33 116.5 74t129 84t130 88 t121.5 86q47 35 95.5 77t86 88t61.5 96t24 106q0 59 -34 97t-100 38q-47 0 -77.5 -19.5t-49 -50.5t-26.5 -70.5t-8 -80.5q0 -49 12 -107z" />
<glyph d="M154 1020q8 76 46 147.5t105.5 127t161.5 89t217 33.5q117 0 206 -28.5t149.5 -77.5t90 -116t29.5 -142q0 -137 -65.5 -216t-159.5 -116q70 -35 120 -106.5t50 -182.5q0 -80 -30 -162t-94.5 -147.5t-167.5 -106.5t-251 -41q-137 0 -235.5 37t-162 101.5t-93 153.5 t-29.5 194l342 51v-25q0 -106 48 -153t128 -47q72 0 120 40t48 126q0 45 -18.5 71.5t-51 41t-74.5 19.5t-91 5h-74l53 272h92q121 0 168 41t47 107q0 45 -31.5 74.5t-95.5 29.5q-61 0 -106 -31.5t-58 -121.5z" />
<glyph d="M635 582l41 188q8 39 16 70.5t13 54.5q6 27 10 47h-4q-18 -25 -39 -47q-16 -20 -37 -43t-39 -45l-82 -94q-18 -23 -40.5 -45.5t-41.5 -42.5q-23 -23 -43 -45v-2q20 0 43 2q18 0 42 1t46 1h115zM1169 582l-63 -287h-191l-61 -295h-340l61 295h-616l66 276l753 822h371 l-172 -811h192z" />
<glyph d="M104 651l224 742h868l-88 -306h-522l-47 -155q23 12 67.5 24.5t108.5 12.5q80 0 152.5 -28t128 -81t87 -134t31.5 -185q0 -121 -33.5 -224.5t-103.5 -179.5t-176.5 -119t-249.5 -43q-127 0 -218 36t-152.5 92.5t-96.5 127t-47 140.5l369 82q10 -76 51 -116t104 -40 q80 0 125 58.5t45 158.5q0 84 -40 130t-109 46q-66 0 -109 -41t-55 -104z" />
<glyph d="M614 670q-84 0 -145 -62q-8 -25 -13 -54.5t-5 -59.5q0 -37 7 -71t23.5 -61.5t45 -44t69.5 -16.5q78 0 124 55.5t46 141.5q0 84 -44.5 128t-107.5 44zM852 987q-4 43 -40 85t-105 42q-86 0 -135.5 -62.5t-65.5 -154.5l2 -2q33 20 83 36.5t122 16.5q82 0 156.5 -26.5 t132 -78.5t92 -132t34.5 -185q0 -111 -35.5 -211t-104 -174.5t-169 -120t-231.5 -45.5q-236 0 -370 145.5t-134 414.5q0 176 40 335.5t121 281.5t202.5 193.5t285.5 71.5q123 0 209 -38t141.5 -98t82 -134t30.5 -146z" />
<glyph d="M1266 1081q-76 -72 -135.5 -141.5t-116.5 -140.5q-135 -178 -242.5 -382t-173.5 -417h-412q88 264 204 467t259 387q43 55 90 110.5t97 110.5h-306l-41 -190h-358l109 508h1095z" />
<glyph d="M516 999q0 -53 34 -87.5t107 -34.5q86 0 127 38.5t41 100.5q0 57 -40 89t-111 32q-80 0 -119 -43.5t-39 -94.5zM379 430q0 -66 46 -108.5t132 -42.5q94 0 147.5 46t53.5 124q0 66 -48 106.5t-132 40.5q-96 0 -147.5 -47t-51.5 -119zM20 391q0 70 21.5 128.5t58.5 104.5 t86.5 79.5t104.5 54.5q-23 20 -45.5 43.5t-40 55.5t-27.5 71t-10 90q0 86 35 158.5t102.5 127t165.5 84t223 29.5q117 0 207 -26.5t152.5 -73.5t94.5 -111.5t32 -140.5q0 -66 -18.5 -120t-48.5 -96t-69.5 -73t-82.5 -49q27 -18 55 -45t53 -64.5t41 -86t16 -109.5 q0 -96 -34.5 -178t-106.5 -141.5t-179.5 -93.5t-250.5 -34q-264 0 -399.5 111.5t-135.5 304.5z" />
<glyph d="M643 727q84 0 145 61q8 25 13.5 54.5t5.5 60.5q0 37 -7 71t-24.5 61.5t-45.5 44t-68 16.5q-78 0 -124 -55.5t-46 -141.5q0 -84 44 -128t107 -44zM406 406q4 -43 39.5 -85t105.5 -42q86 0 135 62t66 155l-2 2q-33 -20 -83.5 -37t-121.5 -17q-82 0 -157 27t-132 79t-92 132 t-35 184q0 111 36 211.5t104.5 175t169 119.5t231.5 45q117 0 210 -38t158.5 -110.5t100.5 -177t35 -237.5q0 -178 -40 -338t-121 -279.5t-203 -190.5t-286 -71q-123 0 -209 38t-141 97.5t-81.5 134t-31.5 146.5z" />
</font>
</defs>
</svg>
