<?xml version="1.0" standalone="no"?>
<!DOCTYPE svg PUBLIC "-//W3C//DTD SVG 1.1//EN" "http://www.w3.org/Graphics/SVG/1.1/DTD/svg11.dtd" >
<svg xmlns="http://www.w3.org/2000/svg" xmlns:xlink="http://www.w3.org/1999/xlink" version="1.1">
<metadata></metadata>
<defs>
<font id="theinhardtmedium_italic" horiz-adv-x="1208" >
<font-face units-per-em="2048" ascent="1642" descent="-406" />
<missing-glyph horiz-adv-x="409" />
<glyph unicode="&#xfb01;" horiz-adv-x="1187" d="M1180 1155h-234l51 238h234zM936 0h-231l204 973h234zM723 793h-234l-170 -793h-231l168 793h-172l39 182h172l29 127q18 90 41.5 141t60.5 86q43 41 104.5 59.5t147.5 18.5q59 0 104 -6t68 -10l-41 -193q-16 2 -45 5t-53 3q-39 0 -66 -7t-47 -28q-33 -33 -51 -112 l-19 -84h234z" />
<glyph unicode="&#xfb02;" horiz-adv-x="1202" d="M942 0h-231l290 1391h234zM723 793h-234l-170 -793h-231l168 793h-172l39 182h172l29 127q18 90 41.5 141t60.5 86q43 41 104.5 59.5t147.5 18.5q59 0 104 -6t68 -10l-41 -193q-16 2 -45 5t-53 3q-39 0 -66 -7t-47 -28q-33 -33 -51 -112l-19 -84h234z" />
<glyph horiz-adv-x="0" />
<glyph horiz-adv-x="682" />
<glyph horiz-adv-x="0" />
<glyph horiz-adv-x="0" />
<glyph unicode="&#xd;" horiz-adv-x="1683" d="M848 973l-402 -383h871v383h233v-588h-1104l402 -385h-291l-485 487l485 486h291z" />
<glyph unicode=" "  horiz-adv-x="409" />
<glyph unicode="&#x09;" horiz-adv-x="409" />
<glyph unicode="&#xa0;" horiz-adv-x="409" />
<glyph unicode="!" horiz-adv-x="520" d="M315 260l-55 -260h-248l54 260h249zM549 1393l-129 -615l-117 -422h-178l63 422l129 615h232z" />
<glyph unicode="&#x22;" horiz-adv-x="811" d="M707 793h-154l55 436l35 164h238l-35 -164zM340 793h-154l56 436l34 164h238l-35 -164z" />
<glyph unicode="#" horiz-adv-x="1374" d="M582 569h190l43 193h-188zM1335 762h-313l-45 -193h299l-14 -204h-330l-84 -365h-207l84 365h-188l-84 -365h-207l84 365h-264l14 204h297l43 193h-283l15 207h317l96 424h207l-98 -424h190l97 424h206l-98 -424h281z" />
<glyph unicode="$" horiz-adv-x="1216" d="M430 1022q0 -55 26.5 -97t98.5 -71l72 332q-98 -6 -147.5 -52t-49.5 -112zM864 397q0 74 -45 111t-110 59l-76 -364q111 6 171 58t60 136zM879 1370q104 -35 184 -94t135 -137l-184 -133q-41 51 -85 87.5t-95 59.5l-78 -365l28 -8q61 -18 120 -44.5t105 -67.5t74.5 -99.5 t28.5 -140.5q0 -96 -34 -176t-98.5 -138.5t-159.5 -91t-216 -32.5h-16l-41 -193h-215l47 226q-131 43 -222 123.5t-139 170.5l187 140q76 -150 221 -217l82 389l-21 6q-57 16 -112.5 44t-98.5 71t-68.5 104t-25.5 145q0 94 38 169t102.5 127.5t151.5 80t188 27.5h10l39 184 h215z" />
<glyph unicode="%" horiz-adv-x="1982" d="M344 881q0 -84 28.5 -121t69.5 -37q43 0 77 31.5t57.5 82t36 112t12.5 122.5q0 66 -23.5 112t-73.5 46q-49 0 -83.5 -34t-57 -85t-33 -112.5t-10.5 -116.5zM543 1411q43 0 92 -14.5t92 -51t70.5 -101t27.5 -163.5q0 -96 -25.5 -191t-75.5 -173t-123 -126t-167 -48 q-147 0 -219 90t-72 244q0 96 27 192t78 172t125 123t170 47zM651 0h-219l934 1393h215zM1409 317q0 -84 28.5 -120.5t69.5 -36.5q43 0 77 31.5t57.5 82t36 111.5t12.5 123q0 66 -24 112t-73 46t-83.5 -34t-57 -85t-33 -113t-10.5 -117zM1608 848q43 0 92 -14.5t92 -51.5 t70.5 -101.5t27.5 -162.5q0 -96 -25.5 -191.5t-75.5 -173t-123 -125.5t-167 -48q-147 0 -219 90t-72 243q0 96 27 192.5t78 172.5t125 123t170 47z" />
<glyph unicode="&#x26;" horiz-adv-x="1318" d="M729 1208q-70 0 -97.5 -46t-27.5 -107q0 -47 12.5 -93.5t32.5 -80.5q10 6 21.5 11t21.5 11q74 41 106.5 92.5t32.5 112.5q0 41 -24.5 70.5t-77.5 29.5zM289 362q0 -92 57 -137t146 -45q88 0 149 33t94 74q-53 76 -110.5 164t-98.5 170q-51 -23 -95 -48.5t-75.5 -56.5 t-49 -68t-17.5 -86zM963 0q-16 16 -35 38.5t-35 43.5q-20 23 -39 45q-25 -25 -60.5 -51.5t-83.5 -49t-108.5 -37t-134.5 -14.5q-92 0 -167 26t-129 74t-84 115.5t-30 151.5t34 152.5t89.5 123t126 96.5t144.5 72q-29 47 -47.5 117t-18.5 150q0 68 23.5 131t68.5 112.5 t111.5 79t152.5 29.5q74 0 131.5 -22.5t97.5 -61.5t61.5 -89t21.5 -108q0 -131 -81 -229t-253 -176q31 -57 74 -125t84 -127q33 55 65.5 123.5t61.5 140.5l174 -117q-33 -86 -79 -166.5t-95 -144.5q39 -53 97 -125t150 -178h-288z" />
<glyph unicode="'" horiz-adv-x="444" d="M340 793h-154l56 436l34 164h238l-35 -164z" />
<glyph unicode="(" horiz-adv-x="575" d="M143 -346q-92 315 -92 610q0 309 108.5 593t346.5 556l205 -22q-221 -274 -326.5 -580.5t-105.5 -644.5q0 -119 12 -242t37 -246z" />
<glyph unicode=")" horiz-adv-x="575" d="M414 1413q92 -317 92 -610q0 -309 -107.5 -593t-345.5 -556l-207 22q221 274 327 580.5t106 644.5q0 119 -12.5 242t-37.5 246z" />
<glyph unicode="*" horiz-adv-x="1013" d="M707 1092l274 61l41 -215l-270 -45l147 -248l-188 -92l-144 248l-207 -201l-157 143l217 201l-254 117l98 194l248 -137l29 285l217 -29z" />
<glyph unicode="+" horiz-adv-x="1376" d="M807 0h-219v504h-498v217h498v502h219v-502h496v-217h-496v-504z" />
<glyph unicode="," horiz-adv-x="491" d="M315 270l-47 -209q-16 -72 -38.5 -148.5t-71.5 -125.5q-39 -39 -95.5 -62.5t-138.5 -27.5l35 158q61 6 89 49t38 96h-94l59 270h264z" />
<glyph unicode="-" horiz-adv-x="833" d="M94 438l47 221h584l-47 -221h-584z" />
<glyph unicode="." horiz-adv-x="491" d="M315 270l-59 -270h-264l59 270h264z" />
<glyph unicode="/" horiz-adv-x="813" d="M920 1393l-734 -1393h-239l735 1393h238z" />
<glyph unicode="0" horiz-adv-x="1251" d="M350 537q0 -188 60.5 -267.5t156.5 -79.5q88 0 159 58.5t121 154t76.5 216t26.5 247.5q0 152 -49 243t-166 91q-88 0 -159.5 -56.5t-122 -148.5t-77 -211.5t-26.5 -246.5zM748 1411q76 0 154.5 -22.5t144 -82t107.5 -162t42 -261.5q0 -154 -37 -313.5t-115.5 -292 t-199.5 -216.5t-287 -84q-115 0 -199 39t-140 110t-84 170t-28 222q0 160 41 319.5t123 287.5t201 207t277 79z" />
<glyph unicode="1" horiz-adv-x="815" d="M535 0h-240l188 905h-379l41 191h62q84 0 143.5 15t106.5 44q61 39 99 98.5t58 139.5h215z" />
<glyph unicode="2" horiz-adv-x="1159" d="M193 842q-16 61 -17 125q0 92 35 174t98.5 143.5t154.5 97t206 35.5q106 0 192 -29.5t144.5 -83t90 -128t31.5 -162.5q0 -143 -70.5 -264t-178 -221.5t-235.5 -181.5t-243 -142v-2q43 0 97 2q45 2 104.5 3t124.5 1h283l-47 -209h-971l33 188q57 31 124.5 73t136 88 t138.5 95.5t135 96.5q61 45 119.5 95t104.5 106.5t75 120t29 134.5q0 94 -58.5 152.5t-169.5 58.5q-68 0 -115.5 -21.5t-79.5 -57t-47.5 -84t-15.5 -101.5q0 -74 25 -143z" />
<glyph unicode="3" horiz-adv-x="1169" d="M264 475q2 -61 20.5 -114.5t53.5 -92.5t86 -61.5t121 -22.5q72 0 122 21.5t81.5 55.5t46 77t14.5 86q0 137 -129 188q-49 18 -107.5 21.5t-140.5 3.5h-39l33 190h123q63 0 113.5 7.5t91.5 27.5q49 23 79.5 67t30.5 111q0 68 -49 120t-164 52q-109 0 -175 -56t-87 -163 l-207 60q8 63 41 128.5t92.5 118t146.5 85t204 32.5q113 0 195.5 -27.5t137 -74.5t81 -110.5t26.5 -135.5q0 -74 -22.5 -130t-56.5 -98t-75 -70t-80 -42q35 -23 66 -52.5t54.5 -67.5t36.5 -86t13 -109q0 -86 -30.5 -166t-94 -140.5t-157.5 -96.5t-219 -36q-233 0 -357.5 122 t-138.5 325z" />
<glyph unicode="4" horiz-adv-x="1177" d="M1116 512l-45 -209h-219l-64 -303h-233l61 303h-630l37 184l798 906h262l-186 -881h219zM659 512l50 233q18 86 36.5 170t40.5 162h-6q-29 -47 -82 -115.5t-135 -162.5l-250 -287h346z" />
<glyph unicode="5" horiz-adv-x="1155" d="M111 662l219 731h811l-60 -219h-592l-86 -265q31 23 91.5 40.5t136.5 17.5q92 0 171 -30t137 -86t91 -139t33 -188q0 -117 -35 -217t-103.5 -174t-171 -116t-235.5 -42q-102 0 -183 29t-141.5 78t-98.5 115.5t-56 142.5l229 80q8 -47 29.5 -89t55.5 -74t81 -50.5 t105 -18.5q63 0 115.5 24t90 65.5t58 100t20.5 128.5q0 119 -71.5 190.5t-182.5 71.5q-106 0 -169.5 -51t-92.5 -131z" />
<glyph unicode="6" horiz-adv-x="1212" d="M590 190q63 0 114.5 26t87 69t54 97t18.5 112q0 121 -63.5 186t-182.5 65q-80 0 -154.5 -37.5t-117.5 -105.5q-6 -43 -6 -86q0 -66 13.5 -125t44 -104t77.5 -71t115 -26zM961 987q-12 98 -68.5 154.5t-157.5 56.5q-66 0 -122 -28.5t-101 -77t-75.5 -113t-47.5 -135.5 q51 53 128 79.5t163 26.5q76 0 151.5 -24.5t136 -76.5t97.5 -134t37 -195q0 -117 -39 -216t-109.5 -172t-167 -114t-213.5 -41q-219 0 -341.5 143.5t-122.5 393.5q0 178 44 341t126.5 286t202.5 196.5t270 73.5q104 0 181 -29.5t128 -81t78.5 -120t34.5 -144.5z" />
<glyph unicode="7" horiz-adv-x="1128" d="M1231 1200q-51 -51 -107.5 -113.5t-109.5 -128.5q-174 -215 -307.5 -458.5t-212.5 -499.5h-281q43 147 112.5 292.5t155.5 287.5q104 162 218 312t237 286h-518q-12 -59 -26.5 -121t-26.5 -121h-232l96 457h1043z" />
<glyph unicode="8" horiz-adv-x="1230" d="M455 1018q0 -72 54 -123t167 -51q125 0 185.5 53t60.5 143q0 76 -57.5 124t-168.5 48q-61 0 -106 -16t-76 -44t-45 -62.5t-14 -71.5zM299 399q0 -96 71.5 -156.5t194.5 -60.5q133 0 213 63.5t80 180.5q0 100 -70.5 156.5t-193.5 56.5q-76 0 -131 -19.5t-92 -52t-54.5 -77 t-17.5 -91.5zM61 377q0 135 78 233.5t213 151.5q-51 35 -92 100.5t-41 173.5q0 82 36 150.5t101.5 119t156.5 79t202 28.5q219 0 334.5 -97t115.5 -251q0 -63 -18.5 -116.5t-50 -95.5t-73.5 -72.5t-91 -51.5q70 -49 121 -126t51 -191q0 -92 -35 -172t-104.5 -138.5 t-171 -91.5t-234.5 -33q-121 0 -214 29t-155.5 82t-95.5 126t-33 163z" />
<glyph unicode="9" horiz-adv-x="1214" d="M674 1200q-66 0 -116 -25.5t-86 -68.5t-54.5 -97.5t-18.5 -111.5q0 -121 63.5 -186.5t182.5 -65.5q80 0 154.5 38t118.5 105q6 43 6 86q0 66 -13.5 125.5t-44 103.5t-77.5 70.5t-115 26.5zM303 401q12 -98 68.5 -153t156.5 -55q66 0 122.5 27.5t101.5 75.5t75.5 112.5 t46.5 136.5q-51 -53 -127.5 -80t-162.5 -27q-78 0 -153 24.5t-135 77t-97 133.5t-37 195q0 117 39 216.5t109.5 172t166.5 113.5t213 41q219 0 342 -143.5t123 -393.5q0 -178 -44 -340.5t-127 -285.5t-202.5 -197t-269.5 -74q-104 0 -181 30t-128 81t-79 119.5t-34 144.5z " />
<glyph unicode=":" horiz-adv-x="524" d="M479 975l-59 -270h-264l59 270h264zM330 270l-60 -270h-264l60 270h264z" />
<glyph unicode=";" horiz-adv-x="526" d="M332 270l-47 -209q-16 -72 -39 -148.5t-72 -125.5q-39 -39 -95 -62.5t-138 -27.5l34 158q61 6 89 49t38 96h-94l60 270h264zM481 975l-59 -270h-264l59 270h264z" />
<glyph unicode="&#x3c;" horiz-adv-x="1595" d="M1411 -53l-1311 651v180l1311 647v-225l-1022 -508l1022 -520v-225z" />
<glyph unicode="=" horiz-adv-x="1718" d="M1546 340h-1380v180h1380v-180zM1546 680h-1380v180h1380v-180z" />
<glyph unicode="&#x3e;" horiz-adv-x="1595" d="M231 172l1022 520l-1022 508v225l1311 -647v-180l-1311 -651v225z" />
<glyph unicode="?" horiz-adv-x="1013" d="M535 268l-54 -268h-252l56 268h250zM176 877q-14 57 -14 116q0 88 32.5 165t93 133.5t146.5 88t191 31.5q106 0 184 -28.5t128 -78t73.5 -114t23.5 -133.5q0 -121 -60.5 -218.5t-156.5 -168.5l-149 -111q-55 -41 -84 -87t-43 -134h-236q14 80 31.5 134t44.5 95t64.5 77 t95.5 79l133 98q68 49 94.5 105.5t26.5 113.5q0 70 -45 119t-146 49q-59 0 -100 -19.5t-67.5 -52t-39 -76.5t-12.5 -91q0 -31 5 -65t16 -62z" />
<glyph unicode="@" horiz-adv-x="1640" d="M913 113q-33 -29 -89 -52.5t-152 -23.5q-53 0 -102.5 13t-87.5 41t-61.5 73t-23.5 108q0 137 88 201t242 86l219 31q23 4 30 9t11 24q8 31 8 51q0 84 -139 84q-82 0 -129 -34t-57 -110l-191 11q8 80 45 134t92.5 88t124 49t142.5 15q133 0 219 -51t86 -160q0 -27 -4 -51 t-8 -43l-72 -325q-2 -6 -5 -22.5t-3 -33.5q0 -14 7 -24.5t27 -10.5q45 0 88.5 38t76 101.5t52 144.5t19.5 167q0 84 -23.5 164t-79 141.5t-144.5 99t-220 37.5q-152 0 -272.5 -58t-206.5 -157.5t-132 -230.5t-46 -275q0 -139 43 -241.5t116.5 -171t171 -102t205.5 -33.5 q74 0 150 14t149.5 43t142 73t126.5 103l40 -182q-135 -113 -292.5 -166t-339.5 -53q-139 0 -266.5 42t-223.5 129t-153.5 219t-57.5 312q0 174 60.5 338t171 290t268.5 202.5t354 76.5q170 0 292 -51t200 -135t113.5 -192.5t35.5 -223.5q0 -117 -30.5 -230.5t-89 -202.5 t-141.5 -143t-189 -54q-76 0 -121 25.5t-59 64.5h-5v0zM948 444q-25 -10 -71 -15t-86 -11q-41 -6 -76 -15.5t-61.5 -23.5t-41 -37t-14.5 -57q0 -51 40 -74t97 -23q68 0 120 35t65 92z" />
<glyph unicode="A" horiz-adv-x="1265" d="M827 522l-51 432q-4 25 -7 53.5t-5 55.5q-4 29 -4 59h-2q-14 -31 -31 -61q-14 -27 -29.5 -57.5t-27.5 -55.5l-228 -426h385zM158 0h-262l776 1393h276l189 -1393h-252l-37 315h-516z" />
<glyph unicode="B" horiz-adv-x="1380" d="M788 817q90 0 136.5 9.5t79.5 31.5q37 25 60 73t23 109q0 47 -18 76t-50 44.5t-77 19.5t-98 4h-314l-77 -367h335zM410 621l-86 -410h368q90 0 144.5 12.5t89.5 34.5q43 29 68.5 78t25.5 119q0 115 -90 147q-33 12 -72 15.5t-102 3.5h-346zM37 0l295 1393h526 q117 0 191.5 -13.5t126.5 -42.5q78 -43 115.5 -116.5t37.5 -161.5q0 -111 -51 -200t-156 -142q66 -49 103 -112.5t37 -155.5q0 -115 -44 -204t-126 -147q-35 -25 -72 -43t-85 -30.5t-111.5 -18.5t-149.5 -6h-637z" />
<glyph unicode="C" horiz-adv-x="1314" d="M1223 283q-41 -66 -96.5 -122.5t-125 -97t-154.5 -64.5t-185 -24q-143 0 -248 44t-173.5 123t-101.5 189.5t-33 243.5q0 156 46.5 307.5t135.5 270.5t222 191.5t309 72.5q205 0 337 -100t181 -264l-219 -105q-29 117 -104.5 183.5t-208.5 66.5q-117 0 -203 -54t-141 -140 t-82 -196t-27 -220q0 -182 80 -286.5t246 -104.5q121 0 206 56t140 148z" />
<glyph unicode="D" horiz-adv-x="1400" d="M326 221h190q111 0 199 14.5t153 61.5q61 43 106.5 111.5t75 145.5t45 153.5t15.5 140.5q0 180 -117 258q-68 43 -162 52t-194 9h-109zM37 0l295 1393h338q170 0 285.5 -26t201.5 -85q92 -66 142.5 -167t50.5 -251q0 -109 -22.5 -221.5t-68 -214.5t-113 -188t-159.5 -140 q-57 -35 -110.5 -54t-108.5 -29.5t-116.5 -13.5t-137.5 -3h-477z" />
<glyph unicode="E" horiz-adv-x="1251" d="M530 1174l-75 -345h667l-47 -219h-667l-82 -391h776l-45 -219h-1020l295 1393h971l-46 -219h-727z" />
<glyph unicode="F" horiz-adv-x="1126" d="M530 1174l-77 -355h626l-47 -219h-626l-125 -600h-244l295 1393h893l-45 -219h-650z" />
<glyph unicode="G" horiz-adv-x="1392" d="M637 -25q-115 0 -212 38t-168 114t-111 188.5t-40 259.5q0 156 46.5 307.5t135.5 270.5t222 191.5t309 72.5q205 0 337 -100t181 -264l-219 -105q-29 117 -104.5 183.5t-208.5 66.5q-117 0 -203 -54t-141 -140t-82 -195t-27 -219q0 -182 80 -288.5t246 -106.5 q80 0 143.5 27.5t111.5 74.5t79.5 109.5t50.5 134.5h-453l41 215h684l-159 -756h-234l23 106h-2q-14 -16 -42 -38.5t-69 -43t-95 -35t-120 -14.5z" />
<glyph unicode="H" horiz-adv-x="1406" d="M408 608l-129 -608h-242l293 1393h243l-118 -564h604l117 564h245l-297 -1393h-239l127 608h-604z" />
<glyph unicode="I" horiz-adv-x="559" d="M573 1393l-294 -1393h-242l293 1393h243z" />
<glyph unicode="J" horiz-adv-x="763" d="M788 1393l-229 -1061q-18 -86 -44 -147.5t-64 -102.5q-59 -66 -150.5 -88.5t-189.5 -22.5q-53 0 -105.5 5.5t-93.5 13.5l47 207q29 -4 62.5 -8.5t68.5 -4.5q49 0 89 9.5t69 33.5q35 29 56.5 80t39.5 137l203 949h241z" />
<glyph unicode="K" horiz-adv-x="1353" d="M1227 0h-293l-307 645l-252 -205l-94 -440h-244l293 1393h245l-133 -629l734 629h344l-703 -584z" />
<glyph unicode="L" horiz-adv-x="1032" d="M573 1393l-247 -1168h606l-47 -225h-848l293 1393h243z" />
<glyph unicode="M" horiz-adv-x="1656" d="M567 0l-41 782q-4 51 -5 113.5t-3 120t-2 100.5v58h-2q-20 -115 -41 -228q-18 -98 -38.5 -207.5t-39.5 -197.5l-114 -541h-244l295 1393h383l41 -781q4 -66 4 -128t2 -111q0 -57 2 -111h2q14 43 37 96q18 47 44.5 110.5t61.5 141.5l361 783h401l-297 -1393h-239l114 541 q18 90 45 198.5t49 206.5q27 113 58 230h-2q-33 -78 -66 -154q-29 -66 -59.5 -135.5t-54.5 -120.5l-363 -766h-289z" />
<glyph unicode="N" horiz-adv-x="1452" d="M37 0l295 1393h246l305 -688q23 -53 47 -109.5t43 -103.5q23 -53 41 -105h2q12 72 28 150q12 66 30 149.5t36 169.5l117 537h239l-295 -1393h-245l-324 748q-29 63 -49.5 115t-34.5 87q-16 41 -26 74h-3q-16 -88 -32 -170q-14 -72 -29.5 -151.5t-30.5 -145.5l-116 -557 h-244z" />
<glyph unicode="O" horiz-adv-x="1454" d="M815 1198q-123 0 -211 -55.5t-143 -142.5t-82 -197.5t-27 -220.5q0 -178 80 -281.5t246 -103.5q117 0 206 55t149.5 143t90 199t29.5 221q0 176 -86 279.5t-252 103.5zM106 575q0 156 46.5 307.5t136.5 270.5t226 191.5t314 72.5q133 0 239 -42t179.5 -119.5t112.5 -186 t39 -240.5q0 -158 -44 -310t-135.5 -273t-229.5 -196t-326 -75q-141 0 -246 44t-174.5 123t-103.5 189.5t-34 243.5z" />
<glyph unicode="P" horiz-adv-x="1265" d="M729 766q90 0 144.5 11t93.5 38t63.5 78t24.5 123q0 96 -59.5 129t-180.5 33h-287l-90 -412h291zM395 547l-116 -547h-242l293 1393h479q117 0 195.5 -16.5t134.5 -45.5q72 -39 118 -116.5t46 -188.5q0 -131 -59.5 -242.5t-176.5 -175.5q-29 -14 -59.5 -25.5t-71.5 -19.5 t-95.5 -12t-129.5 -4h-316z" />
<glyph unicode="Q" horiz-adv-x="1490" d="M815 1198q-123 0 -211 -55.5t-143 -142.5t-82 -197.5t-27 -220.5q0 -178 80 -281.5t246 -103.5q117 0 206 55t149.5 143t90 199t29.5 221q0 176 -86 279.5t-252 103.5zM106 575q0 156 45.5 307.5t135.5 270.5t225 191.5t317 72.5q133 0 239 -42t179.5 -119.5t112.5 -186 t39 -240.5q0 -145 -38 -285.5t-114 -256.5l142 -187l-199 -161l-121 159q-80 -57 -181.5 -90t-223.5 -33q-141 0 -246 44t-174.5 123t-103.5 189.5t-34 243.5z" />
<glyph unicode="R" horiz-adv-x="1366" d="M762 770q90 0 144.5 11.5t92.5 37.5q39 27 62.5 76t23.5 121q0 96 -59 129t-180 33h-318l-88 -408h322zM727 551h-330l-118 -551h-242l293 1393h510q117 0 195.5 -16.5t133.5 -45.5q72 -39 118 -116.5t46 -188.5q0 -131 -58 -240.5t-175 -173.5q-29 -14 -57.5 -25.5 t-69.5 -19.5l227 -567h-266z" />
<glyph unicode="S" horiz-adv-x="1206" d="M201 453q59 -121 163.5 -190.5t239.5 -69.5q123 0 189.5 54t66.5 144q0 43 -15.5 74t-43 52.5t-64.5 35.5t-78 27l-176 53q-57 18 -112.5 46t-98.5 72t-68.5 106.5t-25.5 148.5q0 96 38 172.5t102.5 130t151.5 81t187 27.5q182 0 318.5 -75.5t218.5 -194.5l-184 -135 q-72 94 -158 140t-199 46t-170 -48t-57 -122q0 -66 40 -113t146 -79l168 -54q61 -18 119.5 -45.5t105 -69.5t75 -102.5t28.5 -142.5q0 -98 -34 -180t-98.5 -141.5t-159.5 -92.5t-216 -33q-111 0 -204 29t-166.5 76t-128 107.5t-87.5 121.5z" />
<glyph unicode="T" horiz-adv-x="1134" d="M328 0l245 1174h-407l47 219h1057l-47 -219h-406l-248 -1174h-241z" />
<glyph unicode="U" horiz-adv-x="1378" d="M602 -25q-121 0 -212 30t-151.5 84t-90 130t-29.5 166q0 39 7 89t17 104l170 815h244l-172 -815q-10 -45 -17.5 -87t-7.5 -83q0 -213 258 -213q78 0 138.5 17t107.5 60q74 68 119 275l178 846h240l-178 -858q-33 -160 -83 -265.5t-128 -169.5q-68 -55 -171.5 -90 t-238.5 -35z" />
<glyph unicode="V" horiz-adv-x="1249" d="M1399 1393l-748 -1393h-325l-133 1393h258l69 -842q4 -47 8 -97.5t9 -91.5q4 -49 8 -94h2l45 90q20 41 45 90.5t51 100.5l436 844h275z" />
<glyph unicode="W" horiz-adv-x="1853" d="M1024 0v717v134t2 112q2 55 4 104h-2q-20 -55 -43 -115q-20 -51 -45 -114.5t-51 -124.5l-305 -713h-359v1393h256l-12 -885q0 -35 -1 -78t-3 -84q-2 -47 -2 -96h2q18 49 37 96q16 41 33.5 85t31.5 77l379 885h301l2 -897q0 -35 -1 -76t-1 -80q-2 -45 -2 -90h2 q18 49 37 96q16 41 33.5 85t32.5 77l364 885h264l-598 -1393h-356z" />
<glyph unicode="X" horiz-adv-x="1314" d="M918 0l-263 551l-495 -551h-295l684 739l-328 654h264l240 -502l449 502h296l-636 -684l356 -709h-272z" />
<glyph unicode="Y" horiz-adv-x="1247" d="M371 0l112 545l-319 848h244l235 -629l500 629h282l-698 -848l-113 -545h-243z" />
<glyph unicode="Z" d="M1014 0h-1069l41 197l942 977h-705l45 219h1030l-41 -195l-938 -977h740z" />
<glyph unicode="[" horiz-adv-x="628" d="M371 -326h-420l364 1719h422l-37 -174h-190l-291 -1369h191z" />
<glyph unicode="\" horiz-adv-x="1042" d="M438 1393l443 -1393h-228l-440 1393h225z" />
<glyph unicode="]" horiz-adv-x="626" d="M238 1393h419l-364 -1719h-422l37 174h190l291 1369h-190z" />
<glyph unicode="^" horiz-adv-x="935" d="M932 668h-236l-106 432l-291 -432h-258l514 725h182z" />
<glyph unicode="_" horiz-adv-x="1497" d="M1100 -340h-1094l43 205h1096z" />
<glyph unicode="`" horiz-adv-x="1024" d="M657 1393l131 -263h-200l-207 263h276z" />
<glyph unicode="a" horiz-adv-x="1052" d="M926 639q-4 -14 -17.5 -79.5t-29.5 -141.5q-20 -88 -43 -195q-6 -29 -7 -43q0 -39 54 -39h14l-33 -155q-6 -2 -32.5 -6.5t-77.5 -4.5q-59 0 -101.5 20.5t-46.5 72.5q-39 -33 -102.5 -63t-169.5 -30q-61 0 -117.5 16.5t-99.5 50.5t-68.5 86t-25.5 122q0 160 101 234.5 t282 99.5l253 34q25 4 34 10.5t14 28.5l4 19q4 16 5 24.5t1 20.5q0 51 -44 71.5t-118 20.5q-96 0 -150.5 -39t-66.5 -127l-221 12q10 92 53 156t106.5 103.5t143.5 57t166 17.5q78 0 142.5 -14t111.5 -45t73.5 -77t26.5 -109q0 -31 -5 -58.5t-9 -50.5zM662 451 q-29 -10 -82.5 -17.5t-100.5 -15.5t-88 -17.5t-70.5 -27t-47 -43t-17.5 -66.5q0 -59 46 -85.5t112 -26.5q80 0 140 40.5t75 106.5z" />
<glyph unicode="b" horiz-adv-x="1124" d="M535 1393l-117 -539q49 72 124.5 108.5t162.5 36.5q68 0 128 -23.5t105 -71.5t71.5 -120.5t26.5 -171.5q0 -127 -34.5 -242.5t-100 -202.5t-159 -139.5t-207.5 -52.5q-90 0 -165 41t-106 109l-24 -125h-232l293 1393h234zM614 807q-72 0 -126 -40t-90 -100.5t-53 -132 t-17 -137.5q0 -98 43 -161.5t139 -63.5q70 0 124 39t91 98.5t56.5 131t19.5 137.5q0 102 -44.5 165.5t-142.5 63.5z" />
<glyph unicode="c" horiz-adv-x="1015" d="M764 647q-6 29 -20.5 56.5t-38 50t-56.5 37t-78 14.5q-74 0 -129 -36t-92 -93.5t-55.5 -128t-18.5 -137.5q0 -117 55.5 -176.5t149.5 -59.5q86 0 141.5 45t90.5 111l194 -99q-27 -47 -65.5 -93t-93 -82t-125 -58.5t-156.5 -22.5q-199 0 -307.5 111t-108.5 311 q0 115 37 223.5t105.5 192.5t169 135t227.5 51q88 0 152.5 -22.5t110.5 -61t75.5 -90t46.5 -108.5z" />
<glyph unicode="d" horiz-adv-x="1124" d="M1167 1393l-293 -1393h-235l27 115q-49 -72 -124 -106t-161 -34q-68 0 -128 24t-105.5 72t-72 120.5t-26.5 170.5q0 127 35 243t100.5 203t158.5 139t208 52q90 0 165 -40.5t105 -108.5l115 543h231zM471 168q72 0 126 40t90 100.5t53.5 132t17.5 137.5q0 98 -43 161.5 t-140 63.5q-72 0 -126 -38t-90.5 -96.5t-55 -130t-18.5 -137.5q0 -104 44 -168.5t142 -64.5z" />
<glyph unicode="e" horiz-adv-x="1077" d="M567 815q-98 0 -169.5 -61.5t-92.5 -153.5h465q0 113 -53.5 164t-149.5 51zM952 229q-27 -39 -67.5 -84t-98 -82.5t-133 -62.5t-174.5 -25q-205 0 -315.5 115t-110.5 330q0 113 38 217t108.5 185t169 129t219.5 48q104 0 180 -32.5t125 -90t73.5 -134t24.5 -162.5 q0 -37 -4 -78t-12 -72h-699v-29q0 -119 68 -173t160 -54q96 0 167.5 48t116.5 124z" />
<glyph unicode="f" horiz-adv-x="714" d="M723 793h-234l-170 -793h-231l168 793h-172l39 182h172l29 127q18 90 41.5 141t60.5 86q43 41 104.5 59.5t147.5 18.5q59 0 104 -6t68 -10l-41 -193q-16 2 -45 5t-53 3q-39 0 -66 -7t-47 -28q-33 -33 -51 -112l-19 -84h234z" />
<glyph unicode="g" horiz-adv-x="1118" d="M203 -43v-25q0 -80 49 -119.5t154 -39.5q61 0 100 14t64.5 43t40 70t26.5 94l29 131h-2q-35 -45 -103.5 -79t-167.5 -34q-68 0 -129 20.5t-109.5 65.5t-76 114t-27.5 167q0 121 35 233.5t100.5 198.5t158.5 137t208 51q90 0 165 -38.5t105 -104.5l25 119h227l-215 -1010 q-25 -115 -67.5 -186.5t-101 -112.5t-132.5 -56.5t-160 -15.5q-76 0 -152.5 13.5t-138 47.5t-99.5 93t-38 150v22t2 25zM475 193q72 0 125 38.5t89 98t53.5 130t17.5 132.5q0 96 -43 157.5t-139 61.5q-72 0 -126.5 -39t-91 -98.5t-55 -129t-18.5 -130.5q0 -98 45 -159.5 t143 -61.5z" />
<glyph unicode="h" horiz-adv-x="1116" d="M874 0h-231l100 475q8 39 17.5 86t9.5 90q0 59 -28.5 102.5t-114.5 43.5q-61 0 -108.5 -29t-83.5 -75t-58.5 -102t-34.5 -110l-102 -481h-234l297 1393h234l-123 -559q47 78 129 121.5t186 43.5q55 0 106.5 -15t90.5 -48t62.5 -84t23.5 -121q0 -33 -5.5 -79t-15.5 -99z " />
<glyph unicode="i" horiz-adv-x="491" d="M483 1155h-233l51 238h234zM240 0h-232l205 975h233z" />
<glyph unicode="j" horiz-adv-x="489" d="M485 1155h-233l51 238h234zM446 975l-243 -1139q-10 -43 -21.5 -81t-34.5 -66q-41 -55 -101 -77t-138 -22q-90 0 -170 21l43 190q18 -4 40.5 -6t47.5 -2q23 0 41 4t35 17q12 10 22 29.5t19 58.5l227 1073h233z" />
<glyph unicode="k" horiz-adv-x="1085" d="M535 1393l-175 -805l471 387h310l-469 -387l282 -588h-266l-201 444l-184 -139l-65 -305h-232l295 1393h234z" />
<glyph unicode="l" horiz-adv-x="507" d="M543 1393l-295 -1393h-232l293 1393h234z" />
<glyph unicode="m" horiz-adv-x="1712" d="M1339 475q8 39 17.5 86t9.5 90q0 59 -28.5 102.5t-108.5 43.5q-57 0 -102.5 -29t-79 -73t-55 -99t-34.5 -109l-104 -487h-229l100 475q8 39 17.5 86t9.5 90q0 59 -29 102.5t-109 43.5q-57 0 -102 -29t-79 -73t-55.5 -99t-33.5 -109l-104 -487h-234l207 975h233l-32 -141 q47 78 127 121.5t172 43.5q86 0 157.5 -37.5t102.5 -121.5q51 61 141 110t207 49q59 0 111.5 -15t91.5 -48t61.5 -84t22.5 -121q0 -33 -5.5 -79t-15.5 -99l-117 -553h-231z" />
<glyph unicode="n" horiz-adv-x="1116" d="M874 0h-231l100 475q8 39 17.5 86t9.5 90q0 59 -28.5 102.5t-114.5 43.5q-61 0 -108.5 -29t-83.5 -75t-58.5 -102t-34.5 -110l-102 -481h-234l207 975h233l-32 -141q47 78 129 121.5t186 43.5q55 0 106.5 -15t90.5 -48t62.5 -84t23.5 -121q0 -33 -5.5 -79t-15.5 -99z" />
<glyph unicode="o" horiz-adv-x="1093" d="M571 805q-74 0 -129 -37t-92 -94.5t-55.5 -129t-18.5 -138.5q0 -113 55.5 -172.5t149.5 -59.5q76 0 131.5 36t91 93t53 128t17.5 140q0 111 -52.5 172.5t-150.5 61.5zM51 393q0 115 36 224.5t104.5 194.5t170 136t234.5 51q201 0 304.5 -115.5t103.5 -305.5 q0 -109 -32 -216.5t-97.5 -193.5t-166 -139.5t-239.5 -53.5q-199 0 -308.5 112.5t-109.5 305.5z" />
<glyph unicode="p" horiz-adv-x="1126" d="M-74 -389l287 1364h236l-29 -121q49 72 125 108.5t162 36.5q68 0 128 -23.5t105 -71.5t71.5 -120.5t26.5 -171.5q0 -127 -34.5 -242.5t-100 -202.5t-159 -139.5t-207.5 -52.5q-90 0 -165 41t-106 109l-108 -514h-232zM616 807q-72 0 -126 -40t-89.5 -100.5t-53 -132 t-17.5 -137.5q0 -98 43 -161.5t139 -63.5q70 0 124 39t91 98.5t56.5 131t19.5 137.5q0 102 -44.5 165.5t-142.5 63.5z" />
<glyph unicode="q" horiz-adv-x="1122" d="M555 -389l111 504q-49 -72 -124 -106t-161 -34q-68 0 -128 24t-105.5 72t-72 120.5t-26.5 170.5q0 127 35 243t100.5 203t158.5 139t208 52q90 0 165 -40.5t105 -108.5l25 125h231l-286 -1364h-236zM471 168q72 0 126 40t90 100.5t53.5 132t17.5 137.5q0 98 -43 161.5 t-140 63.5q-70 0 -124 -39t-90.5 -98.5t-56 -131t-19.5 -137.5q0 -102 44 -165.5t142 -63.5z" />
<glyph unicode="r" horiz-adv-x="729" d="M446 975l-34 -148h2q10 25 36.5 53.5t66.5 54.5t92.5 43t111.5 17q12 0 24.5 -1t24.5 -3l-53 -239q-16 2 -31.5 3t-32.5 1q-94 0 -155.5 -34t-102.5 -99q-23 -37 -39 -86.5t-30 -116.5l-86 -420h-234l207 975h233z" />
<glyph unicode="s" horiz-adv-x="958" d="M739 686q-43 53 -111.5 87t-154.5 34q-66 0 -101.5 -26.5t-35.5 -67.5q0 -45 27.5 -66.5t80.5 -38.5l136 -39q49 -14 95 -33.5t83 -50t58.5 -74.5t21.5 -106q0 -80 -29 -142.5t-81 -103.5t-126 -62.5t-162 -21.5q-92 0 -165.5 19.5t-130 52.5t-97.5 75t-67 89l161 127 q33 -63 108 -115.5t195 -52.5q86 0 127 30.5t41 78.5q0 45 -35.5 65.5t-93.5 36.5l-137 37q-43 12 -86 30.5t-76.5 51t-55.5 79t-22 113.5q0 76 31 133.5t82 96.5t116.5 58t137.5 19q141 0 249.5 -51t172.5 -137z" />
<glyph unicode="t" horiz-adv-x="735" d="M551 -10q-25 -6 -67 -10.5t-103 -4.5q-47 0 -93 6.5t-83 24t-59.5 47t-22.5 76.5q0 25 6 58.5t16 78.5l111 527h-186l39 182h186l76 354l239 37l-82 -391h234l-39 -182h-234l-100 -488q-10 -47 -10 -67q0 -45 33.5 -57.5t91.5 -12.5q20 0 37.5 1t29.5 3q14 2 25 4z" />
<glyph unicode="u" horiz-adv-x="1105" d="M201 975h231l-100 -475q-8 -39 -17.5 -86t-9.5 -90q0 -59 27.5 -102.5t116.5 -43.5q55 0 101 29t81 75t58.5 102t35.5 110l102 481h234l-207 -975h-233l32 141q-47 -78 -128 -122t-181 -44q-57 0 -108.5 16.5t-89 50.5t-60.5 85t-23 121q0 33 5.5 77t15.5 97z" />
<glyph unicode="v" horiz-adv-x="944" d="M1006 975l-529 -975h-256l-110 975h239l43 -504q4 -39 6 -71.5t4 -59.5q2 -31 5 -57h2q10 27 24 57q12 27 28.5 61.5t39.5 75.5l250 498h254z" />
<glyph unicode="w" horiz-adv-x="1523" d="M793 383q-4 72 -6.5 145.5t-4.5 149.5h-2q-35 -78 -68.5 -150.5t-72.5 -148.5l-190 -379h-259l-73 975h245l19 -436q4 -72 5 -134.5t3 -138.5h2q16 37 29.5 69t27 64.5t30 67.5t36.5 78l203 430h250l20 -436q2 -47 4 -81t3 -63.5t2 -60.5t1 -68h2q14 37 27.5 68t27 61.5 t29 66.5t37.5 83l203 430h258l-498 -975h-270z" />
<glyph unicode="x" horiz-adv-x="968" d="M1006 975l-408 -469l242 -506h-250l-152 338l-274 -338h-275l457 524l-211 451h250l121 -283l223 283h277z" />
<glyph unicode="y" horiz-adv-x="946" d="M-53 -207q16 -4 35.5 -6t42.5 -2q43 0 72.5 10t53 32.5t43 57.5t42.5 84l-140 1006h242l53 -522q4 -35 6 -71t6 -65q4 -35 7 -67h2q12 29 26 61q12 29 27.5 64t32.5 71l247 529h246l-553 -1092q-39 -78 -73.5 -129t-73.5 -84q-47 -41 -108.5 -59.5t-149.5 -18.5 q-37 0 -70 4.5t-55 8.5z" />
<glyph unicode="z" horiz-adv-x="995" d="M999 975l-38 -182l-652 -588h527l-43 -205h-848l39 180l657 590h-500l43 205h815z" />
<glyph unicode="{" horiz-adv-x="669" d="M465 784q-12 -57 -24.5 -93t-27 -59.5t-34 -37.5t-43.5 -27q45 -43 45 -121q0 -49 -12.5 -105t-22.5 -110l-43 -217q-10 -43 -13 -64.5t-3 -37.5q0 -23 7 -36t25.5 -20.5t50 -11.5t83.5 -4l-35 -166h-41q-66 0 -124 6.5t-101 28t-68 64.5t-25 116q0 41 12.5 104.5 t22.5 117.5l43 198q8 39 13.5 66.5t5.5 48.5q0 35 -23.5 52.5t-83.5 27.5l37 174q47 0 77 13.5t48 39t29.5 64.5t21.5 92l39 196q18 86 37.5 146.5t55.5 97.5t93.5 53.5t149.5 16.5q43 0 80 -1t59 -5l-37 -170q-14 2 -26.5 2h-22.5q-49 0 -77.5 -10.5t-46 -34t-28 -58.5 t-20.5 -84z" />
<glyph unicode="|" horiz-adv-x="620" d="M184 1393h232v-1717h-232v1717z" />
<glyph unicode="}" horiz-adv-x="667" d="M195 336q12 57 24 93t26.5 59.5t34 38t44.5 26.5q-45 43 -45 121q0 49 12 105.5t22 109.5l33 168q10 43 13 64.5t3 37.5q0 43 -33.5 56.5t-127.5 15.5l35 166h36q66 0 124.5 -5.5t101.5 -27t67.5 -63t24.5 -115.5q0 -43 -11.5 -106.5t-23.5 -118.5l-33 -150 q-8 -39 -13 -66.5t-5 -48.5q0 -35 23.5 -52t82.5 -28l-37 -174q-47 0 -76.5 -13t-48 -38.5t-29.5 -64.5t-22 -93l-49 -245q-18 -86 -37.5 -146.5t-55.5 -97.5t-93.5 -53.5t-149.5 -16.5q-43 0 -80.5 1t-60.5 6l39 169q14 -2 26.5 -2h22.5q49 0 78 10.5t46 34t27.5 58.5 t20.5 84z" />
<glyph unicode="~" horiz-adv-x="1177" d="M1112 586q-61 -78 -151.5 -120t-176.5 -42q-37 0 -67.5 6t-58 16.5t-56.5 24.5t-61 31q-31 16 -74 33.5t-82 17.5q-35 0 -84 -19.5t-115 -99.5l-112 182q14 25 43.5 55.5t69.5 56.5t91.5 44.5t110.5 18.5q68 0 124 -24t120 -56q35 -16 70.5 -35t89.5 -19q57 0 116.5 30 t100.5 77z" />
<glyph unicode="&#xa1;" horiz-adv-x="485" d="M150 715l55 260h248l-54 -260h-249zM-84 -418l129 615l117 421h178l-64 -421l-129 -615h-231z" />
<glyph unicode="&#xa2;" horiz-adv-x="1056" d="M291 410q0 -74 23.5 -125.5t64.5 -79.5l125 586q-53 -18 -93 -58.5t-67 -92.5t-40 -112.5t-13 -117.5zM778 647q-10 35 -29.5 70t-54.5 57l-125 -590q53 16 92 56.5t66 89.5l195 -99q-25 -45 -62 -88t-86 -77.5t-111.5 -58t-138.5 -30.5l-43 -208h-194l47 227 q-129 35 -198.5 138.5t-69.5 262.5q0 106 32.5 210t94 185.5t150.5 136t204 66.5l41 193h194l-45 -207q109 -29 167.5 -101.5t84.5 -162.5z" />
<glyph unicode="&#xa3;" horiz-adv-x="1142" d="M936 987v35q0 33 -7 64.5t-25.5 57t-47.5 41t-72 15.5q-61 0 -100 -30.5t-62.5 -85t-37 -125t-25.5 -150.5h293l-45 -213h-277q-16 -90 -28.5 -151.5t-26.5 -104.5t-30.5 -70.5t-38.5 -48.5v-2h92q41 0 91 1t101 1h299l-45 -221h-973l43 201q57 2 99.5 17t73 47t52 83 t37.5 129q6 27 12.5 56.5t10.5 62.5h-207l45 213h193q16 119 42.5 227.5t77 191.5t133.5 131t210 48q184 0 271 -94t87 -254v-35z" />
<glyph unicode="&#xa4;" horiz-adv-x="1234" d="M422 578q0 -84 56.5 -142.5t139.5 -58.5q43 0 80 15.5t62.5 43t41 64.5t15.5 78q0 86 -55 144t-144 58q-41 0 -76.5 -15t-62 -43t-42 -64.5t-15.5 -79.5zM199 578q0 59 14 112t41 101l-55 53l-74 69l162 162l125 -127q90 51 206 51q57 0 110.5 -11t100.5 -38l121 121 l158 -158l-121 -122q51 -90 51 -213q0 -59 -11 -111.5t-38 -99.5l121 -117l-160 -160l-121 121q-94 -51 -211 -51q-57 0 -110 11t-100 40l-123 -123l-160 160l125 123q-51 92 -51 207z" />
<glyph unicode="&#xa5;" horiz-adv-x="1388" d="M524 444l27 129h-369l43 201h258l-250 658h244l238 -644l516 644h282l-557 -658h267l-43 -201h-385l-27 -129h385l-43 -200h-383l-49 -246h-244l49 246h-370l43 200h368z" />
<glyph unicode="&#xa6;" horiz-adv-x="645" d="M197 336h231v-662h-231v662zM197 1393h231v-662h-231v662z" />
<glyph unicode="&#xa7;" horiz-adv-x="1040" d="M715 956q47 -25 92 -51t79 -61t54.5 -79t20.5 -106q0 -61 -20.5 -112t-53.5 -90t-71 -67t-75 -42q35 -33 66 -77t31 -115q0 -160 -111 -245t-289 -85q-86 0 -158.5 19.5t-131 52t-101.5 74.5t-70 89l162 127q33 -63 110 -115.5t193 -52.5q80 0 124 29t44 84 q0 25 -11 43.5t-29.5 32.5t-42 26.5t-48.5 24.5l-100 51q-59 31 -109.5 64t-86.5 71.5t-55 88t-19 114.5q0 106 64.5 176t164.5 97q-33 33 -53.5 77.5t-20.5 110.5q0 76 31 133t82 96t116.5 58.5t137.5 19.5q141 0 249.5 -51t172.5 -137l-156 -125q-43 53 -112.5 87 t-149.5 34q-68 0 -104.5 -27t-36.5 -68q0 -43 29.5 -67.5t103.5 -61.5zM573 467q63 16 108.5 56t45.5 102q0 59 -45 89.5t-104 59.5l-64 31q-76 -4 -124 -41t-48 -92q0 -59 43 -95t125 -77z" />
<glyph unicode="&#xa8;" horiz-adv-x="983" d="M772 1372h221l-51 -242h-221zM389 1372h221l-51 -242h-221z" />
<glyph unicode="&#xa9;" horiz-adv-x="1595" d="M1356 717q0 111 -41 209t-111.5 171.5t-167 115.5t-209.5 42t-209 -42t-166.5 -115.5t-111.5 -172t-41 -208.5q0 -111 41 -209t111.5 -172t167 -116t208.5 -42q113 0 209.5 42t167 116t111.5 172t41 209zM1526 717q0 -147 -53.5 -275.5t-147.5 -222.5t-221 -148.5 t-277 -54.5t-277.5 54.5t-220.5 148.5t-146.5 222t-53.5 276q0 147 53.5 275t146.5 222.5t221 148.5t277 54q150 0 277 -54t221 -148.5t147.5 -222.5t53.5 -275zM1153 508q-12 -29 -37.5 -62.5t-63.5 -64.5t-92.5 -51.5t-123.5 -20.5q-90 0 -161 30t-118 83t-71.5 127 t-24.5 164t26.5 163.5t74.5 127t118 83t156 29.5q68 0 120 -19.5t89.5 -47t63.5 -59.5t40 -56l-133 -92q-61 131 -180 131q-98 0 -150.5 -72t-52.5 -188q0 -117 52 -186.5t151 -69.5q117 0 178 121z" />
<glyph unicode="&#xaa;" horiz-adv-x="782" d="M709 889q-2 -8 -2 -21q0 -20 30 -20h15l-29 -113q-8 -2 -22.5 -4t-43.5 -2q-37 0 -65.5 12.5t-38.5 44.5q-27 -20 -70 -38.5t-108 -18.5q-41 0 -80 11.5t-68.5 35t-47 58t-17.5 81.5q0 111 68.5 160t189.5 66l170 22q25 2 28 23q2 10 4.5 20.5t2.5 22.5q0 33 -29 45 t-76 12q-61 0 -96 -25.5t-43 -84.5l-156 8q8 63 37 106t72 71t96 40t111 12q104 0 171.5 -40t67.5 -126q0 -23 -3 -41t-7 -32zM588 1042q-16 -4 -30.5 -6t-39.5 -6l-45 -6q-66 -10 -106.5 -28.5t-40.5 -61.5q0 -78 96 -78q55 0 94 24.5t49 67.5z" />
<glyph unicode="&#xab;" horiz-adv-x="931" d="M469 469l59 260l371 262l-59 -270l-215 -137l153 -160l-49 -240zM68 469l59 260l371 262l-60 -270l-215 -137l154 -160l-49 -240z" />
<glyph unicode="&#xac;" d="M1067 365h-233v368h-701v197h934v-565z" />
<glyph unicode="&#xad;" horiz-adv-x="833" d="M94 438l47 221h584l-47 -221h-584z" />
<glyph unicode="&#xae;" horiz-adv-x="1595" d="M829 758q49 0 76 3t43 11q49 25 49 86q0 63 -49 86q-16 8 -41.5 10t-77.5 2h-161v-198h161zM668 332h-160v776h342q111 0 166 -29q59 -29 101 -84t42 -137q0 -100 -52 -157.5t-130 -82.5l209 -286h-203l-195 276h-120v-276zM1356 717q0 111 -41 209t-111.5 171.5 t-167 115.5t-209.5 42t-209 -42t-166.5 -115.5t-111.5 -172t-41 -208.5q0 -111 41 -209t111.5 -172t167 -116t208.5 -42q113 0 209.5 42t167 116t111.5 172t41 209zM1526 717q0 -147 -53.5 -275.5t-147.5 -222.5t-221 -148.5t-277 -54.5t-277.5 54.5t-220.5 148.5 t-146.5 222t-53.5 276q0 147 53.5 275t146.5 222.5t221 148.5t277 54q150 0 277 -54t221 -148.5t147.5 -222.5t53.5 -275z" />
<glyph unicode="&#xaf;" horiz-adv-x="1024" d="M375 1393h598l-39 -191h-598z" />
<glyph unicode="&#xb0;" horiz-adv-x="903" d="M406 1116q0 -63 46 -109t109 -46t109.5 46t46.5 109t-46 109.5t-110 46.5q-63 0 -109 -46.5t-46 -109.5zM188 1116q0 78 29 145.5t80 119t118.5 80t145.5 28.5t145.5 -28.5t119 -80t80 -119t28.5 -145.5t-28.5 -145.5t-80 -118.5t-119 -80t-145.5 -29t-145.5 29 t-118.5 80t-80 118.5t-29 145.5z" />
<glyph unicode="&#xb1;" horiz-adv-x="1513" d="M836 279h-220v321h-497v217h497v406h220v-406h495v-217h-495v-321zM119 0v217h1212v-217h-1212z" />
<glyph unicode="&#xb2;" horiz-adv-x="835" d="M227 1044q-6 33 -6 56q0 61 20.5 116.5t60.5 96.5t98.5 64.5t131.5 23.5q145 0 221 -75t76 -189q0 -72 -32.5 -135.5t-86 -118t-119 -98.5t-130.5 -76v-2h69q29 0 61 1t58 1h119l-43 -181h-619l27 160q59 31 147.5 86t172.5 119q70 53 121 106.5t51 124.5q0 43 -23.5 70 t-71.5 27q-61 0 -86.5 -42t-25.5 -96q0 -33 10 -73z" />
<glyph unicode="&#xb3;" horiz-adv-x="782" d="M307 846q6 -59 40 -97t91 -38q53 0 83 27.5t30 74.5q0 96 -156 96h-49l31 144h78q131 0 131 96q0 35 -23.5 58.5t-70.5 23.5q-53 0 -79 -34t-32 -81l-174 29q6 49 27.5 96t59.5 82t91 56.5t123 21.5q68 0 118 -18.5t83.5 -50.5t51 -72.5t17.5 -85.5q0 -84 -42 -131.5 t-93 -69.5q39 -23 70.5 -68t31.5 -110q0 -113 -76.5 -185.5t-232.5 -72.5q-72 0 -127 20.5t-94 57t-61.5 86t-26.5 106.5z" />
<glyph unicode="&#xb4;" horiz-adv-x="921" d="M850 1393l-207 -263h-201l131 263h277z" />
<glyph unicode="&#xb5;" horiz-adv-x="1097" d="M-70 -389l289 1364h234l-27 -125l-94 -442q-8 -39 -8 -84q0 -59 27.5 -102.5t115.5 -43.5q55 0 101 29t81 75t58.5 102t35.5 110l103 481h233l-207 -975h-233l33 141q-43 -76 -127 -114.5t-170 -38.5q-76 0 -129 26l-84 -403h-232z" />
<glyph unicode="&#xb6;" horiz-adv-x="1306" d="M551 608h-16q-82 0 -153 20.5t-123 63.5t-82 107.5t-30 152.5q0 207 127 318q37 31 79 54.5t99.5 38.5t134.5 22.5t181 7.5h627l-35 -170h-146l-315 -1485h-174l315 1485h-178l-315 -1485h-180z" />
<glyph unicode="&#xb7;" horiz-adv-x="509" d="M430 791l-59 -271h-265l60 271h264z" />
<glyph unicode="&#xb8;" horiz-adv-x="911" d="M451 6l-78 -67q72 -2 121 -40t49 -116q0 -47 -18.5 -81t-47 -56.5t-67.5 -33.5t-78 -11q-63 0 -115 24l31 94q27 -10 44 -12t34 -2q37 0 60.5 17.5t23.5 48.5q0 35 -25 49t-57 14q-35 0 -76 -20l-47 86l127 106h119z" />
<glyph unicode="&#xb9;" horiz-adv-x="563" d="M231 539l119 528h-190l39 166h67q78 0 113 46t51 114h180l-188 -854h-191z" />
<glyph unicode="&#xba;" horiz-adv-x="770" d="M451 870q49 0 84.5 26t58 64.5t34 86t11.5 90.5q0 66 -26.5 104.5t-92.5 38.5q-45 0 -79.5 -24.5t-58.5 -62.5t-36 -84t-12 -89q0 -72 29 -111t88 -39zM530 1415q123 0 196 -70.5t73 -197.5q0 -76 -21.5 -149.5t-66.5 -133t-112 -96.5t-155 -37q-131 0 -198.5 77 t-67.5 202q0 78 23.5 151.5t68.5 130t110.5 90t149.5 33.5z" />
<glyph unicode="&#xbb;" horiz-adv-x="931" d="M467 707l-59 -261l-371 -262l61 277l215 137l-153 160l47 233zM868 707l-59 -261l-371 -262l62 277l215 137l-154 160l47 233z" />
<glyph unicode="&#xbc;" horiz-adv-x="1636" d="M1210 358l29 125q4 16 7 32.5t7 31.5q4 16 7 31h-3q-8 -12 -18 -25q-10 -10 -21.5 -23.5t-21.5 -25.5l-49 -55q-12 -16 -27.5 -31t-29.5 -29l-31 -31v-2h24q10 0 22.5 1t22.5 1h82zM406 0h-220l934 1393h215zM240 539l118 528h-190l39 166h67q78 0 113 46t51 114h180 l-188 -854h-190zM1503 854l-110 -496h137l-31 -147h-137l-45 -211h-187l48 211h-367l31 131l483 512h178z" />
<glyph unicode="&#xbd;" horiz-adv-x="1697" d="M403 0h-219l934 1393h215zM1004 516q-6 33 -7 55q0 61 20.5 116.5t60.5 96.5t98.5 64.5t132.5 23.5q145 0 221 -74.5t76 -189.5q0 -72 -33 -135t-86 -117.5t-118.5 -98.5t-131.5 -77v-2h70q29 0 60.5 1t57.5 1h119l-43 -180h-618l26 160q59 31 147.5 86t172.5 119 q70 53 121 106t51 125q0 43 -23.5 69.5t-70.5 26.5q-61 0 -87 -42t-26 -95q0 -33 10 -74zM238 539l118 528h-190l39 166h67q78 0 113 46t51 114h180l-188 -854h-190z" />
<glyph unicode="&#xbe;" horiz-adv-x="1867" d="M1442 358l28 125q4 16 7.5 32.5t7.5 31.5q4 16 6 31h-2q-8 -12 -19 -25q-10 -10 -21 -23.5t-22 -25.5l-49 -55q-12 -16 -27.5 -31t-29.5 -29l-31 -31v-2h25q10 0 22.5 1t22.5 1h82zM1735 854l-111 -496h137l-30 -147h-138l-45 -211h-186l47 211h-367l31 131l483 512h179z M637 0h-219l934 1393h215zM299 846q6 -59 40 -97t91 -38q53 0 83 27.5t30 74.5q0 96 -156 96h-49l31 144h77q131 0 132 96q0 35 -24 58.5t-71 23.5q-53 0 -78.5 -34t-31.5 -81l-174 29q6 49 27.5 96t59.5 82t91 56.5t123 21.5q68 0 118 -18.5t83.5 -50.5t51 -72.5 t17.5 -85.5q0 -84 -42 -131.5t-93 -69.5q39 -23 70.5 -68t31.5 -110q0 -113 -76.5 -185.5t-232.5 -72.5q-72 0 -127 20.5t-94 57t-61.5 86t-26.5 106.5z" />
<glyph unicode="&#xbf;" horiz-adv-x="991" d="M426 707l53 268h252l-55 -268h-250zM784 98q14 -57 15 -116q0 -88 -33 -165t-93.5 -133.5t-146.5 -88t-190 -31.5q-109 0 -185.5 28.5t-127 77.5t-74 112.5t-23.5 135.5q0 121 60.5 218t156.5 169l150 111q27 20 47 40.5t35.5 46t26 58.5t18.5 76h235q-14 -80 -31.5 -134 t-44 -95t-64.5 -77t-95 -79l-133 -98q-68 -49 -94.5 -105.5t-26.5 -114.5q0 -70 45 -118.5t145 -48.5q57 0 99.5 19t69 52t38.5 77t12 91q0 31 -5 64.5t-15 62.5z" />
<glyph unicode="&#xc0;" horiz-adv-x="1265" d="M786 1821l138 -297h-201l-223 297h286zM827 522l-51 432q-4 25 -7 53.5t-5 55.5q-4 29 -4 59h-2q-14 -31 -31 -61q-14 -27 -29.5 -57.5t-27.5 -55.5l-228 -426h385zM158 0h-262l776 1393h276l189 -1393h-252l-37 315h-516z" />
<glyph unicode="&#xc1;" horiz-adv-x="1265" d="M1159 1821l-223 -297h-201l137 297h287zM827 522l-51 432q-4 25 -7 53.5t-5 55.5q-4 29 -4 59h-2q-14 -31 -31 -61q-14 -27 -29.5 -57.5t-27.5 -55.5l-228 -426h385zM158 0h-262l776 1393h276l189 -1393h-252l-37 315h-516z" />
<glyph unicode="&#xc2;" horiz-adv-x="1265" d="M850 1651l-141 -127h-242l324 297h163l195 -297h-217zM827 522l-51 432q-4 25 -7 53.5t-5 55.5q-4 29 -4 59h-2q-14 -31 -31 -61q-14 -27 -29.5 -57.5t-27.5 -55.5l-228 -426h385zM158 0h-262l776 1393h276l189 -1393h-252l-37 315h-516z" />
<glyph unicode="&#xc3;" horiz-adv-x="1265" d="M1202 1749q-16 -39 -35.5 -77t-47 -68.5t-63.5 -49t-85 -18.5q-41 0 -72 10t-63 27q-35 16 -65 30.5t-52 14.5q-35 0 -51.5 -28.5t-26.5 -59.5l-149 47q6 25 23 61.5t46 70.5t69 57.5t93 23.5q39 0 70.5 -12.5t62.5 -28.5q29 -16 56.5 -27.5t54.5 -11.5q35 0 56 27.5 t32 60.5zM827 522l-51 432q-4 25 -7 53.5t-5 55.5q-4 29 -4 59h-2q-14 -31 -31 -61q-14 -27 -29.5 -57.5t-27.5 -55.5l-228 -426h385zM158 0h-262l776 1393h276l189 -1393h-252l-37 315h-516z" />
<glyph unicode="&#xc4;" horiz-adv-x="1265" d="M967 1784h229l-55 -260h-230zM575 1784h230l-55 -260h-230zM827 522l-51 432q-4 25 -7 53.5t-5 55.5q-4 29 -4 59h-2q-14 -31 -31 -61q-14 -27 -29.5 -57.5t-27.5 -55.5l-228 -426h385zM158 0h-262l776 1393h276l189 -1393h-252l-37 315h-516z" />
<glyph unicode="&#xc5;" horiz-adv-x="1265" d="M766 1698q0 -35 23.5 -57.5t56.5 -22.5t56.5 22.5t23.5 57.5t-23.5 57.5t-56.5 22.5t-56.5 -22.5t-23.5 -57.5zM627 1698q0 94 63.5 156.5t157.5 62.5t157.5 -62.5t63.5 -156.5t-63.5 -156.5t-157.5 -62.5t-157.5 62.5t-63.5 156.5zM827 522l-51 432q-4 25 -7 53.5 t-5 55.5q-4 29 -4 59h-2q-14 -31 -31 -61q-14 -27 -29.5 -57.5t-27.5 -55.5l-228 -426h385zM158 0h-262l776 1393h276l189 -1393h-252l-37 315h-516z" />
<glyph unicode="&#xc6;" horiz-adv-x="1865" d="M928 961q10 45 18 85.5t17 71.5q8 37 16 68h-2q-20 -33 -43 -68q-20 -29 -44 -63.5t-46 -67.5l-299 -420h297zM1219 1174l-76 -345h594l-47 -219h-594l-82 -391h702l-45 -219h-950l78 360h-412l-268 -360h-283l1047 1393h1034l-45 -219h-653z" />
<glyph unicode="&#xc7;" horiz-adv-x="1314" d="M561 -18q-117 14 -203 63t-141 127t-83 180.5t-28 222.5q0 156 46.5 307.5t135.5 270.5t222 191.5t309 72.5q205 0 337 -100t181 -264l-219 -105q-29 117 -104.5 183.5t-208.5 66.5q-117 0 -203 -54t-141 -140t-82 -196t-27 -220q0 -182 80 -286.5t246 -104.5 q121 0 206 56t140 148l199 -118q-84 -131 -218.5 -217t-332.5 -91l-39 -36q72 -2 121 -40t49 -116q0 -47 -18.5 -81t-47 -56.5t-67.5 -33.5t-78 -11q-63 0 -115 24l31 94q27 -10 44 -12t34 -2q37 0 60.5 17.5t23.5 48.5q0 35 -24.5 49t-57.5 14q-35 0 -76 -20l-47 86z" />
<glyph unicode="&#xc8;" horiz-adv-x="1251" d="M827 1821l138 -297h-201l-223 297h286zM530 1174l-75 -345h667l-47 -219h-667l-82 -391h776l-45 -219h-1020l295 1393h971l-46 -219h-727z" />
<glyph unicode="&#xc9;" horiz-adv-x="1251" d="M1133 1821l-224 -297h-200l137 297h287zM530 1174l-75 -345h667l-47 -219h-667l-82 -391h776l-45 -219h-1020l295 1393h971l-46 -219h-727z" />
<glyph unicode="&#xca;" horiz-adv-x="1251" d="M885 1651l-142 -127h-241l323 297h164l195 -297h-217zM530 1174l-75 -345h667l-47 -219h-667l-82 -391h776l-45 -219h-1020l295 1393h971l-46 -219h-727z" />
<glyph unicode="&#xcb;" horiz-adv-x="1251" d="M989 1784h230l-56 -260h-229zM598 1784h229l-55 -260h-229zM530 1174l-75 -345h667l-47 -219h-667l-82 -391h776l-45 -219h-1020l295 1393h971l-46 -219h-727z" />
<glyph unicode="&#xcc;" horiz-adv-x="559" d="M438 1821l137 -297h-200l-223 297h286zM573 1393l-294 -1393h-242l293 1393h243z" />
<glyph unicode="&#xcd;" horiz-adv-x="559" d="M803 1821l-223 -297h-201l137 297h287zM573 1393l-294 -1393h-242l293 1393h243z" />
<glyph unicode="&#xce;" horiz-adv-x="559" d="M508 1651l-141 -127h-242l324 297h163l195 -297h-217zM573 1393l-294 -1393h-242l293 1393h243z" />
<glyph unicode="&#xcf;" horiz-adv-x="559" d="M614 1784h230l-56 -260h-229zM223 1784h230l-56 -260h-229zM573 1393l-294 -1393h-242l293 1393h243z" />
<glyph unicode="&#xd0;" horiz-adv-x="1425" d="M473 799h344l-43 -207h-344l-80 -371h191q111 0 198.5 14.5t153.5 61.5q61 43 106 111.5t75 145.5t45.5 153.5t15.5 140.5q0 180 -117 258q-68 43 -162 52t-194 9h-109zM61 0l125 592h-196l41 207h198l127 594h338q170 0 286 -26t202 -85q92 -66 142 -167t50 -251 q0 -109 -22.5 -221.5t-67.5 -214.5t-112.5 -188t-159.5 -140q-57 -35 -110.5 -54t-109 -29.5t-117 -13.5t-136.5 -3h-478z" />
<glyph unicode="&#xd1;" horiz-adv-x="1452" d="M1300 1749q-16 -39 -35.5 -77t-47 -68.5t-63.5 -49t-85 -18.5q-41 0 -71.5 10t-63.5 27q-35 16 -64.5 30.5t-52.5 14.5q-35 0 -51 -28.5t-27 -59.5l-149 47q6 25 23.5 61.5t46 70.5t68.5 57.5t93 23.5q39 0 71 -12.5t62 -28.5q29 -16 56.5 -27.5t54.5 -11.5 q35 0 56.5 27.5t31.5 60.5zM37 0l295 1393h246l305 -688q23 -53 47 -109.5t43 -103.5q23 -53 41 -105h2q12 72 28 150q12 66 30 149.5t36 169.5l117 537h239l-295 -1393h-245l-324 748q-29 63 -49.5 115t-34.5 87q-16 41 -26 74h-3q-16 -88 -32 -170q-14 -72 -29.5 -151.5 t-30.5 -145.5l-116 -557h-244z" />
<glyph unicode="&#xd2;" horiz-adv-x="1454" d="M815 1198q-123 0 -211 -55.5t-143 -142.5t-82 -197.5t-27 -220.5q0 -178 80 -281.5t246 -103.5q117 0 206 55t149.5 143t90 199t29.5 221q0 176 -86 279.5t-252 103.5zM106 575q0 156 46.5 307.5t136.5 270.5t226 191.5t314 72.5q133 0 239 -42t179.5 -119.5t112.5 -186 t39 -240.5q0 -158 -44 -310t-135.5 -273t-229.5 -196t-326 -75q-141 0 -246 44t-174.5 123t-103.5 189.5t-34 243.5zM860 1821l137 -297h-200l-224 297h287z" />
<glyph unicode="&#xd3;" horiz-adv-x="1454" d="M815 1198q-123 0 -211 -55.5t-143 -142.5t-82 -197.5t-27 -220.5q0 -178 80 -281.5t246 -103.5q117 0 206 55t149.5 143t90 199t29.5 221q0 176 -86 279.5t-252 103.5zM106 575q0 156 46.5 307.5t136.5 270.5t226 191.5t314 72.5q133 0 239 -42t179.5 -119.5t112.5 -186 t39 -240.5q0 -158 -44 -310t-135.5 -273t-229.5 -196t-326 -75q-141 0 -246 44t-174.5 123t-103.5 189.5t-34 243.5zM1182 1821l-224 -297h-200l137 297h287z" />
<glyph unicode="&#xd4;" horiz-adv-x="1454" d="M815 1198q-123 0 -211 -55.5t-143 -142.5t-82 -197.5t-27 -220.5q0 -178 80 -281.5t246 -103.5q117 0 206 55t149.5 143t90 199t29.5 221q0 176 -86 279.5t-252 103.5zM106 575q0 156 46.5 307.5t136.5 270.5t226 191.5t314 72.5q133 0 239 -42t179.5 -119.5t112.5 -186 t39 -240.5q0 -158 -44 -310t-135.5 -273t-229.5 -196t-326 -75q-141 0 -246 44t-174.5 123t-103.5 189.5t-34 243.5zM913 1651l-141 -127h-242l324 297h164l194 -297h-217z" />
<glyph unicode="&#xd5;" horiz-adv-x="1454" d="M815 1198q-123 0 -211 -55.5t-143 -142.5t-82 -197.5t-27 -220.5q0 -178 80 -281.5t246 -103.5q117 0 206 55t149.5 143t90 199t29.5 221q0 176 -86 279.5t-252 103.5zM106 575q0 156 46.5 307.5t136.5 270.5t226 191.5t314 72.5q133 0 239 -42t179.5 -119.5t112.5 -186 t39 -240.5q0 -158 -44 -310t-135.5 -273t-229.5 -196t-326 -75q-141 0 -246 44t-174.5 123t-103.5 189.5t-34 243.5zM1260 1749q-16 -39 -36 -77t-47.5 -68.5t-63.5 -49t-85 -18.5q-41 0 -71.5 10t-63.5 27q-35 16 -64.5 30.5t-52.5 14.5q-35 0 -51 -28.5t-27 -59.5l-149 47 q6 25 23.5 61.5t46 70.5t68.5 57.5t93 23.5q39 0 71 -12.5t62 -28.5q29 -16 56.5 -27.5t54.5 -11.5q35 0 56.5 27.5t31.5 60.5z" />
<glyph unicode="&#xd6;" horiz-adv-x="1454" d="M815 1198q-123 0 -211 -55.5t-143 -142.5t-82 -197.5t-27 -220.5q0 -178 80 -281.5t246 -103.5q117 0 206 55t149.5 143t90 199t29.5 221q0 176 -86 279.5t-252 103.5zM106 575q0 156 46.5 307.5t136.5 270.5t226 191.5t314 72.5q133 0 239 -42t179.5 -119.5t112.5 -186 t39 -240.5q0 -158 -44 -310t-135.5 -273t-229.5 -196t-326 -75q-141 0 -246 44t-174.5 123t-103.5 189.5t-34 243.5zM999 1784h230l-55 -260h-230zM608 1784h230l-56 -260h-229z" />
<glyph unicode="&#xd7;" horiz-adv-x="1466" d="M584 610l-428 428l155 156l428 -428l432 428l156 -154l-432 -430l432 -432l-156 -155l-432 432l-430 -432l-153 155z" />
<glyph unicode="&#xd8;" horiz-adv-x="1511" d="M854 1198q-123 0 -211 -55.5t-143.5 -142.5t-82 -197.5t-26.5 -220.5v-9l715 521q-88 104 -252 104zM1192 815q0 12 -1 25.5t-1 25.5l-739 -538q41 -63 106.5 -97t159.5 -34q117 0 206 55t149.5 143t90 198.5t29.5 221.5zM145 575q0 156 45.5 307.5t135.5 270.5 t225 191.5t317 72.5q141 0 251 -47t184 -133l192 141l135 -190l-219 -160q27 -88 27 -199q0 -158 -44 -310t-135.5 -273t-229.5 -196t-327 -75q-160 0 -272.5 54.5t-179.5 152.5l-176 -129l-140 189l226 164q-8 41 -11.5 82.5t-3.5 86.5z" />
<glyph unicode="&#xd9;" horiz-adv-x="1378" d="M872 1821l138 -297h-201l-223 297h286zM602 -25q-121 0 -212 30t-151.5 84t-90 130t-29.5 166q0 39 7 89t17 104l170 815h244l-172 -815q-10 -45 -17.5 -87t-7.5 -83q0 -213 258 -213q78 0 138.5 17t107.5 60q74 68 119 275l178 846h240l-178 -858q-33 -160 -83 -265.5 t-128 -169.5q-68 -55 -171.5 -90t-238.5 -35z" />
<glyph unicode="&#xda;" horiz-adv-x="1378" d="M1174 1821l-224 -297h-200l137 297h287zM602 -25q-121 0 -212 30t-151.5 84t-90 130t-29.5 166q0 39 7 89t17 104l170 815h244l-172 -815q-10 -45 -17.5 -87t-7.5 -83q0 -213 258 -213q78 0 138.5 17t107.5 60q74 68 119 275l178 846h240l-178 -858q-33 -160 -83 -265.5 t-128 -169.5q-68 -55 -171.5 -90t-238.5 -35z" />
<glyph unicode="&#xdb;" horiz-adv-x="1378" d="M920 1651l-142 -127h-241l323 297h164l195 -297h-218zM602 -25q-121 0 -212 30t-151.5 84t-90 130t-29.5 166q0 39 7 89t17 104l170 815h244l-172 -815q-10 -45 -17.5 -87t-7.5 -83q0 -213 258 -213q78 0 138.5 17t107.5 60q74 68 119 275l178 846h240l-178 -858 q-33 -160 -83 -265.5t-128 -169.5q-68 -55 -171.5 -90t-238.5 -35z" />
<glyph unicode="&#xdc;" horiz-adv-x="1378" d="M1014 1784h229l-55 -260h-230zM623 1784h229l-55 -260h-230zM602 -25q-121 0 -212 30t-151.5 84t-90 130t-29.5 166q0 39 7 89t17 104l170 815h244l-172 -815q-10 -45 -17.5 -87t-7.5 -83q0 -213 258 -213q78 0 138.5 17t107.5 60q74 68 119 275l178 846h240l-178 -858 q-33 -160 -83 -265.5t-128 -169.5q-68 -55 -171.5 -90t-238.5 -35z" />
<glyph unicode="&#xdd;" horiz-adv-x="1247" d="M371 0l112 545l-319 848h244l235 -629l500 629h282l-698 -848l-113 -545h-243zM1092 1821l-224 -297h-200l137 297h287z" />
<glyph unicode="&#xde;" horiz-adv-x="1294" d="M698 555q98 0 152.5 11.5t95.5 39.5q43 29 68.5 82t25.5 131q0 66 -24.5 101.5t-65.5 50.5q-35 12 -79 15t-93 3h-291l-94 -434h305zM569 1393l-41 -189h252q123 0 202 -15t138 -48q76 -41 122 -120t46 -192q0 -135 -61.5 -248.5t-179.5 -179.5q-29 -16 -61 -27.5 t-75 -19.5t-99 -12t-132 -4h-332l-67 -338h-242l291 1393h239z" />
<glyph unicode="&#xdf;" horiz-adv-x="1015" d="M356 184q37 -6 76 -6q61 0 100 20.5t65 56.5t41 86t30 112q20 84 20 139q0 72 -43 96.5t-139 24.5h-41l41 192h37q45 0 83 10.5t66.5 33t45 56t16.5 82.5q0 55 -35 87t-96 32q-80 0 -123 -61q-23 -33 -35 -78t-23 -100l-204 -967h-232l211 1008q20 94 45 156.5t66 113.5 q49 63 123.5 96t179.5 33q94 0 160.5 -24.5t108.5 -66.5t61.5 -95.5t19.5 -110.5q0 -98 -48 -177t-126 -116q53 -35 84 -83t31 -124q0 -47 -7.5 -93t-17.5 -93q-25 -111 -60.5 -192.5t-93 -136t-137.5 -80t-192 -25.5q-23 0 -49.5 2t-47.5 6z" />
<glyph unicode="&#xe0;" horiz-adv-x="1052" d="M623 1393l131 -263h-201l-207 263h277zM926 639q-4 -14 -17.5 -79.5t-29.5 -141.5q-20 -88 -43 -195q-6 -29 -7 -43q0 -39 54 -39h14l-33 -155q-6 -2 -32.5 -6.5t-77.5 -4.5q-59 0 -101.5 20.5t-46.5 72.5q-39 -33 -102.5 -63t-169.5 -30q-61 0 -117.5 16.5t-99.5 50.5 t-68.5 86t-25.5 122q0 160 101 234.5t282 99.5l253 34q25 4 34 10.5t14 28.5l4 19q4 16 5 24.5t1 20.5q0 51 -44 71.5t-118 20.5q-96 0 -150.5 -39t-66.5 -127l-221 12q10 92 53 156t106.5 103.5t143.5 57t166 17.5q78 0 142.5 -14t111.5 -45t73.5 -77t26.5 -109 q0 -31 -5 -58.5t-9 -50.5zM662 451q-29 -10 -82.5 -17.5t-100.5 -15.5t-88 -17.5t-70.5 -27t-47 -43t-17.5 -66.5q0 -59 46 -85.5t112 -26.5q80 0 140 40.5t75 106.5z" />
<glyph unicode="&#xe1;" horiz-adv-x="1052" d="M870 1393l-206 -263h-201l131 263h276zM926 639q-4 -14 -17.5 -79.5t-29.5 -141.5q-20 -88 -43 -195q-6 -29 -7 -43q0 -39 54 -39h14l-33 -155q-6 -2 -32.5 -6.5t-77.5 -4.5q-59 0 -101.5 20.5t-46.5 72.5q-39 -33 -102.5 -63t-169.5 -30q-61 0 -117.5 16.5t-99.5 50.5 t-68.5 86t-25.5 122q0 160 101 234.5t282 99.5l253 34q25 4 34 10.5t14 28.5l4 19q4 16 5 24.5t1 20.5q0 51 -44 71.5t-118 20.5q-96 0 -150.5 -39t-66.5 -127l-221 12q10 92 53 156t106.5 103.5t143.5 57t166 17.5q78 0 142.5 -14t111.5 -45t73.5 -77t26.5 -109 q0 -31 -5 -58.5t-9 -50.5zM662 451q-29 -10 -82.5 -17.5t-100.5 -15.5t-88 -17.5t-70.5 -27t-47 -43t-17.5 -66.5q0 -59 46 -85.5t112 -26.5q80 0 140 40.5t75 106.5z" />
<glyph unicode="&#xe2;" horiz-adv-x="1052" d="M530 1130h-225l297 263h156l188 -263h-203l-86 103zM926 639q-4 -14 -17.5 -79.5t-29.5 -141.5q-20 -88 -43 -195q-6 -29 -7 -43q0 -39 54 -39h14l-33 -155q-6 -2 -32.5 -6.5t-77.5 -4.5q-59 0 -101.5 20.5t-46.5 72.5q-39 -33 -102.5 -63t-169.5 -30q-61 0 -117.5 16.5 t-99.5 50.5t-68.5 86t-25.5 122q0 160 101 234.5t282 99.5l253 34q25 4 34 10.5t14 28.5l4 19q4 16 5 24.5t1 20.5q0 51 -44 71.5t-118 20.5q-96 0 -150.5 -39t-66.5 -127l-221 12q10 92 53 156t106.5 103.5t143.5 57t166 17.5q78 0 142.5 -14t111.5 -45t73.5 -77t26.5 -109 q0 -31 -5 -58.5t-9 -50.5zM662 451q-29 -10 -82.5 -17.5t-100.5 -15.5t-88 -17.5t-70.5 -27t-47 -43t-17.5 -66.5q0 -59 46 -85.5t112 -26.5q80 0 140 40.5t75 106.5z" />
<glyph unicode="&#xe3;" horiz-adv-x="1052" d="M926 639q-4 -14 -17.5 -79.5t-29.5 -141.5q-20 -88 -43 -195q-6 -29 -7 -43q0 -39 54 -39h14l-33 -155q-6 -2 -32.5 -6.5t-77.5 -4.5q-59 0 -101.5 20.5t-46.5 72.5q-39 -33 -102.5 -63t-169.5 -30q-61 0 -117.5 16.5t-99.5 50.5t-68.5 86t-25.5 122q0 160 101 234.5 t282 99.5l253 34q25 4 34 10.5t14 28.5l4 19q4 16 5 24.5t1 20.5q0 51 -44 71.5t-118 20.5q-96 0 -150.5 -39t-66.5 -127l-221 12q10 92 53 156t106.5 103.5t143.5 57t166 17.5q78 0 142.5 -14t111.5 -45t73.5 -77t26.5 -109q0 -31 -5 -58.5t-9 -50.5zM662 451 q-29 -10 -82.5 -17.5t-100.5 -15.5t-88 -17.5t-70.5 -27t-47 -43t-17.5 -66.5q0 -59 46 -85.5t112 -26.5q80 0 140 40.5t75 106.5zM979 1333q-16 -39 -35.5 -76.5t-47.5 -68.5t-63.5 -49.5t-84.5 -18.5q-41 0 -72 10.5t-64 26.5q-35 16 -64.5 30.5t-51.5 14.5 q-35 0 -51.5 -28.5t-26.5 -59.5l-150 47q6 25 23.5 62t46.5 70.5t68.5 57t93.5 23.5q39 0 70.5 -12t62.5 -29q29 -16 56.5 -27.5t53.5 -11.5q35 0 56.5 28t31.5 60z" />
<glyph unicode="&#xe4;" horiz-adv-x="1052" d="M754 1372h221l-51 -242h-222zM371 1372h221l-51 -242h-222zM926 639q-4 -14 -17.5 -79.5t-29.5 -141.5q-20 -88 -43 -195q-6 -29 -7 -43q0 -39 54 -39h14l-33 -155q-6 -2 -32.5 -6.5t-77.5 -4.5q-59 0 -101.5 20.5t-46.5 72.5q-39 -33 -102.5 -63t-169.5 -30 q-61 0 -117.5 16.5t-99.5 50.5t-68.5 86t-25.5 122q0 160 101 234.5t282 99.5l253 34q25 4 34 10.5t14 28.5l4 19q4 16 5 24.5t1 20.5q0 51 -44 71.5t-118 20.5q-96 0 -150.5 -39t-66.5 -127l-221 12q10 92 53 156t106.5 103.5t143.5 57t166 17.5q78 0 142.5 -14t111.5 -45 t73.5 -77t26.5 -109q0 -31 -5 -58.5t-9 -50.5zM662 451q-29 -10 -82.5 -17.5t-100.5 -15.5t-88 -17.5t-70.5 -27t-47 -43t-17.5 -66.5q0 -59 46 -85.5t112 -26.5q80 0 140 40.5t75 106.5z" />
<glyph unicode="&#xe5;" horiz-adv-x="1052" d="M926 639q-4 -14 -17.5 -79.5t-29.5 -141.5q-20 -88 -43 -195q-6 -29 -7 -43q0 -39 54 -39h14l-33 -155q-6 -2 -32.5 -6.5t-77.5 -4.5q-59 0 -101.5 20.5t-46.5 72.5q-39 -33 -102.5 -63t-169.5 -30q-61 0 -117.5 16.5t-99.5 50.5t-68.5 86t-25.5 122q0 160 101 234.5 t282 99.5l253 34q25 4 34 10.5t14 28.5l4 19q4 16 5 24.5t1 20.5q0 51 -44 71.5t-118 20.5q-96 0 -150.5 -39t-66.5 -127l-221 12q10 92 53 156t106.5 103.5t143.5 57t166 17.5q78 0 142.5 -14t111.5 -45t73.5 -77t26.5 -109q0 -31 -5 -58.5t-9 -50.5zM662 451 q-29 -10 -82.5 -17.5t-100.5 -15.5t-88 -17.5t-70.5 -27t-47 -43t-17.5 -66.5q0 -59 46 -85.5t112 -26.5q80 0 140 40.5t75 106.5zM557 1296q0 -35 23.5 -57t56.5 -22t56.5 22.5t23.5 56.5q0 35 -23.5 57.5t-56.5 22.5t-56.5 -22.5t-23.5 -57.5zM418 1296q0 94 63.5 157 t157.5 63t157.5 -62.5t63.5 -157.5q0 -94 -63.5 -156.5t-157.5 -62.5t-157.5 62.5t-63.5 156.5z" />
<glyph unicode="&#xe6;" horiz-adv-x="1679" d="M1169 815q-98 0 -169.5 -61.5t-92.5 -153.5h465q0 113 -53.5 164t-149.5 51zM662 451q-29 -10 -82.5 -17.5t-100.5 -15.5t-88 -17.5t-70.5 -27t-47 -43t-17.5 -66.5q0 -59 46 -85.5t112 -26.5q80 0 140 40.5t75 106.5zM1554 229q-27 -39 -67.5 -84t-98 -82.5t-133 -62.5 t-174.5 -25q-233 0 -342 150q-20 -23 -53 -48.5t-81 -48t-110.5 -38t-142.5 -15.5q-70 0 -130 16.5t-104 50.5t-69.5 86t-25.5 122q0 160 101 234.5t282 99.5l253 34q25 4 34 10.5t14 28.5l4 19q4 16 5 24.5t1 20.5q0 51 -44 71.5t-118 20.5q-96 0 -150.5 -39t-66.5 -127 l-221 12q10 92 53 156t106.5 103.5t143.5 57t166 17.5q98 0 174 -24.5t123 -71.5q63 47 140 74.5t167 27.5q104 0 180 -32.5t125 -90t73.5 -134t24.5 -162.5q0 -37 -4 -78t-12 -72h-698v-29q0 -119 67.5 -173t159.5 -54q96 0 168 48t117 124z" />
<glyph unicode="&#xe7;" horiz-adv-x="1015" d="M764 647q-6 29 -20.5 56.5t-38 50t-56.5 37t-78 14.5q-74 0 -129 -36t-92 -93.5t-55.5 -128t-18.5 -137.5q0 -117 55.5 -176.5t149.5 -59.5q86 0 141.5 45t90.5 111l194 -99q-27 -47 -65.5 -93t-93 -82t-125 -58.5t-156.5 -22.5h-4l-39 -36q72 -2 121 -40t49 -116 q0 -47 -18.5 -81t-47 -56.5t-67.5 -33.5t-78 -11q-63 0 -115 24l31 94q27 -10 44 -12t34 -2q37 0 60.5 17.5t23.5 48.5q0 35 -24.5 49t-57.5 14q-35 0 -76 -20l-47 86l100 86q-147 29 -226 134t-79 277q0 115 37 223.5t105.5 192.5t169 135t227.5 51q88 0 152.5 -22.5 t110.5 -61t75.5 -90t46.5 -108.5z" />
<glyph unicode="&#xe8;" horiz-adv-x="1077" d="M610 1393l131 -263h-200l-207 263h276zM567 815q-98 0 -169.5 -61.5t-92.5 -153.5h465q0 113 -53.5 164t-149.5 51zM952 229q-27 -39 -67.5 -84t-98 -82.5t-133 -62.5t-174.5 -25q-205 0 -315.5 115t-110.5 330q0 113 38 217t108.5 185t169 129t219.5 48q104 0 180 -32.5 t125 -90t73.5 -134t24.5 -162.5q0 -37 -4 -78t-12 -72h-699v-29q0 -119 68 -173t160 -54q96 0 167.5 48t116.5 124z" />
<glyph unicode="&#xe9;" horiz-adv-x="1077" d="M891 1393l-207 -263h-201l131 263h277zM567 815q-98 0 -169.5 -61.5t-92.5 -153.5h465q0 113 -53.5 164t-149.5 51zM952 229q-27 -39 -67.5 -84t-98 -82.5t-133 -62.5t-174.5 -25q-205 0 -315.5 115t-110.5 330q0 113 38 217t108.5 185t169 129t219.5 48q104 0 180 -32.5 t125 -90t73.5 -134t24.5 -162.5q0 -37 -4 -78t-12 -72h-699v-29q0 -119 68 -173t160 -54q96 0 167.5 48t116.5 124z" />
<glyph unicode="&#xea;" horiz-adv-x="1077" d="M524 1130h-225l297 263h156l188 -263h-203l-86 103zM567 815q-98 0 -169.5 -61.5t-92.5 -153.5h465q0 113 -53.5 164t-149.5 51zM952 229q-27 -39 -67.5 -84t-98 -82.5t-133 -62.5t-174.5 -25q-205 0 -315.5 115t-110.5 330q0 113 38 217t108.5 185t169 129t219.5 48 q104 0 180 -32.5t125 -90t73.5 -134t24.5 -162.5q0 -37 -4 -78t-12 -72h-699v-29q0 -119 68 -173t160 -54q96 0 167.5 48t116.5 124z" />
<glyph unicode="&#xeb;" horiz-adv-x="1077" d="M743 1372h222l-52 -242h-221zM360 1372h222l-52 -242h-221zM567 815q-98 0 -169.5 -61.5t-92.5 -153.5h465q0 113 -53.5 164t-149.5 51zM952 229q-27 -39 -67.5 -84t-98 -82.5t-133 -62.5t-174.5 -25q-205 0 -315.5 115t-110.5 330q0 113 38 217t108.5 185t169 129 t219.5 48q104 0 180 -32.5t125 -90t73.5 -134t24.5 -162.5q0 -37 -4 -78t-12 -72h-699v-29q0 -119 68 -173t160 -54q96 0 167.5 48t116.5 124z" />
<glyph unicode="&#xec;" horiz-adv-x="491" d="M328 1393l131 -263h-201l-207 263h277zM240 0h-232l205 975h233z" />
<glyph unicode="&#xed;" horiz-adv-x="491" d="M664 1393l-207 -263h-201l131 263h277zM240 0h-232l205 975h233z" />
<glyph unicode="&#xee;" horiz-adv-x="491" d="M262 1130h-225l297 263h155l189 -263h-203l-86 103zM240 0h-232l205 975h233z" />
<glyph unicode="&#xef;" horiz-adv-x="491" d="M494 1372h221l-51 -242h-222zM111 1372h221l-51 -242h-222zM240 0h-232l205 975h233z" />
<glyph unicode="&#xf0;" horiz-adv-x="1089" d="M573 807q-72 0 -127 -37t-92 -94.5t-55 -129t-18 -140.5q0 -111 49 -172.5t133 -61.5q76 0 132 38t93 97.5t54.5 132t17.5 142.5q0 109 -50.5 167t-136.5 58zM940 1159q23 -68 47.5 -167t24.5 -247q0 -141 -30 -279t-95.5 -247.5t-171 -177.5t-258.5 -68q-186 0 -296 111 t-110 309q0 115 36 224.5t102.5 195.5t163 139.5t216.5 53.5q86 0 139.5 -29t79.5 -62q-10 59 -24 107.5t-35 81.5l-211 -62l-49 172l174 52q-23 35 -37 55t-35 49l183 103q29 -35 55.5 -70t52.5 -82l205 65l45 -178z" />
<glyph unicode="&#xf1;" horiz-adv-x="1116" d="M1040 1333q-16 -39 -35.5 -76.5t-47 -68.5t-63.5 -49.5t-85 -18.5q-41 0 -71.5 10.5t-63.5 26.5q-35 16 -64.5 30.5t-52.5 14.5q-35 0 -51.5 -28.5t-26.5 -59.5l-149 47q6 25 23.5 62t46 70.5t68.5 57t93 23.5q39 0 71 -12t62 -29q29 -16 56.5 -27.5t54.5 -11.5 q35 0 56.5 28t31.5 60zM874 0h-231l100 475q8 39 17.5 86t9.5 90q0 59 -28.5 102.5t-114.5 43.5q-61 0 -108.5 -29t-83.5 -75t-58.5 -102t-34.5 -110l-102 -481h-234l207 975h233l-32 -141q47 78 129 121.5t186 43.5q55 0 106.5 -15t90.5 -48t62.5 -84t23.5 -121 q0 -33 -5.5 -79t-15.5 -99z" />
<glyph unicode="&#xf2;" horiz-adv-x="1093" d="M608 1393l131 -263h-200l-207 263h276zM571 805q-74 0 -129 -37t-92 -94.5t-55.5 -129t-18.5 -138.5q0 -113 55.5 -172.5t149.5 -59.5q76 0 131.5 36t91 93t53 128t17.5 140q0 111 -52.5 172.5t-150.5 61.5zM51 393q0 115 36 224.5t104.5 194.5t170 136t234.5 51 q201 0 304.5 -115.5t103.5 -305.5q0 -109 -32 -216.5t-97.5 -193.5t-166 -139.5t-239.5 -53.5q-199 0 -308.5 112.5t-109.5 305.5z" />
<glyph unicode="&#xf3;" horiz-adv-x="1093" d="M913 1393l-206 -263h-201l131 263h276zM571 805q-74 0 -129 -37t-92 -94.5t-55.5 -129t-18.5 -138.5q0 -113 55.5 -172.5t149.5 -59.5q76 0 131.5 36t91 93t53 128t17.5 140q0 111 -52.5 172.5t-150.5 61.5zM51 393q0 115 36 224.5t104.5 194.5t170 136t234.5 51 q201 0 304.5 -115.5t103.5 -305.5q0 -109 -32 -216.5t-97.5 -193.5t-166 -139.5t-239.5 -53.5q-199 0 -308.5 112.5t-109.5 305.5z" />
<glyph unicode="&#xf4;" horiz-adv-x="1093" d="M524 1130h-225l297 263h156l188 -263h-203l-86 103zM571 805q-74 0 -129 -37t-92 -94.5t-55.5 -129t-18.5 -138.5q0 -113 55.5 -172.5t149.5 -59.5q76 0 131.5 36t91 93t53 128t17.5 140q0 111 -52.5 172.5t-150.5 61.5zM51 393q0 115 36 224.5t104.5 194.5t170 136 t234.5 51q201 0 304.5 -115.5t103.5 -305.5q0 -109 -32 -216.5t-97.5 -193.5t-166 -139.5t-239.5 -53.5q-199 0 -308.5 112.5t-109.5 305.5z" />
<glyph unicode="&#xf5;" horiz-adv-x="1093" d="M1018 1333q-16 -39 -35.5 -76.5t-47.5 -68.5t-63.5 -49.5t-85.5 -18.5q-41 0 -71.5 10.5t-63.5 26.5q-35 16 -64.5 30.5t-51.5 14.5q-35 0 -51.5 -28.5t-26.5 -59.5l-150 47q6 25 23.5 62t46.5 70.5t68.5 57t93.5 23.5q39 0 70.5 -12t62.5 -29q29 -16 56.5 -27.5 t53.5 -11.5q35 0 56.5 28t31.5 60zM571 805q-74 0 -129 -37t-92 -94.5t-55.5 -129t-18.5 -138.5q0 -113 55.5 -172.5t149.5 -59.5q76 0 131.5 36t91 93t53 128t17.5 140q0 111 -52.5 172.5t-150.5 61.5zM51 393q0 115 36 224.5t104.5 194.5t170 136t234.5 51 q201 0 304.5 -115.5t103.5 -305.5q0 -109 -32 -216.5t-97.5 -193.5t-166 -139.5t-239.5 -53.5q-199 0 -308.5 112.5t-109.5 305.5z" />
<glyph unicode="&#xf6;" horiz-adv-x="1093" d="M760 1372h221l-51 -242h-221zM377 1372h221l-51 -242h-221zM571 805q-74 0 -129 -37t-92 -94.5t-55.5 -129t-18.5 -138.5q0 -113 55.5 -172.5t149.5 -59.5q76 0 131.5 36t91 93t53 128t17.5 140q0 111 -52.5 172.5t-150.5 61.5zM51 393q0 115 36 224.5t104.5 194.5 t170 136t234.5 51q201 0 304.5 -115.5t103.5 -305.5q0 -109 -32 -216.5t-97.5 -193.5t-166 -139.5t-239.5 -53.5q-199 0 -308.5 112.5t-109.5 305.5z" />
<glyph unicode="&#xf7;" horiz-adv-x="1556" d="M891 975v-270h-264v270h264zM891 270v-270h-264v270h264zM72 379v217h1376v-217h-1376z" />
<glyph unicode="&#xf8;" horiz-adv-x="1097" d="M573 805q-72 0 -126 -35t-91 -90t-56 -123t-21 -135l411 350q-49 33 -117 33zM483 174q76 0 131.5 36t91 93t53 128t17.5 140v9l-426 -363q51 -43 133 -43zM53 393q0 115 36 224.5t104.5 194.5t170 136t234.5 51q84 0 149.5 -21.5t114.5 -59.5l109 92l127 -154l-119 -102 q27 -78 27 -176q0 -109 -32 -216.5t-97.5 -193.5t-166 -139.5t-239.5 -53.5q-184 0 -291 97l-98 -84l-133 155l123 105q-19 63 -19 145z" />
<glyph unicode="&#xf9;" horiz-adv-x="1105" d="M653 1393l131 -263h-200l-207 263h276zM201 975h231l-100 -475q-8 -39 -17.5 -86t-9.5 -90q0 -59 27.5 -102.5t116.5 -43.5q55 0 101 29t81 75t58.5 102t35.5 110l102 481h234l-207 -975h-233l32 141q-47 -78 -128 -122t-181 -44q-57 0 -108.5 16.5t-89 50.5t-60.5 85 t-23 121q0 33 5.5 77t15.5 97z" />
<glyph unicode="&#xfa;" horiz-adv-x="1105" d="M946 1393l-207 -263h-200l131 263h276zM201 975h231l-100 -475q-8 -39 -17.5 -86t-9.5 -90q0 -59 27.5 -102.5t116.5 -43.5q55 0 101 29t81 75t58.5 102t35.5 110l102 481h234l-207 -975h-233l32 141q-47 -78 -128 -122t-181 -44q-57 0 -108.5 16.5t-89 50.5t-60.5 85 t-23 121q0 33 5.5 77t15.5 97z" />
<glyph unicode="&#xfb;" horiz-adv-x="1105" d="M561 1130h-225l297 263h155l189 -263h-203l-86 103zM201 975h231l-100 -475q-8 -39 -17.5 -86t-9.5 -90q0 -59 27.5 -102.5t116.5 -43.5q55 0 101 29t81 75t58.5 102t35.5 110l102 481h234l-207 -975h-233l32 141q-47 -78 -128 -122t-181 -44q-57 0 -108.5 16.5t-89 50.5 t-60.5 85t-23 121q0 33 5.5 77t15.5 97z" />
<glyph unicode="&#xfc;" horiz-adv-x="1105" d="M791 1372h221l-51 -242h-222zM408 1372h221l-51 -242h-222zM201 975h231l-100 -475q-8 -39 -17.5 -86t-9.5 -90q0 -59 27.5 -102.5t116.5 -43.5q55 0 101 29t81 75t58.5 102t35.5 110l102 481h234l-207 -975h-233l32 141q-47 -78 -128 -122t-181 -44q-57 0 -108.5 16.5 t-89 50.5t-60.5 85t-23 121q0 33 5.5 77t15.5 97z" />
<glyph unicode="&#xfd;" horiz-adv-x="946" d="M-53 -207q16 -4 35.5 -6t42.5 -2q43 0 72.5 10t53 32.5t43 57.5t42.5 84l-140 1006h242l53 -522q4 -35 6 -71t6 -65q4 -35 7 -67h2q12 29 26 61q12 29 27.5 64t32.5 71l247 529h246l-553 -1092q-39 -78 -73.5 -129t-73.5 -84q-47 -41 -108.5 -59.5t-149.5 -18.5 q-37 0 -70 4.5t-55 8.5zM864 1393l-223 -297h-201l138 297h286z" />
<glyph unicode="&#xfe;" horiz-adv-x="1128" d="M-74 -389l375 1782h234l-113 -539q49 72 125 108.5t162 36.5q68 0 128 -23.5t105 -71.5t71.5 -120.5t26.5 -171.5q0 -127 -34.5 -242.5t-100 -202.5t-159 -139.5t-207.5 -52.5q-90 0 -165 41t-106 109l-110 -514h-232zM618 807q-72 0 -126 -40t-89.5 -100.5t-53 -132 t-17.5 -137.5q0 -98 43 -161.5t139 -63.5q70 0 124 39t91 98.5t56.5 131t19.5 137.5q0 102 -44.5 165.5t-142.5 63.5z" />
<glyph unicode="&#xff;" horiz-adv-x="946" d="M700 1372h222l-52 -242h-221zM317 1372h222l-52 -242h-221zM-53 -207q16 -4 35.5 -6t42.5 -2q43 0 72.5 10t53 32.5t43 57.5t42.5 84l-140 1006h242l53 -522q4 -35 6 -71t6 -65q4 -35 7 -67h2q12 29 26 61q12 29 27.5 64t32.5 71l247 529h246l-553 -1092 q-39 -78 -73.5 -129t-73.5 -84q-47 -41 -108.5 -59.5t-149.5 -18.5q-37 0 -70 4.5t-55 8.5z" />
<glyph unicode="&#x132;" horiz-adv-x="1241" d="M1266 1393l-230 -1061q-18 -86 -43.5 -147.5t-64.5 -102.5q-59 -66 -150.5 -88.5t-189.5 -22.5q-53 0 -105.5 5.5t-93.5 13.5l47 207q29 -4 62.5 -8.5t68.5 -4.5q49 0 89 9.5t69 33.5q35 29 56.5 80t39.5 137l203 949h242zM573 1393l-294 -1393h-242l293 1393h243z" />
<glyph unicode="&#x133;" horiz-adv-x="993" d="M989 1155h-233l51 238h233zM950 975l-243 -1139q-10 -43 -21.5 -81t-34.5 -66q-41 -55 -101.5 -77t-137.5 -22q-90 0 -170 21l43 190q18 -4 40.5 -6t47.5 -2q23 0 41 4t35 17q12 10 22 29.5t18 58.5l228 1073h233zM483 1155h-233l51 238h234zM240 0h-232l205 975h233z " />
<glyph unicode="&#x152;" horiz-adv-x="1843" d="M651 215q33 0 61.5 5t51.5 13l197 922q-33 20 -74 32.5t-94 12.5q-109 0 -193 -56.5t-141.5 -144.5t-86 -196.5t-28.5 -214.5q0 -180 76.5 -276.5t230.5 -96.5zM1210 1174l-75 -345h579l-47 -219h-580l-81 -391h688l-45 -219h-936l8 18q-29 -10 -63.5 -15t-82.5 -5 q-92 0 -176 35t-148.5 106.5t-103 181t-38.5 259.5q0 180 53 332.5t145 264t216 175t268 63.5q68 0 119 -10t98 -35l4 23h882l-45 -219h-639z" />
<glyph unicode="&#x153;" horiz-adv-x="1765" d="M1255 815q-98 0 -169.5 -61.5t-92.5 -157.5h465q0 113 -53.5 166t-149.5 53zM571 805q-74 0 -129 -37t-92 -94.5t-55.5 -129t-18.5 -138.5q0 -113 55.5 -172.5t149.5 -59.5q76 0 131.5 36t91 93t53 128t17.5 140q0 111 -52.5 172.5t-150.5 61.5zM1640 229 q-27 -39 -67.5 -84t-98 -82.5t-133 -62.5t-174.5 -25q-225 0 -338 142q-66 -66 -154.5 -104t-205.5 -38q-199 0 -308.5 113t-109.5 305q0 115 36 224.5t104.5 194.5t170 136t234.5 51q111 0 192.5 -36.5t133.5 -104.5q68 66 157.5 103.5t198.5 37.5q102 0 178 -32.5t125 -89 t73.5 -133t24.5 -162.5q0 -39 -3 -77t-13 -79h-698v-25q0 -119 67.5 -173t159.5 -54q96 0 168 48t117 124z" />
<glyph unicode="&#x178;" horiz-adv-x="1247" d="M920 1784h229l-55 -260h-230zM528 1784h230l-56 -260h-229zM371 0l112 545l-319 848h244l235 -629l500 629h282l-698 -848l-113 -545h-243z" />
<glyph unicode="&#x2c6;" horiz-adv-x="999" d="M582 1130h-226l297 263h156l188 -263h-202l-86 103z" />
<glyph unicode="&#x2dc;" horiz-adv-x="968" d="M922 1333q-16 -39 -36 -76.5t-47.5 -68.5t-63.5 -49.5t-85 -18.5q-41 0 -71.5 10.5t-63.5 26.5q-35 16 -64.5 30.5t-52.5 14.5q-35 0 -51 -28.5t-27 -59.5l-149 47q6 25 23.5 62t46 70.5t68.5 57t93 23.5q39 0 71 -12t62 -29q29 -16 56.5 -27.5t54.5 -11.5q35 0 56.5 28 t31.5 60z" />
<glyph unicode="&#x2000;" horiz-adv-x="958" />
<glyph unicode="&#x2001;" horiz-adv-x="1917" />
<glyph unicode="&#x2002;" horiz-adv-x="958" />
<glyph unicode="&#x2003;" horiz-adv-x="1917" />
<glyph unicode="&#x2004;" horiz-adv-x="639" />
<glyph unicode="&#x2005;" horiz-adv-x="479" />
<glyph unicode="&#x2006;" horiz-adv-x="319" />
<glyph unicode="&#x2007;" horiz-adv-x="319" />
<glyph unicode="&#x2008;" horiz-adv-x="239" />
<glyph unicode="&#x2009;" horiz-adv-x="383" />
<glyph unicode="&#x200a;" horiz-adv-x="106" />
<glyph unicode="&#x2010;" horiz-adv-x="833" d="M94 438l47 221h584l-47 -221h-584z" />
<glyph unicode="&#x2011;" horiz-adv-x="833" d="M94 438l47 221h584l-47 -221h-584z" />
<glyph unicode="&#x2012;" horiz-adv-x="833" d="M94 438l47 221h584l-47 -221h-584z" />
<glyph unicode="&#x2013;" horiz-adv-x="1288" d="M90 432l49 227h1043l-49 -227h-1043z" />
<glyph unicode="&#x2014;" horiz-adv-x="1675" d="M90 432l49 227h1430l-49 -227h-1430z" />
<glyph unicode="&#x2018;" horiz-adv-x="485" d="M160 838l47 209q16 72 38.5 148.5t71.5 125.5q39 39 95.5 62.5t138.5 27.5l-35 -158q-61 -6 -89 -49t-38 -96h94l-59 -270h-264z" />
<glyph unicode="&#x2019;" horiz-adv-x="479" d="M555 1393l-47 -209q-16 -72 -39 -149t-72 -126q-39 -39 -95 -62.5t-138 -27.5l35 158q61 6 88.5 49t38.5 96h-95l60 271h264z" />
<glyph unicode="&#x201a;" horiz-adv-x="491" d="M315 270l-47 -209q-16 -72 -38.5 -148.5t-71.5 -125.5q-39 -39 -95.5 -62.5t-138.5 -27.5l35 158q61 6 89 49t38 96h-94l59 270h264z" />
<glyph unicode="&#x201c;" horiz-adv-x="856" d="M530 838l48 209q16 72 38.5 148.5t71.5 125.5q39 39 95.5 62.5t138.5 27.5l-35 -158q-61 -6 -89 -49t-38 -96h94l-59 -270h-265zM160 838l47 209q16 72 38.5 148.5t71.5 125.5q39 39 95.5 62.5t138.5 27.5l-35 -158q-61 -6 -89 -49t-38 -96h94l-59 -270h-264z" />
<glyph unicode="&#x201d;" horiz-adv-x="849" d="M555 1393l-47 -209q-16 -72 -39 -149t-72 -126q-39 -39 -95 -62.5t-138 -27.5l35 158q61 6 88.5 49t38.5 96h-95l60 271h264zM926 1393l-47 -209q-16 -72 -39 -149t-72 -126q-39 -39 -95.5 -62.5t-137.5 -27.5l34 158q61 6 89 49t38 96h-94l60 271h264z" />
<glyph unicode="&#x201e;" horiz-adv-x="862" d="M315 270l-47 -209q-16 -72 -38.5 -148.5t-71.5 -125.5q-39 -39 -95.5 -62.5t-138.5 -27.5l35 158q61 6 89 49t38 96h-94l59 270h264zM686 270l-47 -209q-16 -72 -38.5 -148.5t-72.5 -125.5q-39 -39 -95 -62.5t-138 -27.5l35 158q61 6 88.5 49t38.5 96h-95l60 270h264z " />
<glyph unicode="&#x2022;" horiz-adv-x="870" d="M145 682q0 63 25 120.5t65.5 98.5t97 65.5t120.5 24.5q63 0 119.5 -24.5t98.5 -65.5t65.5 -98.5t23.5 -120.5t-23.5 -119.5t-65.5 -97.5t-98.5 -65.5t-119.5 -24.5t-120 24.5t-97.5 65.5t-65.5 97.5t-25 119.5z" />
<glyph unicode="&#x2026;" horiz-adv-x="1859" d="M315 270l-59 -270h-264l59 270h264zM1683 270l-59 -270h-264l59 270h264zM997 270l-59 -270h-264l59 270h264z" />
<glyph unicode="&#x202f;" horiz-adv-x="383" />
<glyph unicode="&#x2030;" horiz-adv-x="2816" d="M2243 317q0 -84 28.5 -120.5t69.5 -36.5q43 0 76.5 31.5t57.5 82t36 111.5t12 123q0 66 -23.5 112t-72.5 46t-84 -34t-57.5 -85t-32.5 -113t-10 -117zM2441 848q43 0 92.5 -14.5t92.5 -51.5t70.5 -101.5t27.5 -162.5q0 -96 -25.5 -191.5t-76 -173t-123 -125.5t-166.5 -48 q-147 0 -219 90t-72 243q0 96 26.5 192.5t78 172.5t125 123t169.5 47zM344 881q0 -84 28.5 -121t69.5 -37q43 0 77 31.5t57.5 82t36 112t12.5 122.5q0 66 -23.5 112t-73.5 46q-49 0 -83.5 -34t-57 -85t-33 -112.5t-10.5 -116.5zM543 1411q43 0 92 -14.5t92 -51t70.5 -101 t27.5 -163.5q0 -96 -25.5 -191t-75.5 -173t-123 -126t-167 -48q-147 0 -219 90t-72 244q0 96 27 192t78 172t125 123t170 47zM1409 317q0 -84 28.5 -120.5t69.5 -36.5q43 0 77 31.5t57.5 82t36 111.5t12.5 123q0 66 -24 112t-73 46t-83.5 -34t-57 -85t-33 -113t-10.5 -117z M651 0h-219l934 1393h215zM1608 848q43 0 92 -14.5t92 -51.5t70.5 -101.5t27.5 -162.5q0 -96 -25.5 -191.5t-75.5 -173t-123 -125.5t-167 -48q-147 0 -219 90t-72 243q0 96 27 192.5t78 172.5t125 123t170 47z" />
<glyph unicode="&#x2039;" horiz-adv-x="530" d="M68 469l59 260l371 262l-60 -270l-215 -137l154 -160l-49 -240z" />
<glyph unicode="&#x203a;" horiz-adv-x="530" d="M467 707l-59 -261l-371 -262l61 277l215 137l-153 160l47 233z" />
<glyph unicode="&#x205f;" horiz-adv-x="479" />
<glyph unicode="&#x20ac;" horiz-adv-x="1316" d="M502 739l-13 -108h369l-106 -205h-263q14 -131 70.5 -184.5t140.5 -53.5q92 0 165 64.5t120 167.5l213 -94q-39 -76 -89 -140.5t-113.5 -110.5t-139.5 -73t-166 -27q-207 0 -319.5 122t-128.5 329h-207l106 205l103 6l12 102h-156l111 207h98q35 98 89.5 183t127 149.5 t162.5 101.5t197 37q174 0 284.5 -99t139.5 -284l-234 -76q-10 115 -62 181.5t-151 66.5q-55 0 -101 -20.5t-83 -55t-66.5 -82t-50.5 -102.5h457l-109 -207h-407z" />
<glyph unicode="&#x2122;" horiz-adv-x="1931" d="M1649 512v324v70.5t2 64.5q0 35 2 67h-4q-10 -33 -19 -67q-10 -29 -20.5 -66t-20.5 -71l-98 -322h-139l-111 344q-10 29 -18.5 61.5t-16.5 61.5q-8 33 -16 63h-4q0 -39 2 -75q0 -31 1 -65t1 -56v-334h-174v881h215l112 -318q16 -49 31 -94t25 -80q12 -39 22 -74h4 q8 35 28 107t42 141l104 318h222v-881h-172zM268 1393h674v-170h-246v-707h-182v707h-246v170z" />
<glyph unicode="&#x2190;" horiz-adv-x="1642" d="M1550 385h-1104l402 -385h-291l-485 487l485 486h291l-402 -383h1104v-205z" />
<glyph unicode="&#x2192;" horiz-adv-x="1642" d="M1085 973l486 -486l-486 -487h-290l401 385h-1104v205h1102l-399 383h290z" />
<glyph unicode="&#x25fc;" horiz-adv-x="972" d="M0 973h973v-973h-973v973z" />
<glyph horiz-adv-x="1953" d="M1806 586h-1357l595 -586h-286l-697 696l697 697h286l-598 -588h1141v588h219v-807z" />
<glyph horiz-adv-x="1251" d="M350 537q0 -188 60.5 -267.5t156.5 -79.5q88 0 159 58.5t121 154t76.5 216t26.5 247.5q0 152 -49 243t-166 91q-88 0 -159.5 -56.5t-122 -148.5t-77 -211.5t-26.5 -246.5zM748 1411q76 0 154.5 -22.5t144 -82t107.5 -162t42 -261.5q0 -154 -37 -313.5t-115.5 -292 t-199.5 -216.5t-287 -84q-115 0 -199 39t-140 110t-84 170t-28 222q0 160 41 319.5t123 287.5t201 207t277 79z" />
<glyph horiz-adv-x="815" d="M535 0h-240l188 905h-379l41 191h62q84 0 143.5 15t106.5 44q61 39 99 98.5t58 139.5h215z" />
<glyph horiz-adv-x="1159" d="M193 842q-16 61 -17 125q0 92 35 174t98.5 143.5t154.5 97t206 35.5q106 0 192 -29.5t144.5 -83t90 -128t31.5 -162.5q0 -143 -70.5 -264t-178 -221.5t-235.5 -181.5t-243 -142v-2q43 0 97 2q45 2 104.5 3t124.5 1h283l-47 -209h-971l33 188q57 31 124.5 73t136 88 t138.5 95.5t135 96.5q61 45 119.5 95t104.5 106.5t75 120t29 134.5q0 94 -58.5 152.5t-169.5 58.5q-68 0 -115.5 -21.5t-79.5 -57t-47.5 -84t-15.5 -101.5q0 -74 25 -143z" />
<glyph horiz-adv-x="1169" d="M264 475q2 -61 20.5 -114.5t53.5 -92.5t86 -61.5t121 -22.5q72 0 122 21.5t81.5 55.5t46 77t14.5 86q0 137 -129 188q-49 18 -107.5 21.5t-140.5 3.5h-39l33 190h123q63 0 113.5 7.5t91.5 27.5q49 23 79.5 67t30.5 111q0 68 -49 120t-164 52q-109 0 -175 -56t-87 -163 l-207 60q8 63 41 128.5t92.5 118t146.5 85t204 32.5q113 0 195.5 -27.5t137 -74.5t81 -110.5t26.5 -135.5q0 -74 -22.5 -130t-56.5 -98t-75 -70t-80 -42q35 -23 66 -52.5t54.5 -67.5t36.5 -86t13 -109q0 -86 -30.5 -166t-94 -140.5t-157.5 -96.5t-219 -36q-233 0 -357.5 122 t-138.5 325z" />
<glyph horiz-adv-x="1177" d="M1116 512l-45 -209h-219l-64 -303h-233l61 303h-630l37 184l798 906h262l-186 -881h219zM659 512l50 233q18 86 36.5 170t40.5 162h-6q-29 -47 -82 -115.5t-135 -162.5l-250 -287h346z" />
<glyph horiz-adv-x="1155" d="M111 662l219 731h811l-60 -219h-592l-86 -265q31 23 91.5 40.5t136.5 17.5q92 0 171 -30t137 -86t91 -139t33 -188q0 -117 -35 -217t-103.5 -174t-171 -116t-235.5 -42q-102 0 -183 29t-141.5 78t-98.5 115.5t-56 142.5l229 80q8 -47 29.5 -89t55.5 -74t81 -50.5 t105 -18.5q63 0 115.5 24t90 65.5t58 100t20.5 128.5q0 119 -71.5 190.5t-182.5 71.5q-106 0 -169.5 -51t-92.5 -131z" />
<glyph horiz-adv-x="1212" d="M590 190q63 0 114.5 26t87 69t54 97t18.5 112q0 121 -63.5 186t-182.5 65q-80 0 -154.5 -37.5t-117.5 -105.5q-6 -43 -6 -86q0 -66 13.5 -125t44 -104t77.5 -71t115 -26zM961 987q-12 98 -68.5 154.5t-157.5 56.5q-66 0 -122 -28.5t-101 -77t-75.5 -113t-47.5 -135.5 q51 53 128 79.5t163 26.5q76 0 151.5 -24.5t136 -76.5t97.5 -134t37 -195q0 -117 -39 -216t-109.5 -172t-167 -114t-213.5 -41q-219 0 -341.5 143.5t-122.5 393.5q0 178 44 341t126.5 286t202.5 196.5t270 73.5q104 0 181 -29.5t128 -81t78.5 -120t34.5 -144.5z" />
<glyph horiz-adv-x="1128" d="M1231 1200q-51 -51 -107.5 -113.5t-109.5 -128.5q-174 -215 -307.5 -458.5t-212.5 -499.5h-281q43 147 112.5 292.5t155.5 287.5q104 162 218 312t237 286h-518q-12 -59 -26.5 -121t-26.5 -121h-232l96 457h1043z" />
<glyph horiz-adv-x="1230" d="M455 1018q0 -72 54 -123t167 -51q125 0 185.5 53t60.5 143q0 76 -57.5 124t-168.5 48q-61 0 -106 -16t-76 -44t-45 -62.5t-14 -71.5zM299 399q0 -96 71.5 -156.5t194.5 -60.5q133 0 213 63.5t80 180.5q0 100 -70.5 156.5t-193.5 56.5q-76 0 -131 -19.5t-92 -52t-54.5 -77 t-17.5 -91.5zM61 377q0 135 78 233.5t213 151.5q-51 35 -92 100.5t-41 173.5q0 82 36 150.5t101.5 119t156.5 79t202 28.5q219 0 334.5 -97t115.5 -251q0 -63 -18.5 -116.5t-50 -95.5t-73.5 -72.5t-91 -51.5q70 -49 121 -126t51 -191q0 -92 -35 -172t-104.5 -138.5 t-171 -91.5t-234.5 -33q-121 0 -214 29t-155.5 82t-95.5 126t-33 163z" />
<glyph horiz-adv-x="1214" d="M674 1200q-66 0 -116 -25.5t-86 -68.5t-54.5 -97.5t-18.5 -111.5q0 -121 63.5 -186.5t182.5 -65.5q80 0 154.5 38t118.5 105q6 43 6 86q0 66 -13.5 125.5t-44 103.5t-77.5 70.5t-115 26.5zM303 401q12 -98 68.5 -153t156.5 -55q66 0 122.5 27.5t101.5 75.5t75.5 112.5 t46.5 136.5q-51 -53 -127.5 -80t-162.5 -27q-78 0 -153 24.5t-135 77t-97 133.5t-37 195q0 117 39 216.5t109.5 172t166.5 113.5t213 41q219 0 342 -143.5t123 -393.5q0 -178 -44 -340.5t-127 -285.5t-202.5 -197t-269.5 -74q-104 0 -181 30t-128 81t-79 119.5t-34 144.5z " />
<glyph horiz-adv-x="1638" d="M965 358q-33 -29 -89.5 -52t-152.5 -23q-53 0 -102.5 13t-87 41t-61 73t-23.5 108q0 137 88 200.5t241 86.5l219 31q23 4 30 9t11 23q8 31 9 52q0 84 -140 84q-82 0 -129 -34t-57 -110l-191 10q8 80 45 134.5t92.5 88t124 49t142.5 15.5q133 0 219 -51t86 -160 q0 -27 -4 -51.5t-8 -42.5l-72 -326q-2 -6 -5 -22.5t-3 -32.5q0 -14 7 -24.5t28 -10.5q45 0 88 38t75.5 101.5t52 144.5t19.5 167q0 84 -23.5 163.5t-78.5 141t-144.5 99.5t-220.5 38q-152 0 -272.5 -58.5t-206.5 -157.5t-132 -230t-46 -275q0 -139 43 -241.5t116.5 -171 t171 -102.5t205.5 -34q74 0 150 14.5t149.5 43t142 72.5t126.5 104l41 -182q-135 -113 -293 -166.5t-340 -53.5q-139 0 -266 42t-223.5 129.5t-154 219.5t-57.5 312q0 174 60.5 338t171 290t268.5 202.5t354 76.5q170 0 292 -51t200 -135t113.5 -192.5t35.5 -223.5 q0 -117 -30.5 -230.5t-89 -202.5t-141.5 -143.5t-189 -54.5q-76 0 -121 25.5t-59 64.5h-4v0zM999 690q-25 -10 -70.5 -15t-86.5 -11t-76 -15.5t-61.5 -24t-41 -37t-14.5 -57.5q0 -51 40 -73.5t97 -22.5q68 0 120 35t65 92z" />
<glyph horiz-adv-x="620" d="M213 1536h231v-1716h-231v1716z" />
<glyph horiz-adv-x="1376" d="M823 82h-219v504h-498v217h498v502h219v-502h496v-217h-496v-504z" />
<glyph horiz-adv-x="1511" d="M850 360h-219v322h-498v217h498v406h219v-406h496v-217h-496v-322zM133 82v217h1213v-217h-1213z" />
<glyph horiz-adv-x="1464" d="M600 700l-428 428l156 156l428 -428l432 428l155 -154l-432 -430l432 -432l-155 -155l-432 432l-430 -432l-154 155z" />
<glyph horiz-adv-x="1562" d="M938 1186v-271h-264v271h264zM938 481v-270h-264v270h264zM119 590v217h1376v-217h-1376z" />
<glyph horiz-adv-x="1710" d="M1554 422h-1380v180h1380v-180zM1554 762h-1380v180h1380v-180z" />
<glyph horiz-adv-x="1212" d="M1075 408h-233v368h-701v197h934v-565z" />
<glyph horiz-adv-x="577" d="M174 -203q-92 315 -92 611q0 309 108.5 592.5t346.5 555.5l204 -22q-221 -274 -326.5 -580.5t-105.5 -644.5q0 -119 12.5 -241.5t36.5 -245.5z" />
<glyph horiz-adv-x="575" d="M444 1556q92 -317 93 -610q0 -309 -107.5 -592.5t-345.5 -556.5l-207 23q221 274 326.5 580.5t105.5 643.5q0 119 -12 242t-37 246z" />
<glyph horiz-adv-x="823" d="M121 582l47 221h584l-47 -221h-584z" />
<glyph horiz-adv-x="628" d="M401 -182h-419l364 1718h422l-37 -174h-190l-291 -1368h190z" />
<glyph horiz-adv-x="626" d="M268 1536h420l-364 -1718h-422l37 174h190l291 1368h-191z" />
<glyph horiz-adv-x="671" d="M496 928q-12 -57 -24.5 -93t-27 -59.5t-34 -38t-43.5 -26.5q45 -43 45 -121q0 -49 -12.5 -105.5t-22.5 -109.5l-43 -217q-10 -43 -13.5 -64.5t-3.5 -38.5q0 -23 7.5 -36t26 -20t50 -11t82.5 -4l-34 -166h-41q-66 0 -124.5 6t-101.5 27.5t-67.5 64.5t-24.5 117 q0 41 12.5 104.5t22.5 116.5l43 199q8 39 13 66.5t5 47.5q0 35 -23.5 52.5t-82.5 27.5l37 174q47 0 76.5 13.5t48 39t30 64.5t21.5 92l39 197q18 86 37.5 146.5t55.5 97t93 53t150 16.5q43 0 79.5 -1t59.5 -5l-37 -170q-14 2 -26.5 2h-22.5q-49 0 -78 -10t-46 -34 t-27.5 -58.5t-20.5 -83.5z" />
<glyph horiz-adv-x="667" d="M225 479q12 57 24.5 93t27 59.5t34 38t43.5 26.5q-45 43 -45 121q0 49 12.5 105.5t22.5 109.5l33 168q10 43 13 64.5t3 38.5q0 43 -33.5 56t-128.5 15l35 166h37q66 0 124 -5t101 -26.5t68 -63.5t25 -116q0 -43 -11.5 -106.5t-23.5 -118.5l-33 -150q-8 -39 -13 -66.5 t-5 -47.5q0 -35 23.5 -52.5t82.5 -27.5l-37 -174q-47 0 -76.5 -13.5t-48 -39t-30 -64.5t-21.5 -92l-49 -246q-18 -86 -37.5 -146.5t-55.5 -97.5t-93.5 -53t-149.5 -16q-43 0 -81 1t-60 5l39 170q14 -2 26.5 -2h22.5q49 0 77.5 10t46 33.5t28 58.5t20.5 84z" />
<glyph horiz-adv-x="933" d="M487 551l60 260l371 262l-60 -270l-215 -137l154 -160l-49 -240zM86 551l59 260l371 262l-59 -270l-215 -137l153 -160l-49 -240z" />
<glyph horiz-adv-x="823" d="M117 582l47 221h584l-48 -221h-583z" />
<glyph horiz-adv-x="933" d="M485 788l-59 -260l-371 -262l62 277l215 137l-154 160l47 233zM887 788l-60 -260l-370 -262l61 277l215 137l-153 160l47 233z" />
<glyph horiz-adv-x="1284" d="M119 575l49 228h1042l-49 -228h-1042z" />
<glyph horiz-adv-x="1671" d="M119 575l49 228h1429l-49 -228h-1429z" />
<glyph horiz-adv-x="532" d="M86 551l59 260l371 262l-59 -270l-215 -137l153 -160l-49 -240z" />
<glyph horiz-adv-x="532" d="M485 788l-59 -260l-371 -262l62 277l215 137l-154 160l47 233z" />
<glyph horiz-adv-x="645" d="M225 479h232v-661h-232v661zM225 1536h232v-662h-232v662z" />
<glyph horiz-adv-x="1908" d="M1806 586h-1357l595 -586h-286l-697 696l697 697h286l-598 -588h1360v-219z" />
<glyph horiz-adv-x="1908" d="M1151 1393l696 -697l-696 -696h-287l596 586h-1358v219h1360l-598 588h287z" />
<glyph horiz-adv-x="491" d="M483 1155h-233l51 238h234zM240 0h-232l205 975h233z" />
<glyph d="M328 537q0 -188 60.5 -267.5t156.5 -79.5q88 0 158.5 58.5t120.5 154t77 216t27 247.5q0 152 -49.5 243t-165.5 91q-88 0 -160 -56.5t-122 -148.5t-76.5 -211.5t-26.5 -246.5zM725 1411q76 0 154.5 -22.5t144.5 -82t108 -162t42 -261.5q0 -154 -37 -313.5t-116 -292 t-200 -216.5t-286 -84q-115 0 -199 39t-140.5 110t-84 170t-27.5 222q0 160 41 319.5t123 287.5t200.5 207t276.5 79z" />
<glyph d="M852 1145q-55 55 -139 55q-88 0 -160 -56.5t-122 -148.5t-76.5 -211.5t-26.5 -246.5v-32t2 -30zM406 246q53 -55 139 -56q88 0 158.5 58.5t120.5 154t77 216t27 247.5v21.5t-2 21.5zM725 1411q76 0 154.5 -22.5t144.5 -82t108 -162t42 -261.5q0 -154 -37 -313.5 t-116 -292t-200 -216.5t-286 -84q-115 0 -199 39t-140.5 110t-84 170t-27.5 222q0 160 41 319.5t123 287.5t200.5 207t276.5 79z" />
<glyph d="M731 0h-239l188 905h-379l41 191h61q84 0 143.5 15t106.5 44q61 39 99.5 98.5t58.5 139.5h215z" />
<glyph d="M217 842q-16 61 -16 125q0 92 34.5 174t98 143.5t155 97t205.5 35.5q106 0 192.5 -29.5t145 -83t90 -128t31.5 -162.5q0 -143 -70.5 -264t-178 -221.5t-235.5 -181.5t-243 -142v-2q43 0 96 2q45 2 104.5 3t125.5 1h282l-47 -209h-971l33 188q57 31 125 73t136.5 88 t138 95.5t135.5 96.5q61 45 119.5 95t104.5 106.5t74.5 120t28.5 134.5q0 94 -58 152.5t-169 58.5q-68 0 -116 -21.5t-79.5 -57t-47 -84t-15.5 -101.5q0 -74 25 -143z" />
<glyph d="M283 475q2 -61 20.5 -114.5t53 -92.5t86 -61.5t120.5 -22.5q72 0 122 21.5t82 55.5t46 78t14 87q0 137 -129 188q-49 18 -107.5 21.5t-139.5 3.5h-39l32 190h123q63 0 113.5 7.5t91.5 27.5q49 23 80 66t31 110q0 68 -49.5 120t-163.5 52q-109 0 -175.5 -56t-86.5 -163 l-207 60q8 63 40.5 128.5t92 118t146.5 85t204 32.5q113 0 196 -27.5t137 -74.5t80.5 -110.5t26.5 -135.5q0 -74 -22.5 -130t-56 -97t-74.5 -69t-80 -42q35 -23 65.5 -52.5t54 -67.5t37 -86t13.5 -109q0 -86 -31 -166t-94.5 -141.5t-157.5 -97.5t-219 -36q-233 0 -357 122 t-139 325z" />
<glyph d="M1130 512l-45 -209h-219l-63 -303h-234l62 303h-631l37 184l799 906h262l-187 -881h219zM674 512l49 233q18 86 36.5 170t41.5 162h-6q-29 -47 -82.5 -115.5t-134.5 -162.5l-250 -287h346z" />
<glyph d="M137 662l219 731h811l-59 -219h-592l-86 -265q31 23 91.5 40.5t135.5 17.5q92 0 171 -30t137.5 -86t91.5 -139t33 -188q0 -117 -35 -217t-103.5 -174t-171 -116t-235.5 -42q-102 0 -183 29t-141.5 78t-98.5 115.5t-56 142.5l229 80q8 -47 29.5 -89t55.5 -74t81 -50.5 t104 -18.5q63 0 115.5 24t90.5 65.5t58.5 100t20.5 128.5q0 119 -71.5 190.5t-182.5 71.5q-106 0 -170 -51t-92 -131z" />
<glyph d="M586 188q63 0 114.5 27t87 70t54 98t18.5 113q0 121 -63.5 188.5t-182.5 67.5q-80 0 -154.5 -40t-117.5 -108q-6 -43 -6 -86q0 -66 13 -126t44 -105t78 -72t115 -27zM956 993q-12 98 -68.5 154.5t-156.5 56.5q-66 0 -122 -28.5t-101 -76.5t-76 -112.5t-47 -136.5 q51 53 128 79.5t163 26.5q76 0 151.5 -25.5t136 -77.5t97.5 -135t37 -196q0 -117 -39 -216t-109.5 -173t-167 -116t-213.5 -42q-109 0 -195.5 38t-146 109t-91.5 170t-32 224q0 178 44.5 341t127 288t202.5 198.5t270 73.5q104 0 181 -29.5t128 -81t78.5 -120t33.5 -144.5z " />
<glyph d="M1270 1200q-51 -51 -107.5 -113.5t-109.5 -128.5q-174 -215 -307.5 -458.5t-213.5 -499.5h-280q43 147 112.5 292.5t155.5 287.5q104 162 218 312t237 286h-518q-12 -59 -26.5 -121t-27.5 -121h-231l96 457h1043z" />
<glyph d="M442 1022q0 -72 54.5 -123t167.5 -51q125 0 185 53t60 143q0 76 -57 124.5t-168 48.5q-61 0 -106.5 -16.5t-76 -44.5t-45 -62.5t-14.5 -71.5zM287 401q0 -96 71.5 -158.5t194.5 -62.5q133 0 213 65.5t80 182.5q0 100 -70.5 157.5t-193.5 57.5q-76 0 -131.5 -19.5t-92 -53 t-54 -78t-17.5 -91.5zM49 379q0 135 78 234.5t213 152.5q-51 35 -92 100.5t-41 173.5q0 82 36 151t101.5 119t156.5 78.5t201 28.5q219 0 335 -97t116 -251q0 -63 -18.5 -116.5t-50 -95.5t-73.5 -72.5t-91 -51.5q70 -49 121 -126t51 -193q0 -92 -35 -173t-104.5 -139.5 t-171 -92.5t-234.5 -34q-121 0 -214 30t-155.5 83t-95.5 127t-33 164z" />
<glyph d="M672 1206q-66 0 -116 -25.5t-86 -68.5t-54.5 -98.5t-18.5 -112.5q0 -121 63.5 -189.5t182.5 -68.5q80 0 154.5 38t117.5 105q6 43 7 91q0 66 -13.5 126t-44 105t-77.5 71.5t-115 26.5zM301 399q12 -98 68.5 -153.5t156.5 -55.5q66 0 122.5 28t101.5 76t75.5 112.5 t46.5 136.5q-51 -53 -127.5 -80t-162.5 -27q-78 0 -153 25.5t-135.5 79t-97 135.5t-36.5 196q0 117 39 216.5t109.5 172t166.5 114.5t213 42q109 0 195 -38t146.5 -108.5t92 -170t31.5 -223.5q0 -178 -44 -341t-127 -288t-203 -199t-269 -74q-104 0 -181 30t-128 81 t-79 119.5t-34 144.5z" />
</font>
</defs>
</svg>
