<?xml version="1.0" standalone="no"?>
<!DOCTYPE svg PUBLIC "-//W3C//DTD SVG 1.1//EN" "http://www.w3.org/Graphics/SVG/1.1/DTD/svg11.dtd" >
<svg xmlns="http://www.w3.org/2000/svg" xmlns:xlink="http://www.w3.org/1999/xlink" version="1.1">
<metadata></metadata>
<defs>
<font id="theinhardthairline" horiz-adv-x="1208" >
<font-face units-per-em="2048" ascent="1642" descent="-406" />
<missing-glyph horiz-adv-x="409" />
<glyph unicode="&#xfb01;" horiz-adv-x="968" d="M805 1157h-31v236h31v-236zM805 0h-31v975h31v-975zM594 946h-301v-946h-31v946h-223v29h223v219q0 63 14.5 102t40.5 62q29 25 67 36t79 11q43 0 75.5 -9.5t55.5 -19.5v-30q-27 14 -59.5 22t-71.5 8t-73 -10t-58 -37q-18 -20 -28.5 -51t-10.5 -96v-207h301v-29z" />
<glyph unicode="&#xfb02;" horiz-adv-x="1001" d="M817 0h-31v1393h31v-1393zM594 946h-301v-946h-31v946h-223v29h223v219q0 63 14.5 102t40.5 62q29 25 67 36t79 11q43 0 75.5 -9.5t55.5 -19.5v-30q-27 14 -59.5 22t-71.5 8t-73 -10t-58 -37q-18 -20 -28.5 -51t-10.5 -96v-207h301v-29z" />
<glyph horiz-adv-x="0" />
<glyph horiz-adv-x="682" />
<glyph horiz-adv-x="0" />
<glyph horiz-adv-x="0" />
<glyph unicode="&#xd;" horiz-adv-x="1724" d="M1561 475h-1424l473 -475h-43l-485 489l485 486h43l-473 -471h1393v471h31v-500z" />
<glyph unicode=" "  horiz-adv-x="409" />
<glyph unicode="&#x09;" horiz-adv-x="409" />
<glyph unicode="&#xa0;" horiz-adv-x="409" />
<glyph unicode="!" horiz-adv-x="387" d="M209 0h-31v233h31v-233zM203 360h-19l-6 330v703h31v-703z" />
<glyph unicode="&#x22;" horiz-adv-x="534" d="M383 836h-14l-9 229v328h31v-328zM166 836h-14l-9 229v328h31v-328z" />
<glyph unicode="#" horiz-adv-x="1427" d="M485 483h389l70 424h-391zM1335 907h-360l-68 -424h375v-26h-379l-74 -457h-30l71 457h-389l-73 -457h-31l72 457h-357v26h361l69 424h-377v29h381l74 457h31l-74 -457h391l74 457h31l-74 -457h356v-29z" />
<glyph unicode="$" horiz-adv-x="1159" d="M154 1061q0 -70 25.5 -119t71.5 -85t112.5 -61.5t146.5 -43.5l53 -13v635h-6q-86 0 -159.5 -21.5t-128 -61.5t-85 -98t-30.5 -132zM592 702v-684h12q217 2 332 99.5t117 249.5q0 70 -27 122t-76 88.5t-116.5 61.5t-147.5 41zM94 293q53 -106 175 -185t294 -90v693l-39 10 q-74 14 -145.5 36.5t-127.5 61.5t-92 97.5t-36 144.5q0 80 31.5 142.5t89 106.5t137.5 68.5t176 24.5h6v194h29v-194q143 -6 248.5 -61.5t160.5 -120.5l-10 -35q-72 82 -173 132t-226 54v-641l90 -20q98 -25 174 -53.5t126 -67.5t75.5 -93.5t25.5 -129.5q0 -80 -32.5 -148.5 t-94 -120t-150.5 -80t-202 -28.5h-12v-189h-29v191q-92 4 -171 28.5t-140.5 61.5t-106.5 84t-71 96z" />
<glyph unicode="%" horiz-adv-x="1859" d="M1454 844q-76 0 -130 -33t-88 -90t-50.5 -135t-16.5 -166q0 -90 15.5 -167t49.5 -132t88 -87t132 -32t132 32t88 87t49.5 132t15.5 167q0 88 -16.5 166t-50.5 135t-88 90t-130 33zM1454 -27q-88 0 -148.5 36t-97.5 97.5t-53 142.5t-16 173q0 80 14 160t51 144.5t97.5 105 t152.5 40.5t152.5 -40.5t97.5 -105t51 -144.5t14 -160q0 -92 -16 -173t-53 -142.5t-97.5 -97.5t-148.5 -36zM575 0h-32l725 1393h35zM406 1389q-76 0 -130.5 -33t-88 -90.5t-50 -135t-16.5 -165.5q0 -90 15.5 -167t49 -132.5t88 -87t132.5 -31.5t132 31.5t87.5 87t49 132 t15.5 167.5q0 88 -16.5 165.5t-50 135t-87.5 90.5t-130 33zM406 518q-88 0 -148.5 36t-97.5 97.5t-53.5 142t-16.5 173.5q0 80 14.5 159.5t51.5 144t97 105.5t153 41q92 0 152 -41t97 -105.5t51.5 -144t14.5 -159.5q0 -92 -16.5 -173t-53.5 -142.5t-97 -97.5t-148 -36z" />
<glyph unicode="&#x26;" horiz-adv-x="1196" d="M522 788q63 33 116.5 71t93.5 82t62.5 96.5t22.5 113.5q0 57 -20.5 101t-56 73t-82 44t-95.5 15q-111 0 -181.5 -63.5t-70.5 -163.5q0 -45 12.5 -84t32 -72.5t43 -63.5t47.5 -58zM512 752l-23 -13q-68 -37 -132 -73.5t-115.5 -81.5t-83 -103.5t-31.5 -134.5 q0 -84 33 -147.5t86 -106.5t121.5 -65.5t140.5 -22.5q123 0 235.5 62.5t180.5 189.5zM1065 569q-16 -72 -42 -148.5t-65 -158.5l222 -262h-39l-195 233q-82 -135 -192.5 -196.5t-249.5 -61.5q-80 0 -152.5 22.5t-130 69t-91.5 116t-34 163.5q0 80 31 140.5t84 109.5t127 92 t158 86l-58 68q-23 27 -49.5 57.5t-51 69.5t-40.5 85t-16 103q0 51 19 98.5t55 82t88.5 55t119.5 20.5q74 0 128 -22.5t89 -58.5t51.5 -83t16.5 -96q0 -109 -70.5 -203t-238.5 -184l399 -481q39 86 63.5 162.5t40.5 148.5z" />
<glyph unicode="'" horiz-adv-x="317" d="M166 836h-14l-9 229v328h31v-328z" />
<glyph unicode="(" horiz-adv-x="419" d="M328 -330q-104 199 -159.5 418t-55.5 449q0 223 54 442t155 418l28 -6q-102 -201 -154.5 -416t-52.5 -438q0 -225 53.5 -442.5t161.5 -416.5z" />
<glyph unicode=")" horiz-adv-x="419" d="M61 -322q109 199 162 416t53 443q0 223 -52 438t-154 416l28 6q100 -199 154.5 -418t54.5 -442q0 -229 -55 -448.5t-160 -418.5z" />
<glyph unicode="*" horiz-adv-x="880" d="M457 1059l315 102l8 -28l-317 -101l196 -270l-24 -17l-195 271l-194 -271l-25 19l197 268l-318 103l11 28l315 -104v334h31v-334z" />
<glyph unicode="+" horiz-adv-x="1349" d="M688 1208v-590h580v-28h-580v-590h-29v590h-577v28h577v590h29z" />
<glyph unicode="," horiz-adv-x="313" d="M172 233v-292q0 -109 -14.5 -170.5t-65.5 -96.5v39q27 27 38 73t11 130v317h31z" />
<glyph unicode="-" horiz-adv-x="800" d="M117 563h567v-28h-567v28z" />
<glyph unicode="." horiz-adv-x="313" d="M172 0h-31v233h31v-233z" />
<glyph unicode="/" horiz-adv-x="880" d="M823 1393l-733 -1393h-33l734 1393h32z" />
<glyph unicode="0" horiz-adv-x="1232" d="M616 -25q-137 0 -231 58.5t-151.5 158t-82 229.5t-24.5 273q0 154 29.5 286t90 229.5t153 152.5t216.5 55q125 0 218.5 -55t153 -152.5t89 -229.5t29.5 -286q0 -143 -24.5 -273t-82 -229.5t-152 -158t-231.5 -58.5zM616 1389q-117 0 -202.5 -54.5t-143 -147.5t-85 -220 t-27.5 -273q0 -135 23.5 -259t76.5 -220t141 -153.5t217 -57.5q131 0 219.5 56.5t141.5 151.5t75.5 220t22.5 260q0 145 -27.5 272.5t-84 221.5t-142.5 148.5t-205 54.5z" />
<glyph unicode="1" horiz-adv-x="645" d="M449 0h-31v1092v94q0 23 2 43h-2q-25 -66 -96.5 -114t-215.5 -48h-34q-8 0 -15 2v29q6 -2 15 -2h32q80 0 130.5 15t91.5 44q53 39 71.5 98.5t22.5 139.5h29v-1393z" />
<glyph unicode="2" horiz-adv-x="1110" d="M997 0h-884v29q45 31 110.5 77t138 101t147.5 114.5t140 116.5q61 55 115.5 112.5t96.5 122t66.5 139.5t24.5 165q0 96 -30.5 172t-85 129t-129 82t-162.5 29q-98 0 -173 -32t-125 -85t-75 -122t-25 -140q0 -53 10.5 -104.5t37.5 -102.5l-41 12q-20 49 -28.5 99.5 t-8.5 95.5q0 82 27.5 155.5t82 130t134 89t184.5 32.5q111 0 193.5 -35.5t137 -96t82 -140.5t27.5 -168q0 -104 -36 -193.5t-94 -167t-133 -147.5t-151 -133q-51 -43 -116.5 -93t-127 -95.5t-110.5 -79t-65 -41.5v-2q35 2 88 3t110 1h647v-29z" />
<glyph unicode="3" horiz-adv-x="1124" d="M135 1122q2 39 24.5 90.5t73 97.5t129 76.5t191.5 30.5q102 0 179 -27.5t128 -73.5t77 -108.5t26 -132.5q0 -141 -90.5 -223t-249.5 -109v-2q86 -6 155.5 -31.5t118.5 -69.5t75.5 -109.5t26.5 -153.5t-30.5 -162t-89 -127t-142.5 -83t-188 -30q-193 0 -310.5 90.5 t-134.5 253.5l29 25q6 -94 44 -158.5t96.5 -104.5t130 -58.5t145.5 -18.5q92 0 169 25.5t132 75t87 118t32 154.5q0 104 -46 183t-139 120q-74 33 -165 40t-191 7h-76v29h74q63 0 110.5 3t84 9t66.5 14.5t58 20.5q78 31 132.5 97.5t54.5 174.5q0 66 -25.5 123t-74 99 t-119 67t-160.5 25t-159.5 -24t-120 -62.5t-79 -90t-34.5 -108.5z" />
<glyph unicode="4" horiz-adv-x="1126" d="M705 438v643q0 86 -1.5 157t3.5 114h-2q-20 -41 -65.5 -106.5t-109.5 -158.5l-446 -649h621zM735 1393v-955h334v-28h-334v-410h-30v410h-658v24l655 959h33z" />
<glyph unicode="5" horiz-adv-x="1099" d="M193 694h2q12 31 39.5 69t71.5 71.5t107.5 56t149.5 22.5q90 0 170 -29.5t138.5 -87t92 -142.5t33.5 -193q0 -104 -30.5 -192.5t-89 -154t-144.5 -102.5t-198 -37q-164 0 -274.5 80t-156.5 217l27 21q14 -55 48 -107.5t84 -92.5t119 -64.5t153 -24.5q94 0 173.5 32 t137 91t89.5 143t32 189q0 86 -26 163.5t-78 136t-129 92.5t-179 34q-137 0 -237.5 -80t-137.5 -205l-20 8l43 785h723v-29h-695z" />
<glyph unicode="6" horiz-adv-x="1159" d="M1018 444q0 104 -33 182.5t-89 129.5t-131 76.5t-157 25.5q-80 0 -150.5 -21.5t-128 -59.5t-100.5 -87t-65 -104q14 -281 125.5 -431.5t322.5 -150.5q88 0 163 32t128 89t84 138t31 181zM983 1120q-10 41 -34.5 88t-67.5 87t-106.5 67t-153.5 27q-113 0 -199 -51.5 t-144.5 -144.5t-88 -226t-29.5 -297v-41q57 119 179 188.5t269 69.5q86 0 166 -26.5t141.5 -81t97.5 -137.5t36 -198q0 -96 -28 -181t-83 -148.5t-137 -101.5t-189 -38q-104 0 -193 38t-153.5 121t-100.5 215t-36 321q0 172 32 311t94 235.5t154.5 148.5t213.5 52 q160 0 255 -77.5t130 -192.5z" />
<glyph unicode="7" horiz-adv-x="1021" d="M1006 1368q-104 -150 -199.5 -317.5t-161.5 -325.5q-72 -178 -120 -357.5t-62 -367.5h-31q10 190 62.5 380.5t130.5 371.5q33 80 74.5 162.5t86.5 162.5t92.5 153t90.5 134h-854v-373h-31v402h922v-25z" />
<glyph unicode="8" horiz-adv-x="1196" d="M598 1417q98 0 179 -23.5t138.5 -67.5t88 -107.5t30.5 -143.5q0 -135 -82 -224t-235 -114v-2q70 -8 134 -34.5t113.5 -72.5t78 -111.5t28.5 -149.5q0 -104 -36 -178t-98.5 -121.5t-149.5 -70t-189 -22.5t-189 22.5t-149.5 70t-98.5 121t-36 178.5q0 84 28.5 149.5 t78 111.5t114 72.5t133.5 34.5v2q-154 25 -235.5 114t-81.5 224q0 80 30.5 143.5t88 107.5t138.5 67.5t179 23.5zM598 4q217 0 329.5 97.5t112.5 265.5q0 82 -31.5 148.5t-90 112.5t-140.5 70.5t-180 24.5t-180 -24.5t-140.5 -70.5t-90 -112.5t-31.5 -148.5 q0 -168 112.5 -265.5t329.5 -97.5zM598 750q88 0 163 22.5t129 64.5t84 102t30 136q0 141 -105.5 227.5t-300.5 86.5t-300 -86t-105 -228q0 -76 29.5 -136t83.5 -102t128 -64.5t164 -22.5z" />
<glyph unicode="9" horiz-adv-x="1159" d="M141 948q0 -104 33 -182t89 -129t130 -76.5t158 -25.5q80 0 150.5 21.5t128 59t100.5 87t65 104.5q-14 281 -125.5 431.5t-322.5 150.5q-88 0 -163 -32t-128 -89.5t-84 -138.5t-31 -181zM176 272q10 -41 35 -88t68 -87t106.5 -66.5t153.5 -26.5q113 0 198.5 51t144 144.5 t88 226.5t29.5 297v41q-57 -119 -179 -188.5t-269 -69.5q-86 0 -166 26.5t-141.5 81t-97 137.5t-35.5 197q0 94 27.5 180t82.5 149.5t137 101.5t189 38q104 0 193 -38t153.5 -120.5t100.5 -215t36 -320.5q0 -172 -31.5 -311.5t-94 -235.5t-155 -148.5t-212.5 -52.5 q-160 0 -255.5 78t-129.5 193z" />
<glyph unicode=":" horiz-adv-x="348" d="M190 741h-30v234h30v-234zM190 0h-30v233h30v-233z" />
<glyph unicode=";" horiz-adv-x="366" d="M203 233v-292q0 -109 -14.5 -170.5t-65.5 -96.5v39q27 27 38 73t11 130v317h31zM203 741h-31v234h31v-234z" />
<glyph unicode="&#x3c;" horiz-adv-x="1642" d="M1548 -33l-1489 707v26l1489 705v-31l-1458 -686l1458 -688v-33z" />
<glyph unicode="=" horiz-adv-x="1804" d="M213 795h1378v-29h-1378v29zM213 436h1378v-28h-1378v28z" />
<glyph unicode="&#x3e;" horiz-adv-x="1642" d="M94 0l1458 688l-1458 686v31l1489 -705v-26l-1489 -707v33z" />
<glyph unicode="?" horiz-adv-x="913" d="M438 0h-30v227h30v-227zM438 322h-30v47q0 37 4 68.5t19 61t42 62.5t74 74l92 84q80 72 124 152.5t44 187.5q0 68 -24.5 128t-70.5 105t-111.5 71t-147.5 26q-86 0 -150.5 -27t-107.5 -73t-64.5 -106.5t-21.5 -127.5q0 -39 7 -77t19 -77l-37 8q-12 37 -17 71t-5 75 q0 76 25.5 142.5t73.5 115.5t117.5 76.5t160.5 27.5q92 0 163.5 -27.5t120.5 -76.5t75 -113.5t26 -138.5q0 -63 -13.5 -114.5t-38 -95.5t-58.5 -83t-75 -76l-53 -47q-51 -47 -83 -77.5t-49 -60.5t-23.5 -62.5t-6.5 -84.5v-38z" />
<glyph unicode="@" horiz-adv-x="1675" d="M1100 555q-6 -6 -22.5 -11t-38 -9.5t-45 -8.5t-44.5 -8l-123 -22q-53 -10 -102 -22.5t-86 -34t-59.5 -58.5t-22.5 -94q0 -102 68.5 -159.5t173.5 -57.5q76 0 132 27.5t94 76.5t56.5 115.5t18.5 142.5v123zM1231 80q59 0 115.5 36t99.5 102.5t69.5 158.5t26.5 203 q0 119 -44 235.5t-127 207.5t-205 147.5t-275 56.5q-160 0 -296 -55.5t-236.5 -157t-157 -243.5t-56.5 -314t57.5 -314.5t159 -244t241.5 -156.5t306 -55q186 0 333 70.5t249 199.5l22 -27q-104 -129 -254.5 -200.5t-349.5 -71.5q-178 0 -324.5 58.5t-251 163t-161.5 252 t-57 325.5q0 180 59 327.5t162.5 252t246 161.5t308.5 57t293 -59t214 -154.5t131 -216t44 -245.5t-30 -223.5t-78 -166t-109.5 -102.5t-126.5 -35q-76 0 -102.5 40t-26.5 108v29.5t2 37.5h-2q-10 -39 -31.5 -78.5t-58.5 -72.5t-89.5 -53.5t-121.5 -20.5q-127 0 -200 65.5 t-73 178.5q0 55 18.5 94t53.5 64.5t84 42t111 28.5l239 45q29 6 48.5 15.5t19.5 44.5v38q0 111 -57.5 168.5t-194.5 57.5q-127 0 -194.5 -59.5t-69.5 -170.5l-29 13q-2 119 79 182t214 63q78 0 135 -17t94 -60q27 -31 40 -77t13 -124v-412q0 -66 20 -104.5t81 -38.5z" />
<glyph unicode="A" horiz-adv-x="1148" d="M573 1358q-10 -31 -39.5 -115t-66.5 -182l-211 -565h635l-211 563q-43 117 -68.5 193.5t-36.5 105.5h-2zM590 1393l516 -1393h-33l-172 467h-655l-170 -467h-33l516 1393h31z" />
<glyph unicode="B" horiz-adv-x="1308" d="M1106 1055q0 111 -45 174t-119 94q-57 23 -125.5 32t-150.5 9h-439v-623h490q184 0 286.5 77t102.5 237zM227 713v-682h461q203 0 316 59q72 39 111.5 107.5t39.5 173.5q0 176 -114.5 259t-323.5 83h-490zM1141 1055q0 -147 -87 -230.5t-229 -95.5v-2 q180 -10 272.5 -106.5t92.5 -249.5q0 -123 -53.5 -208t-169.5 -126q-51 -18 -115 -27.5t-150 -9.5h-505v1393h495q129 0 221 -27q104 -29 166 -102.5t62 -208.5z" />
<glyph unicode="C" horiz-adv-x="1292" d="M1202 334q-68 -168 -195.5 -263.5t-316.5 -95.5q-137 0 -242.5 51.5t-178 145.5t-109.5 227t-37 297t38 297t110.5 227.5t178 145.5t240.5 51q98 0 177 -24.5t140.5 -69.5t106.5 -107.5t76 -138.5l-25 -28q-63 158 -175.5 249t-299.5 91q-127 0 -227.5 -49.5t-169 -139.5 t-104 -218t-35.5 -286t35.5 -285.5t105.5 -218t169 -139.5t226 -49q178 0 302 95.5t188 258.5z" />
<glyph unicode="D" horiz-adv-x="1347" d="M227 29h361q86 0 148.5 10t109.5 29q92 35 156.5 99t106.5 147t61.5 181.5t19.5 202.5q0 186 -55.5 324.5t-157.5 226.5q-45 39 -94 61.5t-108.5 35t-131.5 15.5t-160 3h-256v-1335zM481 1393q80 0 147.5 -2t127 -11.5t111 -29t100.5 -52.5q115 -82 186.5 -233.5 t71.5 -366.5q0 -82 -13.5 -165.5t-41 -160.5t-73.5 -144.5t-110 -116.5q-33 -25 -69.5 -45.5t-84 -35t-111 -22.5t-147.5 -8h-378v1393h284z" />
<glyph unicode="E" horiz-adv-x="1140" d="M1065 0h-868v1393h825v-29h-795v-629h721v-28h-721v-678h838v-29z" />
<glyph unicode="F" horiz-adv-x="1026" d="M197 0v1393h786v-29h-756v-629h682v-28h-682v-707h-30z" />
<glyph unicode="G" horiz-adv-x="1337" d="M690 4q147 0 257 58.5t169 170.5q23 47 36 101.5t13 132.5v176h-508v29h539v-672h-31v131v66.5t2 62.5q2 33 4 64h-2q-10 -66 -44.5 -128.5t-93 -111.5t-143.5 -79t-198 -30q-137 0 -242.5 51.5t-178 145.5t-109.5 227t-37 297t38 297t110.5 227.5t178 145.5t240.5 51 q98 0 177 -24.5t140.5 -69.5t106.5 -107.5t76 -138.5l-25 -28q-63 158 -175.5 249t-299.5 91q-127 0 -227.5 -49.5t-169 -139.5t-104 -218t-35.5 -286t35.5 -285.5t105.5 -218t169 -139.5t226 -49z" />
<glyph unicode="H" horiz-adv-x="1347" d="M1151 0h-29v707h-895v-707h-30v1393h30v-658h895v658h29v-1393z" />
<glyph unicode="I" horiz-adv-x="423" d="M227 0h-30v1393h30v-1393z" />
<glyph unicode="J" horiz-adv-x="993" d="M807 1393v-891q0 -55 -1 -102.5t-5 -88.5q-18 -197 -137 -280q-90 -61 -240 -62q-84 0 -153.5 17.5t-120 60.5t-78 113.5t-27.5 175.5l31 14v-8q0 -80 18.5 -143.5t59.5 -108.5t107.5 -68.5t162.5 -23.5q135 0 213 51t113 156q16 51 21 111.5t5 123.5v953h31z" />
<glyph unicode="K" horiz-adv-x="1214" d="M1196 0h-39l-582 838l-348 -353v-485h-30v1393h30v-867l869 867h41l-537 -535z" />
<glyph unicode="L" horiz-adv-x="1044" d="M227 29h801v-29h-831v1393h30v-1364z" />
<glyph unicode="M" horiz-adv-x="1490" d="M1294 1393v-1393h-30v989q0 45 -1 101.5t-1 109.5t1 97t3 67h-2q-10 -41 -40 -125t-67 -188l-383 -1051h-35l-379 993q-18 51 -39.5 105.5t-40 104.5t-33 92t-22.5 69h-2q2 -25 3 -73t1 -105.5v-116.5v-104v-965h-30v1393h45l436 -1149q29 -72 47 -122t31 -91h2 q12 41 29.5 93t46.5 126l415 1143h45z" />
<glyph unicode="N" horiz-adv-x="1323" d="M1087 0l-747 1174l-115 186h-2q0 -23 1 -42.5t2 -41t1 -49v-64.5v-1163h-30v1393h41l747 -1172l111 -180h2q0 37 -1 82t-1 121v1149h30v-1393h-39z" />
<glyph unicode="O" horiz-adv-x="1380" d="M154 696q0 -158 35.5 -285.5t104 -218t168 -139.5t228.5 -49t229.5 49t168 139.5t103.5 218.5t36 285q0 156 -35 284t-102.5 218t-168 140.5t-231.5 50.5q-129 0 -229.5 -50.5t-169 -140.5t-103 -218t-34.5 -284zM123 696q0 164 38 297t110.5 227.5t178 145.5t240.5 51 t241.5 -51t178.5 -145.5t109.5 -227.5t37.5 -297t-36.5 -297t-108.5 -227t-178.5 -145.5t-243.5 -51.5t-242.5 51.5t-178 145.5t-109.5 227t-37 297z" />
<glyph unicode="P" horiz-adv-x="1202" d="M641 674q98 0 174 12t141 49q68 39 108 111t40 174q0 123 -59.5 204t-163.5 113q-51 16 -117 21.5t-143 5.5h-394v-690h414zM227 0h-30v1393h438q72 0 126 -4.5t95 -14.5q125 -27 202 -117t77 -237q0 -100 -39 -180t-125 -129q-53 -31 -129 -48.5t-209 -17.5h-406v-645z " />
<glyph unicode="Q" horiz-adv-x="1394" d="M154 696q0 -158 35.5 -285.5t104 -218t168 -139.5t228.5 -49t229.5 49t168 139.5t103.5 218.5t36 285q0 156 -35 284t-102.5 218t-168 140.5t-231.5 50.5q-129 0 -229.5 -50.5t-169 -140.5t-103 -218t-34.5 -284zM123 696q0 164 38 297t110.5 227.5t178 145.5t240.5 51 t241.5 -51t178.5 -145.5t109.5 -227.5t37.5 -297q0 -322 -137 -512l203 -190l-23 -25l-200 187q-72 -88 -174.5 -134.5t-235.5 -46.5q-137 0 -242.5 51.5t-178 145.5t-109.5 227t-37 297z" />
<glyph unicode="R" horiz-adv-x="1251" d="M641 682q98 0 174 12.5t141 48.5q68 39 108 109t40 172q0 123 -59.5 202t-163.5 111q-51 16 -117 21.5t-143 5.5h-394v-682h414zM672 653h-445v-653h-30v1393h438q72 0 126 -4.5t95 -14.5q125 -27 202 -115t77 -235q0 -100 -39 -178t-125 -127q-47 -27 -105.5 -43.5 t-156.5 -20.5l460 -655h-36z" />
<glyph unicode="S" horiz-adv-x="1177" d="M104 285q27 -57 76 -108.5t114.5 -90.5t146.5 -60.5t173 -21.5q109 0 192 27.5t140.5 75t87 112t29.5 141.5q0 72 -26.5 124.5t-76 90t-117 62.5t-147.5 43l-161 41q-74 16 -146 38.5t-128 61.5t-92 98.5t-36 149.5q0 80 32 144.5t89 109.5t137 69.5t176 24.5 q78 0 145.5 -15.5t125 -42t101.5 -60t73 -68.5l-11 -35q-76 90 -186 142.5t-248 50.5q-86 0 -159.5 -21.5t-128 -62.5t-85 -100.5t-30.5 -135.5q0 -72 25.5 -122t71.5 -87t112.5 -62.5t146.5 -43.5l172 -43q98 -25 174 -53.5t126 -68.5t76 -95.5t26 -133.5q0 -82 -33 -152.5 t-94.5 -121.5t-150.5 -81t-202 -30q-102 0 -186 24t-151.5 62.5t-115.5 89t-77 103.5z" />
<glyph unicode="T" horiz-adv-x="1052" d="M23 1393h1007v-29h-489v-1364h-31v1364h-487v29z" />
<glyph unicode="U" horiz-adv-x="1363" d="M682 0q156 0 256 50t154 159q14 31 25 62.5t18.5 71.5t10.5 91t3 117v842h31v-877q0 -106 -12.5 -179t-41.5 -134q-51 -113 -159.5 -172.5t-284.5 -59.5t-284.5 59.5t-159.5 172.5q-29 61 -41.5 134t-12.5 179v877h31v-842q0 -66 3 -117t10.5 -91t18.5 -71.5t25 -62.5 q53 -109 153.5 -159t256.5 -50z" />
<glyph unicode="V" horiz-adv-x="1107" d="M467 291q29 -86 49.5 -147.5t34.5 -114.5q14 47 36.5 111.5t51.5 148.5l395 1104h31l-496 -1393h-37l-481 1393h31z" />
<glyph unicode="W" horiz-adv-x="1720" d="M1229 0l-242 895q-12 41 -30.5 110.5t-37 140.5t-34 131t-21.5 85h-2q-4 -20 -19.5 -81.5t-35 -134.5t-37.5 -143.5t-29 -109.5l-237 -893h-43l-400 1393h33l295 -1028q12 -41 26.5 -89.5t28 -95.5t23.5 -87t14 -62h2q4 20 13.5 58t21.5 84t25.5 96t25.5 96l275 1028h41 l278 -1031q12 -47 26.5 -98t26 -97t20.5 -83t13 -53h2q4 20 14.5 58t22.5 83t25.5 94t25.5 92l277 1035h31l-375 -1393h-43z" />
<glyph unicode="X" horiz-adv-x="1112" d="M573 725l512 -725h-36l-494 700l-492 -700h-36l512 725l-469 668h34l451 -643l453 643h34z" />
<glyph unicode="Y" horiz-adv-x="1077" d="M553 0h-31v594l-491 799h32l476 -768l481 768h33l-502 -799z" />
<glyph unicode="Z" horiz-adv-x="1110" d="M891 1227q16 25 33.5 48t31.5 44q16 23 33 45v2q-16 -2 -37 -2h-94h-774v29h942v-25l-838 -1202q-16 -25 -33.5 -49.5t-31.5 -44.5q-16 -23 -33 -43v-2h37q16 0 41 1t53 1h834v-29h-1002v25z" />
<glyph unicode="[" horiz-adv-x="528" d="M465 -324h-291v1717h291v-29h-260v-1659h260v-29z" />
<glyph unicode="\" horiz-adv-x="880" d="M90 1393l733 -1393h-32l-734 1393h33z" />
<glyph unicode="]" horiz-adv-x="528" d="M63 -295h261v1659h-261v29h291v-1717h-291v29z" />
<glyph unicode="^" horiz-adv-x="927" d="M498 1393l325 -736h-32l-312 709l-311 -709h-33l326 736h37z" />
<glyph unicode="_" horiz-adv-x="1533" d="M227 -254h1080v-29h-1080v29z" />
<glyph unicode="`" horiz-adv-x="819" d="M526 1114l-252 279h37l248 -279h-33z" />
<glyph unicode="a" horiz-adv-x="964" d="M758 578q-16 -14 -64.5 -22.5t-97.5 -18.5l-143 -25q-78 -14 -145.5 -33.5t-112.5 -62.5q-29 -27 -44.5 -65t-15.5 -91q0 -119 75 -187.5t202 -68.5q86 0 150.5 29.5t107.5 84t65.5 128t22.5 162.5v170zM961 -8q-25 -6 -62 -6q-84 0 -112.5 44t-28.5 122q0 14 1 49t5 67 h-2q-8 -55 -32.5 -107t-69 -94t-108 -67t-146.5 -25q-147 0 -224.5 80t-77.5 205q0 115 70 178q41 37 96.5 58.5t151.5 38.5l252 45q47 8 65.5 20t18.5 53v49q0 125 -63.5 196t-225.5 71q-154 0 -233.5 -71t-83.5 -206l-29 17q4 141 97 214.5t249 73.5q152 0 235.5 -66.5 t83.5 -234.5v-524q0 -51 6.5 -81t24.5 -50q12 -12 31.5 -19.5t52.5 -7.5q14 0 30.5 1t27.5 5v-28z" />
<glyph unicode="b" horiz-adv-x="1071" d="M199 821q0 -23 -1 -49.5t-1 -48.5q-2 -27 -2 -55h2q6 49 30.5 107.5t68.5 107.5t109.5 82.5t153.5 33.5q188 0 293.5 -136t105.5 -371q0 -119 -27.5 -214.5t-79.5 -163t-127 -103.5t-167 -36q-90 0 -154.5 32t-107.5 81t-66.5 106.5t-31.5 108.5h-2q0 -29 2 -55 q0 -23 1 -49.5t1 -48.5v-150h-31v1393h31v-572zM197 487q0 -229 98 -356t262 -127q84 0 152.5 34t116.5 97.5t75 153.5t27 203q0 223 -100.5 351t-268.5 128q-82 0 -148.5 -34t-114.5 -96.5t-73.5 -152.5t-25.5 -201z" />
<glyph unicode="c" horiz-adv-x="991" d="M897 211q-51 -111 -143 -173.5t-226 -62.5q-100 0 -177 37t-130 103.5t-80.5 160t-27.5 205.5q0 115 26.5 210t79.5 164t130 106.5t179 37.5q137 0 232.5 -67.5t140.5 -181.5l-24 -29q-41 119 -133.5 184.5t-215.5 65.5q-88 0 -158.5 -34t-120.5 -97.5t-78 -153.5 t-28 -203t29 -201.5t80 -150t121.5 -94.5t154.5 -33q123 0 210 61.5t132 170.5z" />
<glyph unicode="d" horiz-adv-x="1069" d="M870 1393h31v-1393h-31v150v49t2 49q0 27 2 55h-2q-8 -51 -31.5 -108.5t-66.5 -106.5t-108.5 -81t-153.5 -32q-92 0 -167 36t-127 103.5t-79.5 163t-27.5 214.5q0 236 105.5 371.5t291.5 135.5q90 0 155.5 -33.5t109.5 -82.5t68.5 -107.5t30.5 -107.5h2q-2 29 -2 55 q-2 23 -2 49.5v48.5v572zM872 487q0 111 -26.5 201t-74.5 152.5t-114.5 96.5t-148.5 34q-84 0 -151.5 -33t-114.5 -95.5t-74 -151.5t-27 -199q0 -113 27 -203t75 -153.5t116.5 -97.5t152.5 -34q164 0 262 127t98 356z" />
<glyph unicode="e" horiz-adv-x="1042" d="M909 541q-4 102 -33.5 182t-80 135t-120 84t-149.5 29q-82 0 -149.5 -31t-118.5 -88t-81 -136t-36 -175h768zM526 999q92 0 169 -32.5t132.5 -95t85 -153.5t29.5 -206h-801v-12q0 -229 106.5 -362.5t297.5 -133.5q74 0 131 21.5t102 57.5t77 83t52 98l25 -24 q-23 -51 -57.5 -99.5t-83 -85.5t-109.5 -58.5t-139 -21.5q-96 0 -176 35t-137.5 101.5t-88 163t-30.5 221.5q0 113 29.5 205t84 158.5t131 103t170.5 36.5z" />
<glyph unicode="f" horiz-adv-x="626" d="M594 946h-301v-946h-31v946h-223v29h223v219q0 63 14.5 102t40.5 62q29 25 67 36t79 11q43 0 75.5 -9.5t55.5 -19.5v-30q-27 14 -59.5 22t-71.5 8t-73 -10t-58 -37q-18 -20 -28.5 -51t-10.5 -96v-207h301v-29z" />
<glyph unicode="g" horiz-adv-x="1069" d="M870 127v66.5t2 56.5q0 29 2 53h-2q-8 -51 -31.5 -108.5t-66.5 -106.5t-108.5 -81t-153.5 -32q-92 0 -167 36t-127 103.5t-79.5 163t-27.5 214.5q0 236 105.5 371.5t291.5 135.5q90 0 155.5 -33.5t109.5 -82.5t68.5 -107.5t30.5 -107.5h2q-2 29 -2 57q-2 25 -2 54.5v58.5 v137h31v-932q0 -104 -13.5 -176t-45.5 -127q-41 -72 -120 -109t-208 -37q-106 0 -179 26t-117 69t-63.5 98t-19.5 115l29 14q4 -143 90 -218t260 -75q129 0 200.5 38t108.5 108q29 53 38 119.5t9 158.5v80zM872 487q0 111 -26.5 201t-74.5 152.5t-114.5 96.5t-148.5 34 q-84 0 -151.5 -33t-114.5 -95.5t-74 -151.5t-27 -199q0 -113 27 -203t75 -153.5t116.5 -97.5t152.5 -34q164 0 262 127t98 356z" />
<glyph unicode="h" horiz-adv-x="1046" d="M889 0h-31v530q0 88 -9 168t-40 140.5t-90.5 96.5t-159.5 36q-86 0 -153.5 -33t-113.5 -90t-69.5 -134t-23.5 -165v-549h-31v1393h31v-533q0 -20 -1 -47t-1 -53q-2 -31 -2 -64h2q4 47 29.5 100.5t70.5 98.5t111.5 74.5t152.5 29.5q98 0 161.5 -30.5t100.5 -88t51.5 -137 t14.5 -178.5v-565z" />
<glyph unicode="i" horiz-adv-x="366" d="M199 1157h-31v236h31v-236zM199 0h-31v975h31v-975z" />
<glyph unicode="j" horiz-adv-x="366" d="M199 1157h-31v236h31v-236zM-131 -344q31 -16 64.5 -24.5t68.5 -8.5q102 0 134 62.5t32 177.5v1112h31v-1129q0 -119 -42 -185.5t-161 -66.5q-70 0 -127 29v33z" />
<glyph unicode="k" horiz-adv-x="921" d="M885 0h-41l-406 596l-239 -227v-369h-31v1393h31v-983l598 565h45l-379 -359z" />
<glyph unicode="l" horiz-adv-x="399" d="M215 0h-31v1393h31v-1393z" />
<glyph unicode="m" horiz-adv-x="1716" d="M879 0h-31v530q0 88 -8.5 168t-39 140.5t-89 96.5t-158.5 36q-86 0 -152.5 -33t-110.5 -90t-67.5 -134t-23.5 -165v-549h-31v975h31v-115q0 -20 -1 -47t-1 -53q-2 -31 -2 -64h2q4 47 28.5 100.5t68.5 98.5t109.5 74.5t151.5 29.5q82 0 140.5 -23.5t95 -64.5t55 -98 t22.5 -127h2q4 47 28 102.5t69 102.5t111.5 77.5t156.5 30.5q98 0 160.5 -30.5t99.5 -88t50.5 -137t13.5 -178.5v-565h-31v530q0 88 -8.5 168t-39 140.5t-89 96.5t-158.5 36q-84 0 -150.5 -32t-111.5 -86t-68.5 -128t-23.5 -160v-565z" />
<glyph unicode="n" horiz-adv-x="1046" d="M889 0h-31v530q0 88 -9 168t-40 140.5t-90.5 96.5t-159.5 36q-86 0 -153.5 -33t-113.5 -90t-69.5 -134t-23.5 -165v-549h-31v975h31v-115q0 -20 -1 -47t-1 -53q-2 -31 -2 -64h2q4 47 29.5 100.5t70.5 98.5t111.5 74.5t152.5 29.5q98 0 161.5 -30.5t100.5 -88t51.5 -137 t14.5 -178.5v-565z" />
<glyph unicode="o" horiz-adv-x="1054" d="M141 483q0 -117 29 -206t80 -149t121.5 -92t154.5 -32q86 0 157 32t122 92t79.5 149.5t28.5 205.5q0 233 -106.5 360.5t-280.5 127.5q-86 0 -156.5 -33t-120.5 -95.5t-79 -152.5t-29 -207zM111 481q0 115 26.5 210t78.5 164t130 106.5t180 37.5t180 -37.5t131.5 -106.5 t80 -164t26.5 -210q0 -113 -27.5 -206t-81 -159.5t-131 -103.5t-178.5 -37q-100 0 -177 37t-130 103.5t-80.5 159.5t-27.5 206z" />
<glyph unicode="p" horiz-adv-x="1071" d="M199 821q0 -23 -1 -49.5t-1 -48.5q-2 -27 -2 -55h2q6 49 30.5 107.5t68.5 107.5t109.5 82.5t153.5 33.5q188 0 293.5 -136t105.5 -371q0 -119 -27.5 -214.5t-79.5 -163t-127 -103.5t-167 -36q-90 0 -154.5 32t-107.5 81t-66.5 106.5t-31.5 108.5h-2q0 -29 2 -55 q0 -23 1 -49.5t1 -48.5v-539h-31v1364h31v-154zM197 487q0 -229 98 -356t262 -127q84 0 152.5 34t116.5 97.5t75 153.5t27 203q0 223 -100.5 351t-268.5 128q-82 0 -148.5 -34t-114.5 -96.5t-73.5 -152.5t-25.5 -201z" />
<glyph unicode="q" horiz-adv-x="1069" d="M870 975h31v-1364h-31v539v49t2 49q0 27 2 55h-2q-8 -51 -31.5 -108.5t-66.5 -106.5t-108.5 -81t-153.5 -32q-92 0 -167 36t-127 103.5t-79.5 163t-27.5 214.5q0 236 105.5 371.5t291.5 135.5q90 0 155.5 -33.5t109.5 -82.5t68.5 -107.5t30.5 -107.5h2q-2 29 -2 55 q-2 23 -2 49.5v48.5v154zM872 487q0 111 -26.5 201t-74.5 152.5t-114.5 96.5t-148.5 34q-84 0 -151.5 -33t-114.5 -95.5t-74 -151.5t-27 -199q0 -113 27 -203t75 -153.5t116.5 -97.5t152.5 -34q164 0 262 127t98 356z" />
<glyph unicode="r" horiz-adv-x="606" d="M559 958q-10 4 -28.5 7.5t-45.5 3.5q-72 0 -126 -38t-90 -97.5t-53 -133t-17 -143.5v-557h-31v975h31v-162q0 -16 -1 -37.5t-1 -42.5q-2 -23 -2 -47h2q4 51 24.5 105.5t57 100.5t89 75.5t124.5 29.5q23 0 38 -3t29 -7v-29z" />
<glyph unicode="s" horiz-adv-x="886" d="M104 166q55 -72 144.5 -118t208.5 -44q152 2 233.5 68.5t79.5 171.5q0 53 -20.5 90t-54 62.5t-81 43t-102.5 31.5l-121 31q-61 16 -112.5 34.5t-88 46t-56 67.5t-19.5 98q0 61 25.5 108t69.5 79t101.5 48t118.5 16q113 0 191.5 -39.5t126.5 -93.5l-15 -32 q-43 51 -120.5 95t-184.5 42q-57 0 -108.5 -14.5t-90.5 -42t-61.5 -69.5t-22.5 -97q0 -47 17.5 -82t51.5 -59.5t80 -43t105 -33.5l117 -30q61 -16 113.5 -36t90.5 -48.5t59.5 -70.5t21.5 -101q0 -66 -26.5 -116t-73 -84t-109 -51.5t-135.5 -17.5q-141 0 -230.5 49.5 t-138.5 108.5z" />
<glyph unicode="t" horiz-adv-x="569" d="M526 20q-14 -10 -53 -26.5t-96 -16.5q-78 0 -114 41t-36 136v792h-196v29h196v383l31 8v-391h256v-29h-256v-768q0 -35 3 -65.5t15.5 -54t37 -38t67.5 -14.5q51 0 89 16.5t56 30.5v-33z" />
<glyph unicode="u" horiz-adv-x="1036" d="M158 975h30v-531q0 -88 8.5 -167.5t39 -140t89 -96.5t158.5 -36q86 0 152.5 33t111 90t68 134t23.5 165v549h30v-975h-30v115v45.5t2 54.5q0 31 2 64h-2q-4 -47 -29 -100.5t-69 -98.5t-109.5 -75t-151.5 -30q-98 0 -160.5 31t-99.5 88.5t-50 137t-13 178.5v565z" />
<glyph unicode="v" horiz-adv-x="866" d="M442 0h-28l-355 975h33l254 -699q10 -29 23.5 -66.5t26 -72.5t21.5 -61.5t11 -34.5h2q2 8 11.5 34.5t22.5 61.5t27.5 73t26.5 69l270 696h31z" />
<glyph unicode="w" horiz-adv-x="1294" d="M899 0l-182 674q-8 31 -19.5 71.5t-21.5 77.5t-18.5 67t-10.5 40h-2q-2 -10 -9 -39t-15.5 -64.5t-18.5 -74.5t-18 -70l-185 -682h-30l-306 975h31l203 -653q8 -29 21.5 -70t25.5 -81t23.5 -75t15.5 -51h2q4 18 13.5 53t19.5 77t21.5 83t19.5 72l172 645h33l180 -647 q12 -43 22.5 -85t19.5 -81t17 -69t12 -48h3q4 18 13 52t21.5 74t24.5 83t24 80l193 641h31l-293 -975h-33z" />
<glyph unicode="x" horiz-adv-x="843" d="M438 502l357 -502h-35l-338 479l-338 -479h-35l357 502l-336 473h34l318 -449l317 449h35z" />
<glyph unicode="y" horiz-adv-x="856" d="M47 -352q29 -18 84 -19q82 0 129 60q20 25 36.5 56.5t39.5 90.5l72 184l-349 955h33l252 -692l80 -226h2q8 23 32.5 89.5t53.5 142.5l266 686h31l-424 -1094q-23 -55 -42 -102t-40 -82q-59 -96 -174 -96q-31 0 -52.5 6t-29.5 10v31z" />
<glyph unicode="z" horiz-adv-x="813" d="M748 0h-678v25l614 921h-604v29h643v-25l-617 -921h642v-29z" />
<glyph unicode="{" horiz-adv-x="565" d="M92 535q51 -18 82 -42t48.5 -59t22.5 -87t5 -128v-252q0 -74 11 -124t40 -80.5t78 -45t127 -14.5v-27h-8q-80 0 -133.5 14.5t-85 48.5t-46 87t-14.5 131v238q0 70 -3 123t-17.5 92t-43 63.5t-79.5 40.5v43q51 14 79.5 40t43 64.5t17.5 91t3 124.5v235q0 78 14.5 131 t46 87t85 48.5t133.5 14.5h8v-27q-78 0 -127 -14.5t-78 -45t-40 -80.5t-11 -124v-250q0 -76 -5 -128t-22.5 -87t-48.5 -58.5t-82 -41.5v-2z" />
<glyph unicode="|" horiz-adv-x="378" d="M205 -324h-31v1717h31v-1717z" />
<glyph unicode="}" horiz-adv-x="565" d="M473 537q-51 18 -82 41.5t-48 58.5t-22.5 87t-5.5 128v250q0 74 -11 124t-39.5 80.5t-79 45t-126.5 14.5v27h9q80 0 133 -14.5t84.5 -48.5t46 -87t14.5 -131v-235q0 -72 3 -124.5t17.5 -91t43 -64.5t79.5 -40v-43q-51 -16 -79.5 -40.5t-43 -63.5t-17.5 -92.5t-3 -122.5 v-238q0 -78 -14.5 -131t-46 -87t-85 -48.5t-132.5 -14.5h-9v27q76 0 126.5 14.5t79 45t39.5 81t11 123.5v252q0 76 5.5 128t22.5 87t48 58.5t82 42.5v2z" />
<glyph unicode="~" horiz-adv-x="1185" d="M1061 637q-47 -57 -102.5 -93t-127.5 -36q-63 0 -124.5 28.5t-128.5 59.5q-59 27 -112.5 49.5t-107.5 22.5q-61 0 -110 -33t-98 -92l-23 18q14 20 36.5 44t52.5 44.5t65.5 33.5t76.5 13q53 0 109.5 -21.5t140.5 -60.5q47 -23 81 -38t58.5 -24t44 -12t39.5 -3 q72 0 122.5 38.5t86.5 79.5z" />
<glyph unicode="&#xa1;" horiz-adv-x="354" d="M193 741h-31v234h31v-234zM193 285v-703h-31v703l6 329h18z" />
<glyph unicode="&#xa2;" horiz-adv-x="999" d="M147 483q0 -111 27 -197.5t76 -148t116.5 -96.5t147.5 -37v967q-168 -8 -267.5 -137.5t-99.5 -350.5zM901 211q-49 -111 -138 -171t-218 -65v-206h-31v206q-96 4 -170 42t-125 104.5t-76.5 158t-25.5 201.5q0 113 25.5 206t75.5 162t124 107.5t172 42.5v189h31v-189 q133 -4 224 -71.5t136 -177.5l-24 -29q-41 117 -130 181.5t-206 68.5v-967q117 4 200.5 64.5t128.5 167.5z" />
<glyph unicode="&#xa3;" horiz-adv-x="1118" d="M350 694q4 -53 9.5 -131t5.5 -143q0 -72 -7.5 -134.5t-27 -113.5t-55 -87t-91.5 -56v-2h60q29 0 66.5 1t84.5 1h598v-29h-905v23q66 14 113 39.5t76.5 71.5t43 114.5t13.5 171.5q0 20 -1 54t-3 73l-4 78t-4 69h-236v29h233q-4 53 -9 118.5t-5 125.5q0 92 16.5 174 t57.5 143.5t109.5 98t173.5 36.5q158 0 251 -81t109 -216l-23 -16q-16 131 -103 208t-234 77q-102 0 -166 -37t-100 -96.5t-48 -135t-12 -155.5q0 -61 4 -124t8 -120h344v-29h-342z" />
<glyph unicode="&#xa4;" horiz-adv-x="1128" d="M201 602q0 -76 27.5 -142.5t76.5 -116.5t115.5 -78.5t142.5 -28.5t142.5 28.5t115.5 78.5t78 116.5t29 142.5t-29 143.5t-78 117.5t-115.5 79t-142.5 29t-142.5 -29t-115.5 -79t-76.5 -117.5t-27.5 -143.5zM981 164l-150 151q-53 -49 -121.5 -76.5t-146.5 -27.5 t-145.5 27.5t-120.5 74.5l-152 -149l-20 18l151 152q-49 53 -76.5 121.5t-27.5 146.5t27.5 145.5t74.5 120.5l-147 152l18 20l150 -151q53 49 121.5 77.5t146.5 28.5t146.5 -28.5t121.5 -77.5l150 149l20 -20l-149 -150q47 -53 75.5 -120.5t28.5 -145.5t-28.5 -146.5 t-77.5 -121.5l151 -150z" />
<glyph unicode="&#xa5;" horiz-adv-x="1232" d="M135 623h449l-475 770h32l475 -768l482 768h32l-485 -770h449v-29h-465v-236h465v-28h-465l2 -330h-31v330h-465v28h465v236h-465v29z" />
<glyph unicode="&#xa6;" horiz-adv-x="387" d="M209 -324h-31v662h31v-662zM209 731h-31v662h31v-662z" />
<glyph unicode="&#xa7;" horiz-adv-x="987" d="M406 375q-57 20 -110.5 45.5t-93.5 61.5t-64.5 84t-24.5 114q0 61 27.5 109.5t70.5 82t93 53t95 25.5q-41 14 -79.5 32.5t-69.5 45.5t-49.5 63.5t-18.5 88.5q0 57 25.5 102t68.5 76t98.5 46t117.5 15q115 0 195.5 -40t127.5 -93l-14 -33q-43 53 -122 96.5t-187 41.5 q-57 0 -108.5 -14.5t-89.5 -41t-59.5 -65.5t-21.5 -90q0 -49 19.5 -83t53 -59.5t81 -45t104.5 -38.5l139 -47q57 -20 107.5 -43.5t86.5 -57.5t56.5 -79t20.5 -109q0 -68 -26 -118.5t-63.5 -86.5t-81.5 -57.5t-79 -33.5q41 -16 79 -36t66.5 -46.5t45 -64.5t16.5 -89 q0 -63 -26 -112.5t-72 -83t-108.5 -51t-135.5 -17.5q-139 0 -230.5 49t-140.5 109l16 32q55 -72 145.5 -118t209.5 -44q152 2 232.5 67t78.5 169q0 53 -19.5 88t-52.5 60.5t-78 44t-98 38.5zM600 334q51 14 96 40.5t79 61.5t54.5 81t20.5 101q0 104 -64.5 164t-187.5 101 l-168 57q-59 -12 -110.5 -33.5t-90.5 -54.5t-61.5 -76t-22.5 -96q0 -55 20.5 -98t57.5 -76t90.5 -59.5t118.5 -51.5z" />
<glyph unicode="&#xa8;" horiz-adv-x="819" d="M612 1147h-30v199h30v-199zM238 1147h-31v199h31v-199z" />
<glyph unicode="&#xa9;" horiz-adv-x="1634" d="M1487 717q0 137 -52.5 260t-142.5 214t-212 144.5t-263 53.5t-263 -53.5t-212 -144.5t-142.5 -214t-52.5 -260q0 -139 52.5 -261t142.5 -213t212 -144.5t263 -53.5t263 53.5t212 144.5t142.5 213t52.5 261zM1518 717q0 -147 -53.5 -275.5t-147.5 -222.5t-222 -148.5 t-278 -54.5t-277.5 54.5t-222 148.5t-147.5 222t-53 276q0 147 53 275t147.5 222.5t222.5 148.5t277 54q150 0 278 -54t222 -148.5t147.5 -222.5t53.5 -275zM1094 954q-76 174 -275 174q-72 0 -132 -28.5t-106 -81.5t-72 -128t-26 -169q0 -92 27 -167t73 -126t106.5 -78.5 t129.5 -27.5q92 0 165 37.5t112 115.5l22 -18q-43 -78 -116.5 -121t-182.5 -43q-84 0 -151.5 30.5t-114.5 86t-73.5 134.5t-26.5 177t26.5 179t73.5 138.5t114.5 88t151.5 30.5q111 0 185.5 -50t115.5 -134z" />
<glyph unicode="&#xaa;" horiz-adv-x="755" d="M522 1147q-14 -4 -35.5 -8t-40.5 -9l-110 -20q-41 -8 -75 -16.5t-60.5 -23.5t-41 -40.5t-14.5 -68.5q0 -72 44 -112t124 -40q106 0 157.5 66.5t51.5 162.5v109zM659 795q-23 -8 -45 -9q-59 0 -75.5 35t-12.5 109h-2q-6 -27 -23.5 -53.5t-44 -48t-62.5 -35t-81 -13.5 q-104 0 -151 51.5t-47 129.5q0 45 14 73.5t41 47t64.5 29.5t84.5 22l162 30q18 4 29.5 11.5t11.5 35.5v17q0 88 -38 125t-134 37q-92 0 -141 -43t-49 -129l-29 12q0 92 60.5 140t158.5 48q96 0 149.5 -38t53.5 -148v-326q0 -33 9 -61.5t52 -28.5q6 0 17.5 1t27.5 7v-28z" />
<glyph unicode="&#xab;" horiz-adv-x="776" d="M367 594l290 352v-43l-262 -315l262 -322v-43l-290 352v19zM104 594l291 352v-43l-262 -315l262 -322v-43l-291 352v19z" />
<glyph unicode="&#xac;" horiz-adv-x="1116" d="M954 453h-30v440h-781v29h811v-469z" />
<glyph unicode="&#xad;" horiz-adv-x="800" d="M117 563h567v-28h-567v28z" />
<glyph unicode="&#xae;" horiz-adv-x="1634" d="M1487 717q0 137 -52.5 260t-142.5 214t-212 144.5t-263 53.5t-263 -53.5t-212 -144.5t-142.5 -214t-52.5 -260q0 -139 52.5 -261t142.5 -213t212 -144.5t263 -53.5t263 53.5t212 144.5t142.5 213t52.5 261zM1518 717q0 -147 -53.5 -275.5t-147.5 -222.5t-222 -148.5 t-278 -54.5t-277.5 54.5t-222 148.5t-147.5 222t-53 276q0 147 53 275t147.5 222.5t222.5 148.5t277 54q150 0 278 -54t222 -148.5t147.5 -222.5t53.5 -275zM887 727q59 0 96 9t66 26q76 49 75 158q0 47 -18.5 88t-56.5 67q-33 23 -72 29t-86 6h-309v-383h305zM582 303h-31 v836h326q68 0 113.5 -8.5t88.5 -40.5q37 -29 55.5 -74t18.5 -96q0 -61 -20.5 -103.5t-57.5 -68.5q-37 -29 -87 -39.5t-122 -10.5l281 -395h-39l-281 395h-245v-395z" />
<glyph unicode="&#xaf;" horiz-adv-x="962" d="M203 1196h555v-29h-555v29z" />
<glyph unicode="&#xb0;" horiz-adv-x="774" d="M133 1133q0 -55 19.5 -102.5t53.5 -82.5t80 -54.5t101 -19.5q53 0 100.5 19.5t81 54.5t53 82t19.5 103q0 53 -19.5 100t-53 82t-81 54.5t-100.5 19.5q-55 0 -101 -19.5t-80 -54.5t-53.5 -82t-19.5 -100zM102 1133q0 59 22.5 111t60.5 90t90.5 60.5t111.5 22.5 t111.5 -22.5t90.5 -60.5t60.5 -90t22.5 -111t-22.5 -111.5t-60.5 -91.5t-90.5 -61.5t-111.5 -22.5t-111.5 22.5t-90.5 61.5t-60.5 91.5t-22.5 111.5z" />
<glyph unicode="&#xb1;" horiz-adv-x="1499" d="M1350 0h-1200v29h1200v-29zM768 219h-31v486h-587v28h587v481h31v-481h582v-28h-582v-486z" />
<glyph unicode="&#xb2;" horiz-adv-x="811" d="M160 1042q-12 33 -18.5 60.5t-6.5 62.5q0 49 17.5 95.5t52.5 81t85 55t116 20.5t114.5 -21.5t82.5 -58.5t50.5 -86t16.5 -104q0 -76 -30 -140.5t-79 -122t-111.5 -106.5t-125.5 -94q-66 -47 -100 -68.5t-52 -31.5v-2h53q27 0 62 1t78 1h311v-29h-545v27q29 20 69 46.5 t83 57.5t84 62.5t75 60.5q37 31 72 66.5t62.5 77.5t45 89.5t17.5 102.5q0 117 -67.5 180.5t-165.5 63.5q-57 0 -102.5 -17.5t-76 -48.5t-46 -71t-15.5 -85q0 -63 33 -133z" />
<glyph unicode="&#xb3;" horiz-adv-x="794" d="M129 1225q2 27 18.5 59.5t49 62t81 50t115.5 20.5q72 0 122 -18.5t82 -47t46 -66.5t14 -77q0 -78 -46 -133t-140 -76v-4q92 -10 150.5 -68.5t58.5 -152.5q0 -117 -76 -186.5t-213 -69.5q-123 0 -199.5 59.5t-87.5 163.5l31 19q2 -59 27.5 -100.5t62.5 -66t81 -35.5 t87 -11q117 0 186.5 61.5t69.5 163.5q0 70 -34.5 117t-77.5 63q-41 16 -89.5 21.5t-136.5 5.5h-49v29h55q41 0 70 1t50.5 4t38 8t32.5 11q51 23 85 66t34 108q0 80 -59.5 131.5t-174.5 51.5q-57 0 -99 -15.5t-69.5 -42t-44 -59.5t-22.5 -66z" />
<glyph unicode="&#xb4;" horiz-adv-x="962" d="M342 1114l248 279h37l-252 -279h-33z" />
<glyph unicode="&#xb5;" horiz-adv-x="985" d="M205 428q0 -96 10 -174t41 -133t87 -86t149 -31q80 0 142 29.5t103 81t62.5 119t21.5 141.5v600h31v-975h-31v115q0 33 1 67.5t3 61.5h-2q-10 -53 -35.5 -101.5t-66.5 -85.5t-98.5 -59.5t-130.5 -22.5q-123 0 -194 50.5t-93 138.5h-2v-37q0 -16 1 -33.5t1 -32.5v-450h-31 v1364h31v-547z" />
<glyph unicode="&#xb6;" horiz-adv-x="1071" d="M201 825q43 -33 98 -49t156 -18v606q-100 -2 -155.5 -18.5t-98.5 -49.5q-47 -41 -75 -99t-28 -136t28 -136.5t75 -99.5zM455 729q-102 2 -165 21.5t-108 54.5q-115 92 -114 256q0 164 114 256q23 18 50.5 32.5t62.5 23.5t82 14.5t108 5.5h525v-29h-191v-1626h-31v1626 h-303v-1626h-30v991z" />
<glyph unicode="&#xb7;" horiz-adv-x="331" d="M182 539h-30v233h30v-233z" />
<glyph unicode="&#xb8;" horiz-adv-x="962" d="M440 6h35l-104 -112l2 -3q12 4 27.5 6.5t33.5 2.5q59 0 108.5 -35t49.5 -109q0 -78 -53.5 -114.5t-124.5 -36.5q-49 0 -92 14l10 29q18 -6 37.5 -10.5t44.5 -4.5q57 0 102 30t45 93t-44 89t-93 26q-47 0 -86 -16l-16 22z" />
<glyph unicode="&#xb9;" horiz-adv-x="477" d="M291 532v728q-29 -47 -85 -61.5t-128 -14.5h-8v28h30q92 0 138 33q29 23 42 60.5t15 87.5h27v-861h-31z" />
<glyph unicode="&#xba;" horiz-adv-x="757" d="M379 1386q-109 0 -175.5 -71.5t-66.5 -218.5q0 -141 68.5 -213t173.5 -72q104 0 173 71.5t69 213.5q0 147 -66.5 218.5t-175.5 71.5zM379 784q-129 0 -199.5 84t-70.5 228q0 147 72.5 232t197.5 85t197.5 -85t72.5 -232q0 -143 -70.5 -227.5t-199.5 -84.5z" />
<glyph unicode="&#xbb;" horiz-adv-x="776" d="M410 575l-291 -352v43l262 322l-262 315v43l291 -352v-19zM672 575l-291 -352v43l262 322l-262 315v43l291 -352v-19z" />
<glyph unicode="&#xbc;" horiz-adv-x="1417" d="M309 0h-33l725 1393h35zM299 532v728q-29 -47 -85 -61.5t-128 -14.5h-8v28h31q92 0 137 33q29 23 42 60.5t15 87.5h27v-861h-31zM1147 260v287q0 92 1 158.5t3 113.5h-2q-16 -31 -39 -63q-18 -29 -42 -65t-46 -70l-100 -152q-29 -41 -53.5 -79t-45.5 -66q-23 -35 -43 -64 h367zM1176 860v-600h178v-29h-178v-231h-29v231h-402v25l404 604h27z" />
<glyph unicode="&#xbd;" horiz-adv-x="1544" d="M305 0h-33l725 1393h35zM295 532v728q-29 -47 -85 -61.5t-128 -14.5h-8v28h30q92 0 138 33q29 23 42 60.5t15 87.5h27v-861h-31zM934 487q-12 33 -18.5 60.5t-6.5 62.5q0 49 17.5 95.5t52.5 81t85 55t116 20.5t114.5 -21.5t82.5 -58.5t50.5 -86t16.5 -104 q0 -76 -30 -140.5t-79 -122t-111.5 -106.5t-125.5 -94q-66 -47 -99.5 -68.5t-52.5 -31.5v-2h53q27 0 62 1t78 1h311v-29h-545v27q29 20 69 46.5t83 57.5t84 62.5t76 60.5q37 31 71.5 66.5t62 77.5t45 89.5t17.5 102.5q0 117 -67.5 180.5t-165.5 63.5q-57 0 -102.5 -17.5 t-76 -48.5t-46 -71t-15.5 -85q0 -63 33 -133z" />
<glyph unicode="&#xbe;" horiz-adv-x="1677" d="M569 0h-32l725 1393h34zM1407 260v287q0 92 1 158.5t3 113.5h-2q-16 -31 -39 -63q-18 -29 -41.5 -65t-46.5 -70l-100 -152q-29 -41 -53.5 -79t-45.5 -66q-23 -35 -43 -64h367zM1436 860v-600h178v-29h-178v-231h-29v231h-401v25l403 604h27zM117 1225q2 27 18.5 59.5 t49 62t80.5 50t116 20.5q72 0 122 -18.5t81.5 -47t46 -66.5t14.5 -77q0 -78 -46 -133t-140 -76v-4q92 -10 150.5 -68.5t58.5 -152.5q0 -117 -76 -186.5t-213 -69.5q-123 0 -200 59.5t-87 163.5l31 19q2 -59 27.5 -100.5t62.5 -66t81 -35.5t87 -11q117 0 186.5 61.5 t69.5 163.5q0 70 -35 117t-78 63q-41 16 -89 21.5t-136 5.5h-49v29h55q41 0 69.5 1t50 4t38 8t33.5 11q51 23 84.5 66t33.5 108q0 80 -59 131.5t-174 51.5q-57 0 -99 -15.5t-70 -42t-44 -59.5t-23 -66z" />
<glyph unicode="&#xbf;" horiz-adv-x="901" d="M469 975h31v-227h-31v227zM469 653h31v-47q0 -37 -4 -68.5t-19.5 -61.5t-43 -62.5t-73.5 -73.5l-92 -84q-80 -72 -124 -152.5t-44 -187.5q0 -68 25 -128t71 -105t111.5 -71t147.5 -26q86 0 150.5 27t107.5 73t64.5 106.5t21.5 127.5q0 39 -7.5 77t-19.5 77l37 -8 q12 -37 17 -71t5 -75q0 -78 -25.5 -143.5t-73.5 -114.5t-118.5 -76.5t-158.5 -27.5q-92 0 -164 27.5t-121 76.5t-74.5 113.5t-25.5 138.5q0 63 13 114.5t37.5 95.5t58.5 83t75 76l53 47q51 45 83 76.5t49.5 60.5t23.5 62.5t6 84.5v39z" />
<glyph unicode="&#xc0;" horiz-adv-x="1148" d="M604 1542l-252 279h37l248 -279h-33zM573 1358q-10 -31 -39.5 -115t-66.5 -182l-211 -565h635l-211 563q-43 117 -68.5 193.5t-36.5 105.5h-2zM590 1393l516 -1393h-33l-172 467h-655l-170 -467h-33l516 1393h31z" />
<glyph unicode="&#xc1;" horiz-adv-x="1148" d="M516 1542l248 279h37l-252 -279h-33zM573 1358q-10 -31 -39.5 -115t-66.5 -182l-211 -565h635l-211 563q-43 117 -68.5 193.5t-36.5 105.5h-2zM590 1393l516 -1393h-33l-172 467h-655l-170 -467h-33l516 1393h31z" />
<glyph unicode="&#xc2;" horiz-adv-x="1148" d="M608 1821l228 -279h-35l-211 258l-213 -258h-35l231 279h35zM573 1358q-10 -31 -39.5 -115t-66.5 -182l-211 -565h635l-211 563q-43 117 -68.5 193.5t-36.5 105.5h-2zM590 1393l516 -1393h-33l-172 467h-655l-170 -467h-33l516 1393h31z" />
<glyph unicode="&#xc3;" horiz-adv-x="1148" d="M893 1704q-16 -47 -53 -80t-97 -33q-39 0 -79.5 15.5t-77.5 33.5q-51 25 -84 38.5t-64 13.5q-55 0 -80.5 -36t-38.5 -77l-28 8q6 23 16 46.5t27.5 42t43 30.5t60.5 12q37 0 76 -14t82 -37q37 -18 75 -33.5t72 -15.5q53 0 82 31.5t43 64.5zM573 1358q-10 -31 -39.5 -115 t-66.5 -182l-211 -565h635l-211 563q-43 117 -68.5 193.5t-36.5 105.5h-2zM590 1393l516 -1393h-33l-172 467h-655l-170 -467h-33l516 1393h31z" />
<glyph unicode="&#xc4;" horiz-adv-x="1148" d="M573 1358q-10 -31 -39.5 -115t-66.5 -182l-211 -565h635l-211 563q-43 117 -68.5 193.5t-36.5 105.5h-2zM590 1393l516 -1393h-33l-172 467h-655l-170 -467h-33l516 1393h31zM784 1591h-30v199h30v-199zM395 1591h-30v199h30v-199z" />
<glyph unicode="&#xc5;" horiz-adv-x="1148" d="M573 1358q-10 -31 -39.5 -115t-66.5 -182l-211 -565h635l-211 563q-43 117 -68.5 193.5t-36.5 105.5h-2zM590 1393l516 -1393h-33l-172 467h-655l-170 -467h-33l516 1393h31zM446 1686q0 -53 38 -91.5t91 -38.5t90 38t37 92q0 53 -36.5 91t-90.5 38q-53 0 -91 -38 t-38 -91zM418 1686q0 68 46 111.5t111 43.5q66 0 111 -44t45 -111q0 -68 -45 -112t-111 -44t-111.5 44t-45.5 112z" />
<glyph unicode="&#xc6;" horiz-adv-x="1775" d="M846 0v473h-539l-287 -473h-32l846 1393h825v-29h-782v-629h708v-28h-708v-678h825v-29h-856zM846 999v141.5t2 116.5q0 57 2 109h-2q-31 -53 -64 -106q-29 -47 -62.5 -102.5t-64.5 -108.5l-333 -547h522v497z" />
<glyph unicode="&#xc7;" horiz-adv-x="1292" d="M1202 334q-68 -166 -193.5 -260t-312.5 -99l-75 -81l2 -3q12 4 27.5 6.5t33.5 2.5q59 0 108.5 -35t49.5 -109q0 -78 -53.5 -114.5t-124.5 -36.5q-49 0 -93 14l11 29q18 -6 37.5 -10.5t44.5 -4.5q57 0 102 30t45 93t-44 89t-93 26q-47 0 -86 -16l-17 22l93 100 q-131 4 -232.5 57.5t-170 146.5t-103.5 224.5t-35 290.5q0 164 38 297t110.5 227.5t178 145.5t240.5 51q98 0 177 -24.5t140.5 -69.5t106.5 -107.5t76 -138.5l-25 -28q-63 158 -175.5 249t-299.5 91q-127 0 -227.5 -49.5t-169 -139.5t-104 -218t-35.5 -286t35.5 -285.5 t105.5 -218t169 -139.5t226 -49q178 0 302 95.5t188 258.5z" />
<glyph unicode="&#xc8;" horiz-adv-x="1140" d="M631 1542l-252 279h37l248 -279h-33zM1065 0h-868v1393h825v-29h-795v-629h721v-28h-721v-678h838v-29z" />
<glyph unicode="&#xc9;" horiz-adv-x="1140" d="M502 1542l248 279h36l-251 -279h-33zM1065 0h-868v1393h825v-29h-795v-629h721v-28h-721v-678h838v-29z" />
<glyph unicode="&#xca;" horiz-adv-x="1140" d="M643 1821l227 -279h-34l-211 258l-213 -258h-35l231 279h35zM1065 0h-868v1393h825v-29h-795v-629h721v-28h-721v-678h838v-29z" />
<glyph unicode="&#xcb;" horiz-adv-x="1140" d="M829 1591h-30v199h30v-199zM440 1591h-30v199h30v-199zM1065 0h-868v1393h825v-29h-795v-629h721v-28h-721v-678h838v-29z" />
<glyph unicode="&#xcc;" horiz-adv-x="423" d="M221 1542l-252 279h37l248 -279h-33zM227 0h-30v1393h30v-1393z" />
<glyph unicode="&#xcd;" horiz-adv-x="423" d="M193 1542l247 279h37l-252 -279h-32zM227 0h-30v1393h30v-1393z" />
<glyph unicode="&#xce;" horiz-adv-x="423" d="M233 1821l228 -279h-35l-211 258l-213 -258h-35l232 279h34zM227 0h-30v1393h30v-1393z" />
<glyph unicode="&#xcf;" horiz-adv-x="423" d="M422 1591h-31v199h31v-199zM33 1591h-31v199h31v-199zM227 0h-30v1393h30v-1393z" />
<glyph unicode="&#xd0;" horiz-adv-x="1349" d="M229 743h549v-28h-549v-686h361q86 0 148.5 10t109.5 29q92 35 156.5 99t106.5 147t61.5 181.5t19.5 202.5q0 186 -55.5 324.5t-157.5 226.5q-45 39 -94 61.5t-108.5 35t-131.5 15.5t-160 3h-256v-621zM25 743h174v650h284q80 0 147.5 -2t127 -11.5t111 -29t100.5 -52.5 q115 -82 186.5 -233.5t71.5 -366.5q0 -82 -13.5 -165.5t-41 -160.5t-73.5 -144.5t-110 -116.5q-33 -25 -69.5 -45.5t-84 -35t-110.5 -22.5t-147 -8h-379v715h-174v28z" />
<glyph unicode="&#xd1;" horiz-adv-x="1323" d="M1087 0l-747 1174l-115 186h-2q0 -23 1 -42.5t2 -41t1 -49v-64.5v-1163h-30v1393h41l747 -1172l111 -180h2q0 37 -1 82t-1 121v1149h30v-1393h-39zM977 1704q-16 -47 -53 -80t-97 -33q-39 0 -79.5 15.5t-77.5 33.5q-51 25 -84 38.5t-64 13.5q-55 0 -80.5 -36t-38.5 -77 l-28 8q6 23 16 46.5t27.5 42t43 30.5t60.5 12q37 0 76 -14t82 -37q37 -18 75 -33.5t72 -15.5q53 0 82 31.5t43 64.5z" />
<glyph unicode="&#xd2;" horiz-adv-x="1380" d="M756 1542l-252 279h37l247 -279h-32zM154 696q0 -158 35.5 -285.5t104 -218t168 -139.5t228.5 -49t229.5 49t168 139.5t103.5 218.5t36 285q0 156 -35 284t-102.5 218t-168 140.5t-231.5 50.5q-129 0 -229.5 -50.5t-169 -140.5t-103 -218t-34.5 -284zM123 696 q0 164 38 297t110.5 227.5t178 145.5t240.5 51t241.5 -51t178.5 -145.5t109.5 -227.5t37.5 -297t-36.5 -297t-108.5 -227t-178.5 -145.5t-243.5 -51.5t-242.5 51.5t-178 145.5t-109.5 227t-37 297z" />
<glyph unicode="&#xd3;" horiz-adv-x="1380" d="M602 1542l248 279h37l-252 -279h-33zM154 696q0 -158 35.5 -285.5t104 -218t168 -139.5t228.5 -49t229.5 49t168 139.5t103.5 218.5t36 285q0 156 -35 284t-102.5 218t-168 140.5t-231.5 50.5q-129 0 -229.5 -50.5t-169 -140.5t-103 -218t-34.5 -284zM123 696 q0 164 38 297t110.5 227.5t178 145.5t240.5 51t241.5 -51t178.5 -145.5t109.5 -227.5t37.5 -297t-36.5 -297t-108.5 -227t-178.5 -145.5t-243.5 -51.5t-242.5 51.5t-178 145.5t-109.5 227t-37 297z" />
<glyph unicode="&#xd4;" horiz-adv-x="1380" d="M715 1821l227 -279h-35l-211 258l-213 -258h-34l231 279h35zM154 696q0 -158 35.5 -285.5t104 -218t168 -139.5t228.5 -49t229.5 49t168 139.5t103.5 218.5t36 285q0 156 -35 284t-102.5 218t-168 140.5t-231.5 50.5q-129 0 -229.5 -50.5t-169 -140.5t-103 -218 t-34.5 -284zM123 696q0 164 38 297t110.5 227.5t178 145.5t240.5 51t241.5 -51t178.5 -145.5t109.5 -227.5t37.5 -297t-36.5 -297t-108.5 -227t-178.5 -145.5t-243.5 -51.5t-242.5 51.5t-178 145.5t-109.5 227t-37 297z" />
<glyph unicode="&#xd5;" horiz-adv-x="1380" d="M1006 1704q-16 -47 -53.5 -80t-96.5 -33q-39 0 -80 15.5t-78 33.5q-51 25 -83.5 38.5t-63.5 13.5q-55 0 -81 -36t-38 -77l-29 8q6 23 16.5 46.5t28 42t43 30.5t60.5 12q37 0 76 -14t82 -37q37 -18 74.5 -33.5t72.5 -15.5q53 0 82 31.5t43 64.5zM154 696 q0 -158 35.5 -285.5t104 -218t168 -139.5t228.5 -49t229.5 49t168 139.5t103.5 218.5t36 285q0 156 -35 284t-102.5 218t-168 140.5t-231.5 50.5q-129 0 -229.5 -50.5t-169 -140.5t-103 -218t-34.5 -284zM123 696q0 164 38 297t110.5 227.5t178 145.5t240.5 51t241.5 -51 t178.5 -145.5t109.5 -227.5t37.5 -297t-36.5 -297t-108.5 -227t-178.5 -145.5t-243.5 -51.5t-242.5 51.5t-178 145.5t-109.5 227t-37 297z" />
<glyph unicode="&#xd6;" horiz-adv-x="1380" d="M905 1591h-31v199h31v-199zM516 1591h-31v199h31v-199zM154 696q0 -158 35.5 -285.5t104 -218t168 -139.5t228.5 -49t229.5 49t168 139.5t103.5 218.5t36 285q0 156 -35 284t-102.5 218t-168 140.5t-231.5 50.5q-129 0 -229.5 -50.5t-169 -140.5t-103 -218t-34.5 -284z M123 696q0 164 38 297t110.5 227.5t178 145.5t240.5 51t241.5 -51t178.5 -145.5t109.5 -227.5t37.5 -297t-36.5 -297t-108.5 -227t-178.5 -145.5t-243.5 -51.5t-242.5 51.5t-178 145.5t-109.5 227t-37 297z" />
<glyph unicode="&#xd7;" horiz-adv-x="1257" d="M1135 1106l-488 -488l488 -487l-19 -18l-487 487l-488 -487l-18 20l485 485l-485 488l18 20l486 -489l487 489z" />
<glyph unicode="&#xd8;" horiz-adv-x="1394" d="M1229 696q0 131 -25.5 242t-73.5 199l-841 -936q70 -94 170 -145.5t233 -51.5q129 0 229.5 49t168 139.5t103.5 218t36 285.5zM156 696q0 -291 118 -473l842 938q-68 109 -174 168.5t-250 59.5q-129 0 -229.5 -50.5t-169 -140.5t-103 -218t-34.5 -284zM125 696 q0 164 38 297t110.5 227.5t178 145.5t240.5 51q147 0 260 -61.5t185 -171.5l194 217l21 -19l-201 -223q109 -182 109 -463q0 -164 -37 -297t-109 -227t-178.5 -145.5t-243.5 -51.5q-141 0 -247.5 51.5t-178.5 149.5l-192 -215l-21 16l199 222q-127 186 -127 497z" />
<glyph unicode="&#xd9;" horiz-adv-x="1363" d="M729 1542l-252 279h37l248 -279h-33zM682 0q156 0 256 50t154 159q14 31 25 62.5t18.5 71.5t10.5 91t3 117v842h31v-877q0 -106 -12.5 -179t-41.5 -134q-51 -113 -159.5 -172.5t-284.5 -59.5t-284.5 59.5t-159.5 172.5q-29 61 -41.5 134t-12.5 179v877h31v-842 q0 -66 3 -117t10.5 -91t18.5 -71.5t25 -62.5q53 -109 153.5 -159t256.5 -50z" />
<glyph unicode="&#xda;" horiz-adv-x="1363" d="M545 1542l248 279h36l-251 -279h-33zM682 0q156 0 256 50t154 159q14 31 25 62.5t18.5 71.5t10.5 91t3 117v842h31v-877q0 -106 -12.5 -179t-41.5 -134q-51 -113 -159.5 -172.5t-284.5 -59.5t-284.5 59.5t-159.5 172.5q-29 61 -41.5 134t-12.5 179v877h31v-842 q0 -66 3 -117t10.5 -91t18.5 -71.5t25 -62.5q53 -109 153.5 -159t256.5 -50z" />
<glyph unicode="&#xdb;" horiz-adv-x="1363" d="M707 1821l227 -279h-35l-211 258l-213 -258h-35l232 279h35zM682 0q156 0 256 50t154 159q14 31 25 62.5t18.5 71.5t10.5 91t3 117v842h31v-877q0 -106 -12.5 -179t-41.5 -134q-51 -113 -159.5 -172.5t-284.5 -59.5t-284.5 59.5t-159.5 172.5q-29 61 -41.5 134t-12.5 179 v877h31v-842q0 -66 3 -117t10.5 -91t18.5 -71.5t25 -62.5q53 -109 153.5 -159t256.5 -50z" />
<glyph unicode="&#xdc;" horiz-adv-x="1363" d="M895 1591h-31v199h31v-199zM506 1591h-31v199h31v-199zM682 0q156 0 256 50t154 159q14 31 25 62.5t18.5 71.5t10.5 91t3 117v842h31v-877q0 -106 -12.5 -179t-41.5 -134q-51 -113 -159.5 -172.5t-284.5 -59.5t-284.5 59.5t-159.5 172.5q-29 61 -41.5 134t-12.5 179v877 h31v-842q0 -66 3 -117t10.5 -91t18.5 -71.5t25 -62.5q53 -109 153.5 -159t256.5 -50z" />
<glyph unicode="&#xdd;" horiz-adv-x="1077" d="M553 0h-31v594l-491 799h32l476 -768l481 768h33l-502 -799zM506 1542l248 279h37l-252 -279h-33z" />
<glyph unicode="&#xde;" horiz-adv-x="1214" d="M641 469q98 0 174 12.5t141 48.5q68 39 108 111t40 174q0 123 -59.5 204t-163.5 114q-51 16 -117 21t-143 5h-394v-690h414zM227 0h-30v1391h30v-203h408q72 0 126 -4t95 -15q125 -27 202 -116.5t77 -237.5q0 -100 -39 -180t-125 -129q-53 -31 -129 -48.5t-209 -17.5 h-406v-440z" />
<glyph unicode="&#xdf;" horiz-adv-x="999" d="M825 1112q0 -82 -20.5 -137t-57 -89t-86 -51.5t-106.5 -21.5v-2q59 -2 118.5 -17.5t106.5 -58.5t76 -120.5t29 -200.5q0 -119 -18.5 -201t-54.5 -132t-90 -72.5t-126 -22.5q-74 0 -122 21.5t-73 60.5q-12 20 -20 42.5t-13.5 51t-7.5 67.5t-2 93v20h31q0 -74 4 -134.5 t24.5 -103.5t62.5 -67.5t118 -24.5q143 0 199.5 99.5t56.5 304.5q0 113 -25.5 186.5t-77 116.5t-126 60.5t-174.5 17.5h-84v28h79q86 0 151 13.5t109 47.5t66.5 88t22.5 138q0 127 -74 200.5t-221 73.5q-104 0 -161.5 -31.5t-88.5 -84.5q-39 -66 -45 -158t-6 -192v-920h-31 v1012q0 117 18.5 181t49.5 110q47 66 115.5 89t148.5 23q166 0 245.5 -86t79.5 -217z" />
<glyph unicode="&#xe0;" horiz-adv-x="964" d="M758 578q-16 -14 -64.5 -22.5t-97.5 -18.5l-143 -25q-78 -14 -145.5 -33.5t-112.5 -62.5q-29 -27 -44.5 -65t-15.5 -91q0 -119 75 -187.5t202 -68.5q86 0 150.5 29.5t107.5 84t65.5 128t22.5 162.5v170zM961 -8q-25 -6 -62 -6q-84 0 -112.5 44t-28.5 122q0 14 1 49t5 67 h-2q-8 -55 -32.5 -107t-69 -94t-108 -67t-146.5 -25q-147 0 -224.5 80t-77.5 205q0 115 70 178q41 37 96.5 58.5t151.5 38.5l252 45q47 8 65.5 20t18.5 53v49q0 125 -63.5 196t-225.5 71q-154 0 -233.5 -71t-83.5 -206l-29 17q4 141 97 214.5t249 73.5q152 0 235.5 -66.5 t83.5 -234.5v-524q0 -51 6.5 -81t24.5 -50q12 -12 31.5 -19.5t52.5 -7.5q14 0 30.5 1t27.5 5v-28zM522 1114l-252 279h37l248 -279h-33z" />
<glyph unicode="&#xe1;" horiz-adv-x="964" d="M758 578q-16 -14 -64.5 -22.5t-97.5 -18.5l-143 -25q-78 -14 -145.5 -33.5t-112.5 -62.5q-29 -27 -44.5 -65t-15.5 -91q0 -119 75 -187.5t202 -68.5q86 0 150.5 29.5t107.5 84t65.5 128t22.5 162.5v170zM961 -8q-25 -6 -62 -6q-84 0 -112.5 44t-28.5 122q0 14 1 49t5 67 h-2q-8 -55 -32.5 -107t-69 -94t-108 -67t-146.5 -25q-147 0 -224.5 80t-77.5 205q0 115 70 178q41 37 96.5 58.5t151.5 38.5l252 45q47 8 65.5 20t18.5 53v49q0 125 -63.5 196t-225.5 71q-154 0 -233.5 -71t-83.5 -206l-29 17q4 141 97 214.5t249 73.5q152 0 235.5 -66.5 t83.5 -234.5v-524q0 -51 6.5 -81t24.5 -50q12 -12 31.5 -19.5t52.5 -7.5q14 0 30.5 1t27.5 5v-28zM389 1114l248 279h37l-252 -279h-33z" />
<glyph unicode="&#xe2;" horiz-adv-x="964" d="M758 578q-16 -14 -64.5 -22.5t-97.5 -18.5l-143 -25q-78 -14 -145.5 -33.5t-112.5 -62.5q-29 -27 -44.5 -65t-15.5 -91q0 -119 75 -187.5t202 -68.5q86 0 150.5 29.5t107.5 84t65.5 128t22.5 162.5v170zM961 -8q-25 -6 -62 -6q-84 0 -112.5 44t-28.5 122q0 14 1 49t5 67 h-2q-8 -55 -32.5 -107t-69 -94t-108 -67t-146.5 -25q-147 0 -224.5 80t-77.5 205q0 115 70 178q41 37 96.5 58.5t151.5 38.5l252 45q47 8 65.5 20t18.5 53v49q0 125 -63.5 196t-225.5 71q-154 0 -233.5 -71t-83.5 -206l-29 17q4 141 97 214.5t249 73.5q152 0 235.5 -66.5 t83.5 -234.5v-524q0 -51 6.5 -81t24.5 -50q12 -12 31.5 -19.5t52.5 -7.5q14 0 30.5 1t27.5 5v-28zM496 1393l227 -279h-35l-211 258l-213 -258h-35l232 279h35z" />
<glyph unicode="&#xe3;" horiz-adv-x="964" d="M758 578q-16 -14 -64.5 -22.5t-97.5 -18.5l-143 -25q-78 -14 -145.5 -33.5t-112.5 -62.5q-29 -27 -44.5 -65t-15.5 -91q0 -119 75 -187.5t202 -68.5q86 0 150.5 29.5t107.5 84t65.5 128t22.5 162.5v170zM961 -8q-25 -6 -62 -6q-84 0 -112.5 44t-28.5 122q0 14 1 49t5 67 h-2q-8 -55 -32.5 -107t-69 -94t-108 -67t-146.5 -25q-147 0 -224.5 80t-77.5 205q0 115 70 178q41 37 96.5 58.5t151.5 38.5l252 45q47 8 65.5 20t18.5 53v49q0 125 -63.5 196t-225.5 71q-154 0 -233.5 -71t-83.5 -206l-29 17q4 141 97 214.5t249 73.5q152 0 235.5 -66.5 t83.5 -234.5v-524q0 -51 6.5 -81t24.5 -50q12 -12 31.5 -19.5t52.5 -7.5q14 0 30.5 1t27.5 5v-28zM788 1272q-16 -47 -53 -80t-96 -33q-39 0 -80 15.5t-78 33.5q-51 25 -83.5 38.5t-63.5 13.5q-55 0 -81 -36t-38 -77l-29 8q6 23 16.5 46.5t28 42t43 30.5t60.5 12 q37 0 76 -14.5t82 -36.5q37 -18 74.5 -33.5t72.5 -15.5q53 0 82 31.5t43 64.5z" />
<glyph unicode="&#xe4;" horiz-adv-x="964" d="M758 578q-16 -14 -64.5 -22.5t-97.5 -18.5l-143 -25q-78 -14 -145.5 -33.5t-112.5 -62.5q-29 -27 -44.5 -65t-15.5 -91q0 -119 75 -187.5t202 -68.5q86 0 150.5 29.5t107.5 84t65.5 128t22.5 162.5v170zM961 -8q-25 -6 -62 -6q-84 0 -112.5 44t-28.5 122q0 14 1 49t5 67 h-2q-8 -55 -32.5 -107t-69 -94t-108 -67t-146.5 -25q-147 0 -224.5 80t-77.5 205q0 115 70 178q41 37 96.5 58.5t151.5 38.5l252 45q47 8 65.5 20t18.5 53v49q0 125 -63.5 196t-225.5 71q-154 0 -233.5 -71t-83.5 -206l-29 17q4 141 97 214.5t249 73.5q152 0 235.5 -66.5 t83.5 -234.5v-524q0 -51 6.5 -81t24.5 -50q12 -12 31.5 -19.5t52.5 -7.5q14 0 30.5 1t27.5 5v-28zM686 1147h-31v199h31v-199zM311 1147h-30v199h30v-199z" />
<glyph unicode="&#xe5;" horiz-adv-x="964" d="M758 578q-16 -14 -64.5 -22.5t-97.5 -18.5l-143 -25q-78 -14 -145.5 -33.5t-112.5 -62.5q-29 -27 -44.5 -65t-15.5 -91q0 -119 75 -187.5t202 -68.5q86 0 150.5 29.5t107.5 84t65.5 128t22.5 162.5v170zM961 -8q-25 -6 -62 -6q-84 0 -112.5 44t-28.5 122q0 14 1 49t5 67 h-2q-8 -55 -32.5 -107t-69 -94t-108 -67t-146.5 -25q-147 0 -224.5 80t-77.5 205q0 115 70 178q41 37 96.5 58.5t151.5 38.5l252 45q47 8 65.5 20t18.5 53v49q0 125 -63.5 196t-225.5 71q-154 0 -233.5 -71t-83.5 -206l-29 17q4 141 97 214.5t249 73.5q152 0 235.5 -66.5 t83.5 -234.5v-524q0 -51 6.5 -81t24.5 -50q12 -12 31.5 -19.5t52.5 -7.5q14 0 30.5 1t27.5 5v-28zM348 1260q0 -53 38 -91.5t91 -38.5t90 38t37 92q0 53 -37 91t-90 38t-91 -38t-38 -91zM319 1260q0 68 46.5 111.5t111.5 43.5q66 0 111 -44t45 -111q0 -68 -45 -112t-111 -44 t-112 44t-46 112z" />
<glyph unicode="&#xe6;" horiz-adv-x="1662" d="M1530 541q-6 207 -107.5 318.5t-263.5 111.5q-82 0 -148.5 -31t-114.5 -88t-76.5 -136t-35.5 -175h746zM758 578q-16 -14 -64.5 -22.5t-97.5 -18.5l-143 -25q-78 -14 -145.5 -33.5t-112.5 -62.5q-29 -27 -44.5 -65t-15.5 -91q0 -119 75 -187.5t202 -68.5q86 0 150.5 29.5 t107.5 84t65.5 128t22.5 162.5v170zM1159 999q186 0 295 -128t109 -359h-779v-12q0 -229 101.5 -362.5t292.5 -133.5q74 0 129 21.5t98 57.5t72.5 83t50.5 98l24 -24q-23 -51 -55.5 -99.5t-78.5 -85.5t-105.5 -58.5t-136.5 -21.5q-164 0 -263.5 90.5t-134.5 256.5h-2 q-10 -76 -37.5 -139.5t-74 -109.5t-111 -72t-147.5 -26q-147 0 -224.5 80t-77.5 205q0 115 70 178q41 37 96.5 58.5t151.5 38.5l252 45q47 8 65.5 20t18.5 53v49q0 125 -63.5 196t-225.5 71q-154 0 -233.5 -71t-83.5 -206l-29 17q4 141 97 214.5t249 73.5q74 0 134.5 -15 t101 -51t61 -95.5t18.5 -145.5h2q14 63 45 119.5t79 98.5t110.5 66.5t138.5 24.5z" />
<glyph unicode="&#xe7;" horiz-adv-x="993" d="M897 211q-51 -111 -142 -172.5t-220 -63.5l-76 -81l2 -3q12 4 27.5 6.5t33.5 2.5q59 0 108.5 -35t49.5 -109q0 -78 -53.5 -114.5t-124.5 -36.5q-49 0 -92 14l10 29q18 -6 37.5 -10.5t44.5 -4.5q57 0 102 30t45 93t-44 89t-93 26q-47 0 -86 -16l-16 22l90 98 q-92 6 -165 45t-122 104.5t-74.5 157t-25.5 199.5q0 115 26.5 210t79.5 164t130 106.5t179 37.5q137 0 232.5 -67.5t140.5 -181.5l-24 -29q-41 119 -133.5 184.5t-215.5 65.5q-88 0 -158.5 -34t-120.5 -97.5t-78 -153.5t-28 -203t29 -201.5t80 -150t121.5 -94.5t154.5 -33 q123 0 210 61.5t132 170.5z" />
<glyph unicode="&#xe8;" horiz-adv-x="1042" d="M582 1114l-252 279h37l247 -279h-32zM909 541q-4 102 -33.5 182t-80 135t-120 84t-149.5 29q-82 0 -149.5 -31t-118.5 -88t-81 -136t-36 -175h768zM526 999q92 0 169 -32.5t132.5 -95t85 -153.5t29.5 -206h-801v-12q0 -229 106.5 -362.5t297.5 -133.5q74 0 131 21.5 t102 57.5t77 83t52 98l25 -24q-23 -51 -57.5 -99.5t-83 -85.5t-109.5 -58.5t-139 -21.5q-96 0 -176 35t-137.5 101.5t-88 163t-30.5 221.5q0 113 29.5 205t84 158.5t131 103t170.5 36.5z" />
<glyph unicode="&#xe9;" horiz-adv-x="1042" d="M428 1114l248 279h37l-252 -279h-33zM909 541q-4 102 -33.5 182t-80 135t-120 84t-149.5 29q-82 0 -149.5 -31t-118.5 -88t-81 -136t-36 -175h768zM526 999q92 0 169 -32.5t132.5 -95t85 -153.5t29.5 -206h-801v-12q0 -229 106.5 -362.5t297.5 -133.5q74 0 131 21.5 t102 57.5t77 83t52 98l25 -24q-23 -51 -57.5 -99.5t-83 -85.5t-109.5 -58.5t-139 -21.5q-96 0 -176 35t-137.5 101.5t-88 163t-30.5 221.5q0 113 29.5 205t84 158.5t131 103t170.5 36.5z" />
<glyph unicode="&#xea;" horiz-adv-x="1042" d="M549 1393l227 -279h-35l-211 258l-213 -258h-34l231 279h35zM909 541q-4 102 -33.5 182t-80 135t-120 84t-149.5 29q-82 0 -149.5 -31t-118.5 -88t-81 -136t-36 -175h768zM526 999q92 0 169 -32.5t132.5 -95t85 -153.5t29.5 -206h-801v-12q0 -229 106.5 -362.5 t297.5 -133.5q74 0 131 21.5t102 57.5t77 83t52 98l25 -24q-23 -51 -57.5 -99.5t-83 -85.5t-109.5 -58.5t-139 -21.5q-96 0 -176 35t-137.5 101.5t-88 163t-30.5 221.5q0 113 29.5 205t84 158.5t131 103t170.5 36.5z" />
<glyph unicode="&#xeb;" horiz-adv-x="1042" d="M729 1147h-31v199h31v-199zM354 1147h-30v199h30v-199zM909 541q-4 102 -33.5 182t-80 135t-120 84t-149.5 29q-82 0 -149.5 -31t-118.5 -88t-81 -136t-36 -175h768zM526 999q92 0 169 -32.5t132.5 -95t85 -153.5t29.5 -206h-801v-12q0 -229 106.5 -362.5t297.5 -133.5 q74 0 131 21.5t102 57.5t77 83t52 98l25 -24q-23 -51 -57.5 -99.5t-83 -85.5t-109.5 -58.5t-139 -21.5q-96 0 -176 35t-137.5 101.5t-88 163t-30.5 221.5q0 113 29.5 205t84 158.5t131 103t170.5 36.5z" />
<glyph unicode="&#xec;" horiz-adv-x="366" d="M184 1114l-252 279h37l248 -279h-33zM199 0h-31v975h31v-975z" />
<glyph unicode="&#xed;" horiz-adv-x="366" d="M154 1114l247 279h37l-252 -279h-32zM199 0h-31v975h31v-975z" />
<glyph unicode="&#xee;" horiz-adv-x="366" d="M209 1393l227 -279h-35l-211 258l-213 -258h-34l231 279h35zM199 0h-31v975h31v-975z" />
<glyph unicode="&#xef;" horiz-adv-x="366" d="M385 1147h-31v199h31v-199zM10 1147h-30v199h30v-199zM199 0h-31v975h31v-975z" />
<glyph unicode="&#xf0;" horiz-adv-x="1069" d="M141 483q0 -117 29 -206t80 -149t121.5 -92t154.5 -32q86 0 157 32t122 92t79.5 149.5t28.5 205.5q0 233 -106.5 360.5t-280.5 127.5q-86 0 -156.5 -33t-120.5 -95.5t-79 -152.5t-29 -207zM752 1272q98 -170 145 -361.5t47 -390.5q0 -264 -107.5 -404.5t-310.5 -140.5 q-100 0 -177 37t-130 103.5t-80.5 160t-27.5 205.5q0 115 26.5 210t78.5 164t130 106.5t180 37.5q96 0 163 -30.5t112 -75.5t69.5 -99.5t38.5 -99.5l2 2q-23 154 -67.5 296.5t-122.5 271.5l-393 -129l-11 26l390 127q-20 33 -43 63.5t-46 61.5l27 17q25 -33 47.5 -65 t42.5 -67l201 66l10 -27z" />
<glyph unicode="&#xf1;" horiz-adv-x="1046" d="M846 1272q-16 -47 -53 -80t-97 -33q-39 0 -80 15.5t-77 33.5q-51 25 -84 38.5t-64 13.5q-55 0 -80.5 -36t-38.5 -77l-28 8q6 23 16 46.5t27.5 42t43 30.5t60.5 12q37 0 76 -14.5t82 -36.5q37 -18 75 -33.5t72 -15.5q53 0 82 31.5t43 64.5zM889 0h-31v530q0 88 -9 168 t-40 140.5t-90.5 96.5t-159.5 36q-86 0 -153.5 -33t-113.5 -90t-69.5 -134t-23.5 -165v-549h-31v975h31v-115q0 -20 -1 -47t-1 -53q-2 -31 -2 -64h2q4 47 29.5 100.5t70.5 98.5t111.5 74.5t152.5 29.5q98 0 161.5 -30.5t100.5 -88t51.5 -137t14.5 -178.5v-565z" />
<glyph unicode="&#xf2;" horiz-adv-x="1054" d="M580 1114l-252 279h37l247 -279h-32zM141 483q0 -117 29 -206t80 -149t121.5 -92t154.5 -32q86 0 157 32t122 92t79.5 149.5t28.5 205.5q0 233 -106.5 360.5t-280.5 127.5q-86 0 -156.5 -33t-120.5 -95.5t-79 -152.5t-29 -207zM111 481q0 115 26.5 210t78.5 164 t130 106.5t180 37.5t180 -37.5t131.5 -106.5t80 -164t26.5 -210q0 -113 -27.5 -206t-81 -159.5t-131 -103.5t-178.5 -37q-100 0 -177 37t-130 103.5t-80.5 159.5t-27.5 206z" />
<glyph unicode="&#xf3;" horiz-adv-x="1054" d="M412 1114l247 279h37l-252 -279h-32zM141 483q0 -117 29 -206t80 -149t121.5 -92t154.5 -32q86 0 157 32t122 92t79.5 149.5t28.5 205.5q0 233 -106.5 360.5t-280.5 127.5q-86 0 -156.5 -33t-120.5 -95.5t-79 -152.5t-29 -207zM111 481q0 115 26.5 210t78.5 164 t130 106.5t180 37.5t180 -37.5t131.5 -106.5t80 -164t26.5 -210q0 -113 -27.5 -206t-81 -159.5t-131 -103.5t-178.5 -37q-100 0 -177 37t-130 103.5t-80.5 159.5t-27.5 206z" />
<glyph unicode="&#xf4;" horiz-adv-x="1054" d="M547 1393l227 -279h-35l-211 258l-213 -258h-34l231 279h35zM141 483q0 -117 29 -206t80 -149t121.5 -92t154.5 -32q86 0 157 32t122 92t79.5 149.5t28.5 205.5q0 233 -106.5 360.5t-280.5 127.5q-86 0 -156.5 -33t-120.5 -95.5t-79 -152.5t-29 -207zM111 481 q0 115 26.5 210t78.5 164t130 106.5t180 37.5t180 -37.5t131.5 -106.5t80 -164t26.5 -210q0 -113 -27.5 -206t-81 -159.5t-131 -103.5t-178.5 -37q-100 0 -177 37t-130 103.5t-80.5 159.5t-27.5 206z" />
<glyph unicode="&#xf5;" horiz-adv-x="1054" d="M838 1272q-16 -47 -53 -80t-97 -33q-39 0 -80 15.5t-78 33.5q-51 25 -83.5 38.5t-63.5 13.5q-55 0 -81 -36t-38 -77l-28 8q6 23 16 46.5t27.5 42t43 30.5t60.5 12q37 0 76 -14.5t82 -36.5q37 -18 74.5 -33.5t72.5 -15.5q53 0 82 31.5t43 64.5zM141 483q0 -117 29 -206 t80 -149t121.5 -92t154.5 -32q86 0 157 32t122 92t79.5 149.5t28.5 205.5q0 233 -106.5 360.5t-280.5 127.5q-86 0 -156.5 -33t-120.5 -95.5t-79 -152.5t-29 -207zM111 481q0 115 26.5 210t78.5 164t130 106.5t180 37.5t180 -37.5t131.5 -106.5t80 -164t26.5 -210 q0 -113 -27.5 -206t-81 -159.5t-131 -103.5t-178.5 -37q-100 0 -177 37t-130 103.5t-80.5 159.5t-27.5 206z" />
<glyph unicode="&#xf6;" horiz-adv-x="1054" d="M733 1147h-31v199h31v-199zM358 1147h-30v199h30v-199zM141 483q0 -117 29 -206t80 -149t121.5 -92t154.5 -32q86 0 157 32t122 92t79.5 149.5t28.5 205.5q0 233 -106.5 360.5t-280.5 127.5q-86 0 -156.5 -33t-120.5 -95.5t-79 -152.5t-29 -207zM111 481q0 115 26.5 210 t78.5 164t130 106.5t180 37.5t180 -37.5t131.5 -106.5t80 -164t26.5 -210q0 -113 -27.5 -206t-81 -159.5t-131 -103.5t-178.5 -37q-100 0 -177 37t-130 103.5t-80.5 159.5t-27.5 206z" />
<glyph unicode="&#xf7;" horiz-adv-x="1716" d="M872 741h-30v234h30v-234zM872 0h-30v233h30v-233zM168 508h1378v-29h-1378v29z" />
<glyph unicode="&#xf8;" horiz-adv-x="1054" d="M913 483q0 104 -23.5 187.5t-64.5 144.5l-551 -715q100 -96 252 -96q86 0 157 32t122 92t79.5 149t28.5 206zM141 483q0 -121 30 -212t85 -152l553 721q-51 63 -123 97t-160 34q-86 0 -156.5 -33t-120.5 -95.5t-79 -152.5t-29 -207zM111 481q0 115 26.5 210t78.5 164 t130 106.5t180 37.5q98 0 174 -34.5t129 -100.5l107 140l22 -17l-112 -145q49 -68 73.5 -159t24.5 -202q0 -113 -27.5 -206t-81 -159.5t-131 -103.5t-178.5 -37q-166 0 -272 101l-104 -137l-21 16l107 139q-61 66 -93 165t-32 222z" />
<glyph unicode="&#xf9;" horiz-adv-x="1036" d="M569 1114l-252 279h37l248 -279h-33zM158 975h30v-531q0 -88 8.5 -167.5t39 -140t89 -96.5t158.5 -36q86 0 152.5 33t111 90t68 134t23.5 165v549h30v-975h-30v115v45.5t2 54.5q0 31 2 64h-2q-4 -47 -29 -100.5t-69 -98.5t-109.5 -75t-151.5 -30q-98 0 -160.5 31 t-99.5 88.5t-50 137t-13 178.5v565z" />
<glyph unicode="&#xfa;" horiz-adv-x="1036" d="M389 1114l248 279h37l-252 -279h-33zM158 975h30v-531q0 -88 8.5 -167.5t39 -140t89 -96.5t158.5 -36q86 0 152.5 33t111 90t68 134t23.5 165v549h30v-975h-30v115v45.5t2 54.5q0 31 2 64h-2q-4 -47 -29 -100.5t-69 -98.5t-109.5 -75t-151.5 -30q-98 0 -160.5 31 t-99.5 88.5t-50 137t-13 178.5v565z" />
<glyph unicode="&#xfb;" horiz-adv-x="1036" d="M535 1393l227 -279h-35l-211 258l-213 -258h-35l232 279h35zM158 975h30v-531q0 -88 8.5 -167.5t39 -140t89 -96.5t158.5 -36q86 0 152.5 33t111 90t68 134t23.5 165v549h30v-975h-30v115v45.5t2 54.5q0 31 2 64h-2q-4 -47 -29 -100.5t-69 -98.5t-109.5 -75t-151.5 -30 q-98 0 -160.5 31t-99.5 88.5t-50 137t-13 178.5v565z" />
<glyph unicode="&#xfc;" horiz-adv-x="1036" d="M719 1147h-31v199h31v-199zM344 1147h-31v199h31v-199zM158 975h30v-531q0 -88 8.5 -167.5t39 -140t89 -96.5t158.5 -36q86 0 152.5 33t111 90t68 134t23.5 165v549h30v-975h-30v115v45.5t2 54.5q0 31 2 64h-2q-4 -47 -29 -100.5t-69 -98.5t-109.5 -75t-151.5 -30 q-98 0 -160.5 31t-99.5 88.5t-50 137t-13 178.5v565z" />
<glyph unicode="&#xfd;" horiz-adv-x="856" d="M385 1114l248 279h37l-252 -279h-33zM47 -352q29 -18 84 -19q82 0 129 60q20 25 36.5 56.5t39.5 90.5l72 184l-349 955h33l252 -692l80 -226h2q8 23 32.5 89.5t53.5 142.5l266 686h31l-424 -1094q-23 -55 -42 -102t-40 -82q-59 -96 -174 -96q-31 0 -52.5 6t-29.5 10v31z " />
<glyph unicode="&#xfe;" horiz-adv-x="1071" d="M199 821q0 -23 -1 -49.5t-1 -48.5q-2 -27 -2 -55h2q6 49 30.5 107.5t68.5 107.5t109.5 82.5t153.5 33.5q188 0 293.5 -136t105.5 -371q0 -119 -27.5 -214.5t-79.5 -163t-127 -103.5t-167 -36q-90 0 -154.5 32t-107.5 81t-66.5 106.5t-31.5 108.5h-2q0 -29 2 -55 q0 -23 1 -49.5t1 -48.5v-539h-31v1782h31v-572zM197 487q0 -229 98 -356t262 -127q84 0 152.5 34t116.5 97.5t75 153.5t27 203q0 223 -100.5 351t-268.5 128q-82 0 -148.5 -34t-114.5 -96.5t-73.5 -152.5t-25.5 -201z" />
<glyph unicode="&#xff;" horiz-adv-x="856" d="M647 1147h-31v199h31v-199zM272 1147h-30v199h30v-199zM47 -352q29 -18 84 -19q82 0 129 60q20 25 36.5 56.5t39.5 90.5l72 184l-349 955h33l252 -692l80 -226h2q8 23 32.5 89.5t53.5 142.5l266 686h31l-424 -1094q-23 -55 -42 -102t-40 -82q-59 -96 -174 -96 q-31 0 -52.5 6t-29.5 10v31z" />
<glyph unicode="&#x132;" horiz-adv-x="1394" d="M1208 1393v-891q0 -55 -1 -102.5t-5 -88.5q-18 -197 -137 -280q-90 -61 -240 -62q-84 0 -153.5 17.5t-119.5 60.5t-78 113.5t-28 175.5l31 14v-8q0 -80 18.5 -143.5t59.5 -108.5t107.5 -68.5t162.5 -23.5q135 0 213 51t113 156q16 51 21.5 111.5t5.5 123.5v953h30zM227 0 h-30v1393h30v-1393z" />
<glyph unicode="&#x133;" horiz-adv-x="751" d="M584 1157h-31v236h31v-236zM254 -344q31 -16 64.5 -24.5t68.5 -8.5q102 0 134 62.5t32 177.5v1112h31v-1129q0 -119 -42 -185.5t-161 -66.5q-70 0 -127 29v33zM199 1157h-31v236h31v-236zM199 0h-31v975h31v-975z" />
<glyph unicode="&#x152;" horiz-adv-x="2021" d="M1079 0q-61 -12 -117.5 -18.5t-115.5 -6.5q-150 0 -282 40t-230 127t-155.5 223.5t-57.5 326.5t56 326.5t155.5 225.5t232.5 131t287 42q59 0 112.5 -6t112.5 -18h828v-29h-793v-629h719v-28h-719v-678h834v-29h-867zM1079 1360q-59 14 -114.5 19t-114.5 5 q-143 0 -270 -38.5t-222.5 -122.5t-150.5 -215t-55 -316q0 -166 50 -294t140 -216t218 -133t282 -45q59 0 115.5 5t121.5 22v1329z" />
<glyph unicode="&#x153;" horiz-adv-x="1822" d="M1690 541q-6 207 -110.5 318.5t-266.5 111.5q-82 0 -149.5 -31t-117 -88t-79 -136t-35.5 -175h758zM143 483q0 -233 105.5 -356t273.5 -123q174 0 277.5 123t103.5 356v13q-4 227 -105.5 351t-275.5 124q-176 0 -277.5 -127.5t-101.5 -360.5zM1313 999q186 0 297.5 -128 t111.5 -359h-790v-35q4 -221 108.5 -347t290.5 -126q74 0 130.5 21.5t100.5 57.5t74.5 83t51.5 98l24 -24q-23 -51 -56.5 -99.5t-80.5 -85.5t-107.5 -58.5t-138.5 -21.5q-166 0 -271.5 95.5t-137.5 267.5q-29 -162 -127.5 -262.5t-270.5 -100.5q-100 0 -176 37t-128 103.5 t-78.5 160t-26.5 205.5q0 115 25.5 210t76.5 164t128 106.5t179 37.5q170 0 268.5 -99t127.5 -261q31 162 132 261t263 99z" />
<glyph unicode="&#x178;" horiz-adv-x="1077" d="M750 1591h-31v199h31v-199zM360 1591h-30v199h30v-199zM553 0h-31v594l-491 799h32l476 -768l481 768h33l-502 -799z" />
<glyph unicode="&#x2c6;" horiz-adv-x="962" d="M506 1393l227 -279h-35l-211 258l-213 -258h-34l231 279h35z" />
<glyph unicode="&#x2dc;" horiz-adv-x="962" d="M791 1272q-16 -47 -53.5 -80t-96.5 -33q-39 0 -80 15.5t-78 33.5q-51 25 -83.5 38.5t-63.5 13.5q-55 0 -81 -36t-38 -77l-29 8q6 23 16.5 46.5t28 42t43 30.5t60.5 12q37 0 76 -14.5t82 -36.5q37 -18 74.5 -33.5t72.5 -15.5q53 0 82 31.5t43 64.5z" />
<glyph unicode="&#x2000;" horiz-adv-x="920" />
<glyph unicode="&#x2001;" horiz-adv-x="1841" />
<glyph unicode="&#x2002;" horiz-adv-x="920" />
<glyph unicode="&#x2003;" horiz-adv-x="1841" />
<glyph unicode="&#x2004;" horiz-adv-x="613" />
<glyph unicode="&#x2005;" horiz-adv-x="460" />
<glyph unicode="&#x2006;" horiz-adv-x="306" />
<glyph unicode="&#x2007;" horiz-adv-x="306" />
<glyph unicode="&#x2008;" horiz-adv-x="230" />
<glyph unicode="&#x2009;" horiz-adv-x="368" />
<glyph unicode="&#x200a;" horiz-adv-x="102" />
<glyph unicode="&#x2010;" horiz-adv-x="800" d="M117 563h567v-28h-567v28z" />
<glyph unicode="&#x2011;" horiz-adv-x="800" d="M117 563h567v-28h-567v28z" />
<glyph unicode="&#x2012;" horiz-adv-x="800" d="M117 563h567v-28h-567v28z" />
<glyph unicode="&#x2013;" horiz-adv-x="1298" d="M129 569h1040v-28h-1040v28z" />
<glyph unicode="&#x2014;" horiz-adv-x="1689" d="M129 569h1432v-28h-1432v28z" />
<glyph unicode="&#x2018;" horiz-adv-x="329" d="M141 854v293q0 109 14.5 170t65.5 96v-39q-27 -27 -38 -73t-11 -130v-317h-31z" />
<glyph unicode="&#x2019;" horiz-adv-x="331" d="M199 1393v-293q0 -109 -14.5 -170.5t-65.5 -95.5v38q27 27 38 73t11 130v318h31z" />
<glyph unicode="&#x201a;" horiz-adv-x="313" d="M172 233v-292q0 -109 -14.5 -170.5t-65.5 -96.5v39q27 27 38 73t11 130v317h31z" />
<glyph unicode="&#x201c;" horiz-adv-x="540" d="M352 854v293q0 109 14.5 170t65.5 96v-39q-27 -27 -38 -73t-11 -130v-317h-31zM141 854v293q0 109 14.5 170t65.5 96v-39q-27 -27 -38 -73t-11 -130v-317h-31z" />
<glyph unicode="&#x201d;" horiz-adv-x="542" d="M199 1393v-293q0 -109 -14.5 -170.5t-65.5 -95.5v38q27 27 38 73t11 130v318h31zM410 1393v-293q0 -109 -14.5 -170.5t-65.5 -95.5v38q27 27 38 73t11 130v318h31z" />
<glyph unicode="&#x201e;" horiz-adv-x="524" d="M172 233v-292q0 -109 -14.5 -170.5t-65.5 -96.5v39q27 27 38 73t11 130v317h31zM383 233v-292q0 -109 -14.5 -170.5t-65.5 -96.5v39q27 27 38 73t11 130v317h31z" />
<glyph unicode="&#x2022;" horiz-adv-x="565" d="M201 700q0 33 22.5 55.5t55.5 22.5q35 0 58 -22.5t23 -55.5q0 -35 -23.5 -57t-57.5 -22q-33 0 -55.5 22t-22.5 57z" />
<glyph unicode="&#x2026;" horiz-adv-x="1714" d="M1573 0h-31v233h31v-233zM872 0h-30v233h30v-233zM172 0h-31v233h31v-233z" />
<glyph unicode="&#x202f;" horiz-adv-x="368" />
<glyph unicode="&#x2030;" horiz-adv-x="2693" d="M2290 844q-76 0 -130.5 -33t-88 -90t-50 -135t-16.5 -166q0 -90 15.5 -167t49 -132t88 -87t132.5 -32t132 32t88 87t49 132t15 167q0 88 -16 166t-50 135t-88 90t-130 33zM2290 -27q-88 0 -148.5 36t-97.5 97.5t-53.5 142.5t-16.5 173q0 80 14.5 160t51.5 144.5t97.5 105 t152.5 40.5t152.5 -40.5t97 -105t51 -144.5t14.5 -160q0 -92 -16.5 -173t-53 -142.5t-97 -97.5t-148.5 -36zM1454 844q-76 0 -130 -33t-88 -90t-50.5 -135t-16.5 -166q0 -90 15.5 -167t49.5 -132t88 -87t132 -32t132 32t88 87t49.5 132t15.5 167q0 88 -16.5 166t-50.5 135 t-88 90t-130 33zM1454 -27q-88 0 -148.5 36t-97.5 97.5t-53 142.5t-16 173q0 80 14 160t51 144.5t97.5 105t152.5 40.5t152.5 -40.5t97.5 -105t51 -144.5t14 -160q0 -92 -16 -173t-53 -142.5t-97.5 -97.5t-148.5 -36zM575 0h-32l725 1393h35zM406 1389q-76 0 -130.5 -33 t-88 -90.5t-50 -135t-16.5 -165.5q0 -90 15.5 -167t49 -132.5t88 -87t132.5 -31.5t132 31.5t87.5 87t49 132t15.5 167.5q0 88 -16.5 165.5t-50 135t-87.5 90.5t-130 33zM406 518q-88 0 -148.5 36t-97.5 97.5t-53.5 142t-16.5 173.5q0 80 14.5 159.5t51.5 144t97 105.5 t153 41q92 0 152 -41t97 -105.5t51.5 -144t14.5 -159.5q0 -92 -16.5 -173t-53.5 -142.5t-97 -97.5t-148 -36z" />
<glyph unicode="&#x2039;" horiz-adv-x="514" d="M104 594l291 352v-43l-262 -315l262 -322v-43l-291 352v19z" />
<glyph unicode="&#x203a;" horiz-adv-x="514" d="M410 575l-291 -352v43l262 322l-262 315v43l291 -352v-19z" />
<glyph unicode="&#x205f;" horiz-adv-x="460" />
<glyph unicode="&#x20ac;" horiz-adv-x="1259" d="M1149 291q-25 -70 -62.5 -128.5t-89 -99t-119 -64.5t-151.5 -24q-117 0 -201 42t-141 115t-90 171t-47 211h-164l8 27h152q-4 35 -5 76.5t-1 76.5t1 77t5 77h-156l8 26h152q14 119 51 218.5t96.5 172t141 112.5t190.5 40q162 0 264.5 -88t155.5 -235l-27 -19 q-51 147 -148.5 230.5t-244.5 83.5q-193 0 -306.5 -137.5t-141.5 -377.5h593l-10 -26h-588q-4 -33 -5 -76t-1 -78q0 -37 1 -78t5 -75h490l-10 -27h-475q16 -115 48.5 -209t87 -160.5t131.5 -103.5t181 -37q160 0 256 86t141 219z" />
<glyph unicode="&#x2122;" horiz-adv-x="1783" d="M102 1393h641v-29h-305v-866h-30v866h-306v29zM1262 498l-238 702q-4 8 -12 34t-19 54q-10 33 -22 72h-2q0 -45 2 -86q0 -35 1 -74t1 -67v-635h-31v895h47l228 -668q12 -35 23 -69.5t22 -63.5q10 -35 20 -66h2q8 29 19 62q8 29 19 64.5t24 72.5l210 668h50v-895h-31v653 v133q0 37 2 76h-2q-6 -27 -14 -51q-6 -23 -14.5 -49.5t-18.5 -55.5l-225 -706h-41z" />
<glyph unicode="&#x2190;" horiz-adv-x="1662" d="M1561 475h-1424l473 -475h-43l-485 489l485 486h43l-473 -471h1424v-29z" />
<glyph unicode="&#x2192;" horiz-adv-x="1662" d="M1096 975l485 -486l-485 -489h-43l473 475h-1424v29h1424l-473 471h43z" />
<glyph unicode="&#x25fc;" horiz-adv-x="972" d="M0 973h973v-973h-973v973z" />
<glyph horiz-adv-x="1990" d="M1823 682h-1692l686 -682h-43l-696 696l696 697h43l-686 -682h1661v682h31v-711z" />
<glyph horiz-adv-x="1232" d="M616 -25q-137 0 -231 58.5t-151.5 158t-82 229.5t-24.5 273q0 154 29.5 286t90 229.5t153 152.5t216.5 55q125 0 218.5 -55t153 -152.5t89 -229.5t29.5 -286q0 -143 -24.5 -273t-82 -229.5t-152 -158t-231.5 -58.5zM616 1389q-117 0 -202.5 -54.5t-143 -147.5t-85 -220 t-27.5 -273q0 -135 23.5 -259t76.5 -220t141 -153.5t217 -57.5q131 0 219.5 56.5t141.5 151.5t75.5 220t22.5 260q0 145 -27.5 272.5t-84 221.5t-142.5 148.5t-205 54.5z" />
<glyph horiz-adv-x="645" d="M449 0h-31v1092v94q0 23 2 43h-2q-25 -66 -96.5 -114t-215.5 -48h-34q-8 0 -15 2v29q6 -2 15 -2h32q80 0 130.5 15t91.5 44q53 39 71.5 98.5t22.5 139.5h29v-1393z" />
<glyph horiz-adv-x="1110" d="M997 0h-884v29q45 31 110.5 77t138 101t147.5 114.5t140 116.5q61 55 115.5 112.5t96.5 122t66.5 139.5t24.5 165q0 96 -30.5 172t-85 129t-129 82t-162.5 29q-98 0 -173 -32t-125 -85t-75 -122t-25 -140q0 -53 10.5 -104.5t37.5 -102.5l-41 12q-20 49 -28.5 99.5 t-8.5 95.5q0 82 27.5 155.5t82 130t134 89t184.5 32.5q111 0 193.5 -35.5t137 -96t82 -140.5t27.5 -168q0 -104 -36 -193.5t-94 -167t-133 -147.5t-151 -133q-51 -43 -116.5 -93t-127 -95.5t-110.5 -79t-65 -41.5v-2q35 2 88 3t110 1h647v-29z" />
<glyph horiz-adv-x="1124" d="M135 1122q2 39 24.5 90.5t73 97.5t129 76.5t191.5 30.5q102 0 179 -27.5t128 -73.5t77 -108.5t26 -132.5q0 -141 -90.5 -223t-249.5 -109v-2q86 -6 155.5 -31.5t118.5 -69.5t75.5 -109.5t26.5 -153.5t-30.5 -162t-89 -127t-142.5 -83t-188 -30q-193 0 -310.5 90.5 t-134.5 253.5l29 25q6 -94 44 -158.5t96.5 -104.5t130 -58.5t145.5 -18.5q92 0 169 25.5t132 75t87 118t32 154.5q0 104 -46 183t-139 120q-74 33 -165 40t-191 7h-76v29h74q63 0 110.5 3t84 9t66.5 14.5t58 20.5q78 31 132.5 97.5t54.5 174.5q0 66 -25.5 123t-74 99 t-119 67t-160.5 25t-159.5 -24t-120 -62.5t-79 -90t-34.5 -108.5z" />
<glyph horiz-adv-x="1126" d="M705 438v643q0 86 -1.5 157t3.5 114h-2q-20 -41 -65.5 -106.5t-109.5 -158.5l-446 -649h621zM735 1393v-955h334v-28h-334v-410h-30v410h-658v24l655 959h33z" />
<glyph horiz-adv-x="1099" d="M193 694h2q12 31 39.5 69t71.5 71.5t107.5 56t149.5 22.5q90 0 170 -29.5t138.5 -87t92 -142.5t33.5 -193q0 -104 -30.5 -192.5t-89 -154t-144.5 -102.5t-198 -37q-164 0 -274.5 80t-156.5 217l27 21q14 -55 48 -107.5t84 -92.5t119 -64.5t153 -24.5q94 0 173.5 32 t137 91t89.5 143t32 189q0 86 -26 163.5t-78 136t-129 92.5t-179 34q-137 0 -237.5 -80t-137.5 -205l-20 8l43 785h723v-29h-695z" />
<glyph horiz-adv-x="1159" d="M1018 444q0 104 -33 182.5t-89 129.5t-131 76.5t-157 25.5q-80 0 -150.5 -21.5t-128 -59.5t-100.5 -87t-65 -104q14 -281 125.5 -431.5t322.5 -150.5q88 0 163 32t128 89t84 138t31 181zM983 1120q-10 41 -34.5 88t-67.5 87t-106.5 67t-153.5 27q-113 0 -199 -51.5 t-144.5 -144.5t-88 -226t-29.5 -297v-41q57 119 179 188.5t269 69.5q86 0 166 -26.5t141.5 -81t97.5 -137.5t36 -198q0 -96 -28 -181t-83 -148.5t-137 -101.5t-189 -38q-104 0 -193 38t-153.5 121t-100.5 215t-36 321q0 172 32 311t94 235.5t154.5 148.5t213.5 52 q160 0 255 -77.5t130 -192.5z" />
<glyph horiz-adv-x="1021" d="M1006 1368q-104 -150 -199.5 -317.5t-161.5 -325.5q-72 -178 -120 -357.5t-62 -367.5h-31q10 190 62.5 380.5t130.5 371.5q33 80 74.5 162.5t86.5 162.5t92.5 153t90.5 134h-854v-373h-31v402h922v-25z" />
<glyph horiz-adv-x="1196" d="M598 1417q98 0 179 -23.5t138.5 -67.5t88 -107.5t30.5 -143.5q0 -135 -82 -224t-235 -114v-2q70 -8 134 -34.5t113.5 -72.5t78 -111.5t28.5 -149.5q0 -104 -36 -178t-98.5 -121.5t-149.5 -70t-189 -22.5t-189 22.5t-149.5 70t-98.5 121t-36 178.5q0 84 28.5 149.5 t78 111.5t114 72.5t133.5 34.5v2q-154 25 -235.5 114t-81.5 224q0 80 30.5 143.5t88 107.5t138.5 67.5t179 23.5zM598 4q217 0 329.5 97.5t112.5 265.5q0 82 -31.5 148.5t-90 112.5t-140.5 70.5t-180 24.5t-180 -24.5t-140.5 -70.5t-90 -112.5t-31.5 -148.5 q0 -168 112.5 -265.5t329.5 -97.5zM598 750q88 0 163 22.5t129 64.5t84 102t30 136q0 141 -105.5 227.5t-300.5 86.5t-300 -86t-105 -228q0 -76 29.5 -136t83.5 -102t128 -64.5t164 -22.5z" />
<glyph horiz-adv-x="1159" d="M141 948q0 -104 33 -182t89 -129t130 -76.5t158 -25.5q80 0 150.5 21.5t128 59t100.5 87t65 104.5q-14 281 -125.5 431.5t-322.5 150.5q-88 0 -163 -32t-128 -89.5t-84 -138.5t-31 -181zM176 272q10 -41 35 -88t68 -87t106.5 -66.5t153.5 -26.5q113 0 198.5 51t144 144.5 t88 226.5t29.5 297v41q-57 -119 -179 -188.5t-269 -69.5q-86 0 -166 26.5t-141.5 81t-97 137.5t-35.5 197q0 94 27.5 180t82.5 149.5t137 101.5t189 38q104 0 193 -38t153.5 -120.5t100.5 -215t36 -320.5q0 -172 -31.5 -311.5t-94 -235.5t-155 -148.5t-212.5 -52.5 q-160 0 -255.5 78t-129.5 193z" />
<glyph horiz-adv-x="1677" d="M1100 801q-6 -6 -22.5 -11.5t-38 -9.5t-45 -8t-44.5 -8l-123 -23q-53 -10 -102 -22t-86 -33.5t-59.5 -58.5t-22.5 -95q0 -102 68.5 -159.5t173.5 -57.5q76 0 132 28t94 77t56.5 115.5t18.5 142.5v123zM1231 326q59 0 115.5 35.5t99.5 102t69.5 159t26.5 202.5 q0 119 -44 236t-127 208t-205 147.5t-275 56.5q-160 0 -296 -55.5t-236.5 -157t-157 -244t-56.5 -314.5t57.5 -314t159 -243.5t241.5 -157t306 -55.5q186 0 333 71t249 200l22 -27q-104 -129 -254.5 -200.5t-349.5 -71.5q-178 0 -324.5 58t-251 162.5t-161.5 252t-57 325.5 q0 180 59 328t162.5 252t246 161.5t308.5 57.5t293 -59.5t214 -154.5t131 -216t44 -246t-30 -223t-78 -165.5t-109.5 -102.5t-126.5 -35q-76 0 -102.5 40t-26.5 107v30t2 38h-2q-10 -39 -31.5 -79t-58.5 -72.5t-89.5 -53t-121.5 -20.5q-127 0 -200 65.5t-73 177.5 q0 55 18.5 94.5t53.5 65t84 42t111 28.5l239 45q29 6 48.5 15t19.5 44v39q0 111 -57.5 168t-194.5 57q-127 0 -194.5 -59t-69.5 -170l-29 12q-2 119 79 182.5t214 63.5q78 0 135 -17.5t94 -60.5q27 -31 40 -77t13 -123v-412q0 -66 20 -104.5t81 -38.5z" />
<glyph horiz-adv-x="378" d="M205 -160h-31v1716h31v-1716z" />
<glyph horiz-adv-x="1349" d="M688 1290v-590h580v-28h-580v-590h-29v590h-577v28h577v590h29z" />
<glyph horiz-adv-x="1527" d="M1364 82h-1200v29h1200v-29zM782 301h-30v485h-588v29h588v481h30v-481h582v-29h-582v-485z" />
<glyph horiz-adv-x="1261" d="M1137 1188l-488 -488l488 -487l-19 -18l-487 487l-488 -487l-18 20l485 485l-485 488l18 20l486 -489l487 489z" />
<glyph horiz-adv-x="1751" d="M891 946h-31v234h31v-234zM891 205h-31v233h31v-233zM186 713h1379v-29h-1379v29z" />
<glyph horiz-adv-x="1783" d="M182 897h1379v-29h-1379v29zM182 539h1379v-29h-1379v29z" />
<glyph horiz-adv-x="1085" d="M924 494h-31v440h-780v29h811v-469z" />
<glyph horiz-adv-x="419" d="M328 -227q-104 199 -159.5 418t-55.5 448q0 223 54 442t155 418l28 -6q-102 -201 -154.5 -416t-52.5 -438q0 -225 53.5 -442t161.5 -416z" />
<glyph horiz-adv-x="419" d="M61 -219q109 199 162 416t53 442q0 223 -52 438t-154 416l28 6q100 -199 154.5 -418t54.5 -442q0 -229 -55 -448.5t-160 -417.5z" />
<glyph horiz-adv-x="817" d="M125 686h567v-29h-567v29z" />
<glyph horiz-adv-x="528" d="M465 -221h-291v1716h291v-29h-260v-1659h260v-28z" />
<glyph horiz-adv-x="528" d="M63 -193h261v1659h-261v29h291v-1716h-291v28z" />
<glyph horiz-adv-x="565" d="M92 637q51 -18 82 -42t48.5 -58.5t22.5 -87t5 -127.5v-252q0 -74 11 -124t40 -81t78 -45.5t127 -14.5v-26h-8q-80 0 -133.5 14t-85 48t-46 87.5t-14.5 130.5v238q0 70 -3 123t-17.5 92t-43 63.5t-79.5 40.5v43q51 14 79.5 40t43 65t17.5 91t3 124v235q0 78 14.5 131.5 t46 87t85 48t133.5 14.5h8v-27q-78 0 -127 -14t-78 -45t-40 -81t-11 -124v-250q0 -76 -5 -128t-22.5 -86.5t-48.5 -58.5t-82 -42v-2z" />
<glyph horiz-adv-x="565" d="M473 639q-51 18 -82 42t-48 58.5t-22.5 87t-5.5 127.5v250q0 74 -11 124t-39.5 81t-79 45t-126.5 14v27h9q80 0 133 -14.5t84.5 -48t46 -87t14.5 -131.5v-235q0 -72 3 -124t17.5 -91t43 -64.5t79.5 -40.5v-43q-51 -16 -79.5 -40.5t-43 -63.5t-17.5 -92t-3 -123v-238 q0 -78 -14.5 -131t-46 -87t-85 -48t-132.5 -14h-9v26q76 0 126.5 14.5t79 45.5t39.5 81t11 124v252q0 76 5.5 128t22.5 86.5t48 58t82 42.5v2z" />
<glyph horiz-adv-x="774" d="M367 655l290 353v-43l-262 -316l262 -321v-43l-290 352v18zM104 655l291 353v-43l-262 -316l262 -321v-43l-291 352v18z" />
<glyph horiz-adv-x="817" d="M125 686h567v-29h-567v29z" />
<glyph horiz-adv-x="774" d="M408 637l-291 -352v43l262 321l-262 316v43l291 -353v-18zM670 637l-291 -352v43l262 321l-262 316v43l291 -353v-18z" />
<glyph horiz-adv-x="1261" d="M111 692h1040v-28h-1040v28z" />
<glyph horiz-adv-x="1652" d="M111 692h1431v-28h-1431v28z" />
<glyph horiz-adv-x="512" d="M104 655l291 353v-43l-262 -316l262 -321v-43l-291 352v18z" />
<glyph horiz-adv-x="512" d="M408 637l-291 -352v43l262 321l-262 316v43l291 -353v-18z" />
<glyph horiz-adv-x="387" d="M209 -324h-31v662h31v-662zM209 731h-31v662h31v-662z" />
<glyph horiz-adv-x="1925" d="M1823 682h-1692l686 -682h-43l-696 696l696 697h43l-686 -682h1692v-29z" />
<glyph horiz-adv-x="1925" d="M1151 1393l696 -697l-696 -696h-43l686 682h-1692v29h1692l-686 682h43z" />
<glyph horiz-adv-x="366" d="M199 1157h-31v236h31v-236zM199 0h-31v975h31v-975z" />
<glyph d="M604 -25q-137 0 -231 58.5t-151.5 158t-82 229.5t-24.5 273q0 154 29.5 286t90 229.5t152.5 152.5t217 55t218 -55t152.5 -152.5t89.5 -229.5t30 -286q0 -143 -25 -273t-82 -229.5t-151.5 -158t-231.5 -58.5zM604 1389q-117 0 -203 -54.5t-143 -147.5t-85 -220t-28 -273 q0 -135 24 -259t77 -220t141 -153.5t217 -57.5q131 0 219 56.5t141.5 151.5t76 220t22.5 260q0 145 -27.5 272.5t-84 221.5t-142.5 148.5t-205 54.5z" />
<glyph d="M903 1253q-53 63 -129 99.5t-170 36.5q-117 0 -203 -54.5t-143 -147.5t-85 -220t-28 -273q0 -156 31 -296t105 -238zM301 133q53 -59 128 -94t175 -35q131 0 219 56.5t141.5 151.5t76 220t22.5 260q0 164 -35 302.5t-106 234.5zM604 -25q-137 0 -231 58.5t-151.5 158 t-82 229.5t-24.5 273q0 154 29.5 286t90 229.5t152.5 152.5t217 55t218 -55t152.5 -152.5t89.5 -229.5t30 -286q0 -143 -25 -273t-82 -229.5t-151.5 -158t-231.5 -58.5z" />
<glyph d="M729 0h-31v1092v94q0 23 2 43h-2q-25 -66 -96.5 -114t-214.5 -48h-35q-8 0 -14 2v29q6 -2 14 -2h33q80 0 130 15t91 44q53 39 71.5 98.5t22.5 139.5h29v-1393z" />
<glyph d="M1047 0h-885v29q45 31 110.5 77t138 101t147.5 114.5t140 116.5q61 55 115.5 112.5t96.5 122t66.5 139.5t24.5 165q0 96 -30.5 172t-85 129t-129 82t-162.5 29q-98 0 -173 -32t-125 -85t-74.5 -122t-24.5 -140q0 -53 10 -104.5t37 -102.5l-41 12q-20 49 -28.5 99.5 t-8.5 95.5q0 82 27.5 155.5t82 130t134 89t184.5 32.5q111 0 193.5 -35.5t137 -96t82 -140.5t27.5 -168q0 -104 -35.5 -193.5t-94 -167t-133.5 -147.5t-150 -133q-51 -43 -117 -93t-127.5 -95.5t-110.5 -79t-65 -41.5v-2q35 2 88 3t110 1h648v-29z" />
<glyph d="M176 1122q2 39 24.5 90.5t73 97.5t129 76.5t191.5 30.5q102 0 179 -27.5t128 -73.5t77 -108.5t26 -132.5q0 -141 -90.5 -223t-249.5 -109v-2q86 -6 155.5 -31.5t118.5 -69.5t75.5 -109.5t26.5 -153.5t-30.5 -162t-89 -127t-142.5 -83t-188 -30q-193 0 -310.5 90.5 t-134.5 253.5l29 25q6 -94 44 -158.5t96.5 -104.5t130 -58.5t145.5 -18.5q92 0 169 25.5t132 75t87 118t32 154.5q0 104 -46 183t-139 120q-74 33 -165 40t-191 7h-76v29h74q63 0 110.5 3t84 9t66.5 14.5t58 20.5q78 31 132.5 97.5t54.5 174.5q0 66 -25.5 123t-74 99 t-119 67t-160.5 25t-159.5 -24t-120 -62.5t-79 -90t-34.5 -108.5z" />
<glyph d="M745 438v643q0 86 -1 157t4 114h-3q-20 -41 -65 -106.5t-109 -158.5l-446 -649h620zM776 1393v-955h334v-28h-334v-410h-31v410h-657v24l655 959h33z" />
<glyph d="M248 694h2q12 31 39.5 69t72 71.5t107.5 56t149 22.5q90 0 170 -29.5t138.5 -87t92.5 -142.5t34 -193q0 -104 -31 -192.5t-89.5 -154t-144.5 -102.5t-198 -37q-164 0 -274.5 80t-155.5 217l26 21q14 -55 48 -107.5t84.5 -92.5t119 -64.5t152.5 -24.5q94 0 174 32t137 91 t89 143t32 189q0 86 -25.5 163.5t-78 136t-129 92.5t-179.5 34q-137 0 -237.5 -80t-136.5 -205l-21 8l43 785h723v-29h-694z" />
<glyph d="M1042 444q0 104 -32.5 182.5t-89 129.5t-131 76.5t-156.5 25.5q-80 0 -150.5 -21.5t-128 -59.5t-100.5 -87t-66 -104q14 -281 126 -431.5t323 -150.5q88 0 162.5 32t128 89t84 138t30.5 181zM1008 1120q-10 41 -35 88t-68 87t-106.5 67t-153.5 27q-113 0 -199 -51.5 t-144 -144.5t-88 -226t-30 -297v-41q57 119 179 188.5t270 69.5q86 0 166 -26.5t141 -81t97 -137.5t36 -198q0 -96 -27.5 -181t-83 -148.5t-137.5 -101.5t-188 -38q-104 0 -193.5 38t-154 121t-100 215t-35.5 321q0 172 31.5 311t94 235.5t154.5 148.5t213 52 q160 0 255 -77.5t130 -192.5z" />
<glyph d="M1098 1368q-104 -150 -199.5 -317.5t-161.5 -325.5q-72 -178 -120 -357.5t-62 -367.5h-31q10 190 62.5 380.5t130.5 371.5q33 80 75 162.5t87 162.5t92 153t90 134h-854v-373h-31v402h922v-25z" />
<glyph d="M604 1417q98 0 179 -23.5t138.5 -67.5t88 -107.5t30.5 -143.5q0 -135 -81.5 -224t-235.5 -114v-2q70 -8 134.5 -34.5t113.5 -72.5t77.5 -111.5t28.5 -149.5q0 -104 -35.5 -178t-98 -121.5t-149.5 -70t-190 -22.5q-102 0 -189 22.5t-149.5 70t-98.5 121t-36 178.5 q0 84 28.5 149.5t78 111.5t114 72.5t133.5 34.5v2q-154 25 -235.5 114t-81.5 224q0 80 30.5 143.5t88 107.5t138.5 67.5t179 23.5zM604 4q217 0 330 97.5t113 265.5q0 82 -32 148.5t-90.5 112.5t-140.5 70.5t-180 24.5t-180 -24.5t-140.5 -70.5t-90 -112.5t-31.5 -148.5 q0 -168 112.5 -265.5t329.5 -97.5zM604 750q88 0 163 22.5t129 64.5t84 102t30 136q0 141 -105.5 227.5t-300.5 86.5t-300 -86t-105 -228q0 -76 29.5 -136t84 -102t128 -64.5t163.5 -22.5z" />
<glyph d="M166 948q0 -104 32.5 -182t89 -129t130.5 -76.5t157 -25.5q80 0 151 21.5t128 59t100 87t66 104.5q-14 281 -126 431.5t-323 150.5q-88 0 -162.5 -32t-128 -89.5t-84 -138.5t-30.5 -181zM201 272q10 -41 34.5 -88t67.5 -87t106.5 -66.5t153.5 -26.5q113 0 199 51 t144.5 144.5t88 226.5t29.5 297v41q-57 -119 -179 -188.5t-270 -69.5q-86 0 -165.5 26.5t-141 81t-97.5 137.5t-36 197q0 94 27.5 180t83 149.5t137.5 101.5t188 38q104 0 193.5 -38t154 -120.5t100.5 -215t36 -320.5q0 -172 -32 -311.5t-94.5 -235.5t-154.5 -148.5 t-213 -52.5q-160 0 -255 78t-130 193z" />
</font>
</defs>
</svg>
