<svg xmlns="http://www.w3.org/2000/svg" viewBox="0 0 155.15 28.22"><title>RISDGlobal_Global</title><path d="M18.9,13.64,10.13,5.19v23.9H18.9v1.34H8.65V5.23l-8.8,8.41V11.8L9.37,2.69,18.9,11.8v1.84Z" transform="translate(0.15 -2.69)"/><path d="M35.51,2.73a10.39,10.39,0,0,1,10,6.48l-1.24,1.16c-1.56-4-4.64-6.24-8.77-6.24-6,0-9.93,5-9.93,12.69s4.05,12.69,10,12.69c4.61,0,8.61-3,8.61-8.29V18.5H34.47V17H45.68V30.43H44.2V25.75h0c-1.12,2.44-3.72,5.16-8.77,5.16C28.27,30.91,24,25.27,24,16.82S28.39,2.73,35.51,2.73Z" transform="translate(0.15 -2.69)"/><path d="M66.66,30.43H50V3.21h1.56V29H66.66Z" transform="translate(0.15 -2.69)"/><path d="M77.26,2.73c7.17,0,11.53,5.56,11.53,14.09S84.47,30.91,77.26,30.91,65.73,25.35,65.73,16.82,70.14,2.73,77.26,2.73Zm0,26.78c6,0,10-5,10-12.69s-3.88-12.69-10-12.69-9.93,5-9.93,12.69S71.3,29.51,77.26,29.51Z" transform="translate(0.15 -2.69)"/><path d="M106.57,16.18a6.71,6.71,0,0,1,6.16,6.88,6.56,6.56,0,0,1-3.56,6.13c-1.52.8-3.12,1.24-6.93,1.24H92.11V3.21h9.29c3.32,0,5.77.16,7.61,1.48a6.34,6.34,0,0,1,2.68,5.36A6.1,6.1,0,0,1,106.57,16.18Zm1.76-10C107,5,105.24,4.69,102.16,4.69H93.67V15.54H102c2.8,0,4-.2,5.09-.68a4.85,4.85,0,0,0,3-4.73A5,5,0,0,0,108.33,6.13ZM93.67,16.94V29h8.89c3.41,0,4.81-.4,6.13-1.24A5.12,5.12,0,0,0,111.05,23a5.46,5.46,0,0,0-3.56-5.44,12.81,12.81,0,0,0-4.93-.64Z" transform="translate(0.15 -2.69)"/><path d="M115,30.43h-1.6L123.66,3.21h1.92l10.21,27.22h-1.56L131,21.86H118.13ZM126.3,9.33c-.52-1.4-1.32-3.68-1.68-4.92-.48,1.36-1.32,3.56-1.8,4.88l-4.17,11.13h11.81Z" transform="translate(0.15 -2.69)"/><path d="M155,30.43H138.3V3.21h1.57V29H155Z" transform="translate(0.15 -2.69)"/></svg>