<?xml version="1.0" encoding="utf-8"?>
<!-- Generator: Adobe Illustrator 23.0.1, SVG Export Plug-In . SVG Version: 6.00 Build 0)  -->
<svg version="1.1" id="Layer_1" xmlns="http://www.w3.org/2000/svg" xmlns:xlink="http://www.w3.org/1999/xlink" x="0px" y="0px"
	 viewBox="0 0 28.2 155.1" style="enable-background:new 0 0 28.2 155.1;" xml:space="preserve">
<style type="text/css">
	.st0{fill:#FFFFFF;}
</style>
<title>RISDGlobal_Global</title>
<path class="st0" d="M11,136.1l-8.5,8.8h23.9v-8.8h1.3v10.2H2.5l8.4,8.8H9.1L0,145.6l9.1-9.5H11z"/>
<path class="st0" d="M0,119.4c-0.2-4.4,2.4-8.4,6.5-10l1.2,1.2c-4,1.6-6.2,4.6-6.2,8.8c0,6,5,9.9,12.7,9.9s12.7-4,12.7-10
	c0-4.6-3-8.6-8.3-8.6h-2.7v9.7h-1.5v-11.2h13.4v1.5h-4.7l0,0c2.4,1.1,5.2,3.7,5.2,8.8c0,7.2-5.6,11.4-14.1,11.4S0,126.6,0,119.4z"/>
<path class="st0" d="M27.7,88.3v16.6H0.5v-1.6h25.8V88.2L27.7,88.3L27.7,88.3z"/>
<path class="st0" d="M0,77.7c0-7.2,5.6-11.5,14.1-11.5s14.1,4.3,14.1,11.5s-5.6,11.5-14.1,11.5S0,84.8,0,77.7z M26.8,77.7
	c0-6-5-10-12.7-10s-12.7,3.9-12.7,10s5,9.9,12.7,9.9S26.8,83.6,26.8,77.7z"/>
<path class="st0" d="M13.5,48.4c0.3-3.6,3.3-6.3,6.9-6.2c2.6-0.1,5,1.3,6.1,3.6c0.8,1.5,1.2,3.1,1.2,6.9v10.1H0.5v-9.3
	c0-3.3,0.2-5.8,1.5-7.6c1.2-1.7,3.2-2.7,5.4-2.7C10.4,43.2,13,45.4,13.5,48.4z M3.5,46.6C2.3,47.9,2,49.7,2,52.8v8.5h10.9V53
	c0-2.8-0.2-4-0.7-5.1c-0.8-1.9-2.7-3.1-4.7-3C5.9,44.8,4.4,45.5,3.5,46.6L3.5,46.6z M14.2,61.3h12.1v-8.9c0-3.4-0.4-4.8-1.2-6.1
	c-1-1.6-2.9-2.5-4.8-2.4c-2.4-0.1-4.6,1.3-5.4,3.6c-0.5,1.6-0.8,3.3-0.6,4.9L14.2,61.3z"/>
<path class="st0" d="M27.7,39.9v1.6L0.5,31.2v-1.9l27.2-10.2v1.6l-8.6,3.2v12.9L27.7,39.9z M6.6,28.6c-1.4,0.5-3.7,1.3-4.9,1.7
	c1.4,0.5,3.6,1.3,4.9,1.8l11.1,4.2V24.5L6.6,28.6z"/>
<path class="st0" d="M27.7,0v16.7H0.5v-1.6h25.8V0L27.7,0L27.7,0z"/>
</svg>
