<svg xmlns="http://www.w3.org/2000/svg" viewBox="0 0 94.59 28.36"><title>RISDGlobal_RISD</title><path d="M24.27,27.7h-2L13.42,15.25H5.53V27.7H4V.48h9.17a15.23,15.23,0,0,1,5.84.8,6.87,6.87,0,0,1,4.33,6.57,6.61,6.61,0,0,1-2.61,5.6,9.58,9.58,0,0,1-5.48,1.68ZM13.1,13.81c3,0,5-.36,6.56-1.52a5.16,5.16,0,0,0,2-4.44A5.39,5.39,0,0,0,19.18,3.2C17.62,2.2,16,2,13.1,2H5.53V13.81Z" transform="translate(-3.97)"/><path d="M28.75,27.7H27.19V.48h1.56Z" transform="translate(-3.97)"/><path d="M49,5.16a9.55,9.55,0,0,0-7.76-3.8c-4.17,0-7.33,2-7.33,5.49s2.12,4.76,6.17,5.6l3.76.8c4.52,1,7.57,2.84,7.57,7.17,0,4.6-3.57,7.76-9.77,7.76a11.49,11.49,0,0,1-10.45-5.84l1.32-1a9.92,9.92,0,0,0,9.17,5.48c5.28,0,8.12-2.6,8.12-6.24,0-3.29-2.32-5-6.4-5.85l-3.8-.8c-3.93-.84-7.29-2.24-7.29-6.88,0-4.25,3.56-7,8.93-7a11.11,11.11,0,0,1,8.88,3.92Z" transform="translate(-3.97)"/><path d="M62.17.48c4.17,0,6.69.08,9.25,1.88,3,2.08,5,6.33,5,11.65,0,4.61-1.44,8.49-3.92,10.93-2.72,2.64-5.4,2.76-10.93,2.76H55.29V.48ZM56.85,26.22h5.76c3.4,0,6.17,0,8.37-2s3.84-5.36,3.84-10.09C74.82,10,73.46,6.24,70.9,4c-2.28-2-4.6-2-9.29-2H56.85Z" transform="translate(-3.97)"/><path d="M79.5,17.41l8.77,8.45V2H79.5V.62H89.75v25.2l8.81-8.41v1.84L89,28.36,79.5,19.25V17.41Z" transform="translate(-3.97)"/></svg>