<svg xmlns="http://www.w3.org/2000/svg" viewBox="0 0 155.15 63.41"><title>RISDGlobal</title><path d="M24.27,27.7h-2L13.42,15.25H5.53V27.7H4V.48h9.17a15.23,15.23,0,0,1,5.84.8,6.87,6.87,0,0,1,4.33,6.57,6.61,6.61,0,0,1-2.61,5.6,9.58,9.58,0,0,1-5.48,1.68ZM13.1,13.81c3,0,5-.36,6.56-1.52a5.16,5.16,0,0,0,2-4.44A5.39,5.39,0,0,0,19.18,3.2C17.62,2.2,16,2,13.1,2H5.53V13.81Z" transform="translate(0.15)"/><path d="M28.75,27.7H27.19V.48h1.56Z" transform="translate(0.15)"/><path d="M49,5.16a9.55,9.55,0,0,0-7.76-3.8c-4.17,0-7.33,2-7.33,5.49s2.12,4.76,6.17,5.6l3.76.8c4.52,1,7.57,2.84,7.57,7.17,0,4.6-3.57,7.76-9.77,7.76a11.49,11.49,0,0,1-10.45-5.84l1.32-1a9.92,9.92,0,0,0,9.17,5.48c5.28,0,8.12-2.6,8.12-6.24,0-3.29-2.32-5-6.4-5.85l-3.8-.8c-3.93-.84-7.29-2.24-7.29-6.88,0-4.25,3.56-7,8.93-7a11.11,11.11,0,0,1,8.88,3.92Z" transform="translate(0.15)"/><path d="M62.17.48c4.17,0,6.69.08,9.25,1.88,3,2.08,5,6.33,5,11.65,0,4.61-1.44,8.49-3.92,10.93-2.72,2.64-5.4,2.76-10.93,2.76H55.29V.48ZM56.85,26.22h5.76c3.4,0,6.17,0,8.37-2s3.84-5.36,3.84-10.09C74.82,10,73.46,6.24,70.9,4c-2.28-2-4.6-2-9.29-2H56.85Z" transform="translate(0.15)"/><path d="M79.5,17.41l8.77,8.45V2H79.5V.62H89.75v25.2l8.81-8.41v1.84L89,28.36,79.5,19.25V17.41Z" transform="translate(0.15)"/><path d="M18.9,46.14l-8.77-8.45v23.9H18.9v1.34H8.65V37.73l-8.8,8.41V44.3l9.52-9.11L18.9,44.3v1.84Z" transform="translate(0.15)"/><path d="M35.51,35.23a10.39,10.39,0,0,1,10,6.48l-1.24,1.16c-1.56-4-4.64-6.24-8.77-6.24-6,0-9.93,5-9.93,12.69S29.63,62,35.59,62c4.61,0,8.61-3,8.61-8.29V51H34.47V49.52H45.68V62.93H44.2V58.25h0c-1.12,2.44-3.72,5.16-8.77,5.16C28.27,63.41,24,57.77,24,49.32S28.39,35.23,35.51,35.23Z" transform="translate(0.15)"/><path d="M66.66,62.93H50V35.71h1.56V61.45H66.66Z" transform="translate(0.15)"/><path d="M77.26,35.23c7.17,0,11.53,5.56,11.53,14.09S84.47,63.41,77.26,63.41,65.73,57.85,65.73,49.32,70.14,35.23,77.26,35.23Zm0,26.78c6,0,10-5,10-12.69s-3.88-12.69-10-12.69-9.93,5-9.93,12.69S71.3,62,77.26,62Z" transform="translate(0.15)"/><path d="M106.57,48.68a6.71,6.71,0,0,1,6.16,6.88,6.56,6.56,0,0,1-3.56,6.13c-1.52.8-3.12,1.24-6.93,1.24H92.11V35.71h9.29c3.32,0,5.77.16,7.61,1.48a6.34,6.34,0,0,1,2.68,5.36A6.1,6.1,0,0,1,106.57,48.68Zm1.76-10c-1.32-1.12-3.09-1.44-6.17-1.44H93.67V48H102c2.8,0,4-.2,5.09-.68a4.85,4.85,0,0,0,3-4.73A5,5,0,0,0,108.33,38.63ZM93.67,49.44v12h8.89c3.41,0,4.81-.4,6.13-1.24a5.12,5.12,0,0,0,2.36-4.69,5.46,5.46,0,0,0-3.56-5.44,12.81,12.81,0,0,0-4.93-.64Z" transform="translate(0.15)"/><path d="M115,62.93h-1.6l10.25-27.22h1.92l10.21,27.22h-1.56L131,54.36H118.13Zm11.29-21.1c-.52-1.4-1.32-3.68-1.68-4.92-.48,1.36-1.32,3.56-1.8,4.88l-4.17,11.13h11.81Z" transform="translate(0.15)"/><path d="M155,62.93H138.3V35.71h1.57V61.45H155Z" transform="translate(0.15)"/></svg>