<svg xmlns="http://www.w3.org/2000/svg" viewBox="0 0 1220.2 655.77"><defs><style>.a{fill:#fff;}.b{fill:none;stroke:#fff;stroke-miterlimit:10;stroke-width:1.66px;}</style></defs><title>RISDGlobal_bg</title><path class="a" d="M798.34,55.65h-2.42l17.32,17.52H794.87v1.66h18.36v0L795.92,92.4h2.42L816.27,74Z" transform="translate(319 -41.55)"/><path class="a" d="M-234.95,679-217,697.33h2.42l-17.32-17.53h18.37v-1.66h-18.37v0l17.32-17.52H-217Z" transform="translate(319 -41.55)"/><path class="a" d="M-289,662.17v17h-27.19V662.76c0-4.34.17-8,1.11-10.82,1.79-5.71,6.05-9.38,12.44-9.38,4.44,0,8,1.71,10.15,4.69,2.47,3.49,3.49,7.5,3.49,14.92m29-22.67-27.19,19.26c-.17-4.69-1-8.86-3.24-12.11-2.47-3.75-6.56-6.13-12.19-6.13-8.35,0-13.21,5-14.57,12.1a43.85,43.85,0,0,0-.77,9.12V681h58v-1.88h-27.19V661.23L-260,642.05Zm0-7.68V630h-58v1.87ZM-304.34,619c-7.76,0-12.78-6.65-12.87-16A22.38,22.38,0,0,1-309,585.38l-1.7-1.11A24.17,24.17,0,0,0-319,602.76c.08,10.66,5.88,18.24,14.91,18.24,9.63-.08,12.28-7.93,14.07-16l1.78-7.76c2-8.94,5.63-14.23,13-14.23,8.53,0,14.32,6.22,14.41,17.9,0,10.31-5.46,17.64-11.85,20.71l1.45,1.53c6-3.07,12.19-10.57,12.19-22.07-.09-13.3-7.08-20-16.2-20-8.69,0-12.61,5.54-14.91,15.85l-1.7,7.59c-2,8.95-4.86,14.57-12.53,14.57m15.42-89.14c11.08,0,18,3.75,22.42,8.52,4.6,4.86,4.69,11.85,4.69,19.26v12.44h-54.38v-11c0-9.8.43-15.6,4.78-20.54,4.85-5.63,12.18-8.69,22.49-8.69m23,6.39c-5.19-5.46-13.46-8.44-23.26-8.44-11.42,0-20.37,4.43-24.89,10.74-3.75,5.37-3.92,11.33-3.92,20.2V572h58V559.55c0-11.76-.26-17.47-5.89-23.26" transform="translate(319 -41.55)"/><path class="a" d="M879.55,91.5v26.33l-22.84-8.78c-5.46-2-12.19-4.43-12.19-4.43v-.09s6-2,12.28-4.34Zm-37.33,14.14,57.95,21.73v-2l-18.83-6.9V90.81l18.83-7V81.69L842.22,103.6Zm57.19,100c0,13.55-10.91,22.42-28.21,22.42S843,219.33,843,205.61,853.9,183.2,871.2,183.2s28.21,8.86,28.21,22.41m-58.21,0c0,15.17,11.85,24.37,30,24.37s30-9.11,30-24.37-11.85-24.38-30-24.38-30,9.13-30,24.38m1,55.48V263h57.95v-35.2h-1.78v33.32ZM898.39,74.88H842.22v1.87h57.95V41.55h-1.78Zm-2.82,61.87c1.79,3,2.82,6.14,2.82,13.72v19.94H870.77V150.47c0-5.8.6-8.78,1.54-11a12.82,12.82,0,0,1,12.35-8.1c5.2,0,8.7,1.87,10.91,5.37M844,170.41V151.49c0-6.82.77-11,3.33-14.06a11.68,11.68,0,0,1,9.28-4,11.23,11.23,0,0,1,10.91,7c1.11,2.56,1.54,5.12,1.54,11.34v18.66Zm25.82-27.61h-.08a13.6,13.6,0,0,0-24.38-5.88c-2.72,3.83-3.15,9.12-3.15,16v19.35h57.95v-20.8c0-8.09-.85-11.5-2.55-14.74-2.3-4.35-6.56-7.41-12.87-7.41-7.5,0-13.81,4.94-14.92,13.46M843,295.78c0-9.46,5.2-16.79,14.31-20l-1.44-1.53c-9.21,3.75-14.66,11.25-14.66,21.56,0,15.17,11.85,24.37,30,24.37s30-9.2,30-23.95c0-9.71-4.27-16.95-12.19-19.68v-.08h11.16v-1.88H872.22v23H874V276.44h6.14a20.53,20.53,0,0,1,9.71,2c6.22,3.24,9.55,10,9.55,17.3,0,13.63-10.91,22.5-28.21,22.5S843,309.58,843,295.78" transform="translate(319 -41.55)"/><path class="b" d="M-316.19,494.37c0-334,116.81-417.62,245.45-417.62,129,0,270.2,153.23,270.2,351.25C199.46,630-75,680.91-75,472.59-75,187.72,430.15,74,794.87,74" transform="translate(319 -41.55)"/><path class="b" d="M898.39,343.21C898.39,609,770,681,657.88,681c-144.65,0-285.71-169.5-285.71-298.51,0-210.2,271.68-315.52,271.68-52.22C643.85,649.92,72.23,679-213.55,679" transform="translate(319 -41.55)"/></svg>