<?xml version="1.0" encoding="utf-8"?>
<!-- Generator: Adobe Illustrator 23.0.1, SVG Export Plug-In . SVG Version: 6.00 Build 0)  -->
<svg version="1.1" id="Layer_1" xmlns="http://www.w3.org/2000/svg" xmlns:xlink="http://www.w3.org/1999/xlink" x="0px" y="0px"
	 viewBox="0 0 28.4 94.6" style="enable-background:new 0 0 28.4 94.6;" xml:space="preserve">
<style type="text/css">
	.st0{fill:#FFFFFF;}
</style>
<title>RISDGlobal_RISD</title>
<path class="st0" d="M27.6,74.3v2l-12.5,8.9V93h12.5v1.6H0.4v-9.2c-0.1-2,0.2-4,0.8-5.8c1.1-2.7,3.7-4.4,6.6-4.3
	c2.2-0.1,4.3,0.9,5.6,2.6c1.1,1.6,1.7,3.5,1.7,5.5L27.6,74.3z M13.7,85.5c0-3-0.4-5-1.5-6.6c-1.1-1.4-2.7-2.1-4.4-2
	c-1.9,0-3.6,0.9-4.7,2.5c-1,1.5-1.2,3.2-1.2,6.1V93h11.8V85.5z"/>
<path class="st0" d="M27.6,69.8v1.6H0.4v-1.6H27.6z"/>
<path class="st0" d="M5.1,49.6c-2.4,1.8-3.8,4.7-3.8,7.8c0,4.2,2,7.3,5.5,7.3s4.8-2.1,5.6-6.2l0.8-3.8c1-4.5,2.8-7.6,7.2-7.6
	c4.6,0,7.8,3.6,7.8,9.8c0.2,4.3-2.1,8.3-5.8,10.4l-1-1.3c3.5-1.7,5.6-5.3,5.5-9.2c0-5.3-2.6-8.1-6.2-8.1c-3.3,0-5,2.3-5.9,6.4
	L14,58.9c-0.8,3.9-2.2,7.3-6.9,7.3c-4.2,0-7-3.6-7-8.9C0,53.9,1.4,50.6,4,48.4L5.1,49.6z"/>
<path class="st0" d="M0.4,36.4c0-4.2,0.1-6.7,1.9-9.2c2.1-3,6.3-5,11.6-5c4.6,0,8.5,1.4,10.9,3.9c2.6,2.7,2.8,5.4,2.8,10.9v6.3H0.4
	V36.4z M26.1,41.7v-5.8c0-3.4,0-6.2-2-8.4s-5.4-3.8-10.1-3.8c-4.1,0-7.9,1.4-10.1,3.9c-2,2.3-2,4.6-2,9.3v4.8H26.1z"/>
<path class="st0" d="M17.3,19.1l8.5-8.8H1.9v8.8H0.5V8.9h25.2l-8.4-8.8h1.8l9.2,9.5l-9.1,9.5H17.3z"/>
</svg>
